G04 EAGLE Gerber X2 export*
%TF.Part,Single*%
%TF.FileFunction,Copper,L4,Bot,Mixed*%
%TF.FilePolarity,Positive*%
%TF.GenerationSoftware,Autodesk,EAGLE,9.0.1*%
%TF.CreationDate,2018-06-26T08:14:36Z*%
G75*
%MOIN*%
%FSLAX34Y34*%
%LPD*%
%AMOC8*
5,1,8,0,0,1.08239X$1,22.5*%
G01*
%ADD10R,0.011811X0.047244*%
%ADD11R,0.047244X0.011811*%
%ADD12R,0.033465X0.098425*%
%ADD13R,0.051181X0.059055*%
%ADD14R,0.059055X0.051181*%
%ADD15R,0.059370X0.059370*%
%ADD16C,0.059370*%
%ADD17R,0.022000X0.052000*%
%ADD18R,0.052000X0.022000*%
%ADD19R,0.098425X0.025591*%
%ADD20C,0.003031*%
%ADD21R,0.031000X0.035000*%
%ADD22R,0.039000X0.061000*%
%ADD23R,0.200000X0.100000*%
%ADD24R,0.040157X0.124803*%
%ADD25C,0.020000*%
%ADD26C,0.029780*%
%ADD27C,0.010000*%
%ADD28C,0.030000*%
%ADD29C,0.022000*%
%ADD30C,0.039370*%
%ADD31C,0.025000*%
%ADD32C,0.006000*%

G36*
X15494Y19891D02*
X15494Y19891D01*
X15499Y19891D01*
X15500Y19892D01*
X15502Y19892D01*
X15506Y19894D01*
X15510Y19895D01*
X15512Y19896D01*
X15514Y19897D01*
X15524Y19904D01*
X15524Y19905D01*
X15525Y19905D01*
X15945Y20325D01*
X15947Y20329D01*
X15950Y20332D01*
X15951Y20333D01*
X15952Y20335D01*
X15954Y20339D01*
X15956Y20343D01*
X15956Y20344D01*
X15957Y20346D01*
X15959Y20359D01*
X15959Y20360D01*
X15959Y22230D01*
X15982Y23929D01*
X15982Y23935D01*
X15981Y23940D01*
X15981Y23941D01*
X15981Y23942D01*
X15979Y23947D01*
X15977Y23952D01*
X15976Y23953D01*
X15973Y23958D01*
X15970Y23962D01*
X15970Y23963D01*
X15969Y23963D01*
X15965Y23967D01*
X15961Y23970D01*
X15960Y23971D01*
X15955Y23974D01*
X15950Y23976D01*
X15949Y23976D01*
X15948Y23977D01*
X15936Y23979D01*
X15934Y23979D01*
X15933Y23979D01*
X15000Y23979D01*
X14915Y24064D01*
X14664Y24315D01*
X14579Y24400D01*
X14579Y25410D01*
X14579Y25415D01*
X14578Y25420D01*
X14578Y25421D01*
X14578Y25422D01*
X14576Y25427D01*
X14574Y25432D01*
X14574Y25433D01*
X14573Y25434D01*
X14570Y25438D01*
X14567Y25442D01*
X14566Y25443D01*
X14566Y25444D01*
X14562Y25447D01*
X14558Y25450D01*
X14557Y25451D01*
X14556Y25452D01*
X14552Y25454D01*
X14547Y25456D01*
X14546Y25456D01*
X14545Y25457D01*
X14533Y25459D01*
X14531Y25459D01*
X14530Y25459D01*
X14319Y25459D01*
X14314Y25459D01*
X14310Y25459D01*
X14308Y25458D01*
X14306Y25458D01*
X14302Y25456D01*
X14298Y25455D01*
X14297Y25454D01*
X14295Y25453D01*
X14285Y25446D01*
X14284Y25445D01*
X14236Y25397D01*
X13838Y24999D01*
X13835Y24996D01*
X13833Y24993D01*
X13832Y24991D01*
X13830Y24989D01*
X13829Y24985D01*
X13827Y24982D01*
X13827Y24980D01*
X13826Y24978D01*
X13824Y24966D01*
X13824Y24965D01*
X13824Y24964D01*
X13824Y24490D01*
X13774Y24440D01*
X13771Y24436D01*
X13768Y24433D01*
X13767Y24432D01*
X13766Y24431D01*
X13764Y24426D01*
X13762Y24422D01*
X13762Y24420D01*
X13761Y24419D01*
X13761Y24414D01*
X13760Y24409D01*
X13760Y24408D01*
X13759Y24407D01*
X13760Y24402D01*
X13760Y24397D01*
X13761Y24396D01*
X13761Y24394D01*
X13762Y24390D01*
X13764Y24385D01*
X13764Y24384D01*
X13765Y24383D01*
X13772Y24373D01*
X13773Y24372D01*
X13774Y24371D01*
X13824Y24321D01*
X13824Y24279D01*
X13824Y24277D01*
X13824Y24275D01*
X13825Y24271D01*
X13825Y24267D01*
X13826Y24265D01*
X13826Y24263D01*
X13828Y24259D01*
X13830Y24255D01*
X13831Y24254D01*
X13832Y24252D01*
X13835Y24249D01*
X13837Y24245D01*
X13839Y24244D01*
X13840Y24242D01*
X13844Y24240D01*
X13847Y24237D01*
X13849Y24237D01*
X13851Y24235D01*
X13854Y24234D01*
X13858Y24232D01*
X13860Y24232D01*
X13862Y24231D01*
X13866Y24231D01*
X13870Y24230D01*
X13872Y24230D01*
X13875Y24230D01*
X13877Y24231D01*
X13883Y24231D01*
X13889Y24233D01*
X13892Y24234D01*
X13954Y24260D01*
X14046Y24260D01*
X14130Y24225D01*
X14195Y24160D01*
X14230Y24076D01*
X14230Y23984D01*
X14195Y23900D01*
X14130Y23835D01*
X14046Y23800D01*
X13954Y23800D01*
X13892Y23826D01*
X13890Y23827D01*
X13888Y23828D01*
X13884Y23828D01*
X13880Y23830D01*
X13878Y23830D01*
X13875Y23830D01*
X13871Y23830D01*
X13867Y23830D01*
X13865Y23829D01*
X13863Y23829D01*
X13859Y23828D01*
X13855Y23827D01*
X13853Y23826D01*
X13851Y23825D01*
X13848Y23823D01*
X13844Y23821D01*
X13843Y23819D01*
X13841Y23818D01*
X13838Y23815D01*
X13835Y23812D01*
X13834Y23811D01*
X13833Y23809D01*
X13831Y23805D01*
X13828Y23802D01*
X13828Y23800D01*
X13827Y23798D01*
X13826Y23796D01*
X13825Y23790D01*
X13824Y23783D01*
X13824Y23781D01*
X13824Y23742D01*
X13776Y23695D01*
X13119Y23695D01*
X13080Y23734D01*
X13076Y23737D01*
X13072Y23740D01*
X13071Y23741D01*
X13070Y23741D01*
X13065Y23743D01*
X13061Y23746D01*
X13060Y23746D01*
X13059Y23746D01*
X13054Y23747D01*
X13049Y23748D01*
X13047Y23748D01*
X13046Y23748D01*
X13041Y23748D01*
X13036Y23747D01*
X13035Y23747D01*
X13034Y23747D01*
X13029Y23745D01*
X13024Y23744D01*
X13023Y23743D01*
X13022Y23743D01*
X13018Y23740D01*
X13014Y23737D01*
X13013Y23736D01*
X13012Y23736D01*
X13004Y23726D01*
X13003Y23725D01*
X13002Y23724D01*
X12997Y23714D01*
X12978Y23695D01*
X12955Y23682D01*
X12929Y23675D01*
X12720Y23675D01*
X12720Y23981D01*
X12719Y23986D01*
X12719Y23991D01*
X12719Y23993D01*
X12719Y23994D01*
X12717Y23998D01*
X12715Y24003D01*
X12714Y24004D01*
X12714Y24005D01*
X12711Y24009D01*
X12708Y24013D01*
X12707Y24014D01*
X12707Y24015D01*
X12703Y24019D01*
X12699Y24022D01*
X12698Y24022D01*
X12697Y24023D01*
X12692Y24025D01*
X12688Y24028D01*
X12687Y24028D01*
X12686Y24028D01*
X12673Y24031D01*
X12672Y24031D01*
X12671Y24031D01*
X12571Y24031D01*
X12566Y24030D01*
X12561Y24030D01*
X12560Y24029D01*
X12559Y24029D01*
X12554Y24027D01*
X12549Y24026D01*
X12548Y24025D01*
X12547Y24025D01*
X12543Y24022D01*
X12539Y24019D01*
X12538Y24018D01*
X12537Y24017D01*
X12534Y24013D01*
X12531Y24010D01*
X12530Y24009D01*
X12529Y24008D01*
X12527Y24003D01*
X12525Y23999D01*
X12525Y23998D01*
X12524Y23996D01*
X12522Y23984D01*
X12522Y23983D01*
X12522Y23981D01*
X12522Y23675D01*
X12312Y23675D01*
X12287Y23682D01*
X12264Y23695D01*
X12245Y23714D01*
X12238Y23726D01*
X12235Y23730D01*
X12232Y23734D01*
X12231Y23735D01*
X12230Y23736D01*
X12226Y23739D01*
X12223Y23742D01*
X12222Y23743D01*
X12221Y23743D01*
X12216Y23746D01*
X12211Y23748D01*
X12210Y23748D01*
X12209Y23748D01*
X12204Y23749D01*
X12199Y23750D01*
X12198Y23750D01*
X12197Y23750D01*
X12192Y23750D01*
X12187Y23750D01*
X12186Y23749D01*
X12185Y23749D01*
X12180Y23748D01*
X12175Y23746D01*
X12174Y23746D01*
X12173Y23745D01*
X12163Y23738D01*
X12161Y23737D01*
X12160Y23736D01*
X12119Y23695D01*
X12052Y23695D01*
X12050Y23695D01*
X12048Y23695D01*
X12044Y23694D01*
X12040Y23693D01*
X12038Y23692D01*
X12036Y23692D01*
X12032Y23690D01*
X12028Y23689D01*
X12027Y23687D01*
X12025Y23686D01*
X12022Y23684D01*
X12018Y23681D01*
X12017Y23680D01*
X12015Y23678D01*
X12013Y23675D01*
X12011Y23672D01*
X12010Y23670D01*
X12008Y23668D01*
X12007Y23664D01*
X12005Y23660D01*
X12005Y23658D01*
X12004Y23656D01*
X12004Y23652D01*
X12003Y23648D01*
X12003Y23646D01*
X12003Y23644D01*
X12004Y23641D01*
X12004Y23636D01*
X12006Y23629D01*
X12007Y23627D01*
X12020Y23596D01*
X12020Y23504D01*
X11985Y23420D01*
X11920Y23355D01*
X11836Y23320D01*
X11744Y23320D01*
X11660Y23355D01*
X11595Y23420D01*
X11560Y23504D01*
X11560Y23596D01*
X11573Y23627D01*
X11574Y23629D01*
X11575Y23631D01*
X11575Y23635D01*
X11576Y23639D01*
X11577Y23641D01*
X11577Y23643D01*
X11577Y23647D01*
X11577Y23651D01*
X11576Y23653D01*
X11576Y23655D01*
X11575Y23659D01*
X11574Y23663D01*
X11573Y23665D01*
X11572Y23667D01*
X11570Y23671D01*
X11568Y23674D01*
X11566Y23676D01*
X11565Y23678D01*
X11562Y23680D01*
X11559Y23683D01*
X11558Y23684D01*
X11556Y23686D01*
X11552Y23688D01*
X11549Y23690D01*
X11547Y23691D01*
X11545Y23692D01*
X11542Y23692D01*
X11537Y23694D01*
X11530Y23694D01*
X11528Y23695D01*
X11462Y23695D01*
X11401Y23756D01*
X11396Y23759D01*
X11392Y23763D01*
X11391Y23763D01*
X11391Y23764D01*
X11386Y23766D01*
X11381Y23768D01*
X11380Y23768D01*
X11379Y23769D01*
X11374Y23769D01*
X11369Y23770D01*
X11368Y23770D01*
X11367Y23771D01*
X11362Y23770D01*
X11356Y23770D01*
X11356Y23769D01*
X11355Y23769D01*
X11350Y23767D01*
X11345Y23766D01*
X11344Y23765D01*
X11343Y23765D01*
X11339Y23762D01*
X11334Y23759D01*
X11333Y23758D01*
X11329Y23754D01*
X11326Y23750D01*
X11325Y23749D01*
X11325Y23748D01*
X11319Y23737D01*
X11319Y23735D01*
X11318Y23734D01*
X11318Y23732D01*
X11304Y23709D01*
X11286Y23690D01*
X11263Y23677D01*
X11237Y23670D01*
X11028Y23670D01*
X11028Y23977D01*
X11027Y23982D01*
X11027Y23987D01*
X11026Y23988D01*
X11026Y23989D01*
X11024Y23994D01*
X11023Y23999D01*
X11022Y24000D01*
X11022Y24001D01*
X11019Y24005D01*
X11016Y24009D01*
X11015Y24010D01*
X11014Y24011D01*
X11010Y24014D01*
X11007Y24017D01*
X11006Y24018D01*
X11005Y24019D01*
X11000Y24021D01*
X10996Y24023D01*
X10995Y24023D01*
X10993Y24024D01*
X10981Y24026D01*
X10980Y24026D01*
X10979Y24026D01*
X10928Y24026D01*
X10928Y24077D01*
X10927Y24082D01*
X10927Y24087D01*
X10926Y24088D01*
X10926Y24089D01*
X10924Y24094D01*
X10923Y24099D01*
X10922Y24100D01*
X10922Y24101D01*
X10919Y24105D01*
X10916Y24109D01*
X10915Y24110D01*
X10914Y24111D01*
X10910Y24114D01*
X10907Y24117D01*
X10906Y24118D01*
X10905Y24119D01*
X10900Y24121D01*
X10896Y24123D01*
X10895Y24123D01*
X10893Y24124D01*
X10881Y24126D01*
X10880Y24126D01*
X10878Y24126D01*
X10532Y24126D01*
X10532Y24296D01*
X10539Y24322D01*
X10553Y24345D01*
X10571Y24363D01*
X10581Y24369D01*
X10585Y24372D01*
X10590Y24375D01*
X10590Y24376D01*
X10591Y24377D01*
X10594Y24381D01*
X10598Y24385D01*
X10598Y24386D01*
X10599Y24386D01*
X10601Y24391D01*
X10603Y24396D01*
X10603Y24397D01*
X10604Y24398D01*
X10605Y24403D01*
X10606Y24408D01*
X10606Y24409D01*
X10606Y24410D01*
X10605Y24415D01*
X10605Y24420D01*
X10605Y24421D01*
X10605Y24422D01*
X10603Y24427D01*
X10601Y24432D01*
X10601Y24433D01*
X10601Y24434D01*
X10594Y24444D01*
X10592Y24446D01*
X10591Y24447D01*
X10552Y24486D01*
X10552Y25064D01*
X10600Y25112D01*
X11257Y25112D01*
X11305Y25064D01*
X11305Y24950D01*
X11305Y24945D01*
X11306Y24940D01*
X11306Y24938D01*
X11306Y24937D01*
X11308Y24933D01*
X11310Y24928D01*
X11310Y24927D01*
X11311Y24926D01*
X11314Y24922D01*
X11316Y24918D01*
X11317Y24917D01*
X11318Y24916D01*
X11322Y24913D01*
X11326Y24909D01*
X11327Y24909D01*
X11328Y24908D01*
X11332Y24906D01*
X11337Y24903D01*
X11338Y24903D01*
X11339Y24903D01*
X11351Y24900D01*
X11353Y24900D01*
X11354Y24900D01*
X11365Y24900D01*
X11370Y24901D01*
X11375Y24901D01*
X11376Y24902D01*
X11378Y24902D01*
X11382Y24904D01*
X11387Y24905D01*
X11388Y24906D01*
X11389Y24906D01*
X11393Y24909D01*
X11397Y24912D01*
X11398Y24913D01*
X11399Y24914D01*
X11402Y24918D01*
X11406Y24921D01*
X11406Y24922D01*
X11407Y24923D01*
X11409Y24928D01*
X11411Y24932D01*
X11412Y24933D01*
X11412Y24935D01*
X11414Y24947D01*
X11414Y24949D01*
X11415Y24950D01*
X11415Y25069D01*
X11462Y25116D01*
X11621Y25116D01*
X11625Y25117D01*
X11630Y25117D01*
X11632Y25118D01*
X11633Y25118D01*
X11637Y25120D01*
X11642Y25121D01*
X11643Y25122D01*
X11644Y25122D01*
X11648Y25125D01*
X11653Y25128D01*
X11653Y25129D01*
X11654Y25130D01*
X11658Y25134D01*
X11661Y25137D01*
X11661Y25138D01*
X11662Y25139D01*
X11664Y25144D01*
X11667Y25148D01*
X11667Y25149D01*
X11668Y25151D01*
X11670Y25163D01*
X11670Y25164D01*
X11670Y25165D01*
X11670Y25341D01*
X11950Y25621D01*
X11980Y25621D01*
X11986Y25621D01*
X11991Y25622D01*
X11992Y25622D01*
X11998Y25624D01*
X12003Y25626D01*
X12003Y25627D01*
X12004Y25627D01*
X12008Y25630D01*
X12013Y25633D01*
X12013Y25634D01*
X12014Y25634D01*
X12017Y25639D01*
X12021Y25643D01*
X12022Y25644D01*
X12024Y25649D01*
X12027Y25654D01*
X12027Y25655D01*
X12028Y25661D01*
X12029Y25666D01*
X12029Y25667D01*
X12029Y25673D01*
X12029Y25679D01*
X12028Y25679D01*
X12028Y25680D01*
X12026Y25685D01*
X12025Y25690D01*
X12025Y25691D01*
X12024Y25692D01*
X12017Y25702D01*
X12016Y25704D01*
X12015Y25705D01*
X12009Y25710D01*
X12009Y26032D01*
X12009Y26037D01*
X12008Y26042D01*
X12008Y26043D01*
X12008Y26044D01*
X12006Y26049D01*
X12004Y26054D01*
X12004Y26055D01*
X12003Y26056D01*
X12000Y26060D01*
X11997Y26064D01*
X11996Y26065D01*
X11996Y26066D01*
X11992Y26069D01*
X11988Y26072D01*
X11987Y26073D01*
X11986Y26074D01*
X11982Y26076D01*
X11977Y26078D01*
X11976Y26078D01*
X11975Y26079D01*
X11963Y26081D01*
X11961Y26081D01*
X11960Y26081D01*
X11773Y26081D01*
X11768Y26081D01*
X11763Y26080D01*
X11762Y26080D01*
X11761Y26080D01*
X11756Y26078D01*
X11752Y26076D01*
X11751Y26076D01*
X11749Y26075D01*
X11745Y26072D01*
X11741Y26069D01*
X11740Y26068D01*
X11739Y26068D01*
X11736Y26064D01*
X11733Y26060D01*
X11732Y26059D01*
X11732Y26058D01*
X11729Y26054D01*
X11727Y26049D01*
X11727Y26048D01*
X11726Y26047D01*
X11724Y26035D01*
X11724Y26033D01*
X11724Y26032D01*
X11724Y25913D01*
X11677Y25865D01*
X11019Y25865D01*
X10972Y25913D01*
X10972Y26065D01*
X10971Y26070D01*
X10971Y26075D01*
X10971Y26076D01*
X10970Y26077D01*
X10969Y26082D01*
X10967Y26087D01*
X10966Y26088D01*
X10966Y26089D01*
X10963Y26093D01*
X10960Y26097D01*
X10959Y26098D01*
X10958Y26099D01*
X10955Y26102D01*
X10951Y26105D01*
X10950Y26106D01*
X10949Y26107D01*
X10944Y26109D01*
X10940Y26111D01*
X10939Y26111D01*
X10938Y26112D01*
X10925Y26114D01*
X10924Y26114D01*
X10923Y26114D01*
X10891Y26114D01*
X10887Y26114D01*
X10883Y26114D01*
X10881Y26113D01*
X10879Y26113D01*
X10875Y26111D01*
X10871Y26110D01*
X10870Y26109D01*
X10868Y26108D01*
X10858Y26101D01*
X10857Y26100D01*
X10801Y26044D01*
X10214Y26044D01*
X10167Y26092D01*
X10167Y26379D01*
X10214Y26426D01*
X10801Y26426D01*
X10857Y26370D01*
X10860Y26368D01*
X10863Y26365D01*
X10865Y26364D01*
X10866Y26363D01*
X10870Y26361D01*
X10874Y26359D01*
X10876Y26359D01*
X10878Y26358D01*
X10890Y26356D01*
X10891Y26356D01*
X10923Y26356D01*
X10928Y26356D01*
X10933Y26357D01*
X10934Y26357D01*
X10935Y26357D01*
X10940Y26359D01*
X10944Y26361D01*
X10945Y26362D01*
X10947Y26362D01*
X10951Y26365D01*
X10955Y26368D01*
X10956Y26369D01*
X10957Y26369D01*
X10960Y26373D01*
X10963Y26377D01*
X10964Y26378D01*
X10965Y26379D01*
X10967Y26383D01*
X10969Y26388D01*
X10969Y26389D01*
X10970Y26390D01*
X10972Y26403D01*
X10972Y26404D01*
X10972Y26405D01*
X10972Y26491D01*
X11011Y26530D01*
X11014Y26534D01*
X11017Y26538D01*
X11018Y26539D01*
X11019Y26540D01*
X11021Y26545D01*
X11023Y26549D01*
X11023Y26551D01*
X11023Y26552D01*
X11024Y26557D01*
X11025Y26562D01*
X11025Y26563D01*
X11025Y26564D01*
X11025Y26569D01*
X11025Y26574D01*
X11024Y26575D01*
X11024Y26576D01*
X11022Y26581D01*
X11021Y26586D01*
X11020Y26587D01*
X11020Y26588D01*
X11017Y26592D01*
X11014Y26596D01*
X11013Y26597D01*
X11013Y26598D01*
X11003Y26606D01*
X11002Y26607D01*
X11001Y26608D01*
X10991Y26613D01*
X10972Y26632D01*
X10959Y26655D01*
X10952Y26681D01*
X10952Y26851D01*
X11298Y26851D01*
X11303Y26851D01*
X11308Y26852D01*
X11309Y26852D01*
X11310Y26852D01*
X11315Y26854D01*
X11320Y26856D01*
X11321Y26856D01*
X11322Y26857D01*
X11326Y26860D01*
X11330Y26863D01*
X11331Y26864D01*
X11332Y26864D01*
X11335Y26868D01*
X11338Y26872D01*
X11339Y26873D01*
X11340Y26874D01*
X11342Y26878D01*
X11344Y26883D01*
X11344Y26884D01*
X11345Y26885D01*
X11347Y26897D01*
X11347Y26899D01*
X11347Y26900D01*
X11347Y26951D01*
X11349Y26951D01*
X11349Y26900D01*
X11349Y26895D01*
X11350Y26890D01*
X11350Y26889D01*
X11350Y26888D01*
X11352Y26883D01*
X11354Y26878D01*
X11354Y26877D01*
X11355Y26876D01*
X11358Y26872D01*
X11361Y26868D01*
X11362Y26867D01*
X11362Y26866D01*
X11366Y26863D01*
X11370Y26860D01*
X11371Y26859D01*
X11372Y26858D01*
X11376Y26856D01*
X11381Y26854D01*
X11382Y26854D01*
X11383Y26853D01*
X11395Y26851D01*
X11397Y26851D01*
X11398Y26851D01*
X11744Y26851D01*
X11744Y26681D01*
X11737Y26655D01*
X11724Y26632D01*
X11705Y26613D01*
X11695Y26608D01*
X11691Y26605D01*
X11687Y26602D01*
X11686Y26601D01*
X11685Y26600D01*
X11682Y26596D01*
X11679Y26592D01*
X11678Y26591D01*
X11678Y26590D01*
X11676Y26586D01*
X11673Y26581D01*
X11673Y26580D01*
X11673Y26579D01*
X11672Y26574D01*
X11671Y26569D01*
X11671Y26568D01*
X11671Y26567D01*
X11671Y26562D01*
X11671Y26557D01*
X11672Y26556D01*
X11672Y26554D01*
X11674Y26550D01*
X11675Y26545D01*
X11676Y26544D01*
X11676Y26543D01*
X11683Y26532D01*
X11684Y26531D01*
X11685Y26530D01*
X11724Y26491D01*
X11724Y26372D01*
X11725Y26367D01*
X11725Y26362D01*
X11725Y26361D01*
X11726Y26360D01*
X11727Y26355D01*
X11729Y26350D01*
X11730Y26349D01*
X11730Y26348D01*
X11733Y26344D01*
X11736Y26340D01*
X11737Y26339D01*
X11738Y26338D01*
X11741Y26335D01*
X11745Y26332D01*
X11746Y26331D01*
X11747Y26330D01*
X11752Y26328D01*
X11756Y26326D01*
X11757Y26326D01*
X11758Y26325D01*
X11771Y26323D01*
X11772Y26323D01*
X11773Y26323D01*
X11960Y26323D01*
X11965Y26323D01*
X11970Y26324D01*
X11971Y26324D01*
X11972Y26324D01*
X11977Y26326D01*
X11982Y26328D01*
X11983Y26328D01*
X11984Y26329D01*
X11988Y26332D01*
X11992Y26335D01*
X11993Y26335D01*
X11994Y26336D01*
X11997Y26340D01*
X12000Y26344D01*
X12001Y26345D01*
X12002Y26346D01*
X12004Y26350D01*
X12006Y26355D01*
X12006Y26356D01*
X12007Y26357D01*
X12009Y26369D01*
X12009Y26371D01*
X12009Y26372D01*
X12009Y27420D01*
X12009Y27424D01*
X12009Y27429D01*
X12008Y27430D01*
X12008Y27432D01*
X12006Y27436D01*
X12005Y27440D01*
X12004Y27442D01*
X12003Y27444D01*
X11996Y27454D01*
X11995Y27454D01*
X11995Y27455D01*
X11645Y27805D01*
X11641Y27807D01*
X11638Y27810D01*
X11637Y27811D01*
X11635Y27812D01*
X11631Y27814D01*
X11627Y27816D01*
X11626Y27816D01*
X11624Y27817D01*
X11611Y27819D01*
X11610Y27819D01*
X10678Y27819D01*
X10673Y27819D01*
X10668Y27818D01*
X10667Y27818D01*
X10665Y27818D01*
X10661Y27816D01*
X10656Y27814D01*
X10655Y27814D01*
X10654Y27813D01*
X10650Y27810D01*
X10646Y27807D01*
X10645Y27806D01*
X10644Y27806D01*
X10641Y27802D01*
X10637Y27798D01*
X10637Y27797D01*
X10636Y27796D01*
X10634Y27792D01*
X10632Y27787D01*
X10631Y27786D01*
X10631Y27785D01*
X10628Y27773D01*
X10629Y27771D01*
X10628Y27770D01*
X10628Y27215D01*
X10629Y27210D01*
X10629Y27205D01*
X10630Y27204D01*
X10630Y27203D01*
X10632Y27198D01*
X10633Y27194D01*
X10634Y27192D01*
X10635Y27191D01*
X10637Y27187D01*
X10640Y27183D01*
X10641Y27182D01*
X10642Y27181D01*
X10646Y27178D01*
X10649Y27175D01*
X10651Y27174D01*
X10652Y27173D01*
X10656Y27171D01*
X10660Y27169D01*
X10661Y27169D01*
X10663Y27168D01*
X10675Y27166D01*
X10677Y27166D01*
X10678Y27166D01*
X10801Y27166D01*
X10848Y27119D01*
X10848Y26832D01*
X10801Y26784D01*
X10214Y26784D01*
X10167Y26832D01*
X10167Y27119D01*
X10214Y27166D01*
X10338Y27166D01*
X10343Y27166D01*
X10347Y27167D01*
X10349Y27167D01*
X10350Y27167D01*
X10355Y27169D01*
X10359Y27171D01*
X10360Y27172D01*
X10362Y27172D01*
X10365Y27175D01*
X10370Y27178D01*
X10370Y27179D01*
X10372Y27179D01*
X10375Y27183D01*
X10378Y27187D01*
X10379Y27188D01*
X10379Y27189D01*
X10381Y27193D01*
X10384Y27198D01*
X10384Y27199D01*
X10385Y27200D01*
X10387Y27213D01*
X10387Y27214D01*
X10387Y27215D01*
X10387Y28102D01*
X10386Y28107D01*
X10386Y28111D01*
X10386Y28113D01*
X10385Y28115D01*
X10384Y28119D01*
X10382Y28123D01*
X10382Y28124D01*
X10381Y28126D01*
X10373Y28136D01*
X10373Y28137D01*
X10372Y28137D01*
X10059Y28450D01*
X10059Y28921D01*
X10059Y28926D01*
X10058Y28931D01*
X10058Y28932D01*
X10058Y28933D01*
X10056Y28938D01*
X10054Y28943D01*
X10054Y28944D01*
X10053Y28945D01*
X10050Y28949D01*
X10047Y28953D01*
X10046Y28954D01*
X10046Y28955D01*
X10042Y28958D01*
X10038Y28961D01*
X10037Y28962D01*
X10036Y28963D01*
X10032Y28965D01*
X10027Y28967D01*
X10026Y28967D01*
X10025Y28968D01*
X10013Y28970D01*
X10011Y28970D01*
X10010Y28970D01*
X9954Y28970D01*
X9870Y29005D01*
X9805Y29070D01*
X9770Y29154D01*
X9770Y29246D01*
X9805Y29330D01*
X9870Y29395D01*
X9954Y29430D01*
X10010Y29430D01*
X10015Y29430D01*
X10020Y29431D01*
X10021Y29431D01*
X10022Y29431D01*
X10027Y29433D01*
X10032Y29435D01*
X10033Y29435D01*
X10034Y29436D01*
X10038Y29439D01*
X10042Y29441D01*
X10043Y29442D01*
X10044Y29443D01*
X10047Y29447D01*
X10050Y29451D01*
X10051Y29452D01*
X10052Y29453D01*
X10054Y29457D01*
X10056Y29462D01*
X10056Y29463D01*
X10057Y29464D01*
X10059Y29476D01*
X10059Y29477D01*
X10059Y29478D01*
X10059Y29479D01*
X10059Y29480D01*
X10059Y29485D01*
X10058Y29490D01*
X10058Y29491D01*
X10058Y29492D01*
X10056Y29497D01*
X10054Y29502D01*
X10054Y29503D01*
X10053Y29504D01*
X10050Y29508D01*
X10047Y29512D01*
X10046Y29513D01*
X10046Y29514D01*
X10042Y29517D01*
X10038Y29520D01*
X10037Y29521D01*
X10036Y29522D01*
X10032Y29524D01*
X10027Y29526D01*
X10026Y29526D01*
X10025Y29527D01*
X10013Y29529D01*
X10011Y29529D01*
X10010Y29529D01*
X9814Y29529D01*
X9810Y29529D01*
X9806Y29529D01*
X9804Y29528D01*
X9802Y29528D01*
X9798Y29526D01*
X9794Y29525D01*
X9793Y29524D01*
X9791Y29523D01*
X9781Y29516D01*
X9780Y29515D01*
X9770Y29505D01*
X9686Y29470D01*
X9594Y29470D01*
X9510Y29505D01*
X9445Y29570D01*
X9410Y29654D01*
X9410Y29746D01*
X9445Y29830D01*
X9510Y29895D01*
X9594Y29930D01*
X9686Y29930D01*
X9770Y29895D01*
X9835Y29830D01*
X9847Y29801D01*
X9847Y29800D01*
X9848Y29798D01*
X9850Y29794D01*
X9853Y29790D01*
X9854Y29789D01*
X9855Y29788D01*
X9858Y29785D01*
X9862Y29781D01*
X9863Y29781D01*
X9864Y29780D01*
X9868Y29777D01*
X9872Y29775D01*
X9874Y29775D01*
X9875Y29774D01*
X9877Y29773D01*
X9884Y29771D01*
X9890Y29771D01*
X9892Y29771D01*
X10010Y29771D01*
X10015Y29771D01*
X10020Y29772D01*
X10021Y29772D01*
X10022Y29772D01*
X10027Y29774D01*
X10032Y29776D01*
X10033Y29776D01*
X10034Y29777D01*
X10038Y29780D01*
X10042Y29783D01*
X10043Y29784D01*
X10044Y29784D01*
X10047Y29788D01*
X10050Y29792D01*
X10051Y29793D01*
X10052Y29794D01*
X10054Y29798D01*
X10056Y29803D01*
X10056Y29804D01*
X10057Y29805D01*
X10059Y29817D01*
X10059Y29819D01*
X10059Y29820D01*
X10059Y30780D01*
X10059Y30785D01*
X10058Y30790D01*
X10058Y30791D01*
X10058Y30792D01*
X10056Y30797D01*
X10054Y30802D01*
X10054Y30803D01*
X10053Y30804D01*
X10050Y30808D01*
X10047Y30812D01*
X10046Y30813D01*
X10046Y30814D01*
X10042Y30817D01*
X10038Y30820D01*
X10037Y30821D01*
X10036Y30822D01*
X10032Y30824D01*
X10027Y30826D01*
X10026Y30826D01*
X10025Y30827D01*
X10013Y30829D01*
X10011Y30829D01*
X10010Y30829D01*
X9970Y30829D01*
X9966Y30829D01*
X9962Y30829D01*
X9960Y30828D01*
X9958Y30828D01*
X9954Y30826D01*
X9950Y30825D01*
X9949Y30824D01*
X9947Y30823D01*
X9937Y30816D01*
X9936Y30815D01*
X9526Y30405D01*
X9441Y30320D01*
X8427Y30320D01*
X8422Y30319D01*
X8416Y30319D01*
X8415Y30319D01*
X8410Y30317D01*
X8405Y30315D01*
X8404Y30314D01*
X8399Y30311D01*
X8395Y30308D01*
X8394Y30307D01*
X8390Y30302D01*
X8386Y30298D01*
X8386Y30297D01*
X8383Y30292D01*
X8381Y30287D01*
X8381Y30286D01*
X8380Y30286D01*
X8380Y30280D01*
X8378Y30275D01*
X8378Y30274D01*
X8379Y30268D01*
X8379Y30262D01*
X8379Y30261D01*
X8381Y30256D01*
X8383Y30251D01*
X8383Y30250D01*
X8383Y30249D01*
X8390Y30239D01*
X8392Y30237D01*
X8393Y30236D01*
X8442Y30187D01*
X8442Y29759D01*
X8443Y29755D01*
X8443Y29750D01*
X8444Y29749D01*
X8444Y29747D01*
X8445Y29743D01*
X8447Y29739D01*
X8448Y29737D01*
X8448Y29735D01*
X8456Y29725D01*
X8457Y29724D01*
X8740Y29440D01*
X8744Y29438D01*
X8747Y29435D01*
X8749Y29434D01*
X8750Y29433D01*
X8754Y29431D01*
X8758Y29429D01*
X8759Y29429D01*
X8762Y29428D01*
X8774Y29426D01*
X8775Y29426D01*
X9113Y29426D01*
X9161Y29379D01*
X9161Y29030D01*
X9161Y29025D01*
X9162Y29020D01*
X9162Y29019D01*
X9162Y29018D01*
X9164Y29013D01*
X9166Y29008D01*
X9166Y29007D01*
X9167Y29006D01*
X9170Y29002D01*
X9172Y28998D01*
X9173Y28997D01*
X9174Y28996D01*
X9178Y28993D01*
X9182Y28990D01*
X9183Y28989D01*
X9184Y28988D01*
X9188Y28986D01*
X9193Y28984D01*
X9194Y28984D01*
X9195Y28983D01*
X9207Y28981D01*
X9209Y28981D01*
X9210Y28981D01*
X9216Y28981D01*
X9220Y28981D01*
X9224Y28981D01*
X9226Y28982D01*
X9228Y28982D01*
X9232Y28984D01*
X9236Y28985D01*
X9237Y28986D01*
X9239Y28987D01*
X9249Y28994D01*
X9250Y28995D01*
X9310Y29055D01*
X9394Y29090D01*
X9486Y29090D01*
X9570Y29055D01*
X9635Y28990D01*
X9670Y28906D01*
X9670Y28814D01*
X9635Y28730D01*
X9570Y28665D01*
X9486Y28630D01*
X9394Y28630D01*
X9310Y28665D01*
X9250Y28725D01*
X9247Y28727D01*
X9244Y28730D01*
X9242Y28731D01*
X9241Y28732D01*
X9237Y28734D01*
X9233Y28736D01*
X9231Y28736D01*
X9229Y28737D01*
X9217Y28739D01*
X9216Y28739D01*
X9199Y28739D01*
X9195Y28739D01*
X9191Y28739D01*
X9189Y28738D01*
X9187Y28738D01*
X9183Y28736D01*
X9179Y28735D01*
X9177Y28734D01*
X9175Y28733D01*
X9165Y28726D01*
X9165Y28725D01*
X9164Y28725D01*
X9113Y28674D01*
X8535Y28674D01*
X8496Y28713D01*
X8492Y28716D01*
X8488Y28719D01*
X8487Y28720D01*
X8486Y28721D01*
X8481Y28723D01*
X8476Y28725D01*
X8475Y28725D01*
X8474Y28725D01*
X8469Y28726D01*
X8464Y28727D01*
X8463Y28727D01*
X8462Y28727D01*
X8457Y28727D01*
X8452Y28727D01*
X8451Y28726D01*
X8450Y28726D01*
X8445Y28724D01*
X8440Y28723D01*
X8439Y28722D01*
X8438Y28722D01*
X8434Y28719D01*
X8430Y28716D01*
X8429Y28715D01*
X8428Y28715D01*
X8420Y28705D01*
X8419Y28704D01*
X8418Y28703D01*
X8413Y28693D01*
X8394Y28674D01*
X8371Y28661D01*
X8345Y28654D01*
X8175Y28654D01*
X8175Y29000D01*
X8175Y29005D01*
X8174Y29010D01*
X8174Y29011D01*
X8174Y29012D01*
X8172Y29017D01*
X8170Y29022D01*
X8170Y29023D01*
X8169Y29024D01*
X8166Y29028D01*
X8163Y29032D01*
X8162Y29033D01*
X8162Y29034D01*
X8158Y29037D01*
X8154Y29040D01*
X8153Y29041D01*
X8152Y29042D01*
X8148Y29044D01*
X8143Y29046D01*
X8142Y29046D01*
X8141Y29047D01*
X8129Y29049D01*
X8127Y29049D01*
X8126Y29049D01*
X8075Y29049D01*
X8075Y29051D01*
X8126Y29051D01*
X8131Y29051D01*
X8136Y29052D01*
X8137Y29052D01*
X8138Y29052D01*
X8143Y29054D01*
X8148Y29056D01*
X8149Y29056D01*
X8150Y29057D01*
X8154Y29060D01*
X8158Y29063D01*
X8159Y29064D01*
X8160Y29064D01*
X8163Y29068D01*
X8166Y29072D01*
X8167Y29073D01*
X8168Y29074D01*
X8170Y29078D01*
X8172Y29083D01*
X8172Y29084D01*
X8173Y29085D01*
X8175Y29097D01*
X8175Y29098D01*
X8175Y29099D01*
X8175Y29100D01*
X8175Y29446D01*
X8274Y29446D01*
X8280Y29447D01*
X8285Y29447D01*
X8286Y29448D01*
X8287Y29448D01*
X8292Y29450D01*
X8297Y29452D01*
X8298Y29452D01*
X8303Y29456D01*
X8307Y29459D01*
X8308Y29459D01*
X8308Y29460D01*
X8312Y29464D01*
X8315Y29468D01*
X8316Y29469D01*
X8318Y29474D01*
X8321Y29479D01*
X8321Y29480D01*
X8322Y29486D01*
X8323Y29491D01*
X8323Y29492D01*
X8323Y29493D01*
X8323Y29498D01*
X8323Y29504D01*
X8323Y29505D01*
X8321Y29510D01*
X8319Y29516D01*
X8319Y29517D01*
X8312Y29527D01*
X8310Y29529D01*
X8309Y29530D01*
X8301Y29538D01*
X8298Y29541D01*
X8295Y29543D01*
X8293Y29544D01*
X8292Y29546D01*
X8288Y29547D01*
X8284Y29549D01*
X8282Y29549D01*
X8280Y29550D01*
X8268Y29552D01*
X8267Y29552D01*
X8106Y29552D01*
X8105Y29553D01*
X8101Y29555D01*
X8096Y29557D01*
X8095Y29558D01*
X8093Y29558D01*
X8089Y29559D01*
X8084Y29560D01*
X8083Y29560D01*
X8081Y29560D01*
X8076Y29560D01*
X8072Y29559D01*
X8071Y29559D01*
X8069Y29559D01*
X8057Y29555D01*
X8056Y29554D01*
X8055Y29554D01*
X8030Y29539D01*
X8013Y29535D01*
X8009Y29533D01*
X8004Y29531D01*
X8003Y29530D01*
X8002Y29530D01*
X7998Y29527D01*
X7994Y29524D01*
X7993Y29523D01*
X7992Y29522D01*
X7989Y29519D01*
X7986Y29515D01*
X7985Y29514D01*
X7984Y29513D01*
X7982Y29508D01*
X7980Y29504D01*
X7980Y29503D01*
X7979Y29501D01*
X7977Y29489D01*
X7977Y29488D01*
X7977Y29487D01*
X7977Y29149D01*
X7719Y29149D01*
X7719Y29359D01*
X7726Y29384D01*
X7739Y29407D01*
X7758Y29426D01*
X7783Y29440D01*
X7788Y29444D01*
X7793Y29447D01*
X7793Y29448D01*
X7797Y29452D01*
X7801Y29457D01*
X7801Y29458D01*
X7803Y29463D01*
X7806Y29468D01*
X7806Y29469D01*
X7807Y29475D01*
X7808Y29480D01*
X7808Y29481D01*
X7807Y29487D01*
X7807Y29493D01*
X7807Y29494D01*
X7805Y29499D01*
X7803Y29505D01*
X7799Y29510D01*
X7796Y29515D01*
X7796Y29516D01*
X7791Y29519D01*
X7787Y29523D01*
X7787Y29524D01*
X7786Y29524D01*
X7781Y29526D01*
X7776Y29529D01*
X7775Y29529D01*
X7763Y29532D01*
X7760Y29532D01*
X7759Y29532D01*
X7758Y29532D01*
X7733Y29539D01*
X7708Y29554D01*
X7703Y29555D01*
X7699Y29557D01*
X7698Y29558D01*
X7696Y29558D01*
X7692Y29559D01*
X7687Y29560D01*
X7686Y29560D01*
X7684Y29560D01*
X7679Y29560D01*
X7675Y29559D01*
X7673Y29559D01*
X7672Y29559D01*
X7667Y29557D01*
X7663Y29556D01*
X7662Y29555D01*
X7660Y29554D01*
X7657Y29552D01*
X7368Y29552D01*
X7321Y29600D01*
X7321Y29630D01*
X7320Y29635D01*
X7320Y29640D01*
X7319Y29641D01*
X7319Y29642D01*
X7317Y29647D01*
X7316Y29652D01*
X7315Y29653D01*
X7315Y29654D01*
X7312Y29658D01*
X7309Y29662D01*
X7308Y29663D01*
X7307Y29664D01*
X7303Y29667D01*
X7300Y29670D01*
X7299Y29671D01*
X7298Y29672D01*
X7293Y29674D01*
X7289Y29676D01*
X7288Y29676D01*
X7286Y29677D01*
X7274Y29679D01*
X7273Y29679D01*
X7271Y29679D01*
X5874Y29679D01*
X5870Y29679D01*
X5866Y29679D01*
X5864Y29678D01*
X5862Y29678D01*
X5858Y29676D01*
X5854Y29675D01*
X5853Y29674D01*
X5851Y29673D01*
X5841Y29666D01*
X5840Y29665D01*
X5780Y29605D01*
X5696Y29570D01*
X5604Y29570D01*
X5520Y29605D01*
X5455Y29670D01*
X5420Y29754D01*
X5418Y29759D01*
X5415Y29764D01*
X5414Y29765D01*
X5410Y29769D01*
X5407Y29773D01*
X5406Y29773D01*
X5406Y29774D01*
X5401Y29777D01*
X5396Y29780D01*
X5395Y29780D01*
X5390Y29782D01*
X5384Y29783D01*
X5384Y29784D01*
X5383Y29784D01*
X5378Y29784D01*
X5372Y29784D01*
X5371Y29784D01*
X5365Y29783D01*
X5360Y29782D01*
X5359Y29782D01*
X5354Y29779D01*
X5349Y29777D01*
X5348Y29776D01*
X5347Y29776D01*
X5343Y29772D01*
X5339Y29769D01*
X5339Y29768D01*
X5338Y29768D01*
X5331Y29757D01*
X5330Y29755D01*
X5329Y29754D01*
X5295Y29670D01*
X5230Y29605D01*
X5146Y29570D01*
X5054Y29570D01*
X4970Y29605D01*
X4910Y29665D01*
X4907Y29667D01*
X4904Y29670D01*
X4902Y29671D01*
X4901Y29672D01*
X4897Y29674D01*
X4893Y29676D01*
X4891Y29676D01*
X4889Y29677D01*
X4877Y29679D01*
X4876Y29679D01*
X2070Y29679D01*
X2066Y29679D01*
X2062Y29679D01*
X2060Y29678D01*
X2058Y29678D01*
X2054Y29676D01*
X2050Y29675D01*
X2049Y29674D01*
X2047Y29673D01*
X2037Y29666D01*
X2036Y29665D01*
X1817Y29446D01*
X1815Y29443D01*
X1812Y29440D01*
X1811Y29438D01*
X1810Y29437D01*
X1808Y29433D01*
X1806Y29429D01*
X1806Y29427D01*
X1805Y29425D01*
X1803Y29413D01*
X1803Y29412D01*
X1803Y29335D01*
X1803Y29330D01*
X1804Y29325D01*
X1804Y29324D01*
X1804Y29323D01*
X1806Y29318D01*
X1808Y29314D01*
X1808Y29313D01*
X1809Y29311D01*
X1812Y29307D01*
X1815Y29303D01*
X1815Y29302D01*
X1816Y29301D01*
X1820Y29298D01*
X1824Y29295D01*
X1825Y29294D01*
X1826Y29293D01*
X1830Y29291D01*
X1835Y29289D01*
X1836Y29289D01*
X1837Y29288D01*
X1849Y29286D01*
X1851Y29286D01*
X1852Y29286D01*
X1870Y29286D01*
X1918Y29239D01*
X1918Y28822D01*
X1870Y28774D01*
X1494Y28774D01*
X1446Y28822D01*
X1446Y29239D01*
X1494Y29286D01*
X1512Y29286D01*
X1517Y29287D01*
X1522Y29287D01*
X1523Y29287D01*
X1524Y29288D01*
X1529Y29289D01*
X1534Y29291D01*
X1535Y29292D01*
X1536Y29292D01*
X1540Y29295D01*
X1544Y29298D01*
X1545Y29299D01*
X1546Y29300D01*
X1549Y29303D01*
X1552Y29307D01*
X1553Y29308D01*
X1554Y29309D01*
X1556Y29314D01*
X1558Y29318D01*
X1558Y29319D01*
X1559Y29320D01*
X1561Y29333D01*
X1561Y29334D01*
X1561Y29335D01*
X1561Y29532D01*
X1950Y29921D01*
X4876Y29921D01*
X4880Y29921D01*
X4884Y29921D01*
X4886Y29922D01*
X4888Y29922D01*
X4892Y29924D01*
X4896Y29925D01*
X4897Y29926D01*
X4899Y29927D01*
X4909Y29934D01*
X4910Y29935D01*
X4970Y29995D01*
X5054Y30030D01*
X5146Y30030D01*
X5230Y29995D01*
X5295Y29930D01*
X5329Y29846D01*
X5332Y29841D01*
X5335Y29836D01*
X5336Y29835D01*
X5340Y29831D01*
X5343Y29827D01*
X5344Y29827D01*
X5344Y29826D01*
X5349Y29823D01*
X5354Y29820D01*
X5355Y29820D01*
X5360Y29818D01*
X5366Y29817D01*
X5366Y29816D01*
X5367Y29816D01*
X5372Y29816D01*
X5378Y29816D01*
X5379Y29816D01*
X5385Y29817D01*
X5390Y29818D01*
X5391Y29818D01*
X5396Y29821D01*
X5401Y29823D01*
X5402Y29824D01*
X5403Y29824D01*
X5407Y29828D01*
X5411Y29831D01*
X5411Y29832D01*
X5412Y29832D01*
X5419Y29843D01*
X5420Y29845D01*
X5420Y29846D01*
X5455Y29930D01*
X5520Y29995D01*
X5604Y30030D01*
X5696Y30030D01*
X5780Y29995D01*
X5840Y29935D01*
X5843Y29933D01*
X5846Y29930D01*
X5848Y29929D01*
X5849Y29928D01*
X5853Y29926D01*
X5857Y29924D01*
X5859Y29924D01*
X5861Y29923D01*
X5873Y29921D01*
X5874Y29921D01*
X7271Y29921D01*
X7276Y29921D01*
X7281Y29922D01*
X7283Y29922D01*
X7284Y29922D01*
X7288Y29924D01*
X7293Y29926D01*
X7294Y29926D01*
X7295Y29927D01*
X7299Y29930D01*
X7303Y29933D01*
X7304Y29934D01*
X7305Y29934D01*
X7309Y29938D01*
X7312Y29942D01*
X7312Y29943D01*
X7313Y29944D01*
X7315Y29948D01*
X7318Y29953D01*
X7318Y29954D01*
X7318Y29955D01*
X7321Y29967D01*
X7321Y29969D01*
X7321Y29970D01*
X7321Y30187D01*
X7370Y30236D01*
X7374Y30241D01*
X7377Y30245D01*
X7378Y30245D01*
X7378Y30246D01*
X7380Y30251D01*
X7382Y30256D01*
X7383Y30257D01*
X7384Y30263D01*
X7385Y30268D01*
X7385Y30269D01*
X7385Y30270D01*
X7384Y30275D01*
X7384Y30281D01*
X7384Y30282D01*
X7382Y30287D01*
X7380Y30293D01*
X7379Y30293D01*
X7379Y30294D01*
X7376Y30298D01*
X7373Y30303D01*
X7372Y30303D01*
X7372Y30304D01*
X7368Y30308D01*
X7364Y30311D01*
X7363Y30312D01*
X7358Y30314D01*
X7353Y30317D01*
X7352Y30317D01*
X7352Y30318D01*
X7339Y30320D01*
X7337Y30320D01*
X7336Y30320D01*
X4991Y30320D01*
X4990Y30320D01*
X4988Y30320D01*
X4984Y30319D01*
X4979Y30319D01*
X4978Y30318D01*
X4976Y30318D01*
X4972Y30316D01*
X4967Y30314D01*
X4966Y30313D01*
X4965Y30312D01*
X4961Y30309D01*
X4957Y30307D01*
X4956Y30306D01*
X4955Y30305D01*
X4954Y30302D01*
X4950Y30297D01*
X4947Y30292D01*
X4946Y30290D01*
X4920Y30227D01*
X4814Y30121D01*
X4675Y30063D01*
X4525Y30063D01*
X4386Y30121D01*
X4280Y30227D01*
X4254Y30290D01*
X4253Y30291D01*
X4252Y30293D01*
X4250Y30296D01*
X4247Y30301D01*
X4246Y30302D01*
X4246Y30303D01*
X4242Y30306D01*
X4239Y30309D01*
X4237Y30310D01*
X4236Y30311D01*
X4232Y30313D01*
X4228Y30316D01*
X4227Y30316D01*
X4225Y30317D01*
X4223Y30318D01*
X4216Y30320D01*
X4211Y30320D01*
X4208Y30320D01*
X1737Y30320D01*
X1732Y30320D01*
X1727Y30319D01*
X1726Y30319D01*
X1725Y30319D01*
X1720Y30317D01*
X1716Y30315D01*
X1714Y30315D01*
X1713Y30314D01*
X1709Y30311D01*
X1705Y30308D01*
X1704Y30307D01*
X1703Y30307D01*
X1700Y30303D01*
X1697Y30299D01*
X1696Y30298D01*
X1695Y30297D01*
X1693Y30293D01*
X1691Y30288D01*
X1691Y30287D01*
X1690Y30286D01*
X1688Y30274D01*
X1688Y30272D01*
X1688Y30271D01*
X1688Y30142D01*
X1641Y30095D01*
X983Y30095D01*
X936Y30142D01*
X936Y30721D01*
X986Y30771D01*
X989Y30775D01*
X992Y30778D01*
X993Y30780D01*
X993Y30781D01*
X995Y30785D01*
X997Y30790D01*
X998Y30791D01*
X998Y30792D01*
X999Y30797D01*
X1000Y30802D01*
X1000Y30803D01*
X1000Y30804D01*
X1000Y30809D01*
X999Y30814D01*
X999Y30815D01*
X999Y30817D01*
X997Y30821D01*
X996Y30826D01*
X995Y30827D01*
X995Y30828D01*
X987Y30839D01*
X986Y30840D01*
X936Y30890D01*
X936Y31469D01*
X983Y31516D01*
X1142Y31516D01*
X1147Y31517D01*
X1152Y31517D01*
X1153Y31518D01*
X1154Y31518D01*
X1159Y31520D01*
X1163Y31521D01*
X1165Y31522D01*
X1166Y31522D01*
X1170Y31525D01*
X1174Y31528D01*
X1175Y31529D01*
X1176Y31530D01*
X1179Y31534D01*
X1182Y31537D01*
X1183Y31538D01*
X1184Y31539D01*
X1186Y31544D01*
X1188Y31548D01*
X1188Y31549D01*
X1189Y31551D01*
X1191Y31563D01*
X1191Y31564D01*
X1191Y31566D01*
X1191Y32936D01*
X2255Y34000D01*
X2257Y34004D01*
X2260Y34007D01*
X2261Y34008D01*
X2262Y34010D01*
X2264Y34014D01*
X2266Y34018D01*
X2266Y34019D01*
X2267Y34021D01*
X2269Y34034D01*
X2269Y34035D01*
X2269Y39869D01*
X2269Y39870D01*
X2269Y39871D01*
X2268Y39876D01*
X2268Y39881D01*
X2267Y39882D01*
X2267Y39884D01*
X2265Y39888D01*
X2263Y39893D01*
X2262Y39894D01*
X2262Y39895D01*
X2259Y39899D01*
X2256Y39903D01*
X2255Y39903D01*
X2254Y39904D01*
X2250Y39907D01*
X2246Y39911D01*
X2245Y39911D01*
X2244Y39912D01*
X2239Y39914D01*
X2235Y39916D01*
X2234Y39916D01*
X2232Y39916D01*
X2227Y39917D01*
X2223Y39918D01*
X2221Y39918D01*
X2220Y39918D01*
X2215Y39917D01*
X2210Y39917D01*
X2209Y39917D01*
X2208Y39916D01*
X2203Y39915D01*
X2198Y39913D01*
X2197Y39912D01*
X2196Y39912D01*
X2192Y39909D01*
X2188Y39906D01*
X2187Y39905D01*
X2186Y39905D01*
X2183Y39901D01*
X2180Y39897D01*
X2179Y39896D01*
X2178Y39895D01*
X2177Y39893D01*
X2174Y39886D01*
X2173Y39882D01*
X2172Y39879D01*
X2132Y39684D01*
X1815Y38142D01*
X1092Y34303D01*
X1092Y34302D01*
X1092Y34301D01*
X755Y32086D01*
X755Y32083D01*
X754Y32082D01*
X677Y30995D01*
X626Y30285D01*
X626Y30282D01*
X626Y30273D01*
X627Y30272D01*
X724Y29810D01*
X1038Y28327D01*
X1042Y28316D01*
X1150Y28094D01*
X1271Y27848D01*
X1282Y27826D01*
X1283Y27824D01*
X1283Y27822D01*
X1914Y26753D01*
X1914Y26752D01*
X2033Y26562D01*
X2035Y26559D01*
X2037Y26557D01*
X2038Y26556D01*
X2039Y26554D01*
X2040Y26553D01*
X2041Y26552D01*
X2045Y26549D01*
X2046Y26548D01*
X2049Y26546D01*
X2050Y26546D01*
X2051Y26545D01*
X2055Y26543D01*
X2060Y26541D01*
X2061Y26541D01*
X2062Y26540D01*
X2067Y26540D01*
X2072Y26539D01*
X2073Y26539D01*
X2075Y26539D01*
X2080Y26540D01*
X2085Y26540D01*
X2086Y26540D01*
X2087Y26540D01*
X2092Y26542D01*
X2096Y26544D01*
X2097Y26545D01*
X2099Y26545D01*
X2103Y26548D01*
X2107Y26551D01*
X2108Y26552D01*
X2109Y26552D01*
X2112Y26556D01*
X2115Y26560D01*
X2116Y26561D01*
X2116Y26562D01*
X2119Y26567D01*
X2121Y26571D01*
X2121Y26572D01*
X2122Y26573D01*
X2124Y26586D01*
X2124Y26587D01*
X2124Y26588D01*
X2124Y27015D01*
X2174Y27065D01*
X2177Y27069D01*
X2180Y27073D01*
X2181Y27074D01*
X2181Y27075D01*
X2183Y27080D01*
X2186Y27084D01*
X2186Y27085D01*
X2186Y27086D01*
X2187Y27091D01*
X2188Y27096D01*
X2188Y27097D01*
X2188Y27099D01*
X2188Y27104D01*
X2187Y27109D01*
X2187Y27110D01*
X2187Y27111D01*
X2185Y27116D01*
X2184Y27120D01*
X2183Y27121D01*
X2183Y27123D01*
X2176Y27133D01*
X2174Y27134D01*
X2174Y27135D01*
X2124Y27185D01*
X2124Y27659D01*
X2123Y27663D01*
X2123Y27667D01*
X2123Y27669D01*
X2122Y27671D01*
X2121Y27675D01*
X2120Y27679D01*
X2119Y27681D01*
X2118Y27683D01*
X2110Y27693D01*
X2110Y27694D01*
X1941Y27862D01*
X1941Y27925D01*
X1941Y27930D01*
X1940Y27935D01*
X1940Y27936D01*
X1940Y27938D01*
X1938Y27942D01*
X1936Y27947D01*
X1936Y27948D01*
X1935Y27949D01*
X1932Y27953D01*
X1929Y27957D01*
X1928Y27958D01*
X1928Y27959D01*
X1924Y27962D01*
X1920Y27966D01*
X1919Y27966D01*
X1918Y27967D01*
X1914Y27969D01*
X1909Y27971D01*
X1908Y27972D01*
X1907Y27972D01*
X1895Y27974D01*
X1893Y27974D01*
X1892Y27974D01*
X1874Y27974D01*
X1826Y28022D01*
X1826Y28439D01*
X1874Y28486D01*
X2250Y28486D01*
X2298Y28439D01*
X2298Y28022D01*
X2245Y27969D01*
X2242Y27965D01*
X2239Y27962D01*
X2238Y27960D01*
X2238Y27959D01*
X2236Y27955D01*
X2233Y27950D01*
X2233Y27949D01*
X2233Y27948D01*
X2232Y27943D01*
X2231Y27938D01*
X2231Y27937D01*
X2231Y27936D01*
X2231Y27931D01*
X2231Y27926D01*
X2232Y27925D01*
X2232Y27923D01*
X2234Y27919D01*
X2235Y27914D01*
X2236Y27913D01*
X2236Y27912D01*
X2243Y27901D01*
X2245Y27900D01*
X2320Y27825D01*
X2323Y27822D01*
X2326Y27820D01*
X2328Y27819D01*
X2330Y27817D01*
X2333Y27816D01*
X2337Y27814D01*
X2339Y27814D01*
X2341Y27813D01*
X2353Y27811D01*
X2354Y27811D01*
X2355Y27811D01*
X2710Y27811D01*
X2714Y27811D01*
X2718Y27811D01*
X2720Y27812D01*
X2722Y27812D01*
X2726Y27814D01*
X2730Y27815D01*
X2731Y27816D01*
X2733Y27817D01*
X2743Y27824D01*
X2744Y27825D01*
X3900Y28981D01*
X4271Y28981D01*
X4273Y28981D01*
X4276Y28981D01*
X4279Y28982D01*
X4283Y28982D01*
X4285Y28983D01*
X4288Y28984D01*
X4291Y28985D01*
X4295Y28987D01*
X4297Y28988D01*
X4299Y28989D01*
X4301Y28991D01*
X4305Y28994D01*
X4310Y29000D01*
X4311Y29002D01*
X4474Y29234D01*
X4540Y29246D01*
X5617Y28492D01*
X5629Y28426D01*
X5360Y28042D01*
X5294Y28031D01*
X4295Y28730D01*
X4291Y28732D01*
X4284Y28736D01*
X4272Y28739D01*
X4269Y28739D01*
X4267Y28739D01*
X4020Y28739D01*
X4016Y28739D01*
X4012Y28739D01*
X4010Y28738D01*
X4008Y28738D01*
X4004Y28736D01*
X4000Y28735D01*
X3999Y28734D01*
X3997Y28733D01*
X3987Y28726D01*
X3986Y28725D01*
X3486Y28225D01*
X3482Y28220D01*
X3479Y28216D01*
X3478Y28216D01*
X3478Y28215D01*
X3476Y28210D01*
X3473Y28205D01*
X3473Y28204D01*
X3472Y28198D01*
X3471Y28193D01*
X3471Y28192D01*
X3471Y28191D01*
X3472Y28186D01*
X3472Y28180D01*
X3472Y28179D01*
X3474Y28174D01*
X3476Y28168D01*
X3477Y28168D01*
X3477Y28167D01*
X3480Y28163D01*
X3483Y28158D01*
X3484Y28157D01*
X3488Y28153D01*
X3492Y28150D01*
X3493Y28149D01*
X3498Y28146D01*
X3503Y28144D01*
X3504Y28144D01*
X3504Y28143D01*
X3517Y28141D01*
X3519Y28141D01*
X3520Y28141D01*
X3683Y28141D01*
X3685Y28141D01*
X3687Y28141D01*
X3691Y28142D01*
X3695Y28142D01*
X3697Y28143D01*
X3700Y28144D01*
X3703Y28145D01*
X3707Y28147D01*
X3709Y28148D01*
X3711Y28149D01*
X3712Y28151D01*
X3717Y28154D01*
X3721Y28160D01*
X3723Y28162D01*
X3901Y28415D01*
X3966Y28427D01*
X5044Y27673D01*
X5055Y27607D01*
X4963Y27476D01*
X4963Y27475D01*
X4960Y27470D01*
X4958Y27465D01*
X4957Y27464D01*
X4957Y27463D01*
X4956Y27458D01*
X4955Y27453D01*
X4955Y27452D01*
X4955Y27451D01*
X4955Y27446D01*
X4955Y27440D01*
X4955Y27439D01*
X4957Y27433D01*
X4958Y27428D01*
X4959Y27428D01*
X4959Y27427D01*
X4960Y27425D01*
X4965Y27417D01*
X4968Y27414D01*
X4969Y27413D01*
X5071Y27311D01*
X5071Y26429D01*
X4956Y26315D01*
X4799Y26158D01*
X4797Y26154D01*
X4794Y26151D01*
X4793Y26150D01*
X4792Y26148D01*
X4790Y26144D01*
X4788Y26140D01*
X4788Y26139D01*
X4787Y26137D01*
X4785Y26124D01*
X4785Y26123D01*
X4785Y25223D01*
X4786Y25218D01*
X4786Y25213D01*
X4786Y25212D01*
X4786Y25211D01*
X4788Y25206D01*
X4790Y25202D01*
X4791Y25201D01*
X4791Y25199D01*
X4794Y25195D01*
X4797Y25191D01*
X4798Y25190D01*
X4798Y25189D01*
X4802Y25186D01*
X4806Y25183D01*
X4807Y25182D01*
X4808Y25182D01*
X4813Y25179D01*
X4817Y25177D01*
X4818Y25177D01*
X4819Y25176D01*
X4832Y25174D01*
X4833Y25174D01*
X4834Y25174D01*
X4904Y25174D01*
X4951Y25127D01*
X4951Y24469D01*
X4904Y24422D01*
X4834Y24422D01*
X4829Y24421D01*
X4824Y24421D01*
X4823Y24421D01*
X4822Y24420D01*
X4817Y24419D01*
X4813Y24417D01*
X4812Y24416D01*
X4810Y24416D01*
X4806Y24413D01*
X4802Y24410D01*
X4801Y24409D01*
X4800Y24408D01*
X4797Y24405D01*
X4794Y24401D01*
X4793Y24400D01*
X4792Y24399D01*
X4790Y24394D01*
X4788Y24390D01*
X4788Y24389D01*
X4787Y24388D01*
X4785Y24375D01*
X4785Y24374D01*
X4785Y24373D01*
X4785Y20877D01*
X4785Y20873D01*
X4786Y20868D01*
X4786Y20867D01*
X4786Y20865D01*
X4788Y20861D01*
X4789Y20857D01*
X4790Y20855D01*
X4791Y20853D01*
X4798Y20843D01*
X4799Y20843D01*
X4799Y20842D01*
X5045Y20596D01*
X5050Y20593D01*
X5054Y20589D01*
X5055Y20589D01*
X5060Y20586D01*
X5065Y20584D01*
X5066Y20584D01*
X5072Y20583D01*
X5077Y20582D01*
X5078Y20582D01*
X5079Y20582D01*
X5084Y20582D01*
X5090Y20583D01*
X5091Y20583D01*
X5096Y20585D01*
X5102Y20587D01*
X5103Y20587D01*
X5107Y20591D01*
X5112Y20594D01*
X5113Y20595D01*
X5117Y20599D01*
X5120Y20603D01*
X5121Y20603D01*
X5121Y20604D01*
X5124Y20609D01*
X5126Y20614D01*
X5127Y20615D01*
X5129Y20627D01*
X5129Y20630D01*
X5129Y20631D01*
X5129Y21280D01*
X5285Y21436D01*
X5287Y21439D01*
X5290Y21442D01*
X5291Y21444D01*
X5292Y21445D01*
X5294Y21449D01*
X5296Y21453D01*
X5296Y21455D01*
X5297Y21457D01*
X5299Y21469D01*
X5299Y21470D01*
X5299Y21975D01*
X5360Y22035D01*
X5363Y22039D01*
X5366Y22042D01*
X5367Y22044D01*
X5368Y22045D01*
X5369Y22049D01*
X5371Y22053D01*
X5372Y22055D01*
X5373Y22057D01*
X5375Y22069D01*
X5374Y22070D01*
X5375Y22070D01*
X5375Y22093D01*
X5374Y22097D01*
X5374Y22101D01*
X5373Y22103D01*
X5373Y22105D01*
X5371Y22109D01*
X5370Y22113D01*
X5369Y22114D01*
X5368Y22116D01*
X5361Y22126D01*
X5360Y22127D01*
X5347Y22140D01*
X5347Y23191D01*
X5395Y23239D01*
X5556Y23239D01*
X5560Y23239D01*
X5565Y23239D01*
X5567Y23240D01*
X5568Y23240D01*
X5572Y23242D01*
X5577Y23243D01*
X5578Y23244D01*
X5580Y23245D01*
X5590Y23252D01*
X5591Y23253D01*
X5995Y23657D01*
X6076Y23691D01*
X6940Y23691D01*
X6945Y23691D01*
X6950Y23692D01*
X6951Y23692D01*
X6952Y23692D01*
X6957Y23694D01*
X6962Y23696D01*
X6963Y23696D01*
X6964Y23697D01*
X6968Y23700D01*
X6972Y23703D01*
X6973Y23704D01*
X6974Y23704D01*
X6977Y23708D01*
X6980Y23712D01*
X6981Y23713D01*
X6982Y23714D01*
X6984Y23718D01*
X6986Y23723D01*
X6986Y23724D01*
X6987Y23725D01*
X6989Y23737D01*
X6989Y23739D01*
X6989Y23740D01*
X6989Y24215D01*
X7036Y24262D01*
X7615Y24262D01*
X7665Y24212D01*
X7669Y24209D01*
X7673Y24206D01*
X7674Y24205D01*
X7675Y24204D01*
X7679Y24202D01*
X7684Y24200D01*
X7685Y24200D01*
X7686Y24199D01*
X7691Y24199D01*
X7696Y24198D01*
X7697Y24198D01*
X7699Y24198D01*
X7703Y24198D01*
X7708Y24198D01*
X7710Y24199D01*
X7711Y24199D01*
X7716Y24201D01*
X7720Y24202D01*
X7721Y24203D01*
X7723Y24203D01*
X7733Y24210D01*
X7734Y24211D01*
X7735Y24212D01*
X7785Y24262D01*
X8363Y24262D01*
X8411Y24215D01*
X8411Y23557D01*
X8349Y23496D01*
X8346Y23492D01*
X8343Y23488D01*
X8342Y23487D01*
X8341Y23486D01*
X8340Y23481D01*
X8337Y23477D01*
X8337Y23476D01*
X8337Y23474D01*
X8336Y23470D01*
X8335Y23465D01*
X8335Y23463D01*
X8335Y23462D01*
X8335Y23457D01*
X8335Y23452D01*
X8336Y23451D01*
X8336Y23450D01*
X8338Y23445D01*
X8339Y23440D01*
X8340Y23440D01*
X8340Y23438D01*
X8347Y23428D01*
X8348Y23427D01*
X8349Y23426D01*
X8401Y23375D01*
X8401Y23276D01*
X8401Y23271D01*
X8401Y23266D01*
X8402Y23265D01*
X8402Y23263D01*
X8404Y23259D01*
X8405Y23254D01*
X8406Y23253D01*
X8407Y23252D01*
X8410Y23248D01*
X8412Y23244D01*
X8413Y23243D01*
X8414Y23242D01*
X8418Y23239D01*
X8422Y23235D01*
X8423Y23235D01*
X8424Y23234D01*
X8428Y23232D01*
X8433Y23230D01*
X8434Y23230D01*
X8435Y23229D01*
X8447Y23227D01*
X8449Y23227D01*
X8450Y23227D01*
X8587Y23227D01*
X8591Y23227D01*
X8596Y23228D01*
X8598Y23228D01*
X8599Y23228D01*
X8603Y23230D01*
X8608Y23232D01*
X8609Y23232D01*
X8610Y23233D01*
X8614Y23236D01*
X8619Y23238D01*
X8619Y23239D01*
X8620Y23240D01*
X8624Y23244D01*
X8627Y23248D01*
X8627Y23249D01*
X8628Y23250D01*
X8630Y23254D01*
X8633Y23259D01*
X8633Y23260D01*
X8634Y23261D01*
X8636Y23273D01*
X8636Y23275D01*
X8636Y23276D01*
X8636Y23387D01*
X8683Y23435D01*
X9262Y23435D01*
X9301Y23396D01*
X9305Y23393D01*
X9309Y23389D01*
X9310Y23389D01*
X9311Y23388D01*
X9315Y23386D01*
X9320Y23384D01*
X9321Y23384D01*
X9322Y23383D01*
X9327Y23382D01*
X9332Y23381D01*
X9333Y23381D01*
X9334Y23381D01*
X9339Y23382D01*
X9345Y23382D01*
X9346Y23382D01*
X9347Y23383D01*
X9351Y23384D01*
X9356Y23386D01*
X9357Y23386D01*
X9358Y23387D01*
X9363Y23390D01*
X9367Y23393D01*
X9369Y23394D01*
X9377Y23403D01*
X9377Y23405D01*
X9378Y23406D01*
X9384Y23416D01*
X9403Y23435D01*
X9426Y23448D01*
X9451Y23455D01*
X9621Y23455D01*
X9621Y23109D01*
X9622Y23104D01*
X9622Y23099D01*
X9623Y23098D01*
X9623Y23096D01*
X9625Y23092D01*
X9626Y23087D01*
X9627Y23086D01*
X9627Y23085D01*
X9630Y23081D01*
X9633Y23077D01*
X9634Y23076D01*
X9635Y23075D01*
X9639Y23072D01*
X9642Y23068D01*
X9643Y23068D01*
X9644Y23067D01*
X9649Y23065D01*
X9653Y23063D01*
X9654Y23062D01*
X9656Y23062D01*
X9668Y23059D01*
X9669Y23060D01*
X9670Y23059D01*
X9721Y23059D01*
X9721Y23058D01*
X9670Y23058D01*
X9666Y23057D01*
X9661Y23057D01*
X9659Y23057D01*
X9658Y23056D01*
X9654Y23055D01*
X9649Y23053D01*
X9648Y23052D01*
X9647Y23052D01*
X9643Y23049D01*
X9638Y23046D01*
X9638Y23045D01*
X9637Y23044D01*
X9633Y23041D01*
X9630Y23037D01*
X9630Y23036D01*
X9629Y23035D01*
X9627Y23030D01*
X9624Y23026D01*
X9624Y23025D01*
X9624Y23023D01*
X9621Y23011D01*
X9621Y23010D01*
X9621Y23009D01*
X9621Y22663D01*
X9451Y22663D01*
X9426Y22670D01*
X9403Y22683D01*
X9384Y22702D01*
X9378Y22711D01*
X9375Y22715D01*
X9372Y22720D01*
X9371Y22720D01*
X9371Y22721D01*
X9367Y22724D01*
X9363Y22728D01*
X9362Y22728D01*
X9361Y22729D01*
X9356Y22731D01*
X9352Y22733D01*
X9351Y22734D01*
X9350Y22734D01*
X9345Y22735D01*
X9339Y22736D01*
X9338Y22736D01*
X9337Y22736D01*
X9332Y22736D01*
X9327Y22735D01*
X9326Y22735D01*
X9325Y22735D01*
X9320Y22733D01*
X9315Y22732D01*
X9314Y22731D01*
X9313Y22731D01*
X9303Y22724D01*
X9302Y22722D01*
X9301Y22722D01*
X9262Y22683D01*
X8683Y22683D01*
X8636Y22730D01*
X8636Y22816D01*
X8635Y22821D01*
X8635Y22826D01*
X8634Y22827D01*
X8634Y22828D01*
X8632Y22833D01*
X8631Y22837D01*
X8630Y22838D01*
X8630Y22840D01*
X8627Y22844D01*
X8624Y22848D01*
X8623Y22849D01*
X8622Y22850D01*
X8618Y22853D01*
X8615Y22856D01*
X8614Y22857D01*
X8613Y22858D01*
X8608Y22860D01*
X8604Y22862D01*
X8603Y22862D01*
X8601Y22863D01*
X8589Y22865D01*
X8588Y22865D01*
X8587Y22865D01*
X8450Y22865D01*
X8445Y22864D01*
X8440Y22864D01*
X8439Y22864D01*
X8437Y22864D01*
X8433Y22862D01*
X8428Y22860D01*
X8427Y22859D01*
X8426Y22859D01*
X8422Y22856D01*
X8418Y22853D01*
X8417Y22852D01*
X8416Y22852D01*
X8413Y22848D01*
X8409Y22844D01*
X8409Y22843D01*
X8408Y22842D01*
X8406Y22837D01*
X8404Y22833D01*
X8403Y22832D01*
X8403Y22831D01*
X8401Y22818D01*
X8401Y22817D01*
X8401Y22816D01*
X8401Y22717D01*
X8353Y22670D01*
X8137Y22670D01*
X8133Y22669D01*
X8128Y22669D01*
X8127Y22668D01*
X8125Y22668D01*
X8121Y22667D01*
X8117Y22665D01*
X8115Y22665D01*
X8113Y22664D01*
X8103Y22656D01*
X8102Y22655D01*
X8000Y22553D01*
X7996Y22549D01*
X7993Y22544D01*
X7992Y22543D01*
X7990Y22538D01*
X7988Y22533D01*
X7988Y22532D01*
X7987Y22532D01*
X7986Y22526D01*
X7985Y22521D01*
X7985Y22520D01*
X7985Y22519D01*
X7986Y22514D01*
X7986Y22508D01*
X7987Y22508D01*
X7987Y22507D01*
X7989Y22502D01*
X7990Y22497D01*
X7991Y22496D01*
X7991Y22495D01*
X7994Y22491D01*
X7997Y22486D01*
X7998Y22486D01*
X7998Y22485D01*
X8002Y22482D01*
X8006Y22478D01*
X8007Y22477D01*
X8012Y22475D01*
X8017Y22472D01*
X8018Y22472D01*
X8019Y22472D01*
X8031Y22469D01*
X8033Y22469D01*
X8035Y22469D01*
X8407Y22469D01*
X8409Y22467D01*
X8413Y22466D01*
X8416Y22464D01*
X8418Y22463D01*
X8420Y22463D01*
X8432Y22461D01*
X8433Y22461D01*
X8434Y22461D01*
X8665Y22461D01*
X8669Y22461D01*
X8673Y22461D01*
X8675Y22462D01*
X8677Y22462D01*
X8681Y22464D01*
X8685Y22465D01*
X8686Y22466D01*
X8689Y22467D01*
X8699Y22474D01*
X8699Y22475D01*
X8700Y22475D01*
X8706Y22482D01*
X9285Y22482D01*
X9324Y22443D01*
X9328Y22440D01*
X9332Y22436D01*
X9333Y22436D01*
X9334Y22435D01*
X9339Y22433D01*
X9343Y22431D01*
X9344Y22431D01*
X9345Y22430D01*
X9350Y22430D01*
X9356Y22429D01*
X9357Y22429D01*
X9358Y22428D01*
X9363Y22429D01*
X9368Y22429D01*
X9369Y22430D01*
X9370Y22430D01*
X9375Y22431D01*
X9380Y22433D01*
X9381Y22434D01*
X9382Y22434D01*
X9386Y22437D01*
X9390Y22440D01*
X9391Y22440D01*
X9392Y22441D01*
X9400Y22451D01*
X9401Y22452D01*
X9402Y22453D01*
X9407Y22463D01*
X9426Y22482D01*
X9449Y22495D01*
X9475Y22502D01*
X9645Y22502D01*
X9645Y22156D01*
X9645Y22151D01*
X9646Y22146D01*
X9646Y22145D01*
X9646Y22144D01*
X9648Y22139D01*
X9650Y22134D01*
X9650Y22133D01*
X9651Y22132D01*
X9654Y22128D01*
X9656Y22124D01*
X9657Y22123D01*
X9658Y22122D01*
X9662Y22119D01*
X9666Y22115D01*
X9667Y22115D01*
X9668Y22114D01*
X9672Y22112D01*
X9677Y22110D01*
X9678Y22110D01*
X9679Y22109D01*
X9691Y22107D01*
X9693Y22107D01*
X9694Y22107D01*
X9745Y22107D01*
X9745Y22105D01*
X9694Y22105D01*
X9689Y22104D01*
X9684Y22104D01*
X9683Y22104D01*
X9682Y22104D01*
X9677Y22102D01*
X9672Y22100D01*
X9671Y22099D01*
X9670Y22099D01*
X9666Y22096D01*
X9662Y22093D01*
X9661Y22092D01*
X9660Y22092D01*
X9657Y22088D01*
X9654Y22084D01*
X9653Y22083D01*
X9652Y22082D01*
X9650Y22077D01*
X9648Y22073D01*
X9648Y22072D01*
X9647Y22071D01*
X9645Y22058D01*
X9645Y22057D01*
X9645Y22056D01*
X9645Y21710D01*
X9475Y21710D01*
X9449Y21717D01*
X9426Y21730D01*
X9407Y21749D01*
X9402Y21759D01*
X9399Y21763D01*
X9396Y21767D01*
X9395Y21768D01*
X9394Y21768D01*
X9390Y21772D01*
X9386Y21775D01*
X9385Y21775D01*
X9384Y21776D01*
X9380Y21778D01*
X9375Y21781D01*
X9374Y21781D01*
X9373Y21781D01*
X9368Y21782D01*
X9363Y21783D01*
X9362Y21783D01*
X9361Y21783D01*
X9356Y21783D01*
X9350Y21782D01*
X9349Y21782D01*
X9348Y21782D01*
X9343Y21780D01*
X9339Y21779D01*
X9338Y21778D01*
X9337Y21778D01*
X9326Y21771D01*
X9325Y21769D01*
X9324Y21769D01*
X9275Y21720D01*
X9272Y21716D01*
X9269Y21712D01*
X9269Y21711D01*
X9268Y21710D01*
X9266Y21706D01*
X9264Y21701D01*
X9263Y21700D01*
X9263Y21699D01*
X9262Y21694D01*
X9261Y21689D01*
X9261Y21688D01*
X9261Y21687D01*
X9262Y21682D01*
X9262Y21677D01*
X9262Y21675D01*
X9262Y21674D01*
X9264Y21670D01*
X9265Y21665D01*
X9266Y21664D01*
X9267Y21662D01*
X9274Y21652D01*
X9275Y21651D01*
X9275Y21650D01*
X9981Y20945D01*
X9984Y20943D01*
X9987Y20940D01*
X9989Y20939D01*
X9990Y20938D01*
X9994Y20936D01*
X9998Y20934D01*
X10000Y20934D01*
X10002Y20933D01*
X10014Y20931D01*
X10015Y20931D01*
X13390Y20931D01*
X13395Y20931D01*
X13400Y20932D01*
X13401Y20932D01*
X13402Y20932D01*
X13407Y20934D01*
X13412Y20936D01*
X13413Y20936D01*
X13414Y20937D01*
X13418Y20940D01*
X13422Y20943D01*
X13423Y20944D01*
X13424Y20944D01*
X13427Y20948D01*
X13430Y20952D01*
X13431Y20953D01*
X13432Y20954D01*
X13434Y20958D01*
X13436Y20963D01*
X13436Y20964D01*
X13437Y20965D01*
X13439Y20977D01*
X13439Y20979D01*
X13439Y20980D01*
X13439Y21243D01*
X13487Y21291D01*
X15553Y21291D01*
X15601Y21243D01*
X15601Y20177D01*
X15553Y20129D01*
X13487Y20129D01*
X13439Y20177D01*
X13439Y20440D01*
X13439Y20445D01*
X13438Y20450D01*
X13438Y20451D01*
X13438Y20452D01*
X13436Y20457D01*
X13434Y20462D01*
X13434Y20463D01*
X13433Y20464D01*
X13430Y20468D01*
X13427Y20472D01*
X13426Y20473D01*
X13426Y20474D01*
X13422Y20477D01*
X13418Y20480D01*
X13417Y20481D01*
X13416Y20482D01*
X13412Y20484D01*
X13407Y20486D01*
X13406Y20486D01*
X13405Y20487D01*
X13393Y20489D01*
X13391Y20489D01*
X13390Y20489D01*
X9860Y20489D01*
X9779Y20523D01*
X8995Y21306D01*
X8991Y21309D01*
X8988Y21312D01*
X8986Y21313D01*
X8985Y21314D01*
X8981Y21316D01*
X8977Y21318D01*
X8975Y21318D01*
X8974Y21319D01*
X8969Y21319D01*
X8964Y21320D01*
X8963Y21320D01*
X8962Y21321D01*
X8957Y21320D01*
X8952Y21320D01*
X8951Y21319D01*
X8949Y21319D01*
X8945Y21318D01*
X8940Y21316D01*
X8939Y21316D01*
X8938Y21315D01*
X8928Y21308D01*
X8926Y21307D01*
X8926Y21306D01*
X8395Y20775D01*
X8392Y20772D01*
X8389Y20769D01*
X8389Y20767D01*
X8387Y20766D01*
X8386Y20762D01*
X8384Y20758D01*
X8383Y20756D01*
X8382Y20754D01*
X8381Y20742D01*
X8381Y20741D01*
X8381Y20337D01*
X8333Y20290D01*
X8264Y20290D01*
X8259Y20289D01*
X8254Y20289D01*
X8253Y20288D01*
X8252Y20288D01*
X8247Y20286D01*
X8242Y20285D01*
X8241Y20284D01*
X8240Y20284D01*
X8236Y20281D01*
X8232Y20278D01*
X8231Y20277D01*
X8230Y20276D01*
X8227Y20272D01*
X8224Y20269D01*
X8223Y20268D01*
X8222Y20267D01*
X8220Y20262D01*
X8218Y20258D01*
X8218Y20257D01*
X8217Y20255D01*
X8215Y20243D01*
X8215Y20242D01*
X8215Y20241D01*
X8215Y20153D01*
X8036Y19975D01*
X8033Y19970D01*
X8029Y19966D01*
X8029Y19965D01*
X8026Y19960D01*
X8024Y19955D01*
X8024Y19954D01*
X8023Y19948D01*
X8022Y19943D01*
X8022Y19942D01*
X8022Y19941D01*
X8022Y19936D01*
X8023Y19930D01*
X8023Y19929D01*
X8025Y19924D01*
X8027Y19918D01*
X8027Y19917D01*
X8031Y19913D01*
X8034Y19908D01*
X8035Y19907D01*
X8039Y19903D01*
X8043Y19900D01*
X8043Y19899D01*
X8044Y19899D01*
X8049Y19896D01*
X8054Y19894D01*
X8055Y19893D01*
X8067Y19891D01*
X8070Y19891D01*
X8071Y19891D01*
X15490Y19891D01*
X15494Y19891D01*
G37*
G36*
X21555Y41233D02*
X21555Y41233D01*
X21560Y41233D01*
X21561Y41233D01*
X21563Y41233D01*
X21567Y41235D01*
X21572Y41237D01*
X21573Y41237D01*
X21574Y41238D01*
X21584Y41245D01*
X21585Y41246D01*
X21586Y41247D01*
X24768Y44429D01*
X24772Y44433D01*
X24775Y44437D01*
X24776Y44438D01*
X24776Y44439D01*
X24778Y44444D01*
X24781Y44449D01*
X24781Y44450D01*
X24782Y44455D01*
X24783Y44461D01*
X24783Y44462D01*
X24782Y44468D01*
X24782Y44473D01*
X24782Y44474D01*
X24782Y44475D01*
X24780Y44480D01*
X24778Y44485D01*
X24777Y44486D01*
X24774Y44491D01*
X24771Y44496D01*
X24770Y44496D01*
X24766Y44500D01*
X24762Y44504D01*
X24761Y44504D01*
X24761Y44505D01*
X24756Y44507D01*
X24751Y44510D01*
X24750Y44510D01*
X24737Y44513D01*
X24735Y44513D01*
X24734Y44513D01*
X24417Y44513D01*
X24370Y44560D01*
X24370Y44883D01*
X24424Y44937D01*
X24427Y44941D01*
X24430Y44944D01*
X24430Y44945D01*
X24431Y44946D01*
X24433Y44951D01*
X24435Y44955D01*
X24436Y44957D01*
X24436Y44958D01*
X24437Y44963D01*
X24438Y44968D01*
X24438Y44969D01*
X24438Y44970D01*
X24438Y44975D01*
X24437Y44980D01*
X24437Y44981D01*
X24437Y44983D01*
X24435Y44987D01*
X24434Y44992D01*
X24433Y44993D01*
X24433Y44994D01*
X24425Y45004D01*
X24424Y45005D01*
X24424Y45006D01*
X24370Y45060D01*
X24370Y45383D01*
X24414Y45427D01*
X24417Y45431D01*
X24420Y45435D01*
X24421Y45436D01*
X24421Y45437D01*
X24423Y45441D01*
X24426Y45446D01*
X24426Y45447D01*
X24426Y45448D01*
X24427Y45453D01*
X24428Y45458D01*
X24428Y45459D01*
X24428Y45460D01*
X24428Y45466D01*
X24427Y45471D01*
X24427Y45472D01*
X24427Y45473D01*
X24425Y45478D01*
X24424Y45482D01*
X24423Y45483D01*
X24423Y45484D01*
X24420Y45489D01*
X24417Y45493D01*
X24416Y45494D01*
X24416Y45495D01*
X24406Y45503D01*
X24405Y45504D01*
X24404Y45504D01*
X24389Y45513D01*
X24370Y45532D01*
X24357Y45555D01*
X24350Y45580D01*
X24350Y45658D01*
X24929Y45658D01*
X24934Y45659D01*
X24939Y45659D01*
X24940Y45660D01*
X24941Y45660D01*
X24943Y45660D01*
X24954Y45658D01*
X24956Y45658D01*
X24957Y45658D01*
X25536Y45658D01*
X25536Y45580D01*
X25529Y45555D01*
X25516Y45532D01*
X25497Y45513D01*
X25482Y45504D01*
X25478Y45501D01*
X25474Y45498D01*
X25473Y45497D01*
X25472Y45497D01*
X25469Y45493D01*
X25465Y45489D01*
X25465Y45488D01*
X25464Y45487D01*
X25462Y45482D01*
X25460Y45478D01*
X25460Y45477D01*
X25459Y45476D01*
X25458Y45471D01*
X25457Y45466D01*
X25457Y45464D01*
X25457Y45463D01*
X25458Y45458D01*
X25458Y45453D01*
X25458Y45452D01*
X25458Y45451D01*
X25460Y45446D01*
X25462Y45441D01*
X25463Y45439D01*
X25470Y45429D01*
X25471Y45428D01*
X25472Y45427D01*
X25516Y45383D01*
X25516Y45295D01*
X25516Y45289D01*
X25517Y45284D01*
X25517Y45283D01*
X25519Y45277D01*
X25521Y45272D01*
X25522Y45272D01*
X25522Y45271D01*
X25525Y45266D01*
X25528Y45262D01*
X25529Y45262D01*
X25529Y45261D01*
X25533Y45257D01*
X25538Y45254D01*
X25539Y45253D01*
X25544Y45251D01*
X25549Y45248D01*
X25550Y45248D01*
X25556Y45247D01*
X25561Y45246D01*
X25562Y45246D01*
X25568Y45246D01*
X25573Y45246D01*
X25574Y45247D01*
X25575Y45247D01*
X25580Y45248D01*
X25585Y45250D01*
X25586Y45250D01*
X25586Y45251D01*
X25597Y45257D01*
X25598Y45259D01*
X25600Y45260D01*
X26738Y46399D01*
X26740Y46401D01*
X26742Y46403D01*
X26744Y46406D01*
X26746Y46408D01*
X26747Y46411D01*
X26749Y46414D01*
X26749Y46417D01*
X26751Y46420D01*
X26751Y46423D01*
X26752Y46426D01*
X26752Y46428D01*
X26753Y46432D01*
X26752Y46442D01*
X26752Y46443D01*
X26747Y46467D01*
X26745Y46472D01*
X26726Y46567D01*
X26662Y46869D01*
X26598Y47172D01*
X26546Y47421D01*
X26492Y47678D01*
X26477Y47748D01*
X26471Y47777D01*
X26417Y48034D01*
X26364Y48283D01*
X26351Y48348D01*
X26344Y48382D01*
X26293Y48624D01*
X26292Y48627D01*
X26292Y48628D01*
X26216Y48881D01*
X26213Y48886D01*
X26212Y48889D01*
X26099Y49112D01*
X26095Y49118D01*
X26094Y49120D01*
X25942Y49319D01*
X25937Y49323D01*
X25936Y49325D01*
X25749Y49493D01*
X25744Y49497D01*
X25742Y49499D01*
X25529Y49631D01*
X25523Y49634D01*
X25521Y49635D01*
X25287Y49729D01*
X25281Y49730D01*
X25278Y49731D01*
X25031Y49782D01*
X25025Y49783D01*
X25023Y49783D01*
X24771Y49791D01*
X24765Y49790D01*
X24762Y49790D01*
X24514Y49753D01*
X24508Y49751D01*
X24505Y49750D01*
X24269Y49669D01*
X24263Y49666D01*
X24260Y49665D01*
X24042Y49542D01*
X24037Y49538D01*
X24035Y49537D01*
X23831Y49369D01*
X23830Y49367D01*
X23828Y49366D01*
X23653Y49193D01*
X23597Y49139D01*
X23580Y49122D01*
X23376Y48923D01*
X23213Y48763D01*
X23148Y48698D01*
X23147Y48698D01*
X23141Y48692D01*
X22994Y48547D01*
X22964Y48518D01*
X22921Y48476D01*
X22740Y48299D01*
X22554Y48117D01*
X22530Y48092D01*
X22482Y48046D01*
X22284Y47851D01*
X22115Y47686D01*
X22087Y47659D01*
X22043Y47615D01*
X21871Y47446D01*
X21676Y47255D01*
X21625Y47205D01*
X21603Y47184D01*
X21456Y47040D01*
X21420Y47004D01*
X21384Y46969D01*
X21186Y46775D01*
X21017Y46609D01*
X20968Y46561D01*
X20944Y46538D01*
X20725Y46323D01*
X20555Y46157D01*
X20358Y45963D01*
X20326Y45932D01*
X20285Y45892D01*
X20086Y45697D01*
X19919Y45532D01*
X19894Y45508D01*
X19846Y45461D01*
X19663Y45281D01*
X19479Y45102D01*
X19260Y44886D01*
X19227Y44854D01*
X19187Y44815D01*
X19006Y44637D01*
X18820Y44456D01*
X18767Y44403D01*
X18748Y44385D01*
X18601Y44240D01*
X18536Y44177D01*
X18528Y44169D01*
X18342Y43987D01*
X18126Y43775D01*
X18126Y43774D01*
X18097Y43746D01*
X18059Y43731D01*
X18059Y43730D01*
X18021Y43715D01*
X17980Y43715D01*
X11890Y43715D01*
X11889Y43715D01*
X11849Y43715D01*
X11811Y43730D01*
X11811Y43731D01*
X11773Y43746D01*
X11744Y43775D01*
X11561Y43954D01*
X11535Y43979D01*
X11489Y44025D01*
X11310Y44200D01*
X11122Y44385D01*
X11105Y44401D01*
X11049Y44456D01*
X10850Y44651D01*
X10848Y44653D01*
X10846Y44654D01*
X10843Y44656D01*
X10840Y44659D01*
X10838Y44660D01*
X10836Y44661D01*
X10832Y44662D01*
X10829Y44663D01*
X10826Y44664D01*
X10824Y44664D01*
X10820Y44665D01*
X10816Y44665D01*
X10814Y44665D01*
X10811Y44665D01*
X10808Y44664D01*
X10804Y44664D01*
X10802Y44663D01*
X10799Y44662D01*
X10796Y44661D01*
X10792Y44659D01*
X10790Y44658D01*
X10788Y44657D01*
X10785Y44654D01*
X10782Y44652D01*
X10781Y44650D01*
X10779Y44649D01*
X10777Y44645D01*
X10774Y44643D01*
X10773Y44640D01*
X10772Y44638D01*
X10770Y44635D01*
X10769Y44631D01*
X10768Y44629D01*
X10768Y44627D01*
X10767Y44623D01*
X10766Y44619D01*
X10767Y44617D01*
X10766Y44614D01*
X10767Y44612D01*
X10767Y44607D01*
X10770Y44599D01*
X10770Y44597D01*
X10800Y44526D01*
X10800Y44434D01*
X10765Y44350D01*
X10750Y44336D01*
X10747Y44331D01*
X10744Y44327D01*
X10743Y44326D01*
X10741Y44321D01*
X10738Y44316D01*
X10738Y44315D01*
X10738Y44314D01*
X10737Y44309D01*
X10736Y44303D01*
X10736Y44302D01*
X10737Y44297D01*
X10737Y44291D01*
X10737Y44290D01*
X10739Y44285D01*
X10741Y44279D01*
X10742Y44278D01*
X10745Y44274D01*
X10748Y44269D01*
X10748Y44268D01*
X10749Y44268D01*
X10753Y44264D01*
X10757Y44261D01*
X10758Y44260D01*
X10763Y44257D01*
X10768Y44255D01*
X10769Y44255D01*
X10769Y44254D01*
X10781Y44252D01*
X10784Y44252D01*
X10785Y44252D01*
X10850Y44252D01*
X11986Y43115D01*
X11990Y43113D01*
X11993Y43110D01*
X11995Y43109D01*
X11996Y43108D01*
X12000Y43106D01*
X12004Y43104D01*
X12005Y43104D01*
X12008Y43103D01*
X12020Y43101D01*
X12021Y43101D01*
X18889Y43101D01*
X18893Y43101D01*
X18898Y43101D01*
X18900Y43102D01*
X18901Y43102D01*
X18905Y43104D01*
X18910Y43105D01*
X18911Y43106D01*
X18913Y43107D01*
X18923Y43114D01*
X18924Y43115D01*
X22566Y46757D01*
X22651Y46842D01*
X22746Y46842D01*
X22751Y46843D01*
X22756Y46843D01*
X22757Y46844D01*
X22758Y46844D01*
X22763Y46846D01*
X22767Y46847D01*
X22768Y46848D01*
X22770Y46848D01*
X22774Y46851D01*
X22778Y46854D01*
X22779Y46855D01*
X22780Y46856D01*
X22783Y46860D01*
X22786Y46863D01*
X22787Y46864D01*
X22788Y46865D01*
X22790Y46870D01*
X22792Y46874D01*
X22792Y46875D01*
X22793Y46877D01*
X22794Y46881D01*
X22842Y46930D01*
X23894Y46930D01*
X23941Y46883D01*
X23941Y46560D01*
X23887Y46506D01*
X23884Y46502D01*
X23881Y46499D01*
X23880Y46498D01*
X23879Y46496D01*
X23877Y46492D01*
X23875Y46488D01*
X23875Y46486D01*
X23875Y46485D01*
X23874Y46480D01*
X23873Y46475D01*
X23873Y46474D01*
X23873Y46473D01*
X23873Y46468D01*
X23873Y46463D01*
X23874Y46462D01*
X23874Y46460D01*
X23876Y46456D01*
X23877Y46451D01*
X23878Y46450D01*
X23878Y46449D01*
X23885Y46439D01*
X23886Y46438D01*
X23887Y46437D01*
X23941Y46383D01*
X23941Y46060D01*
X23887Y46006D01*
X23884Y46002D01*
X23881Y45999D01*
X23880Y45998D01*
X23879Y45996D01*
X23877Y45992D01*
X23875Y45988D01*
X23875Y45986D01*
X23875Y45985D01*
X23874Y45980D01*
X23873Y45975D01*
X23873Y45974D01*
X23873Y45973D01*
X23873Y45968D01*
X23873Y45963D01*
X23874Y45962D01*
X23874Y45960D01*
X23876Y45956D01*
X23877Y45951D01*
X23878Y45950D01*
X23878Y45949D01*
X23885Y45939D01*
X23886Y45938D01*
X23887Y45937D01*
X23941Y45883D01*
X23941Y45560D01*
X23887Y45506D01*
X23884Y45502D01*
X23881Y45499D01*
X23880Y45498D01*
X23879Y45496D01*
X23877Y45492D01*
X23875Y45488D01*
X23875Y45486D01*
X23875Y45485D01*
X23874Y45480D01*
X23873Y45475D01*
X23873Y45474D01*
X23873Y45473D01*
X23873Y45468D01*
X23873Y45463D01*
X23874Y45462D01*
X23874Y45460D01*
X23876Y45456D01*
X23877Y45451D01*
X23878Y45450D01*
X23878Y45449D01*
X23885Y45439D01*
X23886Y45438D01*
X23887Y45437D01*
X23941Y45383D01*
X23941Y45060D01*
X23887Y45006D01*
X23884Y45002D01*
X23881Y44999D01*
X23880Y44998D01*
X23879Y44996D01*
X23877Y44992D01*
X23875Y44988D01*
X23875Y44986D01*
X23875Y44985D01*
X23874Y44980D01*
X23873Y44975D01*
X23873Y44974D01*
X23873Y44973D01*
X23873Y44968D01*
X23873Y44963D01*
X23874Y44962D01*
X23874Y44960D01*
X23876Y44956D01*
X23877Y44951D01*
X23878Y44950D01*
X23878Y44949D01*
X23885Y44939D01*
X23886Y44938D01*
X23887Y44937D01*
X23941Y44883D01*
X23941Y44560D01*
X23894Y44513D01*
X22842Y44513D01*
X22794Y44561D01*
X22794Y44563D01*
X22794Y44564D01*
X22792Y44568D01*
X22790Y44573D01*
X22789Y44574D01*
X22789Y44575D01*
X22786Y44579D01*
X22783Y44583D01*
X22782Y44584D01*
X22782Y44585D01*
X22778Y44589D01*
X22774Y44592D01*
X22773Y44592D01*
X22772Y44593D01*
X22767Y44595D01*
X22763Y44598D01*
X22762Y44598D01*
X22761Y44598D01*
X22748Y44601D01*
X22747Y44601D01*
X22746Y44601D01*
X22242Y44601D01*
X22238Y44600D01*
X22233Y44600D01*
X22232Y44599D01*
X22230Y44599D01*
X22226Y44598D01*
X22221Y44596D01*
X22220Y44595D01*
X22218Y44595D01*
X22208Y44587D01*
X22207Y44586D01*
X21155Y43534D01*
X21153Y43531D01*
X21150Y43528D01*
X21149Y43526D01*
X21148Y43525D01*
X21146Y43521D01*
X21144Y43517D01*
X21144Y43515D01*
X21143Y43513D01*
X21141Y43501D01*
X21141Y43500D01*
X21141Y42354D01*
X21141Y42350D01*
X21141Y42346D01*
X21142Y42344D01*
X21142Y42342D01*
X21144Y42338D01*
X21145Y42334D01*
X21146Y42333D01*
X21147Y42331D01*
X21154Y42321D01*
X21155Y42320D01*
X21215Y42260D01*
X21250Y42176D01*
X21250Y42084D01*
X21215Y42000D01*
X21150Y41935D01*
X21066Y41900D01*
X20982Y41900D01*
X20976Y41900D01*
X20971Y41899D01*
X20970Y41899D01*
X20969Y41899D01*
X20964Y41897D01*
X20959Y41895D01*
X20959Y41894D01*
X20958Y41894D01*
X20953Y41891D01*
X20949Y41888D01*
X20948Y41887D01*
X20944Y41883D01*
X20941Y41878D01*
X20940Y41878D01*
X20940Y41877D01*
X20938Y41872D01*
X20935Y41867D01*
X20935Y41866D01*
X20934Y41860D01*
X20933Y41855D01*
X20933Y41854D01*
X20933Y41848D01*
X20933Y41843D01*
X20934Y41842D01*
X20934Y41841D01*
X20935Y41836D01*
X20937Y41831D01*
X20937Y41830D01*
X20938Y41830D01*
X20944Y41819D01*
X20946Y41818D01*
X20947Y41816D01*
X21517Y41247D01*
X21521Y41244D01*
X21524Y41240D01*
X21525Y41240D01*
X21526Y41239D01*
X21531Y41237D01*
X21535Y41235D01*
X21537Y41235D01*
X21538Y41234D01*
X21543Y41233D01*
X21548Y41232D01*
X21549Y41232D01*
X21550Y41232D01*
X21555Y41233D01*
G37*
G36*
X18084Y39391D02*
X18084Y39391D01*
X18088Y39391D01*
X18090Y39392D01*
X18092Y39392D01*
X18096Y39394D01*
X18100Y39395D01*
X18101Y39396D01*
X18103Y39397D01*
X18113Y39404D01*
X18114Y39405D01*
X19436Y40727D01*
X19439Y40730D01*
X19441Y40733D01*
X19442Y40735D01*
X19444Y40737D01*
X19445Y40740D01*
X19447Y40744D01*
X19447Y40746D01*
X19448Y40748D01*
X19450Y40760D01*
X19450Y40761D01*
X19450Y40762D01*
X19450Y40846D01*
X19485Y40930D01*
X19550Y40995D01*
X19619Y41023D01*
X19621Y41024D01*
X19623Y41025D01*
X19626Y41028D01*
X19630Y41030D01*
X19631Y41031D01*
X19633Y41032D01*
X19636Y41035D01*
X19639Y41038D01*
X19640Y41040D01*
X19641Y41042D01*
X19643Y41045D01*
X19645Y41049D01*
X19646Y41051D01*
X19647Y41053D01*
X19648Y41057D01*
X19649Y41061D01*
X19649Y41063D01*
X19649Y41065D01*
X19649Y41069D01*
X19649Y41073D01*
X19649Y41075D01*
X19649Y41077D01*
X19648Y41081D01*
X19647Y41085D01*
X19646Y41087D01*
X19645Y41089D01*
X19644Y41091D01*
X19641Y41096D01*
X19637Y41102D01*
X19635Y41104D01*
X19424Y41315D01*
X19421Y41317D01*
X19417Y41320D01*
X19416Y41321D01*
X19414Y41322D01*
X19410Y41324D01*
X19406Y41326D01*
X19405Y41326D01*
X19403Y41327D01*
X19390Y41329D01*
X19389Y41329D01*
X11267Y41329D01*
X10651Y41945D01*
X10648Y41948D01*
X10645Y41951D01*
X10643Y41952D01*
X10641Y41953D01*
X10637Y41954D01*
X10634Y41956D01*
X10632Y41957D01*
X10630Y41958D01*
X10618Y41960D01*
X10617Y41959D01*
X10616Y41960D01*
X10252Y41960D01*
X10247Y41959D01*
X10241Y41958D01*
X10240Y41958D01*
X10235Y41956D01*
X10230Y41954D01*
X10229Y41954D01*
X10229Y41953D01*
X10224Y41950D01*
X10219Y41947D01*
X10219Y41946D01*
X10218Y41946D01*
X10215Y41942D01*
X10211Y41938D01*
X10211Y41937D01*
X10211Y41936D01*
X10208Y41931D01*
X10206Y41926D01*
X10205Y41925D01*
X10204Y41920D01*
X10203Y41914D01*
X10203Y41913D01*
X10204Y41907D01*
X10204Y41902D01*
X10204Y41901D01*
X10206Y41895D01*
X10208Y41890D01*
X10208Y41889D01*
X10215Y41878D01*
X10217Y41877D01*
X10218Y41875D01*
X11210Y40883D01*
X11213Y40881D01*
X11216Y40878D01*
X11218Y40877D01*
X11220Y40876D01*
X11224Y40874D01*
X11227Y40872D01*
X11229Y40872D01*
X11231Y40871D01*
X11243Y40869D01*
X11244Y40869D01*
X11245Y40869D01*
X11719Y40869D01*
X11767Y40821D01*
X11768Y40816D01*
X11768Y40815D01*
X11768Y40814D01*
X11770Y40809D01*
X11772Y40804D01*
X11772Y40803D01*
X11776Y40798D01*
X11779Y40794D01*
X11779Y40793D01*
X11780Y40793D01*
X11784Y40789D01*
X11788Y40786D01*
X11789Y40785D01*
X11794Y40783D01*
X11799Y40780D01*
X11800Y40780D01*
X11801Y40780D01*
X11806Y40779D01*
X11812Y40778D01*
X11813Y40778D01*
X11818Y40778D01*
X11824Y40778D01*
X11825Y40778D01*
X11831Y40780D01*
X11836Y40782D01*
X11837Y40782D01*
X11847Y40789D01*
X11849Y40791D01*
X11850Y40792D01*
X11911Y40853D01*
X12568Y40853D01*
X12616Y40805D01*
X12616Y40227D01*
X12566Y40177D01*
X12563Y40173D01*
X12560Y40169D01*
X12559Y40168D01*
X12558Y40167D01*
X12556Y40162D01*
X12554Y40158D01*
X12554Y40157D01*
X12553Y40156D01*
X12553Y40151D01*
X12552Y40146D01*
X12552Y40145D01*
X12552Y40143D01*
X12552Y40138D01*
X12552Y40133D01*
X12553Y40132D01*
X12553Y40131D01*
X12554Y40126D01*
X12556Y40122D01*
X12557Y40121D01*
X12557Y40119D01*
X12564Y40109D01*
X12565Y40108D01*
X12566Y40107D01*
X12616Y40057D01*
X12616Y40009D01*
X12616Y40004D01*
X12617Y39998D01*
X12617Y39997D01*
X12619Y39992D01*
X12621Y39987D01*
X12622Y39986D01*
X12625Y39981D01*
X12628Y39977D01*
X12629Y39976D01*
X12634Y39972D01*
X12638Y39968D01*
X12639Y39968D01*
X12644Y39965D01*
X12649Y39963D01*
X12650Y39963D01*
X12650Y39962D01*
X12656Y39961D01*
X12661Y39960D01*
X12662Y39960D01*
X12668Y39961D01*
X12674Y39961D01*
X12675Y39961D01*
X12680Y39963D01*
X12685Y39965D01*
X12686Y39965D01*
X12687Y39965D01*
X12697Y39972D01*
X12699Y39974D01*
X12700Y39975D01*
X12710Y39985D01*
X12794Y40020D01*
X12886Y40020D01*
X12970Y39985D01*
X13035Y39920D01*
X13070Y39836D01*
X13070Y39744D01*
X13035Y39660D01*
X12970Y39595D01*
X12886Y39560D01*
X12794Y39560D01*
X12710Y39595D01*
X12700Y39605D01*
X12695Y39609D01*
X12691Y39612D01*
X12691Y39613D01*
X12690Y39613D01*
X12685Y39615D01*
X12680Y39618D01*
X12679Y39618D01*
X12673Y39619D01*
X12668Y39620D01*
X12667Y39620D01*
X12666Y39620D01*
X12661Y39619D01*
X12655Y39619D01*
X12654Y39619D01*
X12649Y39617D01*
X12643Y39615D01*
X12643Y39614D01*
X12642Y39614D01*
X12638Y39611D01*
X12633Y39608D01*
X12632Y39607D01*
X12628Y39603D01*
X12625Y39599D01*
X12624Y39598D01*
X12622Y39593D01*
X12619Y39588D01*
X12619Y39587D01*
X12618Y39587D01*
X12616Y39574D01*
X12616Y39572D01*
X12616Y39571D01*
X12616Y39479D01*
X12612Y39475D01*
X12609Y39470D01*
X12605Y39466D01*
X12604Y39465D01*
X12602Y39460D01*
X12600Y39455D01*
X12600Y39454D01*
X12599Y39454D01*
X12599Y39448D01*
X12598Y39443D01*
X12598Y39442D01*
X12598Y39441D01*
X12598Y39436D01*
X12599Y39430D01*
X12599Y39429D01*
X12601Y39424D01*
X12603Y39418D01*
X12603Y39417D01*
X12606Y39413D01*
X12609Y39408D01*
X12610Y39408D01*
X12610Y39407D01*
X12614Y39403D01*
X12619Y39400D01*
X12619Y39399D01*
X12620Y39399D01*
X12625Y39396D01*
X12630Y39394D01*
X12631Y39393D01*
X12643Y39391D01*
X12645Y39391D01*
X12647Y39391D01*
X18080Y39391D01*
X18084Y39391D01*
G37*
G36*
X5154Y19891D02*
X5154Y19891D01*
X5160Y19892D01*
X5161Y19892D01*
X5166Y19894D01*
X5172Y19896D01*
X5172Y19897D01*
X5173Y19897D01*
X5177Y19900D01*
X5182Y19903D01*
X5182Y19904D01*
X5183Y19904D01*
X5186Y19909D01*
X5190Y19913D01*
X5191Y19914D01*
X5193Y19919D01*
X5195Y19924D01*
X5196Y19925D01*
X5197Y19931D01*
X5198Y19936D01*
X5198Y19937D01*
X5198Y19943D01*
X5197Y19949D01*
X5197Y19950D01*
X5195Y19955D01*
X5194Y19960D01*
X5193Y19961D01*
X5193Y19962D01*
X5186Y19972D01*
X5185Y19974D01*
X5184Y19975D01*
X4443Y20715D01*
X4443Y24373D01*
X4443Y24378D01*
X4442Y24383D01*
X4442Y24384D01*
X4442Y24385D01*
X4440Y24390D01*
X4438Y24394D01*
X4438Y24395D01*
X4437Y24397D01*
X4434Y24401D01*
X4432Y24405D01*
X4431Y24406D01*
X4430Y24407D01*
X4426Y24410D01*
X4422Y24413D01*
X4421Y24414D01*
X4420Y24415D01*
X4416Y24417D01*
X4411Y24419D01*
X4410Y24419D01*
X4409Y24420D01*
X4397Y24422D01*
X4395Y24422D01*
X4394Y24422D01*
X4325Y24422D01*
X4286Y24461D01*
X4282Y24464D01*
X4278Y24467D01*
X4277Y24468D01*
X4276Y24469D01*
X4271Y24471D01*
X4267Y24473D01*
X4266Y24473D01*
X4265Y24473D01*
X4260Y24474D01*
X4254Y24475D01*
X4253Y24475D01*
X4252Y24475D01*
X4247Y24475D01*
X4242Y24475D01*
X4241Y24474D01*
X4240Y24474D01*
X4235Y24472D01*
X4230Y24471D01*
X4229Y24470D01*
X4228Y24470D01*
X4224Y24467D01*
X4220Y24464D01*
X4219Y24463D01*
X4218Y24463D01*
X4210Y24453D01*
X4209Y24452D01*
X4208Y24451D01*
X4203Y24441D01*
X4184Y24422D01*
X4161Y24409D01*
X4135Y24402D01*
X3965Y24402D01*
X3965Y24748D01*
X3965Y24753D01*
X3964Y24758D01*
X3964Y24759D01*
X3964Y24760D01*
X3962Y24765D01*
X3960Y24770D01*
X3960Y24771D01*
X3959Y24772D01*
X3956Y24776D01*
X3954Y24780D01*
X3953Y24781D01*
X3952Y24782D01*
X3948Y24785D01*
X3944Y24788D01*
X3943Y24789D01*
X3942Y24790D01*
X3938Y24792D01*
X3933Y24794D01*
X3932Y24794D01*
X3931Y24795D01*
X3919Y24797D01*
X3917Y24797D01*
X3916Y24797D01*
X3865Y24797D01*
X3865Y24799D01*
X3916Y24799D01*
X3921Y24799D01*
X3926Y24800D01*
X3927Y24800D01*
X3928Y24800D01*
X3933Y24802D01*
X3938Y24804D01*
X3939Y24804D01*
X3940Y24805D01*
X3944Y24808D01*
X3948Y24811D01*
X3949Y24812D01*
X3950Y24812D01*
X3953Y24816D01*
X3956Y24820D01*
X3957Y24821D01*
X3958Y24822D01*
X3960Y24826D01*
X3962Y24831D01*
X3962Y24832D01*
X3963Y24833D01*
X3965Y24845D01*
X3965Y24847D01*
X3965Y24848D01*
X3965Y25194D01*
X4135Y25194D01*
X4161Y25187D01*
X4184Y25174D01*
X4203Y25155D01*
X4208Y25145D01*
X4211Y25141D01*
X4214Y25137D01*
X4215Y25136D01*
X4216Y25135D01*
X4220Y25132D01*
X4224Y25129D01*
X4225Y25128D01*
X4226Y25128D01*
X4230Y25126D01*
X4235Y25123D01*
X4236Y25123D01*
X4237Y25123D01*
X4242Y25122D01*
X4247Y25121D01*
X4248Y25121D01*
X4249Y25121D01*
X4254Y25121D01*
X4260Y25121D01*
X4261Y25122D01*
X4262Y25122D01*
X4267Y25124D01*
X4271Y25125D01*
X4272Y25126D01*
X4273Y25126D01*
X4284Y25133D01*
X4285Y25134D01*
X4286Y25135D01*
X4325Y25174D01*
X4394Y25174D01*
X4399Y25175D01*
X4404Y25175D01*
X4405Y25175D01*
X4407Y25176D01*
X4411Y25177D01*
X4416Y25179D01*
X4417Y25180D01*
X4418Y25180D01*
X4422Y25183D01*
X4426Y25186D01*
X4427Y25187D01*
X4428Y25188D01*
X4431Y25191D01*
X4435Y25195D01*
X4435Y25196D01*
X4436Y25197D01*
X4438Y25202D01*
X4440Y25206D01*
X4440Y25207D01*
X4441Y25208D01*
X4443Y25221D01*
X4443Y25222D01*
X4443Y25223D01*
X4443Y26285D01*
X4715Y26556D01*
X4717Y26560D01*
X4720Y26563D01*
X4721Y26565D01*
X4722Y26566D01*
X4724Y26570D01*
X4726Y26574D01*
X4726Y26575D01*
X4727Y26578D01*
X4729Y26590D01*
X4729Y26591D01*
X4729Y27149D01*
X4729Y27153D01*
X4729Y27157D01*
X4728Y27159D01*
X4728Y27161D01*
X4726Y27165D01*
X4725Y27169D01*
X4724Y27171D01*
X4723Y27173D01*
X4716Y27183D01*
X4715Y27183D01*
X4715Y27184D01*
X4612Y27287D01*
X4607Y27290D01*
X4605Y27292D01*
X3751Y27890D01*
X3747Y27892D01*
X3740Y27896D01*
X3728Y27899D01*
X3725Y27899D01*
X3723Y27899D01*
X3630Y27899D01*
X3626Y27899D01*
X3622Y27899D01*
X3620Y27898D01*
X3618Y27898D01*
X3614Y27896D01*
X3610Y27895D01*
X3609Y27894D01*
X3607Y27893D01*
X3597Y27886D01*
X3596Y27885D01*
X3404Y27693D01*
X3402Y27691D01*
X3400Y27688D01*
X3398Y27686D01*
X3396Y27683D01*
X3395Y27680D01*
X3394Y27678D01*
X3393Y27675D01*
X3391Y27672D01*
X3391Y27669D01*
X3390Y27666D01*
X3390Y27663D01*
X3390Y27660D01*
X3390Y27656D01*
X3390Y27653D01*
X3391Y27650D01*
X3391Y27647D01*
X3392Y27644D01*
X3393Y27641D01*
X3394Y27639D01*
X3395Y27636D01*
X3397Y27633D01*
X3398Y27630D01*
X3401Y27628D01*
X3402Y27625D01*
X3405Y27623D01*
X3407Y27621D01*
X3409Y27620D01*
X3412Y27617D01*
X3420Y27613D01*
X3862Y27304D01*
X3717Y27098D01*
X3715Y27094D01*
X3713Y27089D01*
X3712Y27088D01*
X3712Y27087D01*
X3710Y27082D01*
X3709Y27077D01*
X3709Y27076D01*
X3709Y27075D01*
X3709Y27070D01*
X3709Y27065D01*
X3709Y27064D01*
X3709Y27062D01*
X3710Y27058D01*
X3711Y27053D01*
X3712Y27052D01*
X3712Y27050D01*
X3715Y27046D01*
X3717Y27042D01*
X3718Y27041D01*
X3719Y27040D01*
X3727Y27031D01*
X3729Y27030D01*
X3729Y27029D01*
X3771Y27000D01*
X3770Y26999D01*
X3729Y27028D01*
X3724Y27030D01*
X3720Y27033D01*
X3719Y27033D01*
X3718Y27034D01*
X3713Y27035D01*
X3708Y27036D01*
X3707Y27036D01*
X3706Y27037D01*
X3701Y27037D01*
X3696Y27037D01*
X3694Y27036D01*
X3693Y27036D01*
X3688Y27035D01*
X3684Y27034D01*
X3682Y27033D01*
X3681Y27033D01*
X3677Y27031D01*
X3672Y27028D01*
X3670Y27027D01*
X3662Y27018D01*
X3661Y27017D01*
X3660Y27016D01*
X3516Y26810D01*
X3102Y27100D01*
X3101Y27100D01*
X3096Y27103D01*
X3091Y27105D01*
X3090Y27106D01*
X3084Y27107D01*
X3079Y27108D01*
X3078Y27108D01*
X3072Y27108D01*
X3066Y27108D01*
X3065Y27108D01*
X3060Y27106D01*
X3054Y27105D01*
X3054Y27104D01*
X3053Y27104D01*
X3052Y27103D01*
X3044Y27098D01*
X3041Y27095D01*
X3039Y27094D01*
X2996Y27051D01*
X2890Y26946D01*
X2888Y26942D01*
X2885Y26939D01*
X2884Y26937D01*
X2883Y26936D01*
X2881Y26932D01*
X2879Y26928D01*
X2879Y26927D01*
X2878Y26924D01*
X2876Y26912D01*
X2876Y26911D01*
X2876Y26437D01*
X2829Y26389D01*
X2230Y26389D01*
X2217Y26388D01*
X2206Y26383D01*
X2202Y26380D01*
X2196Y26376D01*
X2188Y26366D01*
X2185Y26360D01*
X2183Y26355D01*
X2183Y26354D01*
X2181Y26343D01*
X2181Y26332D01*
X2182Y26330D01*
X2186Y26318D01*
X2187Y26316D01*
X2188Y26314D01*
X2251Y26213D01*
X2255Y26208D01*
X2257Y26206D01*
X2702Y25721D01*
X2703Y25720D01*
X2703Y25719D01*
X2908Y25515D01*
X2912Y25513D01*
X2915Y25510D01*
X2916Y25509D01*
X2918Y25508D01*
X2922Y25506D01*
X2926Y25504D01*
X2927Y25504D01*
X2929Y25503D01*
X2942Y25501D01*
X2943Y25501D01*
X3064Y25501D01*
X3361Y25205D01*
X3361Y19940D01*
X3361Y19935D01*
X3362Y19930D01*
X3362Y19929D01*
X3362Y19928D01*
X3364Y19923D01*
X3366Y19918D01*
X3366Y19917D01*
X3367Y19916D01*
X3370Y19912D01*
X3373Y19908D01*
X3374Y19907D01*
X3374Y19906D01*
X3378Y19903D01*
X3382Y19900D01*
X3383Y19899D01*
X3384Y19898D01*
X3388Y19896D01*
X3393Y19894D01*
X3394Y19894D01*
X3395Y19893D01*
X3407Y19891D01*
X3409Y19891D01*
X3410Y19891D01*
X5149Y19891D01*
X5154Y19891D01*
G37*
G36*
X10978Y39391D02*
X10978Y39391D01*
X10983Y39392D01*
X10984Y39392D01*
X10985Y39392D01*
X10990Y39394D01*
X10995Y39396D01*
X10996Y39397D01*
X10997Y39397D01*
X11001Y39400D01*
X11005Y39403D01*
X11006Y39404D01*
X11007Y39404D01*
X11010Y39408D01*
X11013Y39412D01*
X11014Y39413D01*
X11014Y39414D01*
X11017Y39419D01*
X11019Y39424D01*
X11020Y39425D01*
X11021Y39430D01*
X11022Y39436D01*
X11022Y39437D01*
X11021Y39443D01*
X11021Y39448D01*
X11021Y39449D01*
X11021Y39450D01*
X11017Y39462D01*
X11016Y39463D01*
X11015Y39465D01*
X11001Y39489D01*
X10994Y39515D01*
X10994Y39685D01*
X11340Y39685D01*
X11345Y39685D01*
X11350Y39686D01*
X11351Y39686D01*
X11353Y39686D01*
X11357Y39688D01*
X11362Y39690D01*
X11363Y39690D01*
X11364Y39691D01*
X11368Y39694D01*
X11372Y39697D01*
X11373Y39698D01*
X11374Y39698D01*
X11377Y39702D01*
X11381Y39706D01*
X11381Y39707D01*
X11382Y39708D01*
X11384Y39712D01*
X11386Y39717D01*
X11387Y39718D01*
X11387Y39719D01*
X11389Y39731D01*
X11389Y39733D01*
X11389Y39734D01*
X11389Y39834D01*
X11389Y39839D01*
X11388Y39844D01*
X11388Y39845D01*
X11388Y39846D01*
X11386Y39851D01*
X11385Y39856D01*
X11384Y39857D01*
X11383Y39858D01*
X11380Y39862D01*
X11378Y39866D01*
X11377Y39867D01*
X11376Y39868D01*
X11372Y39871D01*
X11368Y39874D01*
X11367Y39875D01*
X11366Y39876D01*
X11362Y39878D01*
X11357Y39880D01*
X11356Y39880D01*
X11355Y39881D01*
X11343Y39883D01*
X11341Y39883D01*
X11340Y39883D01*
X10994Y39883D01*
X10994Y40053D01*
X11001Y40079D01*
X11014Y40102D01*
X11033Y40121D01*
X11043Y40126D01*
X11047Y40129D01*
X11051Y40132D01*
X11052Y40133D01*
X11053Y40134D01*
X11056Y40138D01*
X11059Y40142D01*
X11060Y40143D01*
X11061Y40144D01*
X11063Y40148D01*
X11065Y40153D01*
X11065Y40154D01*
X11066Y40155D01*
X11066Y40160D01*
X11067Y40165D01*
X11067Y40166D01*
X11068Y40167D01*
X11067Y40172D01*
X11067Y40177D01*
X11067Y40178D01*
X11066Y40180D01*
X11065Y40184D01*
X11063Y40189D01*
X11063Y40190D01*
X11062Y40191D01*
X11055Y40202D01*
X11054Y40203D01*
X11053Y40204D01*
X11014Y40243D01*
X11014Y40717D01*
X11014Y40721D01*
X11013Y40725D01*
X11013Y40727D01*
X11013Y40729D01*
X11011Y40733D01*
X11010Y40737D01*
X11009Y40739D01*
X11008Y40741D01*
X11001Y40751D01*
X11000Y40751D01*
X11000Y40752D01*
X10087Y41665D01*
X10083Y41667D01*
X10080Y41670D01*
X10078Y41671D01*
X10077Y41672D01*
X10073Y41674D01*
X10069Y41676D01*
X10068Y41676D01*
X10065Y41677D01*
X10053Y41679D01*
X10052Y41679D01*
X9994Y41679D01*
X9990Y41679D01*
X9986Y41679D01*
X9984Y41678D01*
X9982Y41678D01*
X9978Y41676D01*
X9974Y41675D01*
X9973Y41674D01*
X9971Y41673D01*
X9961Y41666D01*
X9960Y41665D01*
X9900Y41605D01*
X9816Y41570D01*
X9724Y41570D01*
X9640Y41605D01*
X9575Y41670D01*
X9540Y41754D01*
X9540Y41846D01*
X9559Y41891D01*
X9560Y41894D01*
X9561Y41896D01*
X9562Y41900D01*
X9563Y41903D01*
X9563Y41906D01*
X9563Y41908D01*
X9563Y41912D01*
X9563Y41916D01*
X9562Y41918D01*
X9562Y41920D01*
X9561Y41924D01*
X9560Y41928D01*
X9559Y41930D01*
X9558Y41932D01*
X9556Y41935D01*
X9554Y41939D01*
X9552Y41940D01*
X9551Y41942D01*
X9548Y41945D01*
X9545Y41948D01*
X9544Y41949D01*
X9542Y41951D01*
X9538Y41953D01*
X9535Y41955D01*
X9533Y41955D01*
X9531Y41956D01*
X9529Y41957D01*
X9523Y41959D01*
X9516Y41959D01*
X9514Y41960D01*
X9206Y41960D01*
X9201Y41959D01*
X9196Y41959D01*
X9194Y41958D01*
X9193Y41958D01*
X9189Y41956D01*
X9184Y41955D01*
X9183Y41954D01*
X9182Y41953D01*
X9178Y41950D01*
X9174Y41948D01*
X9173Y41947D01*
X9172Y41946D01*
X9168Y41942D01*
X9165Y41939D01*
X9165Y41937D01*
X9164Y41936D01*
X9162Y41933D01*
X8819Y41933D01*
X8482Y41933D01*
X8482Y41956D01*
X8489Y41981D01*
X8496Y41993D01*
X8497Y41996D01*
X8499Y42000D01*
X8499Y42002D01*
X8501Y42004D01*
X8502Y42016D01*
X8502Y42017D01*
X8502Y42304D01*
X8502Y42309D01*
X8501Y42314D01*
X8501Y42315D01*
X8501Y42316D01*
X8499Y42321D01*
X8497Y42326D01*
X8497Y42327D01*
X8496Y42328D01*
X8493Y42332D01*
X8491Y42336D01*
X8490Y42337D01*
X8489Y42338D01*
X8485Y42341D01*
X8481Y42344D01*
X8480Y42345D01*
X8479Y42346D01*
X8475Y42348D01*
X8470Y42350D01*
X8469Y42350D01*
X8468Y42351D01*
X8456Y42353D01*
X8454Y42353D01*
X8453Y42353D01*
X8270Y42353D01*
X8266Y42353D01*
X8262Y42353D01*
X8260Y42352D01*
X8258Y42352D01*
X8254Y42350D01*
X8250Y42349D01*
X8249Y42348D01*
X8247Y42347D01*
X8237Y42340D01*
X8236Y42339D01*
X8176Y42279D01*
X8092Y42244D01*
X8000Y42244D01*
X7916Y42279D01*
X7851Y42344D01*
X7816Y42428D01*
X7816Y42520D01*
X7851Y42604D01*
X7916Y42669D01*
X8000Y42704D01*
X8092Y42704D01*
X8176Y42669D01*
X8236Y42609D01*
X8239Y42607D01*
X8242Y42604D01*
X8244Y42603D01*
X8245Y42602D01*
X8249Y42600D01*
X8253Y42598D01*
X8255Y42598D01*
X8257Y42597D01*
X8269Y42595D01*
X8270Y42595D01*
X8453Y42595D01*
X8458Y42595D01*
X8463Y42596D01*
X8464Y42596D01*
X8465Y42596D01*
X8470Y42598D01*
X8475Y42600D01*
X8476Y42600D01*
X8477Y42601D01*
X8481Y42604D01*
X8485Y42607D01*
X8486Y42608D01*
X8487Y42608D01*
X8490Y42612D01*
X8493Y42616D01*
X8494Y42617D01*
X8495Y42618D01*
X8497Y42622D01*
X8499Y42627D01*
X8499Y42628D01*
X8500Y42629D01*
X8502Y42641D01*
X8502Y42643D01*
X8502Y42644D01*
X8502Y43470D01*
X8502Y43475D01*
X8501Y43481D01*
X8501Y43482D01*
X8499Y43487D01*
X8497Y43492D01*
X8496Y43493D01*
X8496Y43494D01*
X8493Y43498D01*
X8490Y43503D01*
X8489Y43503D01*
X8489Y43504D01*
X8484Y43507D01*
X8480Y43511D01*
X8479Y43512D01*
X8474Y43514D01*
X8469Y43516D01*
X8468Y43516D01*
X8468Y43517D01*
X8462Y43518D01*
X8457Y43519D01*
X8456Y43519D01*
X8450Y43519D01*
X8445Y43518D01*
X8444Y43518D01*
X8443Y43518D01*
X8438Y43516D01*
X8433Y43515D01*
X8432Y43514D01*
X8431Y43514D01*
X8421Y43507D01*
X8419Y43505D01*
X8418Y43505D01*
X8380Y43466D01*
X8296Y43431D01*
X8204Y43431D01*
X8120Y43466D01*
X8055Y43531D01*
X8052Y43539D01*
X8051Y43540D01*
X8051Y43542D01*
X8048Y43546D01*
X8046Y43550D01*
X8045Y43551D01*
X8044Y43552D01*
X8041Y43555D01*
X8037Y43559D01*
X8036Y43559D01*
X8035Y43560D01*
X8031Y43563D01*
X8027Y43565D01*
X8025Y43565D01*
X8024Y43566D01*
X8021Y43567D01*
X8015Y43569D01*
X8009Y43569D01*
X8007Y43569D01*
X8000Y43569D01*
X7964Y43606D01*
X7959Y43609D01*
X7955Y43612D01*
X7954Y43613D01*
X7949Y43615D01*
X7944Y43618D01*
X7943Y43618D01*
X7942Y43618D01*
X7937Y43619D01*
X7931Y43620D01*
X7930Y43620D01*
X7925Y43619D01*
X7919Y43619D01*
X7918Y43619D01*
X7913Y43617D01*
X7907Y43615D01*
X7906Y43614D01*
X7902Y43611D01*
X7897Y43608D01*
X7896Y43608D01*
X7896Y43607D01*
X7892Y43603D01*
X7889Y43599D01*
X7888Y43598D01*
X7885Y43593D01*
X7883Y43588D01*
X7883Y43587D01*
X7882Y43587D01*
X7880Y43575D01*
X7880Y43572D01*
X7880Y43571D01*
X7880Y43554D01*
X7845Y43470D01*
X7780Y43405D01*
X7696Y43370D01*
X7629Y43370D01*
X7624Y43370D01*
X7619Y43369D01*
X7618Y43369D01*
X7617Y43369D01*
X7612Y43367D01*
X7607Y43365D01*
X7606Y43365D01*
X7605Y43364D01*
X7601Y43361D01*
X7597Y43359D01*
X7596Y43358D01*
X7595Y43357D01*
X7592Y43353D01*
X7589Y43349D01*
X7588Y43348D01*
X7587Y43347D01*
X7585Y43343D01*
X7583Y43338D01*
X7583Y43337D01*
X7582Y43336D01*
X7580Y43324D01*
X7580Y43322D01*
X7580Y43321D01*
X7580Y43254D01*
X7545Y43170D01*
X7480Y43105D01*
X7396Y43070D01*
X7304Y43070D01*
X7220Y43105D01*
X7155Y43170D01*
X7150Y43174D01*
X7146Y43177D01*
X7146Y43178D01*
X7145Y43178D01*
X7140Y43180D01*
X7135Y43183D01*
X7134Y43183D01*
X7128Y43184D01*
X7123Y43185D01*
X7122Y43185D01*
X7121Y43185D01*
X7116Y43184D01*
X7110Y43184D01*
X7109Y43184D01*
X7104Y43182D01*
X7098Y43180D01*
X7098Y43179D01*
X7097Y43179D01*
X7093Y43176D01*
X7088Y43173D01*
X7087Y43172D01*
X7083Y43168D01*
X7080Y43164D01*
X7079Y43163D01*
X7076Y43158D01*
X7074Y43153D01*
X7074Y43152D01*
X7073Y43152D01*
X7071Y43139D01*
X7071Y43137D01*
X7071Y43136D01*
X7071Y42694D01*
X7071Y42690D01*
X7071Y42686D01*
X7072Y42684D01*
X7072Y42682D01*
X7074Y42678D01*
X7075Y42674D01*
X7076Y42673D01*
X7077Y42671D01*
X7084Y42661D01*
X7085Y42660D01*
X7145Y42600D01*
X7180Y42516D01*
X7180Y42424D01*
X7145Y42340D01*
X7080Y42275D01*
X6994Y42239D01*
X6990Y42239D01*
X6989Y42239D01*
X6983Y42237D01*
X6978Y42235D01*
X6978Y42234D01*
X6977Y42234D01*
X6973Y42231D01*
X6968Y42228D01*
X6968Y42227D01*
X6967Y42227D01*
X6963Y42223D01*
X6960Y42218D01*
X6959Y42217D01*
X6957Y42212D01*
X6954Y42207D01*
X6954Y42206D01*
X6953Y42200D01*
X6952Y42195D01*
X6952Y42194D01*
X6952Y42188D01*
X6952Y42183D01*
X6953Y42182D01*
X6953Y42181D01*
X6954Y42176D01*
X6956Y42171D01*
X6956Y42170D01*
X6957Y42170D01*
X6963Y42159D01*
X6965Y42158D01*
X6966Y42156D01*
X6972Y42151D01*
X6972Y42051D01*
X6886Y41966D01*
X6776Y41855D01*
X6772Y41850D01*
X6769Y41846D01*
X6768Y41846D01*
X6768Y41845D01*
X6766Y41840D01*
X6763Y41835D01*
X6763Y41834D01*
X6762Y41828D01*
X6761Y41823D01*
X6761Y41822D01*
X6761Y41821D01*
X6762Y41816D01*
X6762Y41810D01*
X6762Y41809D01*
X6764Y41804D01*
X6766Y41798D01*
X6767Y41798D01*
X6767Y41797D01*
X6770Y41793D01*
X6773Y41788D01*
X6774Y41787D01*
X6778Y41783D01*
X6782Y41780D01*
X6783Y41779D01*
X6788Y41776D01*
X6793Y41774D01*
X6794Y41774D01*
X6794Y41773D01*
X6807Y41771D01*
X6809Y41771D01*
X6810Y41771D01*
X7776Y41771D01*
X7780Y41771D01*
X7784Y41771D01*
X7786Y41772D01*
X7788Y41772D01*
X7792Y41774D01*
X7796Y41775D01*
X7797Y41776D01*
X7799Y41777D01*
X7809Y41784D01*
X7810Y41785D01*
X7870Y41845D01*
X7954Y41880D01*
X8046Y41880D01*
X8130Y41845D01*
X8195Y41780D01*
X8230Y41696D01*
X8230Y41604D01*
X8195Y41520D01*
X8172Y41497D01*
X8168Y41493D01*
X8165Y41488D01*
X8164Y41487D01*
X8162Y41482D01*
X8160Y41477D01*
X8160Y41476D01*
X8159Y41476D01*
X8159Y41470D01*
X8158Y41465D01*
X8158Y41464D01*
X8157Y41464D01*
X8158Y41458D01*
X8158Y41452D01*
X8159Y41452D01*
X8159Y41451D01*
X8161Y41446D01*
X8162Y41441D01*
X8163Y41440D01*
X8166Y41435D01*
X8169Y41430D01*
X8170Y41430D01*
X8170Y41429D01*
X8174Y41426D01*
X8178Y41422D01*
X8179Y41422D01*
X8180Y41421D01*
X8185Y41419D01*
X8189Y41416D01*
X8190Y41416D01*
X8191Y41416D01*
X8203Y41413D01*
X8205Y41413D01*
X8207Y41413D01*
X8321Y41413D01*
X8369Y41366D01*
X8369Y41266D01*
X8369Y41261D01*
X8370Y41256D01*
X8370Y41255D01*
X8370Y41254D01*
X8372Y41249D01*
X8374Y41244D01*
X8374Y41243D01*
X8375Y41242D01*
X8378Y41238D01*
X8380Y41234D01*
X8381Y41233D01*
X8382Y41232D01*
X8386Y41229D01*
X8390Y41226D01*
X8391Y41225D01*
X8392Y41224D01*
X8396Y41222D01*
X8401Y41220D01*
X8402Y41220D01*
X8403Y41219D01*
X8415Y41217D01*
X8417Y41217D01*
X8418Y41217D01*
X8657Y41217D01*
X8661Y41217D01*
X8666Y41218D01*
X8667Y41218D01*
X8669Y41218D01*
X8673Y41220D01*
X8677Y41221D01*
X8679Y41222D01*
X8681Y41223D01*
X8691Y41230D01*
X8691Y41231D01*
X8692Y41231D01*
X8695Y41234D01*
X8697Y41238D01*
X8700Y41241D01*
X8701Y41242D01*
X8702Y41244D01*
X8704Y41248D01*
X8706Y41252D01*
X8706Y41253D01*
X8707Y41255D01*
X8709Y41268D01*
X8709Y41269D01*
X8709Y41498D01*
X8709Y41502D01*
X8708Y41507D01*
X8708Y41509D01*
X8708Y41510D01*
X8706Y41514D01*
X8704Y41519D01*
X8703Y41520D01*
X8703Y41521D01*
X8700Y41525D01*
X8697Y41530D01*
X8696Y41530D01*
X8696Y41531D01*
X8692Y41535D01*
X8688Y41538D01*
X8687Y41539D01*
X8686Y41539D01*
X8682Y41541D01*
X8677Y41544D01*
X8676Y41544D01*
X8675Y41545D01*
X8663Y41547D01*
X8661Y41547D01*
X8660Y41547D01*
X8550Y41547D01*
X8502Y41594D01*
X8502Y41750D01*
X8502Y41754D01*
X8502Y41758D01*
X8501Y41759D01*
X8501Y41762D01*
X8496Y41773D01*
X8496Y41774D01*
X8489Y41786D01*
X8482Y41811D01*
X8482Y41834D01*
X8819Y41834D01*
X9156Y41834D01*
X9156Y41811D01*
X9149Y41786D01*
X9143Y41774D01*
X9141Y41770D01*
X9139Y41767D01*
X9139Y41765D01*
X9138Y41763D01*
X9136Y41750D01*
X9136Y41594D01*
X9089Y41547D01*
X9000Y41547D01*
X8995Y41546D01*
X8990Y41546D01*
X8989Y41545D01*
X8988Y41545D01*
X8983Y41543D01*
X8978Y41542D01*
X8977Y41541D01*
X8976Y41541D01*
X8972Y41538D01*
X8968Y41535D01*
X8967Y41534D01*
X8966Y41533D01*
X8963Y41529D01*
X8960Y41526D01*
X8959Y41525D01*
X8958Y41524D01*
X8956Y41519D01*
X8954Y41515D01*
X8954Y41514D01*
X8953Y41512D01*
X8951Y41500D01*
X8951Y41499D01*
X8951Y41498D01*
X8951Y41325D01*
X8951Y41320D01*
X8952Y41315D01*
X8952Y41314D01*
X8952Y41313D01*
X8954Y41308D01*
X8956Y41304D01*
X8956Y41303D01*
X8957Y41301D01*
X8960Y41297D01*
X8962Y41293D01*
X8963Y41292D01*
X8964Y41291D01*
X8968Y41288D01*
X8972Y41285D01*
X8973Y41284D01*
X8974Y41284D01*
X8978Y41281D01*
X8983Y41279D01*
X8984Y41279D01*
X8985Y41278D01*
X8997Y41276D01*
X8999Y41276D01*
X9000Y41276D01*
X9315Y41276D01*
X9354Y41237D01*
X9358Y41234D01*
X9362Y41231D01*
X9363Y41230D01*
X9364Y41229D01*
X9369Y41227D01*
X9374Y41225D01*
X9375Y41225D01*
X9376Y41225D01*
X9381Y41224D01*
X9386Y41223D01*
X9387Y41223D01*
X9388Y41223D01*
X9393Y41223D01*
X9398Y41223D01*
X9399Y41224D01*
X9400Y41224D01*
X9405Y41226D01*
X9410Y41227D01*
X9411Y41228D01*
X9412Y41228D01*
X9416Y41231D01*
X9420Y41234D01*
X9421Y41235D01*
X9422Y41235D01*
X9430Y41245D01*
X9431Y41246D01*
X9432Y41247D01*
X9437Y41257D01*
X9456Y41276D01*
X9479Y41289D01*
X9505Y41296D01*
X9675Y41296D01*
X9675Y40950D01*
X9675Y40945D01*
X9676Y40940D01*
X9676Y40939D01*
X9676Y40938D01*
X9678Y40933D01*
X9680Y40928D01*
X9680Y40927D01*
X9681Y40926D01*
X9684Y40922D01*
X9687Y40918D01*
X9688Y40917D01*
X9688Y40916D01*
X9692Y40913D01*
X9696Y40910D01*
X9697Y40909D01*
X9698Y40908D01*
X9702Y40906D01*
X9707Y40904D01*
X9708Y40904D01*
X9709Y40903D01*
X9721Y40901D01*
X9723Y40901D01*
X9724Y40901D01*
X9775Y40901D01*
X9775Y40899D01*
X9724Y40899D01*
X9719Y40899D01*
X9714Y40898D01*
X9713Y40898D01*
X9712Y40898D01*
X9707Y40896D01*
X9702Y40894D01*
X9701Y40894D01*
X9700Y40893D01*
X9696Y40890D01*
X9692Y40887D01*
X9691Y40886D01*
X9690Y40886D01*
X9687Y40882D01*
X9684Y40878D01*
X9683Y40877D01*
X9682Y40876D01*
X9680Y40872D01*
X9678Y40867D01*
X9678Y40866D01*
X9677Y40865D01*
X9675Y40853D01*
X9675Y40851D01*
X9675Y40850D01*
X9675Y40504D01*
X9505Y40504D01*
X9479Y40511D01*
X9456Y40524D01*
X9437Y40543D01*
X9432Y40553D01*
X9429Y40557D01*
X9426Y40561D01*
X9425Y40562D01*
X9424Y40563D01*
X9420Y40566D01*
X9416Y40569D01*
X9415Y40570D01*
X9410Y40572D01*
X9405Y40575D01*
X9404Y40575D01*
X9403Y40575D01*
X9398Y40576D01*
X9393Y40577D01*
X9392Y40577D01*
X9391Y40577D01*
X9386Y40577D01*
X9381Y40577D01*
X9380Y40576D01*
X9378Y40576D01*
X9374Y40574D01*
X9369Y40573D01*
X9368Y40572D01*
X9367Y40572D01*
X9357Y40565D01*
X9355Y40564D01*
X9354Y40563D01*
X9315Y40524D01*
X9196Y40524D01*
X9191Y40523D01*
X9186Y40523D01*
X9185Y40523D01*
X9184Y40522D01*
X9179Y40521D01*
X9174Y40519D01*
X9173Y40518D01*
X9172Y40518D01*
X9168Y40515D01*
X9164Y40512D01*
X9163Y40511D01*
X9162Y40510D01*
X9159Y40507D01*
X9156Y40503D01*
X9155Y40502D01*
X9154Y40501D01*
X9152Y40496D01*
X9150Y40492D01*
X9150Y40491D01*
X9149Y40490D01*
X9147Y40477D01*
X9147Y40476D01*
X9147Y40475D01*
X9147Y40278D01*
X9147Y40274D01*
X9147Y40270D01*
X9148Y40268D01*
X9148Y40266D01*
X9150Y40262D01*
X9151Y40258D01*
X9152Y40257D01*
X9153Y40255D01*
X9160Y40245D01*
X9161Y40244D01*
X9215Y40190D01*
X9250Y40106D01*
X9250Y40014D01*
X9215Y39930D01*
X9150Y39865D01*
X9146Y39860D01*
X9143Y39856D01*
X9142Y39856D01*
X9142Y39855D01*
X9140Y39850D01*
X9137Y39845D01*
X9137Y39844D01*
X9136Y39838D01*
X9135Y39833D01*
X9135Y39832D01*
X9135Y39831D01*
X9136Y39826D01*
X9136Y39820D01*
X9136Y39819D01*
X9138Y39814D01*
X9140Y39808D01*
X9141Y39808D01*
X9141Y39807D01*
X9144Y39803D01*
X9147Y39798D01*
X9148Y39797D01*
X9152Y39793D01*
X9156Y39790D01*
X9157Y39789D01*
X9162Y39786D01*
X9167Y39784D01*
X9168Y39784D01*
X9168Y39783D01*
X9181Y39781D01*
X9183Y39781D01*
X9184Y39781D01*
X10010Y39781D01*
X10386Y39405D01*
X10389Y39403D01*
X10392Y39400D01*
X10394Y39399D01*
X10395Y39398D01*
X10399Y39396D01*
X10403Y39394D01*
X10405Y39394D01*
X10407Y39393D01*
X10419Y39391D01*
X10420Y39391D01*
X10973Y39391D01*
X10978Y39391D01*
G37*
G36*
X9785Y38173D02*
X9785Y38173D01*
X9790Y38173D01*
X9792Y38174D01*
X9793Y38174D01*
X9797Y38175D01*
X9802Y38177D01*
X9803Y38178D01*
X9805Y38178D01*
X9815Y38186D01*
X9816Y38186D01*
X9816Y38187D01*
X9965Y38336D01*
X9967Y38339D01*
X9970Y38342D01*
X9971Y38344D01*
X9972Y38345D01*
X9974Y38349D01*
X9976Y38353D01*
X9976Y38355D01*
X9977Y38357D01*
X9979Y38369D01*
X9979Y38370D01*
X9979Y38750D01*
X10045Y38816D01*
X10047Y38819D01*
X10050Y38822D01*
X10051Y38824D01*
X10052Y38825D01*
X10054Y38829D01*
X10056Y38833D01*
X10056Y38835D01*
X10057Y38837D01*
X10059Y38849D01*
X10059Y38850D01*
X10059Y38900D01*
X10270Y39110D01*
X10273Y39114D01*
X10276Y39118D01*
X10276Y39119D01*
X10277Y39120D01*
X10279Y39124D01*
X10281Y39129D01*
X10282Y39130D01*
X10282Y39131D01*
X10283Y39136D01*
X10284Y39141D01*
X10284Y39142D01*
X10284Y39144D01*
X10284Y39148D01*
X10283Y39153D01*
X10283Y39155D01*
X10283Y39156D01*
X10281Y39160D01*
X10280Y39165D01*
X10279Y39166D01*
X10278Y39168D01*
X10271Y39178D01*
X10270Y39179D01*
X10270Y39180D01*
X10215Y39234D01*
X9924Y39525D01*
X9921Y39527D01*
X9918Y39530D01*
X9916Y39531D01*
X9915Y39532D01*
X9911Y39534D01*
X9907Y39536D01*
X9905Y39536D01*
X9903Y39537D01*
X9891Y39539D01*
X9890Y39539D01*
X8530Y39539D01*
X7614Y40455D01*
X7611Y40457D01*
X7608Y40460D01*
X7606Y40461D01*
X7605Y40462D01*
X7601Y40464D01*
X7597Y40466D01*
X7595Y40466D01*
X7593Y40467D01*
X7581Y40469D01*
X7580Y40469D01*
X7530Y40469D01*
X7525Y40469D01*
X7520Y40468D01*
X7519Y40468D01*
X7518Y40468D01*
X7513Y40466D01*
X7508Y40464D01*
X7507Y40464D01*
X7506Y40463D01*
X7502Y40460D01*
X7498Y40457D01*
X7497Y40456D01*
X7496Y40456D01*
X7493Y40452D01*
X7490Y40448D01*
X7489Y40447D01*
X7488Y40446D01*
X7486Y40442D01*
X7484Y40437D01*
X7484Y40436D01*
X7483Y40435D01*
X7481Y40423D01*
X7481Y40421D01*
X7481Y40420D01*
X7481Y40219D01*
X7174Y40219D01*
X7169Y40219D01*
X7164Y40218D01*
X7163Y40218D01*
X7162Y40218D01*
X7157Y40216D01*
X7152Y40214D01*
X7151Y40214D01*
X7150Y40213D01*
X7146Y40210D01*
X7142Y40207D01*
X7141Y40206D01*
X7140Y40206D01*
X7137Y40202D01*
X7134Y40198D01*
X7133Y40197D01*
X7132Y40196D01*
X7130Y40192D01*
X7128Y40187D01*
X7128Y40186D01*
X7127Y40185D01*
X7125Y40173D01*
X7125Y40171D01*
X7125Y40170D01*
X7125Y40119D01*
X7074Y40119D01*
X7069Y40119D01*
X7064Y40118D01*
X7063Y40118D01*
X7062Y40118D01*
X7057Y40116D01*
X7052Y40114D01*
X7051Y40114D01*
X7050Y40113D01*
X7046Y40110D01*
X7042Y40107D01*
X7041Y40106D01*
X7040Y40106D01*
X7037Y40102D01*
X7034Y40098D01*
X7033Y40097D01*
X7032Y40096D01*
X7030Y40092D01*
X7028Y40087D01*
X7028Y40086D01*
X7027Y40085D01*
X7025Y40073D01*
X7025Y40071D01*
X7025Y40070D01*
X7025Y39724D01*
X6855Y39724D01*
X6830Y39731D01*
X6828Y39731D01*
X6826Y39732D01*
X6822Y39732D01*
X6818Y39732D01*
X6816Y39732D01*
X6813Y39732D01*
X6809Y39731D01*
X6806Y39731D01*
X6803Y39730D01*
X6801Y39729D01*
X6798Y39728D01*
X6794Y39726D01*
X6792Y39725D01*
X6790Y39724D01*
X6787Y39721D01*
X6784Y39719D01*
X6782Y39717D01*
X6781Y39716D01*
X6778Y39712D01*
X6776Y39709D01*
X6775Y39707D01*
X6774Y39705D01*
X6772Y39702D01*
X6771Y39698D01*
X6770Y39696D01*
X6769Y39694D01*
X6769Y39690D01*
X6768Y39686D01*
X6768Y39684D01*
X6768Y39681D01*
X6769Y39679D01*
X6769Y39674D01*
X6771Y39667D01*
X6772Y39664D01*
X6780Y39646D01*
X6780Y39554D01*
X6745Y39470D01*
X6680Y39405D01*
X6596Y39370D01*
X6504Y39370D01*
X6438Y39398D01*
X6435Y39399D01*
X6432Y39400D01*
X6429Y39400D01*
X6426Y39401D01*
X6423Y39401D01*
X6419Y39401D01*
X6417Y39401D01*
X6414Y39401D01*
X6411Y39400D01*
X6407Y39400D01*
X6405Y39399D01*
X6402Y39398D01*
X6399Y39396D01*
X6395Y39395D01*
X6393Y39393D01*
X6391Y39392D01*
X6388Y39390D01*
X6386Y39388D01*
X6384Y39386D01*
X6382Y39384D01*
X6380Y39381D01*
X6378Y39378D01*
X6377Y39376D01*
X6375Y39373D01*
X6374Y39370D01*
X6373Y39367D01*
X6372Y39364D01*
X6371Y39362D01*
X6371Y39358D01*
X6370Y39354D01*
X6371Y39352D01*
X6370Y39349D01*
X6371Y39346D01*
X6371Y39342D01*
X6372Y39340D01*
X6373Y39337D01*
X6374Y39334D01*
X6375Y39330D01*
X6377Y39329D01*
X6378Y39326D01*
X6386Y39316D01*
X6634Y39084D01*
X6636Y39082D01*
X6639Y39080D01*
X6641Y39078D01*
X6644Y39077D01*
X6647Y39076D01*
X6650Y39074D01*
X6652Y39074D01*
X6655Y39072D01*
X6667Y39071D01*
X6726Y39071D01*
X6730Y39071D01*
X6734Y39071D01*
X6736Y39072D01*
X6738Y39072D01*
X6742Y39074D01*
X6746Y39075D01*
X6747Y39076D01*
X6749Y39077D01*
X6759Y39084D01*
X6760Y39085D01*
X6820Y39145D01*
X6904Y39180D01*
X6996Y39180D01*
X7080Y39145D01*
X7145Y39080D01*
X7180Y38996D01*
X7180Y38904D01*
X7145Y38820D01*
X7141Y38816D01*
X7137Y38811D01*
X7134Y38807D01*
X7133Y38806D01*
X7131Y38801D01*
X7128Y38796D01*
X7128Y38795D01*
X7127Y38789D01*
X7126Y38784D01*
X7126Y38783D01*
X7126Y38782D01*
X7127Y38777D01*
X7127Y38771D01*
X7127Y38770D01*
X7129Y38765D01*
X7131Y38759D01*
X7132Y38758D01*
X7135Y38754D01*
X7138Y38749D01*
X7139Y38748D01*
X7143Y38744D01*
X7147Y38741D01*
X7148Y38740D01*
X7153Y38737D01*
X7158Y38735D01*
X7159Y38735D01*
X7159Y38734D01*
X7171Y38732D01*
X7174Y38732D01*
X7175Y38732D01*
X8492Y38732D01*
X8497Y38732D01*
X8502Y38733D01*
X8503Y38733D01*
X8505Y38733D01*
X8509Y38735D01*
X8514Y38737D01*
X8515Y38737D01*
X8516Y38738D01*
X8520Y38741D01*
X8524Y38743D01*
X8525Y38744D01*
X8526Y38745D01*
X8529Y38749D01*
X8533Y38753D01*
X8533Y38754D01*
X8534Y38755D01*
X8536Y38759D01*
X8539Y38764D01*
X8539Y38765D01*
X8539Y38766D01*
X8542Y38778D01*
X8542Y38780D01*
X8542Y38781D01*
X8542Y39089D01*
X8589Y39136D01*
X9246Y39136D01*
X9294Y39089D01*
X9294Y38510D01*
X9244Y38460D01*
X9241Y38457D01*
X9238Y38453D01*
X9237Y38452D01*
X9236Y38451D01*
X9234Y38446D01*
X9232Y38442D01*
X9232Y38440D01*
X9231Y38439D01*
X9231Y38434D01*
X9230Y38429D01*
X9230Y38428D01*
X9229Y38427D01*
X9230Y38422D01*
X9230Y38417D01*
X9231Y38416D01*
X9231Y38415D01*
X9232Y38410D01*
X9234Y38405D01*
X9234Y38404D01*
X9235Y38403D01*
X9242Y38393D01*
X9243Y38392D01*
X9244Y38391D01*
X9294Y38341D01*
X9294Y38222D01*
X9294Y38217D01*
X9295Y38212D01*
X9295Y38211D01*
X9295Y38209D01*
X9297Y38205D01*
X9299Y38200D01*
X9299Y38199D01*
X9300Y38198D01*
X9303Y38194D01*
X9306Y38190D01*
X9306Y38189D01*
X9307Y38188D01*
X9311Y38185D01*
X9315Y38181D01*
X9316Y38181D01*
X9317Y38180D01*
X9321Y38178D01*
X9326Y38175D01*
X9327Y38175D01*
X9328Y38175D01*
X9340Y38172D01*
X9342Y38173D01*
X9343Y38172D01*
X9781Y38172D01*
X9785Y38173D01*
G37*
G36*
X5842Y42231D02*
X5842Y42231D01*
X5848Y42231D01*
X5849Y42231D01*
X5854Y42233D01*
X5859Y42235D01*
X5860Y42235D01*
X5861Y42235D01*
X5871Y42242D01*
X5873Y42244D01*
X5874Y42245D01*
X6106Y42477D01*
X6109Y42480D01*
X6111Y42483D01*
X6112Y42485D01*
X6114Y42487D01*
X6115Y42490D01*
X6117Y42494D01*
X6117Y42496D01*
X6118Y42498D01*
X6120Y42510D01*
X6120Y42511D01*
X6120Y42512D01*
X6120Y42596D01*
X6155Y42680D01*
X6220Y42745D01*
X6304Y42780D01*
X6396Y42780D01*
X6451Y42757D01*
X6453Y42756D01*
X6455Y42755D01*
X6459Y42754D01*
X6463Y42753D01*
X6465Y42753D01*
X6467Y42753D01*
X6471Y42753D01*
X6476Y42753D01*
X6478Y42754D01*
X6480Y42754D01*
X6484Y42755D01*
X6488Y42756D01*
X6490Y42757D01*
X6492Y42758D01*
X6495Y42760D01*
X6499Y42762D01*
X6500Y42764D01*
X6502Y42765D01*
X6505Y42768D01*
X6508Y42771D01*
X6509Y42772D01*
X6510Y42774D01*
X6512Y42778D01*
X6514Y42781D01*
X6515Y42783D01*
X6516Y42785D01*
X6517Y42787D01*
X6518Y42793D01*
X6519Y42800D01*
X6519Y42802D01*
X6519Y43880D01*
X6681Y44041D01*
X6684Y44046D01*
X6688Y44050D01*
X6688Y44051D01*
X6691Y44056D01*
X6693Y44061D01*
X6693Y44062D01*
X6693Y44063D01*
X6694Y44068D01*
X6695Y44074D01*
X6695Y44075D01*
X6695Y44081D01*
X6694Y44086D01*
X6694Y44087D01*
X6692Y44093D01*
X6690Y44098D01*
X6690Y44099D01*
X6686Y44104D01*
X6683Y44108D01*
X6683Y44109D01*
X6682Y44109D01*
X6678Y44113D01*
X6674Y44117D01*
X6673Y44117D01*
X6668Y44120D01*
X6663Y44122D01*
X6663Y44123D01*
X6662Y44123D01*
X6650Y44125D01*
X6647Y44125D01*
X6646Y44126D01*
X5971Y44126D01*
X5925Y44171D01*
X5922Y44174D01*
X5918Y44177D01*
X5917Y44178D01*
X5916Y44179D01*
X5911Y44181D01*
X5907Y44183D01*
X5905Y44183D01*
X5904Y44184D01*
X5899Y44184D01*
X5894Y44185D01*
X5893Y44185D01*
X5892Y44185D01*
X5887Y44185D01*
X5882Y44185D01*
X5881Y44184D01*
X5880Y44184D01*
X5875Y44182D01*
X5870Y44181D01*
X5869Y44180D01*
X5868Y44180D01*
X5863Y44177D01*
X5776Y44140D01*
X5684Y44140D01*
X5649Y44155D01*
X5647Y44156D01*
X5645Y44157D01*
X5641Y44157D01*
X5637Y44158D01*
X5635Y44158D01*
X5633Y44159D01*
X5628Y44158D01*
X5624Y44159D01*
X5622Y44158D01*
X5620Y44158D01*
X5616Y44157D01*
X5612Y44156D01*
X5610Y44155D01*
X5608Y44154D01*
X5605Y44152D01*
X5601Y44150D01*
X5600Y44148D01*
X5598Y44147D01*
X5595Y44144D01*
X5592Y44141D01*
X5591Y44139D01*
X5590Y44138D01*
X5588Y44134D01*
X5585Y44131D01*
X5585Y44129D01*
X5584Y44127D01*
X5583Y44124D01*
X5582Y44119D01*
X5581Y44112D01*
X5581Y44110D01*
X5581Y44041D01*
X5581Y44036D01*
X5582Y44031D01*
X5582Y44030D01*
X5582Y44029D01*
X5584Y44024D01*
X5586Y44019D01*
X5586Y44018D01*
X5587Y44017D01*
X5590Y44013D01*
X5592Y44009D01*
X5593Y44008D01*
X5594Y44007D01*
X5598Y44004D01*
X5602Y44001D01*
X5603Y44000D01*
X5604Y43999D01*
X5608Y43997D01*
X5613Y43995D01*
X5614Y43995D01*
X5615Y43994D01*
X5627Y43992D01*
X5629Y43992D01*
X5630Y43992D01*
X5743Y43992D01*
X5790Y43944D01*
X5790Y43789D01*
X5790Y43785D01*
X5790Y43781D01*
X5791Y43779D01*
X5791Y43777D01*
X5796Y43765D01*
X5796Y43764D01*
X5803Y43753D01*
X5810Y43727D01*
X5810Y43704D01*
X5473Y43704D01*
X5136Y43704D01*
X5136Y43727D01*
X5143Y43755D01*
X5144Y43760D01*
X5145Y43764D01*
X5145Y43766D01*
X5145Y43768D01*
X5144Y43772D01*
X5144Y43777D01*
X5144Y43778D01*
X5144Y43780D01*
X5142Y43784D01*
X5141Y43788D01*
X5140Y43790D01*
X5139Y43791D01*
X5139Y43965D01*
X5139Y43970D01*
X5138Y43975D01*
X5138Y43976D01*
X5138Y43977D01*
X5136Y43982D01*
X5134Y43986D01*
X5134Y43987D01*
X5133Y43989D01*
X5130Y43993D01*
X5127Y43997D01*
X5126Y43998D01*
X5126Y43999D01*
X5122Y44002D01*
X5118Y44005D01*
X5117Y44006D01*
X5116Y44006D01*
X5112Y44009D01*
X5107Y44011D01*
X5106Y44011D01*
X5105Y44012D01*
X5093Y44014D01*
X5091Y44014D01*
X5090Y44014D01*
X4955Y44014D01*
X4916Y44053D01*
X4912Y44056D01*
X4908Y44059D01*
X4907Y44060D01*
X4906Y44061D01*
X4901Y44063D01*
X4896Y44065D01*
X4895Y44065D01*
X4894Y44065D01*
X4889Y44066D01*
X4884Y44067D01*
X4883Y44067D01*
X4882Y44067D01*
X4877Y44067D01*
X4872Y44067D01*
X4871Y44066D01*
X4870Y44066D01*
X4865Y44064D01*
X4860Y44063D01*
X4859Y44062D01*
X4858Y44062D01*
X4854Y44059D01*
X4850Y44056D01*
X4849Y44055D01*
X4848Y44055D01*
X4840Y44045D01*
X4839Y44044D01*
X4838Y44043D01*
X4833Y44033D01*
X4814Y44014D01*
X4791Y44001D01*
X4765Y43994D01*
X4595Y43994D01*
X4595Y44340D01*
X4595Y44345D01*
X4594Y44350D01*
X4594Y44351D01*
X4594Y44352D01*
X4592Y44357D01*
X4590Y44362D01*
X4590Y44363D01*
X4589Y44364D01*
X4586Y44368D01*
X4583Y44372D01*
X4582Y44373D01*
X4582Y44374D01*
X4578Y44377D01*
X4574Y44380D01*
X4573Y44381D01*
X4572Y44382D01*
X4568Y44384D01*
X4563Y44386D01*
X4562Y44386D01*
X4561Y44387D01*
X4549Y44389D01*
X4547Y44389D01*
X4546Y44389D01*
X4495Y44389D01*
X4495Y44440D01*
X4495Y44445D01*
X4494Y44450D01*
X4494Y44451D01*
X4494Y44452D01*
X4492Y44457D01*
X4490Y44462D01*
X4490Y44463D01*
X4489Y44464D01*
X4486Y44468D01*
X4483Y44472D01*
X4482Y44473D01*
X4482Y44474D01*
X4478Y44477D01*
X4474Y44480D01*
X4473Y44481D01*
X4472Y44482D01*
X4468Y44484D01*
X4463Y44486D01*
X4462Y44486D01*
X4461Y44487D01*
X4449Y44489D01*
X4447Y44489D01*
X4446Y44489D01*
X4139Y44489D01*
X4139Y44617D01*
X4139Y44622D01*
X4138Y44628D01*
X4138Y44629D01*
X4136Y44634D01*
X4134Y44640D01*
X4133Y44640D01*
X4133Y44641D01*
X4130Y44645D01*
X4127Y44650D01*
X4126Y44650D01*
X4126Y44651D01*
X4121Y44654D01*
X4117Y44658D01*
X4116Y44659D01*
X4111Y44661D01*
X4106Y44663D01*
X4105Y44664D01*
X4099Y44665D01*
X4094Y44666D01*
X4093Y44666D01*
X4087Y44666D01*
X4082Y44665D01*
X4081Y44665D01*
X4080Y44665D01*
X4075Y44663D01*
X4070Y44662D01*
X4069Y44661D01*
X4068Y44661D01*
X4058Y44654D01*
X4056Y44653D01*
X4055Y44652D01*
X3931Y44528D01*
X3928Y44524D01*
X3925Y44520D01*
X3924Y44519D01*
X3924Y44518D01*
X3919Y44506D01*
X3918Y44505D01*
X3918Y44503D01*
X3641Y43239D01*
X3640Y43234D01*
X3640Y43230D01*
X3640Y43228D01*
X3640Y43227D01*
X3640Y43222D01*
X3641Y43217D01*
X3641Y43216D01*
X3642Y43214D01*
X3643Y43210D01*
X3645Y43206D01*
X3646Y43204D01*
X3647Y43203D01*
X3650Y43199D01*
X3652Y43196D01*
X3653Y43195D01*
X3654Y43193D01*
X3658Y43191D01*
X3662Y43187D01*
X3663Y43187D01*
X3664Y43186D01*
X3669Y43184D01*
X3673Y43182D01*
X3674Y43182D01*
X3676Y43181D01*
X3680Y43180D01*
X3685Y43179D01*
X3686Y43180D01*
X3688Y43179D01*
X3693Y43180D01*
X3697Y43180D01*
X3699Y43180D01*
X3700Y43181D01*
X3705Y43182D01*
X3709Y43184D01*
X3710Y43184D01*
X3712Y43185D01*
X3722Y43192D01*
X3723Y43193D01*
X3724Y43194D01*
X4016Y43486D01*
X4101Y43571D01*
X5087Y43571D01*
X5092Y43572D01*
X5096Y43572D01*
X5098Y43573D01*
X5099Y43573D01*
X5104Y43575D01*
X5108Y43576D01*
X5109Y43577D01*
X5110Y43577D01*
X5114Y43580D01*
X5119Y43583D01*
X5119Y43584D01*
X5121Y43585D01*
X5124Y43589D01*
X5127Y43592D01*
X5128Y43593D01*
X5128Y43594D01*
X5130Y43599D01*
X5133Y43603D01*
X5133Y43604D01*
X5134Y43606D01*
X5473Y43606D01*
X5810Y43606D01*
X5810Y43583D01*
X5803Y43557D01*
X5796Y43546D01*
X5795Y43542D01*
X5793Y43538D01*
X5793Y43537D01*
X5792Y43534D01*
X5790Y43522D01*
X5790Y43521D01*
X5790Y42279D01*
X5791Y42274D01*
X5791Y42268D01*
X5791Y42267D01*
X5793Y42262D01*
X5795Y42257D01*
X5796Y42256D01*
X5799Y42251D01*
X5802Y42247D01*
X5803Y42246D01*
X5808Y42242D01*
X5812Y42238D01*
X5813Y42238D01*
X5818Y42235D01*
X5823Y42233D01*
X5824Y42233D01*
X5824Y42232D01*
X5830Y42232D01*
X5835Y42230D01*
X5836Y42230D01*
X5842Y42231D01*
G37*
%LPC*%
G36*
X24931Y46285D02*
X24931Y46285D01*
X24930Y46285D01*
X24929Y46285D01*
X24350Y46285D01*
X24350Y46363D01*
X24357Y46388D01*
X24370Y46411D01*
X24389Y46430D01*
X24404Y46439D01*
X24408Y46442D01*
X24412Y46445D01*
X24413Y46446D01*
X24414Y46446D01*
X24417Y46450D01*
X24420Y46454D01*
X24421Y46455D01*
X24421Y46456D01*
X24423Y46461D01*
X24426Y46465D01*
X24426Y46466D01*
X24426Y46467D01*
X24427Y46472D01*
X24428Y46477D01*
X24428Y46479D01*
X24428Y46480D01*
X24428Y46485D01*
X24428Y46490D01*
X24427Y46491D01*
X24427Y46492D01*
X24425Y46497D01*
X24424Y46502D01*
X24423Y46502D01*
X24423Y46504D01*
X24416Y46514D01*
X24415Y46515D01*
X24414Y46516D01*
X24370Y46560D01*
X24370Y46883D01*
X24399Y46912D01*
X24401Y46915D01*
X24404Y46918D01*
X24405Y46920D01*
X24406Y46922D01*
X24408Y46926D01*
X24410Y46929D01*
X24410Y46931D01*
X24411Y46933D01*
X24413Y46945D01*
X24413Y46946D01*
X24413Y46947D01*
X24413Y47305D01*
X24413Y47310D01*
X24412Y47315D01*
X24412Y47316D01*
X24412Y47317D01*
X24410Y47322D01*
X24408Y47326D01*
X24408Y47327D01*
X24407Y47329D01*
X24404Y47333D01*
X24401Y47337D01*
X24401Y47338D01*
X24400Y47339D01*
X24396Y47342D01*
X24392Y47345D01*
X24391Y47346D01*
X24390Y47346D01*
X24386Y47349D01*
X24381Y47351D01*
X24380Y47351D01*
X24379Y47352D01*
X24367Y47354D01*
X24365Y47354D01*
X24364Y47354D01*
X24245Y47354D01*
X24206Y47393D01*
X24202Y47396D01*
X24198Y47399D01*
X24197Y47400D01*
X24196Y47401D01*
X24191Y47403D01*
X24186Y47405D01*
X24185Y47405D01*
X24184Y47405D01*
X24179Y47406D01*
X24174Y47407D01*
X24173Y47407D01*
X24172Y47407D01*
X24167Y47407D01*
X24162Y47407D01*
X24161Y47406D01*
X24160Y47406D01*
X24155Y47404D01*
X24150Y47403D01*
X24149Y47402D01*
X24148Y47402D01*
X24144Y47399D01*
X24140Y47396D01*
X24139Y47395D01*
X24138Y47395D01*
X24130Y47385D01*
X24129Y47384D01*
X24128Y47383D01*
X24123Y47373D01*
X24104Y47354D01*
X24081Y47341D01*
X24055Y47334D01*
X23885Y47334D01*
X23885Y47680D01*
X23885Y47685D01*
X23884Y47690D01*
X23884Y47691D01*
X23884Y47692D01*
X23882Y47697D01*
X23880Y47702D01*
X23880Y47703D01*
X23879Y47704D01*
X23876Y47708D01*
X23873Y47712D01*
X23872Y47713D01*
X23872Y47714D01*
X23868Y47717D01*
X23864Y47720D01*
X23863Y47721D01*
X23862Y47722D01*
X23858Y47724D01*
X23853Y47726D01*
X23852Y47726D01*
X23851Y47727D01*
X23839Y47729D01*
X23837Y47729D01*
X23836Y47729D01*
X23785Y47729D01*
X23785Y47731D01*
X23836Y47731D01*
X23841Y47731D01*
X23846Y47732D01*
X23847Y47732D01*
X23848Y47732D01*
X23853Y47734D01*
X23858Y47736D01*
X23859Y47736D01*
X23860Y47737D01*
X23864Y47740D01*
X23868Y47743D01*
X23869Y47744D01*
X23870Y47744D01*
X23873Y47748D01*
X23876Y47752D01*
X23877Y47753D01*
X23878Y47754D01*
X23880Y47758D01*
X23882Y47763D01*
X23882Y47764D01*
X23883Y47765D01*
X23885Y47777D01*
X23885Y47779D01*
X23885Y47780D01*
X23885Y48126D01*
X24055Y48126D01*
X24081Y48119D01*
X24104Y48106D01*
X24123Y48087D01*
X24128Y48077D01*
X24131Y48073D01*
X24134Y48069D01*
X24135Y48068D01*
X24136Y48067D01*
X24140Y48064D01*
X24144Y48061D01*
X24145Y48060D01*
X24150Y48058D01*
X24155Y48055D01*
X24156Y48055D01*
X24157Y48055D01*
X24162Y48054D01*
X24167Y48053D01*
X24168Y48053D01*
X24169Y48053D01*
X24174Y48053D01*
X24179Y48053D01*
X24180Y48054D01*
X24182Y48054D01*
X24186Y48056D01*
X24191Y48057D01*
X24192Y48058D01*
X24193Y48058D01*
X24203Y48065D01*
X24205Y48066D01*
X24206Y48067D01*
X24245Y48106D01*
X24823Y48106D01*
X24871Y48059D01*
X24871Y47934D01*
X24871Y47929D01*
X24872Y47923D01*
X24872Y47922D01*
X24874Y47917D01*
X24876Y47912D01*
X24877Y47911D01*
X24877Y47910D01*
X24880Y47906D01*
X24883Y47901D01*
X24884Y47901D01*
X24884Y47900D01*
X24889Y47897D01*
X24893Y47893D01*
X24894Y47893D01*
X24899Y47890D01*
X24904Y47888D01*
X24905Y47888D01*
X24905Y47887D01*
X24911Y47886D01*
X24916Y47885D01*
X24917Y47885D01*
X24923Y47886D01*
X24928Y47886D01*
X24929Y47886D01*
X24930Y47886D01*
X24935Y47888D01*
X24940Y47890D01*
X24941Y47890D01*
X24942Y47890D01*
X24952Y47897D01*
X24954Y47899D01*
X24955Y47900D01*
X24980Y47925D01*
X25064Y47960D01*
X25156Y47960D01*
X25240Y47925D01*
X25305Y47860D01*
X25340Y47776D01*
X25340Y47684D01*
X25305Y47600D01*
X25240Y47535D01*
X25156Y47500D01*
X25064Y47500D01*
X24980Y47535D01*
X24955Y47560D01*
X24950Y47564D01*
X24946Y47567D01*
X24945Y47568D01*
X24940Y47570D01*
X24935Y47573D01*
X24934Y47573D01*
X24933Y47573D01*
X24928Y47574D01*
X24923Y47575D01*
X24922Y47575D01*
X24921Y47575D01*
X24916Y47574D01*
X24910Y47574D01*
X24909Y47574D01*
X24904Y47572D01*
X24898Y47570D01*
X24897Y47569D01*
X24893Y47566D01*
X24888Y47563D01*
X24887Y47562D01*
X24883Y47558D01*
X24880Y47554D01*
X24879Y47553D01*
X24876Y47548D01*
X24874Y47543D01*
X24874Y47542D01*
X24873Y47542D01*
X24871Y47530D01*
X24871Y47527D01*
X24871Y47526D01*
X24871Y47401D01*
X24823Y47354D01*
X24704Y47354D01*
X24699Y47353D01*
X24694Y47353D01*
X24693Y47353D01*
X24692Y47352D01*
X24687Y47351D01*
X24682Y47349D01*
X24681Y47348D01*
X24680Y47348D01*
X24676Y47345D01*
X24672Y47342D01*
X24671Y47341D01*
X24670Y47340D01*
X24667Y47337D01*
X24664Y47333D01*
X24663Y47332D01*
X24662Y47331D01*
X24660Y47326D01*
X24658Y47322D01*
X24658Y47321D01*
X24657Y47320D01*
X24655Y47307D01*
X24655Y47306D01*
X24655Y47305D01*
X24655Y46979D01*
X24655Y46975D01*
X24656Y46970D01*
X24656Y46968D01*
X24656Y46967D01*
X24658Y46963D01*
X24660Y46958D01*
X24660Y46957D01*
X24661Y46956D01*
X24664Y46952D01*
X24667Y46947D01*
X24668Y46947D01*
X24668Y46946D01*
X24672Y46942D01*
X24676Y46939D01*
X24677Y46939D01*
X24678Y46938D01*
X24682Y46936D01*
X24687Y46933D01*
X24688Y46933D01*
X24689Y46932D01*
X24701Y46930D01*
X24703Y46930D01*
X24704Y46930D01*
X25468Y46930D01*
X25516Y46883D01*
X25516Y46560D01*
X25472Y46516D01*
X25469Y46512D01*
X25465Y46508D01*
X25465Y46507D01*
X25464Y46506D01*
X25462Y46502D01*
X25460Y46497D01*
X25460Y46496D01*
X25459Y46495D01*
X25458Y46490D01*
X25457Y46485D01*
X25457Y46484D01*
X25457Y46483D01*
X25458Y46477D01*
X25458Y46472D01*
X25458Y46471D01*
X25459Y46470D01*
X25460Y46465D01*
X25462Y46460D01*
X25463Y46459D01*
X25466Y46454D01*
X25468Y46450D01*
X25469Y46449D01*
X25470Y46448D01*
X25479Y46440D01*
X25481Y46439D01*
X25482Y46439D01*
X25497Y46430D01*
X25516Y46411D01*
X25529Y46388D01*
X25536Y46363D01*
X25536Y46285D01*
X24957Y46285D01*
X24952Y46284D01*
X24947Y46284D01*
X24946Y46283D01*
X24944Y46283D01*
X24943Y46283D01*
X24931Y46285D01*
G37*
%LPD*%
G36*
X7753Y20191D02*
X7753Y20191D01*
X7757Y20191D01*
X7759Y20192D01*
X7761Y20192D01*
X7765Y20194D01*
X7769Y20195D01*
X7770Y20196D01*
X7773Y20197D01*
X7783Y20204D01*
X7783Y20205D01*
X7784Y20205D01*
X7784Y20206D01*
X7788Y20210D01*
X7791Y20214D01*
X7791Y20215D01*
X7792Y20216D01*
X7794Y20221D01*
X7796Y20226D01*
X7797Y20226D01*
X7797Y20227D01*
X7798Y20232D01*
X7799Y20238D01*
X7799Y20239D01*
X7798Y20245D01*
X7798Y20250D01*
X7797Y20251D01*
X7797Y20252D01*
X7795Y20257D01*
X7794Y20262D01*
X7793Y20263D01*
X7790Y20268D01*
X7787Y20273D01*
X7786Y20273D01*
X7782Y20277D01*
X7778Y20281D01*
X7777Y20281D01*
X7777Y20282D01*
X7772Y20284D01*
X7767Y20287D01*
X7766Y20287D01*
X7755Y20289D01*
X7705Y20340D01*
X7701Y20343D01*
X7697Y20346D01*
X7696Y20346D01*
X7695Y20347D01*
X7690Y20349D01*
X7686Y20351D01*
X7685Y20352D01*
X7683Y20352D01*
X7679Y20353D01*
X7674Y20354D01*
X7672Y20354D01*
X7671Y20354D01*
X7666Y20354D01*
X7661Y20353D01*
X7660Y20353D01*
X7659Y20353D01*
X7654Y20351D01*
X7649Y20350D01*
X7649Y20349D01*
X7647Y20349D01*
X7637Y20341D01*
X7636Y20340D01*
X7635Y20340D01*
X7585Y20290D01*
X7006Y20290D01*
X6959Y20337D01*
X6959Y20995D01*
X7008Y21044D01*
X7011Y21047D01*
X7014Y21050D01*
X7015Y21052D01*
X7016Y21053D01*
X7017Y21057D01*
X7019Y21061D01*
X7020Y21063D01*
X7021Y21065D01*
X7023Y21077D01*
X7022Y21078D01*
X7023Y21078D01*
X7023Y21294D01*
X7022Y21298D01*
X7022Y21303D01*
X7021Y21305D01*
X7021Y21306D01*
X7019Y21310D01*
X7018Y21315D01*
X7017Y21316D01*
X7016Y21317D01*
X7013Y21321D01*
X7011Y21326D01*
X7010Y21326D01*
X7009Y21327D01*
X7005Y21331D01*
X7002Y21334D01*
X7000Y21334D01*
X6999Y21335D01*
X6995Y21337D01*
X6991Y21340D01*
X6990Y21340D01*
X6988Y21341D01*
X6976Y21343D01*
X6974Y21343D01*
X6973Y21343D01*
X6935Y21343D01*
X6878Y21399D01*
X6878Y21665D01*
X6884Y21670D01*
X6887Y21674D01*
X6890Y21677D01*
X6890Y21679D01*
X6891Y21680D01*
X6893Y21684D01*
X6895Y21689D01*
X6896Y21690D01*
X6896Y21691D01*
X6897Y21696D01*
X6898Y21701D01*
X6898Y21702D01*
X6898Y21703D01*
X6898Y21708D01*
X6897Y21713D01*
X6897Y21714D01*
X6897Y21716D01*
X6895Y21720D01*
X6894Y21725D01*
X6893Y21726D01*
X6893Y21727D01*
X6885Y21738D01*
X6884Y21739D01*
X6884Y21740D01*
X6882Y21742D01*
X6866Y21768D01*
X6858Y21797D01*
X6858Y21852D01*
X7199Y21852D01*
X7204Y21853D01*
X7209Y21853D01*
X7210Y21854D01*
X7211Y21854D01*
X7216Y21856D01*
X7221Y21857D01*
X7222Y21858D01*
X7223Y21859D01*
X7227Y21862D01*
X7231Y21864D01*
X7232Y21865D01*
X7233Y21866D01*
X7236Y21870D01*
X7240Y21873D01*
X7240Y21875D01*
X7241Y21876D01*
X7243Y21880D01*
X7245Y21884D01*
X7245Y21885D01*
X7246Y21887D01*
X7248Y21899D01*
X7248Y21901D01*
X7248Y21902D01*
X7248Y21910D01*
X7248Y21915D01*
X7247Y21920D01*
X7247Y21921D01*
X7247Y21922D01*
X7245Y21927D01*
X7243Y21932D01*
X7243Y21933D01*
X7242Y21934D01*
X7239Y21938D01*
X7237Y21942D01*
X7236Y21943D01*
X7235Y21944D01*
X7231Y21947D01*
X7227Y21950D01*
X7226Y21951D01*
X7225Y21952D01*
X7221Y21954D01*
X7216Y21956D01*
X7215Y21956D01*
X7214Y21957D01*
X7202Y21959D01*
X7200Y21959D01*
X7199Y21959D01*
X6858Y21959D01*
X6858Y22014D01*
X6867Y22047D01*
X6868Y22052D01*
X6869Y22057D01*
X6869Y22058D01*
X6869Y22059D01*
X6868Y22065D01*
X6868Y22070D01*
X6868Y22071D01*
X6867Y22072D01*
X6866Y22077D01*
X6864Y22081D01*
X6863Y22082D01*
X6863Y22083D01*
X6860Y22088D01*
X6857Y22092D01*
X6856Y22093D01*
X6852Y22097D01*
X6848Y22100D01*
X6847Y22101D01*
X6846Y22101D01*
X6842Y22104D01*
X6837Y22106D01*
X6836Y22106D01*
X6835Y22107D01*
X6823Y22109D01*
X6821Y22109D01*
X6820Y22109D01*
X6797Y22109D01*
X6793Y22109D01*
X6789Y22108D01*
X6787Y22108D01*
X6785Y22108D01*
X6781Y22106D01*
X6777Y22105D01*
X6776Y22104D01*
X6773Y22103D01*
X6763Y22096D01*
X6763Y22095D01*
X6762Y22095D01*
X6761Y22093D01*
X6749Y22093D01*
X6744Y22092D01*
X6738Y22092D01*
X6738Y22091D01*
X6737Y22091D01*
X6732Y22089D01*
X6727Y22087D01*
X6726Y22087D01*
X6725Y22087D01*
X6721Y22083D01*
X6716Y22080D01*
X6715Y22079D01*
X6712Y22075D01*
X6708Y22071D01*
X6708Y22070D01*
X6705Y22065D01*
X6703Y22060D01*
X6703Y22059D01*
X6702Y22059D01*
X6701Y22053D01*
X6700Y22048D01*
X6700Y22047D01*
X6700Y22046D01*
X6701Y22041D01*
X6701Y22035D01*
X6701Y22034D01*
X6703Y22029D01*
X6704Y22023D01*
X6705Y22023D01*
X6705Y22022D01*
X6712Y22012D01*
X6714Y22010D01*
X6714Y22009D01*
X6720Y22003D01*
X6734Y21980D01*
X6741Y21954D01*
X6741Y21745D01*
X6434Y21745D01*
X6429Y21744D01*
X6424Y21744D01*
X6423Y21744D01*
X6422Y21744D01*
X6417Y21742D01*
X6412Y21740D01*
X6411Y21739D01*
X6410Y21739D01*
X6406Y21736D01*
X6402Y21733D01*
X6401Y21732D01*
X6400Y21732D01*
X6397Y21728D01*
X6394Y21724D01*
X6393Y21723D01*
X6392Y21722D01*
X6390Y21717D01*
X6388Y21713D01*
X6388Y21712D01*
X6387Y21711D01*
X6385Y21698D01*
X6385Y21697D01*
X6385Y21696D01*
X6385Y21645D01*
X6334Y21645D01*
X6329Y21644D01*
X6324Y21644D01*
X6323Y21644D01*
X6322Y21644D01*
X6317Y21642D01*
X6312Y21640D01*
X6311Y21639D01*
X6310Y21639D01*
X6306Y21636D01*
X6302Y21633D01*
X6301Y21632D01*
X6300Y21632D01*
X6297Y21628D01*
X6294Y21624D01*
X6293Y21623D01*
X6292Y21622D01*
X6290Y21617D01*
X6288Y21613D01*
X6288Y21612D01*
X6287Y21611D01*
X6285Y21598D01*
X6285Y21597D01*
X6285Y21596D01*
X6285Y21250D01*
X6190Y21250D01*
X6185Y21249D01*
X6180Y21249D01*
X6179Y21248D01*
X6178Y21248D01*
X6173Y21246D01*
X6168Y21245D01*
X6167Y21244D01*
X6166Y21244D01*
X6162Y21241D01*
X6158Y21238D01*
X6157Y21237D01*
X6156Y21236D01*
X6153Y21232D01*
X6150Y21229D01*
X6149Y21228D01*
X6148Y21227D01*
X6146Y21222D01*
X6144Y21218D01*
X6144Y21217D01*
X6143Y21215D01*
X6141Y21203D01*
X6141Y21202D01*
X6141Y21201D01*
X6141Y20530D01*
X5970Y20359D01*
X5401Y20359D01*
X5396Y20359D01*
X5390Y20358D01*
X5389Y20358D01*
X5384Y20356D01*
X5378Y20354D01*
X5378Y20353D01*
X5377Y20353D01*
X5373Y20350D01*
X5368Y20347D01*
X5368Y20346D01*
X5367Y20346D01*
X5364Y20341D01*
X5360Y20337D01*
X5359Y20336D01*
X5357Y20331D01*
X5355Y20326D01*
X5354Y20325D01*
X5353Y20319D01*
X5352Y20314D01*
X5352Y20313D01*
X5352Y20307D01*
X5353Y20301D01*
X5353Y20300D01*
X5355Y20295D01*
X5356Y20290D01*
X5357Y20289D01*
X5357Y20288D01*
X5364Y20278D01*
X5365Y20276D01*
X5366Y20275D01*
X5436Y20205D01*
X5440Y20203D01*
X5443Y20200D01*
X5445Y20199D01*
X5446Y20198D01*
X5450Y20196D01*
X5454Y20194D01*
X5455Y20194D01*
X5458Y20193D01*
X5470Y20191D01*
X5471Y20191D01*
X7749Y20191D01*
X7753Y20191D01*
G37*
G36*
X15942Y24221D02*
X15942Y24221D01*
X15947Y24222D01*
X15948Y24222D01*
X15950Y24222D01*
X15954Y24224D01*
X15959Y24225D01*
X15960Y24226D01*
X15961Y24227D01*
X15965Y24230D01*
X15969Y24232D01*
X15970Y24233D01*
X15971Y24234D01*
X15974Y24238D01*
X15978Y24241D01*
X15978Y24243D01*
X15979Y24244D01*
X15981Y24248D01*
X15983Y24252D01*
X15984Y24253D01*
X15985Y24255D01*
X15987Y24267D01*
X15987Y24269D01*
X16002Y25409D01*
X16002Y25415D01*
X16001Y25420D01*
X16001Y25421D01*
X16001Y25422D01*
X15999Y25427D01*
X15997Y25432D01*
X15996Y25433D01*
X15993Y25438D01*
X15990Y25442D01*
X15990Y25443D01*
X15989Y25443D01*
X15985Y25447D01*
X15981Y25450D01*
X15980Y25451D01*
X15975Y25454D01*
X15970Y25456D01*
X15969Y25456D01*
X15968Y25457D01*
X15956Y25459D01*
X15954Y25459D01*
X15953Y25459D01*
X14870Y25459D01*
X14865Y25459D01*
X14860Y25458D01*
X14859Y25458D01*
X14858Y25458D01*
X14853Y25456D01*
X14848Y25454D01*
X14847Y25454D01*
X14846Y25453D01*
X14842Y25450D01*
X14838Y25447D01*
X14837Y25446D01*
X14836Y25446D01*
X14833Y25442D01*
X14830Y25438D01*
X14829Y25437D01*
X14828Y25436D01*
X14826Y25432D01*
X14824Y25427D01*
X14824Y25426D01*
X14823Y25425D01*
X14821Y25413D01*
X14821Y25411D01*
X14821Y25410D01*
X14821Y24520D01*
X14821Y24516D01*
X14821Y24512D01*
X14822Y24510D01*
X14822Y24508D01*
X14824Y24504D01*
X14825Y24500D01*
X14826Y24499D01*
X14826Y24498D01*
X14827Y24497D01*
X14831Y24492D01*
X14833Y24488D01*
X14834Y24488D01*
X14834Y24487D01*
X14835Y24486D01*
X15086Y24235D01*
X15089Y24233D01*
X15092Y24230D01*
X15094Y24229D01*
X15095Y24228D01*
X15099Y24226D01*
X15103Y24224D01*
X15105Y24224D01*
X15107Y24223D01*
X15119Y24221D01*
X15120Y24221D01*
X15938Y24221D01*
X15942Y24221D01*
G37*
%LPC*%
G36*
X8504Y25450D02*
X8504Y25450D01*
X8420Y25485D01*
X8355Y25550D01*
X8320Y25634D01*
X8320Y25726D01*
X8355Y25810D01*
X8356Y25811D01*
X8360Y25815D01*
X8363Y25820D01*
X8364Y25821D01*
X8366Y25826D01*
X8368Y25831D01*
X8368Y25832D01*
X8369Y25832D01*
X8370Y25838D01*
X8371Y25843D01*
X8371Y25844D01*
X8371Y25845D01*
X8370Y25850D01*
X8370Y25856D01*
X8369Y25856D01*
X8369Y25857D01*
X8367Y25862D01*
X8366Y25867D01*
X8365Y25868D01*
X8365Y25869D01*
X8362Y25873D01*
X8359Y25878D01*
X8358Y25878D01*
X8358Y25879D01*
X8354Y25882D01*
X8350Y25886D01*
X8349Y25886D01*
X8349Y25887D01*
X8344Y25889D01*
X8339Y25892D01*
X8338Y25892D01*
X8337Y25892D01*
X8325Y25895D01*
X8323Y25895D01*
X8321Y25895D01*
X8256Y25895D01*
X8217Y25934D01*
X8214Y25937D01*
X8211Y25940D01*
X8210Y25940D01*
X8209Y25941D01*
X8208Y25941D01*
X8207Y25942D01*
X8203Y25943D01*
X8200Y25945D01*
X8199Y25945D01*
X8198Y25946D01*
X8197Y25946D01*
X8196Y25947D01*
X8191Y25947D01*
X8186Y25948D01*
X8185Y25948D01*
X8184Y25948D01*
X8183Y25948D01*
X8182Y25948D01*
X8178Y25948D01*
X8173Y25948D01*
X8172Y25947D01*
X8171Y25947D01*
X8170Y25947D01*
X8166Y25945D01*
X8161Y25944D01*
X8161Y25943D01*
X8160Y25943D01*
X8159Y25942D01*
X8158Y25942D01*
X8155Y25940D01*
X8151Y25937D01*
X8150Y25937D01*
X8149Y25936D01*
X8149Y25935D01*
X8148Y25935D01*
X8145Y25931D01*
X8141Y25926D01*
X8140Y25925D01*
X8140Y25924D01*
X8134Y25914D01*
X8115Y25895D01*
X8092Y25882D01*
X8067Y25875D01*
X7897Y25875D01*
X7897Y26221D01*
X7896Y26226D01*
X7896Y26231D01*
X7895Y26232D01*
X7895Y26233D01*
X7893Y26238D01*
X7892Y26243D01*
X7891Y26244D01*
X7890Y26245D01*
X7888Y26249D01*
X7885Y26253D01*
X7884Y26254D01*
X7883Y26255D01*
X7879Y26258D01*
X7876Y26261D01*
X7875Y26262D01*
X7873Y26263D01*
X7869Y26265D01*
X7865Y26267D01*
X7864Y26267D01*
X7862Y26268D01*
X7850Y26270D01*
X7848Y26270D01*
X7847Y26270D01*
X7797Y26270D01*
X7797Y26272D01*
X7847Y26272D01*
X7852Y26272D01*
X7857Y26273D01*
X7858Y26273D01*
X7860Y26273D01*
X7864Y26275D01*
X7869Y26277D01*
X7870Y26278D01*
X7871Y26278D01*
X7875Y26281D01*
X7879Y26284D01*
X7880Y26285D01*
X7881Y26285D01*
X7884Y26289D01*
X7888Y26293D01*
X7888Y26294D01*
X7889Y26295D01*
X7891Y26299D01*
X7894Y26304D01*
X7894Y26305D01*
X7894Y26306D01*
X7897Y26319D01*
X7896Y26320D01*
X7897Y26321D01*
X7897Y26667D01*
X8067Y26667D01*
X8092Y26660D01*
X8115Y26647D01*
X8134Y26628D01*
X8140Y26618D01*
X8143Y26614D01*
X8146Y26610D01*
X8147Y26609D01*
X8147Y26608D01*
X8151Y26605D01*
X8155Y26602D01*
X8156Y26601D01*
X8157Y26601D01*
X8162Y26599D01*
X8166Y26596D01*
X8167Y26596D01*
X8168Y26596D01*
X8173Y26595D01*
X8178Y26594D01*
X8179Y26594D01*
X8181Y26594D01*
X8186Y26594D01*
X8191Y26594D01*
X8192Y26595D01*
X8193Y26595D01*
X8198Y26597D01*
X8203Y26598D01*
X8203Y26599D01*
X8205Y26599D01*
X8215Y26606D01*
X8216Y26607D01*
X8217Y26608D01*
X8256Y26647D01*
X8835Y26647D01*
X8882Y26600D01*
X8882Y26405D01*
X8883Y26400D01*
X8883Y26395D01*
X8883Y26394D01*
X8884Y26393D01*
X8885Y26388D01*
X8887Y26384D01*
X8888Y26382D01*
X8888Y26381D01*
X8891Y26377D01*
X8894Y26373D01*
X8895Y26372D01*
X8896Y26371D01*
X8899Y26368D01*
X8903Y26365D01*
X8904Y26364D01*
X8905Y26363D01*
X8910Y26361D01*
X8914Y26359D01*
X8915Y26359D01*
X8917Y26358D01*
X8929Y26356D01*
X8930Y26356D01*
X8931Y26356D01*
X9044Y26356D01*
X9048Y26356D01*
X9052Y26357D01*
X9054Y26357D01*
X9056Y26357D01*
X9060Y26359D01*
X9064Y26360D01*
X9065Y26361D01*
X9068Y26362D01*
X9078Y26369D01*
X9078Y26370D01*
X9079Y26370D01*
X9080Y26372D01*
X9083Y26376D01*
X9086Y26379D01*
X9087Y26381D01*
X9088Y26382D01*
X9090Y26386D01*
X9092Y26390D01*
X9092Y26392D01*
X9093Y26393D01*
X9094Y26398D01*
X9095Y26402D01*
X9094Y26404D01*
X9095Y26405D01*
X9094Y26410D01*
X9094Y26415D01*
X9094Y26416D01*
X9093Y26418D01*
X9089Y26430D01*
X9088Y26431D01*
X9074Y26456D01*
X9067Y26482D01*
X9067Y26551D01*
X9423Y26551D01*
X9427Y26551D01*
X9430Y26551D01*
X9432Y26551D01*
X9433Y26551D01*
X9788Y26551D01*
X9788Y26482D01*
X9782Y26456D01*
X9767Y26431D01*
X9765Y26427D01*
X9763Y26423D01*
X9763Y26421D01*
X9762Y26420D01*
X9762Y26415D01*
X9761Y26411D01*
X9761Y26409D01*
X9761Y26408D01*
X9761Y26403D01*
X9761Y26398D01*
X9762Y26397D01*
X9762Y26395D01*
X9764Y26391D01*
X9765Y26386D01*
X9766Y26385D01*
X9766Y26384D01*
X9768Y26381D01*
X9768Y26092D01*
X9721Y26044D01*
X9134Y26044D01*
X9079Y26100D01*
X9075Y26103D01*
X9072Y26105D01*
X9070Y26106D01*
X9069Y26108D01*
X9065Y26109D01*
X9061Y26111D01*
X9060Y26112D01*
X9057Y26112D01*
X9045Y26114D01*
X9044Y26114D01*
X8931Y26114D01*
X8926Y26114D01*
X8922Y26113D01*
X8920Y26113D01*
X8919Y26113D01*
X8914Y26111D01*
X8910Y26109D01*
X8909Y26109D01*
X8907Y26108D01*
X8903Y26105D01*
X8899Y26103D01*
X8898Y26102D01*
X8897Y26101D01*
X8894Y26097D01*
X8891Y26093D01*
X8890Y26092D01*
X8890Y26091D01*
X8888Y26087D01*
X8885Y26082D01*
X8885Y26081D01*
X8884Y26080D01*
X8882Y26068D01*
X8882Y26066D01*
X8882Y26065D01*
X8882Y25942D01*
X8835Y25895D01*
X8779Y25895D01*
X8773Y25894D01*
X8768Y25894D01*
X8767Y25894D01*
X8766Y25894D01*
X8761Y25891D01*
X8756Y25890D01*
X8755Y25889D01*
X8750Y25886D01*
X8746Y25882D01*
X8745Y25882D01*
X8741Y25877D01*
X8738Y25873D01*
X8737Y25872D01*
X8734Y25867D01*
X8732Y25862D01*
X8732Y25861D01*
X8731Y25855D01*
X8729Y25850D01*
X8730Y25849D01*
X8729Y25848D01*
X8730Y25843D01*
X8730Y25837D01*
X8730Y25836D01*
X8732Y25831D01*
X8734Y25825D01*
X8734Y25824D01*
X8741Y25814D01*
X8743Y25812D01*
X8744Y25811D01*
X8745Y25810D01*
X8780Y25726D01*
X8780Y25634D01*
X8745Y25550D01*
X8680Y25485D01*
X8596Y25450D01*
X8504Y25450D01*
G37*
%LPD*%
%LPC*%
G36*
X9425Y26659D02*
X9425Y26659D01*
X9424Y26659D01*
X9423Y26659D01*
X9067Y26659D01*
X9067Y26728D01*
X9074Y26754D01*
X9088Y26779D01*
X9090Y26783D01*
X9092Y26787D01*
X9092Y26789D01*
X9093Y26790D01*
X9094Y26795D01*
X9095Y26800D01*
X9094Y26801D01*
X9095Y26803D01*
X9094Y26807D01*
X9094Y26812D01*
X9093Y26813D01*
X9093Y26815D01*
X9092Y26819D01*
X9090Y26824D01*
X9090Y26825D01*
X9089Y26827D01*
X9082Y26837D01*
X9081Y26838D01*
X9080Y26838D01*
X9079Y26840D01*
X9075Y26843D01*
X9072Y26845D01*
X9070Y26846D01*
X9069Y26848D01*
X9065Y26849D01*
X9061Y26851D01*
X9060Y26852D01*
X9057Y26852D01*
X9045Y26854D01*
X9044Y26854D01*
X7965Y26854D01*
X6502Y28317D01*
X6501Y28318D01*
X6499Y28320D01*
X6492Y28325D01*
X6488Y28327D01*
X6486Y28328D01*
X6420Y28355D01*
X6355Y28420D01*
X6320Y28504D01*
X6320Y28596D01*
X6355Y28680D01*
X6420Y28745D01*
X6504Y28780D01*
X6596Y28780D01*
X6680Y28745D01*
X6745Y28680D01*
X6780Y28596D01*
X6780Y28504D01*
X6756Y28448D01*
X6756Y28446D01*
X6755Y28445D01*
X6754Y28440D01*
X6753Y28436D01*
X6753Y28434D01*
X6753Y28433D01*
X6753Y28428D01*
X6753Y28423D01*
X6753Y28422D01*
X6753Y28420D01*
X6755Y28416D01*
X6756Y28411D01*
X6756Y28410D01*
X6757Y28408D01*
X6758Y28406D01*
X6762Y28400D01*
X6765Y28396D01*
X6767Y28394D01*
X8050Y27110D01*
X8054Y27108D01*
X8057Y27105D01*
X8059Y27104D01*
X8060Y27103D01*
X8064Y27101D01*
X8068Y27099D01*
X8070Y27099D01*
X8072Y27098D01*
X8084Y27096D01*
X8085Y27096D01*
X9044Y27096D01*
X9048Y27096D01*
X9052Y27097D01*
X9054Y27097D01*
X9056Y27097D01*
X9060Y27099D01*
X9064Y27100D01*
X9065Y27101D01*
X9068Y27102D01*
X9078Y27109D01*
X9078Y27110D01*
X9079Y27110D01*
X9134Y27166D01*
X9721Y27166D01*
X9768Y27119D01*
X9768Y26830D01*
X9767Y26828D01*
X9766Y26824D01*
X9763Y26820D01*
X9763Y26818D01*
X9762Y26817D01*
X9762Y26812D01*
X9761Y26808D01*
X9761Y26806D01*
X9761Y26805D01*
X9761Y26800D01*
X9761Y26795D01*
X9762Y26794D01*
X9762Y26792D01*
X9766Y26781D01*
X9767Y26780D01*
X9767Y26779D01*
X9782Y26754D01*
X9788Y26728D01*
X9788Y26659D01*
X9433Y26659D01*
X9428Y26659D01*
X9425Y26659D01*
G37*
%LPD*%
G36*
X5924Y20431D02*
X5924Y20431D01*
X5929Y20431D01*
X5930Y20432D01*
X5932Y20432D01*
X5936Y20434D01*
X5940Y20435D01*
X5942Y20436D01*
X5944Y20437D01*
X5954Y20444D01*
X5954Y20445D01*
X5955Y20445D01*
X6055Y20545D01*
X6057Y20549D01*
X6060Y20552D01*
X6061Y20553D01*
X6062Y20555D01*
X6064Y20559D01*
X6066Y20563D01*
X6066Y20564D01*
X6067Y20566D01*
X6069Y20579D01*
X6069Y20580D01*
X6069Y21220D01*
X6069Y21224D01*
X6069Y21229D01*
X6068Y21230D01*
X6068Y21232D01*
X6066Y21236D01*
X6065Y21240D01*
X6064Y21242D01*
X6063Y21244D01*
X6056Y21254D01*
X6055Y21254D01*
X6055Y21255D01*
X5915Y21395D01*
X5911Y21397D01*
X5908Y21400D01*
X5907Y21401D01*
X5905Y21402D01*
X5901Y21404D01*
X5897Y21406D01*
X5896Y21406D01*
X5894Y21407D01*
X5881Y21409D01*
X5880Y21409D01*
X5380Y21409D01*
X5376Y21409D01*
X5371Y21409D01*
X5370Y21408D01*
X5368Y21408D01*
X5364Y21406D01*
X5360Y21405D01*
X5358Y21404D01*
X5356Y21403D01*
X5346Y21396D01*
X5346Y21395D01*
X5345Y21395D01*
X5215Y21265D01*
X5213Y21261D01*
X5210Y21258D01*
X5209Y21257D01*
X5208Y21255D01*
X5206Y21251D01*
X5204Y21247D01*
X5204Y21246D01*
X5203Y21244D01*
X5201Y21231D01*
X5201Y21230D01*
X5201Y20600D01*
X5201Y20596D01*
X5201Y20591D01*
X5202Y20590D01*
X5202Y20588D01*
X5204Y20584D01*
X5205Y20580D01*
X5206Y20578D01*
X5207Y20576D01*
X5214Y20566D01*
X5215Y20566D01*
X5215Y20565D01*
X5335Y20445D01*
X5339Y20443D01*
X5342Y20440D01*
X5343Y20439D01*
X5345Y20438D01*
X5349Y20436D01*
X5353Y20434D01*
X5354Y20434D01*
X5356Y20433D01*
X5369Y20431D01*
X5370Y20431D01*
X5920Y20431D01*
X5924Y20431D01*
G37*
%LPC*%
G36*
X14619Y22809D02*
X14619Y22809D01*
X14619Y23311D01*
X15533Y23311D01*
X15559Y23304D01*
X15582Y23291D01*
X15601Y23272D01*
X15614Y23249D01*
X15621Y23223D01*
X15621Y22809D01*
X14619Y22809D01*
G37*
%LPD*%
%LPC*%
G36*
X13419Y22809D02*
X13419Y22809D01*
X13419Y23223D01*
X13426Y23249D01*
X13439Y23272D01*
X13458Y23291D01*
X13481Y23304D01*
X13507Y23311D01*
X14421Y23311D01*
X14421Y22809D01*
X13419Y22809D01*
G37*
%LPD*%
%LPC*%
G36*
X14619Y22109D02*
X14619Y22109D01*
X14619Y22611D01*
X15621Y22611D01*
X15621Y22197D01*
X15614Y22171D01*
X15601Y22148D01*
X15582Y22129D01*
X15559Y22116D01*
X15533Y22109D01*
X14619Y22109D01*
G37*
%LPD*%
%LPC*%
G36*
X13507Y22109D02*
X13507Y22109D01*
X13481Y22116D01*
X13458Y22129D01*
X13439Y22148D01*
X13426Y22171D01*
X13419Y22197D01*
X13419Y22611D01*
X14421Y22611D01*
X14421Y22109D01*
X13507Y22109D01*
G37*
%LPD*%
%LPC*%
G36*
X25006Y45785D02*
X25006Y45785D01*
X25006Y46158D01*
X25536Y46158D01*
X25536Y46080D01*
X25529Y46055D01*
X25516Y46032D01*
X25495Y46011D01*
X25490Y46008D01*
X25490Y46007D01*
X25489Y46007D01*
X25486Y46002D01*
X25482Y45998D01*
X25481Y45997D01*
X25479Y45992D01*
X25477Y45987D01*
X25477Y45986D01*
X25476Y45985D01*
X25475Y45980D01*
X25474Y45975D01*
X25474Y45974D01*
X25474Y45973D01*
X25475Y45968D01*
X25475Y45963D01*
X25475Y45962D01*
X25475Y45961D01*
X25477Y45956D01*
X25479Y45951D01*
X25479Y45950D01*
X25480Y45949D01*
X25483Y45945D01*
X25485Y45940D01*
X25486Y45940D01*
X25487Y45939D01*
X25496Y45931D01*
X25496Y45930D01*
X25516Y45911D01*
X25529Y45888D01*
X25536Y45863D01*
X25536Y45785D01*
X25006Y45785D01*
G37*
%LPD*%
%LPC*%
G36*
X24350Y45785D02*
X24350Y45785D01*
X24350Y45863D01*
X24357Y45888D01*
X24370Y45911D01*
X24390Y45932D01*
X24391Y45932D01*
X24395Y45935D01*
X24396Y45936D01*
X24397Y45936D01*
X24400Y45941D01*
X24403Y45945D01*
X24404Y45945D01*
X24404Y45946D01*
X24406Y45951D01*
X24409Y45956D01*
X24409Y45957D01*
X24409Y45958D01*
X24410Y45963D01*
X24411Y45968D01*
X24411Y45969D01*
X24411Y45970D01*
X24411Y45975D01*
X24410Y45980D01*
X24410Y45981D01*
X24410Y45982D01*
X24408Y45987D01*
X24407Y45992D01*
X24406Y45993D01*
X24406Y45994D01*
X24403Y45998D01*
X24400Y46003D01*
X24399Y46003D01*
X24399Y46004D01*
X24390Y46012D01*
X24389Y46013D01*
X24370Y46032D01*
X24357Y46055D01*
X24350Y46080D01*
X24350Y46158D01*
X24880Y46158D01*
X24880Y45785D01*
X24350Y45785D01*
G37*
%LPD*%
%LPC*%
G36*
X3908Y27024D02*
X3908Y27024D01*
X4024Y27190D01*
X4465Y26881D01*
X4482Y26861D01*
X4493Y26837D01*
X4498Y26811D01*
X4496Y26785D01*
X4486Y26760D01*
X4421Y26666D01*
X3908Y27024D01*
G37*
%LPD*%
%LPC*%
G36*
X4144Y26378D02*
X4144Y26378D01*
X4119Y26387D01*
X3678Y26696D01*
X3794Y26862D01*
X4307Y26503D01*
X4241Y26409D01*
X4221Y26392D01*
X4197Y26381D01*
X4170Y26376D01*
X4144Y26378D01*
G37*
%LPD*%
G36*
X6834Y40510D02*
X6834Y40510D01*
X6835Y40511D01*
X6837Y40511D01*
X6855Y40516D01*
X6934Y40516D01*
X6940Y40517D01*
X6945Y40517D01*
X6946Y40518D01*
X6947Y40518D01*
X6952Y40520D01*
X6957Y40522D01*
X6958Y40522D01*
X6963Y40525D01*
X6967Y40529D01*
X6968Y40529D01*
X6968Y40530D01*
X6972Y40534D01*
X6975Y40538D01*
X6976Y40539D01*
X6978Y40544D01*
X6981Y40549D01*
X6981Y40550D01*
X6982Y40556D01*
X6983Y40561D01*
X6983Y40562D01*
X6983Y40563D01*
X6983Y40568D01*
X6983Y40574D01*
X6983Y40575D01*
X6981Y40580D01*
X6979Y40586D01*
X6979Y40587D01*
X6972Y40597D01*
X6970Y40599D01*
X6969Y40600D01*
X6927Y40642D01*
X6927Y40710D01*
X6926Y40715D01*
X6926Y40720D01*
X6925Y40721D01*
X6925Y40722D01*
X6923Y40727D01*
X6922Y40731D01*
X6921Y40733D01*
X6921Y40734D01*
X6918Y40738D01*
X6915Y40742D01*
X6914Y40743D01*
X6913Y40744D01*
X6910Y40747D01*
X6906Y40750D01*
X6905Y40751D01*
X6904Y40752D01*
X6900Y40753D01*
X6900Y41096D01*
X6899Y41101D01*
X6899Y41106D01*
X6899Y41107D01*
X6898Y41108D01*
X6897Y41113D01*
X6895Y41118D01*
X6894Y41119D01*
X6894Y41120D01*
X6891Y41124D01*
X6888Y41128D01*
X6887Y41129D01*
X6887Y41130D01*
X6883Y41133D01*
X6879Y41136D01*
X6878Y41137D01*
X6877Y41138D01*
X6872Y41140D01*
X6868Y41142D01*
X6867Y41142D01*
X6866Y41143D01*
X6853Y41145D01*
X6852Y41145D01*
X6851Y41145D01*
X6846Y41145D01*
X6841Y41144D01*
X6840Y41144D01*
X6838Y41144D01*
X6834Y41142D01*
X6829Y41140D01*
X6828Y41140D01*
X6827Y41139D01*
X6823Y41136D01*
X6819Y41134D01*
X6818Y41133D01*
X6817Y41132D01*
X6814Y41128D01*
X6810Y41124D01*
X6810Y41123D01*
X6809Y41122D01*
X6807Y41118D01*
X6805Y41113D01*
X6804Y41112D01*
X6804Y41111D01*
X6802Y41099D01*
X6802Y41097D01*
X6802Y41096D01*
X6802Y40754D01*
X6801Y40753D01*
X6800Y40753D01*
X6796Y40750D01*
X6792Y40747D01*
X6791Y40746D01*
X6790Y40746D01*
X6787Y40742D01*
X6784Y40738D01*
X6783Y40737D01*
X6782Y40736D01*
X6780Y40731D01*
X6778Y40727D01*
X6778Y40726D01*
X6777Y40725D01*
X6775Y40712D01*
X6775Y40711D01*
X6775Y40710D01*
X6775Y40559D01*
X6775Y40554D01*
X6776Y40548D01*
X6776Y40547D01*
X6776Y40546D01*
X6778Y40542D01*
X6780Y40537D01*
X6780Y40536D01*
X6781Y40535D01*
X6784Y40531D01*
X6787Y40526D01*
X6788Y40526D01*
X6788Y40525D01*
X6792Y40522D01*
X6796Y40518D01*
X6797Y40518D01*
X6798Y40517D01*
X6803Y40515D01*
X6807Y40512D01*
X6808Y40512D01*
X6809Y40512D01*
X6814Y40511D01*
X6819Y40510D01*
X6820Y40510D01*
X6821Y40510D01*
X6834Y40510D01*
G37*
%LPC*%
G36*
X10952Y27049D02*
X10952Y27049D01*
X10952Y27219D01*
X10959Y27245D01*
X10972Y27268D01*
X10991Y27287D01*
X11014Y27300D01*
X11039Y27307D01*
X11249Y27307D01*
X11249Y27049D01*
X10952Y27049D01*
G37*
%LPD*%
%LPC*%
G36*
X9873Y40999D02*
X9873Y40999D01*
X9873Y41296D01*
X10043Y41296D01*
X10069Y41289D01*
X10092Y41276D01*
X10111Y41257D01*
X10124Y41234D01*
X10131Y41209D01*
X10131Y40999D01*
X9873Y40999D01*
G37*
%LPD*%
%LPC*%
G36*
X9820Y23158D02*
X9820Y23158D01*
X9820Y23455D01*
X9990Y23455D01*
X10015Y23448D01*
X10038Y23435D01*
X10057Y23416D01*
X10070Y23393D01*
X10077Y23367D01*
X10077Y23158D01*
X9820Y23158D01*
G37*
%LPD*%
%LPC*%
G36*
X11447Y27049D02*
X11447Y27049D01*
X11447Y27307D01*
X11657Y27307D01*
X11682Y27300D01*
X11705Y27287D01*
X11724Y27268D01*
X11737Y27245D01*
X11744Y27219D01*
X11744Y27049D01*
X11447Y27049D01*
G37*
%LPD*%
%LPC*%
G36*
X9843Y22205D02*
X9843Y22205D01*
X9843Y22502D01*
X10013Y22502D01*
X10039Y22495D01*
X10062Y22482D01*
X10080Y22463D01*
X10094Y22440D01*
X10101Y22414D01*
X10101Y22205D01*
X9843Y22205D01*
G37*
%LPD*%
%LPC*%
G36*
X7807Y28654D02*
X7807Y28654D01*
X7781Y28661D01*
X7758Y28674D01*
X7739Y28693D01*
X7726Y28716D01*
X7719Y28741D01*
X7719Y28951D01*
X7977Y28951D01*
X7977Y28654D01*
X7807Y28654D01*
G37*
%LPD*%
%LPC*%
G36*
X7528Y25875D02*
X7528Y25875D01*
X7503Y25882D01*
X7480Y25895D01*
X7461Y25914D01*
X7448Y25937D01*
X7441Y25963D01*
X7441Y26172D01*
X7698Y26172D01*
X7698Y25875D01*
X7528Y25875D01*
G37*
%LPD*%
%LPC*%
G36*
X3597Y24402D02*
X3597Y24402D01*
X3571Y24409D01*
X3548Y24422D01*
X3530Y24441D01*
X3516Y24464D01*
X3509Y24489D01*
X3509Y24699D01*
X3767Y24699D01*
X3767Y24402D01*
X3597Y24402D01*
G37*
%LPD*%
%LPC*%
G36*
X9820Y22663D02*
X9820Y22663D01*
X9820Y22959D01*
X10077Y22959D01*
X10077Y22750D01*
X10070Y22724D01*
X10057Y22702D01*
X10038Y22683D01*
X10015Y22670D01*
X9990Y22663D01*
X9820Y22663D01*
G37*
%LPD*%
%LPC*%
G36*
X7223Y39724D02*
X7223Y39724D01*
X7223Y40021D01*
X7481Y40021D01*
X7481Y39811D01*
X7474Y39786D01*
X7461Y39763D01*
X7442Y39744D01*
X7419Y39731D01*
X7393Y39724D01*
X7223Y39724D01*
G37*
%LPD*%
%LPC*%
G36*
X9843Y21710D02*
X9843Y21710D01*
X9843Y22007D01*
X10101Y22007D01*
X10101Y21797D01*
X10094Y21772D01*
X10080Y21749D01*
X10062Y21730D01*
X10039Y21717D01*
X10013Y21710D01*
X9843Y21710D01*
G37*
%LPD*%
%LPC*%
G36*
X6483Y21250D02*
X6483Y21250D01*
X6483Y21547D01*
X6741Y21547D01*
X6741Y21337D01*
X6734Y21312D01*
X6720Y21289D01*
X6702Y21270D01*
X6679Y21257D01*
X6653Y21250D01*
X6483Y21250D01*
G37*
%LPD*%
%LPC*%
G36*
X9873Y40504D02*
X9873Y40504D01*
X9873Y40801D01*
X10131Y40801D01*
X10131Y40591D01*
X10124Y40566D01*
X10111Y40543D01*
X10092Y40524D01*
X10069Y40511D01*
X10043Y40504D01*
X9873Y40504D01*
G37*
%LPD*%
%LPC*%
G36*
X23429Y47829D02*
X23429Y47829D01*
X23429Y48039D01*
X23436Y48064D01*
X23449Y48087D01*
X23468Y48106D01*
X23491Y48119D01*
X23517Y48126D01*
X23687Y48126D01*
X23687Y47829D01*
X23429Y47829D01*
G37*
%LPD*%
%LPC*%
G36*
X3509Y24897D02*
X3509Y24897D01*
X3509Y25107D01*
X3516Y25132D01*
X3530Y25155D01*
X3548Y25174D01*
X3571Y25187D01*
X3597Y25194D01*
X3767Y25194D01*
X3767Y24897D01*
X3509Y24897D01*
G37*
%LPD*%
%LPC*%
G36*
X7441Y26370D02*
X7441Y26370D01*
X7441Y26580D01*
X7448Y26605D01*
X7461Y26628D01*
X7480Y26647D01*
X7503Y26660D01*
X7528Y26667D01*
X7698Y26667D01*
X7698Y26370D01*
X7441Y26370D01*
G37*
%LPD*%
%LPC*%
G36*
X23517Y47334D02*
X23517Y47334D01*
X23491Y47341D01*
X23468Y47354D01*
X23449Y47373D01*
X23436Y47396D01*
X23429Y47421D01*
X23429Y47631D01*
X23687Y47631D01*
X23687Y47334D01*
X23517Y47334D01*
G37*
%LPD*%
%LPC*%
G36*
X4227Y43994D02*
X4227Y43994D01*
X4201Y44001D01*
X4178Y44014D01*
X4159Y44033D01*
X4146Y44056D01*
X4139Y44081D01*
X4139Y44291D01*
X4397Y44291D01*
X4397Y43994D01*
X4227Y43994D01*
G37*
%LPD*%
%LPC*%
G36*
X10620Y23670D02*
X10620Y23670D01*
X10594Y23677D01*
X10571Y23690D01*
X10553Y23709D01*
X10539Y23732D01*
X10532Y23758D01*
X10532Y23928D01*
X10829Y23928D01*
X10829Y23670D01*
X10620Y23670D01*
G37*
%LPD*%
%LPC*%
G36*
X2519Y29107D02*
X2519Y29107D01*
X2519Y29306D01*
X2610Y29306D01*
X2636Y29299D01*
X2659Y29286D01*
X2678Y29267D01*
X2691Y29244D01*
X2698Y29218D01*
X2698Y29107D01*
X2519Y29107D01*
G37*
%LPD*%
%LPC*%
G36*
X2519Y28754D02*
X2519Y28754D01*
X2519Y28953D01*
X2698Y28953D01*
X2698Y28842D01*
X2691Y28816D01*
X2678Y28793D01*
X2659Y28775D01*
X2636Y28761D01*
X2610Y28754D01*
X2519Y28754D01*
G37*
%LPD*%
%LPC*%
G36*
X2186Y29107D02*
X2186Y29107D01*
X2186Y29219D01*
X2193Y29244D01*
X2206Y29267D01*
X2225Y29286D01*
X2248Y29299D01*
X2274Y29306D01*
X2365Y29306D01*
X2365Y29107D01*
X2186Y29107D01*
G37*
%LPD*%
%LPC*%
G36*
X2274Y28754D02*
X2274Y28754D01*
X2248Y28761D01*
X2225Y28775D01*
X2206Y28793D01*
X2193Y28816D01*
X2186Y28842D01*
X2186Y28953D01*
X2365Y28953D01*
X2365Y28754D01*
X2274Y28754D01*
G37*
%LPD*%
%LPC*%
G36*
X14519Y22709D02*
X14519Y22709D01*
X14519Y22711D01*
X14521Y22711D01*
X14521Y22709D01*
X14519Y22709D01*
G37*
%LPD*%
D10*
X8229Y41096D03*
X8032Y41096D03*
X7835Y41096D03*
X7638Y41096D03*
X7441Y41096D03*
X7244Y41096D03*
X7048Y41096D03*
X6851Y41096D03*
X6654Y41096D03*
X6457Y41096D03*
X6260Y41096D03*
X6063Y41096D03*
D11*
X5473Y41687D03*
X5473Y41883D03*
X5473Y42080D03*
X5473Y42277D03*
X5473Y42474D03*
X5473Y42671D03*
X5473Y42868D03*
X5473Y43065D03*
X5473Y43261D03*
X5473Y43458D03*
X5473Y43655D03*
X5473Y43852D03*
D10*
X6063Y44443D03*
X6260Y44443D03*
X6457Y44443D03*
X6654Y44443D03*
X6851Y44443D03*
X7048Y44443D03*
X7244Y44443D03*
X7441Y44443D03*
X7638Y44443D03*
X7835Y44443D03*
X8032Y44443D03*
X8229Y44443D03*
D11*
X8819Y43852D03*
X8819Y43655D03*
X8819Y43458D03*
X8819Y43261D03*
X8819Y43065D03*
X8819Y42868D03*
X8819Y42671D03*
X8819Y42474D03*
X8819Y42277D03*
X8819Y42080D03*
X8819Y41883D03*
X8819Y41687D03*
D12*
X6560Y22666D03*
X5595Y22666D03*
D13*
X8064Y23046D03*
X7316Y23046D03*
X9720Y23059D03*
X8972Y23059D03*
X8996Y22106D03*
X9744Y22106D03*
X5636Y21646D03*
X6384Y21646D03*
X7326Y23886D03*
X8074Y23886D03*
X8044Y20666D03*
X7296Y20666D03*
D14*
X5625Y34800D03*
X5625Y34052D03*
X2978Y33250D03*
X2978Y32502D03*
X3812Y34180D03*
X3812Y33432D03*
X23766Y34700D03*
X23766Y33952D03*
X22889Y35700D03*
X22889Y34952D03*
X21135Y37700D03*
X21135Y36952D03*
X8094Y37800D03*
X8094Y37052D03*
X7271Y36850D03*
X7271Y36102D03*
X6448Y35800D03*
X6448Y35052D03*
X2145Y32200D03*
X2145Y31452D03*
X1312Y31180D03*
X1312Y30432D03*
X27846Y31150D03*
X27846Y30402D03*
X26143Y34200D03*
X26143Y33452D03*
X22012Y36700D03*
X22012Y35952D03*
X20259Y38650D03*
X20259Y37902D03*
X8918Y38800D03*
X8918Y38052D03*
D15*
X4600Y38441D03*
D16*
X4600Y37441D03*
X4600Y36441D03*
X4600Y35441D03*
X4600Y34441D03*
X4600Y33441D03*
X4600Y32441D03*
X4600Y31441D03*
X4600Y30441D03*
X10600Y30441D03*
X10600Y31441D03*
X10600Y32441D03*
X10600Y33441D03*
X10600Y34441D03*
X10600Y35441D03*
X10600Y36441D03*
X10600Y37441D03*
X10600Y38441D03*
D15*
X19226Y38425D03*
D16*
X19226Y37425D03*
X19226Y36425D03*
X19226Y35425D03*
X19226Y34425D03*
X19226Y33425D03*
X19226Y32425D03*
X19226Y31425D03*
X19226Y30425D03*
X25226Y30425D03*
X25226Y31425D03*
X25226Y32425D03*
X25226Y33425D03*
X25226Y34425D03*
X25226Y35425D03*
X25226Y36425D03*
X25226Y37425D03*
X25226Y38425D03*
D17*
X8251Y29893D03*
X7881Y29893D03*
X7511Y29893D03*
X7511Y30973D03*
X8251Y30973D03*
D18*
X22326Y30329D03*
X22326Y30699D03*
X22326Y31069D03*
X23406Y31069D03*
X23406Y30329D03*
D19*
X24943Y46721D03*
X23368Y46721D03*
X24943Y46221D03*
X23368Y46221D03*
X24943Y45721D03*
X23368Y45721D03*
X24943Y45221D03*
X23368Y45221D03*
X24943Y44721D03*
X23368Y44721D03*
D14*
X26969Y33200D03*
X26969Y32452D03*
D13*
X8824Y29050D03*
X8076Y29050D03*
D14*
X21500Y30276D03*
X21500Y31024D03*
D13*
X24534Y47730D03*
X23786Y47730D03*
D20*
X7432Y21439D02*
X6974Y21439D01*
X6974Y21625D01*
X7432Y21625D01*
X7432Y21439D01*
X7432Y21468D02*
X6974Y21468D01*
X6974Y21497D02*
X7432Y21497D01*
X7432Y21526D02*
X6974Y21526D01*
X6974Y21555D02*
X7432Y21555D01*
X7432Y21584D02*
X6974Y21584D01*
X6974Y21613D02*
X7432Y21613D01*
X7432Y21813D02*
X6974Y21813D01*
X6974Y21999D01*
X7432Y21999D01*
X7432Y21813D01*
X7432Y21842D02*
X6974Y21842D01*
X6974Y21871D02*
X7432Y21871D01*
X7432Y21900D02*
X6974Y21900D01*
X6974Y21929D02*
X7432Y21929D01*
X7432Y21958D02*
X6974Y21958D01*
X6974Y21987D02*
X7432Y21987D01*
X7432Y22187D02*
X6974Y22187D01*
X6974Y22373D01*
X7432Y22373D01*
X7432Y22187D01*
X7432Y22216D02*
X6974Y22216D01*
X6974Y22245D02*
X7432Y22245D01*
X7432Y22274D02*
X6974Y22274D01*
X6974Y22303D02*
X7432Y22303D01*
X7432Y22332D02*
X6974Y22332D01*
X6974Y22361D02*
X7432Y22361D01*
X7907Y22187D02*
X8365Y22187D01*
X7907Y22187D02*
X7907Y22373D01*
X8365Y22373D01*
X8365Y22187D01*
X8365Y22216D02*
X7907Y22216D01*
X7907Y22245D02*
X8365Y22245D01*
X8365Y22274D02*
X7907Y22274D01*
X7907Y22303D02*
X8365Y22303D01*
X8365Y22332D02*
X7907Y22332D01*
X7907Y22361D02*
X8365Y22361D01*
X8365Y21439D02*
X7907Y21439D01*
X7907Y21625D01*
X8365Y21625D01*
X8365Y21439D01*
X8365Y21468D02*
X7907Y21468D01*
X7907Y21497D02*
X8365Y21497D01*
X8365Y21526D02*
X7907Y21526D01*
X7907Y21555D02*
X8365Y21555D01*
X8365Y21584D02*
X7907Y21584D01*
X7907Y21613D02*
X8365Y21613D01*
D14*
X11348Y26202D03*
X11348Y26950D03*
D18*
X9428Y26235D03*
X9428Y26605D03*
X9428Y26975D03*
X10508Y26975D03*
X10508Y26235D03*
D13*
X8545Y26271D03*
X7797Y26271D03*
D14*
X13448Y24780D03*
X13448Y24031D03*
X11791Y24780D03*
X11791Y24031D03*
X12621Y24031D03*
X12621Y24780D03*
X10929Y24027D03*
X10929Y24775D03*
D21*
X1682Y29030D03*
X2442Y29030D03*
X2062Y28230D03*
D14*
X2500Y27474D03*
X2500Y26726D03*
D13*
X4614Y24798D03*
X3866Y24798D03*
X9224Y44660D03*
X9972Y44660D03*
D14*
X6780Y46364D03*
X6780Y47112D03*
D13*
X6376Y40120D03*
X7124Y40120D03*
D14*
X12240Y40516D03*
X12240Y39768D03*
X11390Y39784D03*
X11390Y40532D03*
D22*
X15692Y26193D03*
X15692Y28483D03*
X14692Y26193D03*
X14692Y28483D03*
X13692Y26193D03*
X13692Y28483D03*
X12692Y26193D03*
X12692Y28483D03*
D13*
X9026Y40900D03*
X9774Y40900D03*
X5244Y44390D03*
X4496Y44390D03*
D23*
X14520Y20710D03*
X14520Y22710D03*
D24*
G36*
X4396Y26807D02*
X4165Y26478D01*
X3144Y27193D01*
X3375Y27522D01*
X4396Y26807D01*
G37*
G36*
X4970Y27626D02*
X4739Y27297D01*
X3718Y28012D01*
X3949Y28341D01*
X4970Y27626D01*
G37*
G36*
X5543Y28445D02*
X5312Y28116D01*
X4291Y28831D01*
X4522Y29160D01*
X5543Y28445D01*
G37*
D25*
X13310Y22710D02*
X14520Y22710D01*
X13310Y22710D02*
X13300Y22700D01*
X13250Y22700D01*
D26*
X13250Y22700D03*
D27*
X12621Y23579D02*
X12621Y24031D01*
X12621Y23579D02*
X12650Y23550D01*
D26*
X12650Y23550D03*
D27*
X10929Y23621D02*
X10929Y24027D01*
X10929Y23621D02*
X10950Y23600D01*
D26*
X10950Y23600D03*
D27*
X9744Y22106D02*
X9750Y22100D01*
X10200Y22100D01*
D26*
X10200Y22100D03*
D27*
X9729Y23050D02*
X9720Y23059D01*
X9729Y23050D02*
X10200Y23050D01*
D26*
X10200Y23050D03*
D27*
X7203Y21906D02*
X6644Y21906D01*
X6384Y21646D01*
X6384Y21216D01*
X6400Y21200D01*
D26*
X6400Y21200D03*
D27*
X11348Y26950D02*
X11350Y26952D01*
X11350Y27400D01*
D26*
X11350Y27400D03*
D27*
X9428Y26605D02*
X8946Y26605D01*
X8855Y26696D01*
X7797Y26271D02*
X7371Y26271D01*
X7350Y26250D01*
D26*
X7350Y26250D03*
D27*
X3866Y24798D02*
X3866Y24334D01*
X3900Y24300D01*
D26*
X3900Y24300D03*
D27*
X2880Y29030D02*
X2442Y29030D01*
X2880Y29030D02*
X2900Y29050D01*
D26*
X2900Y29050D03*
D27*
X4496Y44346D02*
X4496Y44390D01*
X4496Y44346D02*
X4100Y43950D01*
D26*
X4100Y43950D03*
D27*
X4795Y43655D02*
X5473Y43655D01*
X4795Y43655D02*
X4700Y43750D01*
D26*
X4700Y43750D03*
D27*
X7124Y40120D02*
X7544Y39700D01*
X7550Y39700D01*
D26*
X7550Y39700D03*
D27*
X8819Y41883D02*
X9167Y41883D01*
X9600Y41074D02*
X9774Y40900D01*
X9600Y41450D02*
X9167Y41883D01*
X9600Y41450D02*
X9600Y41074D01*
X9774Y40900D02*
X10250Y40900D01*
D26*
X10250Y40900D03*
D27*
X10884Y39784D02*
X11390Y39784D01*
X10884Y39784D02*
X10850Y39750D01*
X10850Y39800D01*
D26*
X10850Y39800D03*
D27*
X23270Y47730D02*
X23786Y47730D01*
X23270Y47730D02*
X23250Y47750D01*
X23300Y47750D01*
D26*
X23300Y47750D03*
D27*
X24943Y46221D02*
X25679Y46221D01*
X25700Y46200D01*
D26*
X25700Y46200D03*
D27*
X25671Y45721D02*
X24943Y45721D01*
X25671Y45721D02*
X25700Y45750D01*
D26*
X25700Y45750D03*
D27*
X7881Y29893D02*
X7881Y29244D01*
X8076Y29050D01*
X8026Y29100D01*
X7500Y29100D01*
D26*
X7353Y28113D03*
D25*
X21951Y30699D02*
X22326Y30699D01*
X21626Y31024D02*
X21500Y31024D01*
X21626Y31024D02*
X21951Y30699D01*
X15692Y28483D02*
X15200Y27991D01*
D26*
X15200Y25050D03*
D25*
X15200Y27991D01*
D28*
X20696Y31024D02*
X21500Y31024D01*
X20696Y31024D02*
X20690Y31030D01*
X20680Y31030D01*
D26*
X20680Y31030D03*
X8270Y27710D03*
X14520Y23510D03*
X6160Y43650D03*
D27*
X6851Y41096D02*
X6851Y40393D01*
X7124Y40120D01*
D26*
X9650Y38500D03*
X15150Y39850D03*
X8300Y43200D03*
X13400Y8800D03*
D29*
X8822Y22280D02*
X8136Y22280D01*
X8822Y22280D02*
X8996Y22106D01*
D25*
X8996Y21618D02*
X8044Y20666D01*
D28*
X9904Y20710D02*
X14520Y20710D01*
X9904Y20710D02*
X8996Y21618D01*
X8996Y22106D01*
D25*
X8044Y20666D02*
X8044Y20224D01*
X4614Y20786D02*
X4614Y24798D01*
X8044Y20224D02*
X7840Y20020D01*
X5380Y20020D01*
X4614Y20786D01*
D27*
X2574Y26726D02*
X2500Y26726D01*
D25*
X4614Y26214D02*
X4614Y24798D01*
X4614Y26214D02*
X4900Y26500D01*
X4900Y27240D01*
X4344Y27796D02*
X4344Y27819D01*
X4344Y27796D02*
X4900Y27240D01*
D27*
X2960Y27186D02*
X2500Y26726D01*
X4120Y28020D02*
X4344Y27796D01*
X2960Y27420D02*
X2960Y27186D01*
X2960Y27420D02*
X3560Y28020D01*
X4120Y28020D01*
D25*
X6620Y22280D02*
X7203Y22280D01*
X6560Y22340D02*
X6560Y22666D01*
X6560Y22340D02*
X6620Y22280D01*
D28*
X5595Y22666D02*
X5595Y22945D01*
X6120Y23470D02*
X7430Y23470D01*
X6120Y23470D02*
X5595Y22945D01*
X5595Y22666D02*
X5595Y21686D01*
X5636Y21646D01*
D27*
X9026Y40900D02*
X8830Y41096D01*
X8229Y41096D01*
X8819Y41687D02*
X8830Y41676D01*
X8830Y41096D01*
D26*
X5450Y21070D03*
X5830Y21070D03*
X5830Y20690D03*
X5450Y20690D03*
D27*
X24534Y47730D02*
X25110Y47730D01*
X24943Y46721D02*
X24591Y46721D01*
X24580Y46710D01*
X24534Y46756D01*
X24534Y47730D01*
D26*
X25110Y47730D03*
D27*
X12868Y39768D02*
X12240Y39768D01*
X12868Y39768D02*
X12870Y39770D01*
X12850Y39790D01*
X12840Y39790D01*
D26*
X12840Y39790D03*
D27*
X9026Y40066D02*
X9026Y40900D01*
X9026Y40066D02*
X9020Y40060D01*
D26*
X9020Y40060D03*
D27*
X9972Y44660D02*
X10390Y44660D01*
X10570Y44480D01*
D26*
X10570Y44480D03*
D27*
X6780Y47112D02*
X6162Y47112D01*
X6150Y47100D01*
X6140Y47110D01*
X6140Y47130D01*
D26*
X6140Y47130D03*
D27*
X5473Y43852D02*
X5465Y43844D01*
X5260Y43844D01*
X5264Y44370D02*
X5244Y44390D01*
X5264Y44370D02*
X5730Y44370D01*
X5750Y44370D01*
D26*
X5730Y44370D03*
D27*
X5260Y44374D02*
X5244Y44390D01*
X5260Y44374D02*
X5260Y43844D01*
X6654Y41096D02*
X6654Y40398D01*
X6376Y40120D01*
X6550Y39946D01*
X6550Y39600D01*
D26*
X6550Y39600D03*
D27*
X22273Y30276D02*
X22326Y30329D01*
X22273Y30276D02*
X21500Y30276D01*
X21474Y30250D01*
X21489Y29750D01*
D26*
X21489Y29750D03*
D27*
X11791Y24031D02*
X11791Y23561D01*
X11790Y23560D01*
X11790Y23550D01*
D26*
X11790Y23550D03*
D27*
X13448Y24031D02*
X14019Y24031D01*
X14020Y24030D01*
X14000Y24030D01*
D26*
X14000Y24030D03*
D27*
X9428Y26235D02*
X8581Y26235D01*
X8545Y26271D01*
X8545Y25685D01*
X8550Y25680D01*
D26*
X8550Y25680D03*
D27*
X8251Y29759D02*
X8251Y29893D01*
X8824Y29186D02*
X8824Y29050D01*
X8824Y29186D02*
X8251Y29759D01*
X8824Y29050D02*
X9014Y28860D01*
X9440Y28860D01*
D26*
X9440Y28860D03*
D30*
X7321Y23498D02*
X7316Y23046D01*
X7321Y23498D02*
X7326Y23886D01*
X7321Y23498D02*
X7430Y23470D01*
D26*
X13970Y9360D03*
D29*
X8960Y23046D02*
X8064Y23046D01*
X8960Y23046D02*
X8972Y23059D01*
X8074Y23056D02*
X8074Y23886D01*
X8074Y23056D02*
X8064Y23046D01*
D31*
X7687Y21981D02*
X8136Y21532D01*
X8064Y22894D02*
X8064Y23046D01*
X7687Y22517D02*
X7687Y21981D01*
X7687Y22517D02*
X8064Y22894D01*
D27*
X6654Y44443D02*
X6654Y45046D01*
X6318Y45382D01*
X3955Y45501D01*
X3286Y44956D01*
X3271Y44940D01*
X1312Y32886D02*
X1312Y31180D01*
X1312Y32886D02*
X2390Y33965D01*
X2390Y40632D01*
X3286Y44956D01*
X6457Y44988D02*
X6457Y44443D01*
X6457Y44988D02*
X6251Y45194D01*
X4042Y45306D01*
X4036Y45300D01*
X4019Y45300D01*
X3451Y44732D01*
X2145Y33465D02*
X2145Y32200D01*
X2145Y33465D02*
X2570Y33890D01*
X2570Y40599D01*
X3451Y44732D01*
X6260Y44830D02*
X6260Y44443D01*
X6260Y44830D02*
X6074Y45016D01*
X4095Y45116D01*
X3631Y44652D01*
X2750Y33478D02*
X2978Y33250D01*
X2750Y33478D02*
X2750Y40580D01*
X3631Y44652D01*
X6063Y44704D02*
X6063Y44443D01*
X6063Y44704D02*
X5924Y44844D01*
X5924Y44844D01*
X5924Y44844D01*
X5316Y44874D01*
X4107Y44874D01*
X3811Y44578D01*
X2930Y35081D02*
X3812Y34200D01*
X3812Y34180D01*
X2930Y35081D02*
X2930Y40562D01*
X3811Y44578D01*
X5465Y43450D02*
X5473Y43458D01*
X5465Y43450D02*
X4151Y43450D01*
X5524Y34900D02*
X5625Y34800D01*
X5524Y34900D02*
X4050Y34900D01*
X3110Y35840D01*
X3110Y40544D01*
X3634Y42934D02*
X4151Y43450D01*
X3634Y42934D02*
X3282Y41325D01*
X3110Y40544D01*
X4217Y43261D02*
X5473Y43261D01*
X6298Y35950D02*
X6448Y35800D01*
X6298Y35950D02*
X4050Y35950D01*
X3290Y36710D01*
X3290Y40526D01*
X3799Y42844D02*
X4217Y43261D01*
X3799Y42844D02*
X3584Y41863D01*
X3473Y41359D01*
X3473Y41359D01*
X3457Y41287D01*
X3441Y41214D01*
X3441Y41214D01*
X3382Y40942D01*
X3306Y40598D01*
X3290Y40526D01*
X8819Y42080D02*
X8827Y42088D01*
X10687Y42080D02*
X11317Y41450D01*
X19460Y41450D01*
X10687Y42080D02*
X8819Y42080D01*
X19460Y41450D02*
X20405Y40505D01*
X20405Y38796D01*
X20259Y38650D01*
X21135Y37700D02*
X21135Y40015D01*
X10730Y42277D02*
X8819Y42277D01*
X10730Y42277D02*
X11387Y41620D01*
X19530Y41620D01*
X21135Y40015D01*
X10577Y42671D02*
X8819Y42671D01*
X22012Y36700D02*
X23800Y36700D01*
X25050Y37950D02*
X25900Y37950D01*
X25050Y37950D02*
X23800Y36700D01*
X21640Y39750D02*
X19600Y41790D01*
X25980Y39750D02*
X26310Y39420D01*
X26310Y38360D01*
X25900Y37950D01*
X25980Y39750D02*
X21640Y39750D01*
X11458Y41790D02*
X10577Y42671D01*
X11458Y41790D02*
X19600Y41790D01*
X10621Y42868D02*
X8819Y42868D01*
X22889Y35700D02*
X23800Y35700D01*
X25050Y36950D02*
X25650Y36950D01*
X26480Y37780D01*
X25050Y36950D02*
X23800Y35700D01*
X21711Y39920D02*
X19671Y41960D01*
X26050Y39920D02*
X26480Y39490D01*
X26480Y37780D01*
X26050Y39920D02*
X21711Y39920D01*
X19671Y41960D02*
X11528Y41960D01*
X10621Y42868D01*
X10664Y43065D02*
X8819Y43065D01*
X23766Y34700D02*
X24966Y35900D01*
X25600Y35900D01*
X21781Y40090D02*
X19741Y42130D01*
X26121Y40090D02*
X26650Y39561D01*
X26121Y40090D02*
X21781Y40090D01*
X25600Y35900D02*
X26650Y36950D01*
X26650Y39561D01*
X19741Y42130D02*
X11599Y42130D01*
X10664Y43065D01*
X10708Y43261D02*
X8819Y43261D01*
X19812Y42300D02*
X21852Y40260D01*
X26191Y40260D02*
X26820Y39631D01*
X26191Y40260D02*
X21852Y40260D01*
X26820Y34877D02*
X26143Y34200D01*
X26820Y34877D02*
X26820Y39631D01*
X19812Y42300D02*
X11669Y42300D01*
X10708Y43261D01*
X8827Y43450D02*
X8819Y43458D01*
X8827Y43450D02*
X10759Y43450D01*
X19882Y42470D02*
X21922Y40430D01*
X26262Y40430D02*
X26990Y39702D01*
X26262Y40430D02*
X21922Y40430D01*
X26990Y39702D02*
X26990Y34480D01*
X27846Y33624D01*
X27846Y31150D01*
X19882Y42470D02*
X11740Y42470D01*
X10759Y43450D01*
X5473Y43065D02*
X5465Y43072D01*
X7171Y36950D02*
X7271Y36850D01*
X7171Y36950D02*
X4050Y36950D01*
X3470Y37530D01*
X3470Y40507D01*
X5465Y43057D02*
X5473Y43065D01*
X5465Y43057D02*
X4252Y43057D01*
X3954Y42759D01*
X3560Y40910D01*
X3470Y40508D01*
X5465Y42860D02*
X5473Y42868D01*
X8050Y37800D02*
X8094Y37800D01*
X8050Y37800D02*
X7950Y37900D01*
X4050Y37900D01*
X3650Y38300D01*
X3650Y40489D01*
X4103Y42641D02*
X4322Y42860D01*
X4103Y42641D02*
X4058Y42429D01*
X3650Y40489D01*
X4322Y42860D02*
X5465Y42860D01*
X3820Y40471D02*
X3820Y39130D01*
X3990Y38960D01*
X5040Y38960D01*
X4100Y41803D02*
X4224Y42394D01*
X4259Y42556D01*
X4373Y42671D01*
X5473Y42671D01*
X4100Y41803D02*
X3820Y40471D01*
X8729Y38611D02*
X8918Y38800D01*
X5389Y38611D02*
X5040Y38960D01*
X5389Y38611D02*
X8729Y38611D01*
X17425Y34425D02*
X19226Y34425D01*
X10150Y34950D02*
X9252Y34052D01*
X10150Y34950D02*
X16900Y34950D01*
X17425Y34425D01*
X9252Y34052D02*
X5625Y34052D01*
X4989Y34052D01*
X4600Y34441D01*
X16975Y32425D02*
X19226Y32425D01*
X10100Y32950D02*
X9591Y32441D01*
X10100Y32950D02*
X16450Y32950D01*
X16975Y32425D01*
X4539Y32502D02*
X2978Y32502D01*
X4539Y32502D02*
X4600Y32441D01*
X9591Y32441D01*
X17225Y33425D02*
X19226Y33425D01*
X10200Y33950D02*
X9691Y33441D01*
X10200Y33950D02*
X16700Y33950D01*
X17225Y33425D01*
X9691Y33441D02*
X4600Y33441D01*
X3562Y33441D01*
X3812Y33432D01*
X10600Y34441D02*
X16809Y34441D01*
X17300Y33950D01*
X23764Y33950D01*
X23766Y33952D01*
X24753Y33952D01*
X25226Y34425D01*
X16959Y35441D02*
X10600Y35441D01*
X16959Y35441D02*
X17450Y34950D01*
X22887Y34950D01*
X22889Y34952D01*
D32*
X22889Y34591D01*
X24121Y34320D02*
X25226Y35425D01*
X23160Y34320D02*
X22889Y34591D01*
X23160Y34320D02*
X24121Y34320D01*
D27*
X17209Y37441D02*
X10600Y37441D01*
X17209Y37441D02*
X17700Y36950D01*
X17702Y36952D01*
X21135Y36952D01*
D32*
X21135Y36565D01*
X21366Y36334D01*
X24135Y36334D02*
X25226Y37425D01*
X24135Y36334D02*
X21366Y36334D01*
D27*
X19226Y37425D02*
X17975Y37425D01*
X17500Y37900D02*
X9950Y37900D01*
X17500Y37900D02*
X17975Y37425D01*
X9102Y37052D02*
X8094Y37052D01*
X9102Y37052D02*
X9950Y37900D01*
X8094Y37052D02*
X7705Y37441D01*
X4600Y37441D01*
X17675Y36425D02*
X19226Y36425D01*
X17150Y36950D02*
X10150Y36950D01*
X17150Y36950D02*
X17675Y36425D01*
X9302Y36102D02*
X7271Y36102D01*
X9302Y36102D02*
X10150Y36950D01*
X7271Y36102D02*
X6932Y36441D01*
X4600Y36441D01*
X17475Y35425D02*
X19226Y35425D01*
X16950Y35950D02*
X10300Y35950D01*
X16950Y35950D02*
X17475Y35425D01*
X9402Y35052D02*
X6448Y35052D01*
X9402Y35052D02*
X10300Y35950D01*
X6448Y35052D02*
X6059Y35441D01*
X4600Y35441D01*
X16300Y31950D02*
X16850Y31400D01*
X19201Y31400D01*
X19226Y31425D01*
X5109Y31950D02*
X4600Y31441D01*
X5109Y31950D02*
X16300Y31950D01*
X4600Y31441D02*
X2156Y31441D01*
X2145Y31452D01*
X9391Y30441D02*
X9900Y30950D01*
X18701Y30950D02*
X19226Y30425D01*
X18701Y30950D02*
X9900Y30950D01*
X1323Y30441D02*
X1312Y30432D01*
X1323Y30441D02*
X4600Y30441D01*
X9391Y30441D01*
X25226Y30425D02*
X25250Y30401D01*
X25250Y30402D02*
X27846Y30402D01*
X25250Y30402D02*
X25250Y30401D01*
X18299Y30441D02*
X10600Y30441D01*
X18299Y30441D02*
X19290Y29450D01*
X24251Y29450D01*
X25226Y30425D01*
X16559Y33441D02*
X10600Y33441D01*
X16559Y33441D02*
X17050Y32950D01*
X24401Y32950D01*
X25226Y33425D02*
X26116Y33425D01*
X26143Y33452D01*
X24876Y33425D02*
X24401Y32950D01*
X24876Y33425D02*
X25226Y33425D01*
X17059Y36441D02*
X10600Y36441D01*
X17059Y36441D02*
X17550Y35950D01*
X17552Y35952D01*
X22012Y35952D01*
D32*
X24121Y35320D02*
X25226Y36425D01*
X22012Y35952D02*
X22012Y35548D01*
X22240Y35320D01*
X24121Y35320D01*
D27*
X17559Y38441D02*
X10600Y38441D01*
X17559Y38441D02*
X18100Y37900D01*
X18102Y37902D01*
X20259Y37902D01*
D32*
X20259Y37541D01*
X24121Y37320D02*
X25226Y38425D01*
X20480Y37320D02*
X20259Y37541D01*
X20480Y37320D02*
X24121Y37320D01*
D27*
X19226Y38425D02*
X18551Y39100D01*
X8528Y38441D02*
X4600Y38441D01*
X8528Y38441D02*
X8918Y38052D01*
X9852Y38052D01*
X10100Y38300D01*
X10100Y38700D01*
X10500Y39100D01*
X18551Y39100D01*
X16359Y32441D02*
X10600Y32441D01*
X16359Y32441D02*
X16850Y31950D01*
X24751Y31950D01*
X25226Y32425D01*
X26943Y32425D01*
X26969Y32452D01*
X10838Y43852D02*
X8819Y43852D01*
X22450Y46230D02*
X23359Y46230D01*
X23368Y46221D01*
X11880Y42810D02*
X10838Y43852D01*
X11880Y42810D02*
X19030Y42810D01*
X22450Y46230D01*
X7835Y44443D02*
X7835Y43905D01*
X8050Y43690D02*
X8250Y43690D01*
X8050Y43690D02*
X7835Y43905D01*
X9390Y44131D02*
X10800Y44131D01*
X11951Y42980D01*
X18960Y42980D01*
X22701Y46721D02*
X23368Y46721D01*
X22701Y46721D02*
X18960Y42980D01*
X8250Y43661D02*
X8250Y43690D01*
D26*
X8250Y43661D03*
X9390Y44131D03*
D27*
X7244Y43885D02*
X7244Y44443D01*
D26*
X6950Y42470D03*
X5300Y30900D03*
D27*
X7438Y30900D01*
X7511Y30973D01*
X6950Y42470D02*
X6950Y43590D01*
X7244Y43885D01*
X7048Y41096D02*
X7048Y40692D01*
X7150Y40590D02*
X7650Y40590D01*
X8580Y39660D01*
X9960Y39660D02*
X10350Y39270D01*
X18150Y39270D02*
X19680Y40800D01*
X7150Y40590D02*
X7048Y40692D01*
X8580Y39660D02*
X9960Y39660D01*
X10350Y39270D02*
X18150Y39270D01*
D26*
X19680Y40800D03*
X21020Y42130D03*
D27*
X21020Y43570D01*
X22171Y44721D02*
X23368Y44721D01*
X22171Y44721D02*
X21020Y43570D01*
X23406Y30329D02*
X24131Y30329D01*
X25226Y31425D01*
X10600Y31441D02*
X8541Y31441D01*
X8251Y31151D02*
X8251Y30973D01*
X8251Y31151D02*
X8541Y31441D01*
X7048Y44443D02*
X7048Y45048D01*
X7050Y45050D01*
D26*
X7050Y45050D03*
X6550Y28550D03*
D27*
X8015Y26975D02*
X9428Y26975D01*
X8015Y26975D02*
X6550Y28440D01*
X6550Y28550D01*
X22326Y31069D02*
X22326Y31474D01*
X22300Y31500D01*
D26*
X22300Y31500D03*
X5900Y39200D03*
D27*
X5830Y39130D01*
X4800Y39130D01*
X4850Y42100D02*
X5030Y42280D01*
X5470Y42280D01*
X5473Y42277D01*
X4850Y40931D02*
X4390Y40471D01*
X4390Y39540D02*
X4800Y39130D01*
X4850Y40931D02*
X4850Y42100D01*
X4390Y40471D02*
X4390Y39540D01*
X7638Y43612D02*
X7638Y44443D01*
X7638Y43612D02*
X7650Y43600D01*
D26*
X7650Y43600D03*
X10000Y29200D03*
D27*
X10508Y28692D01*
X10508Y26975D01*
X7441Y43859D02*
X7441Y44443D01*
X7441Y43859D02*
X7450Y43850D01*
X7350Y43750D01*
X7350Y43300D01*
D26*
X7350Y43300D03*
X23350Y31600D03*
D27*
X23406Y31544D01*
X23406Y31069D01*
D29*
X7203Y21532D02*
X7203Y20758D01*
X7296Y20666D01*
D27*
X5473Y41687D02*
X5327Y41687D01*
X5473Y41687D02*
X5473Y41313D01*
X5200Y39410D02*
X4770Y39410D01*
D26*
X5200Y39410D03*
D27*
X4560Y40400D02*
X5473Y41313D01*
X4560Y40400D02*
X4560Y39620D01*
X4770Y39410D01*
X16700Y27201D02*
X15692Y26193D01*
X16700Y29000D02*
X16050Y29650D01*
X9700Y29650D01*
X9650Y29700D01*
X9640Y29700D01*
D26*
X9640Y29700D03*
D27*
X16700Y29000D02*
X16700Y27201D01*
X13448Y24780D02*
X12621Y24780D01*
X13448Y24780D02*
X14200Y25532D01*
X14692Y28292D02*
X14692Y28483D01*
X14200Y27800D02*
X14200Y25532D01*
X14200Y27800D02*
X14692Y28292D01*
X5880Y42080D02*
X5473Y42080D01*
X5880Y42080D02*
X6350Y42550D01*
D26*
X6350Y42550D03*
X11050Y29350D03*
D27*
X14000Y29350D01*
X14692Y28658D02*
X14692Y28483D01*
X14692Y28658D02*
X14000Y29350D01*
X13200Y25750D02*
X12950Y25500D01*
X11791Y25291D02*
X11791Y24780D01*
X13200Y25750D02*
X13200Y27891D01*
X12950Y25500D02*
X12000Y25500D01*
X11791Y25291D01*
X10933Y24780D02*
X10929Y24775D01*
X10933Y24780D02*
X11791Y24780D01*
X13200Y27891D02*
X13692Y28383D01*
X13692Y28483D01*
X6133Y41883D02*
X5473Y41883D01*
X6133Y41883D02*
X6400Y42150D01*
D26*
X6400Y42150D03*
X11292Y29058D03*
D27*
X13242Y29058D01*
X13692Y28608D02*
X13692Y28483D01*
X13692Y28608D02*
X13242Y29058D01*
X12692Y28483D02*
X11447Y28483D01*
X10590Y29340D02*
X10580Y29340D01*
D26*
X10580Y29340D03*
X5520Y39680D03*
D27*
X10590Y29340D02*
X11447Y28483D01*
X6063Y41096D02*
X5766Y41096D01*
X5520Y40850D01*
X5520Y39680D01*
D26*
X4950Y39760D03*
D27*
X4950Y40550D01*
D26*
X5100Y29800D03*
D27*
X4950Y40550D02*
X6100Y41700D01*
X6450Y41700D01*
X6851Y42101D01*
X1682Y29482D02*
X1682Y29030D01*
X1682Y29482D02*
X2000Y29800D01*
X3200Y29800D01*
X5100Y29800D01*
X6851Y42101D02*
X6640Y42312D01*
X6851Y44041D02*
X6851Y44443D01*
X6640Y43830D02*
X6640Y42312D01*
X6640Y43830D02*
X6851Y44041D01*
X2062Y28230D02*
X2062Y27912D01*
X2500Y27474D01*
X4695Y28860D02*
X4917Y28638D01*
X4695Y28860D02*
X3950Y28860D01*
X2564Y27474D01*
X2500Y27474D01*
X8819Y43655D02*
X10795Y43655D01*
X28900Y31690D02*
X28900Y30000D01*
X28200Y29300D02*
X25600Y29300D01*
D26*
X25600Y29300D03*
D27*
X28200Y29300D02*
X28900Y30000D01*
D26*
X24450Y32450D03*
D27*
X26720Y32950D02*
X26969Y33200D01*
X24950Y32950D02*
X24450Y32450D01*
X24950Y32950D02*
X26720Y32950D01*
X21993Y40600D02*
X19953Y42640D01*
X26332Y40600D02*
X27160Y39772D01*
X26332Y40600D02*
X21993Y40600D01*
X27160Y34550D02*
X28016Y33694D01*
X28016Y32574D01*
X27160Y34550D02*
X27160Y39772D01*
X28016Y32574D02*
X28900Y31690D01*
X19953Y42640D02*
X11810Y42640D01*
X10795Y43655D01*
X5473Y42474D02*
X5465Y42466D01*
X4976Y42466D01*
X4680Y42170D01*
X4680Y41001D02*
X4220Y40541D01*
X4680Y41001D02*
X4680Y42170D01*
X4220Y40541D02*
X4220Y39780D01*
X4100Y39669D02*
X4100Y39660D01*
X4100Y39669D02*
X4111Y39680D01*
D26*
X4111Y39680D03*
D27*
X4100Y39660D02*
X4220Y39780D01*
D26*
X5650Y29800D03*
D27*
X7418Y29800D01*
X7511Y29893D01*
X8032Y44443D02*
X8024Y44450D01*
X8024Y44741D01*
X7250Y45516D01*
X3896Y45685D01*
X3108Y45042D01*
X2631Y42717D02*
X2617Y42645D01*
X2601Y42571D01*
X2601Y42571D01*
X2454Y41852D01*
X2631Y42717D02*
X3108Y45042D01*
X2631Y42717D02*
X2631Y42717D01*
X2454Y41852D02*
X2454Y41852D01*
X1999Y39640D01*
X1697Y38165D01*
X973Y34323D01*
X635Y32097D01*
X561Y31074D01*
X504Y30270D01*
X607Y29781D01*
X924Y28281D01*
X1176Y27767D01*
X1811Y26689D01*
X2157Y26136D01*
X2615Y25636D01*
X2873Y25380D01*
X3014Y25380D01*
X3240Y25155D01*
X3240Y14900D01*
X9040Y44660D02*
X9224Y44660D01*
X9040Y44660D02*
X8320Y43940D01*
X8180Y43940D01*
X8032Y44088D01*
X8032Y44443D01*
X15350Y8300D02*
X15100Y8050D01*
D26*
X14050Y8050D03*
D27*
X15100Y8050D01*
X15350Y8300D02*
X15350Y8850D01*
X8390Y9750D02*
X3240Y14900D01*
X8390Y9750D02*
X14450Y9750D01*
X15350Y8850D01*
X8229Y44443D02*
X8221Y44450D01*
X8221Y44799D02*
X7306Y45714D01*
X3844Y45889D01*
X2948Y45158D01*
X8221Y44799D02*
X8221Y44450D01*
X2948Y45158D02*
X2440Y42680D01*
X1520Y38200D01*
X772Y34229D01*
X744Y34059D01*
X460Y32180D01*
X322Y30258D01*
X752Y28222D01*
X1159Y27393D01*
X2033Y25995D01*
X2382Y25614D01*
X2799Y25200D01*
X2940Y25200D01*
X3060Y25080D01*
X6771Y46354D02*
X6780Y46364D01*
X6771Y46354D02*
X6771Y45741D01*
X7306Y45714D01*
D26*
X14650Y8650D03*
D27*
X3060Y14840D02*
X3060Y25080D01*
X3060Y14840D02*
X9700Y8200D01*
X13400Y8200D01*
X13850Y8650D02*
X14650Y8650D01*
X13850Y8650D02*
X13400Y8200D01*
X8819Y42474D02*
X8046Y42474D01*
X8040Y42480D01*
X9770Y41800D02*
X10122Y41800D01*
X11390Y40532D01*
X12224Y40532D01*
X12240Y40516D01*
D26*
X9770Y41800D03*
X8046Y42474D03*
D27*
X10508Y26235D02*
X11315Y26235D01*
X11348Y26202D01*
X12683Y26202D01*
X12692Y26193D01*
X6457Y41096D02*
X6465Y41104D01*
X6465Y41386D01*
X6729Y41650D01*
D26*
X8000Y41650D03*
D27*
X6729Y41650D01*
D26*
X19000Y39400D03*
X18650Y29300D03*
D27*
X14692Y26193D02*
X14692Y26008D01*
X14700Y24450D02*
X15050Y24100D01*
X14700Y24450D02*
X14700Y26185D01*
X14692Y26193D01*
X18650Y24700D02*
X18650Y29300D01*
X18650Y24700D02*
X18050Y24100D01*
X15050Y24100D01*
D26*
X6950Y38950D03*
X13700Y26850D03*
D27*
X13700Y26201D01*
X13692Y26193D01*
X6252Y41088D02*
X6260Y41096D01*
X6252Y41088D02*
X6252Y40806D01*
X6166Y40720D01*
X5870Y40720D01*
X5800Y40650D01*
X5800Y39700D01*
X6600Y38950D02*
X6950Y38950D01*
X6600Y38950D02*
X5800Y39700D01*
M02*
