G04 EAGLE Gerber X2 export*
%TF.Part,Single*%
%TF.FileFunction,Copper,L1,Top,Mixed*%
%TF.FilePolarity,Positive*%
%TF.GenerationSoftware,Autodesk,EAGLE,9.0.1*%
%TF.CreationDate,2018-06-26T08:14:36Z*%
G75*
%MOIN*%
%FSLAX34Y34*%
%LPD*%
%AMOC8*
5,1,8,0,0,1.08239X$1,22.5*%
G01*
%ADD10R,0.063300X0.003340*%
%ADD11R,0.103300X0.003330*%
%ADD12R,0.130000X0.003330*%
%ADD13R,0.153300X0.003340*%
%ADD14R,0.173300X0.003330*%
%ADD15R,0.190000X0.003330*%
%ADD16R,0.203300X0.003340*%
%ADD17R,0.220000X0.003330*%
%ADD18R,0.233300X0.003330*%
%ADD19R,0.243300X0.003340*%
%ADD20R,0.256700X0.003330*%
%ADD21R,0.266700X0.003330*%
%ADD22R,0.276700X0.003340*%
%ADD23R,0.286700X0.003330*%
%ADD24R,0.296700X0.003330*%
%ADD25R,0.303300X0.003340*%
%ADD26R,0.313300X0.003330*%
%ADD27R,0.320000X0.003330*%
%ADD28R,0.330000X0.003340*%
%ADD29R,0.336700X0.003330*%
%ADD30R,0.343300X0.003330*%
%ADD31R,0.350000X0.003340*%
%ADD32R,0.356700X0.003330*%
%ADD33R,0.363300X0.003330*%
%ADD34R,0.370000X0.003340*%
%ADD35R,0.376700X0.003330*%
%ADD36R,0.380000X0.003330*%
%ADD37R,0.386700X0.003340*%
%ADD38R,0.393300X0.003330*%
%ADD39R,0.396700X0.003330*%
%ADD40R,0.403300X0.003340*%
%ADD41R,0.406700X0.003330*%
%ADD42R,0.413300X0.003330*%
%ADD43R,0.416700X0.003340*%
%ADD44R,0.420000X0.003330*%
%ADD45R,0.426700X0.003330*%
%ADD46R,0.430000X0.003340*%
%ADD47R,0.433300X0.003330*%
%ADD48R,0.436700X0.003330*%
%ADD49R,0.440000X0.003340*%
%ADD50R,0.446700X0.003330*%
%ADD51R,0.453300X0.003340*%
%ADD52R,0.453300X0.003330*%
%ADD53R,0.456700X0.003330*%
%ADD54R,0.460000X0.003340*%
%ADD55R,0.463300X0.003330*%
%ADD56R,0.466700X0.003330*%
%ADD57R,0.470000X0.003340*%
%ADD58R,0.473300X0.003330*%
%ADD59R,0.476700X0.003340*%
%ADD60R,0.480000X0.003330*%
%ADD61R,0.483300X0.003340*%
%ADD62R,0.483300X0.003330*%
%ADD63R,0.486700X0.003330*%
%ADD64R,0.486700X0.003340*%
%ADD65R,0.490000X0.003330*%
%ADD66R,0.493300X0.003340*%
%ADD67R,0.493300X0.003330*%
%ADD68R,0.496700X0.003340*%
%ADD69R,0.496700X0.003330*%
%ADD70R,0.500000X0.003340*%
%ADD71R,0.500000X0.003330*%
%ADD72R,0.503300X0.003340*%
%ADD73R,0.503300X0.003330*%
%ADD74R,0.480000X0.003340*%
%ADD75R,0.476700X0.003330*%
%ADD76R,0.473300X0.003340*%
%ADD77R,0.470000X0.003330*%
%ADD78R,0.466700X0.003340*%
%ADD79R,0.450000X0.003340*%
%ADD80R,0.443300X0.003330*%
%ADD81R,0.426700X0.003340*%
%ADD82R,0.423300X0.003330*%
%ADD83R,0.413300X0.003340*%
%ADD84R,0.410000X0.003330*%
%ADD85R,0.400000X0.003340*%
%ADD86R,0.390000X0.003330*%
%ADD87R,0.383300X0.003340*%
%ADD88R,0.373300X0.003330*%
%ADD89R,0.366700X0.003340*%
%ADD90R,0.360000X0.003330*%
%ADD91R,0.353300X0.003330*%
%ADD92R,0.346700X0.003340*%
%ADD93R,0.340000X0.003330*%
%ADD94R,0.333300X0.003330*%
%ADD95R,0.326700X0.003340*%
%ADD96R,0.316700X0.003330*%
%ADD97R,0.306700X0.003330*%
%ADD98R,0.300000X0.003340*%
%ADD99R,0.290000X0.003330*%
%ADD100R,0.280000X0.003330*%
%ADD101R,0.270000X0.003340*%
%ADD102R,0.260000X0.003330*%
%ADD103R,0.250000X0.003330*%
%ADD104R,0.236700X0.003340*%
%ADD105R,0.223300X0.003330*%
%ADD106R,0.210000X0.003330*%
%ADD107R,0.196700X0.003340*%
%ADD108R,0.180000X0.003330*%
%ADD109R,0.160000X0.003330*%
%ADD110R,0.140000X0.003340*%
%ADD111R,0.116700X0.003330*%
%ADD112R,0.083300X0.003330*%
%ADD113R,0.026700X0.003340*%
%ADD114R,0.016600X0.003330*%
%ADD115R,0.040000X0.003330*%
%ADD116R,0.046700X0.003330*%
%ADD117R,0.053300X0.003340*%
%ADD118R,0.060000X0.003330*%
%ADD119R,0.066700X0.003330*%
%ADD120R,0.073300X0.003340*%
%ADD121R,0.086700X0.003330*%
%ADD122R,0.093300X0.003330*%
%ADD123R,0.100000X0.003340*%
%ADD124R,0.106700X0.003330*%
%ADD125R,0.113300X0.003330*%
%ADD126R,0.120000X0.003340*%
%ADD127R,0.133300X0.003330*%
%ADD128R,0.140000X0.003330*%
%ADD129R,0.146700X0.003340*%
%ADD130R,0.153300X0.003330*%
%ADD131R,0.170000X0.003340*%
%ADD132R,0.186700X0.003330*%
%ADD133R,0.193300X0.003340*%
%ADD134R,0.200000X0.003330*%
%ADD135R,0.206700X0.003330*%
%ADD136R,0.220000X0.003340*%
%ADD137R,0.226700X0.003330*%
%ADD138R,0.240000X0.003340*%
%ADD139R,0.246700X0.003330*%
%ADD140R,0.253300X0.003330*%
%ADD141R,0.266700X0.003340*%
%ADD142R,0.273300X0.003330*%
%ADD143R,0.286700X0.003340*%
%ADD144R,0.293300X0.003330*%
%ADD145R,0.300000X0.003330*%
%ADD146R,0.313300X0.003340*%
%ADD147R,0.326700X0.003330*%
%ADD148R,0.333300X0.003340*%
%ADD149R,0.346700X0.003330*%
%ADD150R,0.353300X0.003340*%
%ADD151R,0.356600X0.003330*%
%ADD152R,0.360000X0.003340*%
%ADD153R,0.363400X0.003330*%
%ADD154R,0.356600X0.003340*%
%ADD155R,0.350000X0.003330*%
%ADD156R,0.343400X0.003330*%
%ADD157R,0.330000X0.003330*%
%ADD158R,0.059370X0.059370*%
%ADD159C,0.059370*%
%ADD160R,0.072835X0.039370*%
%ADD161C,0.029780*%
%ADD162C,0.020000*%
%ADD163C,0.010000*%

G36*
X16581Y1371D02*
X16581Y1371D01*
X17003Y1382D01*
X17006Y1382D01*
X17008Y1382D01*
X17426Y1438D01*
X17430Y1439D01*
X17432Y1439D01*
X17841Y1539D01*
X17845Y1540D01*
X17847Y1540D01*
X18243Y1683D01*
X18246Y1685D01*
X18248Y1685D01*
X18628Y1869D01*
X18631Y1871D01*
X18632Y1872D01*
X18990Y2095D01*
X18993Y2098D01*
X18994Y2098D01*
X19326Y2359D01*
X19329Y2361D01*
X19330Y2362D01*
X19633Y2657D01*
X19635Y2659D01*
X19636Y2660D01*
X19906Y2985D01*
X19907Y2988D01*
X19909Y2989D01*
X20142Y3341D01*
X20144Y3344D01*
X20145Y3345D01*
X20339Y3720D01*
X20340Y3723D01*
X20342Y3724D01*
X20495Y4117D01*
X20496Y4120D01*
X20497Y4122D01*
X20608Y4529D01*
X20608Y4533D01*
X20609Y4534D01*
X20676Y4951D01*
X20676Y4954D01*
X20677Y4956D01*
X20699Y5377D01*
X20699Y5379D01*
X20699Y5380D01*
X20699Y11950D01*
X20699Y11954D01*
X20699Y11956D01*
X20640Y12404D01*
X20639Y12408D01*
X20639Y12410D01*
X20533Y12849D01*
X20532Y12852D01*
X20532Y12854D01*
X20379Y13279D01*
X20377Y13282D01*
X20377Y13284D01*
X20179Y13691D01*
X20177Y13693D01*
X20176Y13695D01*
X19936Y14078D01*
X19934Y14080D01*
X19933Y14082D01*
X19653Y14437D01*
X19651Y14439D01*
X19649Y14441D01*
X19333Y14764D01*
X19330Y14766D01*
X19329Y14767D01*
X18980Y15054D01*
X18977Y15056D01*
X18975Y15057D01*
X18597Y15304D01*
X18594Y15306D01*
X18593Y15307D01*
X18190Y15513D01*
X18187Y15514D01*
X18185Y15515D01*
X17763Y15676D01*
X17760Y15676D01*
X17758Y15677D01*
X17321Y15792D01*
X17318Y15792D01*
X17316Y15793D01*
X16869Y15860D01*
X16865Y15860D01*
X16864Y15861D01*
X16412Y15879D01*
X16411Y15879D01*
X16410Y15879D01*
X13370Y15879D01*
X13369Y15879D01*
X12935Y15870D01*
X12932Y15869D01*
X12930Y15869D01*
X12499Y15814D01*
X12496Y15813D01*
X12494Y15813D01*
X12072Y15712D01*
X12068Y15711D01*
X12066Y15711D01*
X11657Y15566D01*
X11654Y15564D01*
X11652Y15564D01*
X11261Y15377D01*
X11258Y15375D01*
X11256Y15374D01*
X10887Y15146D01*
X10884Y15144D01*
X10882Y15143D01*
X10539Y14877D01*
X10537Y14875D01*
X10535Y14874D01*
X10222Y14573D01*
X10220Y14571D01*
X10218Y14570D01*
X9938Y14237D01*
X9937Y14235D01*
X9935Y14233D01*
X9692Y13873D01*
X9691Y13870D01*
X9690Y13869D01*
X9486Y13485D01*
X9485Y13482D01*
X9484Y13481D01*
X9323Y13078D01*
X9322Y13074D01*
X9321Y13073D01*
X9203Y12655D01*
X9202Y12651D01*
X9202Y12650D01*
X9129Y12222D01*
X9129Y12218D01*
X9128Y12216D01*
X9101Y11783D01*
X9101Y11781D01*
X9101Y11780D01*
X9101Y5550D01*
X9101Y5549D01*
X9101Y5548D01*
X9120Y5117D01*
X9121Y5114D01*
X9121Y5112D01*
X9185Y4686D01*
X9186Y4682D01*
X9187Y4681D01*
X9296Y4263D01*
X9297Y4260D01*
X9297Y4258D01*
X9449Y3855D01*
X9451Y3852D01*
X9452Y3850D01*
X9645Y3465D01*
X9647Y3462D01*
X9648Y3461D01*
X9881Y3098D01*
X9883Y3096D01*
X9884Y3094D01*
X10154Y2758D01*
X10156Y2755D01*
X10157Y2754D01*
X10461Y2448D01*
X10464Y2446D01*
X10465Y2444D01*
X10799Y2172D01*
X10802Y2170D01*
X10803Y2169D01*
X11164Y1933D01*
X11167Y1932D01*
X11169Y1930D01*
X11553Y1734D01*
X11556Y1733D01*
X11557Y1732D01*
X11960Y1577D01*
X11963Y1576D01*
X11965Y1575D01*
X12381Y1463D01*
X12384Y1462D01*
X12386Y1462D01*
X12812Y1394D01*
X12815Y1394D01*
X12817Y1393D01*
X13247Y1371D01*
X13249Y1371D01*
X13250Y1371D01*
X16580Y1371D01*
X16581Y1371D01*
G37*
%LPC*%
G36*
X12720Y7792D02*
X12720Y7792D01*
X12394Y8117D01*
X12394Y8184D01*
X12957Y8746D01*
X13024Y8746D01*
X13031Y8739D01*
X13035Y8736D01*
X13039Y8733D01*
X13040Y8732D01*
X13041Y8732D01*
X13045Y8730D01*
X13050Y8727D01*
X13051Y8727D01*
X13052Y8727D01*
X13057Y8726D01*
X13062Y8725D01*
X13063Y8725D01*
X13064Y8725D01*
X13069Y8725D01*
X13074Y8725D01*
X13076Y8726D01*
X13077Y8726D01*
X13081Y8728D01*
X13086Y8729D01*
X13087Y8730D01*
X13088Y8730D01*
X13099Y8737D01*
X13100Y8739D01*
X13101Y8739D01*
X13156Y8795D01*
X13159Y8798D01*
X13161Y8801D01*
X13162Y8803D01*
X13164Y8804D01*
X13165Y8808D01*
X13167Y8812D01*
X13167Y8814D01*
X13168Y8816D01*
X13170Y8828D01*
X13170Y8829D01*
X13170Y8846D01*
X13205Y8930D01*
X13270Y8995D01*
X13354Y9030D01*
X13446Y9030D01*
X13530Y8995D01*
X13595Y8930D01*
X13630Y8846D01*
X13630Y8754D01*
X13595Y8670D01*
X13530Y8605D01*
X13446Y8570D01*
X13435Y8570D01*
X13431Y8570D01*
X13427Y8570D01*
X13425Y8569D01*
X13423Y8569D01*
X13419Y8567D01*
X13415Y8566D01*
X13413Y8565D01*
X13411Y8564D01*
X13401Y8557D01*
X13401Y8556D01*
X13400Y8556D01*
X13342Y8498D01*
X13339Y8494D01*
X13336Y8490D01*
X13335Y8489D01*
X13334Y8488D01*
X13332Y8483D01*
X13330Y8479D01*
X13330Y8478D01*
X13330Y8476D01*
X13329Y8472D01*
X13328Y8467D01*
X13328Y8465D01*
X13328Y8464D01*
X13328Y8459D01*
X13328Y8454D01*
X13329Y8453D01*
X13329Y8452D01*
X13331Y8447D01*
X13332Y8442D01*
X13333Y8442D01*
X13333Y8441D01*
X13333Y8440D01*
X13337Y8434D01*
X13340Y8431D01*
X13340Y8430D01*
X13341Y8429D01*
X13342Y8428D01*
X13349Y8421D01*
X13349Y8354D01*
X12787Y7792D01*
X12720Y7792D01*
G37*
%LPD*%
%LPC*%
G36*
X14604Y8420D02*
X14604Y8420D01*
X14520Y8455D01*
X14455Y8520D01*
X14420Y8604D01*
X14420Y8696D01*
X14455Y8780D01*
X14520Y8845D01*
X14604Y8880D01*
X14659Y8880D01*
X14664Y8880D01*
X14670Y8881D01*
X14671Y8881D01*
X14676Y8883D01*
X14682Y8885D01*
X14682Y8886D01*
X14683Y8886D01*
X14687Y8889D01*
X14692Y8892D01*
X14692Y8893D01*
X14693Y8893D01*
X14696Y8897D01*
X14700Y8902D01*
X14701Y8903D01*
X14703Y8908D01*
X14705Y8913D01*
X14706Y8913D01*
X14706Y8914D01*
X14707Y8920D01*
X14708Y8925D01*
X14708Y8926D01*
X14708Y8932D01*
X14707Y8937D01*
X14707Y8938D01*
X14707Y8939D01*
X14705Y8944D01*
X14704Y8949D01*
X14703Y8950D01*
X14696Y8961D01*
X14695Y8962D01*
X14694Y8964D01*
X14674Y8983D01*
X14674Y9050D01*
X15237Y9612D01*
X15304Y9612D01*
X15629Y9287D01*
X15629Y9220D01*
X15067Y8657D01*
X15000Y8657D01*
X14964Y8694D01*
X14959Y8697D01*
X14955Y8701D01*
X14954Y8701D01*
X14949Y8704D01*
X14944Y8706D01*
X14943Y8706D01*
X14942Y8706D01*
X14937Y8707D01*
X14931Y8708D01*
X14930Y8708D01*
X14925Y8708D01*
X14919Y8707D01*
X14918Y8707D01*
X14913Y8705D01*
X14907Y8703D01*
X14906Y8703D01*
X14902Y8699D01*
X14897Y8696D01*
X14896Y8696D01*
X14896Y8695D01*
X14892Y8691D01*
X14889Y8687D01*
X14888Y8687D01*
X14888Y8686D01*
X14885Y8681D01*
X14883Y8676D01*
X14882Y8675D01*
X14880Y8663D01*
X14880Y8660D01*
X14880Y8659D01*
X14880Y8604D01*
X14845Y8520D01*
X14780Y8455D01*
X14696Y8420D01*
X14604Y8420D01*
G37*
%LPD*%
%LPC*%
G36*
X13924Y9130D02*
X13924Y9130D01*
X13840Y9165D01*
X13775Y9230D01*
X13740Y9314D01*
X13740Y9406D01*
X13775Y9490D01*
X13840Y9555D01*
X13924Y9590D01*
X13931Y9590D01*
X13935Y9590D01*
X13939Y9590D01*
X13941Y9591D01*
X13943Y9591D01*
X13947Y9593D01*
X13951Y9594D01*
X13952Y9595D01*
X13955Y9596D01*
X13965Y9603D01*
X13965Y9604D01*
X13975Y9613D01*
X13978Y9617D01*
X13981Y9621D01*
X13981Y9622D01*
X13982Y9623D01*
X13984Y9628D01*
X13986Y9632D01*
X13987Y9633D01*
X13987Y9634D01*
X13988Y9639D01*
X13989Y9644D01*
X13989Y9645D01*
X13989Y9647D01*
X13989Y9652D01*
X13988Y9657D01*
X13988Y9658D01*
X13988Y9659D01*
X13986Y9664D01*
X13985Y9668D01*
X13984Y9669D01*
X13983Y9671D01*
X13976Y9681D01*
X13975Y9682D01*
X13975Y9683D01*
X13967Y9690D01*
X13967Y9757D01*
X14530Y10319D01*
X14597Y10319D01*
X14922Y9994D01*
X14922Y9927D01*
X14360Y9364D01*
X14293Y9364D01*
X14286Y9372D01*
X14282Y9375D01*
X14278Y9378D01*
X14277Y9379D01*
X14276Y9379D01*
X14271Y9381D01*
X14267Y9383D01*
X14266Y9384D01*
X14264Y9384D01*
X14260Y9385D01*
X14255Y9386D01*
X14253Y9386D01*
X14252Y9386D01*
X14247Y9386D01*
X14242Y9385D01*
X14241Y9385D01*
X14240Y9385D01*
X14235Y9383D01*
X14230Y9382D01*
X14230Y9381D01*
X14228Y9381D01*
X14218Y9373D01*
X14217Y9372D01*
X14216Y9372D01*
X14214Y9370D01*
X14211Y9366D01*
X14209Y9363D01*
X14208Y9361D01*
X14206Y9360D01*
X14205Y9356D01*
X14203Y9352D01*
X14203Y9351D01*
X14202Y9348D01*
X14200Y9336D01*
X14200Y9335D01*
X14200Y9314D01*
X14165Y9230D01*
X14100Y9165D01*
X14016Y9130D01*
X13924Y9130D01*
G37*
%LPD*%
%LPC*%
G36*
X13427Y7084D02*
X13427Y7084D01*
X13102Y7410D01*
X13102Y7477D01*
X13664Y8039D01*
X13731Y8039D01*
X13736Y8034D01*
X13740Y8031D01*
X13743Y8028D01*
X13744Y8028D01*
X13745Y8027D01*
X13746Y8027D01*
X13746Y8026D01*
X13750Y8024D01*
X13754Y8023D01*
X13755Y8022D01*
X13756Y8022D01*
X13757Y8022D01*
X13758Y8021D01*
X13763Y8020D01*
X13769Y8019D01*
X13770Y8019D01*
X13771Y8019D01*
X13774Y8020D01*
X13775Y8020D01*
X13781Y8020D01*
X13782Y8021D01*
X13783Y8021D01*
X13786Y8022D01*
X13787Y8023D01*
X13793Y8024D01*
X13793Y8025D01*
X13794Y8025D01*
X13795Y8025D01*
X13795Y8026D01*
X13798Y8028D01*
X13803Y8031D01*
X13804Y8032D01*
X13805Y8033D01*
X13807Y8036D01*
X13808Y8036D01*
X13811Y8040D01*
X13812Y8041D01*
X13813Y8042D01*
X13813Y8043D01*
X13815Y8046D01*
X13817Y8051D01*
X13817Y8052D01*
X13818Y8053D01*
X13818Y8054D01*
X13819Y8059D01*
X13820Y8065D01*
X13820Y8066D01*
X13820Y8068D01*
X13820Y8069D01*
X13820Y8096D01*
X13855Y8180D01*
X13920Y8245D01*
X14004Y8280D01*
X14096Y8280D01*
X14180Y8245D01*
X14245Y8180D01*
X14280Y8096D01*
X14280Y8004D01*
X14245Y7920D01*
X14180Y7855D01*
X14096Y7820D01*
X14069Y7820D01*
X14063Y7820D01*
X14058Y7819D01*
X14057Y7819D01*
X14056Y7819D01*
X14051Y7817D01*
X14046Y7815D01*
X14045Y7814D01*
X14040Y7811D01*
X14036Y7808D01*
X14035Y7807D01*
X14031Y7803D01*
X14028Y7798D01*
X14027Y7798D01*
X14027Y7797D01*
X14025Y7792D01*
X14022Y7787D01*
X14022Y7786D01*
X14021Y7780D01*
X14020Y7775D01*
X14020Y7774D01*
X14019Y7774D01*
X14020Y7768D01*
X14020Y7763D01*
X14020Y7762D01*
X14020Y7761D01*
X14022Y7756D01*
X14024Y7751D01*
X14024Y7750D01*
X14031Y7739D01*
X14033Y7738D01*
X14034Y7736D01*
X14056Y7714D01*
X14056Y7647D01*
X13494Y7084D01*
X13427Y7084D01*
G37*
%LPD*%
D10*
X14967Y16867D03*
D11*
X14967Y16900D03*
D12*
X14966Y16933D03*
D13*
X14950Y16967D03*
D14*
X14950Y17000D03*
D15*
X14966Y17033D03*
D16*
X14967Y17067D03*
D17*
X14950Y17100D03*
D18*
X14950Y17133D03*
D19*
X14967Y17167D03*
D20*
X14967Y17200D03*
D21*
X14950Y17233D03*
D22*
X14967Y17267D03*
D23*
X14950Y17300D03*
D24*
X14967Y17333D03*
D25*
X14967Y17367D03*
D26*
X14950Y17400D03*
D27*
X14950Y17433D03*
D28*
X14966Y17467D03*
D29*
X14967Y17500D03*
D30*
X14967Y17533D03*
D31*
X14966Y17567D03*
D32*
X14967Y17600D03*
D33*
X14967Y17633D03*
D34*
X14966Y17667D03*
D35*
X14967Y17700D03*
D36*
X14950Y17733D03*
D37*
X14950Y17767D03*
D38*
X14950Y17800D03*
D39*
X14967Y17833D03*
D40*
X14967Y17867D03*
D41*
X14950Y17900D03*
D42*
X14950Y17933D03*
D43*
X14967Y17967D03*
D44*
X14950Y18000D03*
D45*
X14950Y18033D03*
D46*
X14966Y18067D03*
D47*
X14950Y18100D03*
D48*
X14967Y18133D03*
D49*
X14950Y18167D03*
D50*
X14950Y18200D03*
X14950Y18233D03*
D51*
X14950Y18267D03*
D52*
X14950Y18300D03*
D53*
X14967Y18333D03*
D54*
X14950Y18367D03*
D55*
X14967Y18400D03*
D56*
X14950Y18433D03*
D57*
X14966Y18467D03*
D58*
X14950Y18500D03*
X14950Y18533D03*
D59*
X14967Y18567D03*
D60*
X14950Y18600D03*
X14950Y18633D03*
D61*
X14967Y18667D03*
D62*
X14967Y18700D03*
D63*
X14950Y18733D03*
D64*
X14950Y18767D03*
D65*
X14966Y18800D03*
X14966Y18833D03*
D66*
X14950Y18867D03*
D67*
X14950Y18900D03*
X14950Y18933D03*
D68*
X14967Y18967D03*
D69*
X14967Y19000D03*
X14967Y19033D03*
D70*
X14950Y19067D03*
D71*
X14950Y19100D03*
X14950Y19133D03*
D70*
X14950Y19167D03*
D71*
X14950Y19200D03*
X14950Y19233D03*
D72*
X14967Y19267D03*
D73*
X14967Y19300D03*
X14967Y19333D03*
D72*
X14967Y19367D03*
D73*
X14967Y19400D03*
X14967Y19433D03*
D70*
X14950Y19467D03*
D71*
X14950Y19500D03*
X14950Y19533D03*
D70*
X14950Y19567D03*
D71*
X14950Y19600D03*
X14950Y19633D03*
D70*
X14950Y19667D03*
D69*
X14967Y19700D03*
X14967Y19733D03*
D68*
X14967Y19767D03*
D67*
X14950Y19800D03*
X14950Y19833D03*
D66*
X14950Y19867D03*
D65*
X14966Y19900D03*
D63*
X14950Y19933D03*
D64*
X14950Y19967D03*
D63*
X14950Y20000D03*
D62*
X14967Y20033D03*
D74*
X14950Y20067D03*
D60*
X14950Y20100D03*
D75*
X14967Y20133D03*
D76*
X14950Y20167D03*
D58*
X14950Y20200D03*
D77*
X14966Y20233D03*
D78*
X14950Y20267D03*
D56*
X14950Y20300D03*
D55*
X14967Y20333D03*
D54*
X14950Y20367D03*
D53*
X14967Y20400D03*
D52*
X14950Y20433D03*
D79*
X14966Y20467D03*
D50*
X14950Y20500D03*
D80*
X14967Y20533D03*
D49*
X14950Y20567D03*
D48*
X14967Y20600D03*
D47*
X14950Y20633D03*
D81*
X14950Y20667D03*
D82*
X14967Y20700D03*
D44*
X14950Y20733D03*
D83*
X14950Y20767D03*
D84*
X14966Y20800D03*
D41*
X14950Y20833D03*
D85*
X14950Y20867D03*
D38*
X14950Y20900D03*
D86*
X14966Y20933D03*
D87*
X14967Y20967D03*
D36*
X14950Y21000D03*
D88*
X14950Y21033D03*
D89*
X14950Y21067D03*
D90*
X14950Y21100D03*
D91*
X14950Y21133D03*
D92*
X14950Y21167D03*
D93*
X14950Y21200D03*
D94*
X14950Y21233D03*
D95*
X14950Y21267D03*
D96*
X14967Y21300D03*
D97*
X14950Y21333D03*
D98*
X14950Y21367D03*
D99*
X14966Y21400D03*
D100*
X14950Y21433D03*
D101*
X14966Y21467D03*
D102*
X14950Y21500D03*
D103*
X14966Y21533D03*
D104*
X14967Y21567D03*
D105*
X14967Y21600D03*
D106*
X14966Y21633D03*
D107*
X14967Y21667D03*
D108*
X14950Y21700D03*
D109*
X14950Y21733D03*
D110*
X14950Y21767D03*
D111*
X14967Y21800D03*
D112*
X14967Y21833D03*
D113*
X14950Y21867D03*
D114*
X14933Y29233D03*
D113*
X14950Y29267D03*
D115*
X14950Y29300D03*
D116*
X14950Y29333D03*
D117*
X14950Y29367D03*
D118*
X14950Y29400D03*
D119*
X14950Y29433D03*
D120*
X14950Y29467D03*
D121*
X14950Y29500D03*
D122*
X14950Y29533D03*
D123*
X14950Y29567D03*
D124*
X14950Y29600D03*
D125*
X14950Y29633D03*
D126*
X14950Y29667D03*
D127*
X14950Y29700D03*
D128*
X14950Y29733D03*
D129*
X14950Y29767D03*
D130*
X14950Y29800D03*
D109*
X14950Y29833D03*
D131*
X14933Y29867D03*
D108*
X14950Y29900D03*
D132*
X14950Y29933D03*
D133*
X14950Y29967D03*
D134*
X14950Y30000D03*
D135*
X14950Y30033D03*
D136*
X14950Y30067D03*
D137*
X14950Y30100D03*
D18*
X14950Y30133D03*
D138*
X14950Y30167D03*
D139*
X14950Y30200D03*
D140*
X14950Y30233D03*
D141*
X14950Y30267D03*
D142*
X14950Y30300D03*
D100*
X14950Y30333D03*
D143*
X14950Y30367D03*
D144*
X14950Y30400D03*
D145*
X14950Y30433D03*
D146*
X14950Y30467D03*
D27*
X14950Y30500D03*
D147*
X14950Y30533D03*
D148*
X14950Y30567D03*
D93*
X14950Y30600D03*
D149*
X14950Y30633D03*
D150*
X14950Y30667D03*
D151*
X14933Y30700D03*
D90*
X14950Y30733D03*
D152*
X14950Y30767D03*
D153*
X14933Y30800D03*
X14933Y30833D03*
D154*
X14933Y30867D03*
D151*
X14933Y30900D03*
D155*
X14933Y30933D03*
D31*
X14933Y30967D03*
D156*
X14933Y31000D03*
D157*
X14933Y31033D03*
D158*
X4600Y38441D03*
D159*
X4600Y37441D03*
X4600Y36441D03*
X4600Y35441D03*
X4600Y34441D03*
X4600Y33441D03*
X4600Y32441D03*
X4600Y31441D03*
X4600Y30441D03*
X10600Y30441D03*
X10600Y31441D03*
X10600Y32441D03*
X10600Y33441D03*
X10600Y34441D03*
X10600Y35441D03*
X10600Y36441D03*
X10600Y37441D03*
X10600Y38441D03*
D158*
X19226Y38425D03*
D159*
X19226Y37425D03*
X19226Y36425D03*
X19226Y35425D03*
X19226Y34425D03*
X19226Y33425D03*
X19226Y32425D03*
X19226Y31425D03*
X19226Y30425D03*
X25226Y30425D03*
X25226Y31425D03*
X25226Y32425D03*
X25226Y33425D03*
X25226Y34425D03*
X25226Y35425D03*
X25226Y36425D03*
X25226Y37425D03*
X25226Y38425D03*
D160*
G36*
X13268Y8387D02*
X12754Y7873D01*
X12476Y8151D01*
X12990Y8665D01*
X13268Y8387D01*
G37*
G36*
X13975Y7680D02*
X13461Y7166D01*
X13183Y7444D01*
X13697Y7958D01*
X13975Y7680D01*
G37*
G36*
X14841Y9960D02*
X14327Y9446D01*
X14049Y9724D01*
X14563Y10238D01*
X14841Y9960D01*
G37*
G36*
X15548Y9253D02*
X15034Y8739D01*
X14756Y9017D01*
X15270Y9531D01*
X15548Y9253D01*
G37*
D161*
X13250Y22700D03*
X12650Y23550D03*
X10950Y23600D03*
X10200Y22100D03*
X10200Y23050D03*
X6400Y21200D03*
X11350Y27400D03*
X7350Y26250D03*
X3900Y24300D03*
X2900Y29050D03*
X4100Y43950D03*
X4700Y43750D03*
X7550Y39700D03*
X10250Y40900D03*
X10850Y39800D03*
X23300Y47750D03*
X25700Y46200D03*
X25700Y45750D03*
X7353Y28113D03*
X15200Y25050D03*
X20680Y31030D03*
X8270Y27710D03*
X14520Y23510D03*
X6160Y43650D03*
X9650Y38500D03*
X15150Y39850D03*
X8300Y43200D03*
D162*
X13400Y8797D02*
X12872Y8269D01*
X13400Y8797D02*
X13400Y8800D01*
D161*
X13400Y8800D03*
X5450Y21070D03*
X5830Y21070D03*
X5830Y20690D03*
X5450Y20690D03*
X25110Y47730D03*
X12840Y39790D03*
X9020Y40060D03*
X10570Y44480D03*
X6140Y47130D03*
X5730Y44370D03*
X6550Y39600D03*
X21489Y29750D03*
X11790Y23550D03*
X14000Y24030D03*
X8550Y25680D03*
X9440Y28860D03*
D162*
X14445Y9842D02*
X13993Y9390D01*
X13990Y9390D01*
X13970Y9370D01*
X13970Y9360D01*
D161*
X13970Y9360D03*
X8250Y43661D03*
X9390Y44131D03*
X6950Y42470D03*
X5300Y30900D03*
X19680Y40800D03*
X21020Y42130D03*
X7050Y45050D03*
X6550Y28550D03*
X22300Y31500D03*
X5900Y39200D03*
X7650Y43600D03*
X10000Y29200D03*
X7350Y43300D03*
X23350Y31600D03*
D163*
X9640Y29725D02*
X9640Y29700D01*
X9640Y29725D02*
X5360Y34005D01*
D161*
X5200Y39410D03*
D163*
X5360Y39250D01*
X5360Y34005D01*
D161*
X9640Y29700D03*
X6350Y42550D03*
X11050Y29350D03*
X6400Y42150D03*
X11292Y29058D03*
X10580Y29340D03*
D163*
X5540Y34380D01*
X5540Y39660D02*
X5520Y39680D01*
D161*
X5520Y39680D03*
D163*
X5540Y39660D02*
X5540Y34380D01*
D161*
X4950Y39760D03*
D163*
X4060Y38870D02*
X4060Y30080D01*
X4060Y38870D02*
X4950Y39760D01*
X4060Y30080D02*
X4340Y29800D01*
D161*
X5100Y29800D03*
D163*
X4340Y29800D01*
D161*
X25600Y29300D03*
D163*
X24450Y30450D01*
D161*
X24450Y32450D03*
D163*
X24450Y30450D01*
D161*
X4111Y39680D03*
D163*
X3890Y39459D01*
X3890Y29840D01*
X4230Y29500D01*
X5400Y29500D02*
X5700Y29800D01*
X5650Y29800D01*
D161*
X5650Y29800D03*
D163*
X5400Y29500D02*
X4230Y29500D01*
D161*
X14050Y8050D03*
D163*
X13579Y7579D01*
X13579Y7562D01*
D161*
X14650Y8650D03*
D163*
X14667Y8650D01*
X15152Y9135D01*
D161*
X9770Y41800D03*
X8046Y42474D03*
X8000Y41650D03*
X19000Y39400D03*
D163*
X18550Y38950D01*
X18550Y29400D02*
X18650Y29300D01*
D161*
X18650Y29300D03*
D163*
X18550Y29400D02*
X18550Y38950D01*
D161*
X6950Y38950D03*
X13700Y26850D03*
M02*
