G04 EAGLE Gerber X2 export*
%TF.Part,Single*%
%TF.FileFunction,Profile,NP*%
%TF.FilePolarity,Positive*%
%TF.GenerationSoftware,Autodesk,EAGLE,9.0.1*%
%TF.CreationDate,2018-06-26T08:14:36Z*%
G75*
%MOIN*%
%FSLAX34Y34*%
%LPD*%
%AMOC8*
5,1,8,0,0,1.08239X$1,22.5*%
G01*
%ADD10C,0.010000*%


D10*
X0Y30805D02*
X4Y30504D01*
X20Y30203D01*
X47Y29903D01*
X86Y29604D01*
X137Y29306D01*
X200Y29011D01*
X274Y28719D01*
X359Y28430D01*
X456Y28144D01*
X563Y27863D01*
X682Y27585D01*
X811Y27313D01*
X951Y27046D01*
X1101Y26784D01*
X1261Y26528D01*
X1430Y26279D01*
X1609Y26036D01*
X1797Y25801D01*
X1994Y25573D01*
X2200Y25352D01*
X2414Y25140D01*
X2636Y24936D01*
X2497Y24661D01*
X2368Y24383D01*
X2248Y24099D01*
X2139Y23812D01*
X2040Y23521D01*
X1952Y23226D01*
X1874Y22929D01*
X1807Y22629D01*
X1750Y22327D01*
X1704Y22023D01*
X1669Y21718D01*
X1644Y21412D01*
X1625Y21103D01*
X1606Y20794D01*
X1587Y20485D01*
X1567Y20176D01*
X1548Y19868D01*
X1529Y19559D01*
X1510Y19250D01*
X1491Y18941D01*
X1472Y18633D01*
X1452Y18324D01*
X1433Y18015D01*
X1414Y17706D01*
X1395Y17397D01*
X1376Y17089D01*
X1357Y16780D01*
X1337Y16471D01*
X1318Y16162D01*
X1299Y15854D01*
X1280Y15545D01*
X1261Y15236D01*
X1241Y14927D01*
X1222Y14619D01*
X1203Y14310D01*
X1184Y14001D01*
X1165Y13692D01*
X1146Y13384D01*
X1126Y13075D01*
X1107Y12766D01*
X1088Y12457D01*
X1069Y12149D01*
X1050Y11840D01*
X1031Y11531D01*
X1011Y11222D01*
X992Y10913D01*
X973Y10605D01*
X954Y10296D01*
X935Y9987D01*
X916Y9678D01*
X896Y9370D01*
X883Y9071D01*
X880Y8773D01*
X888Y8474D01*
X905Y8176D01*
X933Y7879D01*
X970Y7583D01*
X1018Y7288D01*
X1076Y6995D01*
X1144Y6705D01*
X1222Y6416D01*
X1310Y6131D01*
X1408Y5849D01*
X1515Y5571D01*
X1632Y5296D01*
X1759Y5025D01*
X1894Y4759D01*
X2039Y4498D01*
X1869Y4268D01*
X1716Y4026D01*
X1578Y3776D01*
X1458Y3516D01*
X1355Y3249D01*
X1270Y2976D01*
X1204Y2698D01*
X1157Y2416D01*
X1129Y2131D01*
X1119Y1845D01*
X1145Y1547D01*
X1221Y1257D01*
X1347Y985D01*
X1519Y739D01*
X1731Y527D01*
X1977Y355D01*
X2249Y229D01*
X2538Y153D01*
X2837Y127D01*
X27001Y127D01*
X27298Y153D01*
X27587Y231D01*
X27857Y358D01*
X28102Y529D01*
X28313Y741D01*
X28483Y986D01*
X28608Y1258D01*
X28682Y1547D01*
X28703Y1845D01*
X28694Y2131D01*
X28665Y2416D01*
X28618Y2698D01*
X28552Y2976D01*
X28467Y3249D01*
X28364Y3516D01*
X28244Y3776D01*
X28106Y4026D01*
X27953Y4268D01*
X27783Y4498D01*
X27928Y4759D01*
X28063Y5025D01*
X28190Y5296D01*
X28307Y5571D01*
X28414Y5849D01*
X28512Y6131D01*
X28600Y6416D01*
X28678Y6705D01*
X28746Y6995D01*
X28804Y7288D01*
X28852Y7583D01*
X28889Y7879D01*
X28917Y8176D01*
X28934Y8474D01*
X28941Y8773D01*
X28939Y9071D01*
X28926Y9370D01*
X28906Y9678D01*
X28887Y9987D01*
X28868Y10296D01*
X28849Y10605D01*
X28830Y10913D01*
X28811Y11222D01*
X28791Y11531D01*
X28772Y11840D01*
X28753Y12148D01*
X28734Y12457D01*
X28715Y12766D01*
X28696Y13075D01*
X28676Y13384D01*
X28657Y13692D01*
X28638Y14001D01*
X28619Y14310D01*
X28600Y14619D01*
X28580Y14927D01*
X28561Y15236D01*
X28542Y15545D01*
X28523Y15854D01*
X28504Y16162D01*
X28485Y16471D01*
X28465Y16780D01*
X28446Y17089D01*
X28427Y17397D01*
X28408Y17706D01*
X28389Y18015D01*
X28370Y18324D01*
X28350Y18633D01*
X28331Y18941D01*
X28312Y19250D01*
X28293Y19559D01*
X28274Y19868D01*
X28255Y20176D01*
X28235Y20485D01*
X28216Y20794D01*
X28197Y21103D01*
X28178Y21412D01*
X28154Y21717D01*
X28120Y22022D01*
X28075Y22326D01*
X28020Y22628D01*
X27953Y22927D01*
X27876Y23224D01*
X27789Y23518D01*
X27691Y23809D01*
X27583Y24096D01*
X27464Y24379D01*
X27336Y24658D01*
X27198Y24932D01*
X27420Y25136D01*
X27634Y25349D01*
X27840Y25569D01*
X28038Y25797D01*
X28226Y26033D01*
X28405Y26276D01*
X28575Y26525D01*
X28735Y26781D01*
X28885Y27043D01*
X29025Y27310D01*
X29155Y27583D01*
X29273Y27860D01*
X29381Y28142D01*
X29478Y28427D01*
X29564Y28717D01*
X29638Y29009D01*
X29700Y29304D01*
X29751Y29602D01*
X29791Y29901D01*
X29818Y30202D01*
X29834Y30503D01*
X29838Y30805D01*
X29830Y31106D01*
X29810Y31407D01*
X29779Y31707D01*
X29737Y32006D01*
X29688Y32307D01*
X29639Y32608D01*
X29590Y32910D01*
X29541Y33211D01*
X29492Y33512D01*
X29443Y33813D01*
X29394Y34114D01*
X29345Y34415D01*
X29296Y34716D01*
X29247Y35018D01*
X29198Y35319D01*
X29149Y35620D01*
X29100Y35921D01*
X29051Y36222D01*
X29002Y36524D01*
X28953Y36825D01*
X28904Y37126D01*
X28906Y37132D01*
X28866Y37394D01*
X28807Y37676D01*
X28784Y37786D01*
X28720Y38089D01*
X28656Y38391D01*
X28593Y38694D01*
X28529Y38996D01*
X28465Y39299D01*
X28402Y39602D01*
X28338Y39904D01*
X28274Y40207D01*
X28211Y40509D01*
X28147Y40812D01*
X28083Y41114D01*
X28020Y41417D01*
X27956Y41719D01*
X27892Y42022D01*
X27829Y42324D01*
X27765Y42627D01*
X27701Y42929D01*
X27638Y43232D01*
X27574Y43534D01*
X27510Y43837D01*
X27447Y44139D01*
X27383Y44442D01*
X27319Y44744D01*
X27256Y45047D01*
X27192Y45349D01*
X27128Y45652D01*
X27065Y45955D01*
X27001Y46257D01*
X26937Y46559D01*
X26874Y46862D01*
X26810Y47165D01*
X26746Y47467D01*
X26683Y47770D01*
X26619Y48072D01*
X26555Y48375D01*
X26492Y48677D01*
X26406Y48962D01*
X26271Y49226D01*
X26091Y49462D01*
X25870Y49661D01*
X25618Y49818D01*
X25342Y49928D01*
X25051Y49988D01*
X24754Y49997D01*
X24460Y49953D01*
X24179Y49856D01*
X23921Y49710D01*
X23692Y49520D01*
X23472Y49305D01*
X23253Y49090D01*
X23033Y48874D01*
X22813Y48659D01*
X22594Y48443D01*
X22374Y48228D01*
X22154Y48013D01*
X21935Y47797D01*
X21715Y47582D01*
X21495Y47367D01*
X21276Y47151D01*
X21056Y46936D01*
X20836Y46720D01*
X20617Y46505D01*
X20397Y46290D01*
X20178Y46074D01*
X19958Y45859D01*
X19738Y45644D01*
X19519Y45428D01*
X19299Y45213D01*
X19079Y44998D01*
X18860Y44782D01*
X18640Y44567D01*
X18421Y44352D01*
X18201Y44136D01*
X17981Y43921D01*
X11889Y43921D01*
X11669Y44136D01*
X11449Y44352D01*
X11230Y44567D01*
X11010Y44782D01*
X10790Y44998D01*
X10571Y45213D01*
X10351Y45429D01*
X10131Y45644D01*
X9912Y45859D01*
X9692Y46075D01*
X9472Y46290D01*
X9253Y46505D01*
X9033Y46721D01*
X8813Y46936D01*
X8594Y47151D01*
X8374Y47367D01*
X8155Y47582D01*
X7935Y47797D01*
X7715Y48013D01*
X7496Y48228D01*
X7276Y48443D01*
X7056Y48659D01*
X6837Y48874D01*
X6617Y49089D01*
X6397Y49305D01*
X6178Y49520D01*
X5937Y49718D01*
X5664Y49867D01*
X5368Y49962D01*
X5059Y49999D01*
X4769Y49982D01*
X4487Y49915D01*
X4220Y49802D01*
X3977Y49644D01*
X3765Y49447D01*
X3591Y49214D01*
X3461Y48955D01*
X3378Y48677D01*
X3315Y48380D01*
X3252Y48082D01*
X3189Y47785D01*
X3126Y47487D01*
X3063Y47190D01*
X3000Y46893D01*
X2937Y46595D01*
X2874Y46298D01*
X2811Y46000D01*
X2748Y45703D01*
X2685Y45405D01*
X2622Y45108D01*
X2559Y44811D01*
X2496Y44513D01*
X2433Y44216D01*
X2370Y43918D01*
X2307Y43621D01*
X2244Y43323D01*
X2181Y43026D01*
X2118Y42728D01*
X2055Y42431D01*
X1992Y42133D01*
X1929Y41836D01*
X1866Y41539D01*
X1803Y41241D01*
X1740Y40944D01*
X1677Y40646D01*
X1614Y40349D01*
X1551Y40051D01*
X1488Y39754D01*
X1425Y39457D01*
X1362Y39159D01*
X1299Y38862D01*
X1236Y38564D01*
X1173Y38267D01*
X1096Y37975D01*
X1030Y37680D01*
X976Y37383D01*
X944Y37186D01*
X928Y37112D01*
X932Y37115D01*
X884Y36814D01*
X835Y36514D01*
X786Y36213D01*
X737Y35913D01*
X688Y35612D01*
X639Y35312D01*
X590Y35011D01*
X541Y34711D01*
X492Y34410D01*
X443Y34110D01*
X395Y33809D01*
X346Y33509D01*
X297Y33208D01*
X248Y32907D01*
X199Y32607D01*
X150Y32306D01*
X101Y32006D01*
X59Y31708D01*
X28Y31408D01*
X8Y31107D01*
X0Y30805D01*
M02*
