G04 EAGLE Gerber X2 export*
%TF.Part,Single*%
%TF.FileFunction,Paste,Bot*%
%TF.FilePolarity,Positive*%
%TF.GenerationSoftware,Autodesk,EAGLE,9.0.1*%
%TF.CreationDate,2018-06-26T08:14:36Z*%
G75*
%MOIN*%
%FSLAX34Y34*%
%LPD*%
%AMOC8*
5,1,8,0,0,1.08239X$1,22.5*%
G01*
%ADD10R,0.011811X0.047244*%
%ADD11R,0.047244X0.011811*%
%ADD12R,0.033465X0.098425*%
%ADD13R,0.051181X0.059055*%
%ADD14R,0.059055X0.051181*%
%ADD15R,0.022000X0.052000*%
%ADD16R,0.052000X0.022000*%
%ADD17R,0.098425X0.025591*%
%ADD18C,0.003031*%
%ADD19R,0.031000X0.035000*%
%ADD20R,0.039000X0.061000*%
%ADD21R,0.200000X0.100000*%
%ADD22R,0.040157X0.124803*%


D10*
X8229Y41096D03*
X8032Y41096D03*
X7835Y41096D03*
X7638Y41096D03*
X7441Y41096D03*
X7244Y41096D03*
X7048Y41096D03*
X6851Y41096D03*
X6654Y41096D03*
X6457Y41096D03*
X6260Y41096D03*
X6063Y41096D03*
D11*
X5473Y41687D03*
X5473Y41883D03*
X5473Y42080D03*
X5473Y42277D03*
X5473Y42474D03*
X5473Y42671D03*
X5473Y42868D03*
X5473Y43065D03*
X5473Y43261D03*
X5473Y43458D03*
X5473Y43655D03*
X5473Y43852D03*
D10*
X6063Y44443D03*
X6260Y44443D03*
X6457Y44443D03*
X6654Y44443D03*
X6851Y44443D03*
X7048Y44443D03*
X7244Y44443D03*
X7441Y44443D03*
X7638Y44443D03*
X7835Y44443D03*
X8032Y44443D03*
X8229Y44443D03*
D11*
X8819Y43852D03*
X8819Y43655D03*
X8819Y43458D03*
X8819Y43261D03*
X8819Y43065D03*
X8819Y42868D03*
X8819Y42671D03*
X8819Y42474D03*
X8819Y42277D03*
X8819Y42080D03*
X8819Y41883D03*
X8819Y41687D03*
D12*
X6560Y22666D03*
X5595Y22666D03*
D13*
X8064Y23046D03*
X7316Y23046D03*
X9720Y23059D03*
X8972Y23059D03*
X8996Y22106D03*
X9744Y22106D03*
X5636Y21646D03*
X6384Y21646D03*
X7326Y23886D03*
X8074Y23886D03*
X8044Y20666D03*
X7296Y20666D03*
D14*
X5625Y34800D03*
X5625Y34052D03*
X2978Y33250D03*
X2978Y32502D03*
X3812Y34180D03*
X3812Y33432D03*
X23766Y34700D03*
X23766Y33952D03*
X22889Y35700D03*
X22889Y34952D03*
X21135Y37700D03*
X21135Y36952D03*
X8094Y37800D03*
X8094Y37052D03*
X7271Y36850D03*
X7271Y36102D03*
X6448Y35800D03*
X6448Y35052D03*
X2145Y32200D03*
X2145Y31452D03*
X1312Y31180D03*
X1312Y30432D03*
X27846Y31150D03*
X27846Y30402D03*
X26143Y34200D03*
X26143Y33452D03*
X22012Y36700D03*
X22012Y35952D03*
X20259Y38650D03*
X20259Y37902D03*
X8918Y38800D03*
X8918Y38052D03*
D15*
X8251Y29893D03*
X7881Y29893D03*
X7511Y29893D03*
X7511Y30973D03*
X8251Y30973D03*
D16*
X22326Y30329D03*
X22326Y30699D03*
X22326Y31069D03*
X23406Y31069D03*
X23406Y30329D03*
D17*
X24943Y46721D03*
X23368Y46721D03*
X24943Y46221D03*
X23368Y46221D03*
X24943Y45721D03*
X23368Y45721D03*
X24943Y45221D03*
X23368Y45221D03*
X24943Y44721D03*
X23368Y44721D03*
D14*
X26969Y33200D03*
X26969Y32452D03*
D13*
X8824Y29050D03*
X8076Y29050D03*
D14*
X21500Y30276D03*
X21500Y31024D03*
D13*
X24534Y47730D03*
X23786Y47730D03*
D18*
X7432Y21439D02*
X6974Y21439D01*
X6974Y21625D01*
X7432Y21625D01*
X7432Y21439D01*
X7432Y21468D02*
X6974Y21468D01*
X6974Y21497D02*
X7432Y21497D01*
X7432Y21526D02*
X6974Y21526D01*
X6974Y21555D02*
X7432Y21555D01*
X7432Y21584D02*
X6974Y21584D01*
X6974Y21613D02*
X7432Y21613D01*
X7432Y21813D02*
X6974Y21813D01*
X6974Y21999D01*
X7432Y21999D01*
X7432Y21813D01*
X7432Y21842D02*
X6974Y21842D01*
X6974Y21871D02*
X7432Y21871D01*
X7432Y21900D02*
X6974Y21900D01*
X6974Y21929D02*
X7432Y21929D01*
X7432Y21958D02*
X6974Y21958D01*
X6974Y21987D02*
X7432Y21987D01*
X7432Y22187D02*
X6974Y22187D01*
X6974Y22373D01*
X7432Y22373D01*
X7432Y22187D01*
X7432Y22216D02*
X6974Y22216D01*
X6974Y22245D02*
X7432Y22245D01*
X7432Y22274D02*
X6974Y22274D01*
X6974Y22303D02*
X7432Y22303D01*
X7432Y22332D02*
X6974Y22332D01*
X6974Y22361D02*
X7432Y22361D01*
X7907Y22187D02*
X8365Y22187D01*
X7907Y22187D02*
X7907Y22373D01*
X8365Y22373D01*
X8365Y22187D01*
X8365Y22216D02*
X7907Y22216D01*
X7907Y22245D02*
X8365Y22245D01*
X8365Y22274D02*
X7907Y22274D01*
X7907Y22303D02*
X8365Y22303D01*
X8365Y22332D02*
X7907Y22332D01*
X7907Y22361D02*
X8365Y22361D01*
X8365Y21439D02*
X7907Y21439D01*
X7907Y21625D01*
X8365Y21625D01*
X8365Y21439D01*
X8365Y21468D02*
X7907Y21468D01*
X7907Y21497D02*
X8365Y21497D01*
X8365Y21526D02*
X7907Y21526D01*
X7907Y21555D02*
X8365Y21555D01*
X8365Y21584D02*
X7907Y21584D01*
X7907Y21613D02*
X8365Y21613D01*
D14*
X11348Y26202D03*
X11348Y26950D03*
D16*
X9428Y26235D03*
X9428Y26605D03*
X9428Y26975D03*
X10508Y26975D03*
X10508Y26235D03*
D13*
X8545Y26271D03*
X7797Y26271D03*
D14*
X13448Y24780D03*
X13448Y24031D03*
X11791Y24780D03*
X11791Y24031D03*
X12621Y24031D03*
X12621Y24780D03*
X10929Y24027D03*
X10929Y24775D03*
D19*
X1682Y29030D03*
X2442Y29030D03*
X2062Y28230D03*
D14*
X2500Y27474D03*
X2500Y26726D03*
D13*
X4614Y24798D03*
X3866Y24798D03*
X9224Y44660D03*
X9972Y44660D03*
D14*
X6780Y46364D03*
X6780Y47112D03*
D13*
X6376Y40120D03*
X7124Y40120D03*
D14*
X12240Y40516D03*
X12240Y39768D03*
X11390Y39784D03*
X11390Y40532D03*
D20*
X15692Y26193D03*
X15692Y28483D03*
X14692Y26193D03*
X14692Y28483D03*
X13692Y26193D03*
X13692Y28483D03*
X12692Y26193D03*
X12692Y28483D03*
D13*
X9026Y40900D03*
X9774Y40900D03*
X5244Y44390D03*
X4496Y44390D03*
D21*
X14520Y20710D03*
X14520Y22710D03*
D22*
G36*
X4396Y26807D02*
X4165Y26478D01*
X3144Y27193D01*
X3375Y27522D01*
X4396Y26807D01*
G37*
G36*
X4970Y27626D02*
X4739Y27297D01*
X3718Y28012D01*
X3949Y28341D01*
X4970Y27626D01*
G37*
G36*
X5543Y28445D02*
X5312Y28116D01*
X4291Y28831D01*
X4522Y29160D01*
X5543Y28445D01*
G37*
M02*
