G04 EAGLE Gerber X2 export*
%TF.Part,Single*%
%TF.FileFunction,Copper,L2,Inr,Mixed*%
%TF.FilePolarity,Positive*%
%TF.GenerationSoftware,Autodesk,EAGLE,9.0.1*%
%TF.CreationDate,2018-06-27T06:52:03Z*%
G75*
%MOMM*%
%FSLAX34Y34*%
%LPD*%
%AMOC8*
5,1,8,0,0,1.08239X$1,22.5*%
G01*
%ADD10C,1.508000*%
%ADD11C,0.756400*%
%ADD12C,0.508000*%
%ADD13C,0.254000*%

G36*
X393290Y505219D02*
X393290Y505219D01*
X393389Y505222D01*
X393447Y505239D01*
X393508Y505247D01*
X393600Y505283D01*
X393695Y505311D01*
X393747Y505341D01*
X393803Y505364D01*
X393883Y505422D01*
X393969Y505472D01*
X394044Y505538D01*
X394061Y505550D01*
X394068Y505560D01*
X394090Y505579D01*
X404758Y516247D01*
X404818Y516325D01*
X404886Y516397D01*
X404915Y516450D01*
X404952Y516498D01*
X404992Y516589D01*
X405040Y516675D01*
X405055Y516734D01*
X405079Y516790D01*
X405094Y516888D01*
X405119Y516983D01*
X405125Y517083D01*
X405129Y517104D01*
X405127Y517116D01*
X405129Y517144D01*
X405129Y564634D01*
X406221Y645397D01*
X406206Y645524D01*
X406198Y645651D01*
X406189Y645681D01*
X406185Y645713D01*
X406140Y645832D01*
X406100Y645953D01*
X406083Y645980D01*
X406072Y646010D01*
X405999Y646114D01*
X405930Y646222D01*
X405907Y646244D01*
X405889Y646270D01*
X405792Y646353D01*
X405699Y646440D01*
X405671Y646455D01*
X405646Y646476D01*
X405532Y646532D01*
X405420Y646594D01*
X405389Y646602D01*
X405361Y646616D01*
X405236Y646641D01*
X405112Y646673D01*
X405066Y646676D01*
X405049Y646680D01*
X405027Y646678D01*
X404952Y646683D01*
X311168Y646683D01*
X304799Y653052D01*
X304799Y696468D01*
X304787Y696566D01*
X304784Y696665D01*
X304767Y696723D01*
X304759Y696784D01*
X304723Y696876D01*
X304695Y696971D01*
X304665Y697023D01*
X304642Y697079D01*
X304584Y697159D01*
X304534Y697245D01*
X304468Y697320D01*
X304456Y697337D01*
X304446Y697344D01*
X304428Y697366D01*
X295538Y706256D01*
X295459Y706316D01*
X295387Y706384D01*
X295334Y706413D01*
X295286Y706450D01*
X295195Y706490D01*
X295109Y706538D01*
X295050Y706553D01*
X294994Y706577D01*
X294896Y706592D01*
X294801Y706617D01*
X294701Y706623D01*
X294680Y706627D01*
X294668Y706625D01*
X294640Y706627D01*
X271290Y706627D01*
X260485Y717432D01*
X260407Y717492D01*
X260335Y717560D01*
X260282Y717589D01*
X260234Y717626D01*
X260143Y717666D01*
X260057Y717714D01*
X259998Y717729D01*
X259942Y717753D01*
X259844Y717768D01*
X259749Y717793D01*
X259649Y717799D01*
X259628Y717803D01*
X259616Y717801D01*
X259588Y717803D01*
X201419Y717803D01*
X172580Y746642D01*
X172502Y746702D01*
X172430Y746770D01*
X172377Y746799D01*
X172329Y746836D01*
X172238Y746876D01*
X172151Y746924D01*
X172093Y746939D01*
X172037Y746963D01*
X171939Y746978D01*
X171843Y747003D01*
X171743Y747009D01*
X171723Y747013D01*
X171711Y747011D01*
X171683Y747013D01*
X158517Y747013D01*
X158419Y747001D01*
X158320Y746998D01*
X158262Y746981D01*
X158202Y746973D01*
X158110Y746937D01*
X158014Y746909D01*
X157962Y746879D01*
X157906Y746856D01*
X157826Y746798D01*
X157741Y746748D01*
X157665Y746682D01*
X157649Y746670D01*
X157641Y746660D01*
X157620Y746642D01*
X152911Y741933D01*
X107947Y741933D01*
X71881Y777999D01*
X71881Y1037583D01*
X128277Y1093979D01*
X162411Y1093979D01*
X171423Y1084967D01*
X171423Y1084816D01*
X171429Y1084767D01*
X171427Y1084717D01*
X171449Y1084609D01*
X171463Y1084500D01*
X171481Y1084454D01*
X171491Y1084406D01*
X171539Y1084307D01*
X171580Y1084205D01*
X171609Y1084165D01*
X171631Y1084120D01*
X171702Y1084036D01*
X171766Y1083947D01*
X171805Y1083916D01*
X171837Y1083878D01*
X171927Y1083815D01*
X172011Y1083745D01*
X172056Y1083723D01*
X172097Y1083695D01*
X172200Y1083656D01*
X172299Y1083609D01*
X172348Y1083600D01*
X172394Y1083582D01*
X172504Y1083570D01*
X172611Y1083549D01*
X172661Y1083552D01*
X172710Y1083547D01*
X172819Y1083562D01*
X172929Y1083569D01*
X172976Y1083584D01*
X173025Y1083591D01*
X173178Y1083643D01*
X175373Y1084553D01*
X177687Y1084553D01*
X179824Y1083668D01*
X181460Y1082032D01*
X182345Y1079895D01*
X182345Y1077581D01*
X181460Y1075444D01*
X179950Y1073935D01*
X179890Y1073857D01*
X179822Y1073785D01*
X179793Y1073732D01*
X179756Y1073684D01*
X179716Y1073593D01*
X179668Y1073506D01*
X179653Y1073448D01*
X179629Y1073392D01*
X179614Y1073294D01*
X179589Y1073198D01*
X179583Y1073098D01*
X179579Y1073078D01*
X179581Y1073066D01*
X179579Y1073038D01*
X179579Y1071887D01*
X165855Y1058163D01*
X153173Y1058163D01*
X153074Y1058151D01*
X152975Y1058148D01*
X152917Y1058131D01*
X152857Y1058123D01*
X152765Y1058087D01*
X152670Y1058059D01*
X152618Y1058029D01*
X152561Y1058006D01*
X152481Y1057948D01*
X152396Y1057898D01*
X152321Y1057832D01*
X152304Y1057820D01*
X152296Y1057810D01*
X152275Y1057792D01*
X122066Y1027583D01*
X122006Y1027505D01*
X121938Y1027433D01*
X121909Y1027380D01*
X121872Y1027332D01*
X121832Y1027241D01*
X121784Y1027154D01*
X121769Y1027095D01*
X121745Y1027040D01*
X121730Y1026942D01*
X121705Y1026846D01*
X121699Y1026746D01*
X121695Y1026726D01*
X121697Y1026713D01*
X121695Y1026685D01*
X121695Y1016426D01*
X121701Y1016377D01*
X121699Y1016327D01*
X121721Y1016220D01*
X121735Y1016110D01*
X121753Y1016064D01*
X121763Y1016016D01*
X121811Y1015917D01*
X121852Y1015815D01*
X121881Y1015774D01*
X121903Y1015730D01*
X121974Y1015646D01*
X122038Y1015557D01*
X122077Y1015526D01*
X122109Y1015488D01*
X122199Y1015425D01*
X122283Y1015355D01*
X122328Y1015333D01*
X122369Y1015305D01*
X122472Y1015266D01*
X122571Y1015219D01*
X122620Y1015210D01*
X122666Y1015192D01*
X122776Y1015180D01*
X122883Y1015159D01*
X122933Y1015162D01*
X122982Y1015157D01*
X123091Y1015172D01*
X123201Y1015179D01*
X123248Y1015194D01*
X123297Y1015201D01*
X123450Y1015253D01*
X124573Y1015719D01*
X126887Y1015719D01*
X129024Y1014834D01*
X130660Y1013198D01*
X131545Y1011061D01*
X131545Y1008747D01*
X131477Y1008584D01*
X131464Y1008536D01*
X131443Y1008491D01*
X131422Y1008383D01*
X131393Y1008277D01*
X131392Y1008227D01*
X131383Y1008178D01*
X131390Y1008069D01*
X131388Y1007959D01*
X131400Y1007911D01*
X131403Y1007861D01*
X131436Y1007757D01*
X131462Y1007650D01*
X131485Y1007606D01*
X131501Y1007559D01*
X131559Y1007466D01*
X131611Y1007369D01*
X131644Y1007332D01*
X131671Y1007290D01*
X131751Y1007215D01*
X131825Y1007133D01*
X131866Y1007106D01*
X131902Y1007072D01*
X131999Y1007019D01*
X132090Y1006959D01*
X132137Y1006942D01*
X132181Y1006918D01*
X132287Y1006891D01*
X132391Y1006855D01*
X132441Y1006851D01*
X132489Y1006839D01*
X132650Y1006829D01*
X133124Y1006829D01*
X133242Y1006844D01*
X133361Y1006851D01*
X133399Y1006864D01*
X133440Y1006869D01*
X133550Y1006912D01*
X133663Y1006949D01*
X133698Y1006971D01*
X133735Y1006986D01*
X133831Y1007055D01*
X133932Y1007119D01*
X133960Y1007149D01*
X133993Y1007172D01*
X134069Y1007264D01*
X134150Y1007351D01*
X134170Y1007386D01*
X134195Y1007417D01*
X134246Y1007525D01*
X134304Y1007629D01*
X134314Y1007669D01*
X134331Y1007705D01*
X134353Y1007822D01*
X134383Y1007937D01*
X134387Y1007997D01*
X134391Y1008017D01*
X134389Y1008038D01*
X134393Y1008098D01*
X134393Y1009029D01*
X135278Y1011166D01*
X136914Y1012802D01*
X139051Y1013687D01*
X141365Y1013687D01*
X143502Y1012802D01*
X145138Y1011166D01*
X145760Y1009662D01*
X145785Y1009619D01*
X145802Y1009572D01*
X145864Y1009481D01*
X145918Y1009386D01*
X145952Y1009350D01*
X145980Y1009309D01*
X146063Y1009236D01*
X146139Y1009157D01*
X146182Y1009131D01*
X146219Y1009099D01*
X146317Y1009049D01*
X146410Y1008991D01*
X146458Y1008977D01*
X146502Y1008954D01*
X146609Y1008930D01*
X146714Y1008898D01*
X146764Y1008895D01*
X146812Y1008884D01*
X146922Y1008888D01*
X147032Y1008882D01*
X147080Y1008892D01*
X147130Y1008894D01*
X147236Y1008925D01*
X147343Y1008947D01*
X147388Y1008969D01*
X147436Y1008982D01*
X147530Y1009038D01*
X147629Y1009086D01*
X147667Y1009119D01*
X147710Y1009144D01*
X147830Y1009250D01*
X190890Y1052309D01*
X190950Y1052388D01*
X191018Y1052460D01*
X191047Y1052513D01*
X191084Y1052561D01*
X191124Y1052652D01*
X191172Y1052738D01*
X191187Y1052797D01*
X191211Y1052853D01*
X191226Y1052950D01*
X191251Y1053046D01*
X191257Y1053146D01*
X191261Y1053167D01*
X191259Y1053179D01*
X191261Y1053207D01*
X191261Y1093520D01*
X191255Y1093569D01*
X191257Y1093619D01*
X191235Y1093726D01*
X191221Y1093836D01*
X191203Y1093882D01*
X191193Y1093930D01*
X191145Y1094029D01*
X191104Y1094131D01*
X191075Y1094172D01*
X191053Y1094216D01*
X190982Y1094300D01*
X190918Y1094389D01*
X190879Y1094420D01*
X190847Y1094458D01*
X190757Y1094521D01*
X190673Y1094591D01*
X190628Y1094613D01*
X190587Y1094641D01*
X190484Y1094680D01*
X190385Y1094727D01*
X190336Y1094736D01*
X190290Y1094754D01*
X190180Y1094766D01*
X190073Y1094787D01*
X190023Y1094784D01*
X189974Y1094789D01*
X189865Y1094774D01*
X189755Y1094767D01*
X189708Y1094752D01*
X189659Y1094745D01*
X189506Y1094693D01*
X187847Y1094005D01*
X185533Y1094005D01*
X183396Y1094890D01*
X181760Y1096526D01*
X180875Y1098663D01*
X180875Y1100977D01*
X181760Y1103114D01*
X183397Y1104750D01*
X183419Y1104763D01*
X183447Y1104772D01*
X183557Y1104842D01*
X183670Y1104906D01*
X183691Y1104927D01*
X183716Y1104942D01*
X183805Y1105037D01*
X183898Y1105127D01*
X183914Y1105152D01*
X183934Y1105174D01*
X183997Y1105288D01*
X184065Y1105398D01*
X184073Y1105427D01*
X184088Y1105452D01*
X184120Y1105578D01*
X184158Y1105702D01*
X184160Y1105732D01*
X184167Y1105760D01*
X184177Y1105921D01*
X184177Y1111637D01*
X190113Y1117573D01*
X198507Y1117573D01*
X202285Y1113795D01*
X203310Y1112770D01*
X203404Y1112697D01*
X203493Y1112618D01*
X203529Y1112600D01*
X203561Y1112575D01*
X203670Y1112528D01*
X203776Y1112474D01*
X203816Y1112465D01*
X203853Y1112449D01*
X203971Y1112430D01*
X204087Y1112404D01*
X204127Y1112405D01*
X204167Y1112399D01*
X204286Y1112410D01*
X204405Y1112414D01*
X204443Y1112425D01*
X204484Y1112429D01*
X204596Y1112469D01*
X204710Y1112502D01*
X204745Y1112523D01*
X204783Y1112536D01*
X204882Y1112603D01*
X204984Y1112664D01*
X205029Y1112703D01*
X205046Y1112715D01*
X205060Y1112730D01*
X205105Y1112770D01*
X206256Y1113922D01*
X208393Y1114807D01*
X210707Y1114807D01*
X212844Y1113922D01*
X214353Y1112412D01*
X214431Y1112352D01*
X214503Y1112284D01*
X214556Y1112255D01*
X214604Y1112218D01*
X214695Y1112178D01*
X214782Y1112130D01*
X214840Y1112115D01*
X214896Y1112091D01*
X214994Y1112076D01*
X215090Y1112051D01*
X215190Y1112045D01*
X215210Y1112041D01*
X215222Y1112043D01*
X215250Y1112041D01*
X225061Y1112041D01*
X225160Y1112053D01*
X225259Y1112056D01*
X225317Y1112073D01*
X225377Y1112081D01*
X225469Y1112117D01*
X225564Y1112145D01*
X225616Y1112175D01*
X225673Y1112198D01*
X225753Y1112256D01*
X225838Y1112306D01*
X225913Y1112372D01*
X225930Y1112384D01*
X225938Y1112394D01*
X225959Y1112412D01*
X232320Y1118773D01*
X232380Y1118851D01*
X232448Y1118923D01*
X232477Y1118976D01*
X232514Y1119024D01*
X232554Y1119115D01*
X232602Y1119202D01*
X232617Y1119261D01*
X232641Y1119316D01*
X232656Y1119414D01*
X232681Y1119510D01*
X232687Y1119610D01*
X232691Y1119630D01*
X232689Y1119643D01*
X232691Y1119671D01*
X232691Y1122081D01*
X233576Y1124218D01*
X235212Y1125854D01*
X237349Y1126739D01*
X239663Y1126739D01*
X241800Y1125854D01*
X243436Y1124218D01*
X244321Y1122081D01*
X244321Y1119767D01*
X243436Y1117630D01*
X241800Y1115994D01*
X239663Y1115109D01*
X237805Y1115109D01*
X237706Y1115097D01*
X237607Y1115094D01*
X237549Y1115077D01*
X237489Y1115069D01*
X237397Y1115033D01*
X237302Y1115005D01*
X237250Y1114975D01*
X237193Y1114952D01*
X237113Y1114894D01*
X237028Y1114844D01*
X236953Y1114778D01*
X236936Y1114766D01*
X236928Y1114756D01*
X236907Y1114738D01*
X228113Y1105943D01*
X215250Y1105943D01*
X215152Y1105931D01*
X215053Y1105928D01*
X214995Y1105911D01*
X214935Y1105903D01*
X214843Y1105867D01*
X214748Y1105839D01*
X214695Y1105809D01*
X214639Y1105786D01*
X214559Y1105728D01*
X214474Y1105678D01*
X214398Y1105612D01*
X214382Y1105600D01*
X214374Y1105590D01*
X214353Y1105572D01*
X212844Y1104062D01*
X210707Y1103177D01*
X208393Y1103177D01*
X206198Y1104087D01*
X206150Y1104100D01*
X206105Y1104121D01*
X205997Y1104142D01*
X205891Y1104171D01*
X205841Y1104171D01*
X205792Y1104181D01*
X205683Y1104174D01*
X205573Y1104176D01*
X205525Y1104164D01*
X205475Y1104161D01*
X205371Y1104127D01*
X205264Y1104102D01*
X205220Y1104078D01*
X205173Y1104063D01*
X205080Y1104004D01*
X204983Y1103953D01*
X204946Y1103919D01*
X204904Y1103893D01*
X204829Y1103813D01*
X204747Y1103739D01*
X204720Y1103697D01*
X204686Y1103661D01*
X204633Y1103565D01*
X204573Y1103473D01*
X204556Y1103426D01*
X204532Y1103383D01*
X204505Y1103276D01*
X204469Y1103172D01*
X204465Y1103123D01*
X204453Y1103075D01*
X204443Y1102914D01*
X204443Y1094525D01*
X204455Y1094426D01*
X204458Y1094327D01*
X204475Y1094269D01*
X204483Y1094209D01*
X204519Y1094117D01*
X204547Y1094022D01*
X204577Y1093970D01*
X204600Y1093913D01*
X204658Y1093833D01*
X204708Y1093748D01*
X204774Y1093673D01*
X204786Y1093656D01*
X204796Y1093648D01*
X204814Y1093627D01*
X209097Y1089344D01*
X209175Y1089284D01*
X209247Y1089216D01*
X209300Y1089187D01*
X209348Y1089150D01*
X209439Y1089110D01*
X209526Y1089062D01*
X209585Y1089047D01*
X209640Y1089023D01*
X209738Y1089008D01*
X209834Y1088983D01*
X209934Y1088977D01*
X209954Y1088973D01*
X209967Y1088975D01*
X209995Y1088973D01*
X421315Y1088973D01*
X507987Y1002301D01*
X508090Y1002221D01*
X508190Y1002136D01*
X508216Y1002124D01*
X508238Y1002106D01*
X508359Y1002054D01*
X508476Y1001997D01*
X508504Y1001991D01*
X508530Y1001980D01*
X508660Y1001959D01*
X508788Y1001933D01*
X508816Y1001935D01*
X508844Y1001930D01*
X508975Y1001943D01*
X509105Y1001949D01*
X509132Y1001957D01*
X509161Y1001960D01*
X509284Y1002004D01*
X509409Y1002043D01*
X509433Y1002058D01*
X509460Y1002068D01*
X509569Y1002141D01*
X509680Y1002210D01*
X509710Y1002237D01*
X509723Y1002246D01*
X509738Y1002263D01*
X509799Y1002319D01*
X679220Y1178333D01*
X679256Y1178380D01*
X679298Y1178421D01*
X679351Y1178507D01*
X679411Y1178588D01*
X679433Y1178642D01*
X679464Y1178693D01*
X679493Y1178789D01*
X679531Y1178882D01*
X679539Y1178940D01*
X679557Y1178997D01*
X679561Y1179097D01*
X679575Y1179197D01*
X679568Y1179256D01*
X679571Y1179315D01*
X679548Y1179474D01*
X679379Y1180276D01*
X679353Y1180400D01*
X678849Y1182797D01*
X678849Y1182798D01*
X677232Y1190480D01*
X675614Y1198167D01*
X674279Y1204509D01*
X672910Y1211014D01*
X672910Y1211015D01*
X672531Y1212813D01*
X672531Y1212814D01*
X672379Y1213535D01*
X672379Y1213536D01*
X671003Y1220074D01*
X669675Y1226383D01*
X669675Y1226384D01*
X669325Y1228050D01*
X669145Y1228904D01*
X669145Y1228905D01*
X667850Y1235058D01*
X667843Y1235078D01*
X667823Y1235163D01*
X665893Y1241572D01*
X665880Y1241602D01*
X665873Y1241634D01*
X665809Y1241781D01*
X662921Y1247462D01*
X662900Y1247492D01*
X662886Y1247525D01*
X662797Y1247659D01*
X658931Y1252708D01*
X658906Y1252733D01*
X658886Y1252763D01*
X658774Y1252878D01*
X654049Y1257147D01*
X654021Y1257166D01*
X653998Y1257190D01*
X653867Y1257283D01*
X648438Y1260651D01*
X648409Y1260664D01*
X648384Y1260683D01*
X648239Y1260752D01*
X642287Y1263124D01*
X642257Y1263132D01*
X642230Y1263145D01*
X642075Y1263188D01*
X635798Y1264490D01*
X635767Y1264493D01*
X635737Y1264501D01*
X635577Y1264516D01*
X629184Y1264701D01*
X629151Y1264697D01*
X629118Y1264701D01*
X628958Y1264687D01*
X622655Y1263735D01*
X622622Y1263725D01*
X622587Y1263722D01*
X622431Y1263679D01*
X616415Y1261606D01*
X616383Y1261590D01*
X616349Y1261581D01*
X616204Y1261511D01*
X610653Y1258376D01*
X610628Y1258357D01*
X610599Y1258343D01*
X610468Y1258248D01*
X605308Y1253977D01*
X605293Y1253961D01*
X605229Y1253906D01*
X600762Y1249526D01*
X599360Y1248151D01*
X598923Y1247723D01*
X598922Y1247722D01*
X593745Y1242646D01*
X589607Y1238589D01*
X589607Y1238588D01*
X587934Y1236948D01*
X587767Y1236785D01*
X584026Y1233117D01*
X583264Y1232369D01*
X583263Y1232369D01*
X582187Y1231314D01*
X582186Y1231313D01*
X577579Y1226795D01*
X572865Y1222174D01*
X572241Y1221561D01*
X571026Y1220371D01*
X571025Y1220370D01*
X565989Y1215432D01*
X561707Y1211234D01*
X561707Y1211233D01*
X561009Y1210549D01*
X559869Y1209431D01*
X559868Y1209430D01*
X555498Y1205146D01*
X550550Y1200294D01*
X549254Y1199024D01*
X548711Y1198491D01*
X548710Y1198490D01*
X544970Y1194823D01*
X544054Y1193926D01*
X543131Y1193020D01*
X543130Y1193019D01*
X538120Y1188107D01*
X533812Y1183883D01*
X533811Y1183882D01*
X532562Y1182658D01*
X532562Y1182657D01*
X531972Y1182079D01*
X526393Y1176609D01*
X526392Y1176608D01*
X522095Y1172396D01*
X522095Y1172395D01*
X517077Y1167474D01*
X517076Y1167474D01*
X516274Y1166688D01*
X515238Y1165671D01*
X515237Y1165671D01*
X510176Y1160708D01*
X505919Y1156535D01*
X505294Y1155922D01*
X504080Y1154732D01*
X504080Y1154731D01*
X499415Y1150158D01*
X494760Y1145594D01*
X489183Y1140125D01*
X488356Y1139314D01*
X487343Y1138321D01*
X482729Y1133798D01*
X478025Y1129185D01*
X478024Y1129185D01*
X476668Y1127854D01*
X476185Y1127381D01*
X472447Y1123716D01*
X470808Y1122109D01*
X470608Y1121913D01*
X470607Y1121912D01*
X465874Y1117272D01*
X460389Y1111894D01*
X460387Y1111891D01*
X460380Y1111885D01*
X459653Y1111157D01*
X458696Y1110772D01*
X458693Y1110770D01*
X458685Y1110767D01*
X457733Y1110373D01*
X456702Y1110383D01*
X456698Y1110383D01*
X456689Y1110383D01*
X302002Y1110383D01*
X301998Y1110383D01*
X301989Y1110383D01*
X300960Y1110373D01*
X300008Y1110767D01*
X300004Y1110769D01*
X299996Y1110772D01*
X299040Y1111157D01*
X298312Y1111886D01*
X298308Y1111888D01*
X298303Y1111895D01*
X293664Y1116442D01*
X293012Y1117082D01*
X291825Y1118246D01*
X291824Y1118246D01*
X287280Y1122702D01*
X282509Y1127380D01*
X282089Y1127792D01*
X280670Y1129183D01*
X280669Y1129184D01*
X275605Y1134149D01*
X275554Y1134188D01*
X275510Y1134233D01*
X275428Y1134284D01*
X275352Y1134342D01*
X275293Y1134366D01*
X275239Y1134400D01*
X275147Y1134428D01*
X275059Y1134465D01*
X274996Y1134475D01*
X274935Y1134493D01*
X274839Y1134498D01*
X274744Y1134512D01*
X274681Y1134505D01*
X274617Y1134508D01*
X274523Y1134489D01*
X274428Y1134479D01*
X274368Y1134457D01*
X274306Y1134444D01*
X274220Y1134402D01*
X274129Y1134369D01*
X274077Y1134332D01*
X274020Y1134304D01*
X273947Y1134242D01*
X273868Y1134187D01*
X273826Y1134139D01*
X273778Y1134098D01*
X273723Y1134019D01*
X273660Y1133947D01*
X273632Y1133890D01*
X273595Y1133838D01*
X273561Y1133748D01*
X273518Y1133662D01*
X273505Y1133600D01*
X273482Y1133541D01*
X273472Y1133445D01*
X273452Y1133351D01*
X273454Y1133288D01*
X273447Y1133225D01*
X273460Y1133129D01*
X273464Y1133033D01*
X273483Y1132973D01*
X273491Y1132910D01*
X273544Y1132757D01*
X274293Y1130949D01*
X274293Y1128635D01*
X273408Y1126498D01*
X271772Y1124862D01*
X269635Y1123977D01*
X267321Y1123977D01*
X265184Y1124862D01*
X263548Y1126498D01*
X262663Y1128635D01*
X262663Y1130949D01*
X263548Y1133086D01*
X265184Y1134722D01*
X267321Y1135607D01*
X269635Y1135607D01*
X271347Y1134897D01*
X271420Y1134877D01*
X271491Y1134848D01*
X271573Y1134835D01*
X271654Y1134813D01*
X271730Y1134812D01*
X271805Y1134801D01*
X271888Y1134810D01*
X271972Y1134808D01*
X272046Y1134826D01*
X272121Y1134834D01*
X272200Y1134863D01*
X272281Y1134883D01*
X272348Y1134918D01*
X272420Y1134944D01*
X272488Y1134992D01*
X272562Y1135031D01*
X272618Y1135082D01*
X272681Y1135126D01*
X272736Y1135189D01*
X272798Y1135245D01*
X272839Y1135309D01*
X272889Y1135366D01*
X272926Y1135441D01*
X272972Y1135511D01*
X272997Y1135583D01*
X273031Y1135651D01*
X273048Y1135733D01*
X273076Y1135812D01*
X273082Y1135888D01*
X273098Y1135962D01*
X273094Y1136045D01*
X273101Y1136129D01*
X273088Y1136204D01*
X273085Y1136280D01*
X273061Y1136360D01*
X273046Y1136442D01*
X273015Y1136511D01*
X272993Y1136584D01*
X272950Y1136656D01*
X272916Y1136732D01*
X272868Y1136791D01*
X272829Y1136857D01*
X272722Y1136976D01*
X271348Y1138323D01*
X269824Y1139817D01*
X269824Y1139818D01*
X269508Y1140127D01*
X263928Y1145599D01*
X263927Y1145599D01*
X260187Y1149266D01*
X259239Y1150196D01*
X258347Y1151070D01*
X254609Y1154735D01*
X254531Y1154811D01*
X252770Y1156538D01*
X252770Y1156539D01*
X248450Y1160774D01*
X243452Y1165674D01*
X242497Y1166611D01*
X242496Y1166611D01*
X241613Y1167477D01*
X241612Y1167478D01*
X237872Y1171145D01*
X237703Y1171311D01*
X237702Y1171312D01*
X236033Y1172948D01*
X236032Y1172949D01*
X230990Y1177893D01*
X226714Y1182086D01*
X226713Y1182086D01*
X225605Y1183173D01*
X224875Y1183889D01*
X224874Y1183890D01*
X221135Y1187556D01*
X221134Y1187556D01*
X214806Y1193761D01*
X209979Y1198494D01*
X208785Y1199664D01*
X208140Y1200297D01*
X208139Y1200298D01*
X204400Y1203964D01*
X198821Y1209434D01*
X197735Y1210499D01*
X196982Y1211237D01*
X192041Y1216082D01*
X187662Y1220375D01*
X187662Y1220376D01*
X186290Y1221720D01*
X186290Y1221721D01*
X185823Y1222178D01*
X185822Y1222179D01*
X181421Y1226494D01*
X176506Y1231314D01*
X176505Y1231314D01*
X175662Y1232141D01*
X174666Y1233117D01*
X174666Y1233118D01*
X170927Y1236784D01*
X170926Y1236784D01*
X170011Y1237682D01*
X169087Y1238587D01*
X169087Y1238588D01*
X163914Y1243659D01*
X163914Y1243660D01*
X159769Y1247724D01*
X159639Y1247852D01*
X159638Y1247852D01*
X157929Y1249527D01*
X157929Y1249528D01*
X153474Y1253896D01*
X153457Y1253909D01*
X153391Y1253971D01*
X147968Y1258421D01*
X147936Y1258441D01*
X147908Y1258467D01*
X147772Y1258553D01*
X141914Y1261762D01*
X141876Y1261777D01*
X141841Y1261799D01*
X141691Y1261858D01*
X135343Y1263892D01*
X135303Y1263899D01*
X135266Y1263914D01*
X135107Y1263943D01*
X128453Y1264744D01*
X128419Y1264744D01*
X128385Y1264750D01*
X128224Y1264751D01*
X122012Y1264374D01*
X121984Y1264369D01*
X121956Y1264370D01*
X121797Y1264343D01*
X115704Y1262905D01*
X115679Y1262895D01*
X115651Y1262891D01*
X115499Y1262838D01*
X109747Y1260390D01*
X109722Y1260376D01*
X109694Y1260367D01*
X109554Y1260288D01*
X104319Y1256901D01*
X104296Y1256881D01*
X104268Y1256866D01*
X104144Y1256764D01*
X103602Y1256259D01*
X102239Y1254990D01*
X100876Y1253721D01*
X100876Y1253720D01*
X99594Y1252526D01*
X99573Y1252501D01*
X99547Y1252480D01*
X99443Y1252358D01*
X95724Y1247389D01*
X95708Y1247360D01*
X95686Y1247335D01*
X95605Y1247196D01*
X92822Y1241632D01*
X92813Y1241604D01*
X92797Y1241579D01*
X92741Y1241428D01*
X90869Y1235162D01*
X90865Y1235141D01*
X90843Y1235062D01*
X89565Y1229028D01*
X89553Y1228968D01*
X89552Y1228968D01*
X89031Y1226507D01*
X87965Y1221473D01*
X87743Y1220427D01*
X87431Y1218953D01*
X87431Y1218952D01*
X85831Y1211398D01*
X85831Y1211397D01*
X84230Y1203843D01*
X84230Y1203842D01*
X83163Y1198806D01*
X81355Y1190267D01*
X79429Y1181177D01*
X78363Y1176143D01*
X78363Y1176142D01*
X78086Y1174837D01*
X78086Y1174836D01*
X77829Y1173623D01*
X77829Y1173622D01*
X76405Y1166900D01*
X74628Y1158514D01*
X73562Y1153478D01*
X73452Y1152959D01*
X73028Y1150958D01*
X73028Y1150957D01*
X71427Y1143402D01*
X70150Y1137374D01*
X68311Y1128692D01*
X67161Y1123259D01*
X66910Y1122077D01*
X66627Y1120739D01*
X66627Y1120738D01*
X65273Y1114348D01*
X63960Y1108149D01*
X63960Y1108148D01*
X63713Y1106982D01*
X63426Y1105629D01*
X63426Y1105628D01*
X62360Y1100594D01*
X62067Y1099212D01*
X61826Y1098074D01*
X61826Y1098073D01*
X60467Y1091662D01*
X59159Y1085484D01*
X58820Y1083884D01*
X58625Y1082964D01*
X57024Y1075408D01*
X57024Y1075407D01*
X55517Y1068293D01*
X54357Y1062818D01*
X54239Y1062257D01*
X53824Y1060298D01*
X53823Y1060298D01*
X52434Y1053739D01*
X51156Y1047706D01*
X51156Y1047705D01*
X50897Y1046481D01*
X50623Y1045186D01*
X50622Y1045185D01*
X49254Y1038728D01*
X47956Y1032597D01*
X47669Y1031245D01*
X47422Y1030078D01*
X47422Y1030077D01*
X46035Y1023530D01*
X44222Y1014968D01*
X44221Y1014967D01*
X43155Y1009931D01*
X42890Y1008681D01*
X42621Y1007411D01*
X42621Y1007410D01*
X41376Y1001536D01*
X39649Y993384D01*
X38354Y987268D01*
X38143Y986271D01*
X37820Y984748D01*
X37820Y984747D01*
X36753Y979712D01*
X36220Y977193D01*
X36220Y977192D01*
X36219Y977191D01*
X35119Y971998D01*
X35108Y971862D01*
X35092Y971725D01*
X35094Y971694D01*
X35093Y971681D01*
X35095Y971667D01*
X34868Y970804D01*
X34865Y970786D01*
X34853Y970743D01*
X34663Y969843D01*
X34659Y969835D01*
X34592Y969716D01*
X34582Y969687D01*
X34576Y969675D01*
X34571Y969655D01*
X34541Y969563D01*
X32904Y963347D01*
X32902Y963333D01*
X32893Y963301D01*
X31272Y956058D01*
X31271Y956043D01*
X31262Y956008D01*
X29924Y948652D01*
X29923Y948644D01*
X29920Y948628D01*
X29299Y944802D01*
X29294Y944665D01*
X29284Y944528D01*
X29288Y944498D01*
X29287Y944485D01*
X29290Y944471D01*
X29104Y943597D01*
X29103Y943580D01*
X29093Y943536D01*
X28986Y942874D01*
X28981Y942759D01*
X28969Y942644D01*
X28975Y942577D01*
X28974Y942556D01*
X28978Y942537D01*
X28983Y942484D01*
X28987Y942459D01*
X28801Y941717D01*
X28799Y941696D01*
X28780Y941613D01*
X27788Y935520D01*
X27788Y935519D01*
X27521Y933876D01*
X27375Y932978D01*
X27375Y932977D01*
X26546Y927887D01*
X25108Y919047D01*
X23993Y912193D01*
X22821Y904990D01*
X22601Y903642D01*
X22407Y902448D01*
X22407Y902447D01*
X21579Y897357D01*
X20337Y889725D01*
X20074Y888111D01*
X19923Y887183D01*
X19923Y887182D01*
X18975Y881359D01*
X17853Y874459D01*
X17641Y873158D01*
X17439Y871917D01*
X17439Y871916D01*
X16610Y866823D01*
X16492Y866100D01*
X16492Y866099D01*
X16196Y864280D01*
X16196Y864279D01*
X15368Y859187D01*
X14087Y851319D01*
X12883Y843920D01*
X12632Y842376D01*
X12470Y841377D01*
X11641Y836285D01*
X11322Y834321D01*
X11227Y833743D01*
X11227Y833742D01*
X10231Y827622D01*
X9157Y821020D01*
X7719Y812180D01*
X7718Y812172D01*
X7715Y812155D01*
X6663Y804760D01*
X6663Y804745D01*
X6657Y804712D01*
X5894Y797342D01*
X5894Y797327D01*
X5890Y797293D01*
X5410Y789901D01*
X5411Y789886D01*
X5408Y789852D01*
X5214Y782447D01*
X5216Y782432D01*
X5214Y782397D01*
X5309Y774989D01*
X5311Y774974D01*
X5311Y774939D01*
X5695Y767547D01*
X5697Y767533D01*
X5698Y767497D01*
X6371Y760123D01*
X6374Y760109D01*
X6377Y760074D01*
X7339Y752733D01*
X7343Y752719D01*
X7346Y752684D01*
X8596Y745386D01*
X8600Y745372D01*
X8605Y745337D01*
X10140Y738095D01*
X10144Y738081D01*
X10151Y738046D01*
X11969Y730867D01*
X11974Y730854D01*
X11982Y730819D01*
X14080Y723717D01*
X14086Y723704D01*
X14095Y723670D01*
X16468Y716657D01*
X16474Y716644D01*
X16485Y716610D01*
X19131Y709692D01*
X19137Y709679D01*
X19149Y709646D01*
X22063Y702834D01*
X22070Y702822D01*
X22083Y702789D01*
X25258Y696096D01*
X25266Y696084D01*
X25280Y696052D01*
X28712Y689485D01*
X28721Y689473D01*
X28736Y689442D01*
X32419Y683013D01*
X32428Y683002D01*
X32444Y682971D01*
X36372Y676688D01*
X36381Y676677D01*
X36399Y676647D01*
X40566Y670519D01*
X40575Y670508D01*
X40594Y670479D01*
X44991Y664517D01*
X45001Y664507D01*
X45021Y664479D01*
X49645Y658689D01*
X49655Y658679D01*
X49676Y658651D01*
X54519Y653042D01*
X54529Y653032D01*
X54551Y653006D01*
X59605Y647586D01*
X59616Y647577D01*
X59639Y647551D01*
X64894Y642331D01*
X64906Y642322D01*
X64930Y642297D01*
X69819Y637800D01*
X69896Y637746D01*
X69966Y637684D01*
X70064Y637627D01*
X70079Y637616D01*
X70087Y637613D01*
X70105Y637602D01*
X70231Y637538D01*
X70656Y637043D01*
X70662Y637037D01*
X70760Y636935D01*
X71240Y636494D01*
X71300Y636365D01*
X71349Y636286D01*
X71391Y636202D01*
X71459Y636111D01*
X71469Y636096D01*
X71475Y636089D01*
X71487Y636073D01*
X71580Y635966D01*
X71782Y635346D01*
X71786Y635338D01*
X71837Y635206D01*
X72112Y634615D01*
X72118Y634473D01*
X72134Y634380D01*
X72139Y634287D01*
X72168Y634177D01*
X72171Y634159D01*
X72175Y634151D01*
X72180Y634131D01*
X72224Y633996D01*
X72174Y633346D01*
X72174Y633337D01*
X72171Y633196D01*
X72199Y632545D01*
X72150Y632411D01*
X72129Y632320D01*
X72099Y632232D01*
X72083Y632119D01*
X72079Y632101D01*
X72079Y632092D01*
X72076Y632072D01*
X72065Y631931D01*
X71770Y631349D01*
X71767Y631341D01*
X71711Y631211D01*
X71486Y630599D01*
X71390Y630495D01*
X71336Y630419D01*
X71274Y630348D01*
X71216Y630250D01*
X71206Y630236D01*
X71203Y630227D01*
X71193Y630210D01*
X68118Y624147D01*
X68114Y624135D01*
X68099Y624107D01*
X64913Y617232D01*
X64909Y617219D01*
X64895Y617191D01*
X61954Y610206D01*
X61950Y610193D01*
X61937Y610164D01*
X59247Y603082D01*
X59244Y603069D01*
X59232Y603040D01*
X56793Y595864D01*
X56791Y595851D01*
X56780Y595821D01*
X54598Y588563D01*
X54596Y588549D01*
X54586Y588519D01*
X52664Y581192D01*
X52662Y581178D01*
X52654Y581148D01*
X50992Y573752D01*
X50991Y573739D01*
X50983Y573708D01*
X49585Y566260D01*
X49585Y566247D01*
X49578Y566216D01*
X48444Y558722D01*
X48444Y558708D01*
X48438Y558677D01*
X47569Y551150D01*
X47569Y551136D01*
X47565Y551106D01*
X46955Y543496D01*
X46956Y543489D01*
X46954Y543473D01*
X46789Y540826D01*
X46391Y534401D01*
X46238Y531942D01*
X46238Y531941D01*
X46159Y530672D01*
X45904Y526558D01*
X45904Y526557D01*
X45686Y523057D01*
X45450Y519249D01*
X45417Y518715D01*
X45090Y513444D01*
X44981Y511700D01*
X44930Y510872D01*
X44898Y510364D01*
X44662Y506555D01*
X44672Y506393D01*
X44682Y506239D01*
X44682Y506238D01*
X44682Y506237D01*
X44732Y506083D01*
X44780Y505937D01*
X44780Y505936D01*
X44780Y505935D01*
X44861Y505808D01*
X44950Y505668D01*
X44951Y505667D01*
X44951Y505666D01*
X45061Y505563D01*
X45181Y505450D01*
X45182Y505450D01*
X45183Y505449D01*
X45320Y505373D01*
X45460Y505296D01*
X45461Y505296D01*
X45462Y505296D01*
X45622Y505255D01*
X45768Y505217D01*
X45769Y505217D01*
X45770Y505217D01*
X45772Y505217D01*
X45929Y505207D01*
X393192Y505207D01*
X393290Y505219D01*
G37*
G36*
X495156Y987567D02*
X495156Y987567D01*
X495267Y987572D01*
X495313Y987587D01*
X495362Y987593D01*
X495465Y987633D01*
X495571Y987666D01*
X495612Y987692D01*
X495657Y987710D01*
X495747Y987775D01*
X495842Y987833D01*
X495897Y987884D01*
X495915Y987896D01*
X495926Y987910D01*
X495960Y987942D01*
X503809Y996096D01*
X503873Y996181D01*
X503944Y996262D01*
X503967Y996308D01*
X503999Y996350D01*
X504040Y996449D01*
X504088Y996545D01*
X504100Y996596D01*
X504120Y996645D01*
X504134Y996751D01*
X504158Y996855D01*
X504156Y996908D01*
X504164Y996960D01*
X504151Y997066D01*
X504148Y997173D01*
X504134Y997223D01*
X504128Y997276D01*
X504090Y997376D01*
X504060Y997478D01*
X504033Y997524D01*
X504014Y997573D01*
X503953Y997660D01*
X503898Y997752D01*
X503843Y997815D01*
X503831Y997833D01*
X503819Y997843D01*
X503792Y997873D01*
X419162Y1082504D01*
X419083Y1082564D01*
X419011Y1082632D01*
X418958Y1082661D01*
X418910Y1082698D01*
X418819Y1082738D01*
X418733Y1082786D01*
X418674Y1082801D01*
X418618Y1082825D01*
X418520Y1082840D01*
X418425Y1082865D01*
X418325Y1082871D01*
X418304Y1082875D01*
X418292Y1082873D01*
X418264Y1082875D01*
X210890Y1082875D01*
X210841Y1082869D01*
X210791Y1082871D01*
X210684Y1082849D01*
X210574Y1082835D01*
X210528Y1082817D01*
X210480Y1082807D01*
X210381Y1082759D01*
X210279Y1082718D01*
X210238Y1082689D01*
X210194Y1082667D01*
X210110Y1082596D01*
X210021Y1082532D01*
X209990Y1082493D01*
X209952Y1082461D01*
X209889Y1082371D01*
X209819Y1082287D01*
X209797Y1082242D01*
X209769Y1082201D01*
X209730Y1082098D01*
X209683Y1081999D01*
X209674Y1081950D01*
X209656Y1081904D01*
X209644Y1081794D01*
X209623Y1081687D01*
X209626Y1081637D01*
X209621Y1081588D01*
X209636Y1081479D01*
X209643Y1081369D01*
X209658Y1081322D01*
X209665Y1081273D01*
X209717Y1081120D01*
X210183Y1079997D01*
X210183Y1077863D01*
X210195Y1077764D01*
X210198Y1077665D01*
X210215Y1077607D01*
X210223Y1077547D01*
X210259Y1077455D01*
X210287Y1077360D01*
X210317Y1077308D01*
X210340Y1077251D01*
X210398Y1077171D01*
X210448Y1077086D01*
X210514Y1077011D01*
X210526Y1076994D01*
X210536Y1076986D01*
X210554Y1076965D01*
X222379Y1065140D01*
X222457Y1065080D01*
X222529Y1065012D01*
X222582Y1064983D01*
X222630Y1064946D01*
X222721Y1064906D01*
X222808Y1064858D01*
X222867Y1064843D01*
X222922Y1064819D01*
X223020Y1064804D01*
X223116Y1064779D01*
X223216Y1064773D01*
X223236Y1064769D01*
X223249Y1064771D01*
X223277Y1064769D01*
X242458Y1064769D01*
X242556Y1064781D01*
X242655Y1064784D01*
X242713Y1064801D01*
X242773Y1064809D01*
X242865Y1064845D01*
X242960Y1064873D01*
X243013Y1064903D01*
X243069Y1064926D01*
X243149Y1064984D01*
X243234Y1065034D01*
X243310Y1065100D01*
X243326Y1065112D01*
X243334Y1065122D01*
X243355Y1065140D01*
X244864Y1066650D01*
X247001Y1067535D01*
X249315Y1067535D01*
X251452Y1066650D01*
X253088Y1065014D01*
X253973Y1062877D01*
X253973Y1060563D01*
X253088Y1058426D01*
X251452Y1056790D01*
X249315Y1055905D01*
X247001Y1055905D01*
X244864Y1056790D01*
X243355Y1058300D01*
X243277Y1058360D01*
X243205Y1058428D01*
X243152Y1058457D01*
X243104Y1058494D01*
X243013Y1058534D01*
X242926Y1058582D01*
X242868Y1058597D01*
X242812Y1058621D01*
X242714Y1058636D01*
X242618Y1058661D01*
X242518Y1058667D01*
X242498Y1058671D01*
X242486Y1058669D01*
X242458Y1058671D01*
X220225Y1058671D01*
X206243Y1072654D01*
X206165Y1072714D01*
X206093Y1072782D01*
X206040Y1072811D01*
X205992Y1072848D01*
X205901Y1072888D01*
X205814Y1072936D01*
X205756Y1072951D01*
X205700Y1072975D01*
X205602Y1072990D01*
X205506Y1073015D01*
X205406Y1073021D01*
X205386Y1073025D01*
X205373Y1073023D01*
X205345Y1073025D01*
X203211Y1073025D01*
X201074Y1073910D01*
X199525Y1075459D01*
X199416Y1075545D01*
X199309Y1075633D01*
X199290Y1075642D01*
X199274Y1075654D01*
X199146Y1075710D01*
X199021Y1075769D01*
X199001Y1075772D01*
X198982Y1075781D01*
X198844Y1075802D01*
X198708Y1075828D01*
X198688Y1075827D01*
X198668Y1075830D01*
X198529Y1075817D01*
X198391Y1075809D01*
X198372Y1075802D01*
X198352Y1075801D01*
X198220Y1075753D01*
X198089Y1075711D01*
X198071Y1075700D01*
X198052Y1075693D01*
X197937Y1075615D01*
X197820Y1075541D01*
X197806Y1075526D01*
X197789Y1075514D01*
X197697Y1075410D01*
X197602Y1075309D01*
X197592Y1075291D01*
X197579Y1075276D01*
X197515Y1075152D01*
X197448Y1075030D01*
X197443Y1075011D01*
X197434Y1074993D01*
X197404Y1074857D01*
X197369Y1074722D01*
X197367Y1074694D01*
X197364Y1074682D01*
X197365Y1074662D01*
X197359Y1074562D01*
X197359Y1063356D01*
X197376Y1063218D01*
X197389Y1063080D01*
X197396Y1063061D01*
X197399Y1063041D01*
X197450Y1062911D01*
X197497Y1062781D01*
X197508Y1062764D01*
X197516Y1062745D01*
X197597Y1062632D01*
X197675Y1062517D01*
X197691Y1062504D01*
X197702Y1062488D01*
X197810Y1062399D01*
X197914Y1062307D01*
X197932Y1062298D01*
X197947Y1062285D01*
X198073Y1062226D01*
X198197Y1062162D01*
X198217Y1062158D01*
X198235Y1062149D01*
X198371Y1062123D01*
X198507Y1062093D01*
X198528Y1062093D01*
X198547Y1062090D01*
X198686Y1062098D01*
X198825Y1062102D01*
X198845Y1062108D01*
X198865Y1062109D01*
X198997Y1062152D01*
X199131Y1062191D01*
X199148Y1062201D01*
X199167Y1062207D01*
X199285Y1062282D01*
X199405Y1062352D01*
X199426Y1062371D01*
X199436Y1062377D01*
X199450Y1062392D01*
X199526Y1062459D01*
X199906Y1062840D01*
X202043Y1063725D01*
X204357Y1063725D01*
X206494Y1062840D01*
X208130Y1061204D01*
X209015Y1059067D01*
X209015Y1056933D01*
X209027Y1056834D01*
X209030Y1056735D01*
X209047Y1056677D01*
X209055Y1056617D01*
X209091Y1056525D01*
X209119Y1056430D01*
X209149Y1056378D01*
X209172Y1056321D01*
X209230Y1056241D01*
X209280Y1056156D01*
X209346Y1056081D01*
X209358Y1056064D01*
X209368Y1056056D01*
X209386Y1056035D01*
X234571Y1030850D01*
X234649Y1030790D01*
X234721Y1030722D01*
X234774Y1030693D01*
X234822Y1030656D01*
X234913Y1030616D01*
X235000Y1030568D01*
X235059Y1030553D01*
X235114Y1030529D01*
X235212Y1030514D01*
X235308Y1030489D01*
X235408Y1030483D01*
X235428Y1030479D01*
X235441Y1030481D01*
X235469Y1030479D01*
X457193Y1030479D01*
X480725Y1006946D01*
X480803Y1006886D01*
X480875Y1006818D01*
X480928Y1006789D01*
X480976Y1006752D01*
X481067Y1006712D01*
X481154Y1006664D01*
X481213Y1006649D01*
X481268Y1006625D01*
X481366Y1006610D01*
X481462Y1006585D01*
X481562Y1006579D01*
X481582Y1006575D01*
X481595Y1006577D01*
X481623Y1006575D01*
X483757Y1006575D01*
X485894Y1005690D01*
X487530Y1004054D01*
X488415Y1001917D01*
X488415Y999603D01*
X487530Y997466D01*
X485894Y995830D01*
X483757Y994945D01*
X481443Y994945D01*
X479306Y995830D01*
X477670Y997466D01*
X476785Y999603D01*
X476785Y1001737D01*
X476773Y1001836D01*
X476770Y1001935D01*
X476753Y1001993D01*
X476745Y1002053D01*
X476709Y1002145D01*
X476681Y1002240D01*
X476651Y1002292D01*
X476628Y1002349D01*
X476570Y1002429D01*
X476520Y1002514D01*
X476454Y1002589D01*
X476442Y1002606D01*
X476432Y1002614D01*
X476414Y1002635D01*
X455039Y1024010D01*
X454961Y1024070D01*
X454889Y1024138D01*
X454836Y1024167D01*
X454788Y1024204D01*
X454697Y1024244D01*
X454610Y1024292D01*
X454551Y1024307D01*
X454496Y1024331D01*
X454398Y1024346D01*
X454302Y1024371D01*
X454202Y1024377D01*
X454182Y1024381D01*
X454169Y1024379D01*
X454141Y1024381D01*
X233538Y1024381D01*
X233400Y1024364D01*
X233262Y1024351D01*
X233243Y1024344D01*
X233223Y1024341D01*
X233093Y1024290D01*
X232963Y1024243D01*
X232946Y1024232D01*
X232927Y1024224D01*
X232815Y1024143D01*
X232699Y1024065D01*
X232686Y1024049D01*
X232670Y1024038D01*
X232581Y1023930D01*
X232489Y1023826D01*
X232480Y1023808D01*
X232467Y1023793D01*
X232408Y1023667D01*
X232344Y1023543D01*
X232340Y1023523D01*
X232331Y1023505D01*
X232305Y1023368D01*
X232275Y1023233D01*
X232275Y1023212D01*
X232272Y1023193D01*
X232280Y1023054D01*
X232284Y1022915D01*
X232290Y1022895D01*
X232291Y1022875D01*
X232334Y1022743D01*
X232373Y1022609D01*
X232383Y1022592D01*
X232389Y1022573D01*
X232464Y1022455D01*
X232534Y1022335D01*
X232553Y1022314D01*
X232559Y1022304D01*
X232574Y1022290D01*
X232641Y1022215D01*
X234038Y1020818D01*
X234923Y1018681D01*
X234923Y1016367D01*
X234038Y1014230D01*
X232402Y1012594D01*
X230265Y1011709D01*
X227951Y1011709D01*
X225814Y1012594D01*
X224178Y1014230D01*
X223293Y1016367D01*
X223293Y1018681D01*
X224178Y1020818D01*
X225814Y1022454D01*
X227951Y1023339D01*
X230395Y1023339D01*
X230533Y1023356D01*
X230672Y1023369D01*
X230691Y1023376D01*
X230711Y1023379D01*
X230840Y1023430D01*
X230971Y1023477D01*
X230988Y1023488D01*
X231007Y1023496D01*
X231119Y1023577D01*
X231234Y1023655D01*
X231248Y1023671D01*
X231264Y1023682D01*
X231353Y1023790D01*
X231445Y1023894D01*
X231454Y1023912D01*
X231467Y1023927D01*
X231526Y1024053D01*
X231589Y1024177D01*
X231594Y1024197D01*
X231602Y1024215D01*
X231628Y1024352D01*
X231659Y1024487D01*
X231658Y1024508D01*
X231662Y1024527D01*
X231654Y1024666D01*
X231649Y1024805D01*
X231644Y1024825D01*
X231642Y1024845D01*
X231600Y1024977D01*
X231561Y1025111D01*
X231551Y1025128D01*
X231544Y1025147D01*
X231470Y1025265D01*
X231399Y1025385D01*
X231381Y1025406D01*
X231374Y1025416D01*
X231359Y1025430D01*
X231293Y1025505D01*
X230260Y1026539D01*
X205075Y1051724D01*
X204997Y1051784D01*
X204925Y1051852D01*
X204872Y1051881D01*
X204824Y1051918D01*
X204733Y1051958D01*
X204646Y1052006D01*
X204587Y1052021D01*
X204532Y1052045D01*
X204434Y1052060D01*
X204338Y1052085D01*
X204238Y1052091D01*
X204218Y1052095D01*
X204205Y1052093D01*
X204177Y1052095D01*
X202043Y1052095D01*
X199906Y1052980D01*
X199526Y1053361D01*
X199416Y1053446D01*
X199309Y1053535D01*
X199290Y1053544D01*
X199274Y1053556D01*
X199146Y1053612D01*
X199021Y1053671D01*
X199001Y1053674D01*
X198982Y1053683D01*
X198844Y1053704D01*
X198708Y1053730D01*
X198688Y1053729D01*
X198668Y1053732D01*
X198529Y1053719D01*
X198391Y1053711D01*
X198372Y1053704D01*
X198352Y1053703D01*
X198221Y1053656D01*
X198089Y1053613D01*
X198071Y1053602D01*
X198052Y1053595D01*
X197938Y1053517D01*
X197820Y1053443D01*
X197806Y1053428D01*
X197789Y1053416D01*
X197697Y1053312D01*
X197602Y1053211D01*
X197592Y1053193D01*
X197579Y1053178D01*
X197516Y1053054D01*
X197448Y1052932D01*
X197443Y1052913D01*
X197434Y1052895D01*
X197404Y1052759D01*
X197369Y1052624D01*
X197367Y1052596D01*
X197364Y1052584D01*
X197365Y1052564D01*
X197359Y1052464D01*
X197359Y1050155D01*
X150720Y1003517D01*
X150690Y1003478D01*
X150653Y1003444D01*
X150593Y1003353D01*
X150525Y1003266D01*
X150506Y1003220D01*
X150478Y1003179D01*
X150443Y1003075D01*
X150399Y1002974D01*
X150391Y1002925D01*
X150375Y1002878D01*
X150366Y1002768D01*
X150349Y1002660D01*
X150354Y1002610D01*
X150350Y1002561D01*
X150369Y1002453D01*
X150379Y1002343D01*
X150396Y1002296D01*
X150404Y1002247D01*
X150449Y1002147D01*
X150487Y1002044D01*
X150514Y1002003D01*
X150535Y1001958D01*
X150603Y1001872D01*
X150665Y1001781D01*
X150702Y1001748D01*
X150733Y1001709D01*
X150821Y1001643D01*
X150904Y1001570D01*
X150948Y1001548D01*
X150988Y1001518D01*
X151132Y1001447D01*
X153154Y1000610D01*
X154663Y999100D01*
X154741Y999040D01*
X154813Y998972D01*
X154866Y998943D01*
X154914Y998906D01*
X155005Y998866D01*
X155092Y998818D01*
X155150Y998803D01*
X155206Y998779D01*
X155304Y998764D01*
X155400Y998739D01*
X155500Y998733D01*
X155520Y998729D01*
X155532Y998731D01*
X155560Y998729D01*
X161025Y998729D01*
X161124Y998741D01*
X161223Y998744D01*
X161281Y998761D01*
X161341Y998769D01*
X161433Y998805D01*
X161528Y998833D01*
X161580Y998863D01*
X161637Y998886D01*
X161717Y998944D01*
X161802Y998994D01*
X161877Y999060D01*
X161894Y999072D01*
X161902Y999082D01*
X161923Y999100D01*
X162507Y999685D01*
X162580Y999779D01*
X162659Y999868D01*
X162677Y999904D01*
X162702Y999936D01*
X162749Y1000045D01*
X162803Y1000151D01*
X162812Y1000191D01*
X162828Y1000228D01*
X162847Y1000346D01*
X162873Y1000462D01*
X162872Y1000502D01*
X162878Y1000542D01*
X162867Y1000660D01*
X162863Y1000779D01*
X162852Y1000818D01*
X162848Y1000858D01*
X162808Y1000970D01*
X162775Y1001085D01*
X162754Y1001120D01*
X162741Y1001158D01*
X162674Y1001256D01*
X162613Y1001359D01*
X162574Y1001404D01*
X162562Y1001421D01*
X162547Y1001434D01*
X162507Y1001480D01*
X161440Y1002546D01*
X160555Y1004683D01*
X160555Y1006997D01*
X161440Y1009134D01*
X163076Y1010770D01*
X165213Y1011655D01*
X167527Y1011655D01*
X169664Y1010770D01*
X171300Y1009134D01*
X172185Y1006997D01*
X172185Y1004683D01*
X171300Y1002546D01*
X170919Y1002166D01*
X170834Y1002056D01*
X170745Y1001949D01*
X170736Y1001930D01*
X170724Y1001914D01*
X170668Y1001786D01*
X170609Y1001661D01*
X170606Y1001641D01*
X170597Y1001622D01*
X170576Y1001484D01*
X170550Y1001348D01*
X170551Y1001328D01*
X170548Y1001308D01*
X170561Y1001169D01*
X170569Y1001031D01*
X170576Y1001012D01*
X170577Y1000992D01*
X170625Y1000861D01*
X170667Y1000729D01*
X170678Y1000711D01*
X170685Y1000692D01*
X170763Y1000578D01*
X170837Y1000460D01*
X170852Y1000446D01*
X170864Y1000429D01*
X170968Y1000337D01*
X171069Y1000242D01*
X171087Y1000232D01*
X171102Y1000219D01*
X171226Y1000156D01*
X171348Y1000088D01*
X171367Y1000083D01*
X171385Y1000074D01*
X171521Y1000044D01*
X171656Y1000009D01*
X171684Y1000007D01*
X171696Y1000004D01*
X171716Y1000005D01*
X171816Y999999D01*
X185413Y999999D01*
X187570Y997841D01*
X192661Y992750D01*
X192739Y992690D01*
X192811Y992622D01*
X192864Y992593D01*
X192912Y992556D01*
X193003Y992516D01*
X193090Y992468D01*
X193148Y992453D01*
X193204Y992429D01*
X193302Y992414D01*
X193398Y992389D01*
X193498Y992383D01*
X193518Y992379D01*
X193531Y992381D01*
X193559Y992379D01*
X276599Y992379D01*
X281053Y987925D01*
X281131Y987864D01*
X281203Y987796D01*
X281256Y987767D01*
X281304Y987730D01*
X281395Y987690D01*
X281482Y987642D01*
X281540Y987627D01*
X281596Y987603D01*
X281694Y987588D01*
X281790Y987563D01*
X281890Y987557D01*
X281910Y987553D01*
X281923Y987555D01*
X281951Y987553D01*
X495046Y987553D01*
X495156Y987567D01*
G37*
%LPC*%
G36*
X165213Y719355D02*
X165213Y719355D01*
X163076Y720240D01*
X161440Y721876D01*
X160555Y724013D01*
X160555Y726147D01*
X160543Y726246D01*
X160540Y726345D01*
X160523Y726403D01*
X160515Y726463D01*
X160479Y726555D01*
X160451Y726650D01*
X160421Y726702D01*
X160398Y726759D01*
X160340Y726839D01*
X160290Y726924D01*
X160224Y726999D01*
X160212Y727016D01*
X160202Y727024D01*
X160184Y727045D01*
X156589Y730640D01*
X156511Y730700D01*
X156439Y730768D01*
X156386Y730797D01*
X156338Y730834D01*
X156247Y730874D01*
X156160Y730922D01*
X156101Y730937D01*
X156046Y730961D01*
X155948Y730976D01*
X155852Y731001D01*
X155752Y731007D01*
X155732Y731011D01*
X155719Y731009D01*
X155691Y731011D01*
X96527Y731011D01*
X62991Y764547D01*
X62991Y1070603D01*
X86750Y1094361D01*
X86810Y1094439D01*
X86878Y1094511D01*
X86907Y1094564D01*
X86944Y1094612D01*
X86984Y1094703D01*
X87032Y1094790D01*
X87047Y1094849D01*
X87071Y1094904D01*
X87086Y1095002D01*
X87111Y1095098D01*
X87117Y1095198D01*
X87121Y1095218D01*
X87119Y1095231D01*
X87121Y1095259D01*
X87121Y1129023D01*
X105417Y1147319D01*
X173370Y1147319D01*
X173468Y1147331D01*
X173567Y1147334D01*
X173625Y1147351D01*
X173685Y1147359D01*
X173777Y1147395D01*
X173872Y1147423D01*
X173925Y1147453D01*
X173981Y1147476D01*
X174061Y1147534D01*
X174146Y1147584D01*
X174222Y1147650D01*
X174238Y1147662D01*
X174246Y1147672D01*
X174267Y1147690D01*
X175776Y1149200D01*
X177913Y1150085D01*
X180227Y1150085D01*
X182364Y1149200D01*
X184000Y1147564D01*
X184885Y1145427D01*
X184885Y1143113D01*
X184000Y1140976D01*
X182364Y1139340D01*
X180227Y1138455D01*
X177913Y1138455D01*
X175776Y1139340D01*
X174267Y1140850D01*
X174189Y1140910D01*
X174117Y1140978D01*
X174064Y1141007D01*
X174016Y1141044D01*
X173925Y1141084D01*
X173838Y1141132D01*
X173780Y1141147D01*
X173724Y1141171D01*
X173626Y1141186D01*
X173530Y1141211D01*
X173430Y1141217D01*
X173410Y1141221D01*
X173398Y1141219D01*
X173370Y1141221D01*
X108469Y1141221D01*
X108370Y1141209D01*
X108271Y1141206D01*
X108213Y1141189D01*
X108153Y1141181D01*
X108061Y1141145D01*
X107966Y1141117D01*
X107914Y1141087D01*
X107857Y1141064D01*
X107777Y1141006D01*
X107692Y1140956D01*
X107617Y1140890D01*
X107600Y1140878D01*
X107592Y1140868D01*
X107571Y1140850D01*
X93590Y1126869D01*
X93530Y1126791D01*
X93462Y1126719D01*
X93433Y1126666D01*
X93396Y1126618D01*
X93356Y1126527D01*
X93308Y1126440D01*
X93293Y1126381D01*
X93269Y1126326D01*
X93254Y1126228D01*
X93229Y1126132D01*
X93223Y1126032D01*
X93219Y1126012D01*
X93221Y1125999D01*
X93219Y1125971D01*
X93219Y1092207D01*
X69460Y1068449D01*
X69400Y1068371D01*
X69332Y1068299D01*
X69303Y1068246D01*
X69266Y1068198D01*
X69226Y1068107D01*
X69178Y1068020D01*
X69163Y1067961D01*
X69139Y1067906D01*
X69124Y1067808D01*
X69099Y1067712D01*
X69093Y1067612D01*
X69089Y1067592D01*
X69091Y1067579D01*
X69089Y1067551D01*
X69089Y767599D01*
X69101Y767500D01*
X69104Y767401D01*
X69121Y767343D01*
X69129Y767283D01*
X69165Y767191D01*
X69193Y767096D01*
X69223Y767044D01*
X69246Y766987D01*
X69304Y766907D01*
X69354Y766822D01*
X69420Y766747D01*
X69432Y766730D01*
X69442Y766722D01*
X69460Y766701D01*
X98681Y737480D01*
X98759Y737420D01*
X98831Y737352D01*
X98884Y737323D01*
X98932Y737286D01*
X99023Y737246D01*
X99110Y737198D01*
X99169Y737183D01*
X99224Y737159D01*
X99322Y737144D01*
X99418Y737119D01*
X99518Y737113D01*
X99538Y737109D01*
X99551Y737111D01*
X99579Y737109D01*
X158743Y737109D01*
X164495Y731356D01*
X164573Y731296D01*
X164645Y731228D01*
X164698Y731199D01*
X164746Y731162D01*
X164837Y731122D01*
X164924Y731074D01*
X164983Y731059D01*
X165038Y731035D01*
X165136Y731020D01*
X165232Y730995D01*
X165332Y730989D01*
X165352Y730985D01*
X165365Y730987D01*
X165393Y730985D01*
X167527Y730985D01*
X169664Y730100D01*
X171300Y728464D01*
X172185Y726327D01*
X172185Y724013D01*
X171300Y721876D01*
X169664Y720240D01*
X167527Y719355D01*
X165213Y719355D01*
G37*
%LPD*%
G36*
X254094Y915519D02*
X254094Y915519D01*
X254237Y915528D01*
X254251Y915533D01*
X254267Y915534D01*
X254403Y915582D01*
X254539Y915626D01*
X254552Y915634D01*
X254567Y915639D01*
X254687Y915720D01*
X254808Y915796D01*
X254819Y915808D01*
X254831Y915816D01*
X254927Y915923D01*
X255026Y916028D01*
X255033Y916041D01*
X255044Y916053D01*
X255110Y916180D01*
X255180Y916307D01*
X255183Y916321D01*
X255190Y916335D01*
X255223Y916475D01*
X255259Y916615D01*
X255260Y916635D01*
X255263Y916645D01*
X255262Y916663D01*
X255269Y916775D01*
X255269Y985012D01*
X255254Y985130D01*
X255247Y985249D01*
X255234Y985287D01*
X255229Y985328D01*
X255186Y985438D01*
X255149Y985551D01*
X255127Y985586D01*
X255112Y985623D01*
X255043Y985719D01*
X254979Y985820D01*
X254949Y985848D01*
X254926Y985881D01*
X254834Y985957D01*
X254747Y986038D01*
X254712Y986058D01*
X254681Y986083D01*
X254573Y986134D01*
X254469Y986192D01*
X254429Y986202D01*
X254393Y986219D01*
X254276Y986241D01*
X254161Y986271D01*
X254101Y986275D01*
X254081Y986279D01*
X254060Y986277D01*
X254000Y986281D01*
X190507Y986281D01*
X188350Y988439D01*
X184059Y992730D01*
X184003Y992773D01*
X183955Y992823D01*
X183878Y992870D01*
X183807Y992925D01*
X183743Y992953D01*
X183684Y992989D01*
X183598Y993015D01*
X183516Y993051D01*
X183446Y993062D01*
X183380Y993083D01*
X183290Y993087D01*
X183201Y993101D01*
X183132Y993094D01*
X183062Y993098D01*
X182974Y993080D01*
X182885Y993071D01*
X182819Y993047D01*
X182751Y993033D01*
X182670Y992994D01*
X182586Y992964D01*
X182528Y992924D01*
X182465Y992894D01*
X182397Y992835D01*
X182322Y992785D01*
X182276Y992733D01*
X182223Y992687D01*
X182171Y992614D01*
X182112Y992547D01*
X182080Y992484D01*
X182040Y992427D01*
X182008Y992343D01*
X181967Y992263D01*
X181952Y992195D01*
X181927Y992130D01*
X181917Y992041D01*
X181898Y991953D01*
X181900Y991883D01*
X181892Y991814D01*
X181905Y991725D01*
X181907Y991635D01*
X181927Y991568D01*
X181936Y991499D01*
X181989Y991347D01*
X182345Y990487D01*
X182345Y988288D01*
X182357Y988195D01*
X182359Y988101D01*
X182376Y988038D01*
X182385Y987973D01*
X182419Y987885D01*
X182445Y987795D01*
X182477Y987738D01*
X182502Y987677D01*
X182557Y987601D01*
X182604Y987520D01*
X182678Y987434D01*
X182688Y987420D01*
X182696Y987414D01*
X182709Y987398D01*
X253095Y915885D01*
X253208Y915796D01*
X253319Y915704D01*
X253333Y915697D01*
X253345Y915688D01*
X253477Y915630D01*
X253607Y915568D01*
X253622Y915565D01*
X253636Y915559D01*
X253779Y915535D01*
X253920Y915509D01*
X253935Y915509D01*
X253950Y915507D01*
X254094Y915519D01*
G37*
%LPC*%
G36*
X498715Y1030505D02*
X498715Y1030505D01*
X496578Y1031390D01*
X494942Y1033026D01*
X494057Y1035163D01*
X494057Y1037477D01*
X494942Y1039614D01*
X496578Y1041250D01*
X498715Y1042135D01*
X500849Y1042135D01*
X500948Y1042147D01*
X501047Y1042150D01*
X501105Y1042167D01*
X501165Y1042175D01*
X501257Y1042211D01*
X501352Y1042239D01*
X501404Y1042269D01*
X501461Y1042292D01*
X501541Y1042350D01*
X501626Y1042400D01*
X501701Y1042466D01*
X501718Y1042478D01*
X501726Y1042488D01*
X501747Y1042506D01*
X527722Y1068481D01*
X527782Y1068559D01*
X527850Y1068631D01*
X527879Y1068684D01*
X527916Y1068732D01*
X527956Y1068823D01*
X528004Y1068910D01*
X528019Y1068969D01*
X528043Y1069024D01*
X528058Y1069122D01*
X528083Y1069218D01*
X528089Y1069318D01*
X528093Y1069338D01*
X528091Y1069351D01*
X528093Y1069379D01*
X528093Y1071259D01*
X528978Y1073396D01*
X530614Y1075032D01*
X532751Y1075917D01*
X535065Y1075917D01*
X537202Y1075032D01*
X538838Y1073396D01*
X539723Y1071259D01*
X539723Y1068945D01*
X538838Y1066808D01*
X537202Y1065172D01*
X535065Y1064287D01*
X532677Y1064287D01*
X532578Y1064275D01*
X532479Y1064272D01*
X532421Y1064255D01*
X532361Y1064247D01*
X532269Y1064211D01*
X532174Y1064183D01*
X532122Y1064153D01*
X532065Y1064130D01*
X531985Y1064072D01*
X531900Y1064022D01*
X531825Y1063956D01*
X531808Y1063944D01*
X531800Y1063934D01*
X531779Y1063916D01*
X506058Y1038195D01*
X505998Y1038117D01*
X505930Y1038045D01*
X505901Y1037992D01*
X505864Y1037944D01*
X505824Y1037853D01*
X505776Y1037766D01*
X505761Y1037707D01*
X505737Y1037652D01*
X505722Y1037554D01*
X505697Y1037458D01*
X505691Y1037358D01*
X505687Y1037338D01*
X505689Y1037325D01*
X505687Y1037297D01*
X505687Y1035163D01*
X504802Y1033026D01*
X503166Y1031390D01*
X501029Y1030505D01*
X498715Y1030505D01*
G37*
%LPD*%
%LPC*%
G36*
X137273Y519711D02*
X137273Y519711D01*
X135136Y520596D01*
X133500Y522232D01*
X132615Y524369D01*
X132615Y526683D01*
X133500Y528820D01*
X134135Y529455D01*
X134208Y529549D01*
X134287Y529638D01*
X134305Y529674D01*
X134330Y529706D01*
X134378Y529815D01*
X134432Y529921D01*
X134440Y529960D01*
X134457Y529998D01*
X134475Y530115D01*
X134501Y530231D01*
X134500Y530272D01*
X134506Y530312D01*
X134495Y530430D01*
X134492Y530549D01*
X134480Y530588D01*
X134477Y530628D01*
X134436Y530740D01*
X134403Y530855D01*
X134383Y530890D01*
X134369Y530928D01*
X134302Y531026D01*
X134242Y531129D01*
X134202Y531174D01*
X134190Y531191D01*
X134175Y531204D01*
X134135Y531250D01*
X133500Y531884D01*
X132615Y534021D01*
X132615Y536335D01*
X133500Y538472D01*
X135136Y540108D01*
X137273Y540993D01*
X139587Y540993D01*
X141724Y540108D01*
X142358Y539473D01*
X142452Y539400D01*
X142542Y539321D01*
X142578Y539303D01*
X142610Y539278D01*
X142719Y539231D01*
X142825Y539176D01*
X142864Y539168D01*
X142902Y539151D01*
X143019Y539133D01*
X143135Y539107D01*
X143176Y539108D01*
X143216Y539102D01*
X143334Y539113D01*
X143453Y539116D01*
X143492Y539128D01*
X143532Y539131D01*
X143644Y539172D01*
X143759Y539205D01*
X143794Y539225D01*
X143832Y539239D01*
X143930Y539306D01*
X144033Y539366D01*
X144078Y539406D01*
X144095Y539418D01*
X144108Y539433D01*
X144153Y539473D01*
X144788Y540108D01*
X146925Y540993D01*
X149239Y540993D01*
X151376Y540108D01*
X153012Y538472D01*
X153897Y536335D01*
X153897Y534021D01*
X153012Y531884D01*
X152377Y531250D01*
X152304Y531156D01*
X152225Y531066D01*
X152207Y531030D01*
X152182Y530998D01*
X152135Y530889D01*
X152080Y530783D01*
X152072Y530744D01*
X152055Y530706D01*
X152037Y530589D01*
X152011Y530473D01*
X152012Y530432D01*
X152006Y530392D01*
X152017Y530274D01*
X152020Y530155D01*
X152032Y530116D01*
X152035Y530076D01*
X152076Y529964D01*
X152109Y529849D01*
X152129Y529814D01*
X152143Y529776D01*
X152210Y529678D01*
X152270Y529575D01*
X152310Y529530D01*
X152322Y529513D01*
X152337Y529500D01*
X152377Y529455D01*
X153012Y528820D01*
X153897Y526683D01*
X153897Y524369D01*
X153012Y522232D01*
X151376Y520596D01*
X149239Y519711D01*
X146925Y519711D01*
X144788Y520596D01*
X144154Y521231D01*
X144060Y521304D01*
X143970Y521383D01*
X143934Y521401D01*
X143902Y521426D01*
X143793Y521473D01*
X143687Y521528D01*
X143648Y521536D01*
X143610Y521553D01*
X143493Y521571D01*
X143377Y521597D01*
X143336Y521596D01*
X143296Y521602D01*
X143178Y521591D01*
X143059Y521588D01*
X143020Y521576D01*
X142980Y521573D01*
X142868Y521532D01*
X142753Y521499D01*
X142718Y521479D01*
X142680Y521465D01*
X142582Y521398D01*
X142479Y521338D01*
X142434Y521298D01*
X142417Y521286D01*
X142404Y521271D01*
X142359Y521231D01*
X141724Y520596D01*
X139587Y519711D01*
X137273Y519711D01*
G37*
%LPD*%
%LPC*%
G36*
X636637Y1206527D02*
X636637Y1206527D01*
X634500Y1207412D01*
X632864Y1209048D01*
X631979Y1211185D01*
X631979Y1213499D01*
X632864Y1215636D01*
X634500Y1217272D01*
X636637Y1218157D01*
X638951Y1218157D01*
X641088Y1217272D01*
X642724Y1215636D01*
X643609Y1213499D01*
X643609Y1211185D01*
X642724Y1209048D01*
X641088Y1207412D01*
X638951Y1206527D01*
X636637Y1206527D01*
G37*
%LPD*%
%LPC*%
G36*
X154799Y1191287D02*
X154799Y1191287D01*
X152662Y1192172D01*
X151026Y1193808D01*
X150141Y1195945D01*
X150141Y1198259D01*
X151026Y1200396D01*
X152662Y1202032D01*
X154799Y1202917D01*
X157113Y1202917D01*
X159250Y1202032D01*
X160886Y1200396D01*
X161771Y1198259D01*
X161771Y1195945D01*
X160886Y1193808D01*
X159250Y1192172D01*
X157113Y1191287D01*
X154799Y1191287D01*
G37*
%LPD*%
%LPC*%
G36*
X144385Y1121183D02*
X144385Y1121183D01*
X142248Y1122068D01*
X140612Y1123704D01*
X139727Y1125841D01*
X139727Y1128155D01*
X140612Y1130292D01*
X142248Y1131928D01*
X144385Y1132813D01*
X146699Y1132813D01*
X148836Y1131928D01*
X150472Y1130292D01*
X151357Y1128155D01*
X151357Y1125841D01*
X150472Y1123704D01*
X148836Y1122068D01*
X146699Y1121183D01*
X144385Y1121183D01*
G37*
%LPD*%
%LPC*%
G36*
X324979Y1004851D02*
X324979Y1004851D01*
X322842Y1005736D01*
X321206Y1007372D01*
X320321Y1009509D01*
X320321Y1011823D01*
X321206Y1013960D01*
X322842Y1015596D01*
X324979Y1016481D01*
X327293Y1016481D01*
X329430Y1015596D01*
X331066Y1013960D01*
X331951Y1011823D01*
X331951Y1009509D01*
X331066Y1007372D01*
X329430Y1005736D01*
X327293Y1004851D01*
X324979Y1004851D01*
G37*
%LPD*%
%LPC*%
G36*
X216013Y646457D02*
X216013Y646457D01*
X213876Y647342D01*
X212240Y648978D01*
X211355Y651115D01*
X211355Y653429D01*
X212240Y655566D01*
X213876Y657202D01*
X216013Y658087D01*
X218327Y658087D01*
X220464Y657202D01*
X222100Y655566D01*
X222985Y653429D01*
X222985Y651115D01*
X222100Y648978D01*
X220464Y647342D01*
X218327Y646457D01*
X216013Y646457D01*
G37*
%LPD*%
%LPC*%
G36*
X354443Y604547D02*
X354443Y604547D01*
X352306Y605432D01*
X350670Y607068D01*
X349785Y609205D01*
X349785Y611519D01*
X350670Y613656D01*
X352306Y615292D01*
X354443Y616177D01*
X356757Y616177D01*
X358894Y615292D01*
X360530Y613656D01*
X361415Y611519D01*
X361415Y609205D01*
X360530Y607068D01*
X358894Y605432D01*
X356757Y604547D01*
X354443Y604547D01*
G37*
%LPD*%
%LPC*%
G36*
X298309Y592355D02*
X298309Y592355D01*
X296172Y593240D01*
X294536Y594876D01*
X293651Y597013D01*
X293651Y599327D01*
X294536Y601464D01*
X296172Y603100D01*
X298309Y603985D01*
X300623Y603985D01*
X302760Y603100D01*
X304396Y601464D01*
X305281Y599327D01*
X305281Y597013D01*
X304396Y594876D01*
X302760Y593240D01*
X300623Y592355D01*
X298309Y592355D01*
G37*
%LPD*%
D10*
X116832Y976400D03*
X116832Y951000D03*
X116832Y925600D03*
X116832Y900200D03*
X116832Y874800D03*
X116832Y849400D03*
X116832Y824000D03*
X116832Y798600D03*
X116832Y773200D03*
X269232Y773200D03*
X269232Y798600D03*
X269232Y824000D03*
X269232Y849400D03*
X269232Y874800D03*
X269232Y900200D03*
X269232Y925600D03*
X269232Y951000D03*
X269232Y976400D03*
X488348Y975990D03*
X488348Y950590D03*
X488348Y925190D03*
X488348Y899790D03*
X488348Y874390D03*
X488348Y848990D03*
X488348Y823590D03*
X488348Y798190D03*
X488348Y772790D03*
X640748Y772790D03*
X640748Y798190D03*
X640748Y823590D03*
X640748Y848990D03*
X640748Y874390D03*
X640748Y899790D03*
X640748Y925190D03*
X640748Y950590D03*
X640748Y975990D03*
D11*
X336550Y576580D03*
X321310Y598170D03*
X278130Y599440D03*
X259080Y561340D03*
X259080Y585470D03*
X162560Y538480D03*
X288290Y695960D03*
X186690Y666750D03*
X99060Y617220D03*
X73660Y737870D03*
X104140Y1116330D03*
X119380Y1111250D03*
X191770Y1008380D03*
X260350Y1038860D03*
X275590Y1010920D03*
X591820Y1212850D03*
X652780Y1173480D03*
X652780Y1162050D03*
X186756Y714060D03*
X386080Y636270D03*
X525272Y788162D03*
X210058Y703834D03*
X368808Y597154D03*
X156464Y1108710D03*
X245110Y977900D03*
X384810Y1012190D03*
X210820Y1097280D03*
X340360Y223520D03*
D12*
X340360Y508000D01*
D11*
X138430Y535178D03*
X148082Y535178D03*
X148082Y525526D03*
X138430Y525526D03*
X637794Y1212342D03*
X326136Y1010666D03*
X229108Y1017524D03*
X268478Y1129792D03*
X155956Y1197102D03*
X145542Y1126998D03*
X166370Y1005840D03*
X545818Y755650D03*
X299466Y598170D03*
X355600Y610362D03*
X217170Y652272D03*
X239776Y733044D03*
X354838Y237744D03*
X209550Y1108992D03*
D13*
X226850Y1108992D01*
X238760Y1120902D02*
X239014Y1120902D01*
X238760Y1120902D02*
X238528Y1120902D01*
X238506Y1120924D01*
D11*
X238506Y1120924D03*
D13*
X238760Y1120902D02*
X226850Y1108992D01*
D11*
X176530Y1078738D03*
D13*
X134620Y988456D02*
X134620Y784860D01*
X134620Y988456D02*
X118646Y1004430D01*
D11*
X134620Y784860D03*
D13*
X118646Y1028474D02*
X151384Y1061212D01*
X164592Y1061212D01*
X176530Y1073150D02*
X176530Y1078738D01*
X118646Y1028474D02*
X118646Y1004430D01*
X164592Y1061212D02*
X176530Y1073150D01*
D11*
X499872Y1036320D03*
D13*
X533654Y1070102D01*
X533908Y1070102D01*
D11*
X533908Y1070102D03*
X179070Y1144270D03*
X166370Y725170D03*
D13*
X157480Y734060D01*
X97790Y734060D02*
X66040Y765810D01*
X97790Y734060D02*
X157480Y734060D01*
X90170Y1093470D02*
X90170Y1127760D01*
X106680Y1144270D01*
X66040Y1069340D02*
X66040Y765810D01*
X66040Y1069340D02*
X90170Y1093470D01*
X106680Y1144270D02*
X179070Y1144270D01*
D11*
X566420Y800100D03*
D13*
X523240Y843280D01*
X523240Y953770D01*
D11*
X149860Y995680D03*
D13*
X184150Y996950D02*
X191770Y989330D01*
X184150Y996950D02*
X164084Y996950D01*
X162814Y995680D01*
X149860Y995680D01*
X285242Y979424D02*
X431292Y979424D01*
X275336Y989330D02*
X191770Y989330D01*
X275336Y989330D02*
X285242Y979424D01*
X431292Y979424D02*
X446786Y963930D01*
X513080Y963930D02*
X523240Y953770D01*
X513080Y963930D02*
X446786Y963930D01*
D11*
X194310Y1107440D03*
D13*
X194310Y1051418D01*
X142776Y999884D01*
X142776Y799564D01*
X201930Y740410D01*
X252730Y740410D01*
X254000Y741680D01*
X255270Y742950D01*
D11*
X254000Y741680D03*
X186690Y1099820D03*
D13*
X187226Y1110374D02*
X191376Y1114524D01*
X197244Y1114524D01*
X201394Y1110374D01*
X187226Y1100356D02*
X186690Y1099820D01*
X187226Y1100356D02*
X187226Y1110374D01*
X201394Y1110374D02*
X201394Y1092736D01*
X208206Y1085924D01*
X420053Y1085924D01*
X527558Y978419D01*
X527558Y868172D01*
X593090Y802640D01*
D11*
X593090Y802640D03*
X132080Y1001014D03*
X244856Y754380D03*
X161290Y1080770D03*
D13*
X79248Y998728D01*
X79248Y781050D01*
X110998Y749300D01*
X149098Y749300D02*
X154178Y754380D01*
X175260Y754380D01*
X149098Y749300D02*
X110998Y749300D01*
X175260Y754380D02*
X204470Y725170D01*
X260350Y725170D01*
D11*
X280670Y745490D03*
D13*
X260350Y725170D01*
D11*
X162560Y1070610D03*
D13*
X168374Y1077836D02*
X168374Y1083704D01*
X162560Y1072022D02*
X162560Y1070610D01*
X162560Y1072022D02*
X168374Y1077836D01*
X168374Y1083704D02*
X161148Y1090930D01*
X129540Y1090930D01*
X74930Y1036320D02*
X74930Y779261D01*
X74930Y1036320D02*
X129540Y1090930D01*
X156729Y750062D02*
X173471Y750062D01*
X151649Y744982D02*
X109209Y744982D01*
X151649Y744982D02*
X156729Y750062D01*
X202681Y720852D02*
X268489Y720852D01*
X202681Y720852D02*
X173471Y750062D01*
X109209Y744982D02*
X74930Y779261D01*
X268489Y720852D02*
X286777Y739140D01*
X287020Y739140D01*
X287020Y738269D01*
X286820Y738070D01*
D11*
X286820Y738070D03*
X268732Y745236D03*
X140208Y1007872D03*
X125730Y1009904D03*
X129540Y756920D03*
X650240Y744220D03*
X621030Y824230D03*
X104422Y1007872D03*
X143510Y756920D03*
X356870Y204470D03*
X372110Y219710D03*
X248158Y1061720D03*
D13*
X221488Y1061720D01*
X204368Y1078840D01*
X204216Y1078992D01*
D11*
X204368Y1078840D03*
X203200Y1057910D03*
D13*
X233680Y1027430D01*
X455930Y1027430D01*
X482600Y1000760D01*
D11*
X482600Y1000760D03*
X473710Y744220D03*
X176530Y989330D03*
D13*
X347980Y816610D02*
X347980Y681990D01*
X255850Y893858D02*
X255850Y908740D01*
X255850Y893858D02*
X261620Y888088D01*
X276502Y888088D01*
X255850Y908740D02*
X176530Y989330D01*
X276502Y888088D02*
X347980Y816610D01*
D11*
X347980Y681990D03*
M02*
