G04 EAGLE Gerber X2 export*
%TF.Part,Single*%
%TF.FileFunction,Legend,Top,1*%
%TF.FilePolarity,Positive*%
%TF.GenerationSoftware,Autodesk,EAGLE,9.0.1*%
%TF.CreationDate,2018-06-27T06:52:03Z*%
G75*
%MOMM*%
%FSLAX34Y34*%
%LPD*%
%AMOC8*
5,1,8,0,0,1.08239X$1,22.5*%
G01*
%ADD10R,4.318000X0.084838*%
%ADD11R,4.401819X0.084838*%
%ADD12R,3.896363X0.084581*%
%ADD13R,3.469638X0.084581*%
%ADD14R,3.472181X0.084581*%
%ADD15R,3.048000X0.084838*%
%ADD16R,3.134362X0.084838*%
%ADD17R,2.707638X0.084581*%
%ADD18R,2.710181X0.084581*%
%ADD19R,2.372362X0.084581*%
%ADD20R,18.034000X0.084838*%
%ADD21R,2.032000X0.084838*%
%ADD22R,19.050000X0.084581*%
%ADD23R,1.778000X0.084581*%
%ADD24R,1.694181X0.084581*%
%ADD25R,18.288000X0.084581*%
%ADD26R,19.641819X0.084581*%
%ADD27R,1.440181X0.084581*%
%ADD28R,1.437638X0.084581*%
%ADD29R,19.133819X0.084581*%
%ADD30R,20.066000X0.084838*%
%ADD31R,1.183638X0.084838*%
%ADD32R,1.186181X0.084838*%
%ADD33R,19.728181X0.084838*%
%ADD34R,20.490181X0.084581*%
%ADD35R,0.932181X0.084581*%
%ADD36R,0.848363X0.084581*%
%ADD37R,20.236181X0.084581*%
%ADD38R,20.911819X0.084581*%
%ADD39R,0.678181X0.084581*%
%ADD40R,0.591819X0.084581*%
%ADD41R,20.574000X0.084581*%
%ADD42R,5.334000X0.084838*%
%ADD43R,3.980181X0.084838*%
%ADD44R,0.421637X0.084838*%
%ADD45R,0.337819X0.084838*%
%ADD46R,4.488181X0.084838*%
%ADD47R,5.420363X0.084838*%
%ADD48R,3.556000X0.084838*%
%ADD49R,4.318000X0.084581*%
%ADD50R,4.996181X0.084581*%
%ADD51R,3.893819X0.084581*%
%ADD52R,0.170181X0.084581*%
%ADD53R,4.401819X0.084581*%
%ADD54R,3.556000X0.084581*%
%ADD55R,4.826000X0.084581*%
%ADD56R,4.739638X0.084581*%
%ADD57R,3.980181X0.084581*%
%ADD58R,4.488181X0.084581*%
%ADD59R,4.655819X0.084838*%
%ADD60R,4.572000X0.084838*%
%ADD61R,3.977638X0.084838*%
%ADD62R,4.485638X0.084838*%
%ADD63R,3.639819X0.084838*%
%ADD64R,4.572000X0.084581*%
%ADD65R,3.639819X0.084581*%
%ADD66R,4.404363X0.084581*%
%ADD67R,3.726181X0.084581*%
%ADD68R,4.231638X0.084838*%
%ADD69R,4.150362X0.084838*%
%ADD70R,4.658362X0.084838*%
%ADD71R,3.810000X0.084838*%
%ADD72R,4.231638X0.084581*%
%ADD73R,4.147819X0.084581*%
%ADD74R,4.742181X0.084581*%
%ADD75R,4.658362X0.084581*%
%ADD76R,4.147819X0.084838*%
%ADD77R,4.826000X0.084838*%
%ADD78R,4.909819X0.084581*%
%ADD79R,4.064000X0.084581*%
%ADD80R,4.993638X0.084581*%
%ADD81R,4.909819X0.084838*%
%ADD82R,4.064000X0.084838*%
%ADD83R,5.080000X0.084838*%
%ADD84R,5.163819X0.084581*%
%ADD85R,5.247638X0.084838*%
%ADD86R,5.080000X0.084581*%
%ADD87R,4.655819X0.084581*%
%ADD88R,5.334000X0.084581*%
%ADD89R,4.485638X0.084581*%
%ADD90R,5.163819X0.084838*%
%ADD91R,5.417819X0.084838*%
%ADD92R,5.247638X0.084581*%
%ADD93R,5.417819X0.084581*%
%ADD94R,5.501638X0.084581*%
%ADD95R,5.501638X0.084838*%
%ADD96R,5.588000X0.084581*%
%ADD97R,4.993638X0.084838*%
%ADD98R,5.588000X0.084838*%
%ADD99R,4.739638X0.084838*%
%ADD100R,5.671819X0.084581*%
%ADD101R,5.671819X0.084838*%
%ADD102R,5.755638X0.084581*%
%ADD103R,5.755638X0.084838*%
%ADD104R,5.842000X0.084581*%
%ADD105R,5.842000X0.084838*%
%ADD106R,5.674362X0.084581*%
%ADD107R,5.674362X0.084838*%
%ADD108R,5.250181X0.084838*%
%ADD109R,5.928363X0.084838*%
%ADD110R,4.996181X0.084838*%
%ADD111R,5.250181X0.084581*%
%ADD112R,5.928363X0.084581*%
%ADD113R,5.758181X0.084581*%
%ADD114R,5.166362X0.084581*%
%ADD115R,6.012181X0.084581*%
%ADD116R,5.925819X0.084838*%
%ADD117R,6.009638X0.084581*%
%ADD118R,5.420363X0.084581*%
%ADD119R,6.096000X0.084581*%
%ADD120R,6.009638X0.084838*%
%ADD121R,5.504181X0.084838*%
%ADD122R,6.179819X0.084838*%
%ADD123R,6.179819X0.084581*%
%ADD124R,6.433819X0.084581*%
%ADD125R,24.638000X0.084581*%
%ADD126R,24.551638X0.084838*%
%ADD127R,24.638000X0.084838*%
%ADD128R,24.467819X0.084581*%
%ADD129R,24.554181X0.084581*%
%ADD130R,24.467819X0.084838*%
%ADD131R,24.384000X0.084581*%
%ADD132R,24.300181X0.084838*%
%ADD133R,24.384000X0.084838*%
%ADD134R,24.300181X0.084581*%
%ADD135R,24.130000X0.084581*%
%ADD136R,24.213819X0.084581*%
%ADD137R,24.130000X0.084838*%
%ADD138R,24.043638X0.084581*%
%ADD139R,23.959819X0.084581*%
%ADD140R,23.959819X0.084838*%
%ADD141R,23.876000X0.084581*%
%ADD142R,23.792181X0.084581*%
%ADD143R,23.792181X0.084838*%
%ADD144R,23.708362X0.084581*%
%ADD145R,23.622000X0.084581*%
%ADD146R,23.705819X0.084581*%
%ADD147R,23.622000X0.084838*%
%ADD148R,23.535637X0.084581*%
%ADD149R,23.451819X0.084581*%
%ADD150R,23.451819X0.084838*%
%ADD151R,23.284181X0.084581*%
%ADD152R,23.368000X0.084581*%
%ADD153R,23.200363X0.084838*%
%ADD154R,23.284181X0.084838*%
%ADD155R,23.114000X0.084581*%
%ADD156R,23.027638X0.084581*%
%ADD157R,22.943819X0.084838*%
%ADD158R,23.030181X0.084838*%
%ADD159R,22.943819X0.084581*%
%ADD160R,22.776181X0.084581*%
%ADD161R,22.860000X0.084581*%
%ADD162R,22.776181X0.084838*%
%ADD163R,22.606000X0.084581*%
%ADD164R,22.689819X0.084581*%
%ADD165R,22.435819X0.084838*%
%ADD166R,22.522181X0.084838*%
%ADD167R,22.352000X0.084581*%
%ADD168R,22.435819X0.084581*%
%ADD169R,22.268181X0.084581*%
%ADD170R,22.184363X0.084838*%
%ADD171R,22.268181X0.084838*%
%ADD172R,22.098000X0.084581*%
%ADD173R,21.927819X0.084581*%
%ADD174R,21.927819X0.084838*%
%ADD175R,21.760181X0.084581*%
%ADD176R,21.844000X0.084581*%
%ADD177R,21.676362X0.084581*%
%ADD178R,21.590000X0.084838*%
%ADD179R,21.419819X0.084581*%
%ADD180R,21.590000X0.084581*%
%ADD181R,21.336000X0.084581*%
%ADD182R,21.252181X0.084838*%
%ADD183R,21.082000X0.084581*%
%ADD184R,21.252181X0.084581*%
%ADD185R,20.911819X0.084838*%
%ADD186R,20.744181X0.084581*%
%ADD187R,20.828000X0.084581*%
%ADD188R,20.403819X0.084838*%
%ADD189R,20.574000X0.084838*%
%ADD190R,20.403819X0.084581*%
%ADD191R,20.320000X0.084581*%
%ADD192R,20.236181X0.084838*%
%ADD193R,19.895819X0.084581*%
%ADD194R,20.066000X0.084581*%
%ADD195R,19.728181X0.084581*%
%ADD196R,19.558000X0.084838*%
%ADD197R,19.471637X0.084581*%
%ADD198R,19.558000X0.084581*%
%ADD199R,19.304000X0.084581*%
%ADD200R,19.387819X0.084581*%
%ADD201R,19.220181X0.084838*%
%ADD202R,18.879819X0.084581*%
%ADD203R,18.966181X0.084581*%
%ADD204R,18.712181X0.084838*%
%ADD205R,18.796000X0.084838*%
%ADD206R,0.083819X0.084838*%
%ADD207R,0.086363X0.084581*%
%ADD208R,18.542000X0.084581*%
%ADD209R,18.625819X0.084581*%
%ADD210R,0.167637X0.084581*%
%ADD211R,18.371819X0.084581*%
%ADD212R,18.458181X0.084581*%
%ADD213R,0.254000X0.084581*%
%ADD214R,18.120363X0.084838*%
%ADD215R,18.204181X0.084838*%
%ADD216R,0.340363X0.084838*%
%ADD217R,0.424181X0.084581*%
%ADD218R,17.863819X0.084581*%
%ADD219R,18.034000X0.084581*%
%ADD220R,0.508000X0.084581*%
%ADD221R,17.696181X0.084581*%
%ADD222R,0.675638X0.084838*%
%ADD223R,17.526000X0.084838*%
%ADD224R,17.696181X0.084838*%
%ADD225R,0.762000X0.084838*%
%ADD226R,17.355819X0.084581*%
%ADD227R,17.526000X0.084581*%
%ADD228R,0.845819X0.084581*%
%ADD229R,17.188181X0.084581*%
%ADD230R,1.016000X0.084581*%
%ADD231R,1.099819X0.084838*%
%ADD232R,16.847819X0.084838*%
%ADD233R,17.101819X0.084838*%
%ADD234R,1.102363X0.084838*%
%ADD235R,1.186181X0.084581*%
%ADD236R,16.680181X0.084581*%
%ADD237R,16.847819X0.084581*%
%ADD238R,1.270000X0.084581*%
%ADD239R,1.353819X0.084581*%
%ADD240R,16.510000X0.084581*%
%ADD241R,1.437638X0.084838*%
%ADD242R,16.256000X0.084838*%
%ADD243R,16.426181X0.084838*%
%ADD244R,1.524000X0.084838*%
%ADD245R,1.610363X0.084581*%
%ADD246R,16.002000X0.084581*%
%ADD247R,16.172181X0.084581*%
%ADD248R,1.607819X0.084581*%
%ADD249R,15.831819X0.084581*%
%ADD250R,1.861819X0.084838*%
%ADD251R,15.494000X0.084838*%
%ADD252R,15.664181X0.084838*%
%ADD253R,1.864363X0.084838*%
%ADD254R,1.948181X0.084581*%
%ADD255R,15.240000X0.084581*%
%ADD256R,15.494000X0.084581*%
%ADD257R,2.032000X0.084581*%
%ADD258R,2.199638X0.084581*%
%ADD259R,14.986000X0.084581*%
%ADD260R,15.156181X0.084581*%
%ADD261R,2.202181X0.084581*%
%ADD262R,2.286000X0.084838*%
%ADD263R,14.648181X0.084838*%
%ADD264R,14.986000X0.084838*%
%ADD265R,2.369819X0.084838*%
%ADD266R,2.369819X0.084581*%
%ADD267R,14.391637X0.084581*%
%ADD268R,14.648181X0.084581*%
%ADD269R,2.453638X0.084581*%
%ADD270R,2.540000X0.084581*%
%ADD271R,14.140181X0.084581*%
%ADD272R,14.307819X0.084581*%
%ADD273R,2.710181X0.084838*%
%ADD274R,13.799819X0.084838*%
%ADD275R,14.053819X0.084838*%
%ADD276R,2.794000X0.084838*%
%ADD277R,2.877819X0.084581*%
%ADD278R,13.462000X0.084581*%
%ADD279R,13.716000X0.084581*%
%ADD280R,2.880362X0.084581*%
%ADD281R,2.964181X0.084581*%
%ADD282R,13.124181X0.084581*%
%ADD283R,13.378181X0.084581*%
%ADD284R,3.048000X0.084581*%
%ADD285R,3.215638X0.084838*%
%ADD286R,12.783819X0.084838*%
%ADD287R,13.037819X0.084838*%
%ADD288R,3.131819X0.084838*%
%ADD289R,3.302000X0.084581*%
%ADD290R,12.446000X0.084581*%
%ADD291R,12.616181X0.084581*%
%ADD292R,3.385819X0.084581*%
%ADD293R,11.938000X0.084581*%
%ADD294R,12.275819X0.084581*%
%ADD295R,3.642363X0.084838*%
%ADD296R,11.600181X0.084838*%
%ADD297R,11.938000X0.084838*%
%ADD298R,3.810000X0.084581*%
%ADD299R,11.092181X0.084581*%
%ADD300R,11.430000X0.084581*%
%ADD301R,10.584181X0.084581*%
%ADD302R,11.005819X0.084581*%
%ADD303R,10.076181X0.084838*%
%ADD304R,10.497819X0.084838*%
%ADD305R,4.234181X0.084838*%
%ADD306R,9.484362X0.084581*%
%ADD307R,9.906000X0.084581*%
%ADD308R,8.719819X0.084581*%
%ADD309R,9.398000X0.084581*%
%ADD310R,7.960363X0.084838*%
%ADD311R,8.636000X0.084838*%
%ADD312R,6.858000X0.084581*%
%ADD313R,7.790181X0.084581*%
%ADD314R,6.687819X0.084581*%
%ADD315R,5.504181X0.084581*%
%ADD316R,6.012181X0.084838*%
%ADD317R,6.350000X0.084581*%
%ADD318R,0.083819X0.084581*%
%ADD319R,6.517638X0.084581*%
%ADD320R,0.337819X0.084581*%
%ADD321R,6.771638X0.084838*%
%ADD322R,0.591819X0.084838*%
%ADD323R,0.170181X0.084838*%
%ADD324R,7.198362X0.084581*%
%ADD325R,7.025638X0.084581*%
%ADD326R,7.536181X0.084581*%
%ADD327R,0.762000X0.084581*%
%ADD328R,7.366000X0.084581*%
%ADD329R,7.874000X0.084838*%
%ADD330R,7.706363X0.084838*%
%ADD331R,8.298181X0.084581*%
%ADD332R,8.128000X0.084581*%
%ADD333R,8.973819X0.084581*%
%ADD334R,1.861819X0.084581*%
%ADD335R,8.552181X0.084581*%
%ADD336R,2.456181X0.084838*%
%ADD337R,9.227819X0.084838*%
%ADD338R,18.625819X0.084838*%
%ADD339R,18.542000X0.084838*%
%ADD340R,18.712181X0.084581*%
%ADD341R,18.796000X0.084581*%
%ADD342R,18.879819X0.084838*%
%ADD343R,18.966181X0.084838*%
%ADD344R,19.050000X0.084838*%
%ADD345R,19.133819X0.084838*%
%ADD346R,18.288000X0.084838*%
%ADD347R,18.120363X0.084581*%
%ADD348R,17.950181X0.084581*%
%ADD349R,19.220181X0.084581*%
%ADD350R,17.780000X0.084838*%
%ADD351R,17.612362X0.084581*%
%ADD352R,17.442181X0.084581*%
%ADD353R,17.442181X0.084838*%
%ADD354R,17.272000X0.084581*%
%ADD355R,1.183638X0.084581*%
%ADD356R,19.304000X0.084838*%
%ADD357R,17.018000X0.084581*%
%ADD358R,16.934181X0.084581*%
%ADD359R,3.215638X0.084581*%
%ADD360R,16.764000X0.084838*%
%ADD361R,16.677637X0.084581*%
%ADD362R,16.593819X0.084838*%
%ADD363R,16.593819X0.084581*%
%ADD364R,16.423638X0.084838*%
%ADD365R,16.339819X0.084581*%
%ADD366R,16.256000X0.084581*%
%ADD367R,16.169638X0.084838*%
%ADD368R,19.387819X0.084838*%
%ADD369R,16.169638X0.084581*%
%ADD370R,16.085819X0.084581*%
%ADD371R,6.263638X0.084581*%
%ADD372R,16.002000X0.084838*%
%ADD373R,6.436363X0.084838*%
%ADD374R,16.088363X0.084581*%
%ADD375R,6.604000X0.084581*%
%ADD376R,6.771638X0.084581*%
%ADD377R,6.858000X0.084838*%
%ADD378R,15.918181X0.084581*%
%ADD379R,6.944363X0.084581*%
%ADD380R,7.112000X0.084581*%
%ADD381R,15.834363X0.084838*%
%ADD382R,7.279638X0.084838*%
%ADD383R,15.834363X0.084581*%
%ADD384R,15.748000X0.084581*%
%ADD385R,7.452363X0.084581*%
%ADD386R,15.748000X0.084838*%
%ADD387R,7.620000X0.084838*%
%ADD388R,15.664181X0.084581*%
%ADD389R,7.620000X0.084581*%
%ADD390R,7.787638X0.084581*%
%ADD391R,15.580363X0.084838*%
%ADD392R,7.787638X0.084838*%
%ADD393R,19.474181X0.084838*%
%ADD394R,15.580363X0.084581*%
%ADD395R,7.960363X0.084581*%
%ADD396R,19.474181X0.084581*%
%ADD397R,8.128000X0.084838*%
%ADD398R,8.295637X0.084581*%
%ADD399R,8.295637X0.084838*%
%ADD400R,15.410181X0.084581*%
%ADD401R,8.468362X0.084581*%
%ADD402R,15.410181X0.084838*%
%ADD403R,8.468362X0.084838*%
%ADD404R,1.948181X0.084838*%
%ADD405R,15.326363X0.084581*%
%ADD406R,15.326363X0.084838*%
%ADD407R,3.472181X0.084838*%
%ADD408R,8.636000X0.084581*%
%ADD409R,8.719819X0.084838*%
%ADD410R,8.803638X0.084581*%
%ADD411R,8.803638X0.084838*%
%ADD412R,8.890000X0.084581*%
%ADD413R,15.240000X0.084838*%
%ADD414R,8.890000X0.084838*%
%ADD415R,15.069819X0.084581*%
%ADD416R,15.153638X0.084581*%
%ADD417R,15.153638X0.084838*%
%ADD418R,15.323819X0.084581*%
%ADD419R,15.407637X0.084581*%
%ADD420R,15.577819X0.084581*%
%ADD421R,15.661638X0.084838*%
%ADD422R,15.323819X0.084838*%
%ADD423R,15.918181X0.084838*%
%ADD424R,15.915638X0.084581*%
%ADD425R,15.915638X0.084838*%
%ADD426R,15.156181X0.084838*%
%ADD427R,14.902181X0.084581*%
%ADD428R,14.815819X0.084838*%
%ADD429R,15.831819X0.084838*%
%ADD430R,14.732000X0.084581*%
%ADD431R,14.561819X0.084581*%
%ADD432R,14.478000X0.084838*%
%ADD433R,14.394181X0.084581*%
%ADD434R,14.224000X0.084581*%
%ADD435R,16.423638X0.084581*%
%ADD436R,14.140181X0.084838*%
%ADD437R,14.053819X0.084581*%
%ADD438R,13.886181X0.084581*%
%ADD439R,13.802363X0.084838*%
%ADD440R,16.931638X0.084838*%
%ADD441R,13.632181X0.084581*%
%ADD442R,13.548363X0.084838*%
%ADD443R,17.358363X0.084838*%
%ADD444R,13.294363X0.084838*%
%ADD445R,17.609819X0.084838*%
%ADD446R,13.208000X0.084581*%
%ADD447R,17.693638X0.084581*%
%ADD448R,17.780000X0.084581*%
%ADD449R,13.040363X0.084838*%
%ADD450R,17.863819X0.084838*%
%ADD451R,12.954000X0.084581*%
%ADD452R,17.947638X0.084581*%
%ADD453R,12.870181X0.084581*%
%ADD454R,12.786363X0.084838*%
%ADD455R,18.201638X0.084838*%
%ADD456R,12.700000X0.084581*%
%ADD457R,18.204181X0.084581*%
%ADD458R,12.446000X0.084838*%
%ADD459R,18.371819X0.084838*%
%ADD460R,12.359637X0.084581*%
%ADD461R,12.192000X0.084838*%
%ADD462R,12.105638X0.084581*%
%ADD463R,18.628363X0.084581*%
%ADD464R,12.021819X0.084581*%
%ADD465R,18.709637X0.084838*%
%ADD466R,19.217638X0.084838*%
%ADD467R,11.851638X0.084581*%
%ADD468R,19.217638X0.084581*%
%ADD469R,11.767819X0.084581*%
%ADD470R,11.684000X0.084838*%
%ADD471R,11.597638X0.084581*%
%ADD472R,18.882362X0.084581*%
%ADD473R,11.513819X0.084581*%
%ADD474R,11.430000X0.084838*%
%ADD475R,18.963638X0.084838*%
%ADD476R,11.343637X0.084581*%
%ADD477R,11.259819X0.084581*%
%ADD478R,11.176000X0.084838*%
%ADD479R,19.136363X0.084581*%
%ADD480R,10.922000X0.084581*%
%ADD481R,10.838181X0.084838*%
%ADD482R,10.751819X0.084581*%
%ADD483R,10.668000X0.084581*%
%ADD484R,10.584181X0.084838*%
%ADD485R,10.497819X0.084581*%
%ADD486R,10.414000X0.084581*%
%ADD487R,10.330181X0.084838*%
%ADD488R,10.243819X0.084581*%
%ADD489R,10.160000X0.084581*%
%ADD490R,20.320000X0.084838*%
%ADD491R,9.989819X0.084581*%
%ADD492R,9.822181X0.084838*%
%ADD493R,21.419819X0.084838*%
%ADD494R,9.735819X0.084581*%
%ADD495R,9.652000X0.084581*%
%ADD496R,9.484362X0.084838*%
%ADD497R,22.181819X0.084838*%
%ADD498R,22.438363X0.084581*%
%ADD499R,19.390363X0.084581*%
%ADD500R,9.314181X0.084581*%
%ADD501R,9.230363X0.084838*%
%ADD502R,22.773637X0.084838*%
%ADD503R,19.390363X0.084838*%
%ADD504R,9.144000X0.084581*%
%ADD505R,23.030181X0.084581*%
%ADD506R,9.060181X0.084581*%
%ADD507R,23.197819X0.084581*%
%ADD508R,8.976363X0.084838*%
%ADD509R,23.368000X0.084838*%
%ADD510R,23.538181X0.084581*%
%ADD511R,8.806181X0.084581*%
%ADD512R,8.722363X0.084838*%
%ADD513R,23.876000X0.084838*%
%ADD514R,19.471637X0.084838*%
%ADD515R,24.046181X0.084581*%
%ADD516R,8.382000X0.084581*%
%ADD517R,24.721819X0.084581*%
%ADD518R,8.214363X0.084838*%
%ADD519R,24.805637X0.084838*%
%ADD520R,19.641819X0.084838*%
%ADD521R,8.041638X0.084581*%
%ADD522R,24.978363X0.084581*%
%ADD523R,7.957819X0.084581*%
%ADD524R,25.146000X0.084581*%
%ADD525R,25.229819X0.084838*%
%ADD526R,19.725638X0.084838*%
%ADD527R,25.400000X0.084581*%
%ADD528R,19.725638X0.084581*%
%ADD529R,7.703819X0.084581*%
%ADD530R,25.483819X0.084581*%
%ADD531R,19.812000X0.084581*%
%ADD532R,25.654000X0.084838*%
%ADD533R,19.812000X0.084838*%
%ADD534R,7.533638X0.084581*%
%ADD535R,25.740362X0.084581*%
%ADD536R,7.449819X0.084581*%
%ADD537R,25.908000X0.084581*%
%ADD538R,7.366000X0.084838*%
%ADD539R,25.991819X0.084838*%
%ADD540R,7.279638X0.084581*%
%ADD541R,26.162000X0.084581*%
%ADD542R,7.195819X0.084581*%
%ADD543R,26.245819X0.084581*%
%ADD544R,7.112000X0.084838*%
%ADD545R,26.416000X0.084838*%
%ADD546R,19.895819X0.084838*%
%ADD547R,26.502363X0.084581*%
%ADD548R,19.982181X0.084581*%
%ADD549R,6.941819X0.084581*%
%ADD550R,26.586181X0.084581*%
%ADD551R,26.753819X0.084838*%
%ADD552R,26.840181X0.084581*%
%ADD553R,26.924000X0.084581*%
%ADD554R,20.149819X0.084581*%
%ADD555R,6.520181X0.084838*%
%ADD556R,27.007819X0.084838*%
%ADD557R,20.149819X0.084838*%
%ADD558R,27.178000X0.084581*%
%ADD559R,27.261819X0.084581*%
%ADD560R,6.266181X0.084838*%
%ADD561R,27.345638X0.084838*%
%ADD562R,27.432000X0.084581*%
%ADD563R,27.515819X0.084581*%
%ADD564R,27.686000X0.084838*%
%ADD565R,20.490181X0.084838*%
%ADD566R,5.925819X0.084581*%
%ADD567R,27.772362X0.084581*%
%ADD568R,20.406363X0.084581*%
%ADD569R,27.856181X0.084581*%
%ADD570R,5.758181X0.084838*%
%ADD571R,27.940000X0.084838*%
%ADD572R,28.026363X0.084581*%
%ADD573R,28.110181X0.084581*%
%ADD574R,20.660363X0.084581*%
%ADD575R,28.194000X0.084838*%
%ADD576R,20.660363X0.084838*%
%ADD577R,28.280363X0.084581*%
%ADD578R,28.364181X0.084581*%
%ADD579R,5.166362X0.084838*%
%ADD580R,28.448000X0.084838*%
%ADD581R,20.828000X0.084838*%
%ADD582R,28.534363X0.084581*%
%ADD583R,20.914362X0.084581*%
%ADD584R,28.618181X0.084581*%
%ADD585R,4.912363X0.084838*%
%ADD586R,28.702000X0.084838*%
%ADD587R,20.998181X0.084838*%
%ADD588R,28.702000X0.084581*%
%ADD589R,28.785819X0.084581*%
%ADD590R,21.168363X0.084581*%
%ADD591R,28.869637X0.084838*%
%ADD592R,21.168363X0.084838*%
%ADD593R,28.956000X0.084581*%
%ADD594R,29.039819X0.084581*%
%ADD595R,21.249638X0.084581*%
%ADD596R,4.404363X0.084838*%
%ADD597R,29.039819X0.084838*%
%ADD598R,21.336000X0.084838*%
%ADD599R,29.126181X0.084581*%
%ADD600R,4.234181X0.084581*%
%ADD601R,29.210000X0.084581*%
%ADD602R,29.293819X0.084838*%
%ADD603R,21.503637X0.084838*%
%ADD604R,29.296363X0.084581*%
%ADD605R,29.380181X0.084581*%
%ADD606R,21.673819X0.084581*%
%ADD607R,3.896363X0.084838*%
%ADD608R,29.464000X0.084838*%
%ADD609R,21.757638X0.084838*%
%ADD610R,3.723638X0.084581*%
%ADD611R,29.464000X0.084581*%
%ADD612R,21.757638X0.084581*%
%ADD613R,29.547819X0.084581*%
%ADD614R,29.547819X0.084838*%
%ADD615R,29.634181X0.084581*%
%ADD616R,22.011638X0.084581*%
%ADD617R,3.385819X0.084838*%
%ADD618R,29.718000X0.084838*%
%ADD619R,29.631638X0.084581*%
%ADD620R,22.265638X0.084581*%
%ADD621R,29.718000X0.084581*%
%ADD622R,22.352000X0.084838*%
%ADD623R,3.131819X0.084581*%
%ADD624R,29.801819X0.084581*%
%ADD625R,29.804362X0.084581*%
%ADD626R,22.522181X0.084581*%
%ADD627R,2.961638X0.084838*%
%ADD628R,29.801819X0.084838*%
%ADD629R,22.606000X0.084838*%
%ADD630R,2.961638X0.084581*%
%ADD631R,29.885638X0.084581*%
%ADD632R,29.888181X0.084581*%
%ADD633R,29.804362X0.084838*%
%ADD634R,2.794000X0.084581*%
%ADD635R,2.623819X0.084581*%
%ADD636R,2.540000X0.084838*%
%ADD637R,23.197819X0.084838*%
%ADD638R,2.456181X0.084581*%
%ADD639R,23.538181X0.084838*%
%ADD640R,29.634181X0.084838*%
%ADD641R,23.962363X0.084581*%
%ADD642R,2.115819X0.084838*%
%ADD643R,29.380181X0.084838*%
%ADD644R,24.216363X0.084838*%
%ADD645R,2.115819X0.084581*%
%ADD646R,25.062181X0.084581*%
%ADD647R,24.470363X0.084581*%
%ADD648R,25.062181X0.084838*%
%ADD649R,24.554181X0.084838*%
%ADD650R,25.059638X0.084581*%
%ADD651R,24.724363X0.084581*%
%ADD652R,24.975819X0.084581*%
%ADD653R,24.892000X0.084581*%
%ADD654R,25.232363X0.084581*%
%ADD655R,1.694181X0.084838*%
%ADD656R,24.975819X0.084838*%
%ADD657R,25.486363X0.084838*%
%ADD658R,1.610363X0.084838*%
%ADD659R,24.978363X0.084838*%
%ADD660R,26.078181X0.084838*%
%ADD661R,26.332181X0.084581*%
%ADD662R,1.524000X0.084581*%
%ADD663R,24.892000X0.084838*%
%ADD664R,26.670000X0.084838*%
%ADD665R,24.808181X0.084581*%
%ADD666R,24.805637X0.084581*%
%ADD667R,1.440181X0.084838*%
%ADD668R,27.432000X0.084838*%
%ADD669R,27.686000X0.084581*%
%ADD670R,1.356363X0.084581*%
%ADD671R,28.107638X0.084581*%
%ADD672R,1.356363X0.084838*%
%ADD673R,40.640000X0.084838*%
%ADD674R,40.723819X0.084581*%
%ADD675R,40.807637X0.084581*%
%ADD676R,40.894000X0.084838*%
%ADD677R,1.099819X0.084581*%
%ADD678R,24.297638X0.084581*%
%ADD679R,40.894000X0.084581*%
%ADD680R,40.977819X0.084581*%
%ADD681R,41.061638X0.084838*%
%ADD682R,41.064181X0.084581*%
%ADD683R,41.148000X0.084581*%
%ADD684R,1.016000X0.084838*%
%ADD685R,23.962363X0.084838*%
%ADD686R,41.231819X0.084838*%
%ADD687R,41.231819X0.084581*%
%ADD688R,41.318181X0.084581*%
%ADD689R,41.402000X0.084838*%
%ADD690R,41.485819X0.084581*%
%ADD691R,41.572181X0.084581*%
%ADD692R,0.845819X0.084838*%
%ADD693R,41.656000X0.084838*%
%ADD694R,41.739819X0.084581*%
%ADD695R,41.826181X0.084581*%
%ADD696R,41.910000X0.084838*%
%ADD697R,23.281638X0.084581*%
%ADD698R,41.993819X0.084581*%
%ADD699R,42.080181X0.084581*%
%ADD700R,23.114000X0.084838*%
%ADD701R,42.164000X0.084838*%
%ADD702R,42.247819X0.084581*%
%ADD703R,42.250363X0.084581*%
%ADD704R,22.860000X0.084838*%
%ADD705R,42.334181X0.084838*%
%ADD706R,42.418000X0.084581*%
%ADD707R,42.504362X0.084581*%
%ADD708R,22.692363X0.084838*%
%ADD709R,42.588181X0.084838*%
%ADD710R,33.444181X0.084581*%
%ADD711R,32.936181X0.084581*%
%ADD712R,0.678181X0.084838*%
%ADD713R,22.438363X0.084838*%
%ADD714R,32.598363X0.084838*%
%ADD715R,32.258000X0.084581*%
%ADD716R,6.520181X0.084581*%
%ADD717R,32.004000X0.084581*%
%ADD718R,6.350000X0.084838*%
%ADD719R,31.836362X0.084838*%
%ADD720R,31.582363X0.084581*%
%ADD721R,22.014181X0.084581*%
%ADD722R,6.182362X0.084581*%
%ADD723R,31.412181X0.084581*%
%ADD724R,21.930363X0.084838*%
%ADD725R,6.096000X0.084838*%
%ADD726R,31.242000X0.084838*%
%ADD727R,31.074363X0.084581*%
%ADD728R,30.988000X0.084581*%
%ADD729R,30.734000X0.084838*%
%ADD730R,21.503637X0.084581*%
%ADD731R,30.563819X0.084581*%
%ADD732R,30.480000X0.084581*%
%ADD733R,30.393638X0.084838*%
%ADD734R,30.226000X0.084581*%
%ADD735R,21.165819X0.084581*%
%ADD736R,30.139638X0.084581*%
%ADD737R,21.082000X0.084838*%
%ADD738R,30.055819X0.084838*%
%ADD739R,20.995638X0.084581*%
%ADD740R,29.972000X0.084581*%
%ADD741R,0.675638X0.084581*%
%ADD742R,20.744181X0.084838*%
%ADD743R,20.657819X0.084581*%
%ADD744R,29.377638X0.084581*%
%ADD745R,20.152363X0.084838*%
%ADD746R,19.898363X0.084838*%
%ADD747R,28.956000X0.084838*%
%ADD748R,28.872181X0.084581*%
%ADD749R,0.929638X0.084581*%
%ADD750R,0.929638X0.084838*%
%ADD751R,28.785819X0.084838*%
%ADD752R,0.932181X0.084838*%
%ADD753R,28.618181X0.084838*%
%ADD754R,28.531819X0.084581*%
%ADD755R,18.882362X0.084838*%
%ADD756R,28.448000X0.084581*%
%ADD757R,28.364181X0.084838*%
%ADD758R,28.277819X0.084581*%
%ADD759R,28.194000X0.084581*%
%ADD760R,28.110181X0.084838*%
%ADD761R,28.026363X0.084838*%
%ADD762R,27.518363X0.084581*%
%ADD763R,1.353819X0.084838*%
%ADD764R,27.094181X0.084838*%
%ADD765R,26.756363X0.084581*%
%ADD766R,26.416000X0.084581*%
%ADD767R,17.018000X0.084838*%
%ADD768R,16.931638X0.084581*%
%ADD769R,25.824181X0.084581*%
%ADD770R,16.764000X0.084581*%
%ADD771R,25.486363X0.084581*%
%ADD772R,16.680181X0.084838*%
%ADD773R,25.232363X0.084838*%
%ADD774R,3.977638X0.084581*%
%ADD775R,16.426181X0.084581*%
%ADD776R,24.297638X0.084838*%
%ADD777R,1.864363X0.084581*%
%ADD778R,22.519638X0.084581*%
%ADD779R,1.945638X0.084838*%
%ADD780R,22.265638X0.084838*%
%ADD781R,14.815819X0.084581*%
%ADD782R,2.118362X0.084581*%
%ADD783R,14.564363X0.084838*%
%ADD784R,21.673819X0.084838*%
%ADD785R,14.056363X0.084838*%
%ADD786R,21.165819X0.084838*%
%ADD787R,13.883638X0.084581*%
%ADD788R,2.453638X0.084838*%
%ADD789R,13.632181X0.084838*%
%ADD790R,13.291819X0.084581*%
%ADD791R,2.707638X0.084838*%
%ADD792R,13.124181X0.084838*%
%ADD793R,19.982181X0.084838*%
%ADD794R,12.783819X0.084581*%
%ADD795R,12.616181X0.084838*%
%ADD796R,12.192000X0.084581*%
%ADD797R,12.024363X0.084838*%
%ADD798R,3.218181X0.084581*%
%ADD799R,11.600181X0.084581*%
%ADD800R,0.594363X0.084581*%
%ADD801R,3.302000X0.084838*%
%ADD802R,0.508000X0.084838*%
%ADD803R,11.176000X0.084581*%
%ADD804R,10.751819X0.084838*%
%ADD805R,9.906000X0.084838*%
%ADD806R,0.254000X0.084838*%
%ADD807R,9.144000X0.084838*%
%ADD808R,0.167637X0.084838*%
%ADD809R,17.272000X0.084838*%
%ADD810R,4.150362X0.084581*%
%ADD811R,17.104363X0.084581*%
%ADD812R,8.211819X0.084838*%
%ADD813R,0.086363X0.084838*%
%ADD814R,16.850362X0.084838*%
%ADD815R,7.874000X0.084581*%
%ADD816R,16.596363X0.084581*%
%ADD817R,4.742181X0.084838*%
%ADD818R,7.028181X0.084838*%
%ADD819R,16.510000X0.084838*%
%ADD820R,16.085819X0.084838*%
%ADD821R,6.517638X0.084838*%
%ADD822R,15.069819X0.084838*%
%ADD823R,14.899638X0.084581*%
%ADD824R,7.195819X0.084838*%
%ADD825R,14.732000X0.084838*%
%ADD826R,14.478000X0.084581*%
%ADD827R,8.041638X0.084838*%
%ADD828R,14.391637X0.084838*%
%ADD829R,9.652000X0.084838*%
%ADD830R,13.970000X0.084838*%
%ADD831R,13.970000X0.084581*%
%ADD832R,13.799819X0.084581*%
%ADD833R,13.716000X0.084838*%
%ADD834R,13.629638X0.084581*%
%ADD835R,13.545819X0.084581*%
%ADD836R,13.378181X0.084838*%
%ADD837R,1.691638X0.084581*%
%ADD838R,2.626362X0.084581*%
%ADD839R,13.037819X0.084581*%
%ADD840R,3.218181X0.084838*%
%ADD841R,12.870181X0.084838*%
%ADD842R,12.529819X0.084838*%
%ADD843R,12.532363X0.084838*%
%ADD844R,12.362181X0.084581*%
%ADD845R,12.275819X0.084838*%
%ADD846R,12.108181X0.084581*%
%ADD847R,12.024363X0.084581*%
%ADD848R,6.774181X0.084838*%
%ADD849R,11.854181X0.084581*%
%ADD850R,7.028181X0.084581*%
%ADD851R,11.770363X0.084581*%
%ADD852R,11.516363X0.084581*%
%ADD853R,9.989819X0.084838*%
%ADD854R,11.346181X0.084581*%
%ADD855R,21.422363X0.084581*%
%ADD856R,11.089638X0.084838*%
%ADD857R,11.089638X0.084581*%
%ADD858R,10.922000X0.084838*%
%ADD859R,22.689819X0.084838*%
%ADD860R,10.835638X0.084581*%
%ADD861R,22.946362X0.084581*%
%ADD862R,10.246363X0.084581*%
%ADD863R,10.076181X0.084581*%
%ADD864R,9.992363X0.084581*%
%ADD865R,25.737819X0.084581*%
%ADD866R,25.994363X0.084838*%
%ADD867R,9.735819X0.084838*%
%ADD868R,9.738363X0.084581*%
%ADD869R,9.565638X0.084581*%
%ADD870R,9.565638X0.084838*%
%ADD871R,9.481819X0.084581*%
%ADD872R,27.010363X0.084581*%
%ADD873R,27.518363X0.084838*%
%ADD874R,9.314181X0.084838*%
%ADD875R,9.227819X0.084581*%
%ADD876R,27.940000X0.084581*%
%ADD877R,9.060181X0.084838*%
%ADD878R,28.361638X0.084581*%
%ADD879R,8.806181X0.084838*%
%ADD880R,8.722363X0.084581*%
%ADD881R,29.042363X0.084581*%
%ADD882R,38.186363X0.084581*%
%ADD883R,8.549638X0.084581*%
%ADD884R,8.465819X0.084838*%
%ADD885R,40.386000X0.084838*%
%ADD886R,8.549638X0.084838*%
%ADD887R,41.742362X0.084581*%
%ADD888R,8.465819X0.084581*%
%ADD889R,42.758363X0.084581*%
%ADD890R,43.774363X0.084838*%
%ADD891R,44.617638X0.084581*%
%ADD892R,8.211819X0.084581*%
%ADD893R,8.044181X0.084581*%
%ADD894R,45.298363X0.084581*%
%ADD895R,8.044181X0.084838*%
%ADD896R,45.974000X0.084838*%
%ADD897R,46.649638X0.084581*%
%ADD898R,47.330362X0.084581*%
%ADD899R,7.790181X0.084838*%
%ADD900R,47.838363X0.084838*%
%ADD901R,7.703819X0.084838*%
%ADD902R,48.346363X0.084581*%
%ADD903R,48.854363X0.084581*%
%ADD904R,7.533638X0.084838*%
%ADD905R,49.362363X0.084838*%
%ADD906R,49.870363X0.084581*%
%ADD907R,50.205638X0.084581*%
%ADD908R,65.278000X0.084838*%
%ADD909R,65.194181X0.084581*%
%ADD910R,65.110363X0.084581*%
%ADD911R,65.110363X0.084838*%
%ADD912R,65.024000X0.084581*%
%ADD913R,64.937638X0.084581*%
%ADD914R,64.937638X0.084838*%
%ADD915R,64.770000X0.084581*%
%ADD916R,64.686181X0.084838*%
%ADD917R,64.602362X0.084581*%
%ADD918R,64.516000X0.084838*%
%ADD919R,64.429637X0.084581*%
%ADD920R,64.262000X0.084838*%
%ADD921R,64.262000X0.084581*%
%ADD922R,64.178181X0.084581*%
%ADD923R,64.094363X0.084838*%
%ADD924R,64.094363X0.084581*%
%ADD925R,63.921638X0.084581*%
%ADD926R,63.921638X0.084838*%
%ADD927R,63.837819X0.084581*%
%ADD928R,63.754000X0.084581*%
%ADD929R,63.670181X0.084838*%
%ADD930R,63.586362X0.084581*%
%ADD931R,63.413638X0.084838*%
%ADD932R,63.413638X0.084581*%
%ADD933R,63.246000X0.084581*%
%ADD934R,63.246000X0.084838*%
%ADD935R,63.078363X0.084581*%
%ADD936R,62.905638X0.084838*%
%ADD937R,62.905638X0.084581*%
%ADD938R,62.738000X0.084581*%
%ADD939R,62.738000X0.084838*%
%ADD940R,62.570363X0.084581*%
%ADD941R,62.397638X0.084838*%
%ADD942R,62.397638X0.084581*%
%ADD943R,62.230000X0.084581*%
%ADD944R,62.230000X0.084838*%
%ADD945R,64.429637X0.084838*%
%ADD946R,65.278000X0.084581*%
%ADD947R,65.445638X0.084838*%
%ADD948R,65.532000X0.084581*%
%ADD949R,65.618363X0.084581*%
%ADD950R,65.786000X0.084838*%
%ADD951R,65.953637X0.084581*%
%ADD952R,66.126362X0.084581*%
%ADD953R,66.294000X0.084838*%
%ADD954R,66.461638X0.084581*%
%ADD955R,66.634363X0.084581*%
%ADD956R,66.634363X0.084838*%
%ADD957R,66.802000X0.084581*%
%ADD958R,66.969638X0.084581*%
%ADD959R,67.142363X0.084838*%
%ADD960R,67.310000X0.084581*%
%ADD961R,67.477638X0.084838*%
%ADD962R,67.650362X0.084581*%
%ADD963R,67.818000X0.084581*%
%ADD964R,67.818000X0.084838*%
%ADD965R,67.985638X0.084581*%
%ADD966R,68.158363X0.084581*%
%ADD967R,68.326000X0.084838*%
%ADD968R,68.326000X0.084581*%
%ADD969R,68.493638X0.084581*%
%ADD970R,68.666363X0.084838*%
%ADD971R,68.666363X0.084581*%
%ADD972R,68.834000X0.084581*%
%ADD973R,69.001638X0.084838*%
%ADD974R,69.001638X0.084581*%
%ADD975R,69.174363X0.084581*%
%ADD976R,69.342000X0.084838*%
%ADD977R,69.342000X0.084581*%
%ADD978R,69.509637X0.084581*%
%ADD979R,69.682362X0.084838*%
%ADD980R,69.682362X0.084581*%
%ADD981R,69.850000X0.084581*%
%ADD982R,27.178000X0.084838*%
%ADD983R,12.105638X0.084838*%
%ADD984R,26.583638X0.084581*%
%ADD985R,26.248363X0.084581*%
%ADD986R,25.908000X0.084838*%
%ADD987R,12.529819X0.084581*%
%ADD988R,9.057638X0.084581*%
%ADD989R,13.375637X0.084581*%
%ADD990R,11.854181X0.084838*%
%ADD991R,6.263638X0.084838*%
%ADD992R,7.706363X0.084581*%
%ADD993R,12.786363X0.084581*%
%ADD994R,6.266181X0.084581*%
%ADD995R,7.536181X0.084838*%
%ADD996R,11.005819X0.084838*%
%ADD997R,12.359637X0.084838*%
%ADD998R,10.838181X0.084581*%
%ADD999R,10.414000X0.084838*%
%ADD1000R,9.992363X0.084838*%
%ADD1001R,11.262363X0.084838*%
%ADD1002R,11.008363X0.084581*%
%ADD1003R,9.481819X0.084838*%
%ADD1004R,3.642363X0.084581*%
%ADD1005R,10.754363X0.084581*%
%ADD1006R,8.382000X0.084838*%
%ADD1007R,9.568181X0.084581*%
%ADD1008R,3.388362X0.084581*%
%ADD1009R,2.626362X0.084838*%
%ADD1010R,2.286000X0.084581*%
%ADD1011R,1.945638X0.084581*%
%ADD1012R,1.778000X0.084838*%
%ADD1013R,1.102363X0.084581*%
%ADD1014R,0.594363X0.084838*%
%ADD1015R,0.421637X0.084581*%
%ADD1016R,9.311637X0.084581*%
%ADD1017R,8.976363X0.084581*%
%ADD1018R,7.449819X0.084838*%
%ADD1019R,9.819638X0.084581*%
%ADD1020R,9.057638X0.084838*%
%ADD1021R,7.198362X0.084838*%
%ADD1022R,8.552181X0.084838*%
%ADD1023R,10.327637X0.084838*%
%ADD1024R,10.500363X0.084581*%
%ADD1025R,9.398000X0.084838*%
%ADD1026R,10.835638X0.084838*%
%ADD1027R,11.092181X0.084838*%
%ADD1028R,11.259819X0.084838*%
%ADD1029R,22.692363X0.084581*%
%ADD1030R,11.684000X0.084581*%
%ADD1031R,22.773637X0.084581*%
%ADD1032R,11.767819X0.084838*%
%ADD1033R,11.597638X0.084838*%
%ADD1034R,10.246363X0.084838*%
%ADD1035R,11.343637X0.084838*%
%ADD1036R,9.822181X0.084581*%
%ADD1037R,6.604000X0.084838*%
%ADD1038R,10.500363X0.084838*%
%ADD1039R,6.690362X0.084581*%
%ADD1040R,10.327637X0.084581*%
%ADD1041R,10.330181X0.084581*%
%ADD1042R,9.819638X0.084838*%
%ADD1043R,6.941819X0.084838*%
%ADD1044R,10.243819X0.084838*%
%ADD1045R,18.374363X0.084838*%
%ADD1046R,10.073638X0.084581*%
%ADD1047R,8.973819X0.084838*%
%ADD1048R,34.119819X0.084581*%
%ADD1049R,34.036000X0.084581*%
%ADD1050R,33.949638X0.084581*%
%ADD1051R,33.949638X0.084838*%
%ADD1052R,33.865819X0.084838*%
%ADD1053R,33.865819X0.084581*%
%ADD1054R,33.782000X0.084581*%
%ADD1055R,33.695638X0.084581*%
%ADD1056R,33.611819X0.084838*%
%ADD1057R,33.528000X0.084838*%
%ADD1058R,33.528000X0.084581*%
%ADD1059R,33.441637X0.084581*%
%ADD1060R,33.357819X0.084581*%
%ADD1061R,33.357819X0.084838*%
%ADD1062R,33.274000X0.084838*%
%ADD1063R,33.274000X0.084581*%
%ADD1064R,33.187638X0.084581*%
%ADD1065R,33.187638X0.084838*%
%ADD1066R,33.103819X0.084581*%
%ADD1067R,33.103819X0.084838*%
%ADD1068R,75.605638X0.084838*%
%ADD1069R,75.605638X0.084581*%
%ADD1070R,75.438000X0.084581*%
%ADD1071R,75.438000X0.084838*%
%ADD1072R,75.270363X0.084581*%
%ADD1073R,75.270363X0.084838*%
%ADD1074R,75.097638X0.084581*%
%ADD1075R,75.097638X0.084838*%
%ADD1076R,74.930000X0.084581*%
%ADD1077R,74.930000X0.084838*%
%ADD1078R,74.762363X0.084581*%
%ADD1079R,74.762363X0.084838*%
%ADD1080R,74.589638X0.084581*%
%ADD1081R,74.589638X0.084838*%
%ADD1082R,74.422000X0.084581*%
%ADD1083R,74.422000X0.084838*%
%ADD1084R,74.254362X0.084838*%
%ADD1085R,74.254362X0.084581*%
%ADD1086R,74.081637X0.084838*%
%ADD1087R,74.081637X0.084581*%
%ADD1088R,73.914000X0.084838*%
%ADD1089R,73.914000X0.084581*%
%ADD1090R,73.746363X0.084838*%
%ADD1091R,73.746363X0.084581*%
%ADD1092R,73.573638X0.084838*%
%ADD1093R,73.573638X0.084581*%
%ADD1094R,73.406000X0.084838*%
%ADD1095R,73.406000X0.084581*%
%ADD1096R,73.238363X0.084838*%
%ADD1097R,73.238363X0.084581*%
%ADD1098R,73.065638X0.084581*%
%ADD1099R,73.065638X0.084838*%
%ADD1100R,72.898000X0.084581*%
%ADD1101R,72.898000X0.084838*%
%ADD1102R,72.730362X0.084581*%
%ADD1103R,72.730362X0.084838*%
%ADD1104R,72.557637X0.084581*%
%ADD1105R,72.557637X0.084838*%
%ADD1106R,72.390000X0.084581*%
%ADD1107R,72.390000X0.084838*%
%ADD1108R,72.222363X0.084581*%
%ADD1109R,72.222363X0.084838*%
%ADD1110R,72.049638X0.084581*%
%ADD1111R,72.049638X0.084838*%
%ADD1112R,71.882000X0.084581*%
%ADD1113R,71.882000X0.084838*%
%ADD1114R,71.714363X0.084581*%
%ADD1115R,71.714363X0.084838*%
%ADD1116R,71.541638X0.084581*%
%ADD1117R,71.541638X0.084838*%
%ADD1118R,71.374000X0.084581*%
%ADD1119R,71.374000X0.084838*%
%ADD1120R,71.206362X0.084581*%
%ADD1121R,71.206362X0.084838*%
%ADD1122R,71.033637X0.084581*%
%ADD1123R,71.033637X0.084838*%
%ADD1124R,70.949819X0.084838*%
%ADD1125R,70.949819X0.084581*%
%ADD1126R,70.866000X0.084581*%
%ADD1127R,70.866000X0.084838*%
%ADD1128R,70.782181X0.084838*%
%ADD1129R,70.698363X0.084581*%
%ADD1130R,70.698363X0.084838*%
%ADD1131R,70.612000X0.084581*%
%ADD1132R,70.525638X0.084838*%
%ADD1133R,70.525638X0.084581*%
%ADD1134R,70.441819X0.084581*%
%ADD1135R,70.358000X0.084581*%
%ADD1136R,70.358000X0.084838*%
%ADD1137R,70.190363X0.084838*%
%ADD1138R,70.190363X0.084581*%
%ADD1139R,70.104000X0.084581*%
%ADD1140R,70.017638X0.084581*%
%ADD1141R,70.017638X0.084838*%
%ADD1142R,69.933819X0.084581*%
%ADD1143R,69.933819X0.084838*%
%ADD1144R,69.766181X0.084838*%
%ADD1145R,69.766181X0.084581*%
%ADD1146R,69.596000X0.084581*%
%ADD1147R,69.596000X0.084838*%
%ADD1148R,69.425819X0.084838*%
%ADD1149R,69.425819X0.084581*%
%ADD1150R,33.020000X0.084838*%
%ADD1151R,32.595819X0.084581*%
%ADD1152R,32.428181X0.084581*%
%ADD1153R,32.090363X0.084581*%
%ADD1154R,31.666181X0.084838*%
%ADD1155R,31.325819X0.084581*%
%ADD1156R,30.820363X0.084838*%
%ADD1157R,29.885638X0.084838*%
%ADD1158R,29.123638X0.084581*%
%ADD1159R,28.872181X0.084838*%
%ADD1160R,28.280363X0.084838*%
%ADD1161R,28.277819X0.084838*%
%ADD1162R,27.769819X0.084838*%
%ADD1163R,27.772362X0.084838*%
%ADD1164R,27.602181X0.084581*%
%ADD1165R,27.261819X0.084838*%
%ADD1166R,27.345638X0.084581*%
%ADD1167R,27.094181X0.084581*%
%ADD1168R,27.091638X0.084581*%
%ADD1169R,26.924000X0.084838*%
%ADD1170R,26.753819X0.084581*%
%ADD1171R,26.670000X0.084581*%
%ADD1172R,26.586181X0.084838*%
%ADD1173R,26.499819X0.084838*%
%ADD1174R,26.248363X0.084838*%
%ADD1175R,26.162000X0.084838*%
%ADD1176R,26.078181X0.084581*%
%ADD1177R,25.991819X0.084581*%
%ADD1178R,25.824181X0.084838*%
%ADD1179R,25.821638X0.084581*%
%ADD1180R,25.567638X0.084581*%
%ADD1181R,25.483819X0.084838*%
%ADD1182R,25.313638X0.084581*%
%ADD1183R,25.316181X0.084838*%
%ADD1184R,25.229819X0.084581*%
%ADD1185R,24.724363X0.084838*%
%ADD1186R,24.551638X0.084581*%
%ADD1187R,23.708362X0.084838*%
%ADD1188R,23.454363X0.084581*%
%ADD1189R,23.281638X0.084838*%
%ADD1190R,22.181819X0.084581*%
%ADD1191R,22.098000X0.084838*%
%ADD1192R,19.136363X0.084838*%
%ADD1193R,2.877819X0.084838*%
%ADD1194R,18.963638X0.084581*%
%ADD1195R,2.880362X0.084838*%
%ADD1196R,17.866363X0.084838*%
%ADD1197R,17.609819X0.084581*%
%ADD1198R,16.850362X0.084581*%
%ADD1199R,16.339819X0.084838*%
%ADD1200R,15.577819X0.084838*%
%ADD1201R,15.407637X0.084838*%
%ADD1202R,15.072363X0.084838*%
%ADD1203R,14.818363X0.084581*%
%ADD1204R,14.561819X0.084838*%
%ADD1205R,14.564363X0.084581*%
%ADD1206R,14.224000X0.084838*%
%ADD1207R,14.137638X0.084581*%
%ADD1208R,13.629638X0.084838*%
%ADD1209R,13.545819X0.084838*%
%ADD1210R,13.548363X0.084581*%
%ADD1211R,13.462000X0.084838*%
%ADD1212R,13.375637X0.084838*%
%ADD1213R,13.291819X0.084838*%
%ADD1214R,13.294363X0.084581*%
%ADD1215R,13.208000X0.084838*%
%ADD1216R,13.121638X0.084581*%
%ADD1217R,13.040363X0.084581*%
%ADD1218R,12.954000X0.084838*%
%ADD1219R,12.867638X0.084838*%
%ADD1220R,12.613638X0.084581*%
%ADD1221R,7.282181X0.084581*%
%ADD1222R,6.774181X0.084581*%
%ADD1223R,3.134362X0.084581*%
%ADD1224R,3.893819X0.084838*%
%ADD1225R,10.160000X0.084838*%
%ADD1226R,9.568181X0.084838*%
%ADD1227R,8.298181X0.084838*%
%ADD1228R,6.690362X0.084838*%
%ADD1229R,6.687819X0.084838*%
%ADD1230R,6.182362X0.084838*%
%ADD1231R,1.607819X0.084838*%
%ADD1232C,0.254000*%


D10*
X290415Y8466D03*
D11*
X469472Y8466D03*
D12*
X289983Y9313D03*
X470323Y9313D03*
D13*
X288713Y10159D03*
D14*
X470742Y10159D03*
D15*
X288281Y11006D03*
D16*
X471593Y11006D03*
D17*
X287443Y11853D03*
D18*
X472012Y11853D03*
D19*
X287443Y12699D03*
X472863Y12699D03*
D20*
X157488Y7620D03*
D21*
X286605Y13546D03*
X473701Y13546D03*
D22*
X157488Y8467D03*
D23*
X286173Y14393D03*
D24*
X473714Y14393D03*
D25*
X599855Y8467D03*
D26*
X157907Y9313D03*
D27*
X285322Y15239D03*
D28*
X474133Y15239D03*
D29*
X599867Y9313D03*
D30*
X157488Y10160D03*
D31*
X284903Y16086D03*
D32*
X474552Y16086D03*
D33*
X599436Y10160D03*
D34*
X157907Y11007D03*
D35*
X284484Y16933D03*
D36*
X475403Y16933D03*
D37*
X599436Y11007D03*
D38*
X157476Y11853D03*
D39*
X284052Y17779D03*
D40*
X475822Y17779D03*
D41*
X599448Y11853D03*
D11*
X74087Y12700D03*
D42*
X129548Y12700D03*
X189645Y12700D03*
D43*
X243836Y12700D03*
D44*
X283633Y18626D03*
D45*
X476254Y18626D03*
D46*
X517317Y12700D03*
D42*
X574048Y12700D03*
D47*
X634577Y12700D03*
D48*
X686215Y12700D03*
D49*
X71967Y13547D03*
D50*
X129536Y13547D03*
X189657Y13547D03*
D51*
X245106Y13547D03*
D52*
X283214Y19473D03*
X476254Y19473D03*
D53*
X516047Y13547D03*
D50*
X574036Y13547D03*
X634157Y13547D03*
D54*
X687917Y13547D03*
D49*
X71128Y14393D03*
D55*
X129548Y14393D03*
D56*
X190077Y14393D03*
D57*
X246376Y14393D03*
D58*
X514777Y14393D03*
D55*
X574048Y14393D03*
D56*
X634577Y14393D03*
D54*
X688755Y14393D03*
D11*
X69846Y15240D03*
D59*
X129536Y15240D03*
D60*
X190077Y15240D03*
D61*
X247227Y15240D03*
D62*
X513927Y15240D03*
D59*
X574036Y15240D03*
D60*
X634577Y15240D03*
D63*
X690037Y15240D03*
D53*
X69007Y16087D03*
D58*
X129536Y16087D03*
X189657Y16087D03*
D57*
X248077Y16087D03*
D64*
X512657Y16087D03*
D58*
X574036Y16087D03*
X634157Y16087D03*
D65*
X690876Y16087D03*
D58*
X68576Y16933D03*
D49*
X129548Y16933D03*
D66*
X190077Y16933D03*
D57*
X248916Y16933D03*
D64*
X511818Y16933D03*
D66*
X573617Y16933D03*
X634577Y16933D03*
D67*
X692146Y16933D03*
D46*
X67737Y17780D03*
D10*
X129548Y17780D03*
D68*
X190077Y17780D03*
D69*
X249767Y17780D03*
D70*
X511387Y17780D03*
D10*
X574048Y17780D03*
X634145Y17780D03*
D71*
X692565Y17780D03*
D64*
X67318Y18627D03*
D72*
X129117Y18627D03*
X190077Y18627D03*
D73*
X250617Y18627D03*
D74*
X510967Y18627D03*
D72*
X573617Y18627D03*
X634577Y18627D03*
D12*
X692997Y18627D03*
D75*
X66887Y19473D03*
D73*
X129536Y19473D03*
D72*
X190077Y19473D03*
X251037Y19473D03*
D56*
X510117Y19473D03*
D73*
X574036Y19473D03*
D72*
X634577Y19473D03*
D51*
X693847Y19473D03*
D59*
X66036Y20320D03*
D76*
X129536Y20320D03*
D68*
X190077Y20320D03*
X251037Y20320D03*
D77*
X509685Y20320D03*
D76*
X574036Y20320D03*
X634157Y20320D03*
D61*
X694267Y20320D03*
D56*
X65617Y21167D03*
D73*
X129536Y21167D03*
X189657Y21167D03*
D49*
X251468Y21167D03*
D78*
X509266Y21167D03*
D73*
X574036Y21167D03*
X634157Y21167D03*
D79*
X694698Y21167D03*
D55*
X65185Y22013D03*
D73*
X129536Y22013D03*
D79*
X190077Y22013D03*
D53*
X251887Y22013D03*
D80*
X508847Y22013D03*
D73*
X574036Y22013D03*
X634157Y22013D03*
D79*
X694698Y22013D03*
D81*
X64766Y22860D03*
D76*
X129536Y22860D03*
D82*
X190077Y22860D03*
D62*
X252307Y22860D03*
D83*
X508415Y22860D03*
D76*
X574036Y22860D03*
X634157Y22860D03*
X695117Y22860D03*
D78*
X64766Y23707D03*
D73*
X129536Y23707D03*
D79*
X190077Y23707D03*
D64*
X252738Y23707D03*
D84*
X507996Y23707D03*
D73*
X574036Y23707D03*
X634157Y23707D03*
D72*
X695537Y23707D03*
D80*
X64347Y24553D03*
D73*
X129536Y24553D03*
D79*
X190077Y24553D03*
D64*
X252738Y24553D03*
D84*
X507996Y24553D03*
D73*
X574036Y24553D03*
X634157Y24553D03*
D49*
X695968Y24553D03*
D83*
X63915Y25400D03*
D76*
X129536Y25400D03*
D82*
X190077Y25400D03*
D59*
X253157Y25400D03*
D85*
X507577Y25400D03*
D76*
X574036Y25400D03*
X634157Y25400D03*
D10*
X695968Y25400D03*
D86*
X63915Y26247D03*
D73*
X129536Y26247D03*
D79*
X190077Y26247D03*
D87*
X253157Y26247D03*
D88*
X507145Y26247D03*
D73*
X574036Y26247D03*
X634157Y26247D03*
D53*
X696387Y26247D03*
D84*
X63496Y27093D03*
D73*
X129536Y27093D03*
D79*
X190077Y27093D03*
D56*
X253577Y27093D03*
D88*
X507145Y27093D03*
D73*
X574036Y27093D03*
X634157Y27093D03*
D89*
X696807Y27093D03*
D90*
X63496Y27940D03*
D76*
X129536Y27940D03*
D82*
X190077Y27940D03*
D77*
X254008Y27940D03*
D91*
X506726Y27940D03*
D76*
X574036Y27940D03*
X634157Y27940D03*
D62*
X696807Y27940D03*
D92*
X63077Y28787D03*
D73*
X129536Y28787D03*
D79*
X190077Y28787D03*
D55*
X254008Y28787D03*
D93*
X506726Y28787D03*
D73*
X574036Y28787D03*
X634157Y28787D03*
D64*
X697238Y28787D03*
D92*
X63077Y29633D03*
D73*
X129536Y29633D03*
D79*
X190077Y29633D03*
D55*
X254008Y29633D03*
D94*
X506307Y29633D03*
D73*
X574036Y29633D03*
X634157Y29633D03*
D64*
X697238Y29633D03*
D42*
X62645Y30480D03*
D76*
X129536Y30480D03*
D82*
X190077Y30480D03*
D81*
X254427Y30480D03*
D95*
X506307Y30480D03*
D76*
X574036Y30480D03*
X634157Y30480D03*
D59*
X697657Y30480D03*
D88*
X62645Y31327D03*
D73*
X129536Y31327D03*
D79*
X190077Y31327D03*
D78*
X254427Y31327D03*
D96*
X505875Y31327D03*
D73*
X574036Y31327D03*
X634157Y31327D03*
D87*
X697657Y31327D03*
D93*
X62226Y32173D03*
D73*
X129536Y32173D03*
D79*
X190077Y32173D03*
D80*
X254847Y32173D03*
D96*
X505875Y32173D03*
D73*
X574036Y32173D03*
X634157Y32173D03*
D87*
X697657Y32173D03*
D91*
X62226Y33020D03*
D76*
X129536Y33020D03*
D82*
X190077Y33020D03*
D97*
X254847Y33020D03*
D98*
X505875Y33020D03*
D76*
X574036Y33020D03*
X634157Y33020D03*
D99*
X698077Y33020D03*
D93*
X62226Y33867D03*
D73*
X129536Y33867D03*
D79*
X190077Y33867D03*
D80*
X254847Y33867D03*
D100*
X505456Y33867D03*
D73*
X574036Y33867D03*
X634157Y33867D03*
D56*
X698077Y33867D03*
D94*
X61807Y34713D03*
D73*
X129536Y34713D03*
D79*
X190077Y34713D03*
D86*
X255278Y34713D03*
D100*
X505456Y34713D03*
D73*
X574036Y34713D03*
X634157Y34713D03*
D55*
X698508Y34713D03*
D95*
X61807Y35560D03*
D76*
X129536Y35560D03*
D82*
X190077Y35560D03*
D83*
X255278Y35560D03*
D101*
X505456Y35560D03*
D76*
X574036Y35560D03*
X634157Y35560D03*
D77*
X698508Y35560D03*
D94*
X61807Y36407D03*
D73*
X129536Y36407D03*
D79*
X190077Y36407D03*
D86*
X255278Y36407D03*
D102*
X505037Y36407D03*
D73*
X574036Y36407D03*
X634157Y36407D03*
D55*
X698508Y36407D03*
D94*
X61807Y37253D03*
D73*
X129536Y37253D03*
D79*
X190077Y37253D03*
D86*
X255278Y37253D03*
D102*
X505037Y37253D03*
D73*
X574036Y37253D03*
X634157Y37253D03*
D55*
X698508Y37253D03*
D98*
X61375Y38100D03*
D76*
X129536Y38100D03*
D82*
X190077Y38100D03*
D90*
X255697Y38100D03*
D103*
X505037Y38100D03*
D76*
X574036Y38100D03*
X634157Y38100D03*
D81*
X698927Y38100D03*
D96*
X61375Y38947D03*
D73*
X129536Y38947D03*
D79*
X190077Y38947D03*
D84*
X255697Y38947D03*
D102*
X505037Y38947D03*
D73*
X574036Y38947D03*
X634157Y38947D03*
D78*
X698927Y38947D03*
D96*
X61375Y39793D03*
D73*
X129536Y39793D03*
D79*
X190077Y39793D03*
D84*
X255697Y39793D03*
D104*
X504605Y39793D03*
D73*
X574036Y39793D03*
X634157Y39793D03*
D78*
X698927Y39793D03*
D98*
X61375Y40640D03*
D76*
X129536Y40640D03*
D82*
X190077Y40640D03*
D90*
X255697Y40640D03*
D105*
X504605Y40640D03*
D76*
X574036Y40640D03*
X634157Y40640D03*
D81*
X698927Y40640D03*
D96*
X61375Y41487D03*
D73*
X129536Y41487D03*
D79*
X190077Y41487D03*
D84*
X255697Y41487D03*
D104*
X504605Y41487D03*
D73*
X574036Y41487D03*
X634157Y41487D03*
D78*
X698927Y41487D03*
D96*
X61375Y42333D03*
D73*
X129536Y42333D03*
D79*
X190077Y42333D03*
D84*
X255697Y42333D03*
D104*
X504605Y42333D03*
D73*
X574036Y42333D03*
X634157Y42333D03*
D78*
X698927Y42333D03*
D98*
X61375Y43180D03*
D76*
X129536Y43180D03*
D82*
X190077Y43180D03*
D90*
X255697Y43180D03*
D105*
X504605Y43180D03*
D76*
X574036Y43180D03*
X634157Y43180D03*
D81*
X698927Y43180D03*
D96*
X61375Y44027D03*
D73*
X129536Y44027D03*
D79*
X190077Y44027D03*
D84*
X255697Y44027D03*
D104*
X504605Y44027D03*
D73*
X574036Y44027D03*
X634157Y44027D03*
D78*
X698927Y44027D03*
D96*
X61375Y44873D03*
D73*
X129536Y44873D03*
D79*
X190077Y44873D03*
D84*
X255697Y44873D03*
D104*
X504605Y44873D03*
D73*
X574036Y44873D03*
X634157Y44873D03*
D78*
X698927Y44873D03*
D98*
X61375Y45720D03*
D76*
X129536Y45720D03*
D82*
X190077Y45720D03*
D90*
X255697Y45720D03*
D105*
X504605Y45720D03*
D76*
X574036Y45720D03*
X634157Y45720D03*
D81*
X698927Y45720D03*
D96*
X61375Y46567D03*
D73*
X129536Y46567D03*
D79*
X190077Y46567D03*
D84*
X255697Y46567D03*
D104*
X504605Y46567D03*
D73*
X574036Y46567D03*
X634157Y46567D03*
D78*
X698927Y46567D03*
D96*
X61375Y47413D03*
D73*
X129536Y47413D03*
D79*
X190077Y47413D03*
D84*
X255697Y47413D03*
D104*
X504605Y47413D03*
D73*
X574036Y47413D03*
X634157Y47413D03*
D78*
X698927Y47413D03*
D98*
X61375Y48260D03*
D76*
X129536Y48260D03*
D82*
X190077Y48260D03*
D90*
X255697Y48260D03*
D105*
X504605Y48260D03*
D76*
X574036Y48260D03*
X634157Y48260D03*
D81*
X698927Y48260D03*
D96*
X61375Y49107D03*
D73*
X129536Y49107D03*
D79*
X190077Y49107D03*
D84*
X255697Y49107D03*
D104*
X504605Y49107D03*
D73*
X574036Y49107D03*
X634157Y49107D03*
D78*
X698927Y49107D03*
D96*
X61375Y49953D03*
D73*
X129536Y49953D03*
D79*
X190077Y49953D03*
D84*
X255697Y49953D03*
D104*
X504605Y49953D03*
D73*
X574036Y49953D03*
X634157Y49953D03*
D78*
X698927Y49953D03*
D98*
X61375Y50800D03*
D76*
X129536Y50800D03*
D82*
X190077Y50800D03*
D90*
X255697Y50800D03*
D105*
X504605Y50800D03*
D76*
X574036Y50800D03*
X634157Y50800D03*
D81*
X698927Y50800D03*
D96*
X61375Y51647D03*
D73*
X129536Y51647D03*
D79*
X190077Y51647D03*
D84*
X255697Y51647D03*
D104*
X504605Y51647D03*
D73*
X574036Y51647D03*
X634157Y51647D03*
D78*
X698927Y51647D03*
D96*
X61375Y52493D03*
D73*
X129536Y52493D03*
D79*
X190077Y52493D03*
D84*
X255697Y52493D03*
D104*
X504605Y52493D03*
D73*
X574036Y52493D03*
X634157Y52493D03*
D78*
X698927Y52493D03*
D98*
X61375Y53340D03*
D76*
X129536Y53340D03*
X189657Y53340D03*
D90*
X255697Y53340D03*
D105*
X504605Y53340D03*
D76*
X574036Y53340D03*
X634157Y53340D03*
D81*
X698927Y53340D03*
D96*
X61375Y54187D03*
D73*
X129536Y54187D03*
D72*
X190077Y54187D03*
D84*
X255697Y54187D03*
D104*
X504605Y54187D03*
D73*
X574036Y54187D03*
X634157Y54187D03*
D78*
X698927Y54187D03*
D106*
X61807Y55033D03*
D73*
X129536Y55033D03*
D72*
X190077Y55033D03*
D84*
X255697Y55033D03*
D104*
X504605Y55033D03*
D73*
X574036Y55033D03*
D72*
X634577Y55033D03*
D78*
X698927Y55033D03*
D107*
X61807Y55880D03*
D68*
X129117Y55880D03*
X190077Y55880D03*
D108*
X255266Y55880D03*
D109*
X505037Y55880D03*
D68*
X573617Y55880D03*
X634577Y55880D03*
D110*
X698496Y55880D03*
D106*
X61807Y56727D03*
D49*
X129548Y56727D03*
D72*
X190077Y56727D03*
D111*
X255266Y56727D03*
D112*
X505037Y56727D03*
D49*
X574048Y56727D03*
X634145Y56727D03*
D50*
X698496Y56727D03*
D113*
X62226Y57573D03*
D66*
X129117Y57573D03*
X190077Y57573D03*
D114*
X254847Y57573D03*
D115*
X505456Y57573D03*
D66*
X573617Y57573D03*
X634577Y57573D03*
D50*
X698496Y57573D03*
D101*
X62657Y58420D03*
D46*
X129536Y58420D03*
X189657Y58420D03*
D108*
X254427Y58420D03*
D116*
X505887Y58420D03*
D46*
X574036Y58420D03*
X634157Y58420D03*
D83*
X698077Y58420D03*
D102*
X63077Y59267D03*
D87*
X129536Y59267D03*
D64*
X190077Y59267D03*
D88*
X254008Y59267D03*
D117*
X506307Y59267D03*
D87*
X574036Y59267D03*
D64*
X634577Y59267D03*
D86*
X697238Y59267D03*
D104*
X63508Y60113D03*
D55*
X129548Y60113D03*
D56*
X190077Y60113D03*
D118*
X253577Y60113D03*
D119*
X506738Y60113D03*
D55*
X574048Y60113D03*
X634145Y60113D03*
D114*
X696807Y60113D03*
D120*
X64347Y60960D03*
D110*
X129536Y60960D03*
D83*
X190077Y60960D03*
D121*
X253157Y60960D03*
D122*
X507157Y60960D03*
D110*
X574036Y60960D03*
D83*
X634577Y60960D03*
D108*
X696387Y60960D03*
D123*
X65197Y61807D03*
D88*
X129548Y61807D03*
D118*
X190077Y61807D03*
D106*
X252307Y61807D03*
D124*
X508427Y61807D03*
D118*
X573617Y61807D03*
X634577Y61807D03*
X695537Y61807D03*
D125*
X157488Y62653D03*
X599448Y62653D03*
D126*
X157057Y63500D03*
D127*
X599448Y63500D03*
D128*
X157476Y64347D03*
D129*
X599867Y64347D03*
D128*
X157476Y65193D03*
X599436Y65193D03*
D130*
X157476Y66040D03*
X599436Y66040D03*
D128*
X157476Y66887D03*
X599436Y66887D03*
D131*
X157057Y67733D03*
D128*
X599436Y67733D03*
D132*
X157476Y68580D03*
D133*
X599855Y68580D03*
D134*
X157476Y69427D03*
X599436Y69427D03*
X157476Y70273D03*
X599436Y70273D03*
D132*
X157476Y71120D03*
X599436Y71120D03*
D135*
X157488Y71967D03*
D136*
X599867Y71967D03*
D135*
X157488Y72813D03*
X599448Y72813D03*
D137*
X157488Y73660D03*
X599448Y73660D03*
D138*
X157057Y74507D03*
D135*
X599448Y74507D03*
D139*
X157476Y75353D03*
X599436Y75353D03*
D140*
X157476Y76200D03*
X599436Y76200D03*
D141*
X157057Y77047D03*
D139*
X599436Y77047D03*
D142*
X157476Y77893D03*
D141*
X599855Y77893D03*
D143*
X157476Y78740D03*
X599436Y78740D03*
D144*
X157057Y79587D03*
D142*
X599436Y79587D03*
D145*
X157488Y80433D03*
D146*
X599867Y80433D03*
D147*
X157488Y81280D03*
X599448Y81280D03*
D148*
X157057Y82127D03*
D145*
X599448Y82127D03*
D149*
X157476Y82973D03*
X599436Y82973D03*
D150*
X157476Y83820D03*
X599436Y83820D03*
D151*
X157476Y84667D03*
D152*
X599855Y84667D03*
D151*
X157476Y85513D03*
X599436Y85513D03*
D153*
X157057Y86360D03*
D154*
X599436Y86360D03*
D155*
X157488Y87207D03*
X599448Y87207D03*
D156*
X157057Y88053D03*
D155*
X599448Y88053D03*
D157*
X157476Y88900D03*
D158*
X599867Y88900D03*
D159*
X157476Y89747D03*
X599436Y89747D03*
D160*
X157476Y90593D03*
D161*
X599855Y90593D03*
D162*
X157476Y91440D03*
X599436Y91440D03*
D163*
X157488Y92287D03*
D164*
X599867Y92287D03*
D163*
X157488Y93133D03*
X599448Y93133D03*
D165*
X157476Y93980D03*
D166*
X599867Y93980D03*
D167*
X157057Y94827D03*
D168*
X599436Y94827D03*
D169*
X157476Y95673D03*
D167*
X599855Y95673D03*
D170*
X157057Y96520D03*
D171*
X599436Y96520D03*
D172*
X157488Y97367D03*
X599448Y97367D03*
D173*
X157476Y98213D03*
D172*
X599448Y98213D03*
D174*
X157476Y99060D03*
X599436Y99060D03*
D175*
X157476Y99907D03*
D176*
X599855Y99907D03*
D177*
X157057Y100753D03*
D175*
X599436Y100753D03*
D178*
X157488Y101600D03*
X599448Y101600D03*
D179*
X157476Y102447D03*
D180*
X599448Y102447D03*
D181*
X157057Y103293D03*
D179*
X599436Y103293D03*
D182*
X157476Y104140D03*
X599436Y104140D03*
D183*
X157488Y104987D03*
D184*
X599436Y104987D03*
D38*
X157476Y105833D03*
D183*
X599448Y105833D03*
D185*
X157476Y106680D03*
X599436Y106680D03*
D186*
X157476Y107527D03*
D187*
X599855Y107527D03*
D41*
X157488Y108373D03*
D186*
X599436Y108373D03*
D188*
X157476Y109220D03*
D189*
X599448Y109220D03*
D190*
X157476Y110067D03*
X599436Y110067D03*
D37*
X157476Y110913D03*
D191*
X599855Y110913D03*
D30*
X157488Y111760D03*
D192*
X599436Y111760D03*
D193*
X157476Y112607D03*
D194*
X599448Y112607D03*
D195*
X157476Y113453D03*
D193*
X599436Y113453D03*
D196*
X157488Y114300D03*
D33*
X599436Y114300D03*
D197*
X157057Y115147D03*
D198*
X599448Y115147D03*
D199*
X157057Y115993D03*
D200*
X599436Y115993D03*
D201*
X157476Y116840D03*
X599436Y116840D03*
D22*
X157488Y117687D03*
D29*
X599867Y117687D03*
D202*
X157476Y118533D03*
D203*
X599867Y118533D03*
D204*
X157476Y119380D03*
D205*
X599855Y119380D03*
D206*
X708656Y119380D03*
D207*
X49107Y120227D03*
D208*
X157488Y120227D03*
D209*
X599867Y120227D03*
D210*
X708237Y120227D03*
D52*
X49526Y121073D03*
D211*
X157476Y121073D03*
D212*
X599867Y121073D03*
D213*
X708668Y121073D03*
D45*
X49526Y121920D03*
D214*
X157057Y121920D03*
D215*
X599436Y121920D03*
D216*
X708237Y121920D03*
D217*
X49957Y122767D03*
D218*
X157476Y122767D03*
D219*
X599448Y122767D03*
D220*
X708237Y122767D03*
D40*
X49957Y123613D03*
D221*
X157476Y123613D03*
D218*
X599436Y123613D03*
D40*
X707817Y123613D03*
D222*
X50377Y124460D03*
D223*
X157488Y124460D03*
D224*
X599436Y124460D03*
D225*
X707805Y124460D03*
D36*
X50377Y125307D03*
D226*
X157476Y125307D03*
D227*
X599448Y125307D03*
D228*
X707386Y125307D03*
D35*
X50796Y126153D03*
D229*
X157476Y126153D03*
D226*
X599436Y126153D03*
D230*
X707398Y126153D03*
D231*
X50796Y127000D03*
D232*
X157476Y127000D03*
D233*
X599867Y127000D03*
D234*
X706967Y127000D03*
D235*
X51227Y127847D03*
D236*
X157476Y127847D03*
D237*
X599436Y127847D03*
D238*
X706967Y127847D03*
D239*
X51227Y128693D03*
D240*
X157488Y128693D03*
D236*
X599436Y128693D03*
D239*
X706547Y128693D03*
D241*
X51647Y129540D03*
D242*
X157057Y129540D03*
D243*
X599867Y129540D03*
D244*
X706535Y129540D03*
D245*
X51647Y130387D03*
D246*
X157488Y130387D03*
D247*
X599436Y130387D03*
D248*
X706116Y130387D03*
D24*
X52066Y131233D03*
D249*
X157476Y131233D03*
D246*
X599448Y131233D03*
D23*
X706128Y131233D03*
D250*
X52066Y132080D03*
D251*
X157488Y132080D03*
D252*
X599436Y132080D03*
D253*
X705697Y132080D03*
D254*
X52497Y132927D03*
D255*
X157057Y132927D03*
D256*
X599448Y132927D03*
D257*
X705697Y132927D03*
D258*
X52917Y133773D03*
D259*
X157488Y133773D03*
D260*
X599436Y133773D03*
D261*
X704846Y133773D03*
D262*
X53348Y134620D03*
D263*
X157476Y134620D03*
D264*
X599448Y134620D03*
D265*
X704846Y134620D03*
D266*
X53767Y135467D03*
D267*
X157057Y135467D03*
D268*
X599436Y135467D03*
D269*
X704427Y135467D03*
D270*
X53755Y136313D03*
D271*
X157476Y136313D03*
D272*
X599436Y136313D03*
D270*
X703995Y136313D03*
D273*
X54606Y137160D03*
D274*
X157476Y137160D03*
D275*
X599867Y137160D03*
D276*
X703588Y137160D03*
D277*
X54606Y138007D03*
D278*
X157488Y138007D03*
D279*
X599855Y138007D03*
D280*
X703157Y138007D03*
D281*
X55037Y138853D03*
D282*
X157476Y138853D03*
D283*
X599867Y138853D03*
D284*
X703157Y138853D03*
D285*
X55457Y139700D03*
D286*
X157476Y139700D03*
D287*
X599867Y139700D03*
D288*
X702737Y139700D03*
D289*
X55888Y140547D03*
D290*
X157488Y140547D03*
D291*
X599436Y140547D03*
D292*
X702306Y140547D03*
D13*
X56727Y141393D03*
D293*
X157488Y141393D03*
D294*
X599436Y141393D03*
D13*
X701887Y141393D03*
D295*
X56727Y142240D03*
D296*
X157476Y142240D03*
D297*
X599448Y142240D03*
D63*
X701036Y142240D03*
D298*
X57565Y143087D03*
D299*
X157476Y143087D03*
D300*
X599448Y143087D03*
D298*
X701048Y143087D03*
D57*
X57577Y143933D03*
D301*
X157476Y143933D03*
D302*
X599867Y143933D03*
D57*
X700197Y143933D03*
D76*
X58416Y144780D03*
D303*
X157476Y144780D03*
D304*
X599867Y144780D03*
D305*
X699766Y144780D03*
D49*
X59267Y145627D03*
D306*
X157057Y145627D03*
D307*
X599448Y145627D03*
D49*
X699347Y145627D03*
D64*
X59698Y146473D03*
D308*
X157476Y146473D03*
D309*
X599448Y146473D03*
D58*
X698496Y146473D03*
D99*
X60537Y147320D03*
D310*
X157057Y147320D03*
D311*
X599855Y147320D03*
D99*
X698077Y147320D03*
D78*
X61387Y148167D03*
D312*
X157488Y148167D03*
D313*
X599867Y148167D03*
D78*
X697226Y148167D03*
D114*
X61807Y149013D03*
D84*
X157476Y149013D03*
D314*
X599436Y149013D03*
D86*
X696375Y149013D03*
D42*
X62645Y149860D03*
X695968Y149860D03*
D96*
X63077Y150707D03*
D315*
X695117Y150707D03*
D113*
X63927Y151553D03*
D106*
X694267Y151553D03*
D316*
X65197Y152400D03*
X693416Y152400D03*
D317*
X66048Y153247D03*
D318*
X217597Y153247D03*
D123*
X692577Y153247D03*
D319*
X66887Y154093D03*
D320*
X216327Y154093D03*
D124*
X691307Y154093D03*
D321*
X68157Y154940D03*
D322*
X215057Y154940D03*
D323*
X541447Y154940D03*
D321*
X690457Y154940D03*
D324*
X69427Y155787D03*
D228*
X213787Y155787D03*
D217*
X542717Y155787D03*
D325*
X689187Y155787D03*
D326*
X71116Y156633D03*
D235*
X212086Y156633D03*
D327*
X544407Y156633D03*
D328*
X687485Y156633D03*
D329*
X72805Y157480D03*
D244*
X210397Y157480D03*
D231*
X546096Y157480D03*
D330*
X686647Y157480D03*
D331*
X74926Y158327D03*
D254*
X208276Y158327D03*
D27*
X547797Y158327D03*
D332*
X684538Y158327D03*
D333*
X77466Y159173D03*
D270*
X205317Y159173D03*
D334*
X549906Y159173D03*
D335*
X682417Y159173D03*
D303*
X82977Y160020D03*
D63*
X199817Y160020D03*
D336*
X552877Y160020D03*
D337*
X679877Y160020D03*
D208*
X125307Y160867D03*
X633307Y160867D03*
D209*
X124887Y161713D03*
D208*
X633307Y161713D03*
D338*
X124887Y162560D03*
D339*
X633307Y162560D03*
D209*
X124887Y163407D03*
X633726Y163407D03*
D340*
X124456Y164253D03*
D209*
X633726Y164253D03*
D204*
X124456Y165100D03*
D338*
X633726Y165100D03*
D340*
X124456Y165947D03*
X634157Y165947D03*
X124456Y166793D03*
X634157Y166793D03*
D205*
X124037Y167640D03*
D204*
X634157Y167640D03*
D341*
X124037Y168487D03*
D340*
X634157Y168487D03*
D341*
X124037Y169333D03*
X634577Y169333D03*
D205*
X124037Y170180D03*
X634577Y170180D03*
D202*
X123617Y171027D03*
D341*
X634577Y171027D03*
D202*
X123617Y171873D03*
D341*
X634577Y171873D03*
D342*
X123617Y172720D03*
X634996Y172720D03*
D202*
X123617Y173567D03*
X634996Y173567D03*
D203*
X123186Y174413D03*
D202*
X634996Y174413D03*
D343*
X123186Y175260D03*
D342*
X634996Y175260D03*
D203*
X123186Y176107D03*
X635427Y176107D03*
X123186Y176953D03*
X635427Y176953D03*
D343*
X123186Y177800D03*
X635427Y177800D03*
D22*
X122767Y178647D03*
D203*
X635427Y178647D03*
D22*
X122767Y179493D03*
D203*
X635427Y179493D03*
D344*
X122767Y180340D03*
X635847Y180340D03*
D22*
X122767Y181187D03*
X635847Y181187D03*
X122767Y182033D03*
X635847Y182033D03*
D345*
X122347Y182880D03*
D344*
X635847Y182880D03*
D29*
X122347Y183727D03*
D22*
X635847Y183727D03*
D29*
X122347Y184573D03*
X636266Y184573D03*
D342*
X121077Y185420D03*
D345*
X636266Y185420D03*
D209*
X119807Y186267D03*
D29*
X636266Y186267D03*
D212*
X118106Y187113D03*
D29*
X636266Y187113D03*
D346*
X117255Y187960D03*
D345*
X636266Y187960D03*
D347*
X116417Y188807D03*
D29*
X636266Y188807D03*
D348*
X115566Y189653D03*
D349*
X636697Y189653D03*
D350*
X114715Y190500D03*
D201*
X636697Y190500D03*
D351*
X113877Y191347D03*
D349*
X636697Y191347D03*
D352*
X113026Y192193D03*
D349*
X636697Y192193D03*
D353*
X112187Y193040D03*
D201*
X636697Y193040D03*
D354*
X111337Y193887D03*
D349*
X636697Y193887D03*
D229*
X110917Y194733D03*
D355*
X230717Y194733D03*
D349*
X636697Y194733D03*
D233*
X110486Y195580D03*
D21*
X230717Y195580D03*
D356*
X637117Y195580D03*
D357*
X110067Y196427D03*
D17*
X230717Y196427D03*
D199*
X637117Y196427D03*
D358*
X109647Y197273D03*
D359*
X230717Y197273D03*
D199*
X637117Y197273D03*
D360*
X108797Y198120D03*
D48*
X230717Y198120D03*
D356*
X637117Y198120D03*
D236*
X108377Y198967D03*
D12*
X230717Y198967D03*
D199*
X637117Y198967D03*
D361*
X107527Y199813D03*
D72*
X230717Y199813D03*
D199*
X637117Y199813D03*
D362*
X107107Y200660D03*
D60*
X230717Y200660D03*
D356*
X637117Y200660D03*
D363*
X107107Y201507D03*
D56*
X230717Y201507D03*
D199*
X637117Y201507D03*
D240*
X106688Y202353D03*
D86*
X230717Y202353D03*
D199*
X637117Y202353D03*
D364*
X106257Y203200D03*
D85*
X230717Y203200D03*
D356*
X637117Y203200D03*
D365*
X105837Y204047D03*
D315*
X231136Y204047D03*
D200*
X637536Y204047D03*
D366*
X105418Y204893D03*
D102*
X230717Y204893D03*
D200*
X637536Y204893D03*
D367*
X104987Y205740D03*
D109*
X230717Y205740D03*
D368*
X637536Y205740D03*
D369*
X104987Y206587D03*
D119*
X230717Y206587D03*
D200*
X637536Y206587D03*
D370*
X104567Y207433D03*
D371*
X230717Y207433D03*
D200*
X637536Y207433D03*
D372*
X104148Y208280D03*
D373*
X230717Y208280D03*
D368*
X637536Y208280D03*
D374*
X103717Y209127D03*
D375*
X230717Y209127D03*
D200*
X637536Y209127D03*
D246*
X103285Y209973D03*
D376*
X230717Y209973D03*
D200*
X637536Y209973D03*
D372*
X103285Y210820D03*
D377*
X231148Y210820D03*
D368*
X637536Y210820D03*
D378*
X102866Y211667D03*
D379*
X230717Y211667D03*
D200*
X637536Y211667D03*
D378*
X102866Y212513D03*
D380*
X230717Y212513D03*
D200*
X637536Y212513D03*
D381*
X102447Y213360D03*
D382*
X230717Y213360D03*
D368*
X637536Y213360D03*
D383*
X102447Y214207D03*
D328*
X231148Y214207D03*
D200*
X637536Y214207D03*
D384*
X102015Y215053D03*
D385*
X230717Y215053D03*
D200*
X637536Y215053D03*
D386*
X102015Y215900D03*
D387*
X230717Y215900D03*
D368*
X637536Y215900D03*
D388*
X101596Y216747D03*
D389*
X230717Y216747D03*
D200*
X637536Y216747D03*
D388*
X101596Y217593D03*
D390*
X230717Y217593D03*
D200*
X637536Y217593D03*
D391*
X101177Y218440D03*
D392*
X230717Y218440D03*
D393*
X637967Y218440D03*
D394*
X101177Y219287D03*
D395*
X230717Y219287D03*
D396*
X637967Y219287D03*
D394*
X101177Y220133D03*
D395*
X230717Y220133D03*
D396*
X637967Y220133D03*
D251*
X100745Y220980D03*
D397*
X230717Y220980D03*
D393*
X637967Y220980D03*
D256*
X100745Y221827D03*
D332*
X230717Y221827D03*
D396*
X637967Y221827D03*
D256*
X100745Y222673D03*
D398*
X230717Y222673D03*
D396*
X637967Y222673D03*
D251*
X100745Y223520D03*
D399*
X230717Y223520D03*
D393*
X637967Y223520D03*
D400*
X100326Y224367D03*
D398*
X230717Y224367D03*
D396*
X637967Y224367D03*
D400*
X100326Y225213D03*
D401*
X230717Y225213D03*
D35*
X307336Y225213D03*
D396*
X637967Y225213D03*
D402*
X100326Y226060D03*
D403*
X230717Y226060D03*
D404*
X307336Y226060D03*
D393*
X637967Y226060D03*
D400*
X100326Y226907D03*
D401*
X230717Y226907D03*
D270*
X306917Y226907D03*
D396*
X637967Y226907D03*
D405*
X99907Y227753D03*
D335*
X231136Y227753D03*
D284*
X306917Y227753D03*
D396*
X637967Y227753D03*
D406*
X99907Y228600D03*
D311*
X230717Y228600D03*
D407*
X307336Y228600D03*
D393*
X637967Y228600D03*
D405*
X99907Y229447D03*
D408*
X230717Y229447D03*
D298*
X307348Y229447D03*
D396*
X637967Y229447D03*
D405*
X99907Y230293D03*
D408*
X230717Y230293D03*
D73*
X307336Y230293D03*
D200*
X637536Y230293D03*
D406*
X99907Y231140D03*
D409*
X231136Y231140D03*
D46*
X307336Y231140D03*
D368*
X637536Y231140D03*
D405*
X99907Y231987D03*
D308*
X231136Y231987D03*
D56*
X306917Y231987D03*
D200*
X637536Y231987D03*
D405*
X99907Y232833D03*
D410*
X230717Y232833D03*
D50*
X307336Y232833D03*
D200*
X637536Y232833D03*
D406*
X99907Y233680D03*
D411*
X230717Y233680D03*
D85*
X306917Y233680D03*
D368*
X637536Y233680D03*
D405*
X99907Y234527D03*
D410*
X230717Y234527D03*
D315*
X307336Y234527D03*
D200*
X637536Y234527D03*
D255*
X99475Y235373D03*
D412*
X231148Y235373D03*
D102*
X306917Y235373D03*
D200*
X637536Y235373D03*
D413*
X99475Y236220D03*
D414*
X231148Y236220D03*
D109*
X306917Y236220D03*
D368*
X637536Y236220D03*
D255*
X99475Y237067D03*
D415*
X262047Y237067D03*
D200*
X637536Y237067D03*
D255*
X99475Y237913D03*
D416*
X262467Y237913D03*
D200*
X637536Y237913D03*
D417*
X99907Y238760D03*
D413*
X262898Y238760D03*
D368*
X637536Y238760D03*
D416*
X99907Y239607D03*
D418*
X263317Y239607D03*
D200*
X637536Y239607D03*
D416*
X99907Y240453D03*
D419*
X263737Y240453D03*
D200*
X637536Y240453D03*
D417*
X99907Y241300D03*
D251*
X264168Y241300D03*
D368*
X637536Y241300D03*
D255*
X100338Y242147D03*
D256*
X264168Y242147D03*
D200*
X637536Y242147D03*
D255*
X100338Y242993D03*
D420*
X264587Y242993D03*
D200*
X637536Y242993D03*
D413*
X100338Y243840D03*
D421*
X265007Y243840D03*
D368*
X637536Y243840D03*
D255*
X100338Y244687D03*
D384*
X265438Y244687D03*
D200*
X637536Y244687D03*
D255*
X100338Y245533D03*
D388*
X265857Y245533D03*
D199*
X637117Y245533D03*
D413*
X100338Y246380D03*
D386*
X266277Y246380D03*
D356*
X637117Y246380D03*
D255*
X100338Y247227D03*
D249*
X266696Y247227D03*
D199*
X637117Y247227D03*
D255*
X100338Y248073D03*
D249*
X266696Y248073D03*
D199*
X637117Y248073D03*
D422*
X100757Y248920D03*
D423*
X267127Y248920D03*
D356*
X637117Y248920D03*
D418*
X100757Y249767D03*
D383*
X267547Y249767D03*
D199*
X637117Y249767D03*
D418*
X100757Y250613D03*
D378*
X267966Y250613D03*
D199*
X637117Y250613D03*
D422*
X100757Y251460D03*
D423*
X267966Y251460D03*
D356*
X637117Y251460D03*
D418*
X101596Y252307D03*
D249*
X268397Y252307D03*
D199*
X637117Y252307D03*
D418*
X101596Y253153D03*
D424*
X268817Y253153D03*
D199*
X637117Y253153D03*
D422*
X101596Y254000D03*
D425*
X268817Y254000D03*
D356*
X637117Y254000D03*
D418*
X101596Y254847D03*
D378*
X269667Y254847D03*
D199*
X637117Y254847D03*
D418*
X101596Y255693D03*
D378*
X269667Y255693D03*
D199*
X637117Y255693D03*
D426*
X100757Y256540D03*
D381*
X270087Y256540D03*
D356*
X637117Y256540D03*
D415*
X100326Y257387D03*
D378*
X270506Y257387D03*
D199*
X637117Y257387D03*
D427*
X99487Y258233D03*
D378*
X270506Y258233D03*
D199*
X637117Y258233D03*
D428*
X99056Y259080D03*
D429*
X270937Y259080D03*
D201*
X636697Y259080D03*
D430*
X98637Y259927D03*
D249*
X270937Y259927D03*
D349*
X636697Y259927D03*
D431*
X97786Y260773D03*
D246*
X270925Y260773D03*
D349*
X636697Y260773D03*
D432*
X97367Y261620D03*
D367*
X270087Y261620D03*
D201*
X636697Y261620D03*
D433*
X96947Y262467D03*
D366*
X269655Y262467D03*
D349*
X636697Y262467D03*
D434*
X96097Y263313D03*
D435*
X268817Y263313D03*
D349*
X636697Y263313D03*
D436*
X95677Y264160D03*
D362*
X267966Y264160D03*
D201*
X636697Y264160D03*
D437*
X95246Y265007D03*
D361*
X267547Y265007D03*
D349*
X636697Y265007D03*
D438*
X95246Y265853D03*
D237*
X266696Y265853D03*
D349*
X636697Y265853D03*
D439*
X94827Y266700D03*
D440*
X266277Y266700D03*
D201*
X636697Y266700D03*
D279*
X94395Y267547D03*
D357*
X265845Y267547D03*
D349*
X636697Y267547D03*
D441*
X93976Y268393D03*
D354*
X265438Y268393D03*
D349*
X636697Y268393D03*
D442*
X93557Y269240D03*
D443*
X265007Y269240D03*
D201*
X636697Y269240D03*
D278*
X93125Y270087D03*
D226*
X264156Y270087D03*
D349*
X636697Y270087D03*
D283*
X92706Y270933D03*
D227*
X263305Y270933D03*
D349*
X636697Y270933D03*
D444*
X92287Y271780D03*
D445*
X262886Y271780D03*
D201*
X636697Y271780D03*
D446*
X91855Y272627D03*
D447*
X262467Y272627D03*
D349*
X636697Y272627D03*
D282*
X91436Y273473D03*
D448*
X262035Y273473D03*
D29*
X636266Y273473D03*
D449*
X91017Y274320D03*
D450*
X261616Y274320D03*
D345*
X636266Y274320D03*
D451*
X90585Y275167D03*
D452*
X261197Y275167D03*
D29*
X636266Y275167D03*
D453*
X90166Y276013D03*
D219*
X260765Y276013D03*
D29*
X636266Y276013D03*
D454*
X89747Y276860D03*
D455*
X259927Y276860D03*
D345*
X636266Y276860D03*
D456*
X89315Y277707D03*
D457*
X259076Y277707D03*
D29*
X636266Y277707D03*
D291*
X88896Y278553D03*
D25*
X258657Y278553D03*
D29*
X636266Y278553D03*
D458*
X88908Y279400D03*
D459*
X258237Y279400D03*
D345*
X636266Y279400D03*
D460*
X88477Y280247D03*
D212*
X257806Y280247D03*
D29*
X636266Y280247D03*
D294*
X88057Y281093D03*
D212*
X256967Y281093D03*
D29*
X636266Y281093D03*
D461*
X87638Y281940D03*
D339*
X256548Y281940D03*
D345*
X636266Y281940D03*
D462*
X87207Y282787D03*
D463*
X256117Y282787D03*
D29*
X636266Y282787D03*
D464*
X86787Y283633D03*
D340*
X255697Y283633D03*
D29*
X636266Y283633D03*
D297*
X86368Y284480D03*
D465*
X254847Y284480D03*
D466*
X635847Y284480D03*
D467*
X85937Y285327D03*
D341*
X254415Y285327D03*
D468*
X635847Y285327D03*
D469*
X85517Y286173D03*
D341*
X253577Y286173D03*
D468*
X635847Y286173D03*
D470*
X85098Y287020D03*
D342*
X253157Y287020D03*
D345*
X635427Y287020D03*
D471*
X84667Y287867D03*
D472*
X252307Y287867D03*
D29*
X635427Y287867D03*
D473*
X84247Y288713D03*
D203*
X251887Y288713D03*
D29*
X635427Y288713D03*
D474*
X83828Y289560D03*
D475*
X251037Y289560D03*
D345*
X635427Y289560D03*
D476*
X83397Y290407D03*
D22*
X250605Y290407D03*
D29*
X635427Y290407D03*
D477*
X82977Y291253D03*
D22*
X249767Y291253D03*
D29*
X635427Y291253D03*
D478*
X82558Y292100D03*
D345*
X249347Y292100D03*
X635427Y292100D03*
D302*
X82546Y292947D03*
D479*
X248497Y292947D03*
D29*
X635427Y292947D03*
D480*
X82127Y293793D03*
D29*
X247646Y293793D03*
X635427Y293793D03*
D481*
X81707Y294640D03*
D466*
X247227Y294640D03*
D201*
X634996Y294640D03*
D482*
X81276Y295487D03*
D349*
X246376Y295487D03*
X634996Y295487D03*
D483*
X80857Y296333D03*
D349*
X245537Y296333D03*
X634996Y296333D03*
D484*
X80437Y297180D03*
D356*
X245118Y297180D03*
D201*
X634996Y297180D03*
D485*
X80006Y298027D03*
D199*
X244255Y298027D03*
D349*
X634996Y298027D03*
D486*
X79587Y298873D03*
D199*
X243417Y298873D03*
D349*
X634996Y298873D03*
D487*
X79167Y299720D03*
D368*
X242997Y299720D03*
D201*
X634996Y299720D03*
D488*
X78736Y300567D03*
D396*
X242566Y300567D03*
D349*
X634157Y300567D03*
D489*
X78317Y301413D03*
D193*
X243836Y301413D03*
D349*
X634157Y301413D03*
D303*
X77897Y302260D03*
D490*
X245118Y302260D03*
D201*
X634157Y302260D03*
D491*
X77466Y303107D03*
D186*
X246376Y303107D03*
D349*
X634157Y303107D03*
D307*
X77047Y303953D03*
D183*
X247227Y303953D03*
D349*
X634157Y303953D03*
D492*
X76627Y304800D03*
D493*
X248077Y304800D03*
D356*
X633738Y304800D03*
D494*
X76196Y305647D03*
D177*
X248497Y305647D03*
D199*
X633738Y305647D03*
D495*
X75777Y306493D03*
D173*
X248916Y306493D03*
D199*
X633738Y306493D03*
D496*
X75777Y307340D03*
D497*
X249347Y307340D03*
D356*
X633738Y307340D03*
D309*
X75345Y308187D03*
D498*
X249767Y308187D03*
D499*
X633307Y308187D03*
D500*
X74926Y309033D03*
D163*
X249767Y309033D03*
D499*
X633307Y309033D03*
D501*
X74507Y309880D03*
D502*
X249767Y309880D03*
D503*
X633307Y309880D03*
D504*
X74075Y310727D03*
D505*
X250186Y310727D03*
D499*
X633307Y310727D03*
D506*
X73656Y311573D03*
D507*
X250186Y311573D03*
D396*
X632887Y311573D03*
D508*
X73237Y312420D03*
D509*
X250198Y312420D03*
D393*
X632887Y312420D03*
D412*
X72805Y313267D03*
D510*
X250186Y313267D03*
D396*
X632887Y313267D03*
D511*
X72386Y314113D03*
D146*
X250186Y314113D03*
D200*
X632456Y314113D03*
D512*
X71967Y314960D03*
D513*
X250198Y314960D03*
D514*
X632037Y314960D03*
D408*
X71535Y315807D03*
D515*
X250186Y315807D03*
D197*
X632037Y315807D03*
D335*
X71116Y316653D03*
D136*
X250186Y316653D03*
D197*
X632037Y316653D03*
D403*
X70697Y317500D03*
D133*
X250198Y317500D03*
D196*
X631605Y317500D03*
D516*
X70265Y318347D03*
D129*
X250186Y318347D03*
D198*
X631605Y318347D03*
D331*
X69846Y319193D03*
D517*
X250186Y319193D03*
D198*
X631605Y319193D03*
D518*
X69427Y320040D03*
D519*
X249767Y320040D03*
D520*
X631186Y320040D03*
D521*
X69427Y320887D03*
D522*
X249767Y320887D03*
D26*
X631186Y320887D03*
D523*
X69007Y321733D03*
D524*
X249767Y321733D03*
D26*
X631186Y321733D03*
D329*
X68588Y322580D03*
D525*
X249347Y322580D03*
D526*
X630767Y322580D03*
D390*
X68157Y323427D03*
D527*
X249335Y323427D03*
D528*
X630767Y323427D03*
D529*
X67737Y324273D03*
D530*
X248916Y324273D03*
D531*
X630335Y324273D03*
D387*
X67318Y325120D03*
D532*
X248928Y325120D03*
D533*
X630335Y325120D03*
D534*
X66887Y325967D03*
D535*
X248497Y325967D03*
D531*
X630335Y325967D03*
D536*
X66467Y326813D03*
D537*
X248497Y326813D03*
D193*
X629916Y326813D03*
D538*
X66048Y327660D03*
D539*
X248077Y327660D03*
D533*
X629497Y327660D03*
D540*
X65617Y328507D03*
D541*
X248065Y328507D03*
D193*
X629077Y328507D03*
D542*
X65197Y329353D03*
D543*
X247646Y329353D03*
D193*
X629077Y329353D03*
D544*
X64778Y330200D03*
D545*
X247658Y330200D03*
D546*
X629077Y330200D03*
D325*
X64347Y331047D03*
D547*
X247227Y331047D03*
D548*
X628646Y331047D03*
D549*
X63927Y331893D03*
D550*
X246807Y331893D03*
D548*
X628646Y331893D03*
D377*
X63508Y332740D03*
D551*
X246807Y332740D03*
D30*
X628227Y332740D03*
D376*
X63077Y333587D03*
D552*
X246376Y333587D03*
D194*
X628227Y333587D03*
D375*
X63077Y334433D03*
D553*
X245957Y334433D03*
D554*
X627807Y334433D03*
D555*
X62657Y335280D03*
D556*
X245537Y335280D03*
D557*
X627807Y335280D03*
D124*
X62226Y336127D03*
D558*
X245525Y336127D03*
D37*
X627376Y336127D03*
D317*
X61807Y336973D03*
D559*
X245106Y336973D03*
D37*
X627376Y336973D03*
D560*
X61387Y337820D03*
D561*
X244687Y337820D03*
D490*
X626957Y337820D03*
D123*
X60956Y338667D03*
D562*
X244255Y338667D03*
D191*
X626957Y338667D03*
D119*
X60537Y339513D03*
D563*
X243836Y339513D03*
D190*
X626537Y339513D03*
D316*
X60117Y340360D03*
D564*
X243848Y340360D03*
D565*
X626106Y340360D03*
D566*
X59686Y341207D03*
D567*
X243417Y341207D03*
D568*
X625687Y341207D03*
D104*
X59267Y342053D03*
D569*
X242997Y342053D03*
D34*
X625267Y342053D03*
D570*
X58847Y342900D03*
D571*
X242578Y342900D03*
D565*
X625267Y342900D03*
D100*
X58416Y343747D03*
D572*
X242147Y343747D03*
D41*
X624848Y343747D03*
D96*
X57997Y344593D03*
D573*
X241727Y344593D03*
D574*
X624417Y344593D03*
D121*
X57577Y345440D03*
D575*
X241308Y345440D03*
D576*
X624417Y345440D03*
D93*
X57146Y346287D03*
D577*
X240877Y346287D03*
D186*
X623997Y346287D03*
D88*
X56727Y347133D03*
D578*
X240457Y347133D03*
D186*
X623997Y347133D03*
D579*
X56727Y347980D03*
D580*
X240038Y347980D03*
D581*
X623578Y347980D03*
D86*
X56295Y348827D03*
D582*
X239607Y348827D03*
D583*
X623147Y348827D03*
D50*
X55876Y349673D03*
D584*
X239187Y349673D03*
D583*
X623147Y349673D03*
D585*
X55457Y350520D03*
D586*
X238768Y350520D03*
D587*
X622727Y350520D03*
D55*
X55025Y351367D03*
D588*
X237905Y351367D03*
D183*
X622308Y351367D03*
D74*
X54606Y352213D03*
D589*
X237486Y352213D03*
D590*
X621877Y352213D03*
D70*
X54187Y353060D03*
D591*
X237067Y353060D03*
D592*
X621877Y353060D03*
D64*
X53755Y353907D03*
D593*
X236635Y353907D03*
D184*
X621457Y353907D03*
D58*
X53336Y354753D03*
D594*
X236216Y354753D03*
D595*
X620607Y354753D03*
D596*
X52917Y355600D03*
D597*
X235377Y355600D03*
D598*
X620175Y355600D03*
D49*
X52485Y356447D03*
D599*
X234946Y356447D03*
D181*
X620175Y356447D03*
D600*
X52066Y357293D03*
D601*
X234527Y357293D03*
D179*
X619756Y357293D03*
D69*
X51647Y358140D03*
D602*
X234107Y358140D03*
D603*
X619337Y358140D03*
D79*
X51215Y358987D03*
D604*
X233257Y358987D03*
D180*
X618905Y358987D03*
D57*
X50796Y359833D03*
D605*
X232837Y359833D03*
D606*
X618486Y359833D03*
D607*
X50377Y360680D03*
D608*
X232418Y360680D03*
D609*
X618067Y360680D03*
D610*
X50377Y361527D03*
D611*
X231555Y361527D03*
D612*
X618067Y361527D03*
D65*
X49957Y362373D03*
D613*
X231136Y362373D03*
D176*
X617635Y362373D03*
D48*
X49538Y363220D03*
D614*
X230297Y363220D03*
D174*
X617216Y363220D03*
D13*
X49107Y364067D03*
D615*
X229866Y364067D03*
D616*
X616797Y364067D03*
D13*
X49107Y364913D03*
D615*
X229027Y364913D03*
D172*
X616365Y364913D03*
D617*
X48687Y365760D03*
D618*
X228608Y365760D03*
D497*
X615946Y365760D03*
D289*
X48268Y366607D03*
D619*
X228177Y366607D03*
D620*
X615527Y366607D03*
D359*
X47837Y367453D03*
D621*
X227745Y367453D03*
D167*
X615095Y367453D03*
D285*
X47837Y368300D03*
D618*
X226907Y368300D03*
D622*
X614257Y368300D03*
D623*
X47417Y369147D03*
D624*
X226487Y369147D03*
D168*
X613837Y369147D03*
D284*
X46998Y369993D03*
D625*
X225637Y369993D03*
D626*
X613406Y369993D03*
D627*
X46567Y370840D03*
D628*
X224786Y370840D03*
D629*
X612987Y370840D03*
D630*
X46567Y371687D03*
D631*
X224367Y371687D03*
D164*
X612567Y371687D03*
D277*
X46147Y372533D03*
D632*
X223516Y372533D03*
D160*
X612136Y372533D03*
D276*
X45728Y373380D03*
D633*
X223097Y373380D03*
D157*
X611297Y373380D03*
D634*
X45728Y374227D03*
D624*
X222246Y374227D03*
D505*
X610866Y374227D03*
D635*
X45716Y375073D03*
D624*
X221407Y375073D03*
D155*
X610447Y375073D03*
D636*
X45297Y375920D03*
D633*
X220557Y375920D03*
D637*
X610027Y375920D03*
D270*
X45297Y376767D03*
D621*
X220125Y376767D03*
D152*
X609177Y376767D03*
D638*
X44877Y377613D03*
D621*
X219287Y377613D03*
D149*
X608757Y377613D03*
D336*
X44877Y378460D03*
D618*
X218448Y378460D03*
D639*
X608326Y378460D03*
D266*
X44446Y379307D03*
D619*
X218017Y379307D03*
D145*
X607907Y379307D03*
D266*
X44446Y380153D03*
D615*
X217166Y380153D03*
D142*
X607056Y380153D03*
D262*
X44027Y381000D03*
D640*
X216327Y381000D03*
D513*
X606637Y381000D03*
D261*
X43607Y381847D03*
D611*
X215477Y381847D03*
D641*
X605367Y381847D03*
D261*
X43607Y382693D03*
D611*
X214638Y382693D03*
D515*
X604947Y382693D03*
D642*
X43176Y383540D03*
D643*
X213356Y383540D03*
D644*
X604097Y383540D03*
D645*
X43176Y384387D03*
D601*
X212505Y384387D03*
D134*
X603677Y384387D03*
D257*
X42757Y385233D03*
D646*
X190927Y385233D03*
D298*
X337828Y385233D03*
D647*
X602827Y385233D03*
D21*
X42757Y386080D03*
D648*
X190927Y386080D03*
D617*
X338247Y386080D03*
D649*
X602407Y386080D03*
D254*
X42337Y386927D03*
D650*
X190077Y386927D03*
D281*
X337816Y386927D03*
D651*
X601557Y386927D03*
D254*
X42337Y387773D03*
D652*
X189657Y387773D03*
D638*
X337816Y387773D03*
D653*
X600718Y387773D03*
D253*
X42757Y388620D03*
D648*
X189226Y388620D03*
D250*
X338247Y388620D03*
D648*
X599867Y388620D03*
D23*
X42325Y389467D03*
D522*
X188807Y389467D03*
D327*
X337828Y389467D03*
D654*
X599017Y389467D03*
D23*
X42325Y390313D03*
D646*
X188387Y390313D03*
D527*
X598178Y390313D03*
D655*
X41906Y391160D03*
D656*
X187956Y391160D03*
D657*
X597747Y391160D03*
D24*
X41906Y392007D03*
D652*
X187117Y392007D03*
D535*
X596477Y392007D03*
D24*
X41906Y392853D03*
D652*
X187117Y392853D03*
D537*
X595638Y392853D03*
D658*
X41487Y393700D03*
D659*
X186267Y393700D03*
D660*
X594787Y393700D03*
D245*
X41487Y394547D03*
D653*
X185835Y394547D03*
D661*
X593517Y394547D03*
D662*
X41055Y395393D03*
D652*
X185416Y395393D03*
D547*
X592667Y395393D03*
D244*
X41055Y396240D03*
D663*
X184997Y396240D03*
D664*
X590965Y396240D03*
D662*
X41055Y397087D03*
D665*
X184577Y397087D03*
D553*
X589695Y397087D03*
D27*
X40636Y397933D03*
D666*
X183727Y397933D03*
D558*
X588425Y397933D03*
D667*
X40636Y398780D03*
D519*
X183727Y398780D03*
D668*
X587155Y398780D03*
D27*
X40636Y399627D03*
D517*
X183307Y399627D03*
D669*
X585885Y399627D03*
D670*
X40217Y400473D03*
D651*
X182457Y400473D03*
D671*
X583777Y400473D03*
D672*
X40217Y401320D03*
D127*
X182025Y401320D03*
D580*
X582075Y401320D03*
D238*
X40648Y402167D03*
D129*
X181606Y402167D03*
D220*
X321318Y402167D03*
D593*
X579535Y402167D03*
D238*
X40648Y403013D03*
D125*
X181187Y403013D03*
D235*
X323846Y403013D03*
D619*
X576157Y403013D03*
D31*
X40217Y403860D03*
D649*
X180767Y403860D03*
D673*
X521115Y403860D03*
D355*
X40217Y404707D03*
D128*
X180336Y404707D03*
D674*
X520696Y404707D03*
D355*
X40217Y405553D03*
D128*
X179497Y405553D03*
D675*
X520277Y405553D03*
D31*
X40217Y406400D03*
D133*
X179078Y406400D03*
D676*
X519845Y406400D03*
D677*
X39797Y407247D03*
D678*
X178647Y407247D03*
D679*
X519845Y407247D03*
D677*
X39797Y408093D03*
D136*
X178227Y408093D03*
D680*
X519426Y408093D03*
D231*
X39797Y408940D03*
D644*
X177377Y408940D03*
D681*
X519007Y408940D03*
D677*
X39797Y409787D03*
D135*
X176945Y409787D03*
D682*
X518156Y409787D03*
D677*
X39797Y410633D03*
D515*
X176526Y410633D03*
D683*
X517737Y410633D03*
D684*
X39378Y411480D03*
D685*
X176107Y411480D03*
D686*
X517317Y411480D03*
D230*
X39378Y412327D03*
D139*
X175256Y412327D03*
D687*
X517317Y412327D03*
D230*
X39378Y413173D03*
D141*
X174837Y413173D03*
D688*
X516886Y413173D03*
D684*
X39378Y414020D03*
D143*
X174417Y414020D03*
D689*
X516467Y414020D03*
D230*
X39378Y414867D03*
D146*
X173986Y414867D03*
D690*
X516047Y414867D03*
D35*
X39797Y415713D03*
D145*
X173567Y415713D03*
D691*
X515616Y415713D03*
D692*
X39366Y416560D03*
D639*
X173147Y416560D03*
D693*
X515197Y416560D03*
D228*
X39366Y417407D03*
D148*
X172297Y417407D03*
D694*
X514777Y417407D03*
D228*
X39366Y418253D03*
D149*
X171877Y418253D03*
D695*
X514346Y418253D03*
D692*
X39366Y419100D03*
D509*
X171458Y419100D03*
D696*
X513927Y419100D03*
D228*
X39366Y419947D03*
D697*
X171027Y419947D03*
D698*
X513507Y419947D03*
D228*
X39366Y420793D03*
D507*
X170607Y420793D03*
D699*
X513076Y420793D03*
D692*
X39366Y421640D03*
D700*
X170188Y421640D03*
D701*
X512657Y421640D03*
D228*
X39366Y422487D03*
D156*
X169757Y422487D03*
D702*
X512237Y422487D03*
D228*
X39366Y423333D03*
D159*
X169337Y423333D03*
D703*
X511387Y423333D03*
D692*
X39366Y424180D03*
D704*
X168918Y424180D03*
D705*
X510967Y424180D03*
D228*
X39366Y425027D03*
D161*
X168055Y425027D03*
D706*
X510548Y425027D03*
D228*
X39366Y425873D03*
D160*
X167636Y425873D03*
D707*
X510117Y425873D03*
D225*
X38947Y426720D03*
D708*
X167217Y426720D03*
D709*
X509697Y426720D03*
D327*
X38947Y427567D03*
D163*
X166785Y427567D03*
D389*
X334018Y427567D03*
D710*
X555417Y427567D03*
D327*
X38947Y428413D03*
D626*
X166366Y428413D03*
D380*
X330615Y428413D03*
D711*
X557957Y428413D03*
D712*
X39366Y429260D03*
D713*
X165947Y429260D03*
D377*
X328507Y429260D03*
D714*
X559647Y429260D03*
D39*
X39366Y430107D03*
D167*
X165515Y430107D03*
D314*
X326817Y430107D03*
D715*
X561348Y430107D03*
D39*
X39366Y430953D03*
D169*
X165096Y430953D03*
D716*
X325116Y430953D03*
D717*
X562618Y430953D03*
D712*
X39366Y431800D03*
D170*
X164677Y431800D03*
D718*
X323427Y431800D03*
D719*
X563457Y431800D03*
D39*
X39366Y432647D03*
D172*
X164245Y432647D03*
D371*
X322157Y432647D03*
D720*
X564727Y432647D03*
D39*
X39366Y433493D03*
D721*
X163826Y433493D03*
D722*
X320887Y433493D03*
D723*
X565577Y433493D03*
D225*
X39785Y434340D03*
D724*
X163407Y434340D03*
D725*
X319617Y434340D03*
D726*
X566428Y434340D03*
D327*
X39785Y435187D03*
D176*
X162975Y435187D03*
D117*
X318347Y435187D03*
D727*
X567267Y435187D03*
D327*
X39785Y436033D03*
D606*
X162987Y436033D03*
D112*
X317077Y436033D03*
D728*
X567698Y436033D03*
D225*
X39785Y436880D03*
D178*
X162568Y436880D03*
D116*
X316226Y436880D03*
D729*
X568105Y436880D03*
D327*
X39785Y437727D03*
D730*
X162137Y437727D03*
D104*
X314968Y437727D03*
D731*
X568956Y437727D03*
D327*
X39785Y438573D03*
D179*
X161717Y438573D03*
D104*
X314105Y438573D03*
D732*
X569375Y438573D03*
D225*
X39785Y439420D03*
D598*
X161298Y439420D03*
D570*
X312847Y439420D03*
D733*
X569807Y439420D03*
D327*
X39785Y440267D03*
D595*
X160867Y440267D03*
D102*
X311997Y440267D03*
D734*
X570645Y440267D03*
D327*
X39785Y441113D03*
D735*
X160447Y441113D03*
D113*
X311146Y441113D03*
D736*
X571077Y441113D03*
D225*
X39785Y441960D03*
D737*
X160028Y441960D03*
D101*
X309876Y441960D03*
D738*
X571496Y441960D03*
D327*
X39785Y442807D03*
D739*
X159597Y442807D03*
D100*
X309037Y442807D03*
D740*
X571915Y442807D03*
D741*
X40217Y443653D03*
D38*
X159177Y443653D03*
D106*
X308187Y443653D03*
D624*
X572766Y443653D03*
D225*
X40648Y444500D03*
D742*
X159177Y444500D03*
D101*
X307336Y444500D03*
D618*
X573185Y444500D03*
D327*
X40648Y445347D03*
D743*
X158746Y445347D03*
D100*
X306497Y445347D03*
D619*
X573617Y445347D03*
D327*
X40648Y446193D03*
D41*
X158327Y446193D03*
D106*
X305647Y446193D03*
D613*
X574036Y446193D03*
D225*
X40648Y447040D03*
D565*
X157907Y447040D03*
D101*
X304796Y447040D03*
D608*
X574455Y447040D03*
D327*
X40648Y447887D03*
D190*
X157476Y447887D03*
D100*
X303957Y447887D03*
D744*
X574887Y447887D03*
D327*
X40648Y448733D03*
D37*
X157476Y448733D03*
D106*
X303107Y448733D03*
D744*
X574887Y448733D03*
D692*
X41067Y449580D03*
D745*
X157057Y449580D03*
D101*
X302256Y449580D03*
D602*
X575306Y449580D03*
D228*
X41067Y450427D03*
D194*
X156625Y450427D03*
D100*
X301417Y450427D03*
D599*
X575306Y450427D03*
D228*
X41067Y451273D03*
D548*
X156206Y451273D03*
D113*
X300986Y451273D03*
D594*
X575737Y451273D03*
D692*
X41067Y452120D03*
D746*
X155787Y452120D03*
D570*
X300147Y452120D03*
D747*
X576157Y452120D03*
D228*
X41067Y452967D03*
D528*
X155787Y452967D03*
D102*
X299297Y452967D03*
D748*
X576576Y452967D03*
D749*
X41487Y453813D03*
D26*
X155367Y453813D03*
D113*
X298446Y453813D03*
D748*
X576576Y453813D03*
D750*
X41487Y454660D03*
D196*
X154948Y454660D03*
D105*
X298027Y454660D03*
D751*
X577007Y454660D03*
D749*
X41487Y455507D03*
D200*
X154936Y455507D03*
D104*
X297188Y455507D03*
D588*
X577427Y455507D03*
D749*
X41487Y456353D03*
D199*
X154517Y456353D03*
D104*
X296325Y456353D03*
D588*
X577427Y456353D03*
D752*
X42337Y457200D03*
D201*
X154097Y457200D03*
D116*
X295906Y457200D03*
D753*
X577846Y457200D03*
D35*
X42337Y458047D03*
D29*
X153666Y458047D03*
D566*
X295067Y458047D03*
D754*
X578277Y458047D03*
D35*
X42337Y458893D03*
D203*
X153666Y458893D03*
D112*
X294217Y458893D03*
D754*
X578277Y458893D03*
D752*
X42337Y459740D03*
D755*
X153247Y459740D03*
D316*
X293797Y459740D03*
D580*
X578697Y459740D03*
D230*
X42757Y460587D03*
D341*
X152815Y460587D03*
D117*
X292947Y460587D03*
D756*
X578697Y460587D03*
D230*
X42757Y461433D03*
D209*
X152827Y461433D03*
D119*
X292515Y461433D03*
D578*
X579116Y461433D03*
D684*
X42757Y462280D03*
D339*
X152408Y462280D03*
D725*
X291677Y462280D03*
D757*
X579116Y462280D03*
D677*
X43176Y463127D03*
D211*
X152396Y463127D03*
D123*
X291257Y463127D03*
D758*
X579547Y463127D03*
D677*
X43176Y463973D03*
D25*
X151977Y463973D03*
D722*
X290407Y463973D03*
D759*
X579128Y463973D03*
D231*
X43176Y464820D03*
D215*
X151557Y464820D03*
D560*
X289987Y464820D03*
D760*
X579547Y464820D03*
D235*
X43607Y465667D03*
D219*
X151545Y465667D03*
D371*
X289137Y465667D03*
D573*
X579547Y465667D03*
D235*
X43607Y466513D03*
D348*
X151126Y466513D03*
D317*
X288705Y466513D03*
D572*
X579967Y466513D03*
D32*
X43607Y467360D03*
D350*
X151138Y467360D03*
D718*
X287867Y467360D03*
D761*
X579967Y467360D03*
D238*
X44027Y468207D03*
D447*
X150707Y468207D03*
D371*
X286597Y468207D03*
D569*
X580817Y468207D03*
D238*
X44027Y469053D03*
D227*
X150707Y469053D03*
D112*
X284057Y469053D03*
D762*
X582507Y469053D03*
D763*
X44446Y469900D03*
D353*
X150287Y469900D03*
D101*
X281936Y469900D03*
D764*
X584627Y469900D03*
D238*
X44865Y470747D03*
D354*
X150275Y470747D03*
D88*
X279408Y470747D03*
D765*
X586317Y470747D03*
D670*
X45297Y471593D03*
D229*
X149856Y471593D03*
D86*
X277275Y471593D03*
D766*
X588018Y471593D03*
D672*
X45297Y472440D03*
D767*
X149868Y472440D03*
D77*
X275167Y472440D03*
D660*
X589707Y472440D03*
D670*
X45297Y473287D03*
D768*
X149437Y473287D03*
D64*
X273058Y473287D03*
D769*
X590977Y473287D03*
D27*
X45716Y474133D03*
D770*
X149437Y474133D03*
D66*
X271357Y474133D03*
D771*
X592667Y474133D03*
D667*
X45716Y474980D03*
D772*
X149017Y474980D03*
D76*
X269236Y474980D03*
D773*
X593937Y474980D03*
D662*
X46135Y475827D03*
D240*
X149005Y475827D03*
D774*
X267547Y475827D03*
D522*
X595207Y475827D03*
D662*
X46135Y476673D03*
D775*
X148586Y476673D03*
D298*
X265845Y476673D03*
D125*
X596908Y476673D03*
D658*
X46567Y477520D03*
D242*
X148598Y477520D03*
D63*
X264156Y477520D03*
D776*
X597747Y477520D03*
D245*
X46567Y478367D03*
D370*
X148586Y478367D03*
D13*
X262467Y478367D03*
D138*
X599017Y478367D03*
D24*
X46986Y479213D03*
D246*
X148167Y479213D03*
D289*
X260765Y479213D03*
D141*
X599855Y479213D03*
D655*
X46986Y480060D03*
D381*
X148167Y480060D03*
D288*
X259076Y480060D03*
D147*
X601125Y480060D03*
D23*
X47405Y480907D03*
D384*
X147735Y480907D03*
D284*
X257818Y480907D03*
D152*
X602395Y480907D03*
D777*
X47837Y481753D03*
D420*
X147747Y481753D03*
D280*
X256117Y481753D03*
D155*
X603665Y481753D03*
D253*
X47837Y482600D03*
D402*
X147747Y482600D03*
D273*
X254427Y482600D03*
D157*
X604516Y482600D03*
D254*
X48256Y483447D03*
D255*
X147735Y483447D03*
D635*
X253157Y483447D03*
D164*
X605786Y483447D03*
D334*
X48687Y484293D03*
D260*
X147316Y484293D03*
D638*
X251456Y484293D03*
D778*
X606637Y484293D03*
D779*
X49107Y485140D03*
D264*
X147328Y485140D03*
D265*
X250186Y485140D03*
D780*
X607907Y485140D03*
D257*
X49538Y485987D03*
D781*
X147316Y485987D03*
D258*
X248497Y485987D03*
D172*
X608745Y485987D03*
D257*
X49538Y486833D03*
D268*
X147316Y486833D03*
D782*
X247227Y486833D03*
D173*
X609596Y486833D03*
D642*
X49957Y487680D03*
D783*
X146897Y487680D03*
D21*
X245957Y487680D03*
D784*
X610866Y487680D03*
D258*
X50377Y488527D03*
D267*
X146897Y488527D03*
D334*
X244267Y488527D03*
D730*
X611717Y488527D03*
D258*
X50377Y489373D03*
D434*
X146897Y489373D03*
D23*
X242985Y489373D03*
D181*
X612555Y489373D03*
D262*
X50808Y490220D03*
D785*
X146897Y490220D03*
D655*
X241727Y490220D03*
D786*
X613406Y490220D03*
D266*
X51227Y491067D03*
D787*
X146897Y491067D03*
D248*
X240457Y491067D03*
D38*
X613837Y491067D03*
D266*
X51227Y491913D03*
D279*
X146897Y491913D03*
D662*
X239175Y491913D03*
D743*
X615107Y491913D03*
D788*
X51647Y492760D03*
D789*
X146477Y492760D03*
D667*
X237917Y492760D03*
D565*
X615946Y492760D03*
D270*
X52078Y493607D03*
D278*
X146465Y493607D03*
D239*
X236647Y493607D03*
D191*
X616797Y493607D03*
D635*
X52497Y494453D03*
D790*
X146477Y494453D03*
D238*
X235365Y494453D03*
D554*
X617647Y494453D03*
D791*
X52917Y495300D03*
D792*
X146477Y495300D03*
D32*
X234107Y495300D03*
D793*
X618486Y495300D03*
D17*
X52917Y496147D03*
D451*
X146465Y496147D03*
D677*
X232837Y496147D03*
D531*
X619337Y496147D03*
D634*
X53348Y496993D03*
D794*
X146477Y496993D03*
D230*
X231555Y496993D03*
D26*
X620187Y496993D03*
D276*
X54187Y497840D03*
D795*
X146477Y497840D03*
D752*
X230297Y497840D03*
D196*
X620607Y497840D03*
D277*
X54606Y498687D03*
D290*
X146465Y498687D03*
D228*
X229027Y498687D03*
D200*
X621457Y498687D03*
D281*
X55037Y499533D03*
D796*
X146897Y499533D03*
D327*
X227745Y499533D03*
D349*
X622296Y499533D03*
D15*
X55457Y500380D03*
D797*
X146897Y500380D03*
D225*
X226907Y500380D03*
D344*
X623147Y500380D03*
D623*
X55876Y501227D03*
D469*
X146477Y501227D03*
D741*
X225637Y501227D03*
D202*
X623997Y501227D03*
D798*
X56307Y502073D03*
D799*
X146477Y502073D03*
D800*
X224367Y502073D03*
D341*
X624417Y502073D03*
D801*
X56727Y502920D03*
D474*
X146465Y502920D03*
D802*
X223097Y502920D03*
D338*
X625267Y502920D03*
D292*
X57146Y503767D03*
D803*
X146897Y503767D03*
D220*
X222258Y503767D03*
D212*
X626106Y503767D03*
D14*
X57577Y504613D03*
D480*
X146465Y504613D03*
D217*
X220976Y504613D03*
D457*
X626537Y504613D03*
D48*
X57997Y505460D03*
D804*
X146477Y505460D03*
D45*
X219706Y505460D03*
D214*
X626957Y505460D03*
D65*
X58416Y506307D03*
D486*
X146465Y506307D03*
D320*
X218867Y506307D03*
D348*
X627807Y506307D03*
D67*
X58847Y507153D03*
D488*
X146477Y507153D03*
D213*
X217585Y507153D03*
D448*
X628658Y507153D03*
D71*
X59267Y508000D03*
D805*
X146465Y508000D03*
D806*
X215908Y508000D03*
D224*
X629077Y508000D03*
D51*
X59686Y508847D03*
D494*
X146477Y508847D03*
D213*
X215045Y508847D03*
D227*
X629928Y508847D03*
D57*
X60117Y509693D03*
D309*
X146465Y509693D03*
D52*
X213787Y509693D03*
D352*
X630347Y509693D03*
D82*
X60537Y510540D03*
D807*
X146897Y510540D03*
D808*
X212937Y510540D03*
D809*
X631198Y510540D03*
D810*
X61807Y511387D03*
D410*
X146897Y511387D03*
D207*
X211667Y511387D03*
D811*
X632037Y511387D03*
D600*
X62226Y512233D03*
D335*
X146477Y512233D03*
D318*
X209977Y512233D03*
D357*
X632468Y512233D03*
D10*
X62645Y513080D03*
D812*
X146477Y513080D03*
D813*
X209127Y513080D03*
D814*
X633307Y513080D03*
D58*
X63496Y513927D03*
D815*
X146465Y513927D03*
D770*
X633738Y513927D03*
D64*
X63915Y514773D03*
D385*
X146897Y514773D03*
D207*
X206587Y514773D03*
D816*
X634577Y514773D03*
D817*
X64766Y515620D03*
D818*
X146477Y515620D03*
D206*
X205736Y515620D03*
D819*
X635008Y515620D03*
D55*
X65185Y516467D03*
D314*
X146477Y516467D03*
D207*
X204047Y516467D03*
D775*
X635427Y516467D03*
D50*
X66036Y517313D03*
D123*
X146477Y517313D03*
D318*
X203196Y517313D03*
D366*
X636278Y517313D03*
D83*
X66455Y518160D03*
D101*
X146477Y518160D03*
D813*
X201507Y518160D03*
D820*
X636266Y518160D03*
D111*
X67306Y519007D03*
D84*
X146477Y519007D03*
D318*
X200656Y519007D03*
D424*
X637117Y519007D03*
D88*
X67725Y519853D03*
D58*
X146477Y519853D03*
D207*
X198967Y519853D03*
D249*
X637536Y519853D03*
D121*
X68576Y520700D03*
D71*
X146465Y520700D03*
D808*
X197697Y520700D03*
D386*
X637955Y520700D03*
D106*
X69427Y521547D03*
D280*
X146897Y521547D03*
D213*
X196427Y521547D03*
D420*
X638806Y521547D03*
D104*
X70265Y522393D03*
D662*
X146897Y522393D03*
D213*
X194725Y522393D03*
D256*
X639225Y522393D03*
D316*
X71116Y523240D03*
D45*
X193467Y523240D03*
D422*
X640076Y523240D03*
D722*
X71967Y524087D03*
D217*
X192197Y524087D03*
D255*
X640495Y524087D03*
D371*
X73237Y524933D03*
D217*
X190496Y524933D03*
D416*
X640927Y524933D03*
D821*
X74507Y525780D03*
D802*
X189238Y525780D03*
D822*
X641346Y525780D03*
D314*
X75357Y526627D03*
D741*
X187537Y526627D03*
D823*
X642197Y526627D03*
D549*
X76627Y527473D03*
D327*
X186267Y527473D03*
D781*
X642616Y527473D03*
D824*
X77897Y528320D03*
D692*
X184146Y528320D03*
D825*
X643035Y528320D03*
D536*
X79167Y529167D03*
D230*
X182457Y529167D03*
D431*
X643886Y529167D03*
D529*
X80437Y530013D03*
D238*
X180348Y530013D03*
D826*
X644305Y530013D03*
D827*
X82127Y530860D03*
D244*
X178215Y530860D03*
D828*
X644737Y530860D03*
D516*
X83828Y531707D03*
D24*
X175687Y531707D03*
D272*
X645156Y531707D03*
D412*
X86368Y532553D03*
D645*
X172716Y532553D03*
D271*
X645156Y532553D03*
D829*
X90178Y533400D03*
D276*
X168487Y533400D03*
D830*
X646007Y533400D03*
D831*
X111768Y534247D03*
D438*
X646426Y534247D03*
D787*
X111337Y535093D03*
D832*
X646857Y535093D03*
D833*
X110498Y535940D03*
X647277Y535940D03*
D834*
X110067Y536787D03*
D441*
X647696Y536787D03*
D835*
X109647Y537633D03*
D220*
X331478Y537633D03*
D213*
X426728Y537633D03*
D835*
X648127Y537633D03*
D836*
X109647Y538480D03*
D752*
X330196Y538480D03*
D225*
X428405Y538480D03*
D836*
X648966Y538480D03*
D790*
X109216Y539327D03*
D239*
X328926Y539327D03*
D235*
X429687Y539327D03*
D790*
X649397Y539327D03*
D446*
X108797Y540173D03*
D23*
X327668Y540173D03*
D837*
X431377Y540173D03*
D446*
X649817Y540173D03*
D792*
X108377Y541020D03*
D262*
X326805Y541020D03*
D21*
X432215Y541020D03*
D792*
X650236Y541020D03*
D451*
X107527Y541867D03*
D838*
X325967Y541867D03*
D638*
X433497Y541867D03*
D839*
X650667Y541867D03*
D453*
X107107Y542713D03*
D284*
X324697Y542713D03*
D280*
X433917Y542713D03*
D451*
X651087Y542713D03*
D286*
X106676Y543560D03*
D617*
X323846Y543560D03*
D840*
X434767Y543560D03*
D841*
X651506Y543560D03*
D456*
X106257Y544407D03*
D298*
X323427Y544407D03*
D54*
X435618Y544407D03*
D794*
X651937Y544407D03*
D291*
X105837Y545253D03*
D73*
X322576Y545253D03*
D57*
X436037Y545253D03*
D291*
X651937Y545253D03*
D842*
X105406Y546100D03*
D60*
X322157Y546100D03*
D10*
X436888Y546100D03*
D843*
X652357Y546100D03*
D290*
X104987Y546947D03*
D55*
X321725Y546947D03*
D74*
X437307Y546947D03*
D290*
X652788Y546947D03*
D844*
X104567Y547793D03*
D111*
X321306Y547793D03*
D86*
X438158Y547793D03*
D844*
X653207Y547793D03*
D845*
X104136Y548640D03*
D107*
X320887Y548640D03*
D91*
X438146Y548640D03*
D461*
X654058Y548640D03*
D796*
X103717Y549487D03*
D117*
X320887Y549487D03*
D104*
X438565Y549487D03*
D846*
X654477Y549487D03*
D847*
X103717Y550333D03*
D124*
X320467Y550333D03*
D123*
X438577Y550333D03*
D847*
X654897Y550333D03*
D297*
X103285Y551180D03*
D848*
X320467Y551180D03*
D555*
X438577Y551180D03*
D297*
X655328Y551180D03*
D849*
X102866Y552027D03*
D380*
X320455Y552027D03*
D850*
X438577Y552027D03*
D849*
X655747Y552027D03*
D851*
X102447Y552873D03*
D534*
X320887Y552873D03*
D536*
X438146Y552873D03*
D851*
X656167Y552873D03*
D470*
X102015Y553720D03*
D827*
X320887Y553720D03*
D329*
X437727Y553720D03*
D470*
X656598Y553720D03*
D799*
X101596Y554567D03*
D335*
X321737Y554567D03*
D331*
X437307Y554567D03*
D473*
X656586Y554567D03*
D852*
X101177Y555413D03*
D504*
X322995Y555413D03*
D412*
X436025Y555413D03*
D473*
X656586Y555413D03*
D474*
X100745Y556260D03*
D853*
X325547Y556260D03*
D492*
X433066Y556260D03*
D474*
X657005Y556260D03*
D854*
X100326Y557107D03*
D183*
X379307Y557107D03*
D476*
X657437Y557107D03*
D803*
X100338Y557953D03*
D855*
X379307Y557953D03*
D477*
X657856Y557953D03*
D856*
X99907Y558800D03*
D784*
X378887Y558800D03*
D478*
X658275Y558800D03*
D302*
X99487Y559647D03*
D721*
X378887Y559647D03*
D857*
X658707Y559647D03*
D480*
X99068Y560493D03*
D167*
X378875Y560493D03*
D302*
X659126Y560493D03*
D858*
X99068Y561340D03*
D859*
X378887Y561340D03*
D481*
X659126Y561340D03*
D860*
X98637Y562187D03*
D861*
X379307Y562187D03*
D482*
X659557Y562187D03*
D483*
X98637Y563033D03*
D697*
X379307Y563033D03*
D483*
X659977Y563033D03*
D484*
X98217Y563880D03*
D639*
X378887Y563880D03*
D484*
X660396Y563880D03*
D485*
X97786Y564727D03*
D141*
X378875Y564727D03*
D485*
X660827Y564727D03*
D486*
X97367Y565573D03*
D135*
X379307Y565573D03*
D486*
X661247Y565573D03*
D487*
X96947Y566420D03*
D133*
X378875Y566420D03*
D487*
X660827Y566420D03*
D488*
X96516Y567267D03*
D517*
X378887Y567267D03*
D862*
X661247Y567267D03*
D863*
X96516Y568113D03*
D522*
X379307Y568113D03*
D489*
X661678Y568113D03*
D303*
X96516Y568960D03*
D525*
X378887Y568960D03*
D303*
X662097Y568960D03*
D864*
X96097Y569807D03*
D771*
X379307Y569807D03*
D864*
X662517Y569807D03*
D307*
X95665Y570653D03*
D865*
X378887Y570653D03*
D307*
X662948Y570653D03*
D492*
X95246Y571500D03*
D866*
X379307Y571500D03*
D867*
X662936Y571500D03*
D868*
X94827Y572347D03*
D543*
X378887Y572347D03*
D494*
X662936Y572347D03*
D869*
X94827Y573193D03*
D547*
X379307Y573193D03*
D495*
X663355Y573193D03*
D870*
X94827Y574040D03*
D551*
X378887Y574040D03*
D870*
X663787Y574040D03*
D871*
X94407Y574887D03*
D872*
X379307Y574887D03*
D871*
X664206Y574887D03*
D309*
X93988Y575733D03*
D559*
X378887Y575733D03*
D500*
X664206Y575733D03*
D337*
X93976Y576580D03*
D873*
X379307Y576580D03*
D874*
X664206Y576580D03*
D504*
X93557Y577427D03*
D669*
X379307Y577427D03*
D875*
X664637Y577427D03*
D504*
X93557Y578273D03*
D876*
X378875Y578273D03*
D504*
X665057Y578273D03*
D877*
X93137Y579120D03*
D575*
X379307Y579120D03*
D508*
X665057Y579120D03*
D333*
X92706Y579967D03*
D878*
X379307Y579967D03*
D412*
X665488Y579967D03*
D511*
X92706Y580813D03*
D584*
X378887Y580813D03*
D412*
X665488Y580813D03*
D512*
X92287Y581660D03*
D591*
X379307Y581660D03*
D879*
X665907Y581660D03*
D880*
X92287Y582507D03*
D881*
X379307Y582507D03*
D408*
X665895Y582507D03*
X91855Y583353D03*
D882*
X379307Y583353D03*
D883*
X666327Y583353D03*
D884*
X91867Y584200D03*
D885*
X379307Y584200D03*
D886*
X666327Y584200D03*
D516*
X91448Y585047D03*
D887*
X379307Y585047D03*
D888*
X666746Y585047D03*
D516*
X91448Y585893D03*
D889*
X379307Y585893D03*
D331*
X666746Y585893D03*
D812*
X91436Y586740D03*
D890*
X379307Y586740D03*
D812*
X667177Y586740D03*
D332*
X91017Y587587D03*
D891*
X379307Y587587D03*
D892*
X667177Y587587D03*
D893*
X90597Y588433D03*
D894*
X379307Y588433D03*
D332*
X667597Y588433D03*
D895*
X90597Y589280D03*
D896*
X379307Y589280D03*
D310*
X667597Y589280D03*
D815*
X90585Y590127D03*
D897*
X379307Y590127D03*
D815*
X668028Y590127D03*
D313*
X90166Y590973D03*
D898*
X379307Y590973D03*
D815*
X668028Y590973D03*
D899*
X90166Y591820D03*
D900*
X379307Y591820D03*
D901*
X668016Y591820D03*
D389*
X90178Y592667D03*
D902*
X379307Y592667D03*
D389*
X668435Y592667D03*
D534*
X89747Y593513D03*
D903*
X379307Y593513D03*
D389*
X668435Y593513D03*
D904*
X89747Y594360D03*
D905*
X379307Y594360D03*
D904*
X668867Y594360D03*
D328*
X89747Y595207D03*
D906*
X379307Y595207D03*
D328*
X668867Y595207D03*
X89747Y596053D03*
D907*
X379307Y596053D03*
D328*
X668867Y596053D03*
D908*
X379307Y596900D03*
D909*
X378887Y597747D03*
D910*
X379307Y598593D03*
D911*
X379307Y599440D03*
D912*
X378875Y600287D03*
D913*
X379307Y601133D03*
D914*
X379307Y601980D03*
D915*
X379307Y602827D03*
X379307Y603673D03*
D916*
X378887Y604520D03*
D917*
X379307Y605367D03*
X379307Y606213D03*
D918*
X378875Y607060D03*
D919*
X379307Y607907D03*
X379307Y608753D03*
D920*
X379307Y609600D03*
D921*
X379307Y610447D03*
D922*
X378887Y611293D03*
D923*
X379307Y612140D03*
D924*
X379307Y612987D03*
D925*
X379307Y613833D03*
D926*
X379307Y614680D03*
D927*
X378887Y615527D03*
D928*
X379307Y616373D03*
D929*
X378887Y617220D03*
D930*
X379307Y618067D03*
X379307Y618913D03*
D931*
X379307Y619760D03*
D932*
X379307Y620607D03*
D933*
X379307Y621453D03*
D934*
X379307Y622300D03*
D935*
X379307Y623147D03*
X379307Y623993D03*
D936*
X379307Y624840D03*
D937*
X379307Y625687D03*
D938*
X379307Y626533D03*
D939*
X379307Y627380D03*
D940*
X379307Y628227D03*
X379307Y629073D03*
D941*
X379307Y629920D03*
D942*
X379307Y630767D03*
D943*
X379307Y631613D03*
D944*
X379307Y632460D03*
D942*
X379307Y633307D03*
D938*
X379307Y634153D03*
D936*
X379307Y635000D03*
D935*
X379307Y635847D03*
D933*
X379307Y636693D03*
D931*
X379307Y637540D03*
D930*
X379307Y638387D03*
D928*
X379307Y639233D03*
D926*
X379307Y640080D03*
D924*
X379307Y640927D03*
D921*
X379307Y641773D03*
D945*
X379307Y642620D03*
D917*
X379307Y643467D03*
D915*
X379307Y644313D03*
D914*
X379307Y645160D03*
D910*
X379307Y646007D03*
D946*
X379307Y646853D03*
D947*
X379307Y647700D03*
D948*
X379738Y648547D03*
D949*
X379307Y649393D03*
D950*
X379307Y650240D03*
D951*
X379307Y651087D03*
D952*
X379307Y651933D03*
D953*
X379307Y652780D03*
D954*
X379307Y653627D03*
D955*
X379307Y654473D03*
D956*
X379307Y655320D03*
D957*
X379307Y656167D03*
D958*
X379307Y657013D03*
D959*
X379307Y657860D03*
D960*
X379307Y658707D03*
X379307Y659553D03*
D961*
X379307Y660400D03*
D962*
X379307Y661247D03*
D963*
X379307Y662093D03*
D964*
X379307Y662940D03*
D965*
X379307Y663787D03*
D966*
X379307Y664633D03*
D967*
X379307Y665480D03*
D968*
X379307Y666327D03*
D969*
X379307Y667173D03*
D970*
X379307Y668020D03*
D971*
X379307Y668867D03*
D972*
X379307Y669713D03*
D973*
X379307Y670560D03*
D974*
X379307Y671407D03*
D975*
X379307Y672253D03*
D976*
X379307Y673100D03*
D977*
X379307Y673947D03*
D978*
X379307Y674793D03*
D979*
X379307Y675640D03*
D980*
X379307Y676487D03*
D981*
X379307Y677333D03*
D982*
X165108Y678180D03*
D983*
X379307Y678180D03*
D982*
X593505Y678180D03*
D984*
X162137Y679027D03*
D857*
X379307Y679027D03*
D984*
X596477Y679027D03*
D985*
X159597Y679873D03*
D862*
X379307Y679873D03*
D985*
X599017Y679873D03*
D986*
X157895Y680720D03*
D870*
X379307Y680720D03*
D986*
X600718Y680720D03*
D529*
X66036Y681567D03*
D987*
X222246Y681567D03*
D988*
X379307Y681567D03*
D832*
X542717Y681567D03*
D124*
X698927Y681567D03*
D389*
X64778Y682413D03*
D462*
X221827Y682413D03*
D883*
X379307Y682413D03*
D989*
X543137Y682413D03*
D317*
X700185Y682413D03*
D904*
X64347Y683260D03*
D990*
X221407Y683260D03*
D827*
X379307Y683260D03*
D792*
X543556Y683260D03*
D991*
X700617Y683260D03*
D326*
X63496Y684107D03*
D852*
X220557Y684107D03*
D992*
X379307Y684107D03*
D993*
X544407Y684107D03*
D994*
X701467Y684107D03*
D385*
X63077Y684953D03*
D477*
X220137Y684953D03*
D324*
X379307Y684953D03*
D987*
X544826Y684953D03*
D722*
X701887Y684953D03*
D995*
X62657Y685800D03*
D996*
X219706Y685800D03*
D377*
X379307Y685800D03*
D997*
X545677Y685800D03*
D122*
X702737Y685800D03*
D536*
X62226Y686647D03*
D998*
X218867Y686647D03*
D319*
X379307Y686647D03*
D846*
X546096Y686647D03*
D123*
X702737Y686647D03*
D534*
X61807Y687493D03*
D301*
X218436Y687493D03*
D994*
X378887Y687493D03*
D293*
X546947Y687493D03*
D371*
X703157Y687493D03*
D904*
X61807Y688340D03*
D999*
X217585Y688340D03*
D120*
X379307Y688340D03*
D470*
X547378Y688340D03*
D122*
X703576Y688340D03*
D389*
X61375Y689187D03*
D862*
X216747Y689187D03*
D106*
X379307Y689187D03*
D852*
X548217Y689187D03*
D994*
X704007Y689187D03*
D326*
X60956Y690033D03*
D489*
X216315Y690033D03*
D88*
X379307Y690033D03*
D300*
X548648Y690033D03*
D994*
X704007Y690033D03*
D387*
X60537Y690880D03*
D1000*
X215477Y690880D03*
D579*
X379307Y690880D03*
D1001*
X549487Y690880D03*
D718*
X704427Y690880D03*
D389*
X60537Y691727D03*
D307*
X215045Y691727D03*
D55*
X379307Y691727D03*
D803*
X549918Y691727D03*
D317*
X704427Y691727D03*
D390*
X60537Y692573D03*
D868*
X214207Y692573D03*
D75*
X379307Y692573D03*
D1002*
X550757Y692573D03*
D124*
X704846Y692573D03*
D392*
X60537Y693420D03*
D829*
X213775Y693420D03*
D62*
X379307Y693420D03*
D996*
X551607Y693420D03*
D821*
X704427Y693420D03*
D815*
X60105Y694267D03*
D495*
X212937Y694267D03*
D810*
X379307Y694267D03*
D480*
X552027Y694267D03*
D375*
X704858Y694267D03*
D395*
X60537Y695113D03*
D871*
X212086Y695113D03*
D774*
X379307Y695113D03*
D998*
X552446Y695113D03*
D375*
X704858Y695113D03*
D895*
X60117Y695960D03*
D1003*
X211247Y695960D03*
D71*
X379307Y695960D03*
D804*
X553716Y695960D03*
D848*
X704846Y695960D03*
D332*
X60537Y696807D03*
D306*
X210397Y696807D03*
D1004*
X379307Y696807D03*
D1005*
X554567Y696807D03*
D312*
X704427Y696807D03*
D398*
X60537Y697653D03*
D871*
X209546Y697653D03*
D777*
X309457Y697653D03*
D13*
X379307Y697653D03*
D777*
X449157Y697653D03*
D482*
X555417Y697653D03*
D325*
X704427Y697653D03*
D1006*
X60968Y698500D03*
D1003*
X208707Y698500D03*
D791*
X309457Y698500D03*
D16*
X379307Y698500D03*
D791*
X449157Y698500D03*
D804*
X556256Y698500D03*
D544*
X703995Y698500D03*
D408*
X61375Y699347D03*
D1007*
X207437Y699347D03*
D1008*
X309457Y699347D03*
D630*
X379307Y699347D03*
D1008*
X449157Y699347D03*
D998*
X557526Y699347D03*
D328*
X703588Y699347D03*
D145*
X136305Y700193D03*
D12*
X309457Y700193D03*
D634*
X379307Y700193D03*
D12*
X449157Y700193D03*
D145*
X622308Y700193D03*
D147*
X135467Y701040D03*
D10*
X309888Y701040D03*
D1009*
X379307Y701040D03*
D10*
X448725Y701040D03*
D147*
X623147Y701040D03*
D510*
X135047Y701887D03*
D56*
X309457Y701887D03*
D269*
X379307Y701887D03*
D56*
X449157Y701887D03*
D510*
X623566Y701887D03*
D148*
X134197Y702733D03*
D86*
X309457Y702733D03*
D1010*
X379307Y702733D03*
D86*
X449157Y702733D03*
D148*
X624417Y702733D03*
D150*
X133777Y703580D03*
D47*
X309457Y703580D03*
D262*
X379307Y703580D03*
D47*
X449157Y703580D03*
D150*
X624836Y703580D03*
D152*
X133358Y704427D03*
D102*
X309457Y704427D03*
D782*
X379307Y704427D03*
D102*
X449157Y704427D03*
D152*
X625255Y704427D03*
X132495Y705273D03*
D119*
X309457Y705273D03*
D1011*
X379307Y705273D03*
D119*
X449157Y705273D03*
D152*
X626118Y705273D03*
D154*
X132076Y706120D03*
D718*
X309888Y706120D03*
D1012*
X379307Y706120D03*
D718*
X448725Y706120D03*
D154*
X626537Y706120D03*
D151*
X131237Y706967D03*
D375*
X309457Y706967D03*
D245*
X379307Y706967D03*
D375*
X449157Y706967D03*
D151*
X627376Y706967D03*
X131237Y707813D03*
D312*
X309888Y707813D03*
D28*
X379307Y707813D03*
D312*
X448725Y707813D03*
D151*
X627376Y707813D03*
D637*
X130806Y708660D03*
D544*
X309457Y708660D03*
D241*
X379307Y708660D03*
D544*
X449157Y708660D03*
D637*
X627807Y708660D03*
D507*
X129967Y709507D03*
D540*
X309457Y709507D03*
D238*
X379307Y709507D03*
D540*
X449157Y709507D03*
D507*
X628646Y709507D03*
D155*
X129548Y710353D03*
D326*
X309876Y710353D03*
D1013*
X379307Y710353D03*
D326*
X448737Y710353D03*
D155*
X629065Y710353D03*
D153*
X129117Y711200D03*
D901*
X309876Y711200D03*
D750*
X379307Y711200D03*
D901*
X448737Y711200D03*
D153*
X629497Y711200D03*
D155*
X128685Y712047D03*
D395*
X309457Y712047D03*
D749*
X379307Y712047D03*
D395*
X449157Y712047D03*
D155*
X629928Y712047D03*
D505*
X128266Y712893D03*
D332*
X309457Y712893D03*
D327*
X379307Y712893D03*
D332*
X449157Y712893D03*
D505*
X630347Y712893D03*
D700*
X127847Y713740D03*
D399*
X309457Y713740D03*
D1014*
X379307Y713740D03*
D399*
X449157Y713740D03*
D700*
X630767Y713740D03*
D505*
X127427Y714587D03*
D401*
X309457Y714587D03*
D800*
X379307Y714587D03*
D401*
X449157Y714587D03*
D505*
X631186Y714587D03*
D159*
X126996Y715433D03*
D408*
X309457Y715433D03*
D1015*
X379307Y715433D03*
D408*
X449157Y715433D03*
D159*
X631617Y715433D03*
D870*
X59267Y716280D03*
D1006*
X199805Y716280D03*
D411*
X309457Y716280D03*
D806*
X379307Y716280D03*
D411*
X449157Y716280D03*
D829*
X565158Y716280D03*
D812*
X706116Y716280D03*
D1016*
X57997Y717127D03*
D893*
X200656Y717127D03*
D1017*
X309457Y717127D03*
D213*
X379307Y717127D03*
D1017*
X449157Y717127D03*
D500*
X564307Y717127D03*
D523*
X707386Y717127D03*
D504*
X57158Y717973D03*
D523*
X201087Y717973D03*
D506*
X309876Y717973D03*
D207*
X379307Y717973D03*
D506*
X448737Y717973D03*
D875*
X563876Y717973D03*
D815*
X707805Y717973D03*
D807*
X56295Y718820D03*
D330*
X201507Y718820D03*
D337*
X309876Y718820D03*
D813*
X379307Y718820D03*
D337*
X448737Y718820D03*
D877*
X563876Y718820D03*
D329*
X708668Y718820D03*
D506*
X55876Y719667D03*
D992*
X201507Y719667D03*
D309*
X309888Y719667D03*
D1016*
X449157Y719667D03*
D1017*
X563457Y719667D03*
D313*
X709087Y719667D03*
D1017*
X55457Y720513D03*
D534*
X201507Y720513D03*
D306*
X309457Y720513D03*
X449157Y720513D03*
D410*
X563457Y720513D03*
D992*
X709507Y720513D03*
D877*
X55037Y721360D03*
D1018*
X201926Y721360D03*
D829*
X309457Y721360D03*
X449157Y721360D03*
D411*
X563457Y721360D03*
D899*
X709926Y721360D03*
D333*
X54606Y722207D03*
D328*
X201507Y722207D03*
D494*
X309876Y722207D03*
X448737Y722207D03*
D408*
X563457Y722207D03*
D529*
X710357Y722207D03*
D333*
X54606Y723053D03*
D328*
X201507Y723053D03*
D1019*
X309457Y723053D03*
X449157Y723053D03*
D408*
X563457Y723053D03*
D529*
X710357Y723053D03*
D1020*
X54187Y723900D03*
D1021*
X201507Y723900D03*
D1000*
X309457Y723900D03*
X449157Y723900D03*
D1022*
X563876Y723900D03*
D392*
X710777Y723900D03*
D988*
X54187Y724747D03*
D324*
X201507Y724747D03*
D863*
X309876Y724747D03*
X448737Y724747D03*
D335*
X563876Y724747D03*
D529*
X711196Y724747D03*
D988*
X54187Y725593D03*
D380*
X201075Y725593D03*
D489*
X309457Y725593D03*
X449157Y725593D03*
D888*
X564307Y725593D03*
D529*
X711196Y725593D03*
D807*
X53755Y726440D03*
D544*
X201075Y726440D03*
D1023*
X309457Y726440D03*
X449157Y726440D03*
D884*
X564307Y726440D03*
D899*
X711627Y726440D03*
D504*
X53755Y727287D03*
D850*
X200656Y727287D03*
D486*
X309888Y727287D03*
X448725Y727287D03*
D516*
X564727Y727287D03*
D815*
X711208Y727287D03*
D504*
X53755Y728133D03*
D380*
X200237Y728133D03*
D1024*
X309457Y728133D03*
X449157Y728133D03*
D516*
X564727Y728133D03*
D815*
X711208Y728133D03*
D807*
X53755Y728980D03*
D544*
X200237Y728980D03*
D484*
X309876Y728980D03*
X448737Y728980D03*
D1006*
X564727Y728980D03*
D329*
X711208Y728980D03*
D500*
X53767Y729827D03*
D850*
X199817Y729827D03*
D483*
X309457Y729827D03*
X449157Y729827D03*
D516*
X565565Y729827D03*
D523*
X711627Y729827D03*
D500*
X53767Y730673D03*
D380*
X199398Y730673D03*
D482*
X309876Y730673D03*
X448737Y730673D03*
D516*
X565565Y730673D03*
D893*
X711196Y730673D03*
D1025*
X54187Y731520D03*
D544*
X199398Y731520D03*
D1026*
X309457Y731520D03*
X449157Y731520D03*
D403*
X565997Y731520D03*
D397*
X710777Y731520D03*
D871*
X54606Y732367D03*
D380*
X198535Y732367D03*
D480*
X309888Y732367D03*
X448725Y732367D03*
D888*
X566847Y732367D03*
D332*
X710777Y732367D03*
D495*
X54618Y733213D03*
D542*
X198116Y733213D03*
D1002*
X309457Y733213D03*
X449157Y733213D03*
D883*
X567267Y733213D03*
D516*
X710345Y733213D03*
D867*
X55037Y734060D03*
D538*
X197265Y734060D03*
D1027*
X309876Y734060D03*
X448737Y734060D03*
D311*
X567698Y734060D03*
D884*
X709926Y734060D03*
D491*
X56307Y734907D03*
D536*
X196007Y734907D03*
D803*
X309457Y734907D03*
X449157Y734907D03*
D308*
X568956Y734907D03*
D408*
X709075Y734907D03*
D164*
X119807Y735753D03*
D803*
X309457Y735753D03*
X449157Y735753D03*
D164*
X638806Y735753D03*
D162*
X119376Y736600D03*
D1028*
X309876Y736600D03*
X448737Y736600D03*
D162*
X639237Y736600D03*
D160*
X119376Y737447D03*
D476*
X309457Y737447D03*
X449157Y737447D03*
D160*
X639237Y737447D03*
D1029*
X118957Y738293D03*
D476*
X309457Y738293D03*
X449157Y738293D03*
D1029*
X639657Y738293D03*
D708*
X118957Y739140D03*
D474*
X309888Y739140D03*
X448725Y739140D03*
D708*
X639657Y739140D03*
D160*
X118537Y739987D03*
D852*
X309457Y739987D03*
X449157Y739987D03*
D160*
X640076Y739987D03*
X118537Y740833D03*
D852*
X309457Y740833D03*
X449157Y740833D03*
D160*
X640076Y740833D03*
D859*
X118106Y741680D03*
D296*
X309876Y741680D03*
X448737Y741680D03*
D859*
X640507Y741680D03*
D164*
X118106Y742527D03*
D799*
X309876Y742527D03*
X448737Y742527D03*
D164*
X640507Y742527D03*
X118106Y743373D03*
D1030*
X309457Y743373D03*
X449157Y743373D03*
D164*
X640507Y743373D03*
D502*
X117687Y744220D03*
D470*
X309457Y744220D03*
X449157Y744220D03*
D502*
X640927Y744220D03*
D1031*
X117687Y745067D03*
D1030*
X309457Y745067D03*
X449157Y745067D03*
D1031*
X640927Y745067D03*
X117687Y745913D03*
D469*
X309876Y745913D03*
X448737Y745913D03*
D1031*
X640927Y745913D03*
D502*
X117687Y746760D03*
D1032*
X309876Y746760D03*
X448737Y746760D03*
D502*
X640927Y746760D03*
D164*
X117267Y747607D03*
D467*
X309457Y747607D03*
X449157Y747607D03*
D164*
X641346Y747607D03*
X117267Y748453D03*
D467*
X309457Y748453D03*
D469*
X449576Y748453D03*
D164*
X641346Y748453D03*
D162*
X116836Y749300D03*
D470*
X308618Y749300D03*
D1033*
X450427Y749300D03*
D162*
X641777Y749300D03*
D160*
X116836Y750147D03*
D471*
X308187Y750147D03*
D473*
X450846Y750147D03*
D160*
X641777Y750147D03*
X116836Y750993D03*
D473*
X307767Y750993D03*
D300*
X451265Y750993D03*
D160*
X641777Y750993D03*
D1034*
X54187Y751840D03*
D544*
X195157Y751840D03*
D474*
X307348Y751840D03*
D1035*
X451697Y751840D03*
D1022*
X570657Y751840D03*
D877*
X710357Y751840D03*
D863*
X53336Y752687D03*
D549*
X196007Y752687D03*
D476*
X306917Y752687D03*
D477*
X452116Y752687D03*
D331*
X569387Y752687D03*
D511*
X711627Y752687D03*
D307*
X52485Y753533D03*
D312*
X196427Y753533D03*
D477*
X306497Y753533D03*
D803*
X452535Y753533D03*
D892*
X568956Y753533D03*
D880*
X712047Y753533D03*
D805*
X51647Y754380D03*
D848*
X196846Y754380D03*
D856*
X305647Y754380D03*
D996*
X453386Y754380D03*
D895*
X568117Y754380D03*
D1022*
X712897Y754380D03*
D307*
X51647Y755227D03*
D314*
X197277Y755227D03*
D302*
X305227Y755227D03*
D480*
X453805Y755227D03*
D893*
X568117Y755227D03*
D335*
X713736Y755227D03*
D1036*
X51227Y756073D03*
D314*
X197277Y756073D03*
D480*
X304808Y756073D03*
D860*
X454237Y756073D03*
D523*
X567686Y756073D03*
D335*
X713736Y756073D03*
D492*
X51227Y756920D03*
D1037*
X197697Y756920D03*
D858*
X303945Y756920D03*
D481*
X455087Y756920D03*
D329*
X567267Y756920D03*
D884*
X714167Y756920D03*
D494*
X50796Y757767D03*
D375*
X197697Y757767D03*
D998*
X303526Y757767D03*
D1005*
X455507Y757767D03*
D815*
X567267Y757767D03*
D888*
X714167Y757767D03*
D494*
X50796Y758613D03*
D375*
X197697Y758613D03*
D1005*
X303107Y758613D03*
D483*
X455938Y758613D03*
D815*
X567267Y758613D03*
D888*
X714167Y758613D03*
D867*
X50796Y759460D03*
D555*
X198116Y759460D03*
D484*
X302256Y759460D03*
D1038*
X456777Y759460D03*
D899*
X566847Y759460D03*
D1006*
X714587Y759460D03*
D494*
X50796Y760307D03*
D716*
X198116Y760307D03*
D1024*
X301837Y760307D03*
D486*
X457208Y760307D03*
D313*
X566847Y760307D03*
D516*
X714587Y760307D03*
D494*
X50796Y761153D03*
D375*
X198535Y761153D03*
D485*
X300986Y761153D03*
D486*
X458047Y761153D03*
D815*
X566428Y761153D03*
D516*
X714587Y761153D03*
D867*
X50796Y762000D03*
D1037*
X198535Y762000D03*
D999*
X300567Y762000D03*
D487*
X458466Y762000D03*
D329*
X566428Y762000D03*
D1006*
X714587Y762000D03*
D1019*
X50377Y762847D03*
D1039*
X198967Y762847D03*
D486*
X299728Y762847D03*
D1040*
X459317Y762847D03*
D395*
X565997Y762847D03*
D888*
X715006Y762847D03*
D1019*
X50377Y763693D03*
D312*
X198967Y763693D03*
D486*
X298865Y763693D03*
D1041*
X460167Y763693D03*
D332*
X565997Y763693D03*
D888*
X715006Y763693D03*
D1042*
X50377Y764540D03*
D1043*
X199386Y764540D03*
D487*
X297607Y764540D03*
D1044*
X461437Y764540D03*
D812*
X565577Y764540D03*
D886*
X714587Y764540D03*
D307*
X50808Y765387D03*
D380*
X200237Y765387D03*
D1040*
X296757Y765387D03*
D488*
X462276Y765387D03*
D331*
X565146Y765387D03*
D883*
X714587Y765387D03*
D491*
X51227Y766233D03*
D328*
X200668Y766233D03*
D485*
X295067Y766233D03*
D486*
X463965Y766233D03*
D408*
X564295Y766233D03*
X714155Y766233D03*
D853*
X51227Y767080D03*
D1045*
X254847Y767080D03*
D514*
X510117Y767080D03*
D311*
X714155Y767080D03*
D1046*
X51647Y767927D03*
D211*
X253996Y767927D03*
D396*
X510967Y767927D03*
D308*
X713736Y767927D03*
D489*
X52078Y768773D03*
D211*
X253157Y768773D03*
D396*
X511806Y768773D03*
D410*
X713317Y768773D03*
D1023*
X52917Y769620D03*
D459*
X251456Y769620D03*
D393*
X513507Y769620D03*
D1047*
X712466Y769620D03*
D1048*
X171877Y770467D03*
D198*
X514765Y770467D03*
D504*
X711615Y770467D03*
D1049*
X171458Y771313D03*
D1050*
X587587Y771313D03*
D1051*
X171027Y772160D03*
D1052*
X588006Y772160D03*
D1053*
X170607Y773007D03*
D1054*
X588425Y773007D03*
X170188Y773853D03*
D1055*
X588857Y773853D03*
D1056*
X169337Y774700D03*
D1057*
X589695Y774700D03*
D1058*
X168918Y775547D03*
D1059*
X590127Y775547D03*
X168487Y776393D03*
D1060*
X590546Y776393D03*
D1061*
X168067Y777240D03*
D1062*
X590965Y777240D03*
D1063*
X167648Y778087D03*
D1064*
X591397Y778087D03*
D1063*
X166785Y778933D03*
D1064*
X591397Y778933D03*
D1062*
X166785Y779780D03*
D1065*
X591397Y779780D03*
D1064*
X167217Y780627D03*
D1066*
X591816Y780627D03*
X166797Y781473D03*
X591816Y781473D03*
D1067*
X166797Y782320D03*
X591816Y782320D03*
D1066*
X166797Y783167D03*
X591816Y783167D03*
D1064*
X167217Y784013D03*
D1066*
X591816Y784013D03*
D1065*
X167217Y784860D03*
X591397Y784860D03*
D1064*
X167217Y785707D03*
X591397Y785707D03*
D1063*
X167648Y786553D03*
X590965Y786553D03*
D1062*
X167648Y787400D03*
X590965Y787400D03*
D1060*
X168067Y788247D03*
X590546Y788247D03*
D1058*
X168918Y789093D03*
X589695Y789093D03*
D1068*
X379307Y789940D03*
D1069*
X379307Y790787D03*
X379307Y791633D03*
D1068*
X379307Y792480D03*
D1069*
X379307Y793327D03*
X379307Y794173D03*
D1068*
X379307Y795020D03*
D1069*
X379307Y795867D03*
X379307Y796713D03*
D1068*
X379307Y797560D03*
D1070*
X379307Y798407D03*
X379307Y799253D03*
D1071*
X379307Y800100D03*
D1070*
X379307Y800947D03*
X379307Y801793D03*
D1071*
X379307Y802640D03*
D1070*
X379307Y803487D03*
X379307Y804333D03*
D1071*
X379307Y805180D03*
D1072*
X379307Y806027D03*
X379307Y806873D03*
D1073*
X379307Y807720D03*
D1072*
X379307Y808567D03*
X379307Y809413D03*
D1073*
X379307Y810260D03*
D1072*
X379307Y811107D03*
D1074*
X379307Y811953D03*
D1075*
X379307Y812800D03*
D1074*
X379307Y813647D03*
X379307Y814493D03*
D1075*
X379307Y815340D03*
D1074*
X379307Y816187D03*
D1076*
X379307Y817033D03*
D1077*
X379307Y817880D03*
D1076*
X379307Y818727D03*
X379307Y819573D03*
D1077*
X379307Y820420D03*
D1076*
X379307Y821267D03*
D1078*
X379307Y822113D03*
D1079*
X379307Y822960D03*
D1078*
X379307Y823807D03*
X379307Y824653D03*
D1079*
X379307Y825500D03*
D1078*
X379307Y826347D03*
D1080*
X379307Y827193D03*
D1081*
X379307Y828040D03*
D1080*
X379307Y828887D03*
X379307Y829733D03*
D1081*
X379307Y830580D03*
D1080*
X379307Y831427D03*
D1082*
X379307Y832273D03*
D1083*
X379307Y833120D03*
D1082*
X379307Y833967D03*
X379307Y834813D03*
D1083*
X379307Y835660D03*
D1082*
X379307Y836507D03*
X379307Y837353D03*
D1084*
X379307Y838200D03*
D1085*
X379307Y839047D03*
X379307Y839893D03*
D1084*
X379307Y840740D03*
D1085*
X379307Y841587D03*
X379307Y842433D03*
D1086*
X379307Y843280D03*
D1087*
X379307Y844127D03*
X379307Y844973D03*
D1086*
X379307Y845820D03*
D1087*
X379307Y846667D03*
X379307Y847513D03*
D1088*
X379307Y848360D03*
D1089*
X379307Y849207D03*
X379307Y850053D03*
D1088*
X379307Y850900D03*
D1089*
X379307Y851747D03*
X379307Y852593D03*
D1090*
X379307Y853440D03*
D1091*
X379307Y854287D03*
X379307Y855133D03*
D1090*
X379307Y855980D03*
D1091*
X379307Y856827D03*
X379307Y857673D03*
D1092*
X379307Y858520D03*
D1093*
X379307Y859367D03*
X379307Y860213D03*
D1092*
X379307Y861060D03*
D1093*
X379307Y861907D03*
X379307Y862753D03*
D1094*
X379307Y863600D03*
D1095*
X379307Y864447D03*
X379307Y865293D03*
D1094*
X379307Y866140D03*
D1095*
X379307Y866987D03*
X379307Y867833D03*
D1096*
X379307Y868680D03*
D1097*
X379307Y869527D03*
X379307Y870373D03*
D1096*
X379307Y871220D03*
D1097*
X379307Y872067D03*
X379307Y872913D03*
D1096*
X379307Y873760D03*
D1098*
X379307Y874607D03*
X379307Y875453D03*
D1099*
X379307Y876300D03*
D1098*
X379307Y877147D03*
X379307Y877993D03*
D1099*
X379307Y878840D03*
D1100*
X379307Y879687D03*
X379307Y880533D03*
D1101*
X379307Y881380D03*
D1100*
X379307Y882227D03*
X379307Y883073D03*
D1101*
X379307Y883920D03*
D1102*
X379307Y884767D03*
X379307Y885613D03*
D1103*
X379307Y886460D03*
D1102*
X379307Y887307D03*
X379307Y888153D03*
D1103*
X379307Y889000D03*
D1104*
X379307Y889847D03*
X379307Y890693D03*
D1105*
X379307Y891540D03*
D1104*
X379307Y892387D03*
X379307Y893233D03*
D1105*
X379307Y894080D03*
D1106*
X379307Y894927D03*
X379307Y895773D03*
D1107*
X379307Y896620D03*
D1106*
X379307Y897467D03*
X379307Y898313D03*
D1107*
X379307Y899160D03*
D1108*
X379307Y900007D03*
X379307Y900853D03*
D1109*
X379307Y901700D03*
D1108*
X379307Y902547D03*
X379307Y903393D03*
D1109*
X379307Y904240D03*
D1110*
X379307Y905087D03*
X379307Y905933D03*
D1111*
X379307Y906780D03*
D1110*
X379307Y907627D03*
X379307Y908473D03*
D1111*
X379307Y909320D03*
D1110*
X379307Y910167D03*
D1112*
X379307Y911013D03*
D1113*
X379307Y911860D03*
D1112*
X379307Y912707D03*
X379307Y913553D03*
D1113*
X379307Y914400D03*
D1112*
X379307Y915247D03*
D1114*
X379307Y916093D03*
D1115*
X379307Y916940D03*
D1114*
X379307Y917787D03*
X379307Y918633D03*
D1115*
X379307Y919480D03*
D1114*
X379307Y920327D03*
D1116*
X379307Y921173D03*
D1117*
X379307Y922020D03*
D1116*
X379307Y922867D03*
X379307Y923713D03*
D1117*
X379307Y924560D03*
D1116*
X379307Y925407D03*
D1118*
X379307Y926253D03*
D1119*
X379307Y927100D03*
D1118*
X379307Y927947D03*
X379307Y928793D03*
D1119*
X379307Y929640D03*
D1118*
X379307Y930487D03*
D1120*
X379307Y931333D03*
D1121*
X379307Y932180D03*
D1120*
X379307Y933027D03*
X379307Y933873D03*
D1121*
X379307Y934720D03*
D1120*
X379307Y935567D03*
D1122*
X379307Y936413D03*
D1123*
X379307Y937260D03*
D1122*
X379307Y938107D03*
X379307Y938953D03*
D1123*
X379307Y939800D03*
D1122*
X379307Y940647D03*
X379307Y941493D03*
D1124*
X379726Y942340D03*
D1125*
X379726Y943187D03*
D1126*
X379307Y944033D03*
D1127*
X379307Y944880D03*
D1126*
X379307Y945727D03*
X379307Y946573D03*
D1128*
X379726Y947420D03*
D1129*
X379307Y948267D03*
X379307Y949113D03*
D1130*
X379307Y949960D03*
D1129*
X379307Y950807D03*
D1131*
X379738Y951653D03*
D1132*
X379307Y952500D03*
D1133*
X379307Y953347D03*
X379307Y954193D03*
D1132*
X379307Y955040D03*
D1134*
X378887Y955887D03*
D1135*
X379307Y956733D03*
D1136*
X379307Y957580D03*
D1135*
X379307Y958427D03*
X379307Y959273D03*
D1137*
X379307Y960120D03*
D1138*
X379307Y960967D03*
X379307Y961813D03*
D1137*
X379307Y962660D03*
D1139*
X379738Y963507D03*
D1140*
X379307Y964353D03*
D1141*
X379307Y965200D03*
D1140*
X379307Y966047D03*
D1142*
X379726Y966893D03*
D1143*
X379726Y967740D03*
D981*
X379307Y968587D03*
X379307Y969433D03*
D1144*
X379726Y970280D03*
D1145*
X379726Y971127D03*
D980*
X379307Y971973D03*
D979*
X379307Y972820D03*
D980*
X379307Y973667D03*
D1146*
X379738Y974513D03*
D1147*
X379738Y975360D03*
D978*
X379307Y976207D03*
X379307Y977053D03*
D1148*
X379726Y977900D03*
D1149*
X379726Y978747D03*
D1049*
X202777Y979593D03*
X556675Y979593D03*
D1067*
X198116Y980440D03*
D1150*
X560917Y980440D03*
D1151*
X195576Y981287D03*
D1152*
X563876Y981287D03*
D1153*
X193887Y982133D03*
D717*
X565997Y982133D03*
D1154*
X191766Y982980D03*
X567686Y982980D03*
D723*
X190496Y983827D03*
D1155*
X569387Y983827D03*
D727*
X188807Y984673D03*
D728*
X570238Y984673D03*
D1156*
X187537Y985520D03*
D729*
X571508Y985520D03*
D732*
X186698Y986367D03*
X572778Y986367D03*
D734*
X185428Y987213D03*
X574048Y987213D03*
D738*
X184577Y988060D03*
D1157*
X574887Y988060D03*
D624*
X183307Y988907D03*
D621*
X575725Y988907D03*
D619*
X182457Y989753D03*
D613*
X576576Y989753D03*
D643*
X182037Y990600D03*
D602*
X577846Y990600D03*
D601*
X181187Y991447D03*
D1158*
X578697Y991447D03*
D594*
X180336Y992293D03*
D748*
X579116Y992293D03*
D1159*
X179497Y993140D03*
D586*
X579967Y993140D03*
D584*
X179066Y993987D03*
D754*
X580817Y993987D03*
D756*
X178215Y994833D03*
X581237Y994833D03*
D1160*
X177377Y995680D03*
D1161*
X582087Y995680D03*
D759*
X176945Y996527D03*
D572*
X582507Y996527D03*
X176107Y997373D03*
D876*
X582938Y997373D03*
D1162*
X175687Y998220D03*
D1163*
X583777Y998220D03*
D669*
X175268Y999067D03*
D1164*
X584627Y999067D03*
D563*
X174417Y999913D03*
D762*
X585047Y999913D03*
D668*
X173998Y1000760D03*
D1165*
X585466Y1000760D03*
D1166*
X173567Y1001607D03*
D558*
X585885Y1001607D03*
D1167*
X173147Y1002453D03*
D1168*
X586317Y1002453D03*
D556*
X172716Y1003300D03*
D1169*
X587155Y1003300D03*
D552*
X171877Y1004147D03*
D1170*
X587167Y1004147D03*
X171446Y1004993D03*
D1171*
X587587Y1004993D03*
D1172*
X171446Y1005840D03*
D1173*
X588437Y1005840D03*
D547*
X171027Y1006687D03*
D766*
X588857Y1006687D03*
D661*
X170176Y1007533D03*
X589276Y1007533D03*
D1174*
X169757Y1008380D03*
D1175*
X589288Y1008380D03*
D541*
X169325Y1009227D03*
D1176*
X589707Y1009227D03*
D1177*
X169337Y1010073D03*
D537*
X590558Y1010073D03*
D986*
X168918Y1010920D03*
D1178*
X590977Y1010920D03*
D1179*
X168487Y1011767D03*
D535*
X591397Y1011767D03*
D865*
X168067Y1012613D03*
D1180*
X591397Y1012613D03*
D532*
X167648Y1013460D03*
D1181*
X591816Y1013460D03*
D530*
X167636Y1014307D03*
D527*
X592235Y1014307D03*
X167217Y1015153D03*
D1182*
X592667Y1015153D03*
D1183*
X166797Y1016000D03*
D525*
X593086Y1016000D03*
D1184*
X166366Y1016847D03*
D646*
X593086Y1016847D03*
D524*
X165947Y1017693D03*
D652*
X593517Y1017693D03*
D659*
X165947Y1018540D03*
D663*
X593937Y1018540D03*
D653*
X165515Y1019387D03*
D665*
X594356Y1019387D03*
X165096Y1020233D03*
D651*
X593937Y1020233D03*
D1185*
X164677Y1021080D03*
D127*
X594368Y1021080D03*
D1186*
X164677Y1021927D03*
D129*
X594787Y1021927D03*
D128*
X164257Y1022773D03*
D647*
X595207Y1022773D03*
D130*
X164257Y1023620D03*
D133*
X595638Y1023620D03*
D131*
X163838Y1024467D03*
D136*
X595626Y1024467D03*
D678*
X163407Y1025313D03*
D136*
X595626Y1025313D03*
D137*
X163407Y1026160D03*
X596045Y1026160D03*
D515*
X162987Y1027007D03*
D138*
X596477Y1027007D03*
D515*
X162987Y1027853D03*
D139*
X596896Y1027853D03*
D140*
X162556Y1028700D03*
D143*
X596896Y1028700D03*
D141*
X162137Y1029547D03*
D142*
X596896Y1029547D03*
D144*
X162137Y1030393D03*
D146*
X597327Y1030393D03*
D1187*
X162137Y1031240D03*
D147*
X597747Y1031240D03*
D145*
X161705Y1032087D03*
X597747Y1032087D03*
D510*
X161286Y1032933D03*
D1188*
X597747Y1032933D03*
D150*
X161717Y1033780D03*
D509*
X598178Y1033780D03*
D152*
X161298Y1034627D03*
X598178Y1034627D03*
D697*
X160867Y1035473D03*
D151*
X598597Y1035473D03*
D1189*
X160867Y1036320D03*
D700*
X598585Y1036320D03*
D507*
X160447Y1037167D03*
D155*
X598585Y1037167D03*
D505*
X160447Y1038013D03*
D156*
X599017Y1038013D03*
D158*
X160447Y1038860D03*
D157*
X599436Y1038860D03*
D159*
X160016Y1039707D03*
X599436Y1039707D03*
X160016Y1040553D03*
D160*
X599436Y1040553D03*
D704*
X159597Y1041400D03*
D162*
X599436Y1041400D03*
D160*
X160016Y1042247D03*
D164*
X599867Y1042247D03*
D1029*
X159597Y1043093D03*
D164*
X599867Y1043093D03*
D708*
X159597Y1043940D03*
D629*
X600287Y1043940D03*
D163*
X159165Y1044787D03*
D626*
X599867Y1044787D03*
D163*
X159165Y1045633D03*
D498*
X600287Y1045633D03*
D165*
X159177Y1046480D03*
D713*
X600287Y1046480D03*
D168*
X159177Y1047327D03*
D167*
X600718Y1047327D03*
X158758Y1048173D03*
X600718Y1048173D03*
D622*
X158758Y1049020D03*
D497*
X600706Y1049020D03*
D1190*
X158746Y1049867D03*
X600706Y1049867D03*
X158746Y1050713D03*
D172*
X601125Y1050713D03*
D1191*
X158327Y1051560D03*
D1192*
X586317Y1051560D03*
D1193*
X697226Y1051560D03*
D172*
X158327Y1052407D03*
D1194*
X586317Y1052407D03*
D634*
X696807Y1052407D03*
D277*
X62226Y1053253D03*
D203*
X173147Y1053253D03*
D202*
X585897Y1053253D03*
D634*
X696807Y1053253D03*
D276*
X62645Y1054100D03*
D755*
X173567Y1054100D03*
D204*
X585897Y1054100D03*
D276*
X696807Y1054100D03*
D634*
X62645Y1054947D03*
D341*
X173998Y1054947D03*
D209*
X585466Y1054947D03*
D634*
X696807Y1054947D03*
D280*
X63077Y1055793D03*
D209*
X173986Y1055793D03*
D208*
X585047Y1055793D03*
D277*
X696387Y1055793D03*
D1195*
X63077Y1056640D03*
D339*
X174405Y1056640D03*
D1045*
X585047Y1056640D03*
D276*
X695968Y1056640D03*
D280*
X63077Y1057487D03*
D211*
X174417Y1057487D03*
D25*
X584615Y1057487D03*
D634*
X695968Y1057487D03*
X63508Y1058333D03*
D25*
X174837Y1058333D03*
D457*
X584196Y1058333D03*
D634*
X695968Y1058333D03*
D276*
X63508Y1059180D03*
D215*
X175256Y1059180D03*
D20*
X584208Y1059180D03*
D276*
X695968Y1059180D03*
D277*
X63927Y1060027D03*
D219*
X175268Y1060027D03*
D452*
X583777Y1060027D03*
D280*
X695537Y1060027D03*
D277*
X63927Y1060873D03*
D348*
X175687Y1060873D03*
D448*
X583777Y1060873D03*
D634*
X695105Y1060873D03*
D1193*
X63927Y1061720D03*
D1196*
X176107Y1061720D03*
D224*
X583357Y1061720D03*
D276*
X695105Y1061720D03*
D634*
X64347Y1062567D03*
D447*
X176107Y1062567D03*
D1197*
X582926Y1062567D03*
D634*
X695105Y1062567D03*
X64347Y1063413D03*
D1197*
X176526Y1063413D03*
D352*
X582926Y1063413D03*
D277*
X694686Y1063413D03*
D1193*
X64766Y1064260D03*
D223*
X176945Y1064260D03*
D809*
X582075Y1064260D03*
D1193*
X694686Y1064260D03*
D277*
X64766Y1065107D03*
D354*
X177377Y1065107D03*
D229*
X581656Y1065107D03*
D634*
X694267Y1065107D03*
X65185Y1065953D03*
D229*
X177796Y1065953D03*
D811*
X581237Y1065953D03*
D634*
X694267Y1065953D03*
D276*
X65185Y1066800D03*
D233*
X178227Y1066800D03*
D440*
X581237Y1066800D03*
D276*
X694267Y1066800D03*
D280*
X65617Y1067647D03*
D358*
X178227Y1067647D03*
D237*
X580817Y1067647D03*
D277*
X693847Y1067647D03*
D280*
X65617Y1068493D03*
D1198*
X178647Y1068493D03*
D770*
X580398Y1068493D03*
D277*
X693847Y1068493D03*
D1195*
X65617Y1069340D03*
D772*
X179497Y1069340D03*
D819*
X579967Y1069340D03*
D276*
X693428Y1069340D03*
D634*
X66048Y1070187D03*
D816*
X179917Y1070187D03*
D775*
X579547Y1070187D03*
D634*
X693428Y1070187D03*
X66048Y1071033D03*
D435*
X179917Y1071033D03*
D365*
X579116Y1071033D03*
D634*
X693428Y1071033D03*
D1193*
X66467Y1071880D03*
D1199*
X180336Y1071880D03*
D242*
X578697Y1071880D03*
D1195*
X692997Y1071880D03*
D277*
X66467Y1072727D03*
D366*
X180755Y1072727D03*
D246*
X578265Y1072727D03*
D634*
X692565Y1072727D03*
D277*
X66467Y1073573D03*
D370*
X181606Y1073573D03*
D378*
X577846Y1073573D03*
D634*
X692565Y1073573D03*
D276*
X66887Y1074420D03*
D423*
X181606Y1074420D03*
D381*
X577427Y1074420D03*
D276*
X692565Y1074420D03*
D634*
X66887Y1075267D03*
D384*
X182457Y1075267D03*
D388*
X576576Y1075267D03*
D634*
X692565Y1075267D03*
D277*
X67306Y1076113D03*
D388*
X182876Y1076113D03*
D394*
X576157Y1076113D03*
D277*
X692146Y1076113D03*
D1193*
X67306Y1076960D03*
D1200*
X183307Y1076960D03*
D1201*
X576157Y1076960D03*
D276*
X691727Y1076960D03*
D634*
X67725Y1077807D03*
D400*
X184146Y1077807D03*
D255*
X575318Y1077807D03*
D634*
X691727Y1077807D03*
X67725Y1078653D03*
D255*
X184158Y1078653D03*
D416*
X574887Y1078653D03*
D634*
X691727Y1078653D03*
D276*
X67725Y1079500D03*
D1202*
X184997Y1079500D03*
D264*
X574048Y1079500D03*
D1193*
X691307Y1079500D03*
D280*
X68157Y1080347D03*
D259*
X185428Y1080347D03*
D823*
X573617Y1080347D03*
D277*
X691307Y1080347D03*
D280*
X68157Y1081193D03*
D1203*
X186267Y1081193D03*
D268*
X573197Y1081193D03*
D634*
X690888Y1081193D03*
D276*
X68588Y1082040D03*
D825*
X186698Y1082040D03*
D1204*
X572766Y1082040D03*
D276*
X690888Y1082040D03*
D634*
X68588Y1082887D03*
D1205*
X187537Y1082887D03*
D433*
X571927Y1082887D03*
D634*
X690888Y1082887D03*
D277*
X69007Y1083733D03*
D267*
X187537Y1083733D03*
D272*
X571496Y1083733D03*
D280*
X690457Y1083733D03*
D1193*
X69007Y1084580D03*
D1206*
X188375Y1084580D03*
D436*
X570657Y1084580D03*
D1195*
X690457Y1084580D03*
D277*
X69007Y1085427D03*
D1207*
X188807Y1085427D03*
D831*
X569807Y1085427D03*
D634*
X690025Y1085427D03*
X69427Y1086273D03*
D831*
X189645Y1086273D03*
D438*
X569387Y1086273D03*
D634*
X690025Y1086273D03*
D276*
X69427Y1087120D03*
D274*
X190496Y1087120D03*
D833*
X568537Y1087120D03*
D276*
X690025Y1087120D03*
D277*
X69846Y1087967D03*
D279*
X190915Y1087967D03*
D278*
X568105Y1087967D03*
D277*
X689606Y1087967D03*
X69846Y1088813D03*
D441*
X192197Y1088813D03*
D835*
X566847Y1088813D03*
D634*
X689187Y1088813D03*
D1193*
X69846Y1089660D03*
D1208*
X193887Y1089660D03*
D1209*
X565146Y1089660D03*
D276*
X689187Y1089660D03*
D634*
X70265Y1090507D03*
D1210*
X195157Y1090507D03*
D278*
X563888Y1090507D03*
D634*
X689187Y1090507D03*
X70265Y1091353D03*
D835*
X196846Y1091353D03*
D278*
X562187Y1091353D03*
D634*
X689187Y1091353D03*
D1195*
X70697Y1092200D03*
D1211*
X198128Y1092200D03*
D1212*
X560917Y1092200D03*
D1193*
X688767Y1092200D03*
D280*
X70697Y1093047D03*
D278*
X199805Y1093047D03*
D283*
X559227Y1093047D03*
D634*
X688348Y1093047D03*
X71128Y1093893D03*
D278*
X201507Y1093893D03*
D283*
X557526Y1093893D03*
D634*
X688348Y1093893D03*
D276*
X71128Y1094740D03*
D1212*
X202777Y1094740D03*
D1213*
X556256Y1094740D03*
D276*
X688348Y1094740D03*
D634*
X71128Y1095587D03*
D283*
X204466Y1095587D03*
D1214*
X554567Y1095587D03*
D280*
X687917Y1095587D03*
D277*
X71547Y1096433D03*
D790*
X205736Y1096433D03*
D446*
X553297Y1096433D03*
D280*
X687917Y1096433D03*
D1193*
X71547Y1097280D03*
D1213*
X207437Y1097280D03*
D1215*
X551595Y1097280D03*
D276*
X687485Y1097280D03*
D634*
X71967Y1098127D03*
D446*
X209558Y1098127D03*
D1216*
X549487Y1098127D03*
D634*
X687485Y1098127D03*
X71967Y1098973D03*
D282*
X210816Y1098973D03*
D1217*
X548217Y1098973D03*
D634*
X687485Y1098973D03*
D1193*
X72386Y1099820D03*
D792*
X212517Y1099820D03*
D1218*
X546108Y1099820D03*
D1193*
X687066Y1099820D03*
D277*
X72386Y1100667D03*
D451*
X214207Y1100667D03*
D453*
X544826Y1100667D03*
D277*
X687066Y1100667D03*
X72386Y1101513D03*
D453*
X216327Y1101513D03*
D794*
X542717Y1101513D03*
D634*
X686647Y1101513D03*
D276*
X72805Y1102360D03*
D1219*
X218017Y1102360D03*
D286*
X541016Y1102360D03*
D276*
X686647Y1102360D03*
D634*
X72805Y1103207D03*
D456*
X219718Y1103207D03*
D1220*
X539327Y1103207D03*
D634*
X686647Y1103207D03*
D280*
X73237Y1104053D03*
D1220*
X221827Y1104053D03*
D987*
X537206Y1104053D03*
D277*
X686227Y1104053D03*
D1195*
X73237Y1104900D03*
D458*
X223528Y1104900D03*
X535085Y1104900D03*
D276*
X685808Y1104900D03*
D634*
X73668Y1105747D03*
D294*
X226056Y1105747D03*
D796*
X532977Y1105747D03*
D634*
X685808Y1105747D03*
X73668Y1106593D03*
D796*
X228177Y1106593D03*
D846*
X530856Y1106593D03*
D634*
X685808Y1106593D03*
D276*
X73668Y1107440D03*
D297*
X230285Y1107440D03*
D990*
X528747Y1107440D03*
D276*
X685808Y1107440D03*
D277*
X74087Y1108287D03*
D469*
X232837Y1108287D03*
D1030*
X526195Y1108287D03*
D280*
X685377Y1108287D03*
D277*
X74087Y1109133D03*
D332*
X218863Y1109133D03*
D1008*
X276437Y1109133D03*
D289*
X482608Y1109133D03*
D893*
X539323Y1109133D03*
D634*
X684945Y1109133D03*
D276*
X74507Y1109980D03*
D901*
X222677Y1109980D03*
D801*
X277707Y1109980D03*
X481745Y1109980D03*
D387*
X536355Y1109980D03*
D276*
X684945Y1109980D03*
D634*
X74507Y1110827D03*
D1221*
X226479Y1110827D03*
D289*
X279408Y1110827D03*
X480068Y1110827D03*
D324*
X532554Y1110827D03*
D634*
X684945Y1110827D03*
X74507Y1111673D03*
D1222*
X229019Y1111673D03*
D292*
X279827Y1111673D03*
D1008*
X479637Y1111673D03*
D1039*
X530014Y1111673D03*
D277*
X684526Y1111673D03*
D1193*
X74926Y1112520D03*
D122*
X231990Y1112520D03*
D48*
X280678Y1112520D03*
X478798Y1112520D03*
D725*
X527042Y1112520D03*
D1193*
X684526Y1112520D03*
D277*
X74926Y1113367D03*
D88*
X234526Y1113367D03*
D51*
X280666Y1113367D03*
D298*
X478367Y1113367D03*
D111*
X523659Y1113367D03*
D634*
X684107Y1113367D03*
X75345Y1114213D03*
D79*
X280678Y1114213D03*
D774*
X478367Y1114213D03*
D634*
X684107Y1114213D03*
D276*
X75345Y1115060D03*
D69*
X280247Y1115060D03*
D76*
X479217Y1115060D03*
D276*
X684107Y1115060D03*
D280*
X75777Y1115907D03*
D73*
X279396Y1115907D03*
X480056Y1115907D03*
D277*
X683687Y1115907D03*
D280*
X75777Y1116753D03*
D73*
X278557Y1116753D03*
D810*
X480907Y1116753D03*
D277*
X683687Y1116753D03*
D1195*
X75777Y1117600D03*
D69*
X277707Y1117600D03*
D76*
X481757Y1117600D03*
D276*
X683268Y1117600D03*
D634*
X76208Y1118447D03*
D73*
X276856Y1118447D03*
X482596Y1118447D03*
D634*
X683268Y1118447D03*
X76208Y1119293D03*
D73*
X276017Y1119293D03*
D810*
X483447Y1119293D03*
D634*
X683268Y1119293D03*
D1193*
X76627Y1120140D03*
D69*
X275167Y1120140D03*
D76*
X484297Y1120140D03*
D1195*
X682837Y1120140D03*
D277*
X76627Y1120987D03*
D73*
X274316Y1120987D03*
X485136Y1120987D03*
D634*
X682405Y1120987D03*
X77047Y1121833D03*
D73*
X273477Y1121833D03*
D810*
X485987Y1121833D03*
D634*
X682405Y1121833D03*
D276*
X77047Y1122680D03*
D69*
X272627Y1122680D03*
D76*
X486837Y1122680D03*
D276*
X682405Y1122680D03*
D634*
X77047Y1123527D03*
D73*
X271776Y1123527D03*
X487676Y1123527D03*
D634*
X682405Y1123527D03*
D277*
X77466Y1124373D03*
D73*
X270937Y1124373D03*
D810*
X488527Y1124373D03*
D277*
X681986Y1124373D03*
D1193*
X77466Y1125220D03*
D69*
X270087Y1125220D03*
D76*
X489377Y1125220D03*
D276*
X681567Y1125220D03*
D634*
X77885Y1126067D03*
D73*
X269236Y1126067D03*
X490216Y1126067D03*
D634*
X681567Y1126067D03*
X77885Y1126913D03*
D73*
X268397Y1126913D03*
D810*
X491067Y1126913D03*
D634*
X681567Y1126913D03*
D276*
X77885Y1127760D03*
D69*
X267547Y1127760D03*
D76*
X491917Y1127760D03*
D1193*
X681147Y1127760D03*
D280*
X78317Y1128607D03*
D73*
X266696Y1128607D03*
X492756Y1128607D03*
D277*
X681147Y1128607D03*
D280*
X78317Y1129453D03*
D73*
X265857Y1129453D03*
D810*
X493607Y1129453D03*
D634*
X680728Y1129453D03*
D276*
X78748Y1130300D03*
D69*
X265007Y1130300D03*
D76*
X494457Y1130300D03*
D276*
X680728Y1130300D03*
D634*
X78748Y1131147D03*
D79*
X263737Y1131147D03*
X495715Y1131147D03*
D634*
X680728Y1131147D03*
D277*
X79167Y1131993D03*
D79*
X262898Y1131993D03*
X496578Y1131993D03*
D280*
X680297Y1131993D03*
D1193*
X79167Y1132840D03*
D82*
X262035Y1132840D03*
X497417Y1132840D03*
D1195*
X680297Y1132840D03*
D634*
X79587Y1133687D03*
D79*
X261197Y1133687D03*
X498255Y1133687D03*
D634*
X679865Y1133687D03*
X79587Y1134533D03*
D79*
X260358Y1134533D03*
X499118Y1134533D03*
D634*
X679865Y1134533D03*
D276*
X79587Y1135380D03*
D82*
X259495Y1135380D03*
X499957Y1135380D03*
D276*
X679865Y1135380D03*
D277*
X80006Y1136227D03*
D79*
X258657Y1136227D03*
X500795Y1136227D03*
D277*
X679446Y1136227D03*
X80006Y1137073D03*
D79*
X257818Y1137073D03*
X501658Y1137073D03*
D634*
X679027Y1137073D03*
D276*
X80425Y1137920D03*
D82*
X256955Y1137920D03*
X502497Y1137920D03*
D276*
X679027Y1137920D03*
D634*
X80425Y1138767D03*
D79*
X256117Y1138767D03*
X503335Y1138767D03*
D634*
X679027Y1138767D03*
X80425Y1139613D03*
D79*
X255278Y1139613D03*
X504198Y1139613D03*
D634*
X679027Y1139613D03*
D1195*
X80857Y1140460D03*
D82*
X254415Y1140460D03*
X505037Y1140460D03*
D1193*
X678607Y1140460D03*
D280*
X80857Y1141307D03*
D79*
X253577Y1141307D03*
X505875Y1141307D03*
D634*
X678188Y1141307D03*
X81288Y1142153D03*
D79*
X252738Y1142153D03*
X506738Y1142153D03*
D634*
X678188Y1142153D03*
D276*
X81288Y1143000D03*
D82*
X251875Y1143000D03*
X507577Y1143000D03*
D276*
X678188Y1143000D03*
D634*
X81288Y1143847D03*
D79*
X251037Y1143847D03*
X508415Y1143847D03*
D280*
X677757Y1143847D03*
D277*
X81707Y1144693D03*
D79*
X250198Y1144693D03*
X509278Y1144693D03*
D280*
X677757Y1144693D03*
D1193*
X81707Y1145540D03*
D82*
X249335Y1145540D03*
X510117Y1145540D03*
D276*
X677325Y1145540D03*
D634*
X82127Y1146387D03*
D79*
X248497Y1146387D03*
X510955Y1146387D03*
D634*
X677325Y1146387D03*
X82127Y1147233D03*
D79*
X247658Y1147233D03*
X511818Y1147233D03*
D634*
X677325Y1147233D03*
D1193*
X82546Y1148080D03*
D82*
X246795Y1148080D03*
X512657Y1148080D03*
D1193*
X676906Y1148080D03*
D277*
X82546Y1148927D03*
D79*
X245957Y1148927D03*
X513495Y1148927D03*
D277*
X676906Y1148927D03*
D634*
X82965Y1149773D03*
D79*
X245118Y1149773D03*
X514358Y1149773D03*
D634*
X676487Y1149773D03*
D276*
X82965Y1150620D03*
D82*
X244255Y1150620D03*
X515197Y1150620D03*
D276*
X676487Y1150620D03*
D634*
X82965Y1151467D03*
D79*
X243417Y1151467D03*
X516035Y1151467D03*
D634*
X676487Y1151467D03*
D280*
X83397Y1152313D03*
D79*
X242578Y1152313D03*
X516898Y1152313D03*
D277*
X676067Y1152313D03*
D1195*
X83397Y1153160D03*
D82*
X241715Y1153160D03*
X517737Y1153160D03*
D276*
X675648Y1153160D03*
D634*
X83828Y1154007D03*
D79*
X240877Y1154007D03*
X518575Y1154007D03*
D634*
X675648Y1154007D03*
X83828Y1154853D03*
D79*
X240038Y1154853D03*
X519438Y1154853D03*
D634*
X675648Y1154853D03*
D276*
X83828Y1155700D03*
D82*
X239175Y1155700D03*
X520277Y1155700D03*
D276*
X675648Y1155700D03*
D277*
X84247Y1156547D03*
D79*
X238337Y1156547D03*
X521115Y1156547D03*
D280*
X675217Y1156547D03*
D277*
X84247Y1157393D03*
D810*
X237067Y1157393D03*
D73*
X522397Y1157393D03*
D634*
X674785Y1157393D03*
D276*
X84667Y1158240D03*
D76*
X236216Y1158240D03*
X523236Y1158240D03*
D276*
X674785Y1158240D03*
D634*
X84667Y1159087D03*
D73*
X235377Y1159087D03*
D810*
X524087Y1159087D03*
D634*
X674785Y1159087D03*
X84667Y1159933D03*
D810*
X234527Y1159933D03*
D73*
X524937Y1159933D03*
D277*
X674366Y1159933D03*
D1193*
X85086Y1160780D03*
D76*
X233676Y1160780D03*
X525776Y1160780D03*
D1193*
X674366Y1160780D03*
D277*
X85086Y1161627D03*
D73*
X232837Y1161627D03*
D810*
X526627Y1161627D03*
D634*
X673947Y1161627D03*
X85505Y1162473D03*
D810*
X231987Y1162473D03*
D73*
X527477Y1162473D03*
D634*
X673947Y1162473D03*
D276*
X85505Y1163320D03*
D76*
X231136Y1163320D03*
X528316Y1163320D03*
D276*
X673947Y1163320D03*
D280*
X85937Y1164167D03*
D73*
X230297Y1164167D03*
D810*
X529167Y1164167D03*
D277*
X673527Y1164167D03*
D280*
X85937Y1165013D03*
D810*
X229447Y1165013D03*
D73*
X530017Y1165013D03*
D277*
X673527Y1165013D03*
D276*
X86368Y1165860D03*
D76*
X228596Y1165860D03*
X530856Y1165860D03*
D276*
X673108Y1165860D03*
D634*
X86368Y1166707D03*
D73*
X227757Y1166707D03*
D810*
X531707Y1166707D03*
D634*
X673108Y1166707D03*
X86368Y1167553D03*
D810*
X226907Y1167553D03*
D73*
X532557Y1167553D03*
D634*
X673108Y1167553D03*
D1193*
X86787Y1168400D03*
D76*
X226056Y1168400D03*
X533396Y1168400D03*
D1195*
X672677Y1168400D03*
D277*
X86787Y1169247D03*
D73*
X225217Y1169247D03*
D810*
X534247Y1169247D03*
D634*
X672245Y1169247D03*
X87207Y1170093D03*
D810*
X224367Y1170093D03*
D73*
X535097Y1170093D03*
D634*
X672245Y1170093D03*
D276*
X87207Y1170940D03*
D76*
X223516Y1170940D03*
X535936Y1170940D03*
D276*
X672245Y1170940D03*
D634*
X87207Y1171787D03*
D73*
X222677Y1171787D03*
D810*
X536787Y1171787D03*
D634*
X672245Y1171787D03*
D277*
X87626Y1172633D03*
D810*
X221827Y1172633D03*
D73*
X537637Y1172633D03*
D277*
X671826Y1172633D03*
D1193*
X87626Y1173480D03*
D82*
X220557Y1173480D03*
X538895Y1173480D03*
D276*
X671407Y1173480D03*
D634*
X88045Y1174327D03*
D79*
X219718Y1174327D03*
X539758Y1174327D03*
D634*
X671407Y1174327D03*
X88045Y1175173D03*
D79*
X218855Y1175173D03*
X540597Y1175173D03*
D634*
X671407Y1175173D03*
D276*
X88045Y1176020D03*
D82*
X218017Y1176020D03*
X541435Y1176020D03*
D1193*
X670987Y1176020D03*
D280*
X88477Y1176867D03*
D79*
X217178Y1176867D03*
X542298Y1176867D03*
D277*
X670987Y1176867D03*
D634*
X88908Y1177713D03*
D79*
X216315Y1177713D03*
X543137Y1177713D03*
D634*
X670568Y1177713D03*
D276*
X88908Y1178560D03*
D82*
X215477Y1178560D03*
X543975Y1178560D03*
D276*
X670568Y1178560D03*
D634*
X88908Y1179407D03*
D79*
X214638Y1179407D03*
X544838Y1179407D03*
D634*
X670568Y1179407D03*
D277*
X89327Y1180253D03*
D79*
X213775Y1180253D03*
X545677Y1180253D03*
D280*
X670137Y1180253D03*
D1193*
X89327Y1181100D03*
D82*
X212937Y1181100D03*
X546515Y1181100D03*
D1195*
X670137Y1181100D03*
D634*
X89747Y1181947D03*
D79*
X212098Y1181947D03*
X547378Y1181947D03*
D634*
X669705Y1181947D03*
X89747Y1182793D03*
D79*
X211235Y1182793D03*
X548217Y1182793D03*
D634*
X669705Y1182793D03*
D276*
X89747Y1183640D03*
D82*
X210397Y1183640D03*
X549055Y1183640D03*
D276*
X669705Y1183640D03*
D277*
X90166Y1184487D03*
D79*
X209558Y1184487D03*
X549918Y1184487D03*
D277*
X669286Y1184487D03*
X90166Y1185333D03*
D79*
X208695Y1185333D03*
X550757Y1185333D03*
D634*
X668867Y1185333D03*
D276*
X90585Y1186180D03*
D82*
X207857Y1186180D03*
X551595Y1186180D03*
D276*
X668867Y1186180D03*
D634*
X90585Y1187027D03*
D79*
X207018Y1187027D03*
X552458Y1187027D03*
D634*
X668867Y1187027D03*
X90585Y1187873D03*
D79*
X206155Y1187873D03*
X553297Y1187873D03*
D634*
X668867Y1187873D03*
D1195*
X91017Y1188720D03*
D82*
X205317Y1188720D03*
X554135Y1188720D03*
D1193*
X668447Y1188720D03*
D280*
X91017Y1189567D03*
D79*
X204478Y1189567D03*
X554998Y1189567D03*
D634*
X668028Y1189567D03*
X91448Y1190413D03*
D79*
X203615Y1190413D03*
X555837Y1190413D03*
D634*
X668028Y1190413D03*
D276*
X91448Y1191260D03*
D82*
X202777Y1191260D03*
X556675Y1191260D03*
D276*
X668028Y1191260D03*
D277*
X91867Y1192107D03*
D79*
X201938Y1192107D03*
X557538Y1192107D03*
D280*
X667597Y1192107D03*
D277*
X91867Y1192953D03*
D79*
X201075Y1192953D03*
X558377Y1192953D03*
D280*
X667597Y1192953D03*
D276*
X92287Y1193800D03*
D82*
X200237Y1193800D03*
X559215Y1193800D03*
D276*
X667165Y1193800D03*
D634*
X92287Y1194647D03*
D79*
X199398Y1194647D03*
X560078Y1194647D03*
D634*
X667165Y1194647D03*
X92287Y1195493D03*
D79*
X198535Y1195493D03*
X560917Y1195493D03*
D634*
X667165Y1195493D03*
D1193*
X92706Y1196340D03*
D82*
X197697Y1196340D03*
X561755Y1196340D03*
D1193*
X666746Y1196340D03*
D277*
X92706Y1197187D03*
D79*
X196858Y1197187D03*
X562618Y1197187D03*
D277*
X666746Y1197187D03*
D634*
X93125Y1198033D03*
D79*
X195995Y1198033D03*
X563457Y1198033D03*
D634*
X666327Y1198033D03*
D276*
X93125Y1198880D03*
D82*
X195157Y1198880D03*
X564295Y1198880D03*
D276*
X666327Y1198880D03*
D634*
X93125Y1199727D03*
D79*
X194318Y1199727D03*
X565158Y1199727D03*
D634*
X666327Y1199727D03*
D280*
X93557Y1200573D03*
D73*
X193036Y1200573D03*
D79*
X565997Y1200573D03*
D277*
X665907Y1200573D03*
D1195*
X93557Y1201420D03*
D76*
X192197Y1201420D03*
D69*
X567267Y1201420D03*
D276*
X665488Y1201420D03*
D634*
X93988Y1202267D03*
D810*
X191347Y1202267D03*
D73*
X568117Y1202267D03*
D634*
X665488Y1202267D03*
D277*
X94407Y1203113D03*
D73*
X190496Y1203113D03*
X568956Y1203113D03*
D280*
X665057Y1203113D03*
D1193*
X94407Y1203960D03*
D76*
X189657Y1203960D03*
D69*
X569807Y1203960D03*
D1195*
X665057Y1203960D03*
D277*
X94407Y1204807D03*
D810*
X188807Y1204807D03*
D73*
X570657Y1204807D03*
D280*
X665057Y1204807D03*
D277*
X95246Y1205653D03*
D73*
X187956Y1205653D03*
X571496Y1205653D03*
D277*
X664206Y1205653D03*
D1193*
X95246Y1206500D03*
D76*
X187117Y1206500D03*
D69*
X572347Y1206500D03*
D1193*
X664206Y1206500D03*
D281*
X95677Y1207347D03*
D810*
X186267Y1207347D03*
D73*
X573197Y1207347D03*
D630*
X663787Y1207347D03*
D281*
X95677Y1208193D03*
D73*
X185416Y1208193D03*
X574036Y1208193D03*
D284*
X663355Y1208193D03*
D15*
X96097Y1209040D03*
D76*
X184577Y1209040D03*
D69*
X574887Y1209040D03*
D15*
X663355Y1209040D03*
D284*
X96935Y1209887D03*
D810*
X183727Y1209887D03*
D73*
X575737Y1209887D03*
D284*
X662517Y1209887D03*
D1223*
X97367Y1210733D03*
D73*
X182876Y1210733D03*
X576576Y1210733D03*
D623*
X662097Y1210733D03*
D16*
X97367Y1211580D03*
D76*
X182037Y1211580D03*
D69*
X577427Y1211580D03*
D288*
X662097Y1211580D03*
D798*
X97786Y1212427D03*
D810*
X181187Y1212427D03*
D73*
X578277Y1212427D03*
D798*
X661666Y1212427D03*
D289*
X98205Y1213273D03*
D73*
X180336Y1213273D03*
X579116Y1213273D03*
D289*
X661247Y1213273D03*
D801*
X99068Y1214120D03*
D76*
X179497Y1214120D03*
D69*
X579967Y1214120D03*
D801*
X660408Y1214120D03*
D292*
X99487Y1214967D03*
D79*
X178215Y1214967D03*
D73*
X580817Y1214967D03*
D1008*
X659977Y1214967D03*
D13*
X99907Y1215813D03*
D79*
X177377Y1215813D03*
D73*
X581656Y1215813D03*
D14*
X659557Y1215813D03*
D48*
X100338Y1216660D03*
D82*
X176538Y1216660D03*
X582938Y1216660D03*
D295*
X658707Y1216660D03*
D610*
X101177Y1217507D03*
D73*
X175256Y1217507D03*
X584196Y1217507D03*
D65*
X657856Y1217507D03*
D67*
X102027Y1218353D03*
D73*
X174417Y1218353D03*
D810*
X585047Y1218353D03*
D610*
X657437Y1218353D03*
D1224*
X102866Y1219200D03*
D305*
X173147Y1219200D03*
D68*
X586317Y1219200D03*
D1224*
X656586Y1219200D03*
D79*
X103717Y1220047D03*
D49*
X171865Y1220047D03*
X587587Y1220047D03*
D79*
X655735Y1220047D03*
D49*
X104987Y1220893D03*
D53*
X170607Y1220893D03*
D66*
X588857Y1220893D03*
D49*
X654465Y1220893D03*
D46*
X106676Y1221740D03*
D60*
X168918Y1221740D03*
X590558Y1221740D03*
D46*
X652776Y1221740D03*
D55*
X108365Y1222587D03*
D78*
X166366Y1222587D03*
D55*
X592667Y1222587D03*
D78*
X650667Y1222587D03*
D301*
X137156Y1223433D03*
X622296Y1223433D03*
D1038*
X136737Y1224280D03*
D304*
X622727Y1224280D03*
D486*
X136305Y1225127D03*
X623147Y1225127D03*
D488*
X136317Y1225973D03*
D862*
X623147Y1225973D03*
D1225*
X135898Y1226820D03*
X623578Y1226820D03*
D1046*
X135467Y1227667D03*
D863*
X623997Y1227667D03*
D491*
X135047Y1228513D03*
D864*
X624417Y1228513D03*
D805*
X134628Y1229360D03*
X624848Y1229360D03*
D494*
X134616Y1230207D03*
X624836Y1230207D03*
D495*
X134197Y1231053D03*
X625255Y1231053D03*
D1226*
X133777Y1231900D03*
D870*
X625687Y1231900D03*
D871*
X133346Y1232747D03*
X626106Y1232747D03*
D309*
X132927Y1233593D03*
D500*
X626106Y1233593D03*
D501*
X132927Y1234440D03*
D337*
X626537Y1234440D03*
D504*
X132495Y1235287D03*
X626957Y1235287D03*
D506*
X132076Y1236133D03*
X627376Y1236133D03*
D508*
X131657Y1236980D03*
D414*
X627388Y1236980D03*
D410*
X131657Y1237827D03*
D511*
X627807Y1237827D03*
D308*
X131237Y1238673D03*
D880*
X628227Y1238673D03*
D311*
X130818Y1239520D03*
X628658Y1239520D03*
D888*
X130806Y1240367D03*
X628646Y1240367D03*
D516*
X130387Y1241213D03*
X629065Y1241213D03*
D1227*
X129967Y1242060D03*
D399*
X629497Y1242060D03*
D332*
X129955Y1242907D03*
X629497Y1242907D03*
D893*
X129536Y1243753D03*
X629916Y1243753D03*
D329*
X129548Y1244600D03*
X629928Y1244600D03*
D390*
X129117Y1245447D03*
D313*
X630347Y1245447D03*
D389*
X129117Y1246293D03*
X630335Y1246293D03*
D995*
X128697Y1247140D03*
D904*
X630767Y1247140D03*
D328*
X128685Y1247987D03*
X630767Y1247987D03*
D1221*
X128266Y1248833D03*
D324*
X630767Y1248833D03*
D544*
X128278Y1249680D03*
X631198Y1249680D03*
D549*
X128266Y1250527D03*
X631186Y1250527D03*
D1222*
X128266Y1251373D03*
X631186Y1251373D03*
D1228*
X127847Y1252220D03*
D1229*
X631617Y1252220D03*
D319*
X127847Y1253067D03*
D716*
X631617Y1253067D03*
D317*
X127847Y1253913D03*
X631605Y1253913D03*
D1230*
X127847Y1254760D03*
D122*
X631617Y1254760D03*
D117*
X127847Y1255607D03*
D115*
X631617Y1255607D03*
D113*
X127427Y1256453D03*
D104*
X631605Y1256453D03*
D98*
X127415Y1257300D03*
X632037Y1257300D03*
D93*
X127427Y1258147D03*
D118*
X632037Y1258147D03*
D111*
X127427Y1258993D03*
D92*
X632037Y1258993D03*
D97*
X127847Y1259840D03*
D110*
X631617Y1259840D03*
D74*
X127427Y1260687D03*
D56*
X632037Y1260687D03*
D64*
X127415Y1261533D03*
D58*
X631617Y1261533D03*
D305*
X127427Y1262380D03*
D68*
X632037Y1262380D03*
D774*
X127847Y1263227D03*
D57*
X631617Y1263227D03*
D1004*
X127847Y1264073D03*
D65*
X631617Y1264073D03*
D840*
X127427Y1264920D03*
D801*
X631605Y1264920D03*
D634*
X127847Y1265767D03*
X631605Y1265767D03*
D1010*
X127847Y1266613D03*
X631605Y1266613D03*
D658*
X127847Y1267460D03*
D1231*
X631617Y1267460D03*
D1232*
X127736Y976400D02*
X127738Y976484D01*
X127744Y976568D01*
X127754Y976652D01*
X127767Y976735D01*
X127785Y976817D01*
X127807Y976899D01*
X127832Y976979D01*
X127861Y977058D01*
X127894Y977136D01*
X127930Y977212D01*
X127970Y977286D01*
X128013Y977358D01*
X128059Y977428D01*
X128109Y977496D01*
X128162Y977562D01*
X128218Y977625D01*
X128277Y977685D01*
X128339Y977742D01*
X128403Y977797D01*
X128470Y977848D01*
X128539Y977896D01*
X128610Y977941D01*
X128683Y977983D01*
X128758Y978021D01*
X128835Y978055D01*
X128913Y978086D01*
X128993Y978113D01*
X129074Y978137D01*
X129156Y978156D01*
X129239Y978172D01*
X129322Y978184D01*
X129406Y978192D01*
X129490Y978196D01*
X129574Y978196D01*
X129658Y978192D01*
X129742Y978184D01*
X129825Y978172D01*
X129908Y978156D01*
X129990Y978137D01*
X130071Y978113D01*
X130151Y978086D01*
X130229Y978055D01*
X130306Y978021D01*
X130381Y977983D01*
X130454Y977941D01*
X130525Y977896D01*
X130594Y977848D01*
X130661Y977797D01*
X130725Y977742D01*
X130787Y977685D01*
X130846Y977625D01*
X130902Y977562D01*
X130955Y977496D01*
X131005Y977428D01*
X131051Y977358D01*
X131094Y977286D01*
X131134Y977212D01*
X131170Y977136D01*
X131203Y977058D01*
X131232Y976979D01*
X131257Y976899D01*
X131279Y976817D01*
X131297Y976735D01*
X131310Y976652D01*
X131320Y976568D01*
X131326Y976484D01*
X131328Y976400D01*
X131326Y976316D01*
X131320Y976232D01*
X131310Y976148D01*
X131297Y976065D01*
X131279Y975983D01*
X131257Y975901D01*
X131232Y975821D01*
X131203Y975742D01*
X131170Y975664D01*
X131134Y975588D01*
X131094Y975514D01*
X131051Y975442D01*
X131005Y975372D01*
X130955Y975304D01*
X130902Y975238D01*
X130846Y975175D01*
X130787Y975115D01*
X130725Y975058D01*
X130661Y975003D01*
X130594Y974952D01*
X130525Y974904D01*
X130454Y974859D01*
X130381Y974817D01*
X130306Y974779D01*
X130229Y974745D01*
X130151Y974714D01*
X130071Y974687D01*
X129990Y974663D01*
X129908Y974644D01*
X129825Y974628D01*
X129742Y974616D01*
X129658Y974608D01*
X129574Y974604D01*
X129490Y974604D01*
X129406Y974608D01*
X129322Y974616D01*
X129239Y974628D01*
X129156Y974644D01*
X129074Y974663D01*
X128993Y974687D01*
X128913Y974714D01*
X128835Y974745D01*
X128758Y974779D01*
X128683Y974817D01*
X128610Y974859D01*
X128539Y974904D01*
X128470Y974952D01*
X128403Y975003D01*
X128339Y975058D01*
X128277Y975115D01*
X128218Y975175D01*
X128162Y975238D01*
X128109Y975304D01*
X128059Y975372D01*
X128013Y975442D01*
X127970Y975514D01*
X127930Y975588D01*
X127894Y975664D01*
X127861Y975742D01*
X127832Y975821D01*
X127807Y975901D01*
X127785Y975983D01*
X127767Y976065D01*
X127754Y976148D01*
X127744Y976232D01*
X127738Y976316D01*
X127736Y976400D01*
X93032Y1014800D02*
X93032Y734800D01*
X293032Y734800D01*
X293032Y1014800D01*
X93032Y1014800D01*
X153032Y974800D02*
X143032Y874800D01*
X236032Y872800D02*
X246032Y972800D01*
X142032Y865800D02*
X132032Y765800D01*
X226032Y765800D02*
X236032Y865800D01*
X181032Y879800D02*
X159032Y966800D01*
X194032Y965800D02*
X189032Y880800D01*
X198032Y880800D02*
X235032Y965800D01*
X197032Y861800D02*
X219032Y774800D01*
X184032Y775800D02*
X189032Y860800D01*
X180032Y860800D02*
X143032Y775800D01*
X238222Y771800D02*
X238224Y771992D01*
X238231Y772183D01*
X238243Y772375D01*
X238260Y772566D01*
X238281Y772756D01*
X238307Y772946D01*
X238337Y773135D01*
X238372Y773324D01*
X238412Y773511D01*
X238456Y773698D01*
X238505Y773883D01*
X238558Y774067D01*
X238616Y774250D01*
X238679Y774431D01*
X238745Y774611D01*
X238817Y774789D01*
X238892Y774965D01*
X238972Y775139D01*
X239056Y775311D01*
X239144Y775482D01*
X239237Y775650D01*
X239333Y775815D01*
X239434Y775978D01*
X239538Y776139D01*
X239647Y776297D01*
X239759Y776452D01*
X239875Y776605D01*
X239995Y776755D01*
X240118Y776901D01*
X240245Y777045D01*
X240376Y777185D01*
X240509Y777323D01*
X240647Y777456D01*
X240787Y777587D01*
X240931Y777714D01*
X241077Y777837D01*
X241227Y777957D01*
X241380Y778073D01*
X241535Y778185D01*
X241693Y778294D01*
X241854Y778398D01*
X242017Y778499D01*
X242182Y778595D01*
X242350Y778688D01*
X242521Y778776D01*
X242693Y778860D01*
X242867Y778940D01*
X243043Y779015D01*
X243221Y779087D01*
X243401Y779153D01*
X243582Y779216D01*
X243765Y779274D01*
X243949Y779327D01*
X244134Y779376D01*
X244321Y779420D01*
X244508Y779460D01*
X244697Y779495D01*
X244886Y779525D01*
X245076Y779551D01*
X245266Y779572D01*
X245457Y779589D01*
X245649Y779601D01*
X245840Y779608D01*
X246032Y779610D01*
X246224Y779608D01*
X246415Y779601D01*
X246607Y779589D01*
X246798Y779572D01*
X246988Y779551D01*
X247178Y779525D01*
X247367Y779495D01*
X247556Y779460D01*
X247743Y779420D01*
X247930Y779376D01*
X248115Y779327D01*
X248299Y779274D01*
X248482Y779216D01*
X248663Y779153D01*
X248843Y779087D01*
X249021Y779015D01*
X249197Y778940D01*
X249371Y778860D01*
X249543Y778776D01*
X249714Y778688D01*
X249882Y778595D01*
X250047Y778499D01*
X250210Y778398D01*
X250371Y778294D01*
X250529Y778185D01*
X250684Y778073D01*
X250837Y777957D01*
X250987Y777837D01*
X251133Y777714D01*
X251277Y777587D01*
X251417Y777456D01*
X251555Y777323D01*
X251688Y777185D01*
X251819Y777045D01*
X251946Y776901D01*
X252069Y776755D01*
X252189Y776605D01*
X252305Y776452D01*
X252417Y776297D01*
X252526Y776139D01*
X252630Y775978D01*
X252731Y775815D01*
X252827Y775650D01*
X252920Y775482D01*
X253008Y775311D01*
X253092Y775139D01*
X253172Y774965D01*
X253247Y774789D01*
X253319Y774611D01*
X253385Y774431D01*
X253448Y774250D01*
X253506Y774067D01*
X253559Y773883D01*
X253608Y773698D01*
X253652Y773511D01*
X253692Y773324D01*
X253727Y773135D01*
X253757Y772946D01*
X253783Y772756D01*
X253804Y772566D01*
X253821Y772375D01*
X253833Y772183D01*
X253840Y771992D01*
X253842Y771800D01*
X253840Y771608D01*
X253833Y771417D01*
X253821Y771225D01*
X253804Y771034D01*
X253783Y770844D01*
X253757Y770654D01*
X253727Y770465D01*
X253692Y770276D01*
X253652Y770089D01*
X253608Y769902D01*
X253559Y769717D01*
X253506Y769533D01*
X253448Y769350D01*
X253385Y769169D01*
X253319Y768989D01*
X253247Y768811D01*
X253172Y768635D01*
X253092Y768461D01*
X253008Y768289D01*
X252920Y768118D01*
X252827Y767950D01*
X252731Y767785D01*
X252630Y767622D01*
X252526Y767461D01*
X252417Y767303D01*
X252305Y767148D01*
X252189Y766995D01*
X252069Y766845D01*
X251946Y766699D01*
X251819Y766555D01*
X251688Y766415D01*
X251555Y766277D01*
X251417Y766144D01*
X251277Y766013D01*
X251133Y765886D01*
X250987Y765763D01*
X250837Y765643D01*
X250684Y765527D01*
X250529Y765415D01*
X250371Y765306D01*
X250210Y765202D01*
X250047Y765101D01*
X249882Y765005D01*
X249714Y764912D01*
X249543Y764824D01*
X249371Y764740D01*
X249197Y764660D01*
X249021Y764585D01*
X248843Y764513D01*
X248663Y764447D01*
X248482Y764384D01*
X248299Y764326D01*
X248115Y764273D01*
X247930Y764224D01*
X247743Y764180D01*
X247556Y764140D01*
X247367Y764105D01*
X247178Y764075D01*
X246988Y764049D01*
X246798Y764028D01*
X246607Y764011D01*
X246415Y763999D01*
X246224Y763992D01*
X246032Y763990D01*
X245840Y763992D01*
X245649Y763999D01*
X245457Y764011D01*
X245266Y764028D01*
X245076Y764049D01*
X244886Y764075D01*
X244697Y764105D01*
X244508Y764140D01*
X244321Y764180D01*
X244134Y764224D01*
X243949Y764273D01*
X243765Y764326D01*
X243582Y764384D01*
X243401Y764447D01*
X243221Y764513D01*
X243043Y764585D01*
X242867Y764660D01*
X242693Y764740D01*
X242521Y764824D01*
X242350Y764912D01*
X242182Y765005D01*
X242017Y765101D01*
X241854Y765202D01*
X241693Y765306D01*
X241535Y765415D01*
X241380Y765527D01*
X241227Y765643D01*
X241077Y765763D01*
X240931Y765886D01*
X240787Y766013D01*
X240647Y766144D01*
X240509Y766277D01*
X240376Y766415D01*
X240245Y766555D01*
X240118Y766699D01*
X239995Y766845D01*
X239875Y766995D01*
X239759Y767148D01*
X239647Y767303D01*
X239538Y767461D01*
X239434Y767622D01*
X239333Y767785D01*
X239237Y767950D01*
X239144Y768118D01*
X239056Y768289D01*
X238972Y768461D01*
X238892Y768635D01*
X238817Y768811D01*
X238745Y768989D01*
X238679Y769169D01*
X238616Y769350D01*
X238558Y769533D01*
X238505Y769717D01*
X238456Y769902D01*
X238412Y770089D01*
X238372Y770276D01*
X238337Y770465D01*
X238307Y770654D01*
X238281Y770844D01*
X238260Y771034D01*
X238243Y771225D01*
X238231Y771417D01*
X238224Y771608D01*
X238222Y771800D01*
X190492Y976400D02*
X160012Y976400D01*
X200652Y976400D02*
X238752Y976400D01*
X231132Y869720D02*
X193032Y869720D01*
X185412Y869720D02*
X147312Y869720D01*
X142232Y768120D02*
X172712Y768120D01*
X182872Y768120D02*
X220972Y768120D01*
X499252Y975990D02*
X499254Y976074D01*
X499260Y976158D01*
X499270Y976242D01*
X499283Y976325D01*
X499301Y976407D01*
X499323Y976489D01*
X499348Y976569D01*
X499377Y976648D01*
X499410Y976726D01*
X499446Y976802D01*
X499486Y976876D01*
X499529Y976948D01*
X499575Y977018D01*
X499625Y977086D01*
X499678Y977152D01*
X499734Y977215D01*
X499793Y977275D01*
X499855Y977332D01*
X499919Y977387D01*
X499986Y977438D01*
X500055Y977486D01*
X500126Y977531D01*
X500199Y977573D01*
X500274Y977611D01*
X500351Y977645D01*
X500429Y977676D01*
X500509Y977703D01*
X500590Y977727D01*
X500672Y977746D01*
X500755Y977762D01*
X500838Y977774D01*
X500922Y977782D01*
X501006Y977786D01*
X501090Y977786D01*
X501174Y977782D01*
X501258Y977774D01*
X501341Y977762D01*
X501424Y977746D01*
X501506Y977727D01*
X501587Y977703D01*
X501667Y977676D01*
X501745Y977645D01*
X501822Y977611D01*
X501897Y977573D01*
X501970Y977531D01*
X502041Y977486D01*
X502110Y977438D01*
X502177Y977387D01*
X502241Y977332D01*
X502303Y977275D01*
X502362Y977215D01*
X502418Y977152D01*
X502471Y977086D01*
X502521Y977018D01*
X502567Y976948D01*
X502610Y976876D01*
X502650Y976802D01*
X502686Y976726D01*
X502719Y976648D01*
X502748Y976569D01*
X502773Y976489D01*
X502795Y976407D01*
X502813Y976325D01*
X502826Y976242D01*
X502836Y976158D01*
X502842Y976074D01*
X502844Y975990D01*
X502842Y975906D01*
X502836Y975822D01*
X502826Y975738D01*
X502813Y975655D01*
X502795Y975573D01*
X502773Y975491D01*
X502748Y975411D01*
X502719Y975332D01*
X502686Y975254D01*
X502650Y975178D01*
X502610Y975104D01*
X502567Y975032D01*
X502521Y974962D01*
X502471Y974894D01*
X502418Y974828D01*
X502362Y974765D01*
X502303Y974705D01*
X502241Y974648D01*
X502177Y974593D01*
X502110Y974542D01*
X502041Y974494D01*
X501970Y974449D01*
X501897Y974407D01*
X501822Y974369D01*
X501745Y974335D01*
X501667Y974304D01*
X501587Y974277D01*
X501506Y974253D01*
X501424Y974234D01*
X501341Y974218D01*
X501258Y974206D01*
X501174Y974198D01*
X501090Y974194D01*
X501006Y974194D01*
X500922Y974198D01*
X500838Y974206D01*
X500755Y974218D01*
X500672Y974234D01*
X500590Y974253D01*
X500509Y974277D01*
X500429Y974304D01*
X500351Y974335D01*
X500274Y974369D01*
X500199Y974407D01*
X500126Y974449D01*
X500055Y974494D01*
X499986Y974542D01*
X499919Y974593D01*
X499855Y974648D01*
X499793Y974705D01*
X499734Y974765D01*
X499678Y974828D01*
X499625Y974894D01*
X499575Y974962D01*
X499529Y975032D01*
X499486Y975104D01*
X499446Y975178D01*
X499410Y975254D01*
X499377Y975332D01*
X499348Y975411D01*
X499323Y975491D01*
X499301Y975573D01*
X499283Y975655D01*
X499270Y975738D01*
X499260Y975822D01*
X499254Y975906D01*
X499252Y975990D01*
X464548Y1014390D02*
X464548Y734390D01*
X664548Y734390D01*
X664548Y1014390D01*
X464548Y1014390D01*
X524548Y974390D02*
X514548Y874390D01*
X607548Y872390D02*
X617548Y972390D01*
X513548Y865390D02*
X503548Y765390D01*
X597548Y765390D02*
X607548Y865390D01*
X552548Y879390D02*
X530548Y966390D01*
X565548Y965390D02*
X560548Y880390D01*
X569548Y880390D02*
X606548Y965390D01*
X568548Y861390D02*
X590548Y774390D01*
X555548Y775390D02*
X560548Y860390D01*
X551548Y860390D02*
X514548Y775390D01*
X609738Y771390D02*
X609740Y771582D01*
X609747Y771773D01*
X609759Y771965D01*
X609776Y772156D01*
X609797Y772346D01*
X609823Y772536D01*
X609853Y772725D01*
X609888Y772914D01*
X609928Y773101D01*
X609972Y773288D01*
X610021Y773473D01*
X610074Y773657D01*
X610132Y773840D01*
X610195Y774021D01*
X610261Y774201D01*
X610333Y774379D01*
X610408Y774555D01*
X610488Y774729D01*
X610572Y774901D01*
X610660Y775072D01*
X610753Y775240D01*
X610849Y775405D01*
X610950Y775568D01*
X611054Y775729D01*
X611163Y775887D01*
X611275Y776042D01*
X611391Y776195D01*
X611511Y776345D01*
X611634Y776491D01*
X611761Y776635D01*
X611892Y776775D01*
X612025Y776913D01*
X612163Y777046D01*
X612303Y777177D01*
X612447Y777304D01*
X612593Y777427D01*
X612743Y777547D01*
X612896Y777663D01*
X613051Y777775D01*
X613209Y777884D01*
X613370Y777988D01*
X613533Y778089D01*
X613698Y778185D01*
X613866Y778278D01*
X614037Y778366D01*
X614209Y778450D01*
X614383Y778530D01*
X614559Y778605D01*
X614737Y778677D01*
X614917Y778743D01*
X615098Y778806D01*
X615281Y778864D01*
X615465Y778917D01*
X615650Y778966D01*
X615837Y779010D01*
X616024Y779050D01*
X616213Y779085D01*
X616402Y779115D01*
X616592Y779141D01*
X616782Y779162D01*
X616973Y779179D01*
X617165Y779191D01*
X617356Y779198D01*
X617548Y779200D01*
X617740Y779198D01*
X617931Y779191D01*
X618123Y779179D01*
X618314Y779162D01*
X618504Y779141D01*
X618694Y779115D01*
X618883Y779085D01*
X619072Y779050D01*
X619259Y779010D01*
X619446Y778966D01*
X619631Y778917D01*
X619815Y778864D01*
X619998Y778806D01*
X620179Y778743D01*
X620359Y778677D01*
X620537Y778605D01*
X620713Y778530D01*
X620887Y778450D01*
X621059Y778366D01*
X621230Y778278D01*
X621398Y778185D01*
X621563Y778089D01*
X621726Y777988D01*
X621887Y777884D01*
X622045Y777775D01*
X622200Y777663D01*
X622353Y777547D01*
X622503Y777427D01*
X622649Y777304D01*
X622793Y777177D01*
X622933Y777046D01*
X623071Y776913D01*
X623204Y776775D01*
X623335Y776635D01*
X623462Y776491D01*
X623585Y776345D01*
X623705Y776195D01*
X623821Y776042D01*
X623933Y775887D01*
X624042Y775729D01*
X624146Y775568D01*
X624247Y775405D01*
X624343Y775240D01*
X624436Y775072D01*
X624524Y774901D01*
X624608Y774729D01*
X624688Y774555D01*
X624763Y774379D01*
X624835Y774201D01*
X624901Y774021D01*
X624964Y773840D01*
X625022Y773657D01*
X625075Y773473D01*
X625124Y773288D01*
X625168Y773101D01*
X625208Y772914D01*
X625243Y772725D01*
X625273Y772536D01*
X625299Y772346D01*
X625320Y772156D01*
X625337Y771965D01*
X625349Y771773D01*
X625356Y771582D01*
X625358Y771390D01*
X625356Y771198D01*
X625349Y771007D01*
X625337Y770815D01*
X625320Y770624D01*
X625299Y770434D01*
X625273Y770244D01*
X625243Y770055D01*
X625208Y769866D01*
X625168Y769679D01*
X625124Y769492D01*
X625075Y769307D01*
X625022Y769123D01*
X624964Y768940D01*
X624901Y768759D01*
X624835Y768579D01*
X624763Y768401D01*
X624688Y768225D01*
X624608Y768051D01*
X624524Y767879D01*
X624436Y767708D01*
X624343Y767540D01*
X624247Y767375D01*
X624146Y767212D01*
X624042Y767051D01*
X623933Y766893D01*
X623821Y766738D01*
X623705Y766585D01*
X623585Y766435D01*
X623462Y766289D01*
X623335Y766145D01*
X623204Y766005D01*
X623071Y765867D01*
X622933Y765734D01*
X622793Y765603D01*
X622649Y765476D01*
X622503Y765353D01*
X622353Y765233D01*
X622200Y765117D01*
X622045Y765005D01*
X621887Y764896D01*
X621726Y764792D01*
X621563Y764691D01*
X621398Y764595D01*
X621230Y764502D01*
X621059Y764414D01*
X620887Y764330D01*
X620713Y764250D01*
X620537Y764175D01*
X620359Y764103D01*
X620179Y764037D01*
X619998Y763974D01*
X619815Y763916D01*
X619631Y763863D01*
X619446Y763814D01*
X619259Y763770D01*
X619072Y763730D01*
X618883Y763695D01*
X618694Y763665D01*
X618504Y763639D01*
X618314Y763618D01*
X618123Y763601D01*
X617931Y763589D01*
X617740Y763582D01*
X617548Y763580D01*
X617356Y763582D01*
X617165Y763589D01*
X616973Y763601D01*
X616782Y763618D01*
X616592Y763639D01*
X616402Y763665D01*
X616213Y763695D01*
X616024Y763730D01*
X615837Y763770D01*
X615650Y763814D01*
X615465Y763863D01*
X615281Y763916D01*
X615098Y763974D01*
X614917Y764037D01*
X614737Y764103D01*
X614559Y764175D01*
X614383Y764250D01*
X614209Y764330D01*
X614037Y764414D01*
X613866Y764502D01*
X613698Y764595D01*
X613533Y764691D01*
X613370Y764792D01*
X613209Y764896D01*
X613051Y765005D01*
X612896Y765117D01*
X612743Y765233D01*
X612593Y765353D01*
X612447Y765476D01*
X612303Y765603D01*
X612163Y765734D01*
X612025Y765867D01*
X611892Y766005D01*
X611761Y766145D01*
X611634Y766289D01*
X611511Y766435D01*
X611391Y766585D01*
X611275Y766738D01*
X611163Y766893D01*
X611054Y767051D01*
X610950Y767212D01*
X610849Y767375D01*
X610753Y767540D01*
X610660Y767708D01*
X610572Y767879D01*
X610488Y768051D01*
X610408Y768225D01*
X610333Y768401D01*
X610261Y768579D01*
X610195Y768759D01*
X610132Y768940D01*
X610074Y769123D01*
X610021Y769307D01*
X609972Y769492D01*
X609928Y769679D01*
X609888Y769866D01*
X609853Y770055D01*
X609823Y770244D01*
X609797Y770434D01*
X609776Y770624D01*
X609759Y770815D01*
X609747Y771007D01*
X609740Y771198D01*
X609738Y771390D01*
X562008Y975990D02*
X531528Y975990D01*
X572168Y975990D02*
X610268Y975990D01*
X602648Y869310D02*
X564548Y869310D01*
X556928Y869310D02*
X518828Y869310D01*
X513748Y767710D02*
X544228Y767710D01*
X554388Y767710D02*
X592488Y767710D01*
M02*
