G04 EAGLE Gerber X2 export*
%TF.Part,Single*%
%TF.FileFunction,Paste,Bot*%
%TF.FilePolarity,Positive*%
%TF.GenerationSoftware,Autodesk,EAGLE,9.0.1*%
%TF.CreationDate,2018-06-27T06:52:03Z*%
G75*
%MOMM*%
%FSLAX34Y34*%
%LPD*%
%AMOC8*
5,1,8,0,0,1.08239X$1,22.5*%
G01*
%ADD10R,0.300000X1.200000*%
%ADD11R,1.200000X0.300000*%
%ADD12R,0.850000X2.500000*%
%ADD13R,1.300000X1.500000*%
%ADD14R,1.500000X1.300000*%
%ADD15R,0.558800X1.320800*%
%ADD16R,1.320800X0.558800*%
%ADD17R,2.500000X0.650000*%
%ADD18C,0.077000*%
%ADD19R,0.787400X0.889000*%
%ADD20R,0.990600X1.549400*%
%ADD21R,5.080000X2.540000*%
%ADD22R,1.020000X3.170000*%


D10*
X209010Y1043840D03*
X204010Y1043840D03*
X199010Y1043840D03*
X194010Y1043840D03*
X189010Y1043840D03*
X184010Y1043840D03*
X179010Y1043840D03*
X174010Y1043840D03*
X169010Y1043840D03*
X164010Y1043840D03*
X159010Y1043840D03*
X154010Y1043840D03*
D11*
X139010Y1058840D03*
X139010Y1063840D03*
X139010Y1068840D03*
X139010Y1073840D03*
X139010Y1078840D03*
X139010Y1083840D03*
X139010Y1088840D03*
X139010Y1093840D03*
X139010Y1098840D03*
X139010Y1103840D03*
X139010Y1108840D03*
X139010Y1113840D03*
D10*
X154010Y1128840D03*
X159010Y1128840D03*
X164010Y1128840D03*
X169010Y1128840D03*
X174010Y1128840D03*
X179010Y1128840D03*
X184010Y1128840D03*
X189010Y1128840D03*
X194010Y1128840D03*
X199010Y1128840D03*
X204010Y1128840D03*
X209010Y1128840D03*
D11*
X224010Y1113840D03*
X224010Y1108840D03*
X224010Y1103840D03*
X224010Y1098840D03*
X224010Y1093840D03*
X224010Y1088840D03*
X224010Y1083840D03*
X224010Y1078840D03*
X224010Y1073840D03*
X224010Y1068840D03*
X224010Y1063840D03*
X224010Y1058840D03*
D12*
X166620Y575712D03*
X142120Y575712D03*
D13*
X204822Y585364D03*
X185822Y585364D03*
X246900Y585690D03*
X227900Y585690D03*
X228494Y561488D03*
X247494Y561488D03*
X143150Y549804D03*
X162150Y549804D03*
X186076Y606700D03*
X205076Y606700D03*
X204314Y524912D03*
X185314Y524912D03*
D14*
X142870Y883910D03*
X142870Y864910D03*
X75650Y844540D03*
X75650Y825540D03*
X96814Y868162D03*
X96814Y849162D03*
X603650Y881370D03*
X603650Y862370D03*
X581380Y906770D03*
X581380Y887770D03*
X536840Y957570D03*
X536840Y938570D03*
X205600Y960110D03*
X205600Y941110D03*
X184690Y935980D03*
X184690Y916980D03*
X163780Y909310D03*
X163780Y890310D03*
X54486Y817870D03*
X54486Y798870D03*
X33322Y791962D03*
X33322Y772962D03*
X707290Y791200D03*
X707290Y772200D03*
X664020Y868670D03*
X664020Y849670D03*
X559110Y932170D03*
X559110Y913170D03*
X514570Y981700D03*
X514570Y962700D03*
X226510Y985510D03*
X226510Y966510D03*
D15*
X209588Y759284D03*
X200190Y759284D03*
X190792Y759284D03*
X190792Y786716D03*
X209588Y786716D03*
D16*
X567084Y770362D03*
X567084Y779760D03*
X567084Y789158D03*
X594516Y789158D03*
X594516Y770362D03*
D17*
X633546Y1186726D03*
X593546Y1186726D03*
X633546Y1174026D03*
X593546Y1174026D03*
X633546Y1161326D03*
X593546Y1161326D03*
X633546Y1148626D03*
X593546Y1148626D03*
X633546Y1135926D03*
X593546Y1135926D03*
D14*
X685020Y843270D03*
X685020Y824270D03*
D13*
X224130Y737870D03*
X205130Y737870D03*
D14*
X546100Y769010D03*
X546100Y788010D03*
D13*
X623164Y1212342D03*
X604164Y1212342D03*
D18*
X188779Y544543D02*
X177149Y544543D01*
X177149Y549273D01*
X188779Y549273D01*
X188779Y544543D01*
X188779Y545312D02*
X177149Y545312D01*
X177149Y546081D02*
X188779Y546081D01*
X188779Y546850D02*
X177149Y546850D01*
X177149Y547619D02*
X188779Y547619D01*
X188779Y548388D02*
X177149Y548388D01*
X177149Y549157D02*
X188779Y549157D01*
X188779Y554043D02*
X177149Y554043D01*
X177149Y558773D01*
X188779Y558773D01*
X188779Y554043D01*
X188779Y554812D02*
X177149Y554812D01*
X177149Y555581D02*
X188779Y555581D01*
X188779Y556350D02*
X177149Y556350D01*
X177149Y557119D02*
X188779Y557119D01*
X188779Y557888D02*
X177149Y557888D01*
X177149Y558657D02*
X188779Y558657D01*
X188779Y563543D02*
X177149Y563543D01*
X177149Y568273D01*
X188779Y568273D01*
X188779Y563543D01*
X188779Y564312D02*
X177149Y564312D01*
X177149Y565081D02*
X188779Y565081D01*
X188779Y565850D02*
X177149Y565850D01*
X177149Y566619D02*
X188779Y566619D01*
X188779Y567388D02*
X177149Y567388D01*
X177149Y568157D02*
X188779Y568157D01*
X200849Y563543D02*
X212479Y563543D01*
X200849Y563543D02*
X200849Y568273D01*
X212479Y568273D01*
X212479Y563543D01*
X212479Y564312D02*
X200849Y564312D01*
X200849Y565081D02*
X212479Y565081D01*
X212479Y565850D02*
X200849Y565850D01*
X200849Y566619D02*
X212479Y566619D01*
X212479Y567388D02*
X200849Y567388D01*
X200849Y568157D02*
X212479Y568157D01*
X212479Y544543D02*
X200849Y544543D01*
X200849Y549273D01*
X212479Y549273D01*
X212479Y544543D01*
X212479Y545312D02*
X200849Y545312D01*
X200849Y546081D02*
X212479Y546081D01*
X212479Y546850D02*
X200849Y546850D01*
X200849Y547619D02*
X212479Y547619D01*
X212479Y548388D02*
X200849Y548388D01*
X200849Y549157D02*
X212479Y549157D01*
D14*
X288240Y665530D03*
X288240Y684530D03*
D16*
X239462Y666372D03*
X239462Y675770D03*
X239462Y685168D03*
X266894Y685168D03*
X266894Y666372D03*
D13*
X217054Y667286D03*
X198054Y667286D03*
D14*
X341570Y629400D03*
X341570Y610400D03*
X299480Y629400D03*
X299480Y610400D03*
X320570Y610400D03*
X320570Y629400D03*
X277584Y610284D03*
X277584Y629284D03*
D19*
X42722Y737368D03*
X62026Y737368D03*
X52374Y717048D03*
D14*
X63500Y697840D03*
X63500Y678840D03*
D13*
X117200Y629870D03*
X98200Y629870D03*
X234290Y1134358D03*
X253290Y1134358D03*
D14*
X172218Y1177646D03*
X172218Y1196646D03*
D13*
X161950Y1019048D03*
X180950Y1019048D03*
D14*
X310890Y1029106D03*
X310890Y1010106D03*
X289312Y1010514D03*
X289312Y1029514D03*
D20*
X398580Y665300D03*
X398580Y723466D03*
X373180Y665300D03*
X373180Y723466D03*
X347780Y665300D03*
X347780Y723466D03*
X322380Y665300D03*
X322380Y723466D03*
D13*
X229260Y1038860D03*
X248260Y1038860D03*
X133198Y1127506D03*
X114198Y1127506D03*
D21*
X368808Y526034D03*
X368808Y576834D03*
D22*
G36*
X111666Y680887D02*
X105816Y672532D01*
X79850Y690713D01*
X85700Y699068D01*
X111666Y680887D01*
G37*
G36*
X126235Y701693D02*
X120385Y693338D01*
X94419Y711519D01*
X100269Y719874D01*
X126235Y701693D01*
G37*
G36*
X140804Y722500D02*
X134954Y714145D01*
X108988Y732326D01*
X114838Y740681D01*
X140804Y722500D01*
G37*
M02*
