G04 EAGLE Gerber X2 export*
%TF.Part,Single*%
%TF.FileFunction,Copper,L2,Inr,Mixed*%
%TF.FilePolarity,Positive*%
%TF.GenerationSoftware,Autodesk,EAGLE,9.0.1*%
%TF.CreationDate,2018-06-26T08:14:36Z*%
G75*
%MOIN*%
%FSLAX34Y34*%
%LPD*%
%AMOC8*
5,1,8,0,0,1.08239X$1,22.5*%
G01*
%ADD10C,0.059370*%
%ADD11C,0.029780*%
%ADD12C,0.020000*%
%ADD13C,0.010000*%

G36*
X15484Y19891D02*
X15484Y19891D01*
X15489Y19891D01*
X15490Y19892D01*
X15492Y19892D01*
X15496Y19894D01*
X15500Y19895D01*
X15502Y19896D01*
X15504Y19897D01*
X15514Y19904D01*
X15514Y19905D01*
X15515Y19905D01*
X15935Y20325D01*
X15937Y20329D01*
X15940Y20332D01*
X15941Y20333D01*
X15942Y20335D01*
X15944Y20339D01*
X15946Y20343D01*
X15946Y20344D01*
X15947Y20346D01*
X15949Y20359D01*
X15949Y20360D01*
X15949Y22230D01*
X15992Y25409D01*
X15992Y25415D01*
X15991Y25420D01*
X15991Y25421D01*
X15991Y25422D01*
X15989Y25427D01*
X15987Y25432D01*
X15986Y25433D01*
X15983Y25438D01*
X15980Y25442D01*
X15980Y25443D01*
X15979Y25443D01*
X15975Y25447D01*
X15971Y25450D01*
X15970Y25451D01*
X15965Y25454D01*
X15960Y25456D01*
X15959Y25456D01*
X15958Y25457D01*
X15946Y25459D01*
X15944Y25459D01*
X15943Y25459D01*
X12250Y25459D01*
X11999Y25710D01*
X11999Y27420D01*
X11999Y27424D01*
X11999Y27429D01*
X11998Y27430D01*
X11998Y27432D01*
X11996Y27436D01*
X11995Y27440D01*
X11994Y27442D01*
X11993Y27444D01*
X11986Y27454D01*
X11985Y27454D01*
X11985Y27455D01*
X11635Y27805D01*
X11631Y27807D01*
X11628Y27810D01*
X11627Y27811D01*
X11625Y27812D01*
X11621Y27814D01*
X11617Y27816D01*
X11616Y27816D01*
X11614Y27817D01*
X11601Y27819D01*
X11600Y27819D01*
X10680Y27819D01*
X10255Y28245D01*
X10251Y28247D01*
X10248Y28250D01*
X10247Y28251D01*
X10245Y28252D01*
X10241Y28254D01*
X10237Y28256D01*
X10236Y28256D01*
X10234Y28257D01*
X10221Y28259D01*
X10220Y28259D01*
X7930Y28259D01*
X6794Y29395D01*
X6791Y29397D01*
X6787Y29400D01*
X6786Y29401D01*
X6784Y29402D01*
X6780Y29404D01*
X6776Y29406D01*
X6775Y29406D01*
X6773Y29407D01*
X6760Y29409D01*
X6759Y29409D01*
X6241Y29409D01*
X6237Y29409D01*
X6232Y29409D01*
X6230Y29408D01*
X6229Y29408D01*
X6225Y29406D01*
X6220Y29405D01*
X6219Y29404D01*
X6217Y29403D01*
X6207Y29396D01*
X6206Y29395D01*
X6020Y29209D01*
X4250Y29209D01*
X2829Y30630D01*
X2829Y40850D01*
X5050Y43071D01*
X6394Y43071D01*
X6750Y42716D01*
X6750Y42709D01*
X6750Y42707D01*
X6750Y42705D01*
X6751Y42701D01*
X6751Y42697D01*
X6752Y42695D01*
X6752Y42693D01*
X6754Y42689D01*
X6756Y42685D01*
X6757Y42684D01*
X6758Y42682D01*
X6761Y42679D01*
X6763Y42675D01*
X6765Y42674D01*
X6766Y42672D01*
X6770Y42670D01*
X6773Y42668D01*
X6775Y42667D01*
X6777Y42665D01*
X6780Y42664D01*
X6784Y42662D01*
X6786Y42662D01*
X6788Y42661D01*
X6792Y42661D01*
X6796Y42660D01*
X6798Y42660D01*
X6801Y42660D01*
X6803Y42661D01*
X6809Y42661D01*
X6815Y42663D01*
X6818Y42664D01*
X6904Y42700D01*
X6996Y42700D01*
X7080Y42665D01*
X7145Y42600D01*
X7180Y42516D01*
X7180Y42424D01*
X7145Y42340D01*
X7085Y42280D01*
X7083Y42277D01*
X7080Y42274D01*
X7079Y42272D01*
X7078Y42271D01*
X7076Y42267D01*
X7074Y42263D01*
X7074Y42261D01*
X7073Y42259D01*
X7071Y42247D01*
X7071Y42246D01*
X7071Y42200D01*
X6530Y41659D01*
X6030Y41659D01*
X6026Y41659D01*
X6022Y41659D01*
X6020Y41658D01*
X6018Y41658D01*
X6014Y41656D01*
X6010Y41655D01*
X6009Y41654D01*
X6007Y41653D01*
X5997Y41646D01*
X5996Y41646D01*
X5996Y41645D01*
X4806Y40456D01*
X4804Y40452D01*
X4801Y40449D01*
X4800Y40447D01*
X4799Y40446D01*
X4797Y40442D01*
X4795Y40438D01*
X4795Y40436D01*
X4794Y40434D01*
X4792Y40422D01*
X4792Y40421D01*
X4792Y40017D01*
X4792Y40015D01*
X4792Y40012D01*
X4793Y40008D01*
X4793Y40004D01*
X4794Y40002D01*
X4795Y40000D01*
X4797Y39997D01*
X4798Y39993D01*
X4799Y39991D01*
X4800Y39989D01*
X4803Y39986D01*
X4805Y39983D01*
X4807Y39982D01*
X4808Y39980D01*
X4812Y39978D01*
X4815Y39975D01*
X4817Y39974D01*
X4819Y39973D01*
X4823Y39972D01*
X4826Y39970D01*
X4828Y39969D01*
X4830Y39969D01*
X4835Y39968D01*
X4839Y39968D01*
X4841Y39968D01*
X4843Y39968D01*
X4845Y39968D01*
X4851Y39969D01*
X4857Y39971D01*
X4860Y39971D01*
X4904Y39990D01*
X4996Y39990D01*
X5080Y39955D01*
X5145Y39890D01*
X5180Y39806D01*
X5180Y39714D01*
X5177Y39708D01*
X5176Y39706D01*
X5176Y39704D01*
X5175Y39704D01*
X5175Y39700D01*
X5174Y39696D01*
X5174Y39694D01*
X5173Y39691D01*
X5174Y39687D01*
X5173Y39683D01*
X5174Y39681D01*
X5174Y39679D01*
X5175Y39675D01*
X5176Y39671D01*
X5177Y39669D01*
X5178Y39667D01*
X5180Y39664D01*
X5182Y39660D01*
X5184Y39659D01*
X5185Y39657D01*
X5188Y39654D01*
X5191Y39651D01*
X5193Y39650D01*
X5194Y39649D01*
X5198Y39647D01*
X5201Y39644D01*
X5203Y39644D01*
X5205Y39643D01*
X5208Y39642D01*
X5213Y39641D01*
X5220Y39640D01*
X5222Y39640D01*
X5241Y39640D01*
X5246Y39640D01*
X5251Y39641D01*
X5252Y39641D01*
X5253Y39641D01*
X5258Y39643D01*
X5263Y39645D01*
X5264Y39645D01*
X5265Y39646D01*
X5269Y39649D01*
X5273Y39651D01*
X5274Y39652D01*
X5275Y39653D01*
X5278Y39657D01*
X5281Y39661D01*
X5282Y39662D01*
X5283Y39663D01*
X5285Y39667D01*
X5287Y39672D01*
X5287Y39673D01*
X5288Y39674D01*
X5290Y39686D01*
X5290Y39688D01*
X5290Y39689D01*
X5290Y39726D01*
X5325Y39810D01*
X5390Y39875D01*
X5474Y39910D01*
X5566Y39910D01*
X5650Y39875D01*
X5715Y39810D01*
X5739Y39751D01*
X5740Y39749D01*
X5741Y39747D01*
X5743Y39744D01*
X5745Y39740D01*
X5747Y39738D01*
X5748Y39737D01*
X5751Y39734D01*
X5754Y39731D01*
X5756Y39730D01*
X5758Y39729D01*
X5761Y39727D01*
X5765Y39725D01*
X5767Y39724D01*
X5769Y39723D01*
X5773Y39722D01*
X5777Y39721D01*
X5779Y39721D01*
X5781Y39721D01*
X5785Y39721D01*
X5789Y39721D01*
X5791Y39721D01*
X5793Y39721D01*
X5797Y39722D01*
X5801Y39723D01*
X5803Y39724D01*
X5805Y39725D01*
X5807Y39726D01*
X5812Y39729D01*
X5817Y39733D01*
X5820Y39735D01*
X7515Y41430D01*
X7517Y41433D01*
X7520Y41437D01*
X7521Y41438D01*
X7522Y41440D01*
X7524Y41444D01*
X7526Y41448D01*
X7526Y41449D01*
X7527Y41451D01*
X7529Y41464D01*
X7529Y41465D01*
X7529Y43052D01*
X7529Y43054D01*
X7529Y43056D01*
X7528Y43060D01*
X7528Y43064D01*
X7527Y43066D01*
X7526Y43068D01*
X7525Y43072D01*
X7523Y43076D01*
X7522Y43078D01*
X7521Y43080D01*
X7518Y43083D01*
X7516Y43086D01*
X7514Y43087D01*
X7513Y43089D01*
X7509Y43091D01*
X7506Y43094D01*
X7504Y43095D01*
X7502Y43096D01*
X7499Y43097D01*
X7495Y43099D01*
X7493Y43099D01*
X7491Y43100D01*
X7487Y43100D01*
X7483Y43101D01*
X7480Y43101D01*
X7478Y43101D01*
X7476Y43101D01*
X7470Y43100D01*
X7464Y43098D01*
X7461Y43097D01*
X7396Y43070D01*
X7304Y43070D01*
X7220Y43105D01*
X7155Y43170D01*
X7120Y43254D01*
X7120Y43346D01*
X7155Y43430D01*
X7220Y43495D01*
X7221Y43495D01*
X7223Y43496D01*
X7227Y43499D01*
X7231Y43501D01*
X7232Y43502D01*
X7233Y43503D01*
X7236Y43506D01*
X7240Y43510D01*
X7240Y43511D01*
X7241Y43512D01*
X7244Y43516D01*
X7246Y43520D01*
X7247Y43522D01*
X7247Y43523D01*
X7248Y43525D01*
X7250Y43532D01*
X7250Y43538D01*
X7250Y43540D01*
X7250Y43766D01*
X7484Y44000D01*
X7816Y44000D01*
X7964Y43851D01*
X8005Y43810D01*
X8009Y43807D01*
X8012Y43804D01*
X8014Y43804D01*
X8015Y43803D01*
X8019Y43801D01*
X8024Y43799D01*
X8025Y43798D01*
X8026Y43798D01*
X8031Y43797D01*
X8036Y43796D01*
X8037Y43796D01*
X8038Y43796D01*
X8043Y43796D01*
X8048Y43797D01*
X8049Y43797D01*
X8051Y43797D01*
X8055Y43799D01*
X8060Y43800D01*
X8061Y43801D01*
X8062Y43801D01*
X8073Y43809D01*
X8074Y43810D01*
X8120Y43856D01*
X8204Y43891D01*
X8296Y43891D01*
X8380Y43856D01*
X8440Y43796D01*
X8443Y43794D01*
X8446Y43791D01*
X8448Y43790D01*
X8449Y43789D01*
X8453Y43787D01*
X8457Y43785D01*
X8459Y43785D01*
X8461Y43784D01*
X8473Y43782D01*
X8474Y43782D01*
X8861Y43782D01*
X8865Y43782D01*
X8869Y43783D01*
X8871Y43783D01*
X8873Y43783D01*
X8877Y43785D01*
X8881Y43786D01*
X8882Y43787D01*
X8885Y43788D01*
X8895Y43795D01*
X8895Y43796D01*
X8896Y43796D01*
X9146Y44047D01*
X9149Y44050D01*
X9151Y44053D01*
X9152Y44055D01*
X9154Y44057D01*
X9155Y44060D01*
X9157Y44064D01*
X9157Y44066D01*
X9158Y44068D01*
X9160Y44080D01*
X9160Y44081D01*
X9160Y44082D01*
X9160Y44177D01*
X9195Y44261D01*
X9260Y44326D01*
X9344Y44361D01*
X9436Y44361D01*
X9520Y44326D01*
X9585Y44261D01*
X9620Y44177D01*
X9620Y44085D01*
X9585Y44001D01*
X9520Y43936D01*
X9436Y43901D01*
X9362Y43901D01*
X9358Y43901D01*
X9354Y43900D01*
X9352Y43900D01*
X9350Y43900D01*
X9346Y43898D01*
X9342Y43897D01*
X9341Y43896D01*
X9339Y43895D01*
X9328Y43888D01*
X9328Y43887D01*
X8981Y43540D01*
X8474Y43540D01*
X8470Y43540D01*
X8466Y43540D01*
X8464Y43539D01*
X8462Y43539D01*
X8458Y43537D01*
X8454Y43536D01*
X8453Y43535D01*
X8451Y43534D01*
X8441Y43527D01*
X8440Y43526D01*
X8380Y43466D01*
X8296Y43431D01*
X8204Y43431D01*
X8118Y43467D01*
X8116Y43468D01*
X8114Y43469D01*
X8110Y43470D01*
X8106Y43471D01*
X8104Y43471D01*
X8101Y43471D01*
X8097Y43471D01*
X8093Y43471D01*
X8091Y43470D01*
X8089Y43470D01*
X8085Y43469D01*
X8081Y43468D01*
X8079Y43467D01*
X8077Y43466D01*
X8074Y43464D01*
X8070Y43462D01*
X8069Y43460D01*
X8067Y43459D01*
X8064Y43456D01*
X8061Y43453D01*
X8060Y43452D01*
X8059Y43450D01*
X8057Y43446D01*
X8054Y43443D01*
X8054Y43441D01*
X8053Y43439D01*
X8052Y43437D01*
X8051Y43431D01*
X8050Y43424D01*
X8050Y43422D01*
X8050Y43092D01*
X8050Y43087D01*
X8050Y43083D01*
X8051Y43081D01*
X8051Y43079D01*
X8053Y43075D01*
X8054Y43071D01*
X8055Y43070D01*
X8056Y43068D01*
X8063Y43058D01*
X8064Y43057D01*
X8233Y42888D01*
X8236Y42885D01*
X8239Y42883D01*
X8241Y42882D01*
X8243Y42880D01*
X8246Y42879D01*
X8250Y42877D01*
X8252Y42877D01*
X8254Y42876D01*
X8266Y42874D01*
X8267Y42874D01*
X8268Y42874D01*
X16588Y42874D01*
X20000Y39461D01*
X20004Y39458D01*
X20008Y39454D01*
X20009Y39454D01*
X20010Y39454D01*
X20015Y39451D01*
X20020Y39449D01*
X20021Y39449D01*
X20027Y39448D01*
X20032Y39447D01*
X20033Y39447D01*
X20034Y39447D01*
X20039Y39447D01*
X20044Y39448D01*
X20045Y39448D01*
X20046Y39448D01*
X20051Y39450D01*
X20056Y39452D01*
X20057Y39452D01*
X20058Y39452D01*
X20068Y39459D01*
X20069Y39461D01*
X20070Y39462D01*
X26740Y46392D01*
X26742Y46394D01*
X26744Y46396D01*
X26746Y46399D01*
X26748Y46402D01*
X26749Y46404D01*
X26750Y46406D01*
X26751Y46410D01*
X26753Y46413D01*
X26753Y46416D01*
X26754Y46418D01*
X26754Y46421D01*
X26754Y46425D01*
X26753Y46434D01*
X26753Y46436D01*
X26747Y46467D01*
X26745Y46472D01*
X26726Y46567D01*
X26662Y46869D01*
X26598Y47172D01*
X26546Y47421D01*
X26492Y47678D01*
X26477Y47748D01*
X26471Y47777D01*
X26417Y48034D01*
X26364Y48283D01*
X26351Y48348D01*
X26344Y48382D01*
X26293Y48624D01*
X26292Y48627D01*
X26292Y48628D01*
X26216Y48881D01*
X26213Y48886D01*
X26212Y48889D01*
X26099Y49112D01*
X26095Y49118D01*
X26094Y49120D01*
X25942Y49319D01*
X25937Y49323D01*
X25936Y49325D01*
X25749Y49493D01*
X25744Y49497D01*
X25742Y49499D01*
X25529Y49631D01*
X25523Y49634D01*
X25521Y49635D01*
X25287Y49729D01*
X25281Y49730D01*
X25278Y49731D01*
X25031Y49782D01*
X25025Y49783D01*
X25023Y49783D01*
X24771Y49791D01*
X24765Y49790D01*
X24762Y49790D01*
X24514Y49753D01*
X24508Y49751D01*
X24505Y49750D01*
X24269Y49669D01*
X24263Y49666D01*
X24260Y49665D01*
X24042Y49542D01*
X24037Y49538D01*
X24035Y49537D01*
X23831Y49369D01*
X23830Y49367D01*
X23828Y49366D01*
X23653Y49193D01*
X23597Y49139D01*
X23580Y49122D01*
X23376Y48923D01*
X23213Y48763D01*
X23148Y48698D01*
X23147Y48698D01*
X23141Y48692D01*
X22994Y48547D01*
X22964Y48518D01*
X22921Y48476D01*
X22740Y48299D01*
X22554Y48117D01*
X22530Y48092D01*
X22482Y48046D01*
X22284Y47851D01*
X22115Y47686D01*
X22087Y47659D01*
X22043Y47615D01*
X21871Y47446D01*
X21676Y47255D01*
X21625Y47205D01*
X21603Y47184D01*
X21456Y47040D01*
X21420Y47004D01*
X21384Y46969D01*
X21186Y46775D01*
X21017Y46609D01*
X20968Y46561D01*
X20944Y46538D01*
X20725Y46323D01*
X20555Y46157D01*
X20358Y45963D01*
X20326Y45932D01*
X20285Y45892D01*
X20086Y45697D01*
X19919Y45532D01*
X19894Y45508D01*
X19846Y45461D01*
X19663Y45281D01*
X19479Y45102D01*
X19260Y44886D01*
X19227Y44854D01*
X19187Y44815D01*
X19006Y44637D01*
X18820Y44456D01*
X18767Y44403D01*
X18748Y44385D01*
X18601Y44240D01*
X18536Y44177D01*
X18528Y44169D01*
X18342Y43987D01*
X18126Y43775D01*
X18126Y43774D01*
X18097Y43746D01*
X18059Y43731D01*
X18059Y43730D01*
X18021Y43715D01*
X17980Y43715D01*
X11890Y43715D01*
X11889Y43715D01*
X11849Y43715D01*
X11811Y43730D01*
X11811Y43731D01*
X11773Y43746D01*
X11744Y43775D01*
X11561Y43954D01*
X11535Y43979D01*
X11489Y44025D01*
X11310Y44200D01*
X11122Y44385D01*
X11105Y44401D01*
X11049Y44456D01*
X10850Y44651D01*
X10848Y44653D01*
X10846Y44654D01*
X10843Y44656D01*
X10840Y44659D01*
X10838Y44660D01*
X10836Y44661D01*
X10832Y44662D01*
X10829Y44663D01*
X10826Y44664D01*
X10824Y44664D01*
X10820Y44665D01*
X10816Y44665D01*
X10814Y44665D01*
X10811Y44665D01*
X10808Y44664D01*
X10804Y44664D01*
X10802Y44663D01*
X10799Y44662D01*
X10796Y44661D01*
X10792Y44659D01*
X10790Y44658D01*
X10788Y44657D01*
X10785Y44654D01*
X10782Y44652D01*
X10781Y44650D01*
X10779Y44649D01*
X10777Y44645D01*
X10774Y44643D01*
X10773Y44640D01*
X10772Y44638D01*
X10770Y44635D01*
X10769Y44631D01*
X10768Y44629D01*
X10768Y44627D01*
X10767Y44623D01*
X10766Y44619D01*
X10767Y44617D01*
X10766Y44614D01*
X10767Y44612D01*
X10767Y44607D01*
X10770Y44599D01*
X10770Y44597D01*
X10800Y44526D01*
X10800Y44434D01*
X10765Y44350D01*
X10700Y44285D01*
X10616Y44250D01*
X10524Y44250D01*
X10440Y44285D01*
X10375Y44350D01*
X10340Y44434D01*
X10340Y44526D01*
X10375Y44610D01*
X10440Y44675D01*
X10524Y44710D01*
X10616Y44710D01*
X10683Y44682D01*
X10686Y44681D01*
X10689Y44680D01*
X10692Y44679D01*
X10695Y44678D01*
X10698Y44678D01*
X10701Y44678D01*
X10704Y44678D01*
X10708Y44678D01*
X10711Y44679D01*
X10714Y44679D01*
X10717Y44680D01*
X10720Y44681D01*
X10722Y44683D01*
X10725Y44684D01*
X10728Y44686D01*
X10731Y44687D01*
X10733Y44689D01*
X10735Y44691D01*
X10737Y44693D01*
X10740Y44696D01*
X10741Y44698D01*
X10743Y44700D01*
X10745Y44703D01*
X10747Y44706D01*
X10747Y44709D01*
X10749Y44712D01*
X10749Y44715D01*
X10750Y44718D01*
X10751Y44721D01*
X10751Y44724D01*
X10751Y44727D01*
X10751Y44730D01*
X10751Y44733D01*
X10750Y44736D01*
X10750Y44739D01*
X10749Y44742D01*
X10748Y44745D01*
X10747Y44748D01*
X10745Y44750D01*
X10744Y44754D01*
X10738Y44761D01*
X10737Y44762D01*
X10682Y44815D01*
X10622Y44874D01*
X10610Y44886D01*
X10390Y45102D01*
X10243Y45246D01*
X10206Y45283D01*
X10171Y45317D01*
X10023Y45461D01*
X10020Y45464D01*
X10020Y45465D01*
X9951Y45532D01*
X9951Y45533D01*
X9781Y45699D01*
X9584Y45892D01*
X9547Y45929D01*
X9512Y45963D01*
X9365Y46108D01*
X9358Y46114D01*
X9292Y46179D01*
X9094Y46373D01*
X8925Y46538D01*
X8882Y46581D01*
X8853Y46609D01*
X8706Y46754D01*
X8456Y46998D01*
X8266Y47184D01*
X8219Y47230D01*
X8194Y47255D01*
X8047Y47400D01*
X7827Y47615D01*
X7784Y47657D01*
X7755Y47686D01*
X7560Y47877D01*
X7388Y48046D01*
X7334Y48099D01*
X7315Y48117D01*
X7142Y48287D01*
X6949Y48476D01*
X6915Y48509D01*
X6876Y48547D01*
X6729Y48692D01*
X6693Y48727D01*
X6656Y48763D01*
X6453Y48962D01*
X6290Y49122D01*
X6284Y49127D01*
X6284Y49128D01*
X6217Y49193D01*
X6217Y49194D01*
X6042Y49365D01*
X6040Y49367D01*
X6039Y49368D01*
X5825Y49544D01*
X5819Y49547D01*
X5817Y49549D01*
X5587Y49675D01*
X5580Y49678D01*
X5578Y49679D01*
X5328Y49759D01*
X5322Y49760D01*
X5319Y49761D01*
X5057Y49792D01*
X5051Y49792D01*
X5048Y49793D01*
X4804Y49778D01*
X4798Y49777D01*
X4795Y49777D01*
X4555Y49720D01*
X4550Y49718D01*
X4547Y49717D01*
X4321Y49621D01*
X4316Y49618D01*
X4314Y49617D01*
X4107Y49484D01*
X4103Y49480D01*
X4101Y49478D01*
X3922Y49312D01*
X3918Y49307D01*
X3916Y49305D01*
X3769Y49109D01*
X3766Y49104D01*
X3765Y49102D01*
X3655Y48883D01*
X3653Y48877D01*
X3652Y48875D01*
X3578Y48628D01*
X3578Y48626D01*
X3577Y48624D01*
X3527Y48387D01*
X3526Y48384D01*
X3506Y48288D01*
X3464Y48089D01*
X3455Y48048D01*
X3443Y47990D01*
X3380Y47693D01*
X3317Y47395D01*
X3275Y47197D01*
X3204Y46861D01*
X3128Y46503D01*
X3086Y46305D01*
X3075Y46253D01*
X3065Y46205D01*
X3009Y45941D01*
X2939Y45611D01*
X2897Y45412D01*
X2893Y45392D01*
X2876Y45313D01*
X2813Y45016D01*
X2763Y44778D01*
X2690Y44437D01*
X2645Y44223D01*
X2635Y44176D01*
X2624Y44123D01*
X2570Y43872D01*
X2519Y43628D01*
X2509Y43582D01*
X2498Y43529D01*
X2456Y43330D01*
X2444Y43276D01*
X2435Y43231D01*
X2381Y42979D01*
X2330Y42735D01*
X2316Y42672D01*
X2309Y42636D01*
X2246Y42339D01*
X2186Y42059D01*
X2141Y41843D01*
X2136Y41821D01*
X2120Y41744D01*
X2065Y41486D01*
X2015Y41248D01*
X2005Y41200D01*
X1994Y41149D01*
X1940Y40895D01*
X1889Y40653D01*
X1877Y40600D01*
X1868Y40554D01*
X1813Y40296D01*
X1742Y39959D01*
X1700Y39761D01*
X1689Y39712D01*
X1679Y39662D01*
X1630Y39430D01*
X1562Y39109D01*
X1511Y38869D01*
X1502Y38829D01*
X1490Y38769D01*
X1448Y38571D01*
X1427Y38472D01*
X1383Y38267D01*
X1382Y38255D01*
X1373Y38220D01*
X1373Y38219D01*
X1373Y38218D01*
X1365Y38183D01*
X1362Y38176D01*
X1361Y38173D01*
X1361Y38172D01*
X1296Y37927D01*
X1296Y37926D01*
X1296Y37925D01*
X1232Y37640D01*
X1232Y37639D01*
X1231Y37638D01*
X1179Y37348D01*
X1179Y37347D01*
X1154Y37197D01*
X1154Y37184D01*
X1147Y37149D01*
X1146Y37148D01*
X1146Y37147D01*
X1142Y37121D01*
X1141Y37108D01*
X1142Y37107D01*
X1142Y37106D01*
X1142Y37105D01*
X1135Y37075D01*
X1134Y37073D01*
X1134Y37071D01*
X1095Y36831D01*
X1084Y36767D01*
X1078Y36731D01*
X1046Y36531D01*
X989Y36183D01*
X945Y35913D01*
X899Y35629D01*
X891Y35576D01*
X883Y35529D01*
X850Y35329D01*
X801Y35028D01*
X791Y34965D01*
X785Y34928D01*
X748Y34699D01*
X704Y34427D01*
X695Y34376D01*
X687Y34327D01*
X655Y34127D01*
X650Y34098D01*
X638Y34027D01*
X606Y33826D01*
X555Y33516D01*
X508Y33225D01*
X498Y33164D01*
X492Y33125D01*
X459Y32924D01*
X446Y32847D01*
X443Y32824D01*
X404Y32583D01*
X361Y32323D01*
X305Y31975D01*
X304Y31975D01*
X263Y31683D01*
X263Y31682D01*
X263Y31681D01*
X233Y31391D01*
X233Y31390D01*
X233Y31389D01*
X214Y31098D01*
X214Y31097D01*
X214Y31096D01*
X206Y30805D01*
X206Y30804D01*
X206Y30803D01*
X210Y30511D01*
X210Y30510D01*
X210Y30509D01*
X225Y30218D01*
X225Y30217D01*
X252Y29926D01*
X252Y29925D01*
X252Y29924D01*
X290Y29635D01*
X290Y29634D01*
X290Y29633D01*
X339Y29346D01*
X339Y29345D01*
X339Y29344D01*
X400Y29059D01*
X400Y29058D01*
X400Y29057D01*
X472Y28774D01*
X472Y28773D01*
X555Y28493D01*
X555Y28492D01*
X556Y28491D01*
X649Y28215D01*
X650Y28214D01*
X650Y28213D01*
X754Y27941D01*
X754Y27940D01*
X755Y27939D01*
X869Y27671D01*
X870Y27670D01*
X870Y27669D01*
X995Y27406D01*
X996Y27405D01*
X996Y27404D01*
X1131Y27145D01*
X1132Y27144D01*
X1277Y26891D01*
X1278Y26890D01*
X1278Y26889D01*
X1433Y26642D01*
X1433Y26641D01*
X1434Y26640D01*
X1598Y26399D01*
X1598Y26398D01*
X1599Y26397D01*
X1772Y26163D01*
X1773Y26162D01*
X1773Y26161D01*
X1955Y25933D01*
X1956Y25932D01*
X2147Y25711D01*
X2148Y25710D01*
X2148Y25709D01*
X2347Y25496D01*
X2348Y25495D01*
X2555Y25289D01*
X2556Y25288D01*
X2557Y25288D01*
X2749Y25111D01*
X2759Y25104D01*
X2760Y25103D01*
X2765Y25101D01*
X2782Y25081D01*
X2784Y25079D01*
X2785Y25078D01*
X2786Y25077D01*
X2805Y25059D01*
X2808Y25054D01*
X2814Y25044D01*
X2815Y25043D01*
X2819Y25038D01*
X2827Y25014D01*
X2828Y25010D01*
X2829Y25008D01*
X2840Y24985D01*
X2840Y24979D01*
X2842Y24967D01*
X2842Y24966D01*
X2844Y24961D01*
X2842Y24935D01*
X2842Y24931D01*
X2842Y24929D01*
X2843Y24903D01*
X2841Y24898D01*
X2838Y24886D01*
X2838Y24885D01*
X2838Y24879D01*
X2826Y24856D01*
X2825Y24852D01*
X2824Y24851D01*
X2815Y24826D01*
X2811Y24822D01*
X2804Y24812D01*
X2804Y24811D01*
X2803Y24811D01*
X2682Y24572D01*
X2682Y24571D01*
X2556Y24300D01*
X2556Y24299D01*
X2440Y24024D01*
X2440Y24023D01*
X2439Y24022D01*
X2333Y23743D01*
X2333Y23742D01*
X2333Y23741D01*
X2237Y23459D01*
X2236Y23458D01*
X2236Y23457D01*
X2150Y23172D01*
X2150Y23171D01*
X2150Y23170D01*
X2074Y22881D01*
X2074Y22880D01*
X2008Y22589D01*
X2008Y22587D01*
X1953Y22294D01*
X1953Y22293D01*
X1953Y22292D01*
X1908Y21997D01*
X1908Y21996D01*
X1908Y21995D01*
X1874Y21699D01*
X1874Y21698D01*
X1873Y21697D01*
X1849Y21397D01*
X1827Y21039D01*
X1808Y20731D01*
X1789Y20422D01*
X1776Y20214D01*
X1772Y20146D01*
X1770Y20113D01*
X1759Y19943D01*
X1759Y19937D01*
X1760Y19931D01*
X1760Y19930D01*
X1762Y19924D01*
X1764Y19919D01*
X1764Y19918D01*
X1767Y19913D01*
X1770Y19908D01*
X1771Y19908D01*
X1775Y19904D01*
X1780Y19900D01*
X1785Y19897D01*
X1791Y19894D01*
X1792Y19894D01*
X1803Y19891D01*
X1806Y19891D01*
X1808Y19891D01*
X15480Y19891D01*
X15484Y19891D01*
G37*
G36*
X19495Y38881D02*
X19495Y38881D01*
X19499Y38882D01*
X19501Y38882D01*
X19502Y38882D01*
X19507Y38884D01*
X19511Y38886D01*
X19512Y38886D01*
X19514Y38887D01*
X19524Y38894D01*
X19525Y38895D01*
X19525Y38896D01*
X19834Y39217D01*
X19837Y39220D01*
X19840Y39224D01*
X19841Y39225D01*
X19842Y39227D01*
X19844Y39231D01*
X19846Y39235D01*
X19846Y39237D01*
X19847Y39238D01*
X19847Y39243D01*
X19848Y39247D01*
X19848Y39249D01*
X19848Y39251D01*
X19848Y39255D01*
X19847Y39260D01*
X19847Y39261D01*
X19847Y39263D01*
X19845Y39267D01*
X19844Y39271D01*
X19843Y39273D01*
X19842Y39275D01*
X19835Y39285D01*
X19834Y39285D01*
X19834Y39286D01*
X16502Y42618D01*
X16499Y42620D01*
X16495Y42623D01*
X16494Y42624D01*
X16492Y42625D01*
X16488Y42627D01*
X16484Y42629D01*
X16483Y42629D01*
X16481Y42630D01*
X16468Y42632D01*
X16467Y42632D01*
X8303Y42632D01*
X8301Y42632D01*
X8298Y42632D01*
X8294Y42631D01*
X8290Y42631D01*
X8288Y42630D01*
X8286Y42629D01*
X8283Y42628D01*
X8279Y42626D01*
X8277Y42625D01*
X8275Y42624D01*
X8272Y42621D01*
X8269Y42619D01*
X8267Y42617D01*
X8266Y42616D01*
X8264Y42612D01*
X8261Y42609D01*
X8260Y42607D01*
X8259Y42605D01*
X8257Y42601D01*
X8256Y42598D01*
X8255Y42596D01*
X8255Y42594D01*
X8254Y42590D01*
X8254Y42585D01*
X8254Y42583D01*
X8254Y42581D01*
X8254Y42579D01*
X8254Y42573D01*
X8257Y42567D01*
X8257Y42564D01*
X8276Y42520D01*
X8276Y42436D01*
X8276Y42431D01*
X8276Y42427D01*
X8277Y42425D01*
X8277Y42423D01*
X8279Y42419D01*
X8280Y42415D01*
X8281Y42414D01*
X8282Y42412D01*
X8289Y42402D01*
X8290Y42401D01*
X8756Y41935D01*
X8759Y41933D01*
X8762Y41930D01*
X8764Y41929D01*
X8765Y41928D01*
X8769Y41926D01*
X8773Y41924D01*
X8775Y41924D01*
X8777Y41923D01*
X8789Y41921D01*
X8790Y41921D01*
X9546Y41921D01*
X9550Y41921D01*
X9554Y41921D01*
X9556Y41922D01*
X9558Y41922D01*
X9562Y41924D01*
X9566Y41925D01*
X9567Y41926D01*
X9569Y41927D01*
X9579Y41934D01*
X9580Y41935D01*
X9640Y41995D01*
X9724Y42030D01*
X9816Y42030D01*
X9900Y41995D01*
X9965Y41930D01*
X10000Y41846D01*
X10000Y41754D01*
X9965Y41670D01*
X9900Y41605D01*
X9816Y41570D01*
X9724Y41570D01*
X9640Y41605D01*
X9580Y41665D01*
X9577Y41667D01*
X9574Y41670D01*
X9572Y41671D01*
X9571Y41672D01*
X9567Y41674D01*
X9563Y41676D01*
X9561Y41676D01*
X9559Y41677D01*
X9547Y41679D01*
X9546Y41679D01*
X8670Y41679D01*
X8119Y42230D01*
X8116Y42233D01*
X8113Y42235D01*
X8111Y42236D01*
X8109Y42238D01*
X8106Y42239D01*
X8102Y42241D01*
X8100Y42242D01*
X8098Y42242D01*
X8086Y42244D01*
X8085Y42244D01*
X8084Y42244D01*
X8000Y42244D01*
X7916Y42279D01*
X7855Y42340D01*
X7850Y42344D01*
X7846Y42347D01*
X7846Y42348D01*
X7845Y42348D01*
X7840Y42350D01*
X7835Y42353D01*
X7834Y42353D01*
X7828Y42354D01*
X7823Y42355D01*
X7822Y42355D01*
X7821Y42355D01*
X7816Y42354D01*
X7810Y42354D01*
X7809Y42354D01*
X7804Y42352D01*
X7798Y42350D01*
X7798Y42349D01*
X7797Y42349D01*
X7793Y42346D01*
X7788Y42343D01*
X7787Y42342D01*
X7783Y42338D01*
X7780Y42334D01*
X7779Y42333D01*
X7776Y42328D01*
X7774Y42323D01*
X7774Y42322D01*
X7773Y42322D01*
X7771Y42309D01*
X7771Y42307D01*
X7771Y42306D01*
X7771Y41864D01*
X7771Y41859D01*
X7772Y41853D01*
X7772Y41852D01*
X7774Y41847D01*
X7776Y41842D01*
X7777Y41841D01*
X7780Y41836D01*
X7783Y41831D01*
X7784Y41831D01*
X7789Y41827D01*
X7793Y41823D01*
X7794Y41823D01*
X7799Y41820D01*
X7804Y41818D01*
X7805Y41818D01*
X7805Y41817D01*
X7811Y41816D01*
X7816Y41815D01*
X7817Y41815D01*
X7823Y41816D01*
X7829Y41816D01*
X7830Y41816D01*
X7835Y41818D01*
X7840Y41820D01*
X7841Y41820D01*
X7842Y41820D01*
X7852Y41827D01*
X7854Y41829D01*
X7855Y41830D01*
X7870Y41845D01*
X7954Y41880D01*
X8046Y41880D01*
X8130Y41845D01*
X8195Y41780D01*
X8230Y41696D01*
X8230Y41612D01*
X8230Y41607D01*
X8230Y41603D01*
X8231Y41601D01*
X8231Y41599D01*
X8233Y41595D01*
X8234Y41591D01*
X8235Y41590D01*
X8236Y41588D01*
X8243Y41578D01*
X8244Y41577D01*
X9236Y40585D01*
X9239Y40583D01*
X9242Y40580D01*
X9244Y40579D01*
X9245Y40578D01*
X9249Y40576D01*
X9253Y40574D01*
X9255Y40574D01*
X9257Y40573D01*
X9269Y40571D01*
X9270Y40571D01*
X18000Y40571D01*
X18927Y39644D01*
X18930Y39641D01*
X18933Y39639D01*
X18935Y39638D01*
X18937Y39636D01*
X18940Y39635D01*
X18944Y39633D01*
X18946Y39633D01*
X18948Y39632D01*
X18960Y39630D01*
X18961Y39630D01*
X18962Y39630D01*
X19046Y39630D01*
X19130Y39595D01*
X19195Y39530D01*
X19230Y39446D01*
X19230Y39354D01*
X19195Y39270D01*
X19130Y39205D01*
X19046Y39170D01*
X18954Y39170D01*
X18870Y39205D01*
X18805Y39270D01*
X18770Y39354D01*
X18770Y39438D01*
X18770Y39443D01*
X18770Y39447D01*
X18769Y39449D01*
X18769Y39451D01*
X18767Y39455D01*
X18766Y39459D01*
X18765Y39460D01*
X18764Y39462D01*
X18757Y39472D01*
X18756Y39473D01*
X17914Y40315D01*
X17911Y40317D01*
X17908Y40320D01*
X17906Y40321D01*
X17905Y40322D01*
X17901Y40324D01*
X17897Y40326D01*
X17895Y40326D01*
X17893Y40327D01*
X17881Y40329D01*
X17880Y40329D01*
X9194Y40329D01*
X9189Y40329D01*
X9183Y40328D01*
X9182Y40328D01*
X9177Y40326D01*
X9172Y40324D01*
X9171Y40323D01*
X9166Y40320D01*
X9161Y40317D01*
X9161Y40316D01*
X9157Y40311D01*
X9153Y40307D01*
X9153Y40306D01*
X9150Y40301D01*
X9148Y40296D01*
X9148Y40295D01*
X9147Y40295D01*
X9146Y40289D01*
X9145Y40284D01*
X9145Y40283D01*
X9146Y40277D01*
X9146Y40271D01*
X9146Y40270D01*
X9148Y40265D01*
X9150Y40260D01*
X9150Y40259D01*
X9150Y40258D01*
X9157Y40248D01*
X9159Y40246D01*
X9160Y40245D01*
X9215Y40190D01*
X9250Y40106D01*
X9250Y40014D01*
X9215Y39930D01*
X9150Y39865D01*
X9066Y39830D01*
X8974Y39830D01*
X8890Y39865D01*
X8825Y39930D01*
X8790Y40014D01*
X8790Y40106D01*
X8825Y40190D01*
X8890Y40255D01*
X8974Y40290D01*
X9071Y40290D01*
X9076Y40290D01*
X9082Y40291D01*
X9083Y40291D01*
X9088Y40293D01*
X9093Y40295D01*
X9094Y40296D01*
X9095Y40296D01*
X9099Y40299D01*
X9104Y40302D01*
X9104Y40303D01*
X9105Y40303D01*
X9108Y40307D01*
X9112Y40312D01*
X9112Y40313D01*
X9115Y40318D01*
X9117Y40323D01*
X9118Y40324D01*
X9119Y40330D01*
X9120Y40335D01*
X9120Y40336D01*
X9119Y40342D01*
X9119Y40347D01*
X9119Y40348D01*
X9119Y40349D01*
X9117Y40354D01*
X9116Y40359D01*
X9115Y40360D01*
X9108Y40371D01*
X9106Y40372D01*
X9106Y40374D01*
X9065Y40414D01*
X8073Y41406D01*
X8070Y41409D01*
X8067Y41411D01*
X8065Y41412D01*
X8063Y41414D01*
X8060Y41415D01*
X8056Y41417D01*
X8054Y41417D01*
X8052Y41418D01*
X8040Y41420D01*
X8039Y41420D01*
X8038Y41420D01*
X7954Y41420D01*
X7870Y41455D01*
X7855Y41470D01*
X7850Y41474D01*
X7846Y41477D01*
X7846Y41478D01*
X7845Y41478D01*
X7840Y41480D01*
X7835Y41483D01*
X7834Y41483D01*
X7828Y41484D01*
X7823Y41485D01*
X7822Y41485D01*
X7821Y41485D01*
X7816Y41484D01*
X7810Y41484D01*
X7809Y41484D01*
X7804Y41482D01*
X7798Y41480D01*
X7798Y41479D01*
X7797Y41479D01*
X7793Y41476D01*
X7788Y41473D01*
X7787Y41472D01*
X7783Y41468D01*
X7780Y41464D01*
X7779Y41463D01*
X7776Y41458D01*
X7774Y41453D01*
X7774Y41452D01*
X7773Y41452D01*
X7771Y41439D01*
X7771Y41437D01*
X7771Y41436D01*
X7771Y41344D01*
X5934Y39508D01*
X5933Y39506D01*
X5931Y39505D01*
X5929Y39501D01*
X5927Y39498D01*
X5926Y39496D01*
X5925Y39494D01*
X5923Y39491D01*
X5922Y39487D01*
X5922Y39485D01*
X5921Y39483D01*
X5921Y39479D01*
X5920Y39475D01*
X5920Y39472D01*
X5920Y39470D01*
X5921Y39466D01*
X5921Y39462D01*
X5922Y39460D01*
X5922Y39458D01*
X5924Y39454D01*
X5926Y39450D01*
X5927Y39449D01*
X5928Y39447D01*
X5930Y39444D01*
X5933Y39440D01*
X5934Y39439D01*
X5936Y39437D01*
X5938Y39436D01*
X5942Y39432D01*
X5948Y39429D01*
X5950Y39428D01*
X6030Y39395D01*
X6090Y39335D01*
X6093Y39333D01*
X6096Y39330D01*
X6098Y39329D01*
X6099Y39328D01*
X6103Y39326D01*
X6107Y39324D01*
X6109Y39324D01*
X6111Y39323D01*
X6123Y39321D01*
X6124Y39321D01*
X6340Y39321D01*
X6344Y39321D01*
X6348Y39321D01*
X6350Y39322D01*
X6352Y39322D01*
X6356Y39324D01*
X6360Y39325D01*
X6361Y39326D01*
X6363Y39327D01*
X6373Y39334D01*
X6374Y39335D01*
X6397Y39358D01*
X6400Y39362D01*
X6404Y39366D01*
X6404Y39367D01*
X6405Y39368D01*
X6407Y39373D01*
X6409Y39377D01*
X6409Y39378D01*
X6410Y39379D01*
X6411Y39384D01*
X6412Y39389D01*
X6412Y39390D01*
X6412Y39392D01*
X6411Y39397D01*
X6411Y39402D01*
X6411Y39403D01*
X6411Y39404D01*
X6409Y39409D01*
X6407Y39413D01*
X6407Y39414D01*
X6406Y39416D01*
X6400Y39425D01*
X6399Y39426D01*
X6398Y39427D01*
X6397Y39428D01*
X6355Y39470D01*
X6320Y39554D01*
X6320Y39646D01*
X6355Y39730D01*
X6420Y39795D01*
X6504Y39830D01*
X6596Y39830D01*
X6680Y39795D01*
X6745Y39730D01*
X6780Y39646D01*
X6780Y39554D01*
X6745Y39470D01*
X6730Y39455D01*
X6726Y39450D01*
X6723Y39446D01*
X6722Y39446D01*
X6722Y39445D01*
X6720Y39440D01*
X6717Y39435D01*
X6717Y39434D01*
X6716Y39428D01*
X6715Y39423D01*
X6715Y39422D01*
X6715Y39421D01*
X6716Y39416D01*
X6716Y39410D01*
X6716Y39409D01*
X6718Y39404D01*
X6720Y39398D01*
X6721Y39398D01*
X6721Y39397D01*
X6724Y39393D01*
X6727Y39388D01*
X6728Y39387D01*
X6732Y39383D01*
X6736Y39380D01*
X6737Y39379D01*
X6742Y39376D01*
X6747Y39374D01*
X6748Y39374D01*
X6748Y39373D01*
X6761Y39371D01*
X6763Y39371D01*
X6764Y39371D01*
X7300Y39371D01*
X7385Y39286D01*
X7586Y39085D01*
X7589Y39083D01*
X7592Y39080D01*
X7594Y39079D01*
X7595Y39078D01*
X7599Y39076D01*
X7603Y39074D01*
X7605Y39074D01*
X7607Y39073D01*
X7619Y39071D01*
X7620Y39071D01*
X10890Y39071D01*
X11066Y38895D01*
X11069Y38893D01*
X11072Y38890D01*
X11074Y38889D01*
X11075Y38888D01*
X11079Y38886D01*
X11083Y38884D01*
X11085Y38884D01*
X11087Y38883D01*
X11099Y38881D01*
X11100Y38881D01*
X19490Y38881D01*
X19495Y38881D01*
G37*
%LPC*%
G36*
X6504Y28320D02*
X6504Y28320D01*
X6420Y28355D01*
X6355Y28420D01*
X6320Y28504D01*
X6320Y28588D01*
X6320Y28593D01*
X6320Y28597D01*
X6319Y28599D01*
X6319Y28601D01*
X6317Y28605D01*
X6316Y28609D01*
X6315Y28610D01*
X6314Y28612D01*
X6307Y28622D01*
X6306Y28623D01*
X6164Y28765D01*
X6161Y28767D01*
X6158Y28770D01*
X6156Y28771D01*
X6155Y28772D01*
X6151Y28774D01*
X6147Y28776D01*
X6145Y28776D01*
X6143Y28777D01*
X6131Y28779D01*
X6130Y28779D01*
X3800Y28779D01*
X2479Y30100D01*
X2479Y42150D01*
X3415Y43086D01*
X3417Y43089D01*
X3420Y43092D01*
X3421Y43094D01*
X3422Y43095D01*
X3424Y43099D01*
X3426Y43103D01*
X3426Y43105D01*
X3427Y43107D01*
X3429Y43119D01*
X3429Y43120D01*
X3429Y44450D01*
X4150Y45171D01*
X6826Y45171D01*
X6830Y45171D01*
X6834Y45171D01*
X6836Y45172D01*
X6838Y45172D01*
X6842Y45174D01*
X6846Y45175D01*
X6847Y45176D01*
X6849Y45177D01*
X6859Y45184D01*
X6860Y45185D01*
X6920Y45245D01*
X7004Y45280D01*
X7096Y45280D01*
X7180Y45245D01*
X7245Y45180D01*
X7280Y45096D01*
X7280Y45004D01*
X7245Y44920D01*
X7180Y44855D01*
X7096Y44820D01*
X7004Y44820D01*
X6920Y44855D01*
X6860Y44915D01*
X6857Y44917D01*
X6854Y44920D01*
X6852Y44921D01*
X6851Y44922D01*
X6847Y44924D01*
X6843Y44926D01*
X6841Y44926D01*
X6839Y44927D01*
X6827Y44929D01*
X6826Y44929D01*
X4270Y44929D01*
X4266Y44929D01*
X4262Y44929D01*
X4260Y44928D01*
X4258Y44928D01*
X4254Y44926D01*
X4250Y44925D01*
X4249Y44924D01*
X4247Y44923D01*
X4237Y44916D01*
X4236Y44915D01*
X3685Y44364D01*
X3683Y44361D01*
X3680Y44358D01*
X3679Y44356D01*
X3678Y44355D01*
X3676Y44351D01*
X3674Y44347D01*
X3674Y44345D01*
X3673Y44343D01*
X3671Y44331D01*
X3671Y44330D01*
X3671Y43000D01*
X2735Y42064D01*
X2733Y42061D01*
X2730Y42058D01*
X2729Y42056D01*
X2728Y42055D01*
X2726Y42051D01*
X2724Y42047D01*
X2724Y42045D01*
X2723Y42043D01*
X2721Y42031D01*
X2721Y42030D01*
X2721Y30220D01*
X2721Y30216D01*
X2721Y30212D01*
X2722Y30210D01*
X2722Y30208D01*
X2724Y30204D01*
X2725Y30200D01*
X2726Y30199D01*
X2727Y30197D01*
X2734Y30187D01*
X2735Y30186D01*
X3886Y29035D01*
X3889Y29033D01*
X3892Y29030D01*
X3894Y29029D01*
X3895Y29028D01*
X3899Y29026D01*
X3903Y29024D01*
X3905Y29024D01*
X3907Y29023D01*
X3919Y29021D01*
X3920Y29021D01*
X6250Y29021D01*
X6477Y28794D01*
X6480Y28791D01*
X6483Y28789D01*
X6485Y28788D01*
X6487Y28786D01*
X6490Y28785D01*
X6494Y28783D01*
X6496Y28783D01*
X6498Y28782D01*
X6510Y28780D01*
X6511Y28780D01*
X6512Y28780D01*
X6596Y28780D01*
X6680Y28745D01*
X6745Y28680D01*
X6780Y28596D01*
X6780Y28504D01*
X6745Y28420D01*
X6680Y28355D01*
X6596Y28320D01*
X6504Y28320D01*
G37*
%LPD*%
G36*
X10004Y36045D02*
X10004Y36045D01*
X10010Y36045D01*
X10011Y36045D01*
X10016Y36047D01*
X10022Y36049D01*
X10022Y36050D01*
X10027Y36053D01*
X10032Y36056D01*
X10033Y36057D01*
X10036Y36061D01*
X10040Y36065D01*
X10041Y36066D01*
X10042Y36068D01*
X10042Y36069D01*
X10043Y36071D01*
X10046Y36076D01*
X10046Y36077D01*
X10047Y36079D01*
X10048Y36082D01*
X10049Y36089D01*
X10049Y36090D01*
X10049Y36091D01*
X10049Y36093D01*
X10049Y36094D01*
X10049Y38780D01*
X10049Y38785D01*
X10048Y38790D01*
X10048Y38791D01*
X10048Y38792D01*
X10046Y38797D01*
X10044Y38802D01*
X10044Y38803D01*
X10043Y38804D01*
X10040Y38808D01*
X10037Y38812D01*
X10036Y38813D01*
X10036Y38814D01*
X10032Y38817D01*
X10028Y38820D01*
X10027Y38821D01*
X10026Y38822D01*
X10022Y38824D01*
X10017Y38826D01*
X10016Y38826D01*
X10015Y38827D01*
X10003Y38829D01*
X10001Y38829D01*
X10000Y38829D01*
X7500Y38829D01*
X7415Y38914D01*
X7246Y39083D01*
X7244Y39085D01*
X7242Y39087D01*
X7239Y39089D01*
X7236Y39091D01*
X7233Y39092D01*
X7231Y39094D01*
X7228Y39095D01*
X7225Y39096D01*
X7222Y39096D01*
X7219Y39097D01*
X7216Y39097D01*
X7212Y39098D01*
X7210Y39097D01*
X7207Y39098D01*
X7203Y39097D01*
X7200Y39097D01*
X7197Y39096D01*
X7195Y39095D01*
X7192Y39093D01*
X7188Y39092D01*
X7186Y39091D01*
X7184Y39089D01*
X7181Y39087D01*
X7178Y39085D01*
X7176Y39083D01*
X7174Y39081D01*
X7172Y39078D01*
X7170Y39076D01*
X7169Y39073D01*
X7167Y39071D01*
X7166Y39068D01*
X7165Y39065D01*
X7164Y39062D01*
X7163Y39059D01*
X7163Y39056D01*
X7162Y39052D01*
X7162Y39050D01*
X7162Y39047D01*
X7162Y39045D01*
X7163Y39040D01*
X7165Y39032D01*
X7166Y39030D01*
X7180Y38996D01*
X7180Y38909D01*
X7180Y38905D01*
X7180Y38901D01*
X7181Y38899D01*
X7181Y38897D01*
X7183Y38893D01*
X7184Y38889D01*
X7185Y38888D01*
X7186Y38885D01*
X7193Y38875D01*
X7194Y38875D01*
X7194Y38874D01*
X9965Y36059D01*
X9969Y36056D01*
X9971Y36053D01*
X9972Y36053D01*
X9974Y36052D01*
X9975Y36051D01*
X9980Y36049D01*
X9981Y36049D01*
X9982Y36048D01*
X9983Y36048D01*
X9985Y36047D01*
X9986Y36046D01*
X9992Y36045D01*
X9997Y36044D01*
X9998Y36044D01*
X10004Y36045D01*
G37*
%LPC*%
G36*
X19634Y40570D02*
X19634Y40570D01*
X19550Y40605D01*
X19485Y40670D01*
X19450Y40754D01*
X19450Y40846D01*
X19485Y40930D01*
X19550Y40995D01*
X19634Y41030D01*
X19718Y41030D01*
X19723Y41030D01*
X19727Y41030D01*
X19729Y41031D01*
X19731Y41031D01*
X19735Y41033D01*
X19739Y41034D01*
X19740Y41035D01*
X19742Y41036D01*
X19752Y41043D01*
X19753Y41044D01*
X20776Y42067D01*
X20779Y42070D01*
X20781Y42073D01*
X20782Y42075D01*
X20784Y42077D01*
X20785Y42080D01*
X20787Y42084D01*
X20787Y42086D01*
X20788Y42088D01*
X20790Y42099D01*
X20790Y42100D01*
X20790Y42101D01*
X20790Y42102D01*
X20790Y42176D01*
X20825Y42260D01*
X20890Y42325D01*
X20974Y42360D01*
X21066Y42360D01*
X21150Y42325D01*
X21215Y42260D01*
X21250Y42176D01*
X21250Y42084D01*
X21215Y42000D01*
X21150Y41935D01*
X21066Y41900D01*
X20972Y41900D01*
X20967Y41900D01*
X20963Y41900D01*
X20961Y41899D01*
X20959Y41899D01*
X20955Y41897D01*
X20951Y41896D01*
X20950Y41895D01*
X20948Y41894D01*
X20938Y41887D01*
X20937Y41886D01*
X19924Y40873D01*
X19921Y40870D01*
X19919Y40867D01*
X19918Y40865D01*
X19916Y40863D01*
X19915Y40860D01*
X19913Y40856D01*
X19913Y40854D01*
X19912Y40852D01*
X19910Y40840D01*
X19910Y40839D01*
X19910Y40838D01*
X19910Y40754D01*
X19875Y40670D01*
X19810Y40605D01*
X19726Y40570D01*
X19634Y40570D01*
G37*
%LPD*%
%LPC*%
G36*
X5404Y20460D02*
X5404Y20460D01*
X5320Y20495D01*
X5255Y20560D01*
X5220Y20644D01*
X5220Y20736D01*
X5255Y20820D01*
X5280Y20845D01*
X5283Y20849D01*
X5287Y20853D01*
X5287Y20854D01*
X5288Y20855D01*
X5290Y20860D01*
X5292Y20864D01*
X5292Y20865D01*
X5293Y20866D01*
X5294Y20871D01*
X5295Y20876D01*
X5295Y20877D01*
X5295Y20879D01*
X5294Y20884D01*
X5294Y20889D01*
X5294Y20890D01*
X5294Y20891D01*
X5292Y20896D01*
X5290Y20900D01*
X5290Y20901D01*
X5289Y20903D01*
X5282Y20913D01*
X5281Y20914D01*
X5280Y20915D01*
X5255Y20940D01*
X5220Y21024D01*
X5220Y21116D01*
X5255Y21200D01*
X5320Y21265D01*
X5404Y21300D01*
X5496Y21300D01*
X5580Y21265D01*
X5605Y21240D01*
X5609Y21237D01*
X5613Y21233D01*
X5614Y21233D01*
X5615Y21232D01*
X5620Y21230D01*
X5624Y21228D01*
X5625Y21228D01*
X5626Y21227D01*
X5631Y21226D01*
X5636Y21225D01*
X5637Y21225D01*
X5639Y21225D01*
X5644Y21226D01*
X5649Y21226D01*
X5650Y21226D01*
X5651Y21226D01*
X5656Y21228D01*
X5660Y21230D01*
X5661Y21230D01*
X5663Y21231D01*
X5673Y21238D01*
X5674Y21239D01*
X5675Y21240D01*
X5700Y21265D01*
X5784Y21300D01*
X5876Y21300D01*
X5960Y21265D01*
X6025Y21200D01*
X6060Y21116D01*
X6060Y21024D01*
X6025Y20940D01*
X6000Y20915D01*
X5997Y20911D01*
X5993Y20907D01*
X5993Y20906D01*
X5992Y20905D01*
X5990Y20900D01*
X5988Y20896D01*
X5988Y20895D01*
X5987Y20894D01*
X5986Y20889D01*
X5985Y20884D01*
X5985Y20883D01*
X5985Y20881D01*
X5986Y20876D01*
X5986Y20871D01*
X5986Y20870D01*
X5986Y20869D01*
X5988Y20864D01*
X5990Y20860D01*
X5990Y20859D01*
X5991Y20857D01*
X5998Y20847D01*
X5999Y20846D01*
X6000Y20845D01*
X6025Y20820D01*
X6060Y20736D01*
X6060Y20644D01*
X6025Y20560D01*
X5960Y20495D01*
X5876Y20460D01*
X5784Y20460D01*
X5700Y20495D01*
X5675Y20520D01*
X5671Y20523D01*
X5667Y20527D01*
X5666Y20527D01*
X5665Y20528D01*
X5660Y20530D01*
X5656Y20532D01*
X5655Y20532D01*
X5654Y20533D01*
X5649Y20534D01*
X5644Y20535D01*
X5643Y20535D01*
X5641Y20535D01*
X5636Y20534D01*
X5631Y20534D01*
X5630Y20534D01*
X5629Y20534D01*
X5624Y20532D01*
X5620Y20530D01*
X5619Y20530D01*
X5617Y20529D01*
X5607Y20522D01*
X5606Y20521D01*
X5605Y20520D01*
X5580Y20495D01*
X5496Y20460D01*
X5404Y20460D01*
G37*
%LPD*%
%LPC*%
G36*
X25064Y47500D02*
X25064Y47500D01*
X24980Y47535D01*
X24915Y47600D01*
X24880Y47684D01*
X24880Y47776D01*
X24915Y47860D01*
X24980Y47925D01*
X25064Y47960D01*
X25156Y47960D01*
X25240Y47925D01*
X25305Y47860D01*
X25340Y47776D01*
X25340Y47684D01*
X25305Y47600D01*
X25240Y47535D01*
X25156Y47500D01*
X25064Y47500D01*
G37*
%LPD*%
%LPC*%
G36*
X6094Y46900D02*
X6094Y46900D01*
X6010Y46935D01*
X5945Y47000D01*
X5910Y47084D01*
X5910Y47176D01*
X5945Y47260D01*
X6010Y47325D01*
X6094Y47360D01*
X6186Y47360D01*
X6270Y47325D01*
X6335Y47260D01*
X6370Y47176D01*
X6370Y47084D01*
X6335Y47000D01*
X6270Y46935D01*
X6186Y46900D01*
X6094Y46900D01*
G37*
%LPD*%
%LPC*%
G36*
X5684Y44140D02*
X5684Y44140D01*
X5600Y44175D01*
X5535Y44240D01*
X5500Y44324D01*
X5500Y44416D01*
X5535Y44500D01*
X5600Y44565D01*
X5684Y44600D01*
X5776Y44600D01*
X5860Y44565D01*
X5925Y44500D01*
X5960Y44416D01*
X5960Y44324D01*
X5925Y44240D01*
X5860Y44175D01*
X5776Y44140D01*
X5684Y44140D01*
G37*
%LPD*%
%LPC*%
G36*
X12794Y39560D02*
X12794Y39560D01*
X12710Y39595D01*
X12645Y39660D01*
X12610Y39744D01*
X12610Y39836D01*
X12645Y39920D01*
X12710Y39985D01*
X12794Y40020D01*
X12886Y40020D01*
X12970Y39985D01*
X13035Y39920D01*
X13070Y39836D01*
X13070Y39744D01*
X13035Y39660D01*
X12970Y39595D01*
X12886Y39560D01*
X12794Y39560D01*
G37*
%LPD*%
%LPC*%
G36*
X8504Y25450D02*
X8504Y25450D01*
X8420Y25485D01*
X8355Y25550D01*
X8320Y25634D01*
X8320Y25726D01*
X8355Y25810D01*
X8420Y25875D01*
X8504Y25910D01*
X8596Y25910D01*
X8680Y25875D01*
X8745Y25810D01*
X8780Y25726D01*
X8780Y25634D01*
X8745Y25550D01*
X8680Y25485D01*
X8596Y25450D01*
X8504Y25450D01*
G37*
%LPD*%
%LPC*%
G36*
X13954Y23800D02*
X13954Y23800D01*
X13870Y23835D01*
X13805Y23900D01*
X13770Y23984D01*
X13770Y24076D01*
X13805Y24160D01*
X13870Y24225D01*
X13954Y24260D01*
X14046Y24260D01*
X14130Y24225D01*
X14195Y24160D01*
X14230Y24076D01*
X14230Y23984D01*
X14195Y23900D01*
X14130Y23835D01*
X14046Y23800D01*
X13954Y23800D01*
G37*
%LPD*%
%LPC*%
G36*
X11744Y23320D02*
X11744Y23320D01*
X11660Y23355D01*
X11595Y23420D01*
X11560Y23504D01*
X11560Y23596D01*
X11595Y23680D01*
X11660Y23745D01*
X11744Y23780D01*
X11836Y23780D01*
X11920Y23745D01*
X11985Y23680D01*
X12020Y23596D01*
X12020Y23504D01*
X11985Y23420D01*
X11920Y23355D01*
X11836Y23320D01*
X11744Y23320D01*
G37*
%LPD*%
D10*
X4600Y38441D03*
X4600Y37441D03*
X4600Y36441D03*
X4600Y35441D03*
X4600Y34441D03*
X4600Y33441D03*
X4600Y32441D03*
X4600Y31441D03*
X4600Y30441D03*
X10600Y30441D03*
X10600Y31441D03*
X10600Y32441D03*
X10600Y33441D03*
X10600Y34441D03*
X10600Y35441D03*
X10600Y36441D03*
X10600Y37441D03*
X10600Y38441D03*
X19226Y38425D03*
X19226Y37425D03*
X19226Y36425D03*
X19226Y35425D03*
X19226Y34425D03*
X19226Y33425D03*
X19226Y32425D03*
X19226Y31425D03*
X19226Y30425D03*
X25226Y30425D03*
X25226Y31425D03*
X25226Y32425D03*
X25226Y33425D03*
X25226Y34425D03*
X25226Y35425D03*
X25226Y36425D03*
X25226Y37425D03*
X25226Y38425D03*
D11*
X13250Y22700D03*
X12650Y23550D03*
X10950Y23600D03*
X10200Y22100D03*
X10200Y23050D03*
X6400Y21200D03*
X11350Y27400D03*
X7350Y26250D03*
X3900Y24300D03*
X2900Y29050D03*
X4100Y43950D03*
X4700Y43750D03*
X7550Y39700D03*
X10250Y40900D03*
X10850Y39800D03*
X23300Y47750D03*
X25700Y46200D03*
X25700Y45750D03*
X7353Y28113D03*
X15200Y25050D03*
X20680Y31030D03*
X8270Y27710D03*
X14520Y23510D03*
X6160Y43650D03*
X9650Y38500D03*
X15150Y39850D03*
X8300Y43200D03*
X13400Y8800D03*
D12*
X13400Y20000D01*
D11*
X5450Y21070D03*
X5830Y21070D03*
X5830Y20690D03*
X5450Y20690D03*
X25110Y47730D03*
X12840Y39790D03*
X9020Y40060D03*
X10570Y44480D03*
X6140Y47130D03*
X5730Y44370D03*
X6550Y39600D03*
X21489Y29750D03*
X11790Y23550D03*
X14000Y24030D03*
X8550Y25680D03*
X9440Y28860D03*
X13970Y9360D03*
X8250Y43661D03*
D13*
X8931Y43661D01*
X9400Y44130D02*
X9410Y44130D01*
X9400Y44130D02*
X9391Y44130D01*
X9390Y44131D01*
D11*
X9390Y44131D03*
D13*
X9400Y44130D02*
X8931Y43661D01*
D11*
X6950Y42470D03*
D13*
X5300Y38916D02*
X5300Y30900D01*
X5300Y38916D02*
X4671Y39544D01*
D11*
X5300Y30900D03*
D13*
X4671Y40491D02*
X5960Y41780D01*
X6480Y41780D01*
X6950Y42250D02*
X6950Y42470D01*
X4671Y40491D02*
X4671Y39544D01*
X6480Y41780D02*
X6950Y42250D01*
D11*
X19680Y40800D03*
D13*
X21010Y42130D01*
X21020Y42130D01*
D11*
X21020Y42130D03*
X7050Y45050D03*
X6550Y28550D03*
D13*
X6200Y28900D01*
X3850Y28900D02*
X2600Y30150D01*
X3850Y28900D02*
X6200Y28900D01*
X3550Y43050D02*
X3550Y44400D01*
X4200Y45050D01*
X2600Y42100D02*
X2600Y30150D01*
X2600Y42100D02*
X3550Y43050D01*
X4200Y45050D02*
X7050Y45050D01*
D11*
X22300Y31500D03*
D13*
X20600Y33200D01*
X20600Y37550D01*
D11*
X5900Y39200D03*
D13*
X7250Y39250D02*
X7550Y38950D01*
X7250Y39250D02*
X6460Y39250D01*
X6410Y39200D01*
X5900Y39200D01*
X11230Y38560D02*
X16980Y38560D01*
X10840Y38950D02*
X7550Y38950D01*
X10840Y38950D02*
X11230Y38560D01*
X16980Y38560D02*
X17590Y37950D01*
X20200Y37950D02*
X20600Y37550D01*
X20200Y37950D02*
X17590Y37950D01*
D11*
X7650Y43600D03*
D13*
X7650Y41394D01*
X5621Y39366D01*
X5621Y31479D01*
X7950Y29150D01*
X9950Y29150D01*
X10000Y29200D01*
X10050Y29250D01*
D11*
X10000Y29200D03*
X7350Y43300D03*
D13*
X7371Y43716D02*
X7534Y43879D01*
X7766Y43879D01*
X7929Y43716D01*
X7371Y43321D02*
X7350Y43300D01*
X7371Y43321D02*
X7371Y43716D01*
X7929Y43716D02*
X7929Y43021D01*
X8197Y42753D01*
X16538Y42753D01*
X20770Y38520D01*
X20770Y34180D01*
X23350Y31600D01*
D11*
X23350Y31600D03*
X5200Y39410D03*
X9640Y29700D03*
X6350Y42550D03*
D13*
X3120Y39320D01*
X3120Y30750D01*
X4370Y29500D01*
X5870Y29500D02*
X6070Y29700D01*
X6900Y29700D01*
X5870Y29500D02*
X4370Y29500D01*
X6900Y29700D02*
X8050Y28550D01*
X10250Y28550D01*
D11*
X11050Y29350D03*
D13*
X10250Y28550D01*
D11*
X6400Y42150D03*
D13*
X6629Y42434D02*
X6629Y42666D01*
X6400Y42206D02*
X6400Y42150D01*
X6400Y42206D02*
X6629Y42434D01*
X6629Y42666D02*
X6344Y42950D01*
X5100Y42950D01*
X2950Y40800D02*
X2950Y30680D01*
X2950Y40800D02*
X5100Y42950D01*
X6170Y29530D02*
X6830Y29530D01*
X5970Y29330D02*
X4300Y29330D01*
X5970Y29330D02*
X6170Y29530D01*
X7980Y28380D02*
X10570Y28380D01*
X7980Y28380D02*
X6830Y29530D01*
X4300Y29330D02*
X2950Y30680D01*
X10570Y28380D02*
X11290Y29100D01*
X11300Y29100D01*
X11300Y29066D01*
X11292Y29058D01*
D11*
X11292Y29058D03*
X10580Y29340D03*
X5520Y39680D03*
X4950Y39760D03*
X5100Y29800D03*
X25600Y29300D03*
X24450Y32450D03*
X4111Y39680D03*
X5650Y29800D03*
X14050Y8050D03*
X14650Y8650D03*
X9770Y41800D03*
D13*
X8720Y41800D01*
X8046Y42474D01*
X8040Y42480D01*
D11*
X8046Y42474D03*
X8000Y41650D03*
D13*
X9200Y40450D01*
X17950Y40450D01*
X19000Y39400D01*
D11*
X19000Y39400D03*
X18650Y29300D03*
X6950Y38950D03*
D13*
X13700Y32150D02*
X13700Y26850D01*
X10073Y35191D02*
X10073Y35777D01*
X10073Y35191D02*
X10300Y34964D01*
X10886Y34964D01*
X10073Y35777D02*
X6950Y38950D01*
X10886Y34964D02*
X13700Y32150D01*
D11*
X13700Y26850D03*
M02*
