G04 EAGLE Gerber X2 export*
%TF.Part,Single*%
%TF.FileFunction,Copper,L3,Inr,Mixed*%
%TF.FilePolarity,Positive*%
%TF.GenerationSoftware,Autodesk,EAGLE,9.0.1*%
%TF.CreationDate,2018-06-26T08:14:36Z*%
G75*
%MOIN*%
%FSLAX34Y34*%
%LPD*%
%AMOC8*
5,1,8,0,0,1.08239X$1,22.5*%
G01*
%ADD10C,0.059370*%
%ADD11C,0.029780*%
%ADD12C,0.030000*%
%ADD13C,0.020000*%

G36*
X28057Y19201D02*
X28057Y19201D01*
X28063Y19202D01*
X28069Y19202D01*
X28075Y19205D01*
X28080Y19207D01*
X28081Y19207D01*
X28086Y19211D01*
X28091Y19214D01*
X28091Y19215D01*
X28095Y19219D01*
X28098Y19224D01*
X28099Y19224D01*
X28101Y19230D01*
X28104Y19235D01*
X28104Y19236D01*
X28104Y19237D01*
X28106Y19247D01*
X28106Y19251D01*
X28106Y19253D01*
X28104Y19288D01*
X28090Y19503D01*
X28068Y19856D01*
X28052Y20113D01*
X28048Y20179D01*
X28046Y20214D01*
X28030Y20473D01*
X28014Y20731D01*
X28013Y20742D01*
X28008Y20832D01*
X27990Y21110D01*
X27973Y21397D01*
X27973Y21398D01*
X27950Y21697D01*
X27949Y21698D01*
X27949Y21699D01*
X27916Y21995D01*
X27916Y21996D01*
X27916Y21997D01*
X27872Y22291D01*
X27872Y22292D01*
X27872Y22293D01*
X27818Y22586D01*
X27818Y22587D01*
X27753Y22878D01*
X27753Y22879D01*
X27753Y22880D01*
X27678Y23168D01*
X27678Y23169D01*
X27678Y23170D01*
X27593Y23455D01*
X27593Y23456D01*
X27593Y23457D01*
X27497Y23739D01*
X27497Y23740D01*
X27497Y23741D01*
X27392Y24019D01*
X27391Y24020D01*
X27391Y24021D01*
X27276Y24296D01*
X27276Y24297D01*
X27151Y24568D01*
X27151Y24569D01*
X27150Y24569D01*
X27030Y24808D01*
X27023Y24818D01*
X27023Y24819D01*
X27022Y24819D01*
X27019Y24823D01*
X27010Y24847D01*
X27008Y24851D01*
X27007Y24853D01*
X26996Y24876D01*
X26995Y24881D01*
X26993Y24894D01*
X26992Y24895D01*
X26991Y24900D01*
X26992Y24926D01*
X26991Y24930D01*
X26992Y24932D01*
X26990Y24958D01*
X26991Y24963D01*
X26994Y24975D01*
X26994Y24976D01*
X26994Y24982D01*
X27005Y25005D01*
X27006Y25009D01*
X27007Y25011D01*
X27015Y25035D01*
X27019Y25040D01*
X27026Y25050D01*
X27026Y25051D01*
X27029Y25056D01*
X27048Y25073D01*
X27049Y25075D01*
X27050Y25077D01*
X27052Y25078D01*
X27069Y25097D01*
X27074Y25100D01*
X27084Y25107D01*
X27085Y25108D01*
X27277Y25284D01*
X27278Y25285D01*
X27279Y25286D01*
X27486Y25491D01*
X27487Y25492D01*
X27487Y25493D01*
X27687Y25706D01*
X27687Y25707D01*
X27688Y25707D01*
X27879Y25928D01*
X27879Y25929D01*
X27880Y25930D01*
X28062Y26158D01*
X28063Y26159D01*
X28237Y26394D01*
X28237Y26395D01*
X28238Y26396D01*
X28402Y26637D01*
X28403Y26638D01*
X28403Y26639D01*
X28448Y26710D01*
X28558Y26886D01*
X28559Y26887D01*
X28559Y26888D01*
X28704Y27141D01*
X28705Y27142D01*
X28705Y27143D01*
X28841Y27401D01*
X28841Y27402D01*
X28841Y27403D01*
X28967Y27666D01*
X28967Y27668D01*
X29082Y27936D01*
X29083Y27938D01*
X29187Y28211D01*
X29188Y28212D01*
X29282Y28489D01*
X29282Y28490D01*
X29282Y28491D01*
X29365Y28770D01*
X29365Y28771D01*
X29365Y28772D01*
X29437Y29055D01*
X29437Y29056D01*
X29438Y29057D01*
X29498Y29342D01*
X29498Y29343D01*
X29499Y29344D01*
X29548Y29632D01*
X29548Y29633D01*
X29548Y29634D01*
X29586Y29923D01*
X29586Y29924D01*
X29586Y29925D01*
X29613Y30215D01*
X29613Y30216D01*
X29613Y30217D01*
X29616Y30279D01*
X29619Y30329D01*
X29628Y30509D01*
X29628Y30510D01*
X29628Y30511D01*
X29632Y30802D01*
X29632Y30803D01*
X29632Y30804D01*
X29624Y31096D01*
X29624Y31097D01*
X29624Y31098D01*
X29605Y31389D01*
X29605Y31390D01*
X29605Y31391D01*
X29575Y31681D01*
X29575Y31682D01*
X29575Y31683D01*
X29534Y31975D01*
X29533Y31975D01*
X29533Y31976D01*
X29493Y32224D01*
X29485Y32272D01*
X29477Y32324D01*
X29428Y32625D01*
X29382Y32909D01*
X29330Y33228D01*
X29297Y33429D01*
X29290Y33474D01*
X29281Y33529D01*
X29233Y33820D01*
X29183Y34131D01*
X29134Y34432D01*
X29085Y34733D01*
X29052Y34935D01*
X29043Y34988D01*
X29036Y35035D01*
X29003Y35236D01*
X28999Y35259D01*
X28987Y35336D01*
X28946Y35584D01*
X28905Y35838D01*
X28898Y35880D01*
X28889Y35938D01*
X28846Y36203D01*
X28807Y36440D01*
X28799Y36492D01*
X28791Y36541D01*
X28749Y36797D01*
X28708Y37047D01*
X28705Y37056D01*
X28700Y37095D01*
X28700Y37096D01*
X28700Y37097D01*
X28694Y37136D01*
X28694Y37140D01*
X28694Y37141D01*
X28695Y37147D01*
X28694Y37152D01*
X28694Y37155D01*
X28664Y37356D01*
X28663Y37358D01*
X28663Y37359D01*
X28616Y37584D01*
X28606Y37633D01*
X28595Y37683D01*
X28582Y37745D01*
X28519Y38047D01*
X28453Y38358D01*
X28402Y38602D01*
X28400Y38610D01*
X28381Y38701D01*
X28317Y39004D01*
X28260Y39277D01*
X28211Y39510D01*
X28207Y39529D01*
X28190Y39609D01*
X28131Y39888D01*
X28070Y40181D01*
X27999Y40516D01*
X27938Y40808D01*
X27872Y41121D01*
X27811Y41408D01*
X27765Y41627D01*
X27758Y41662D01*
X27744Y41726D01*
X27691Y41981D01*
X27617Y42331D01*
X27553Y42634D01*
X27494Y42914D01*
X27426Y43239D01*
X27362Y43541D01*
X27299Y43844D01*
X27235Y44147D01*
X27192Y44350D01*
X27183Y44393D01*
X27171Y44449D01*
X27117Y44708D01*
X27065Y44955D01*
X27055Y45002D01*
X27044Y45054D01*
X26984Y45339D01*
X26938Y45560D01*
X26931Y45590D01*
X26917Y45659D01*
X26874Y45863D01*
X26866Y45901D01*
X26853Y45962D01*
X26797Y46226D01*
X26747Y46467D01*
X26745Y46472D01*
X26726Y46567D01*
X26662Y46869D01*
X26598Y47172D01*
X26546Y47421D01*
X26492Y47678D01*
X26477Y47748D01*
X26471Y47777D01*
X26417Y48034D01*
X26364Y48283D01*
X26351Y48348D01*
X26344Y48382D01*
X26293Y48624D01*
X26292Y48627D01*
X26292Y48628D01*
X26216Y48881D01*
X26213Y48886D01*
X26212Y48889D01*
X26099Y49112D01*
X26095Y49118D01*
X26094Y49120D01*
X25942Y49319D01*
X25937Y49323D01*
X25936Y49325D01*
X25749Y49493D01*
X25744Y49497D01*
X25742Y49499D01*
X25529Y49631D01*
X25523Y49634D01*
X25521Y49635D01*
X25287Y49729D01*
X25281Y49730D01*
X25278Y49731D01*
X25031Y49782D01*
X25025Y49783D01*
X25023Y49783D01*
X24771Y49791D01*
X24765Y49790D01*
X24762Y49790D01*
X24514Y49753D01*
X24508Y49751D01*
X24505Y49750D01*
X24269Y49669D01*
X24263Y49666D01*
X24260Y49665D01*
X24042Y49542D01*
X24037Y49538D01*
X24035Y49537D01*
X23831Y49369D01*
X23830Y49367D01*
X23828Y49366D01*
X23653Y49193D01*
X23597Y49139D01*
X23580Y49122D01*
X23376Y48923D01*
X23213Y48763D01*
X23148Y48698D01*
X23147Y48698D01*
X23141Y48692D01*
X22994Y48547D01*
X22964Y48518D01*
X22921Y48476D01*
X22740Y48299D01*
X22554Y48117D01*
X22530Y48092D01*
X22482Y48046D01*
X22284Y47851D01*
X22115Y47686D01*
X22087Y47659D01*
X22043Y47615D01*
X21871Y47446D01*
X21676Y47255D01*
X21625Y47205D01*
X21603Y47184D01*
X21456Y47040D01*
X21420Y47004D01*
X21384Y46969D01*
X21186Y46775D01*
X21017Y46609D01*
X20968Y46561D01*
X20944Y46538D01*
X20725Y46323D01*
X20555Y46157D01*
X20358Y45963D01*
X20326Y45932D01*
X20285Y45892D01*
X20086Y45697D01*
X19919Y45532D01*
X19894Y45508D01*
X19846Y45461D01*
X19663Y45281D01*
X19479Y45102D01*
X19260Y44886D01*
X19227Y44854D01*
X19187Y44815D01*
X19006Y44637D01*
X18820Y44456D01*
X18767Y44403D01*
X18748Y44385D01*
X18601Y44240D01*
X18536Y44177D01*
X18528Y44169D01*
X18342Y43987D01*
X18126Y43775D01*
X18126Y43774D01*
X18097Y43746D01*
X18059Y43731D01*
X18059Y43730D01*
X18021Y43715D01*
X17980Y43715D01*
X11890Y43715D01*
X11889Y43715D01*
X11849Y43715D01*
X11811Y43730D01*
X11811Y43731D01*
X11773Y43746D01*
X11744Y43775D01*
X11561Y43954D01*
X11535Y43979D01*
X11489Y44025D01*
X11310Y44200D01*
X11122Y44385D01*
X11105Y44401D01*
X11049Y44456D01*
X10830Y44671D01*
X10682Y44815D01*
X10622Y44874D01*
X10610Y44886D01*
X10390Y45102D01*
X10243Y45246D01*
X10206Y45283D01*
X10171Y45317D01*
X10023Y45461D01*
X10020Y45464D01*
X10020Y45465D01*
X9951Y45532D01*
X9951Y45533D01*
X9781Y45699D01*
X9584Y45892D01*
X9547Y45929D01*
X9512Y45963D01*
X9365Y46108D01*
X9358Y46114D01*
X9292Y46179D01*
X9094Y46373D01*
X8925Y46538D01*
X8882Y46581D01*
X8853Y46609D01*
X8706Y46754D01*
X8456Y46998D01*
X8266Y47184D01*
X8219Y47230D01*
X8194Y47255D01*
X8047Y47400D01*
X7827Y47615D01*
X7784Y47657D01*
X7755Y47686D01*
X7560Y47877D01*
X7388Y48046D01*
X7334Y48099D01*
X7315Y48117D01*
X7142Y48287D01*
X6949Y48476D01*
X6915Y48509D01*
X6876Y48547D01*
X6729Y48692D01*
X6693Y48727D01*
X6656Y48763D01*
X6453Y48962D01*
X6290Y49122D01*
X6284Y49127D01*
X6284Y49128D01*
X6217Y49193D01*
X6217Y49194D01*
X6042Y49365D01*
X6040Y49367D01*
X6039Y49368D01*
X5825Y49544D01*
X5819Y49547D01*
X5817Y49549D01*
X5587Y49675D01*
X5580Y49678D01*
X5578Y49679D01*
X5328Y49759D01*
X5322Y49760D01*
X5319Y49761D01*
X5057Y49792D01*
X5051Y49792D01*
X5048Y49793D01*
X4804Y49778D01*
X4798Y49777D01*
X4795Y49777D01*
X4555Y49720D01*
X4550Y49718D01*
X4547Y49717D01*
X4321Y49621D01*
X4316Y49618D01*
X4314Y49617D01*
X4107Y49484D01*
X4103Y49480D01*
X4101Y49478D01*
X3922Y49312D01*
X3918Y49307D01*
X3916Y49305D01*
X3769Y49109D01*
X3766Y49104D01*
X3765Y49102D01*
X3655Y48883D01*
X3653Y48877D01*
X3652Y48875D01*
X3578Y48628D01*
X3578Y48626D01*
X3577Y48624D01*
X3527Y48387D01*
X3526Y48384D01*
X3506Y48288D01*
X3464Y48089D01*
X3455Y48048D01*
X3443Y47990D01*
X3380Y47693D01*
X3317Y47395D01*
X3275Y47197D01*
X3204Y46861D01*
X3128Y46503D01*
X3086Y46305D01*
X3075Y46253D01*
X3065Y46205D01*
X3009Y45941D01*
X2939Y45611D01*
X2897Y45412D01*
X2893Y45392D01*
X2876Y45313D01*
X2813Y45016D01*
X2763Y44778D01*
X2690Y44437D01*
X2645Y44223D01*
X2635Y44176D01*
X2624Y44123D01*
X2570Y43872D01*
X2519Y43628D01*
X2509Y43582D01*
X2498Y43529D01*
X2456Y43330D01*
X2444Y43276D01*
X2435Y43231D01*
X2381Y42979D01*
X2330Y42735D01*
X2316Y42672D01*
X2309Y42636D01*
X2246Y42339D01*
X2186Y42059D01*
X2141Y41843D01*
X2136Y41821D01*
X2120Y41744D01*
X2065Y41486D01*
X2015Y41248D01*
X2005Y41200D01*
X1994Y41149D01*
X1940Y40895D01*
X1889Y40653D01*
X1877Y40600D01*
X1868Y40554D01*
X1813Y40296D01*
X1742Y39959D01*
X1700Y39761D01*
X1689Y39712D01*
X1679Y39662D01*
X1630Y39430D01*
X1562Y39109D01*
X1511Y38869D01*
X1502Y38829D01*
X1490Y38769D01*
X1448Y38571D01*
X1427Y38472D01*
X1383Y38267D01*
X1382Y38255D01*
X1373Y38220D01*
X1373Y38219D01*
X1373Y38218D01*
X1365Y38183D01*
X1362Y38176D01*
X1361Y38173D01*
X1361Y38172D01*
X1296Y37927D01*
X1296Y37926D01*
X1296Y37925D01*
X1232Y37640D01*
X1232Y37639D01*
X1231Y37638D01*
X1179Y37348D01*
X1179Y37347D01*
X1154Y37197D01*
X1154Y37184D01*
X1147Y37149D01*
X1146Y37148D01*
X1146Y37147D01*
X1142Y37121D01*
X1141Y37108D01*
X1142Y37107D01*
X1142Y37106D01*
X1142Y37105D01*
X1135Y37075D01*
X1134Y37073D01*
X1134Y37071D01*
X1095Y36831D01*
X1084Y36767D01*
X1078Y36731D01*
X1046Y36531D01*
X989Y36183D01*
X945Y35913D01*
X899Y35629D01*
X891Y35576D01*
X883Y35529D01*
X850Y35329D01*
X801Y35028D01*
X791Y34965D01*
X785Y34928D01*
X748Y34699D01*
X704Y34427D01*
X695Y34376D01*
X687Y34327D01*
X655Y34127D01*
X650Y34098D01*
X638Y34027D01*
X606Y33826D01*
X555Y33516D01*
X508Y33225D01*
X498Y33164D01*
X492Y33125D01*
X459Y32924D01*
X446Y32847D01*
X443Y32824D01*
X404Y32583D01*
X361Y32323D01*
X305Y31975D01*
X304Y31975D01*
X263Y31683D01*
X263Y31682D01*
X263Y31681D01*
X233Y31391D01*
X233Y31390D01*
X233Y31389D01*
X214Y31098D01*
X214Y31097D01*
X214Y31096D01*
X206Y30805D01*
X206Y30804D01*
X206Y30803D01*
X210Y30511D01*
X210Y30510D01*
X210Y30509D01*
X225Y30218D01*
X225Y30217D01*
X252Y29926D01*
X252Y29925D01*
X252Y29924D01*
X290Y29635D01*
X290Y29634D01*
X290Y29633D01*
X339Y29346D01*
X339Y29345D01*
X339Y29344D01*
X400Y29059D01*
X400Y29058D01*
X400Y29057D01*
X472Y28774D01*
X472Y28773D01*
X555Y28493D01*
X555Y28492D01*
X556Y28491D01*
X649Y28215D01*
X650Y28214D01*
X650Y28213D01*
X754Y27941D01*
X754Y27940D01*
X755Y27939D01*
X869Y27671D01*
X870Y27670D01*
X870Y27669D01*
X995Y27406D01*
X996Y27405D01*
X996Y27404D01*
X1131Y27145D01*
X1132Y27144D01*
X1277Y26891D01*
X1278Y26890D01*
X1278Y26889D01*
X1433Y26642D01*
X1433Y26641D01*
X1434Y26640D01*
X1598Y26399D01*
X1598Y26398D01*
X1599Y26397D01*
X1772Y26163D01*
X1773Y26162D01*
X1773Y26161D01*
X1955Y25933D01*
X1956Y25932D01*
X2147Y25711D01*
X2148Y25710D01*
X2148Y25709D01*
X2347Y25496D01*
X2348Y25495D01*
X2555Y25289D01*
X2556Y25288D01*
X2557Y25288D01*
X2749Y25111D01*
X2759Y25104D01*
X2760Y25103D01*
X2765Y25101D01*
X2782Y25081D01*
X2785Y25079D01*
X2785Y25078D01*
X2786Y25077D01*
X2805Y25059D01*
X2808Y25054D01*
X2814Y25044D01*
X2815Y25043D01*
X2819Y25038D01*
X2827Y25014D01*
X2828Y25010D01*
X2829Y25008D01*
X2840Y24985D01*
X2840Y24979D01*
X2842Y24967D01*
X2842Y24966D01*
X2844Y24961D01*
X2842Y24935D01*
X2842Y24931D01*
X2842Y24929D01*
X2843Y24903D01*
X2841Y24898D01*
X2838Y24886D01*
X2838Y24885D01*
X2838Y24879D01*
X2826Y24856D01*
X2825Y24852D01*
X2824Y24851D01*
X2815Y24826D01*
X2811Y24822D01*
X2804Y24812D01*
X2804Y24811D01*
X2803Y24811D01*
X2682Y24572D01*
X2682Y24571D01*
X2556Y24300D01*
X2556Y24299D01*
X2440Y24024D01*
X2440Y24023D01*
X2439Y24022D01*
X2333Y23743D01*
X2333Y23742D01*
X2333Y23741D01*
X2237Y23459D01*
X2236Y23458D01*
X2236Y23457D01*
X2150Y23172D01*
X2150Y23171D01*
X2150Y23170D01*
X2074Y22881D01*
X2074Y22880D01*
X2008Y22589D01*
X2008Y22587D01*
X1953Y22294D01*
X1953Y22293D01*
X1953Y22292D01*
X1908Y21997D01*
X1908Y21996D01*
X1908Y21995D01*
X1874Y21699D01*
X1874Y21698D01*
X1873Y21697D01*
X1849Y21397D01*
X1827Y21039D01*
X1808Y20731D01*
X1789Y20422D01*
X1776Y20214D01*
X1772Y20146D01*
X1770Y20113D01*
X1750Y19804D01*
X1735Y19552D01*
X1718Y19288D01*
X1716Y19253D01*
X1717Y19247D01*
X1717Y19241D01*
X1717Y19240D01*
X1719Y19234D01*
X1721Y19229D01*
X1721Y19228D01*
X1724Y19223D01*
X1728Y19218D01*
X1732Y19214D01*
X1737Y19210D01*
X1742Y19207D01*
X1748Y19204D01*
X1749Y19204D01*
X1760Y19201D01*
X1763Y19201D01*
X1765Y19201D01*
X28057Y19201D01*
X28057Y19201D01*
G37*
%LPC*%
G36*
X14474Y23280D02*
X14474Y23280D01*
X14390Y23315D01*
X14325Y23380D01*
X14290Y23464D01*
X14290Y23556D01*
X14325Y23640D01*
X14390Y23705D01*
X14474Y23740D01*
X14566Y23740D01*
X14578Y23734D01*
X14579Y23734D01*
X14580Y23734D01*
X14582Y23733D01*
X14590Y23731D01*
X14595Y23731D01*
X14597Y23731D01*
X19028Y23731D01*
X19032Y23731D01*
X19037Y23731D01*
X19039Y23732D01*
X19040Y23732D01*
X19044Y23734D01*
X19049Y23735D01*
X19050Y23736D01*
X19052Y23737D01*
X19062Y23744D01*
X19063Y23745D01*
X20445Y25127D01*
X20447Y25130D01*
X20450Y25134D01*
X20451Y25135D01*
X20452Y25137D01*
X20454Y25141D01*
X20456Y25145D01*
X20456Y25146D01*
X20457Y25148D01*
X20459Y25161D01*
X20459Y25162D01*
X20459Y30953D01*
X20459Y30954D01*
X20459Y30955D01*
X20459Y30957D01*
X20458Y30965D01*
X20456Y30970D01*
X20456Y30972D01*
X20450Y30984D01*
X20450Y31076D01*
X20485Y31160D01*
X20550Y31225D01*
X20634Y31260D01*
X20726Y31260D01*
X20810Y31225D01*
X20875Y31160D01*
X20910Y31076D01*
X20910Y30984D01*
X20904Y30972D01*
X20904Y30971D01*
X20904Y30970D01*
X20903Y30968D01*
X20901Y30960D01*
X20901Y30955D01*
X20901Y30953D01*
X20901Y25006D01*
X20867Y24925D01*
X19265Y23323D01*
X19184Y23289D01*
X14597Y23289D01*
X14596Y23289D01*
X14595Y23289D01*
X14593Y23289D01*
X14585Y23288D01*
X14580Y23286D01*
X14578Y23286D01*
X14566Y23280D01*
X14474Y23280D01*
G37*
%LPD*%
%LPC*%
G36*
X5154Y39180D02*
X5154Y39180D01*
X5070Y39215D01*
X5005Y39280D01*
X4970Y39364D01*
X4970Y39456D01*
X4973Y39462D01*
X4974Y39464D01*
X4975Y39466D01*
X4975Y39470D01*
X4976Y39474D01*
X4976Y39476D01*
X4977Y39479D01*
X4976Y39483D01*
X4977Y39487D01*
X4976Y39489D01*
X4976Y39491D01*
X4975Y39495D01*
X4974Y39499D01*
X4973Y39501D01*
X4972Y39503D01*
X4970Y39506D01*
X4968Y39510D01*
X4966Y39511D01*
X4965Y39513D01*
X4962Y39516D01*
X4959Y39519D01*
X4957Y39520D01*
X4956Y39521D01*
X4952Y39523D01*
X4949Y39526D01*
X4947Y39526D01*
X4945Y39527D01*
X4942Y39528D01*
X4937Y39529D01*
X4930Y39530D01*
X4928Y39530D01*
X4904Y39530D01*
X4820Y39565D01*
X4755Y39630D01*
X4720Y39714D01*
X4720Y39806D01*
X4755Y39890D01*
X4820Y39955D01*
X4904Y39990D01*
X4996Y39990D01*
X5080Y39955D01*
X5145Y39890D01*
X5180Y39806D01*
X5180Y39714D01*
X5177Y39708D01*
X5176Y39706D01*
X5175Y39704D01*
X5175Y39700D01*
X5174Y39696D01*
X5174Y39694D01*
X5173Y39691D01*
X5174Y39687D01*
X5173Y39683D01*
X5174Y39681D01*
X5174Y39679D01*
X5175Y39675D01*
X5176Y39671D01*
X5177Y39669D01*
X5178Y39667D01*
X5180Y39664D01*
X5182Y39660D01*
X5184Y39659D01*
X5185Y39657D01*
X5188Y39654D01*
X5191Y39651D01*
X5193Y39650D01*
X5194Y39649D01*
X5198Y39647D01*
X5201Y39644D01*
X5203Y39644D01*
X5205Y39643D01*
X5208Y39642D01*
X5213Y39641D01*
X5220Y39640D01*
X5222Y39640D01*
X5241Y39640D01*
X5246Y39640D01*
X5251Y39641D01*
X5252Y39641D01*
X5253Y39641D01*
X5258Y39643D01*
X5263Y39645D01*
X5264Y39645D01*
X5265Y39646D01*
X5269Y39649D01*
X5273Y39651D01*
X5274Y39652D01*
X5275Y39653D01*
X5278Y39657D01*
X5281Y39661D01*
X5282Y39662D01*
X5283Y39663D01*
X5285Y39667D01*
X5287Y39672D01*
X5287Y39673D01*
X5288Y39674D01*
X5290Y39686D01*
X5290Y39688D01*
X5290Y39689D01*
X5290Y39726D01*
X5325Y39810D01*
X5390Y39875D01*
X5474Y39910D01*
X5566Y39910D01*
X5650Y39875D01*
X5715Y39810D01*
X5750Y39726D01*
X5750Y39634D01*
X5715Y39550D01*
X5650Y39485D01*
X5566Y39450D01*
X5479Y39450D01*
X5474Y39450D01*
X5469Y39449D01*
X5468Y39449D01*
X5467Y39449D01*
X5462Y39447D01*
X5457Y39445D01*
X5456Y39445D01*
X5455Y39444D01*
X5451Y39441D01*
X5447Y39439D01*
X5446Y39438D01*
X5445Y39437D01*
X5442Y39433D01*
X5439Y39429D01*
X5438Y39428D01*
X5437Y39427D01*
X5435Y39423D01*
X5433Y39418D01*
X5433Y39417D01*
X5432Y39416D01*
X5430Y39404D01*
X5430Y39402D01*
X5430Y39401D01*
X5430Y39364D01*
X5395Y39280D01*
X5330Y39215D01*
X5246Y39180D01*
X5154Y39180D01*
G37*
%LPD*%
%LPC*%
G36*
X11246Y28828D02*
X11246Y28828D01*
X11162Y28863D01*
X11097Y28928D01*
X11062Y29012D01*
X11062Y29071D01*
X11062Y29076D01*
X11062Y29081D01*
X11061Y29082D01*
X11061Y29083D01*
X11059Y29088D01*
X11058Y29093D01*
X11057Y29094D01*
X11056Y29095D01*
X11053Y29099D01*
X11051Y29103D01*
X11050Y29104D01*
X11049Y29105D01*
X11045Y29108D01*
X11042Y29111D01*
X11040Y29112D01*
X11039Y29113D01*
X11035Y29115D01*
X11031Y29117D01*
X11029Y29117D01*
X11028Y29118D01*
X11016Y29120D01*
X11014Y29120D01*
X11013Y29120D01*
X11004Y29120D01*
X10920Y29155D01*
X10853Y29222D01*
X10852Y29223D01*
X10850Y29225D01*
X10847Y29227D01*
X10844Y29229D01*
X10842Y29230D01*
X10840Y29232D01*
X10836Y29233D01*
X10832Y29234D01*
X10830Y29235D01*
X10828Y29235D01*
X10824Y29236D01*
X10820Y29236D01*
X10818Y29236D01*
X10816Y29236D01*
X10812Y29235D01*
X10807Y29235D01*
X10805Y29234D01*
X10803Y29234D01*
X10800Y29232D01*
X10796Y29231D01*
X10794Y29230D01*
X10792Y29229D01*
X10789Y29226D01*
X10786Y29224D01*
X10784Y29222D01*
X10783Y29221D01*
X10781Y29218D01*
X10777Y29214D01*
X10776Y29211D01*
X10710Y29145D01*
X10626Y29110D01*
X10534Y29110D01*
X10450Y29145D01*
X10385Y29210D01*
X10350Y29294D01*
X10350Y29386D01*
X10385Y29470D01*
X10450Y29535D01*
X10534Y29570D01*
X10626Y29570D01*
X10710Y29535D01*
X10777Y29468D01*
X10778Y29467D01*
X10780Y29465D01*
X10783Y29463D01*
X10786Y29461D01*
X10788Y29460D01*
X10790Y29458D01*
X10794Y29457D01*
X10798Y29456D01*
X10800Y29455D01*
X10802Y29455D01*
X10806Y29454D01*
X10810Y29454D01*
X10812Y29454D01*
X10814Y29454D01*
X10818Y29455D01*
X10823Y29455D01*
X10825Y29456D01*
X10827Y29456D01*
X10830Y29458D01*
X10834Y29459D01*
X10836Y29460D01*
X10838Y29461D01*
X10841Y29464D01*
X10844Y29466D01*
X10846Y29468D01*
X10847Y29469D01*
X10849Y29472D01*
X10853Y29476D01*
X10854Y29479D01*
X10920Y29545D01*
X11004Y29580D01*
X11096Y29580D01*
X11180Y29545D01*
X11245Y29480D01*
X11280Y29396D01*
X11280Y29337D01*
X11280Y29332D01*
X11281Y29327D01*
X11281Y29326D01*
X11281Y29324D01*
X11283Y29320D01*
X11285Y29315D01*
X11285Y29314D01*
X11286Y29313D01*
X11289Y29309D01*
X11291Y29305D01*
X11292Y29304D01*
X11293Y29303D01*
X11297Y29300D01*
X11301Y29296D01*
X11302Y29296D01*
X11303Y29295D01*
X11307Y29293D01*
X11312Y29291D01*
X11313Y29290D01*
X11314Y29290D01*
X11326Y29288D01*
X11328Y29288D01*
X11329Y29288D01*
X11338Y29288D01*
X11422Y29253D01*
X11487Y29188D01*
X11522Y29104D01*
X11522Y29012D01*
X11487Y28928D01*
X11422Y28863D01*
X11338Y28828D01*
X11246Y28828D01*
G37*
%LPD*%
%LPC*%
G36*
X25151Y35047D02*
X25151Y35047D01*
X25012Y35105D01*
X24906Y35211D01*
X24849Y35350D01*
X24849Y35500D01*
X24906Y35639D01*
X25012Y35745D01*
X25151Y35802D01*
X25301Y35802D01*
X25440Y35745D01*
X25546Y35639D01*
X25604Y35500D01*
X25604Y35350D01*
X25546Y35211D01*
X25440Y35105D01*
X25301Y35047D01*
X25151Y35047D01*
G37*
%LPD*%
%LPC*%
G36*
X19151Y30047D02*
X19151Y30047D01*
X19012Y30105D01*
X18906Y30211D01*
X18849Y30350D01*
X18849Y30500D01*
X18906Y30639D01*
X19012Y30745D01*
X19151Y30802D01*
X19301Y30802D01*
X19440Y30745D01*
X19546Y30639D01*
X19604Y30500D01*
X19604Y30350D01*
X19546Y30211D01*
X19440Y30105D01*
X19301Y30047D01*
X19151Y30047D01*
G37*
%LPD*%
%LPC*%
G36*
X19151Y35047D02*
X19151Y35047D01*
X19012Y35105D01*
X18906Y35211D01*
X18849Y35350D01*
X18849Y35500D01*
X18906Y35639D01*
X19012Y35745D01*
X19151Y35802D01*
X19301Y35802D01*
X19440Y35745D01*
X19546Y35639D01*
X19604Y35500D01*
X19604Y35350D01*
X19546Y35211D01*
X19440Y35105D01*
X19301Y35047D01*
X19151Y35047D01*
G37*
%LPD*%
%LPC*%
G36*
X10525Y38063D02*
X10525Y38063D01*
X10386Y38121D01*
X10280Y38227D01*
X10222Y38366D01*
X10222Y38516D01*
X10280Y38655D01*
X10386Y38761D01*
X10525Y38819D01*
X10675Y38819D01*
X10814Y38761D01*
X10920Y38655D01*
X10977Y38516D01*
X10977Y38366D01*
X10920Y38227D01*
X10814Y38121D01*
X10675Y38063D01*
X10525Y38063D01*
G37*
%LPD*%
%LPC*%
G36*
X4525Y38063D02*
X4525Y38063D01*
X4386Y38121D01*
X4280Y38227D01*
X4222Y38366D01*
X4222Y38516D01*
X4280Y38655D01*
X4386Y38761D01*
X4525Y38819D01*
X4675Y38819D01*
X4814Y38761D01*
X4920Y38655D01*
X4977Y38516D01*
X4977Y38366D01*
X4920Y38227D01*
X4814Y38121D01*
X4675Y38063D01*
X4525Y38063D01*
G37*
%LPD*%
%LPC*%
G36*
X25151Y38047D02*
X25151Y38047D01*
X25012Y38105D01*
X24906Y38211D01*
X24849Y38350D01*
X24849Y38500D01*
X24906Y38639D01*
X25012Y38745D01*
X25151Y38802D01*
X25301Y38802D01*
X25440Y38745D01*
X25546Y38639D01*
X25604Y38500D01*
X25604Y38350D01*
X25546Y38211D01*
X25440Y38105D01*
X25301Y38047D01*
X25151Y38047D01*
G37*
%LPD*%
%LPC*%
G36*
X10525Y30063D02*
X10525Y30063D01*
X10386Y30121D01*
X10280Y30227D01*
X10222Y30366D01*
X10222Y30516D01*
X10280Y30655D01*
X10386Y30761D01*
X10525Y30819D01*
X10675Y30819D01*
X10814Y30761D01*
X10920Y30655D01*
X10977Y30516D01*
X10977Y30366D01*
X10920Y30227D01*
X10814Y30121D01*
X10675Y30063D01*
X10525Y30063D01*
G37*
%LPD*%
%LPC*%
G36*
X19151Y38047D02*
X19151Y38047D01*
X19012Y38105D01*
X18906Y38211D01*
X18849Y38350D01*
X18849Y38500D01*
X18906Y38639D01*
X19012Y38745D01*
X19151Y38802D01*
X19301Y38802D01*
X19440Y38745D01*
X19546Y38639D01*
X19604Y38500D01*
X19604Y38350D01*
X19546Y38211D01*
X19440Y38105D01*
X19301Y38047D01*
X19151Y38047D01*
G37*
%LPD*%
%LPC*%
G36*
X4525Y34063D02*
X4525Y34063D01*
X4386Y34121D01*
X4280Y34227D01*
X4222Y34366D01*
X4222Y34516D01*
X4280Y34655D01*
X4386Y34761D01*
X4525Y34819D01*
X4675Y34819D01*
X4814Y34761D01*
X4920Y34655D01*
X4977Y34516D01*
X4977Y34366D01*
X4920Y34227D01*
X4814Y34121D01*
X4675Y34063D01*
X4525Y34063D01*
G37*
%LPD*%
%LPC*%
G36*
X10525Y34063D02*
X10525Y34063D01*
X10386Y34121D01*
X10280Y34227D01*
X10222Y34366D01*
X10222Y34516D01*
X10280Y34655D01*
X10386Y34761D01*
X10525Y34819D01*
X10675Y34819D01*
X10814Y34761D01*
X10920Y34655D01*
X10977Y34516D01*
X10977Y34366D01*
X10920Y34227D01*
X10814Y34121D01*
X10675Y34063D01*
X10525Y34063D01*
G37*
%LPD*%
%LPC*%
G36*
X10525Y37063D02*
X10525Y37063D01*
X10386Y37121D01*
X10280Y37227D01*
X10222Y37366D01*
X10222Y37516D01*
X10280Y37655D01*
X10386Y37761D01*
X10525Y37819D01*
X10675Y37819D01*
X10814Y37761D01*
X10920Y37655D01*
X10977Y37516D01*
X10977Y37366D01*
X10920Y37227D01*
X10814Y37121D01*
X10675Y37063D01*
X10525Y37063D01*
G37*
%LPD*%
%LPC*%
G36*
X4525Y37063D02*
X4525Y37063D01*
X4386Y37121D01*
X4280Y37227D01*
X4222Y37366D01*
X4222Y37516D01*
X4280Y37655D01*
X4386Y37761D01*
X4525Y37819D01*
X4675Y37819D01*
X4814Y37761D01*
X4920Y37655D01*
X4977Y37516D01*
X4977Y37366D01*
X4920Y37227D01*
X4814Y37121D01*
X4675Y37063D01*
X4525Y37063D01*
G37*
%LPD*%
%LPC*%
G36*
X25151Y37047D02*
X25151Y37047D01*
X25012Y37105D01*
X24906Y37211D01*
X24849Y37350D01*
X24849Y37500D01*
X24906Y37639D01*
X25012Y37745D01*
X25151Y37802D01*
X25301Y37802D01*
X25440Y37745D01*
X25546Y37639D01*
X25604Y37500D01*
X25604Y37350D01*
X25546Y37211D01*
X25440Y37105D01*
X25301Y37047D01*
X25151Y37047D01*
G37*
%LPD*%
%LPC*%
G36*
X19151Y37047D02*
X19151Y37047D01*
X19012Y37105D01*
X18906Y37211D01*
X18849Y37350D01*
X18849Y37500D01*
X18906Y37639D01*
X19012Y37745D01*
X19151Y37802D01*
X19301Y37802D01*
X19440Y37745D01*
X19546Y37639D01*
X19604Y37500D01*
X19604Y37350D01*
X19546Y37211D01*
X19440Y37105D01*
X19301Y37047D01*
X19151Y37047D01*
G37*
%LPD*%
%LPC*%
G36*
X10525Y36063D02*
X10525Y36063D01*
X10386Y36121D01*
X10280Y36227D01*
X10222Y36366D01*
X10222Y36516D01*
X10280Y36655D01*
X10386Y36761D01*
X10525Y36819D01*
X10675Y36819D01*
X10814Y36761D01*
X10920Y36655D01*
X10977Y36516D01*
X10977Y36366D01*
X10920Y36227D01*
X10814Y36121D01*
X10675Y36063D01*
X10525Y36063D01*
G37*
%LPD*%
%LPC*%
G36*
X4525Y36063D02*
X4525Y36063D01*
X4386Y36121D01*
X4280Y36227D01*
X4222Y36366D01*
X4222Y36516D01*
X4280Y36655D01*
X4386Y36761D01*
X4525Y36819D01*
X4675Y36819D01*
X4814Y36761D01*
X4920Y36655D01*
X4977Y36516D01*
X4977Y36366D01*
X4920Y36227D01*
X4814Y36121D01*
X4675Y36063D01*
X4525Y36063D01*
G37*
%LPD*%
%LPC*%
G36*
X25151Y36047D02*
X25151Y36047D01*
X25012Y36105D01*
X24906Y36211D01*
X24849Y36350D01*
X24849Y36500D01*
X24906Y36639D01*
X25012Y36745D01*
X25151Y36802D01*
X25301Y36802D01*
X25440Y36745D01*
X25546Y36639D01*
X25604Y36500D01*
X25604Y36350D01*
X25546Y36211D01*
X25440Y36105D01*
X25301Y36047D01*
X25151Y36047D01*
G37*
%LPD*%
%LPC*%
G36*
X19151Y36047D02*
X19151Y36047D01*
X19012Y36105D01*
X18906Y36211D01*
X18849Y36350D01*
X18849Y36500D01*
X18906Y36639D01*
X19012Y36745D01*
X19151Y36802D01*
X19301Y36802D01*
X19440Y36745D01*
X19546Y36639D01*
X19604Y36500D01*
X19604Y36350D01*
X19546Y36211D01*
X19440Y36105D01*
X19301Y36047D01*
X19151Y36047D01*
G37*
%LPD*%
%LPC*%
G36*
X10525Y35063D02*
X10525Y35063D01*
X10386Y35121D01*
X10280Y35227D01*
X10222Y35366D01*
X10222Y35516D01*
X10280Y35655D01*
X10386Y35761D01*
X10525Y35819D01*
X10675Y35819D01*
X10814Y35761D01*
X10920Y35655D01*
X10977Y35516D01*
X10977Y35366D01*
X10920Y35227D01*
X10814Y35121D01*
X10675Y35063D01*
X10525Y35063D01*
G37*
%LPD*%
%LPC*%
G36*
X4525Y35063D02*
X4525Y35063D01*
X4386Y35121D01*
X4280Y35227D01*
X4222Y35366D01*
X4222Y35516D01*
X4280Y35655D01*
X4386Y35761D01*
X4525Y35819D01*
X4675Y35819D01*
X4814Y35761D01*
X4920Y35655D01*
X4977Y35516D01*
X4977Y35366D01*
X4920Y35227D01*
X4814Y35121D01*
X4675Y35063D01*
X4525Y35063D01*
G37*
%LPD*%
%LPC*%
G36*
X25151Y34047D02*
X25151Y34047D01*
X25012Y34105D01*
X24906Y34211D01*
X24849Y34350D01*
X24849Y34500D01*
X24906Y34639D01*
X25012Y34745D01*
X25151Y34802D01*
X25301Y34802D01*
X25440Y34745D01*
X25546Y34639D01*
X25604Y34500D01*
X25604Y34350D01*
X25546Y34211D01*
X25440Y34105D01*
X25301Y34047D01*
X25151Y34047D01*
G37*
%LPD*%
%LPC*%
G36*
X19151Y34047D02*
X19151Y34047D01*
X19012Y34105D01*
X18906Y34211D01*
X18849Y34350D01*
X18849Y34500D01*
X18906Y34639D01*
X19012Y34745D01*
X19151Y34802D01*
X19301Y34802D01*
X19440Y34745D01*
X19546Y34639D01*
X19604Y34500D01*
X19604Y34350D01*
X19546Y34211D01*
X19440Y34105D01*
X19301Y34047D01*
X19151Y34047D01*
G37*
%LPD*%
%LPC*%
G36*
X10525Y33063D02*
X10525Y33063D01*
X10386Y33121D01*
X10280Y33227D01*
X10222Y33366D01*
X10222Y33516D01*
X10280Y33655D01*
X10386Y33761D01*
X10525Y33819D01*
X10675Y33819D01*
X10814Y33761D01*
X10920Y33655D01*
X10977Y33516D01*
X10977Y33366D01*
X10920Y33227D01*
X10814Y33121D01*
X10675Y33063D01*
X10525Y33063D01*
G37*
%LPD*%
%LPC*%
G36*
X4525Y33063D02*
X4525Y33063D01*
X4386Y33121D01*
X4280Y33227D01*
X4222Y33366D01*
X4222Y33516D01*
X4280Y33655D01*
X4386Y33761D01*
X4525Y33819D01*
X4675Y33819D01*
X4814Y33761D01*
X4920Y33655D01*
X4977Y33516D01*
X4977Y33366D01*
X4920Y33227D01*
X4814Y33121D01*
X4675Y33063D01*
X4525Y33063D01*
G37*
%LPD*%
%LPC*%
G36*
X25151Y33047D02*
X25151Y33047D01*
X25012Y33105D01*
X24906Y33211D01*
X24849Y33350D01*
X24849Y33500D01*
X24906Y33639D01*
X25012Y33745D01*
X25151Y33802D01*
X25301Y33802D01*
X25440Y33745D01*
X25546Y33639D01*
X25604Y33500D01*
X25604Y33350D01*
X25546Y33211D01*
X25440Y33105D01*
X25301Y33047D01*
X25151Y33047D01*
G37*
%LPD*%
%LPC*%
G36*
X19151Y33047D02*
X19151Y33047D01*
X19012Y33105D01*
X18906Y33211D01*
X18849Y33350D01*
X18849Y33500D01*
X18906Y33639D01*
X19012Y33745D01*
X19151Y33802D01*
X19301Y33802D01*
X19440Y33745D01*
X19546Y33639D01*
X19604Y33500D01*
X19604Y33350D01*
X19546Y33211D01*
X19440Y33105D01*
X19301Y33047D01*
X19151Y33047D01*
G37*
%LPD*%
%LPC*%
G36*
X10525Y32063D02*
X10525Y32063D01*
X10386Y32121D01*
X10280Y32227D01*
X10222Y32366D01*
X10222Y32516D01*
X10280Y32655D01*
X10386Y32761D01*
X10525Y32819D01*
X10675Y32819D01*
X10814Y32761D01*
X10920Y32655D01*
X10977Y32516D01*
X10977Y32366D01*
X10920Y32227D01*
X10814Y32121D01*
X10675Y32063D01*
X10525Y32063D01*
G37*
%LPD*%
%LPC*%
G36*
X4525Y32063D02*
X4525Y32063D01*
X4386Y32121D01*
X4280Y32227D01*
X4222Y32366D01*
X4222Y32516D01*
X4280Y32655D01*
X4386Y32761D01*
X4525Y32819D01*
X4675Y32819D01*
X4814Y32761D01*
X4920Y32655D01*
X4977Y32516D01*
X4977Y32366D01*
X4920Y32227D01*
X4814Y32121D01*
X4675Y32063D01*
X4525Y32063D01*
G37*
%LPD*%
%LPC*%
G36*
X25151Y32047D02*
X25151Y32047D01*
X25012Y32105D01*
X24906Y32211D01*
X24849Y32350D01*
X24849Y32500D01*
X24906Y32639D01*
X25012Y32745D01*
X25151Y32802D01*
X25301Y32802D01*
X25440Y32745D01*
X25546Y32639D01*
X25604Y32500D01*
X25604Y32350D01*
X25546Y32211D01*
X25440Y32105D01*
X25301Y32047D01*
X25151Y32047D01*
G37*
%LPD*%
%LPC*%
G36*
X19151Y32047D02*
X19151Y32047D01*
X19012Y32105D01*
X18906Y32211D01*
X18849Y32350D01*
X18849Y32500D01*
X18906Y32639D01*
X19012Y32745D01*
X19151Y32802D01*
X19301Y32802D01*
X19440Y32745D01*
X19546Y32639D01*
X19604Y32500D01*
X19604Y32350D01*
X19546Y32211D01*
X19440Y32105D01*
X19301Y32047D01*
X19151Y32047D01*
G37*
%LPD*%
%LPC*%
G36*
X4525Y31063D02*
X4525Y31063D01*
X4386Y31121D01*
X4280Y31227D01*
X4222Y31366D01*
X4222Y31516D01*
X4280Y31655D01*
X4386Y31761D01*
X4525Y31819D01*
X4675Y31819D01*
X4814Y31761D01*
X4920Y31655D01*
X4977Y31516D01*
X4977Y31366D01*
X4920Y31227D01*
X4814Y31121D01*
X4675Y31063D01*
X4525Y31063D01*
G37*
%LPD*%
%LPC*%
G36*
X25151Y31047D02*
X25151Y31047D01*
X25012Y31105D01*
X24906Y31211D01*
X24849Y31350D01*
X24849Y31500D01*
X24906Y31639D01*
X25012Y31745D01*
X25151Y31802D01*
X25301Y31802D01*
X25440Y31745D01*
X25546Y31639D01*
X25604Y31500D01*
X25604Y31350D01*
X25546Y31211D01*
X25440Y31105D01*
X25301Y31047D01*
X25151Y31047D01*
G37*
%LPD*%
%LPC*%
G36*
X19151Y31047D02*
X19151Y31047D01*
X19012Y31105D01*
X18906Y31211D01*
X18849Y31350D01*
X18849Y31500D01*
X18906Y31639D01*
X19012Y31745D01*
X19151Y31802D01*
X19301Y31802D01*
X19440Y31745D01*
X19546Y31639D01*
X19604Y31500D01*
X19604Y31350D01*
X19546Y31211D01*
X19440Y31105D01*
X19301Y31047D01*
X19151Y31047D01*
G37*
%LPD*%
%LPC*%
G36*
X10525Y31063D02*
X10525Y31063D01*
X10386Y31121D01*
X10280Y31227D01*
X10222Y31366D01*
X10222Y31516D01*
X10280Y31655D01*
X10386Y31761D01*
X10525Y31819D01*
X10675Y31819D01*
X10814Y31761D01*
X10920Y31655D01*
X10977Y31516D01*
X10977Y31366D01*
X10920Y31227D01*
X10814Y31121D01*
X10675Y31063D01*
X10525Y31063D01*
G37*
%LPD*%
%LPC*%
G36*
X4525Y30063D02*
X4525Y30063D01*
X4386Y30121D01*
X4280Y30227D01*
X4222Y30366D01*
X4222Y30516D01*
X4280Y30655D01*
X4386Y30761D01*
X4525Y30819D01*
X4675Y30819D01*
X4814Y30761D01*
X4920Y30655D01*
X4977Y30516D01*
X4977Y30366D01*
X4920Y30227D01*
X4814Y30121D01*
X4675Y30063D01*
X4525Y30063D01*
G37*
%LPD*%
%LPC*%
G36*
X25151Y30047D02*
X25151Y30047D01*
X25012Y30105D01*
X24906Y30211D01*
X24849Y30350D01*
X24849Y30500D01*
X24906Y30639D01*
X25012Y30745D01*
X25151Y30802D01*
X25301Y30802D01*
X25440Y30745D01*
X25546Y30639D01*
X25604Y30500D01*
X25604Y30350D01*
X25546Y30211D01*
X25440Y30105D01*
X25301Y30047D01*
X25151Y30047D01*
G37*
%LPD*%
%LPC*%
G36*
X8254Y42970D02*
X8254Y42970D01*
X8170Y43005D01*
X8105Y43070D01*
X8070Y43154D01*
X8070Y43246D01*
X8105Y43330D01*
X8154Y43379D01*
X8155Y43380D01*
X8157Y43382D01*
X8159Y43385D01*
X8161Y43388D01*
X8162Y43390D01*
X8163Y43392D01*
X8165Y43396D01*
X8166Y43400D01*
X8167Y43402D01*
X8167Y43404D01*
X8168Y43408D01*
X8168Y43412D01*
X8168Y43414D01*
X8168Y43416D01*
X8167Y43420D01*
X8167Y43425D01*
X8166Y43427D01*
X8166Y43429D01*
X8164Y43432D01*
X8163Y43436D01*
X8162Y43438D01*
X8161Y43440D01*
X8158Y43443D01*
X8156Y43446D01*
X8154Y43448D01*
X8153Y43449D01*
X8150Y43451D01*
X8146Y43455D01*
X8140Y43458D01*
X8138Y43459D01*
X8120Y43466D01*
X8055Y43531D01*
X8020Y43615D01*
X8020Y43707D01*
X8055Y43791D01*
X8120Y43856D01*
X8204Y43891D01*
X8296Y43891D01*
X8380Y43856D01*
X8445Y43791D01*
X8480Y43707D01*
X8480Y43615D01*
X8445Y43531D01*
X8396Y43482D01*
X8395Y43481D01*
X8393Y43479D01*
X8391Y43476D01*
X8389Y43473D01*
X8388Y43471D01*
X8386Y43469D01*
X8385Y43465D01*
X8384Y43461D01*
X8383Y43459D01*
X8383Y43457D01*
X8382Y43453D01*
X8382Y43449D01*
X8382Y43447D01*
X8382Y43445D01*
X8383Y43441D01*
X8383Y43437D01*
X8384Y43435D01*
X8384Y43432D01*
X8386Y43429D01*
X8387Y43425D01*
X8388Y43423D01*
X8389Y43421D01*
X8392Y43418D01*
X8394Y43415D01*
X8396Y43413D01*
X8397Y43412D01*
X8400Y43410D01*
X8404Y43407D01*
X8410Y43404D01*
X8412Y43402D01*
X8430Y43395D01*
X8495Y43330D01*
X8530Y43246D01*
X8530Y43154D01*
X8495Y43070D01*
X8430Y43005D01*
X8346Y42970D01*
X8254Y42970D01*
G37*
%LPD*%
%LPC*%
G36*
X5054Y29570D02*
X5054Y29570D01*
X4970Y29605D01*
X4905Y29670D01*
X4870Y29754D01*
X4870Y29846D01*
X4905Y29930D01*
X4970Y29995D01*
X5054Y30030D01*
X5146Y30030D01*
X5230Y29995D01*
X5295Y29930D01*
X5329Y29846D01*
X5332Y29841D01*
X5335Y29836D01*
X5336Y29835D01*
X5340Y29831D01*
X5343Y29827D01*
X5344Y29827D01*
X5344Y29826D01*
X5349Y29823D01*
X5354Y29820D01*
X5355Y29820D01*
X5360Y29818D01*
X5366Y29817D01*
X5366Y29816D01*
X5367Y29816D01*
X5372Y29816D01*
X5378Y29816D01*
X5379Y29816D01*
X5385Y29817D01*
X5390Y29818D01*
X5391Y29818D01*
X5396Y29821D01*
X5401Y29823D01*
X5402Y29824D01*
X5403Y29824D01*
X5407Y29828D01*
X5411Y29831D01*
X5411Y29832D01*
X5412Y29832D01*
X5419Y29843D01*
X5420Y29845D01*
X5420Y29846D01*
X5455Y29930D01*
X5520Y29995D01*
X5604Y30030D01*
X5696Y30030D01*
X5780Y29995D01*
X5845Y29930D01*
X5880Y29846D01*
X5880Y29754D01*
X5845Y29670D01*
X5780Y29605D01*
X5696Y29570D01*
X5604Y29570D01*
X5520Y29605D01*
X5455Y29670D01*
X5420Y29754D01*
X5418Y29759D01*
X5415Y29764D01*
X5414Y29765D01*
X5410Y29769D01*
X5407Y29773D01*
X5406Y29773D01*
X5406Y29774D01*
X5401Y29777D01*
X5396Y29780D01*
X5395Y29780D01*
X5390Y29782D01*
X5384Y29783D01*
X5384Y29784D01*
X5383Y29784D01*
X5378Y29784D01*
X5372Y29784D01*
X5371Y29784D01*
X5365Y29783D01*
X5360Y29782D01*
X5359Y29782D01*
X5354Y29779D01*
X5349Y29777D01*
X5348Y29776D01*
X5347Y29776D01*
X5343Y29772D01*
X5339Y29769D01*
X5339Y29768D01*
X5338Y29768D01*
X5331Y29757D01*
X5330Y29755D01*
X5329Y29754D01*
X5295Y29670D01*
X5230Y29605D01*
X5146Y29570D01*
X5054Y29570D01*
G37*
%LPD*%
%LPC*%
G36*
X25654Y45520D02*
X25654Y45520D01*
X25570Y45555D01*
X25505Y45620D01*
X25470Y45704D01*
X25470Y45796D01*
X25505Y45880D01*
X25565Y45940D01*
X25568Y45944D01*
X25572Y45948D01*
X25572Y45949D01*
X25573Y45950D01*
X25575Y45955D01*
X25577Y45959D01*
X25577Y45960D01*
X25578Y45961D01*
X25579Y45966D01*
X25580Y45971D01*
X25580Y45972D01*
X25580Y45974D01*
X25579Y45979D01*
X25579Y45984D01*
X25579Y45985D01*
X25579Y45986D01*
X25577Y45991D01*
X25575Y45995D01*
X25575Y45996D01*
X25574Y45998D01*
X25567Y46008D01*
X25566Y46009D01*
X25565Y46010D01*
X25505Y46070D01*
X25470Y46154D01*
X25470Y46246D01*
X25505Y46330D01*
X25570Y46395D01*
X25654Y46430D01*
X25746Y46430D01*
X25830Y46395D01*
X25895Y46330D01*
X25930Y46246D01*
X25930Y46154D01*
X25895Y46070D01*
X25835Y46010D01*
X25832Y46006D01*
X25828Y46002D01*
X25828Y46001D01*
X25827Y46000D01*
X25825Y45995D01*
X25823Y45991D01*
X25823Y45990D01*
X25822Y45989D01*
X25821Y45984D01*
X25820Y45979D01*
X25820Y45978D01*
X25820Y45976D01*
X25821Y45971D01*
X25821Y45966D01*
X25821Y45965D01*
X25821Y45964D01*
X25823Y45959D01*
X25825Y45955D01*
X25825Y45954D01*
X25826Y45952D01*
X25833Y45942D01*
X25834Y45941D01*
X25835Y45940D01*
X25895Y45880D01*
X25930Y45796D01*
X25930Y45704D01*
X25895Y45620D01*
X25830Y45555D01*
X25746Y45520D01*
X25654Y45520D01*
G37*
%LPD*%
%LPC*%
G36*
X7304Y43070D02*
X7304Y43070D01*
X7220Y43105D01*
X7155Y43170D01*
X7120Y43254D01*
X7120Y43346D01*
X7155Y43430D01*
X7220Y43495D01*
X7304Y43530D01*
X7371Y43530D01*
X7376Y43530D01*
X7381Y43531D01*
X7382Y43531D01*
X7383Y43531D01*
X7388Y43533D01*
X7393Y43535D01*
X7394Y43535D01*
X7395Y43536D01*
X7399Y43539D01*
X7403Y43541D01*
X7404Y43542D01*
X7405Y43543D01*
X7408Y43547D01*
X7411Y43551D01*
X7412Y43552D01*
X7413Y43553D01*
X7415Y43557D01*
X7417Y43562D01*
X7417Y43563D01*
X7418Y43564D01*
X7420Y43576D01*
X7420Y43577D01*
X7420Y43578D01*
X7420Y43579D01*
X7420Y43646D01*
X7455Y43730D01*
X7520Y43795D01*
X7604Y43830D01*
X7696Y43830D01*
X7780Y43795D01*
X7845Y43730D01*
X7880Y43646D01*
X7880Y43554D01*
X7845Y43470D01*
X7780Y43405D01*
X7696Y43370D01*
X7629Y43370D01*
X7624Y43370D01*
X7619Y43369D01*
X7618Y43369D01*
X7617Y43369D01*
X7612Y43367D01*
X7607Y43365D01*
X7606Y43365D01*
X7605Y43364D01*
X7601Y43361D01*
X7597Y43359D01*
X7596Y43358D01*
X7595Y43357D01*
X7592Y43353D01*
X7589Y43349D01*
X7588Y43348D01*
X7587Y43347D01*
X7585Y43343D01*
X7583Y43338D01*
X7583Y43337D01*
X7582Y43336D01*
X7580Y43324D01*
X7580Y43322D01*
X7580Y43321D01*
X7580Y43254D01*
X7545Y43170D01*
X7480Y43105D01*
X7396Y43070D01*
X7304Y43070D01*
G37*
%LPD*%
%LPC*%
G36*
X6354Y41920D02*
X6354Y41920D01*
X6270Y41955D01*
X6205Y42020D01*
X6170Y42104D01*
X6170Y42196D01*
X6205Y42280D01*
X6215Y42290D01*
X6218Y42294D01*
X6222Y42298D01*
X6222Y42299D01*
X6223Y42300D01*
X6225Y42305D01*
X6227Y42309D01*
X6227Y42310D01*
X6228Y42311D01*
X6229Y42316D01*
X6230Y42321D01*
X6230Y42322D01*
X6230Y42324D01*
X6229Y42329D01*
X6229Y42334D01*
X6229Y42335D01*
X6229Y42336D01*
X6227Y42341D01*
X6225Y42345D01*
X6225Y42346D01*
X6224Y42348D01*
X6217Y42358D01*
X6216Y42359D01*
X6215Y42360D01*
X6155Y42420D01*
X6120Y42504D01*
X6120Y42596D01*
X6155Y42680D01*
X6220Y42745D01*
X6304Y42780D01*
X6396Y42780D01*
X6480Y42745D01*
X6545Y42680D01*
X6580Y42596D01*
X6580Y42504D01*
X6545Y42420D01*
X6535Y42410D01*
X6532Y42406D01*
X6528Y42402D01*
X6528Y42401D01*
X6527Y42400D01*
X6525Y42395D01*
X6523Y42391D01*
X6523Y42390D01*
X6522Y42389D01*
X6521Y42384D01*
X6520Y42379D01*
X6520Y42378D01*
X6520Y42376D01*
X6521Y42371D01*
X6521Y42366D01*
X6521Y42365D01*
X6521Y42364D01*
X6523Y42359D01*
X6525Y42355D01*
X6525Y42354D01*
X6526Y42352D01*
X6533Y42342D01*
X6534Y42341D01*
X6535Y42340D01*
X6595Y42280D01*
X6630Y42196D01*
X6630Y42104D01*
X6595Y42020D01*
X6530Y41955D01*
X6446Y41920D01*
X6354Y41920D01*
G37*
%LPD*%
%LPC*%
G36*
X23254Y47520D02*
X23254Y47520D01*
X23170Y47555D01*
X23105Y47620D01*
X23070Y47704D01*
X23070Y47796D01*
X23105Y47880D01*
X23170Y47945D01*
X23254Y47980D01*
X23346Y47980D01*
X23430Y47945D01*
X23495Y47880D01*
X23530Y47796D01*
X23530Y47704D01*
X23495Y47620D01*
X23430Y47555D01*
X23346Y47520D01*
X23254Y47520D01*
G37*
%LPD*%
%LPC*%
G36*
X7004Y44820D02*
X7004Y44820D01*
X6920Y44855D01*
X6855Y44920D01*
X6820Y45004D01*
X6820Y45096D01*
X6855Y45180D01*
X6920Y45245D01*
X7004Y45280D01*
X7096Y45280D01*
X7180Y45245D01*
X7245Y45180D01*
X7280Y45096D01*
X7280Y45004D01*
X7245Y44920D01*
X7180Y44855D01*
X7096Y44820D01*
X7004Y44820D01*
G37*
%LPD*%
%LPC*%
G36*
X9344Y43901D02*
X9344Y43901D01*
X9260Y43936D01*
X9195Y44001D01*
X9160Y44085D01*
X9160Y44177D01*
X9195Y44261D01*
X9260Y44326D01*
X9344Y44361D01*
X9436Y44361D01*
X9520Y44326D01*
X9585Y44261D01*
X9620Y44177D01*
X9620Y44085D01*
X9585Y44001D01*
X9520Y43936D01*
X9436Y43901D01*
X9344Y43901D01*
G37*
%LPD*%
%LPC*%
G36*
X4054Y43720D02*
X4054Y43720D01*
X3970Y43755D01*
X3905Y43820D01*
X3870Y43904D01*
X3870Y43996D01*
X3905Y44080D01*
X3970Y44145D01*
X4054Y44180D01*
X4146Y44180D01*
X4230Y44145D01*
X4295Y44080D01*
X4330Y43996D01*
X4330Y43904D01*
X4295Y43820D01*
X4230Y43755D01*
X4146Y43720D01*
X4054Y43720D01*
G37*
%LPD*%
%LPC*%
G36*
X4654Y43520D02*
X4654Y43520D01*
X4570Y43555D01*
X4505Y43620D01*
X4470Y43704D01*
X4470Y43796D01*
X4505Y43880D01*
X4570Y43945D01*
X4654Y43980D01*
X4746Y43980D01*
X4830Y43945D01*
X4895Y43880D01*
X4930Y43796D01*
X4930Y43704D01*
X4895Y43620D01*
X4830Y43555D01*
X4746Y43520D01*
X4654Y43520D01*
G37*
%LPD*%
%LPC*%
G36*
X6114Y43420D02*
X6114Y43420D01*
X6030Y43455D01*
X5965Y43520D01*
X5930Y43604D01*
X5930Y43696D01*
X5965Y43780D01*
X6030Y43845D01*
X6114Y43880D01*
X6206Y43880D01*
X6290Y43845D01*
X6355Y43780D01*
X6390Y43696D01*
X6390Y43604D01*
X6355Y43520D01*
X6290Y43455D01*
X6206Y43420D01*
X6114Y43420D01*
G37*
%LPD*%
%LPC*%
G36*
X6904Y42240D02*
X6904Y42240D01*
X6820Y42275D01*
X6755Y42340D01*
X6720Y42424D01*
X6720Y42516D01*
X6755Y42600D01*
X6820Y42665D01*
X6904Y42700D01*
X6996Y42700D01*
X7080Y42665D01*
X7145Y42600D01*
X7180Y42516D01*
X7180Y42424D01*
X7145Y42340D01*
X7080Y42275D01*
X6996Y42240D01*
X6904Y42240D01*
G37*
%LPD*%
%LPC*%
G36*
X20974Y41900D02*
X20974Y41900D01*
X20890Y41935D01*
X20825Y42000D01*
X20790Y42084D01*
X20790Y42176D01*
X20825Y42260D01*
X20890Y42325D01*
X20974Y42360D01*
X21066Y42360D01*
X21150Y42325D01*
X21215Y42260D01*
X21250Y42176D01*
X21250Y42084D01*
X21215Y42000D01*
X21150Y41935D01*
X21066Y41900D01*
X20974Y41900D01*
G37*
%LPD*%
%LPC*%
G36*
X9724Y41570D02*
X9724Y41570D01*
X9640Y41605D01*
X9575Y41670D01*
X9540Y41754D01*
X9540Y41846D01*
X9575Y41930D01*
X9640Y41995D01*
X9724Y42030D01*
X9816Y42030D01*
X9900Y41995D01*
X9965Y41930D01*
X10000Y41846D01*
X10000Y41754D01*
X9965Y41670D01*
X9900Y41605D01*
X9816Y41570D01*
X9724Y41570D01*
G37*
%LPD*%
%LPC*%
G36*
X7954Y41420D02*
X7954Y41420D01*
X7870Y41455D01*
X7805Y41520D01*
X7770Y41604D01*
X7770Y41696D01*
X7805Y41780D01*
X7870Y41845D01*
X7954Y41880D01*
X8046Y41880D01*
X8130Y41845D01*
X8195Y41780D01*
X8230Y41696D01*
X8230Y41604D01*
X8195Y41520D01*
X8130Y41455D01*
X8046Y41420D01*
X7954Y41420D01*
G37*
%LPD*%
%LPC*%
G36*
X24404Y32220D02*
X24404Y32220D01*
X24320Y32255D01*
X24255Y32320D01*
X24220Y32404D01*
X24220Y32496D01*
X24255Y32580D01*
X24320Y32645D01*
X24404Y32680D01*
X24496Y32680D01*
X24580Y32645D01*
X24645Y32580D01*
X24680Y32496D01*
X24680Y32404D01*
X24645Y32320D01*
X24580Y32255D01*
X24496Y32220D01*
X24404Y32220D01*
G37*
%LPD*%
%LPC*%
G36*
X23304Y31370D02*
X23304Y31370D01*
X23220Y31405D01*
X23155Y31470D01*
X23120Y31554D01*
X23120Y31646D01*
X23155Y31730D01*
X23220Y31795D01*
X23304Y31830D01*
X23396Y31830D01*
X23480Y31795D01*
X23545Y31730D01*
X23580Y31646D01*
X23580Y31554D01*
X23545Y31470D01*
X23480Y31405D01*
X23396Y31370D01*
X23304Y31370D01*
G37*
%LPD*%
%LPC*%
G36*
X10204Y40670D02*
X10204Y40670D01*
X10120Y40705D01*
X10055Y40770D01*
X10020Y40854D01*
X10020Y40946D01*
X10055Y41030D01*
X10120Y41095D01*
X10204Y41130D01*
X10296Y41130D01*
X10380Y41095D01*
X10445Y41030D01*
X10480Y40946D01*
X10480Y40854D01*
X10445Y40770D01*
X10380Y40705D01*
X10296Y40670D01*
X10204Y40670D01*
G37*
%LPD*%
%LPC*%
G36*
X19634Y40570D02*
X19634Y40570D01*
X19550Y40605D01*
X19485Y40670D01*
X19450Y40754D01*
X19450Y40846D01*
X19485Y40930D01*
X19550Y40995D01*
X19634Y41030D01*
X19726Y41030D01*
X19810Y40995D01*
X19875Y40930D01*
X19910Y40846D01*
X19910Y40754D01*
X19875Y40670D01*
X19810Y40605D01*
X19726Y40570D01*
X19634Y40570D01*
G37*
%LPD*%
%LPC*%
G36*
X15104Y39620D02*
X15104Y39620D01*
X15020Y39655D01*
X14955Y39720D01*
X14920Y39804D01*
X14920Y39896D01*
X14955Y39980D01*
X15020Y40045D01*
X15104Y40080D01*
X15196Y40080D01*
X15280Y40045D01*
X15345Y39980D01*
X15380Y39896D01*
X15380Y39804D01*
X15345Y39720D01*
X15280Y39655D01*
X15196Y39620D01*
X15104Y39620D01*
G37*
%LPD*%
%LPC*%
G36*
X10804Y39570D02*
X10804Y39570D01*
X10720Y39605D01*
X10655Y39670D01*
X10620Y39754D01*
X10620Y39846D01*
X10655Y39930D01*
X10720Y39995D01*
X10804Y40030D01*
X10896Y40030D01*
X10980Y39995D01*
X11045Y39930D01*
X11080Y39846D01*
X11080Y39754D01*
X11045Y39670D01*
X10980Y39605D01*
X10896Y39570D01*
X10804Y39570D01*
G37*
%LPD*%
%LPC*%
G36*
X22254Y31270D02*
X22254Y31270D01*
X22170Y31305D01*
X22105Y31370D01*
X22070Y31454D01*
X22070Y31546D01*
X22105Y31630D01*
X22170Y31695D01*
X22254Y31730D01*
X22346Y31730D01*
X22430Y31695D01*
X22495Y31630D01*
X22530Y31546D01*
X22530Y31454D01*
X22495Y31370D01*
X22430Y31305D01*
X22346Y31270D01*
X22254Y31270D01*
G37*
%LPD*%
%LPC*%
G36*
X7504Y39470D02*
X7504Y39470D01*
X7420Y39505D01*
X7355Y39570D01*
X7320Y39654D01*
X7320Y39746D01*
X7355Y39830D01*
X7420Y39895D01*
X7504Y39930D01*
X7596Y39930D01*
X7680Y39895D01*
X7745Y39830D01*
X7780Y39746D01*
X7780Y39654D01*
X7745Y39570D01*
X7680Y39505D01*
X7596Y39470D01*
X7504Y39470D01*
G37*
%LPD*%
%LPC*%
G36*
X5254Y30670D02*
X5254Y30670D01*
X5170Y30705D01*
X5105Y30770D01*
X5070Y30854D01*
X5070Y30946D01*
X5105Y31030D01*
X5170Y31095D01*
X5254Y31130D01*
X5346Y31130D01*
X5430Y31095D01*
X5495Y31030D01*
X5530Y30946D01*
X5530Y30854D01*
X5495Y30770D01*
X5430Y30705D01*
X5346Y30670D01*
X5254Y30670D01*
G37*
%LPD*%
%LPC*%
G36*
X4065Y39450D02*
X4065Y39450D01*
X3981Y39485D01*
X3916Y39550D01*
X3881Y39634D01*
X3881Y39726D01*
X3916Y39810D01*
X3981Y39875D01*
X4065Y39910D01*
X4157Y39910D01*
X4241Y39875D01*
X4306Y39810D01*
X4341Y39726D01*
X4341Y39634D01*
X4306Y39550D01*
X4241Y39485D01*
X4157Y39450D01*
X4065Y39450D01*
G37*
%LPD*%
%LPC*%
G36*
X18954Y39170D02*
X18954Y39170D01*
X18870Y39205D01*
X18805Y39270D01*
X18770Y39354D01*
X18770Y39446D01*
X18805Y39530D01*
X18870Y39595D01*
X18954Y39630D01*
X19046Y39630D01*
X19130Y39595D01*
X19195Y39530D01*
X19230Y39446D01*
X19230Y39354D01*
X19195Y39270D01*
X19130Y39205D01*
X19046Y39170D01*
X18954Y39170D01*
G37*
%LPD*%
%LPC*%
G36*
X5854Y38970D02*
X5854Y38970D01*
X5770Y39005D01*
X5705Y39070D01*
X5670Y39154D01*
X5670Y39246D01*
X5705Y39330D01*
X5770Y39395D01*
X5854Y39430D01*
X5946Y39430D01*
X6030Y39395D01*
X6095Y39330D01*
X6130Y39246D01*
X6130Y39154D01*
X6095Y39070D01*
X6030Y39005D01*
X5946Y38970D01*
X5854Y38970D01*
G37*
%LPD*%
%LPC*%
G36*
X6904Y38720D02*
X6904Y38720D01*
X6820Y38755D01*
X6755Y38820D01*
X6720Y38904D01*
X6720Y38996D01*
X6755Y39080D01*
X6820Y39145D01*
X6904Y39180D01*
X6996Y39180D01*
X7080Y39145D01*
X7145Y39080D01*
X7180Y38996D01*
X7180Y38904D01*
X7145Y38820D01*
X7080Y38755D01*
X6996Y38720D01*
X6904Y38720D01*
G37*
%LPD*%
%LPC*%
G36*
X9604Y38270D02*
X9604Y38270D01*
X9520Y38305D01*
X9455Y38370D01*
X9420Y38454D01*
X9420Y38546D01*
X9455Y38630D01*
X9520Y38695D01*
X9604Y38730D01*
X9696Y38730D01*
X9780Y38695D01*
X9845Y38630D01*
X9880Y38546D01*
X9880Y38454D01*
X9845Y38370D01*
X9780Y38305D01*
X9696Y38270D01*
X9604Y38270D01*
G37*
%LPD*%
%LPC*%
G36*
X9594Y29470D02*
X9594Y29470D01*
X9510Y29505D01*
X9445Y29570D01*
X9410Y29654D01*
X9410Y29746D01*
X9445Y29830D01*
X9510Y29895D01*
X9594Y29930D01*
X9686Y29930D01*
X9770Y29895D01*
X9835Y29830D01*
X9870Y29746D01*
X9870Y29654D01*
X9835Y29570D01*
X9770Y29505D01*
X9686Y29470D01*
X9594Y29470D01*
G37*
%LPD*%
%LPC*%
G36*
X8000Y42244D02*
X8000Y42244D01*
X7916Y42279D01*
X7851Y42344D01*
X7816Y42428D01*
X7816Y42520D01*
X7851Y42604D01*
X7916Y42669D01*
X8000Y42704D01*
X8092Y42704D01*
X8176Y42669D01*
X8241Y42604D01*
X8276Y42520D01*
X8276Y42428D01*
X8241Y42344D01*
X8176Y42279D01*
X8092Y42244D01*
X8000Y42244D01*
G37*
%LPD*%
%LPC*%
G36*
X25554Y29070D02*
X25554Y29070D01*
X25470Y29105D01*
X25405Y29170D01*
X25370Y29254D01*
X25370Y29346D01*
X25405Y29430D01*
X25470Y29495D01*
X25554Y29530D01*
X25646Y29530D01*
X25730Y29495D01*
X25795Y29430D01*
X25830Y29346D01*
X25830Y29254D01*
X25795Y29170D01*
X25730Y29105D01*
X25646Y29070D01*
X25554Y29070D01*
G37*
%LPD*%
%LPC*%
G36*
X18604Y29070D02*
X18604Y29070D01*
X18520Y29105D01*
X18455Y29170D01*
X18420Y29254D01*
X18420Y29346D01*
X18455Y29430D01*
X18520Y29495D01*
X18604Y29530D01*
X18696Y29530D01*
X18780Y29495D01*
X18845Y29430D01*
X18880Y29346D01*
X18880Y29254D01*
X18845Y29170D01*
X18780Y29105D01*
X18696Y29070D01*
X18604Y29070D01*
G37*
%LPD*%
%LPC*%
G36*
X9954Y28970D02*
X9954Y28970D01*
X9870Y29005D01*
X9805Y29070D01*
X9770Y29154D01*
X9770Y29246D01*
X9805Y29330D01*
X9870Y29395D01*
X9954Y29430D01*
X10046Y29430D01*
X10130Y29395D01*
X10195Y29330D01*
X10230Y29246D01*
X10230Y29154D01*
X10195Y29070D01*
X10130Y29005D01*
X10046Y28970D01*
X9954Y28970D01*
G37*
%LPD*%
%LPC*%
G36*
X2854Y28820D02*
X2854Y28820D01*
X2770Y28855D01*
X2705Y28920D01*
X2670Y29004D01*
X2670Y29096D01*
X2705Y29180D01*
X2770Y29245D01*
X2854Y29280D01*
X2946Y29280D01*
X3030Y29245D01*
X3095Y29180D01*
X3130Y29096D01*
X3130Y29004D01*
X3095Y28920D01*
X3030Y28855D01*
X2946Y28820D01*
X2854Y28820D01*
G37*
%LPD*%
%LPC*%
G36*
X6504Y28320D02*
X6504Y28320D01*
X6420Y28355D01*
X6355Y28420D01*
X6320Y28504D01*
X6320Y28596D01*
X6355Y28680D01*
X6420Y28745D01*
X6504Y28780D01*
X6596Y28780D01*
X6680Y28745D01*
X6745Y28680D01*
X6780Y28596D01*
X6780Y28504D01*
X6745Y28420D01*
X6680Y28355D01*
X6596Y28320D01*
X6504Y28320D01*
G37*
%LPD*%
%LPC*%
G36*
X7307Y27883D02*
X7307Y27883D01*
X7222Y27918D01*
X7158Y27982D01*
X7123Y28067D01*
X7123Y28158D01*
X7158Y28243D01*
X7222Y28307D01*
X7307Y28342D01*
X7398Y28342D01*
X7483Y28307D01*
X7547Y28243D01*
X7582Y28158D01*
X7582Y28067D01*
X7547Y27982D01*
X7483Y27918D01*
X7398Y27883D01*
X7307Y27883D01*
G37*
%LPD*%
%LPC*%
G36*
X8224Y27480D02*
X8224Y27480D01*
X8140Y27515D01*
X8075Y27580D01*
X8040Y27664D01*
X8040Y27756D01*
X8075Y27840D01*
X8140Y27905D01*
X8224Y27940D01*
X8316Y27940D01*
X8400Y27905D01*
X8465Y27840D01*
X8500Y27756D01*
X8500Y27664D01*
X8465Y27580D01*
X8400Y27515D01*
X8316Y27480D01*
X8224Y27480D01*
G37*
%LPD*%
%LPC*%
G36*
X11304Y27170D02*
X11304Y27170D01*
X11220Y27205D01*
X11155Y27270D01*
X11120Y27354D01*
X11120Y27446D01*
X11155Y27530D01*
X11220Y27595D01*
X11304Y27630D01*
X11396Y27630D01*
X11480Y27595D01*
X11545Y27530D01*
X11580Y27446D01*
X11580Y27354D01*
X11545Y27270D01*
X11480Y27205D01*
X11396Y27170D01*
X11304Y27170D01*
G37*
%LPD*%
%LPC*%
G36*
X13654Y26620D02*
X13654Y26620D01*
X13570Y26655D01*
X13505Y26720D01*
X13470Y26804D01*
X13470Y26896D01*
X13505Y26980D01*
X13570Y27045D01*
X13654Y27080D01*
X13746Y27080D01*
X13830Y27045D01*
X13895Y26980D01*
X13930Y26896D01*
X13930Y26804D01*
X13895Y26720D01*
X13830Y26655D01*
X13746Y26620D01*
X13654Y26620D01*
G37*
%LPD*%
%LPC*%
G36*
X7304Y26020D02*
X7304Y26020D01*
X7220Y26055D01*
X7155Y26120D01*
X7120Y26204D01*
X7120Y26296D01*
X7155Y26380D01*
X7220Y26445D01*
X7304Y26480D01*
X7396Y26480D01*
X7480Y26445D01*
X7545Y26380D01*
X7580Y26296D01*
X7580Y26204D01*
X7545Y26120D01*
X7480Y26055D01*
X7396Y26020D01*
X7304Y26020D01*
G37*
%LPD*%
%LPC*%
G36*
X15154Y24820D02*
X15154Y24820D01*
X15070Y24855D01*
X15005Y24920D01*
X14970Y25004D01*
X14970Y25096D01*
X15005Y25180D01*
X15070Y25245D01*
X15154Y25280D01*
X15246Y25280D01*
X15330Y25245D01*
X15395Y25180D01*
X15430Y25096D01*
X15430Y25004D01*
X15395Y24920D01*
X15330Y24855D01*
X15246Y24820D01*
X15154Y24820D01*
G37*
%LPD*%
%LPC*%
G36*
X3854Y24070D02*
X3854Y24070D01*
X3770Y24105D01*
X3705Y24170D01*
X3670Y24254D01*
X3670Y24346D01*
X3705Y24430D01*
X3770Y24495D01*
X3854Y24530D01*
X3946Y24530D01*
X4030Y24495D01*
X4095Y24430D01*
X4130Y24346D01*
X4130Y24254D01*
X4095Y24170D01*
X4030Y24105D01*
X3946Y24070D01*
X3854Y24070D01*
G37*
%LPD*%
%LPC*%
G36*
X10904Y23370D02*
X10904Y23370D01*
X10820Y23405D01*
X10755Y23470D01*
X10720Y23554D01*
X10720Y23646D01*
X10755Y23730D01*
X10820Y23795D01*
X10904Y23830D01*
X10996Y23830D01*
X11080Y23795D01*
X11145Y23730D01*
X11180Y23646D01*
X11180Y23554D01*
X11145Y23470D01*
X11080Y23405D01*
X10996Y23370D01*
X10904Y23370D01*
G37*
%LPD*%
%LPC*%
G36*
X12604Y23320D02*
X12604Y23320D01*
X12520Y23355D01*
X12455Y23420D01*
X12420Y23504D01*
X12420Y23596D01*
X12455Y23680D01*
X12520Y23745D01*
X12604Y23780D01*
X12696Y23780D01*
X12780Y23745D01*
X12845Y23680D01*
X12880Y23596D01*
X12880Y23504D01*
X12845Y23420D01*
X12780Y23355D01*
X12696Y23320D01*
X12604Y23320D01*
G37*
%LPD*%
%LPC*%
G36*
X10154Y22820D02*
X10154Y22820D01*
X10070Y22855D01*
X10005Y22920D01*
X9970Y23004D01*
X9970Y23096D01*
X10005Y23180D01*
X10070Y23245D01*
X10154Y23280D01*
X10246Y23280D01*
X10330Y23245D01*
X10395Y23180D01*
X10430Y23096D01*
X10430Y23004D01*
X10395Y22920D01*
X10330Y22855D01*
X10246Y22820D01*
X10154Y22820D01*
G37*
%LPD*%
%LPC*%
G36*
X13204Y22470D02*
X13204Y22470D01*
X13120Y22505D01*
X13055Y22570D01*
X13020Y22654D01*
X13020Y22746D01*
X13055Y22830D01*
X13120Y22895D01*
X13204Y22930D01*
X13296Y22930D01*
X13380Y22895D01*
X13445Y22830D01*
X13480Y22746D01*
X13480Y22654D01*
X13445Y22570D01*
X13380Y22505D01*
X13296Y22470D01*
X13204Y22470D01*
G37*
%LPD*%
%LPC*%
G36*
X10154Y21870D02*
X10154Y21870D01*
X10070Y21905D01*
X10005Y21970D01*
X9970Y22054D01*
X9970Y22146D01*
X10005Y22230D01*
X10070Y22295D01*
X10154Y22330D01*
X10246Y22330D01*
X10330Y22295D01*
X10395Y22230D01*
X10430Y22146D01*
X10430Y22054D01*
X10395Y21970D01*
X10330Y21905D01*
X10246Y21870D01*
X10154Y21870D01*
G37*
%LPD*%
%LPC*%
G36*
X6354Y20970D02*
X6354Y20970D01*
X6270Y21005D01*
X6205Y21070D01*
X6170Y21154D01*
X6170Y21246D01*
X6205Y21330D01*
X6270Y21395D01*
X6354Y21430D01*
X6446Y21430D01*
X6530Y21395D01*
X6595Y21330D01*
X6630Y21246D01*
X6630Y21154D01*
X6595Y21070D01*
X6530Y21005D01*
X6446Y20970D01*
X6354Y20970D01*
G37*
%LPD*%
D10*
X4600Y38441D03*
X4600Y37441D03*
X4600Y36441D03*
X4600Y35441D03*
X4600Y34441D03*
X4600Y33441D03*
X4600Y32441D03*
X4600Y31441D03*
X4600Y30441D03*
X10600Y30441D03*
X10600Y31441D03*
X10600Y32441D03*
X10600Y33441D03*
X10600Y34441D03*
X10600Y35441D03*
X10600Y36441D03*
X10600Y37441D03*
X10600Y38441D03*
X19226Y38425D03*
X19226Y37425D03*
X19226Y36425D03*
X19226Y35425D03*
X19226Y34425D03*
X19226Y33425D03*
X19226Y32425D03*
X19226Y31425D03*
X19226Y30425D03*
X25226Y30425D03*
X25226Y31425D03*
X25226Y32425D03*
X25226Y33425D03*
X25226Y34425D03*
X25226Y35425D03*
X25226Y36425D03*
X25226Y37425D03*
X25226Y38425D03*
D11*
X13250Y22700D03*
X12650Y23550D03*
X10950Y23600D03*
X10200Y22100D03*
X10200Y23050D03*
X6400Y21200D03*
X11350Y27400D03*
X7350Y26250D03*
X3900Y24300D03*
X2900Y29050D03*
X4100Y43950D03*
X4700Y43750D03*
X7550Y39700D03*
X10250Y40900D03*
X10850Y39800D03*
X23300Y47750D03*
X25700Y46200D03*
X25700Y45750D03*
X7353Y28113D03*
X15200Y25050D03*
X20680Y31030D03*
X8270Y27710D03*
D12*
X20680Y25050D02*
X20680Y31030D01*
D11*
X14520Y23510D03*
X6160Y43650D03*
X9650Y38500D03*
X15150Y39850D03*
X8300Y43200D03*
X13400Y8800D03*
D12*
X19140Y23510D02*
X20680Y25050D01*
X19140Y23510D02*
X14520Y23510D01*
D11*
X5450Y21070D03*
X5830Y21070D03*
X5830Y20690D03*
X5450Y20690D03*
X25110Y47730D03*
X12840Y39790D03*
X9020Y40060D03*
X10570Y44480D03*
X6140Y47130D03*
X5730Y44370D03*
X6550Y39600D03*
X21489Y29750D03*
X11790Y23550D03*
X14000Y24030D03*
X8550Y25680D03*
X9440Y28860D03*
X13970Y9360D03*
D13*
X15400Y10790D01*
X15400Y19460D01*
D11*
X8250Y43661D03*
X9390Y44131D03*
X6950Y42470D03*
X5300Y30900D03*
X19680Y40800D03*
X21020Y42130D03*
X7050Y45050D03*
X6550Y28550D03*
X22300Y31500D03*
X5900Y39200D03*
X7650Y43600D03*
X10000Y29200D03*
X7350Y43300D03*
X23350Y31600D03*
X5200Y39410D03*
X9640Y29700D03*
X6350Y42550D03*
X11050Y29350D03*
X6400Y42150D03*
X11292Y29058D03*
X10580Y29340D03*
X5520Y39680D03*
X4950Y39760D03*
X5100Y29800D03*
X25600Y29300D03*
X24450Y32450D03*
X4111Y39680D03*
X5650Y29800D03*
X14050Y8050D03*
X14650Y8650D03*
X9770Y41800D03*
X8046Y42474D03*
X8000Y41650D03*
X19000Y39400D03*
X18650Y29300D03*
X6950Y38950D03*
X13700Y26850D03*
M02*
