M48
;GenerationSoftware,Autodesk,EAGLE,9.0.1*%
;CreationDate,2018-06-26T08:14:35Z*%
FMAT,2
ICI,OFF
INCH,TZ,000.000
T2C0.014
T1C0.039
%
G90
M72
T1
X1923Y3542
X460Y3844
X460Y3744
X460Y3644
X460Y3544
X460Y3444
X460Y3344
X460Y3244
X460Y3144
X460Y3044
X1060Y3044
X1060Y3144
X1060Y3244
X1060Y3344
X1060Y3444
X1060Y3544
X1060Y3644
X1060Y3744
X1060Y3844
X1923Y3842
X1923Y3742
X1923Y3642
X1923Y3442
X1923Y3342
X1923Y3242
X1923Y3142
X1923Y3042
X2523Y3042
X2523Y3142
X2523Y3242
X2523Y3342
X2523Y3442
X2523Y3542
X2523Y3642
X2523Y3742
X2523Y3842
T2
X614Y4713
X573Y4437
X655Y3960
X2149Y2975
X1179Y2355
X1400Y2403
X855Y2568
X944Y2886
X1397Y936
X825Y4366
X939Y4413
X695Y4247
X530Y3090
X1968Y4080
X2102Y4213
X705Y4505
X655Y2855
X2230Y3150
X590Y3920
X765Y4360
X1000Y2920
X735Y4330
X2335Y3160
X1085Y3980
X964Y2970
X635Y4255
X1105Y2935
X640Y4215
X1129Y2906
X1058Y2934
X552Y3968
X495Y3976
X510Y2980
X2560Y2930
X2445Y3245
X411Y3968
X565Y2980
X1405Y805
X1465Y865
X977Y4180
X805Y4247
X800Y4165
X1900Y3940
X1865Y2930
X695Y3895
X1370Y2685
X1325Y2270
X1265Y2355
X1095Y2360
X1020Y2210
X1020Y2305
X640Y2120
X1135Y2740
X735Y2625
X390Y2430
X290Y2905
X410Y4395
X470Y4375
X755Y3970
X1025Y4090
X2330Y4775
X2570Y4620
X2570Y4575
X735Y2811
X1520Y2505
X2068Y3103
X827Y2771
X520Y3941
X1452Y2351
X616Y4365
X965Y3850
X1515Y3985
X830Y4320
X1340Y880
X545Y2107
X583Y2107
X583Y2069
X545Y2069
X2511Y4773
X1284Y3979
X902Y4006
X1057Y4448
M30