G04 EAGLE Gerber X2 export*
%TF.Part,Single*%
%TF.FileFunction,Legend,Bot,1*%
%TF.FilePolarity,Positive*%
%TF.GenerationSoftware,Autodesk,EAGLE,9.0.1*%
%TF.CreationDate,2018-06-26T08:14:36Z*%
G75*
%MOIN*%
%FSLAX34Y34*%
%LPD*%
%AMOC8*
5,1,8,0,0,1.08239X$1,22.5*%
G01*
%ADD10C,0.010000*%
%ADD11C,0.006000*%
%ADD12C,0.005000*%
%ADD13C,0.003000*%
%ADD14C,0.007874*%
%ADD15C,0.004000*%


D10*
X26063Y937D02*
X3622Y937D01*
X3622Y19835D01*
X26063Y19835D01*
X26063Y937D01*
D11*
X18770Y20736D02*
X18592Y20736D01*
X18567Y20734D01*
X18542Y20729D01*
X18518Y20720D01*
X18496Y20708D01*
X18475Y20693D01*
X18457Y20675D01*
X18442Y20654D01*
X18430Y20632D01*
X18421Y20608D01*
X18416Y20583D01*
X18414Y20558D01*
X18416Y20533D01*
X18421Y20508D01*
X18430Y20484D01*
X18442Y20462D01*
X18457Y20441D01*
X18475Y20423D01*
X18496Y20408D01*
X18518Y20396D01*
X18542Y20387D01*
X18567Y20382D01*
X18592Y20380D01*
X18770Y20380D01*
X18770Y21020D01*
X18592Y21020D01*
X18570Y21018D01*
X18548Y21013D01*
X18528Y21005D01*
X18509Y20993D01*
X18492Y20978D01*
X18477Y20961D01*
X18465Y20942D01*
X18457Y20922D01*
X18452Y20900D01*
X18450Y20878D01*
X18452Y20856D01*
X18457Y20834D01*
X18465Y20814D01*
X18477Y20795D01*
X18492Y20778D01*
X18509Y20763D01*
X18528Y20751D01*
X18548Y20743D01*
X18570Y20738D01*
X18592Y20736D01*
X18219Y20380D02*
X18006Y21020D01*
X17792Y20380D01*
X17846Y20540D02*
X18166Y20540D01*
X17431Y20380D02*
X17431Y21020D01*
X17609Y21020D02*
X17253Y21020D01*
X16898Y21020D02*
X16898Y20380D01*
X17076Y21020D02*
X16720Y21020D01*
X16496Y20629D02*
X16069Y20629D01*
X16283Y20416D02*
X16283Y20842D01*
X18592Y22736D02*
X18770Y22736D01*
X18592Y22736D02*
X18567Y22734D01*
X18542Y22729D01*
X18518Y22720D01*
X18496Y22708D01*
X18475Y22693D01*
X18457Y22675D01*
X18442Y22654D01*
X18430Y22632D01*
X18421Y22608D01*
X18416Y22583D01*
X18414Y22558D01*
X18416Y22533D01*
X18421Y22508D01*
X18430Y22484D01*
X18442Y22462D01*
X18457Y22441D01*
X18475Y22423D01*
X18496Y22408D01*
X18518Y22396D01*
X18542Y22387D01*
X18567Y22382D01*
X18592Y22380D01*
X18770Y22380D01*
X18770Y23020D01*
X18592Y23020D01*
X18570Y23018D01*
X18548Y23013D01*
X18528Y23005D01*
X18509Y22993D01*
X18492Y22978D01*
X18477Y22961D01*
X18465Y22942D01*
X18457Y22922D01*
X18452Y22900D01*
X18450Y22878D01*
X18452Y22856D01*
X18457Y22834D01*
X18465Y22814D01*
X18477Y22795D01*
X18492Y22778D01*
X18509Y22763D01*
X18528Y22751D01*
X18548Y22743D01*
X18570Y22738D01*
X18592Y22736D01*
X18219Y22380D02*
X18006Y23020D01*
X17792Y22380D01*
X17846Y22540D02*
X18166Y22540D01*
X17431Y22380D02*
X17431Y23020D01*
X17609Y23020D02*
X17253Y23020D01*
X16898Y23020D02*
X16898Y22380D01*
X17076Y23020D02*
X16720Y23020D01*
X16496Y22629D02*
X16069Y22629D01*
D10*
X6966Y23331D02*
X6699Y23598D01*
D12*
X8524Y41391D02*
X8524Y41474D01*
X8524Y41478D02*
X8524Y44147D01*
X5768Y44147D01*
X5768Y41391D01*
X8524Y41391D01*
X8179Y41612D02*
X8181Y41634D01*
X8187Y41655D01*
X8196Y41674D01*
X8209Y41692D01*
X8225Y41707D01*
X8243Y41719D01*
X8263Y41727D01*
X8284Y41732D01*
X8305Y41733D01*
X8327Y41730D01*
X8348Y41723D01*
X8367Y41713D01*
X8384Y41699D01*
X8398Y41683D01*
X8409Y41664D01*
X8417Y41644D01*
X8421Y41623D01*
X8421Y41601D01*
X8417Y41580D01*
X8409Y41560D01*
X8398Y41541D01*
X8384Y41525D01*
X8367Y41511D01*
X8348Y41501D01*
X8327Y41494D01*
X8305Y41491D01*
X8284Y41492D01*
X8263Y41497D01*
X8243Y41505D01*
X8225Y41517D01*
X8209Y41532D01*
X8196Y41550D01*
X8187Y41569D01*
X8181Y41590D01*
X8179Y41612D01*
D13*
X8549Y40753D02*
X8549Y40486D01*
X8547Y40467D01*
X8542Y40449D01*
X8534Y40432D01*
X8522Y40417D01*
X8508Y40404D01*
X8492Y40394D01*
X8474Y40387D01*
X8456Y40383D01*
X8436Y40383D01*
X8418Y40387D01*
X8400Y40394D01*
X8384Y40404D01*
X8370Y40417D01*
X8358Y40432D01*
X8350Y40449D01*
X8345Y40467D01*
X8343Y40486D01*
X8344Y40486D02*
X8344Y40753D01*
X8177Y40671D02*
X8074Y40753D01*
X8074Y40383D01*
X7972Y40383D02*
X8177Y40383D01*
D12*
X6796Y23217D02*
X5379Y23217D01*
X5379Y22115D01*
X6796Y22115D01*
X6796Y23217D01*
D13*
X6692Y23661D02*
X6692Y24031D01*
X6589Y24031D01*
X6570Y24029D01*
X6552Y24024D01*
X6535Y24016D01*
X6520Y24004D01*
X6507Y23990D01*
X6497Y23974D01*
X6490Y23956D01*
X6486Y23938D01*
X6486Y23918D01*
X6490Y23900D01*
X6497Y23882D01*
X6507Y23866D01*
X6520Y23852D01*
X6535Y23840D01*
X6552Y23832D01*
X6570Y23827D01*
X6589Y23825D01*
X6692Y23825D01*
X6568Y23825D02*
X6486Y23661D01*
X6334Y23949D02*
X6231Y24031D01*
X6231Y23661D01*
X6334Y23661D02*
X6128Y23661D01*
X9681Y23474D02*
X9681Y23844D01*
X9579Y23844D01*
X9560Y23842D01*
X9542Y23837D01*
X9525Y23829D01*
X9510Y23817D01*
X9497Y23803D01*
X9487Y23787D01*
X9480Y23769D01*
X9476Y23751D01*
X9476Y23731D01*
X9480Y23713D01*
X9487Y23695D01*
X9497Y23679D01*
X9510Y23665D01*
X9525Y23653D01*
X9542Y23645D01*
X9560Y23640D01*
X9579Y23638D01*
X9681Y23638D01*
X9558Y23638D02*
X9476Y23474D01*
X9118Y23751D02*
X9120Y23769D01*
X9125Y23787D01*
X9134Y23803D01*
X9145Y23817D01*
X9159Y23828D01*
X9175Y23837D01*
X9193Y23842D01*
X9211Y23844D01*
X9230Y23843D01*
X9248Y23838D01*
X9265Y23831D01*
X9281Y23821D01*
X9295Y23809D01*
X9307Y23795D01*
X9317Y23779D01*
X9324Y23762D01*
X9149Y23679D02*
X9138Y23691D01*
X9129Y23705D01*
X9123Y23719D01*
X9119Y23735D01*
X9118Y23751D01*
X9149Y23679D02*
X9324Y23474D01*
X9118Y23474D01*
X9427Y21321D02*
X9509Y21321D01*
X9525Y21323D01*
X9540Y21327D01*
X9555Y21335D01*
X9567Y21345D01*
X9577Y21357D01*
X9585Y21372D01*
X9589Y21387D01*
X9591Y21403D01*
X9591Y21609D01*
X9589Y21625D01*
X9585Y21640D01*
X9577Y21655D01*
X9567Y21667D01*
X9555Y21677D01*
X9540Y21685D01*
X9525Y21689D01*
X9509Y21691D01*
X9427Y21691D01*
X9290Y21609D02*
X9188Y21691D01*
X9188Y21321D01*
X9290Y21321D02*
X9085Y21321D01*
X5033Y21461D02*
X4950Y21461D01*
X5033Y21461D02*
X5049Y21463D01*
X5064Y21467D01*
X5079Y21475D01*
X5091Y21485D01*
X5101Y21497D01*
X5109Y21512D01*
X5113Y21527D01*
X5115Y21543D01*
X5115Y21749D01*
X5113Y21765D01*
X5109Y21780D01*
X5101Y21795D01*
X5091Y21807D01*
X5079Y21817D01*
X5064Y21825D01*
X5049Y21829D01*
X5033Y21831D01*
X4950Y21831D01*
X4701Y21831D02*
X4683Y21829D01*
X4665Y21824D01*
X4649Y21815D01*
X4635Y21804D01*
X4624Y21790D01*
X4615Y21774D01*
X4610Y21756D01*
X4608Y21738D01*
X4701Y21831D02*
X4720Y21830D01*
X4738Y21825D01*
X4755Y21818D01*
X4771Y21808D01*
X4785Y21796D01*
X4797Y21782D01*
X4807Y21766D01*
X4814Y21749D01*
X4640Y21666D02*
X4629Y21678D01*
X4620Y21692D01*
X4614Y21706D01*
X4610Y21722D01*
X4609Y21738D01*
X4639Y21666D02*
X4814Y21461D01*
X4608Y21461D01*
X7707Y24317D02*
X7789Y24317D01*
X7789Y24318D02*
X7805Y24320D01*
X7820Y24324D01*
X7835Y24332D01*
X7847Y24342D01*
X7857Y24354D01*
X7865Y24369D01*
X7869Y24384D01*
X7871Y24400D01*
X7872Y24400D02*
X7872Y24605D01*
X7871Y24605D02*
X7869Y24621D01*
X7865Y24636D01*
X7857Y24651D01*
X7847Y24663D01*
X7835Y24673D01*
X7820Y24681D01*
X7805Y24685D01*
X7789Y24687D01*
X7707Y24687D01*
X7571Y24317D02*
X7468Y24317D01*
X7449Y24319D01*
X7431Y24324D01*
X7414Y24332D01*
X7399Y24344D01*
X7386Y24358D01*
X7376Y24374D01*
X7369Y24392D01*
X7365Y24410D01*
X7365Y24430D01*
X7369Y24448D01*
X7376Y24466D01*
X7386Y24482D01*
X7399Y24496D01*
X7414Y24508D01*
X7431Y24516D01*
X7449Y24521D01*
X7468Y24523D01*
X7447Y24687D02*
X7571Y24687D01*
X7447Y24687D02*
X7430Y24685D01*
X7414Y24680D01*
X7399Y24671D01*
X7386Y24660D01*
X7376Y24646D01*
X7369Y24630D01*
X7365Y24614D01*
X7365Y24596D01*
X7369Y24580D01*
X7376Y24564D01*
X7386Y24550D01*
X7399Y24539D01*
X7414Y24530D01*
X7430Y24525D01*
X7447Y24523D01*
X7529Y24523D01*
X9082Y20847D02*
X9082Y20477D01*
X9082Y20847D02*
X8979Y20847D01*
X8979Y20848D02*
X8960Y20846D01*
X8942Y20841D01*
X8925Y20833D01*
X8910Y20821D01*
X8897Y20807D01*
X8887Y20791D01*
X8880Y20773D01*
X8876Y20755D01*
X8876Y20735D01*
X8880Y20717D01*
X8887Y20699D01*
X8897Y20683D01*
X8910Y20669D01*
X8925Y20657D01*
X8942Y20649D01*
X8960Y20644D01*
X8979Y20642D01*
X9082Y20642D01*
X8958Y20642D02*
X8876Y20477D01*
X8724Y20477D02*
X8621Y20477D01*
X8602Y20479D01*
X8584Y20484D01*
X8567Y20492D01*
X8552Y20504D01*
X8539Y20518D01*
X8529Y20534D01*
X8522Y20552D01*
X8518Y20570D01*
X8518Y20590D01*
X8522Y20608D01*
X8529Y20626D01*
X8539Y20642D01*
X8552Y20656D01*
X8567Y20668D01*
X8584Y20676D01*
X8602Y20681D01*
X8621Y20683D01*
X8600Y20847D02*
X8724Y20847D01*
X8600Y20847D02*
X8583Y20845D01*
X8567Y20840D01*
X8552Y20831D01*
X8539Y20820D01*
X8529Y20806D01*
X8522Y20790D01*
X8518Y20774D01*
X8518Y20756D01*
X8522Y20740D01*
X8529Y20724D01*
X8539Y20710D01*
X8552Y20699D01*
X8567Y20690D01*
X8583Y20685D01*
X8600Y20683D01*
X8683Y20683D01*
X5810Y35264D02*
X5440Y35264D01*
X5810Y35264D02*
X5810Y35367D01*
X5808Y35386D01*
X5803Y35404D01*
X5795Y35421D01*
X5783Y35436D01*
X5769Y35449D01*
X5753Y35459D01*
X5735Y35466D01*
X5717Y35470D01*
X5697Y35470D01*
X5679Y35466D01*
X5661Y35459D01*
X5645Y35449D01*
X5631Y35436D01*
X5619Y35421D01*
X5611Y35404D01*
X5606Y35386D01*
X5604Y35367D01*
X5604Y35264D01*
X5604Y35387D02*
X5440Y35469D01*
X5522Y35622D02*
X5810Y35704D01*
X5522Y35622D02*
X5522Y35827D01*
X5604Y35765D02*
X5440Y35765D01*
X3197Y33747D02*
X2827Y33747D01*
X3197Y33747D02*
X3197Y33850D01*
X3195Y33869D01*
X3190Y33887D01*
X3182Y33904D01*
X3170Y33919D01*
X3156Y33932D01*
X3140Y33942D01*
X3122Y33949D01*
X3104Y33953D01*
X3084Y33953D01*
X3066Y33949D01*
X3048Y33942D01*
X3032Y33932D01*
X3018Y33919D01*
X3006Y33904D01*
X2998Y33887D01*
X2993Y33869D01*
X2991Y33850D01*
X2991Y33747D01*
X2991Y33870D02*
X2827Y33953D01*
X2827Y34105D02*
X2827Y34228D01*
X2829Y34244D01*
X2833Y34259D01*
X2841Y34274D01*
X2851Y34286D01*
X2863Y34296D01*
X2878Y34304D01*
X2893Y34308D01*
X2909Y34310D01*
X2950Y34310D01*
X2966Y34308D01*
X2981Y34304D01*
X2996Y34296D01*
X3008Y34286D01*
X3018Y34274D01*
X3026Y34259D01*
X3030Y34244D01*
X3032Y34228D01*
X3032Y34105D01*
X3197Y34105D01*
X3197Y34310D01*
X3627Y34677D02*
X3997Y34677D01*
X3997Y34780D01*
X3995Y34799D01*
X3990Y34817D01*
X3982Y34834D01*
X3970Y34849D01*
X3956Y34862D01*
X3940Y34872D01*
X3922Y34879D01*
X3904Y34883D01*
X3884Y34883D01*
X3866Y34879D01*
X3848Y34872D01*
X3832Y34862D01*
X3818Y34849D01*
X3806Y34834D01*
X3798Y34817D01*
X3793Y34799D01*
X3791Y34780D01*
X3791Y34677D01*
X3791Y34800D02*
X3627Y34883D01*
X3832Y35035D02*
X3832Y35158D01*
X3830Y35174D01*
X3826Y35189D01*
X3818Y35204D01*
X3808Y35216D01*
X3796Y35226D01*
X3781Y35234D01*
X3766Y35238D01*
X3750Y35240D01*
X3729Y35240D01*
X3729Y35241D02*
X3710Y35239D01*
X3692Y35234D01*
X3675Y35226D01*
X3660Y35214D01*
X3647Y35200D01*
X3637Y35184D01*
X3630Y35166D01*
X3626Y35148D01*
X3626Y35128D01*
X3630Y35110D01*
X3637Y35092D01*
X3647Y35076D01*
X3660Y35062D01*
X3675Y35050D01*
X3692Y35042D01*
X3710Y35037D01*
X3729Y35035D01*
X3832Y35035D01*
X3855Y35037D01*
X3878Y35042D01*
X3900Y35050D01*
X3921Y35061D01*
X3939Y35075D01*
X3956Y35092D01*
X3970Y35110D01*
X3981Y35131D01*
X3989Y35153D01*
X3994Y35176D01*
X3996Y35199D01*
X23581Y33031D02*
X23951Y33031D01*
X23951Y33133D01*
X23949Y33152D01*
X23944Y33170D01*
X23936Y33187D01*
X23924Y33202D01*
X23910Y33215D01*
X23894Y33225D01*
X23876Y33232D01*
X23858Y33236D01*
X23838Y33236D01*
X23820Y33232D01*
X23802Y33225D01*
X23786Y33215D01*
X23772Y33202D01*
X23760Y33187D01*
X23752Y33170D01*
X23747Y33152D01*
X23745Y33133D01*
X23745Y33031D01*
X23745Y33154D02*
X23581Y33236D01*
X23910Y33388D02*
X23951Y33388D01*
X23951Y33594D01*
X23581Y33491D01*
X23041Y34064D02*
X22671Y34064D01*
X23041Y34064D02*
X23041Y34167D01*
X23039Y34186D01*
X23034Y34204D01*
X23026Y34221D01*
X23014Y34236D01*
X23000Y34249D01*
X22984Y34259D01*
X22966Y34266D01*
X22948Y34270D01*
X22928Y34270D01*
X22910Y34266D01*
X22892Y34259D01*
X22876Y34249D01*
X22862Y34236D01*
X22850Y34221D01*
X22842Y34204D01*
X22837Y34186D01*
X22835Y34167D01*
X22835Y34064D01*
X22835Y34187D02*
X22671Y34270D01*
X22773Y34422D02*
X22792Y34424D01*
X22810Y34429D01*
X22827Y34437D01*
X22842Y34449D01*
X22855Y34463D01*
X22865Y34479D01*
X22872Y34497D01*
X22876Y34515D01*
X22876Y34535D01*
X22872Y34553D01*
X22865Y34571D01*
X22855Y34587D01*
X22842Y34601D01*
X22827Y34613D01*
X22810Y34621D01*
X22792Y34626D01*
X22773Y34628D01*
X22754Y34626D01*
X22736Y34621D01*
X22719Y34613D01*
X22704Y34601D01*
X22691Y34587D01*
X22681Y34571D01*
X22674Y34553D01*
X22670Y34535D01*
X22670Y34515D01*
X22674Y34497D01*
X22681Y34479D01*
X22691Y34463D01*
X22704Y34449D01*
X22719Y34437D01*
X22736Y34429D01*
X22754Y34424D01*
X22773Y34422D01*
X22958Y34443D02*
X22975Y34445D01*
X22991Y34450D01*
X23006Y34459D01*
X23019Y34470D01*
X23029Y34484D01*
X23036Y34500D01*
X23040Y34516D01*
X23040Y34534D01*
X23036Y34550D01*
X23029Y34566D01*
X23019Y34580D01*
X23006Y34591D01*
X22991Y34600D01*
X22975Y34605D01*
X22958Y34607D01*
X22941Y34605D01*
X22925Y34600D01*
X22910Y34591D01*
X22897Y34580D01*
X22887Y34566D01*
X22880Y34550D01*
X22876Y34534D01*
X22876Y34516D01*
X22880Y34500D01*
X22887Y34484D01*
X22897Y34470D01*
X22910Y34459D01*
X22925Y34450D01*
X22941Y34445D01*
X22958Y34443D01*
X21320Y36031D02*
X20950Y36031D01*
X21320Y36031D02*
X21320Y36133D01*
X21321Y36133D02*
X21319Y36152D01*
X21314Y36170D01*
X21306Y36187D01*
X21294Y36202D01*
X21280Y36215D01*
X21264Y36225D01*
X21246Y36232D01*
X21228Y36236D01*
X21208Y36236D01*
X21190Y36232D01*
X21172Y36225D01*
X21156Y36215D01*
X21142Y36202D01*
X21130Y36187D01*
X21122Y36170D01*
X21117Y36152D01*
X21115Y36133D01*
X21115Y36031D01*
X21115Y36154D02*
X20950Y36236D01*
X21115Y36471D02*
X21115Y36594D01*
X21115Y36471D02*
X21117Y36455D01*
X21121Y36440D01*
X21129Y36425D01*
X21139Y36413D01*
X21151Y36403D01*
X21166Y36395D01*
X21181Y36391D01*
X21197Y36389D01*
X21197Y36388D02*
X21218Y36388D01*
X21237Y36390D01*
X21255Y36395D01*
X21272Y36403D01*
X21287Y36415D01*
X21300Y36429D01*
X21310Y36445D01*
X21317Y36463D01*
X21321Y36481D01*
X21321Y36501D01*
X21317Y36519D01*
X21310Y36537D01*
X21300Y36553D01*
X21287Y36567D01*
X21272Y36579D01*
X21255Y36587D01*
X21237Y36592D01*
X21218Y36594D01*
X21115Y36594D01*
X21092Y36592D01*
X21069Y36587D01*
X21047Y36579D01*
X21026Y36568D01*
X21008Y36554D01*
X20991Y36537D01*
X20977Y36519D01*
X20966Y36498D01*
X20958Y36476D01*
X20953Y36453D01*
X20951Y36430D01*
X8313Y38204D02*
X7943Y38204D01*
X8313Y38204D02*
X8313Y38307D01*
X8311Y38326D01*
X8306Y38344D01*
X8298Y38361D01*
X8286Y38376D01*
X8272Y38389D01*
X8256Y38399D01*
X8238Y38406D01*
X8220Y38410D01*
X8200Y38410D01*
X8182Y38406D01*
X8164Y38399D01*
X8148Y38389D01*
X8134Y38376D01*
X8122Y38361D01*
X8114Y38344D01*
X8109Y38326D01*
X8107Y38307D01*
X8107Y38204D01*
X8107Y38327D02*
X7943Y38409D01*
X8231Y38562D02*
X8313Y38664D01*
X7943Y38664D01*
X7943Y38562D02*
X7943Y38767D01*
X8128Y38921D02*
X8163Y38923D01*
X8197Y38929D01*
X8230Y38938D01*
X8262Y38952D01*
X8276Y38959D01*
X8288Y38968D01*
X8299Y38980D01*
X8307Y38993D01*
X8311Y39008D01*
X8313Y39024D01*
X8311Y39040D01*
X8307Y39055D01*
X8299Y39068D01*
X8288Y39080D01*
X8276Y39089D01*
X8262Y39096D01*
X8230Y39110D01*
X8197Y39119D01*
X8163Y39125D01*
X8128Y39127D01*
X8128Y38921D02*
X8093Y38923D01*
X8059Y38929D01*
X8026Y38938D01*
X7994Y38952D01*
X7980Y38959D01*
X7968Y38968D01*
X7957Y38980D01*
X7949Y38993D01*
X7945Y39008D01*
X7943Y39024D01*
X7994Y39096D02*
X8026Y39110D01*
X8059Y39119D01*
X8093Y39125D01*
X8128Y39127D01*
X7994Y39096D02*
X7980Y39089D01*
X7968Y39080D01*
X7957Y39068D01*
X7949Y39055D01*
X7945Y39040D01*
X7943Y39024D01*
X8025Y38942D02*
X8231Y39107D01*
X7490Y37220D02*
X7120Y37220D01*
X7490Y37220D02*
X7490Y37323D01*
X7488Y37342D01*
X7483Y37360D01*
X7475Y37377D01*
X7463Y37392D01*
X7449Y37405D01*
X7433Y37415D01*
X7415Y37422D01*
X7397Y37426D01*
X7377Y37426D01*
X7359Y37422D01*
X7341Y37415D01*
X7325Y37405D01*
X7311Y37392D01*
X7299Y37377D01*
X7291Y37360D01*
X7286Y37342D01*
X7284Y37323D01*
X7284Y37220D01*
X7284Y37344D02*
X7120Y37426D01*
X7407Y37578D02*
X7490Y37681D01*
X7120Y37681D01*
X7120Y37578D02*
X7120Y37784D01*
X7407Y37938D02*
X7490Y38041D01*
X7120Y38041D01*
X7120Y37938D02*
X7120Y38144D01*
X6666Y36204D02*
X6296Y36204D01*
X6666Y36204D02*
X6666Y36307D01*
X6667Y36307D02*
X6665Y36326D01*
X6660Y36344D01*
X6652Y36361D01*
X6640Y36376D01*
X6626Y36389D01*
X6610Y36399D01*
X6592Y36406D01*
X6574Y36410D01*
X6554Y36410D01*
X6536Y36406D01*
X6518Y36399D01*
X6502Y36389D01*
X6488Y36376D01*
X6476Y36361D01*
X6468Y36344D01*
X6463Y36326D01*
X6461Y36307D01*
X6461Y36204D01*
X6461Y36327D02*
X6296Y36409D01*
X6584Y36562D02*
X6666Y36664D01*
X6296Y36664D01*
X6296Y36562D02*
X6296Y36767D01*
X6379Y36922D02*
X6666Y37004D01*
X6379Y36922D02*
X6379Y37127D01*
X6461Y37065D02*
X6296Y37065D01*
X2330Y32637D02*
X1960Y32637D01*
X2330Y32637D02*
X2330Y32740D01*
X2328Y32759D01*
X2323Y32777D01*
X2315Y32794D01*
X2303Y32809D01*
X2289Y32822D01*
X2273Y32832D01*
X2255Y32839D01*
X2237Y32843D01*
X2217Y32843D01*
X2199Y32839D01*
X2181Y32832D01*
X2165Y32822D01*
X2151Y32809D01*
X2139Y32794D01*
X2131Y32777D01*
X2126Y32759D01*
X2124Y32740D01*
X2124Y32637D01*
X2124Y32760D02*
X1960Y32843D01*
X2248Y32995D02*
X2330Y33098D01*
X1960Y33098D01*
X1960Y33200D02*
X1960Y32995D01*
X1960Y33355D02*
X1960Y33458D01*
X1962Y33477D01*
X1967Y33495D01*
X1975Y33512D01*
X1987Y33527D01*
X2001Y33540D01*
X2017Y33550D01*
X2035Y33557D01*
X2053Y33561D01*
X2073Y33561D01*
X2091Y33557D01*
X2109Y33550D01*
X2125Y33540D01*
X2139Y33527D01*
X2151Y33512D01*
X2159Y33495D01*
X2164Y33477D01*
X2166Y33458D01*
X2330Y33478D02*
X2330Y33355D01*
X2330Y33478D02*
X2328Y33495D01*
X2323Y33511D01*
X2314Y33526D01*
X2303Y33539D01*
X2289Y33549D01*
X2273Y33556D01*
X2257Y33560D01*
X2239Y33560D01*
X2223Y33556D01*
X2207Y33549D01*
X2193Y33539D01*
X2182Y33526D01*
X2173Y33511D01*
X2168Y33495D01*
X2166Y33478D01*
X2166Y33396D01*
X1497Y31617D02*
X1127Y31617D01*
X1497Y31617D02*
X1497Y31720D01*
X1495Y31739D01*
X1490Y31757D01*
X1482Y31774D01*
X1470Y31789D01*
X1456Y31802D01*
X1440Y31812D01*
X1422Y31819D01*
X1404Y31823D01*
X1384Y31823D01*
X1366Y31819D01*
X1348Y31812D01*
X1332Y31802D01*
X1318Y31789D01*
X1306Y31774D01*
X1298Y31757D01*
X1293Y31739D01*
X1291Y31720D01*
X1291Y31617D01*
X1291Y31740D02*
X1127Y31823D01*
X1415Y31975D02*
X1497Y32078D01*
X1127Y32078D01*
X1127Y32180D02*
X1127Y31975D01*
X1497Y32448D02*
X1495Y32466D01*
X1490Y32484D01*
X1481Y32500D01*
X1470Y32514D01*
X1456Y32525D01*
X1440Y32534D01*
X1422Y32539D01*
X1404Y32541D01*
X1497Y32448D02*
X1496Y32429D01*
X1491Y32411D01*
X1484Y32394D01*
X1474Y32378D01*
X1462Y32364D01*
X1448Y32352D01*
X1432Y32342D01*
X1415Y32335D01*
X1332Y32509D02*
X1344Y32520D01*
X1358Y32529D01*
X1372Y32535D01*
X1388Y32539D01*
X1404Y32540D01*
X1332Y32510D02*
X1127Y32335D01*
X1127Y32540D01*
X27661Y29121D02*
X28031Y29121D01*
X28031Y29223D01*
X28029Y29242D01*
X28024Y29260D01*
X28016Y29277D01*
X28004Y29292D01*
X27990Y29305D01*
X27974Y29315D01*
X27956Y29322D01*
X27938Y29326D01*
X27918Y29326D01*
X27900Y29322D01*
X27882Y29315D01*
X27866Y29305D01*
X27852Y29292D01*
X27840Y29277D01*
X27832Y29260D01*
X27827Y29242D01*
X27825Y29223D01*
X27825Y29121D01*
X27825Y29244D02*
X27661Y29326D01*
X27949Y29478D02*
X28031Y29581D01*
X27661Y29581D01*
X27661Y29478D02*
X27661Y29684D01*
X27990Y29838D02*
X28031Y29838D01*
X28031Y30044D01*
X27661Y29941D01*
X26327Y32204D02*
X25957Y32204D01*
X26327Y32204D02*
X26327Y32307D01*
X26328Y32307D02*
X26326Y32326D01*
X26321Y32344D01*
X26313Y32361D01*
X26301Y32376D01*
X26287Y32389D01*
X26271Y32399D01*
X26253Y32406D01*
X26235Y32410D01*
X26215Y32410D01*
X26197Y32406D01*
X26179Y32399D01*
X26163Y32389D01*
X26149Y32376D01*
X26137Y32361D01*
X26129Y32344D01*
X26124Y32326D01*
X26122Y32307D01*
X26122Y32204D01*
X26122Y32327D02*
X25957Y32410D01*
X26245Y32562D02*
X26327Y32665D01*
X25957Y32665D01*
X25957Y32767D02*
X25957Y32562D01*
X26163Y32922D02*
X26163Y33045D01*
X26161Y33061D01*
X26157Y33076D01*
X26149Y33091D01*
X26139Y33103D01*
X26127Y33113D01*
X26112Y33121D01*
X26097Y33125D01*
X26081Y33127D01*
X26060Y33127D01*
X26060Y33128D02*
X26041Y33126D01*
X26023Y33121D01*
X26006Y33113D01*
X25991Y33101D01*
X25978Y33087D01*
X25968Y33071D01*
X25961Y33053D01*
X25957Y33035D01*
X25957Y33015D01*
X25961Y32997D01*
X25968Y32979D01*
X25978Y32963D01*
X25991Y32949D01*
X26006Y32937D01*
X26023Y32929D01*
X26041Y32924D01*
X26060Y32922D01*
X26163Y32922D01*
X26186Y32924D01*
X26209Y32929D01*
X26231Y32937D01*
X26252Y32948D01*
X26270Y32962D01*
X26287Y32979D01*
X26301Y32997D01*
X26312Y33018D01*
X26320Y33040D01*
X26325Y33063D01*
X26327Y33086D01*
X22197Y34671D02*
X21827Y34671D01*
X22197Y34671D02*
X22197Y34773D01*
X22195Y34792D01*
X22190Y34810D01*
X22182Y34827D01*
X22170Y34842D01*
X22156Y34855D01*
X22140Y34865D01*
X22122Y34872D01*
X22104Y34876D01*
X22084Y34876D01*
X22066Y34872D01*
X22048Y34865D01*
X22032Y34855D01*
X22018Y34842D01*
X22006Y34827D01*
X21998Y34810D01*
X21993Y34792D01*
X21991Y34773D01*
X21992Y34773D02*
X21992Y34671D01*
X21992Y34794D02*
X21827Y34876D01*
X22115Y35028D02*
X22197Y35131D01*
X21827Y35131D01*
X21827Y35028D02*
X21827Y35234D01*
X21827Y35388D02*
X21827Y35512D01*
X21829Y35528D01*
X21833Y35543D01*
X21841Y35558D01*
X21851Y35570D01*
X21863Y35580D01*
X21878Y35588D01*
X21893Y35592D01*
X21909Y35594D01*
X21950Y35594D01*
X21966Y35592D01*
X21981Y35588D01*
X21996Y35580D01*
X22008Y35570D01*
X22018Y35558D01*
X22026Y35543D01*
X22030Y35528D01*
X22032Y35512D01*
X22033Y35512D02*
X22033Y35388D01*
X22197Y35388D01*
X22197Y35594D01*
X20444Y36654D02*
X20074Y36654D01*
X20444Y36654D02*
X20444Y36757D01*
X20442Y36776D01*
X20437Y36794D01*
X20429Y36811D01*
X20417Y36826D01*
X20403Y36839D01*
X20387Y36849D01*
X20369Y36856D01*
X20351Y36860D01*
X20331Y36860D01*
X20313Y36856D01*
X20295Y36849D01*
X20279Y36839D01*
X20265Y36826D01*
X20253Y36811D01*
X20245Y36794D01*
X20240Y36776D01*
X20238Y36757D01*
X20238Y36654D01*
X20238Y36777D02*
X20074Y36860D01*
X20361Y37012D02*
X20444Y37115D01*
X20074Y37115D01*
X20074Y37217D02*
X20074Y37012D01*
X20238Y37454D02*
X20238Y37577D01*
X20238Y37454D02*
X20240Y37438D01*
X20244Y37423D01*
X20252Y37408D01*
X20262Y37396D01*
X20274Y37386D01*
X20289Y37378D01*
X20304Y37374D01*
X20320Y37372D01*
X20341Y37372D01*
X20360Y37374D01*
X20378Y37379D01*
X20395Y37387D01*
X20410Y37399D01*
X20423Y37413D01*
X20433Y37429D01*
X20440Y37447D01*
X20444Y37465D01*
X20444Y37485D01*
X20440Y37503D01*
X20433Y37521D01*
X20423Y37537D01*
X20410Y37551D01*
X20395Y37563D01*
X20378Y37571D01*
X20360Y37576D01*
X20341Y37578D01*
X20341Y37577D02*
X20238Y37577D01*
X20215Y37575D01*
X20192Y37570D01*
X20170Y37562D01*
X20149Y37551D01*
X20131Y37537D01*
X20114Y37520D01*
X20100Y37502D01*
X20089Y37481D01*
X20081Y37459D01*
X20076Y37436D01*
X20074Y37413D01*
X9103Y36771D02*
X8733Y36771D01*
X9103Y36771D02*
X9103Y36873D01*
X9101Y36892D01*
X9096Y36910D01*
X9088Y36927D01*
X9076Y36942D01*
X9062Y36955D01*
X9046Y36965D01*
X9028Y36972D01*
X9010Y36976D01*
X8990Y36976D01*
X8972Y36972D01*
X8954Y36965D01*
X8938Y36955D01*
X8924Y36942D01*
X8912Y36927D01*
X8904Y36910D01*
X8899Y36892D01*
X8897Y36873D01*
X8897Y36771D01*
X8897Y36894D02*
X8733Y36976D01*
X9020Y37128D02*
X9103Y37231D01*
X8733Y37231D01*
X8733Y37128D02*
X8733Y37334D01*
X8835Y37488D02*
X8854Y37490D01*
X8872Y37495D01*
X8889Y37503D01*
X8904Y37515D01*
X8917Y37529D01*
X8927Y37545D01*
X8934Y37563D01*
X8938Y37581D01*
X8938Y37601D01*
X8934Y37619D01*
X8927Y37637D01*
X8917Y37653D01*
X8904Y37667D01*
X8889Y37679D01*
X8872Y37687D01*
X8854Y37692D01*
X8835Y37694D01*
X8816Y37692D01*
X8798Y37687D01*
X8781Y37679D01*
X8766Y37667D01*
X8753Y37653D01*
X8743Y37637D01*
X8736Y37619D01*
X8732Y37601D01*
X8732Y37581D01*
X8736Y37563D01*
X8743Y37545D01*
X8753Y37529D01*
X8766Y37515D01*
X8781Y37503D01*
X8798Y37495D01*
X8816Y37490D01*
X8835Y37488D01*
X9020Y37509D02*
X9037Y37511D01*
X9053Y37516D01*
X9068Y37525D01*
X9081Y37536D01*
X9091Y37550D01*
X9098Y37566D01*
X9102Y37582D01*
X9102Y37600D01*
X9098Y37616D01*
X9091Y37632D01*
X9081Y37646D01*
X9068Y37657D01*
X9053Y37666D01*
X9037Y37671D01*
X9020Y37673D01*
X9003Y37671D01*
X8987Y37666D01*
X8972Y37657D01*
X8959Y37646D01*
X8949Y37632D01*
X8942Y37616D01*
X8938Y37600D01*
X8938Y37582D01*
X8942Y37566D01*
X8949Y37550D01*
X8959Y37536D01*
X8972Y37525D01*
X8987Y37516D01*
X9003Y37511D01*
X9020Y37509D01*
D11*
X8491Y30683D02*
X8491Y30553D01*
X8491Y30313D01*
X8491Y30183D01*
X8491Y30313D02*
X8470Y30315D01*
X8450Y30320D01*
X8431Y30329D01*
X8414Y30341D01*
X8399Y30356D01*
X8387Y30373D01*
X8378Y30392D01*
X8373Y30412D01*
X8371Y30433D01*
X8373Y30454D01*
X8378Y30474D01*
X8387Y30493D01*
X8399Y30510D01*
X8414Y30525D01*
X8431Y30537D01*
X8450Y30546D01*
X8470Y30551D01*
X8491Y30553D01*
D13*
X8731Y30083D02*
X8998Y30083D01*
X8731Y30083D02*
X8712Y30085D01*
X8694Y30090D01*
X8677Y30098D01*
X8662Y30110D01*
X8649Y30124D01*
X8639Y30140D01*
X8632Y30158D01*
X8628Y30176D01*
X8628Y30196D01*
X8632Y30214D01*
X8639Y30232D01*
X8649Y30248D01*
X8662Y30262D01*
X8677Y30274D01*
X8694Y30282D01*
X8712Y30287D01*
X8731Y30289D01*
X8998Y30289D01*
X8833Y30455D02*
X8833Y30578D01*
X8831Y30594D01*
X8827Y30609D01*
X8819Y30624D01*
X8809Y30636D01*
X8797Y30646D01*
X8782Y30654D01*
X8767Y30658D01*
X8751Y30660D01*
X8751Y30661D02*
X8731Y30661D01*
X8712Y30659D01*
X8694Y30654D01*
X8677Y30646D01*
X8662Y30634D01*
X8649Y30620D01*
X8639Y30604D01*
X8632Y30586D01*
X8628Y30568D01*
X8628Y30548D01*
X8632Y30530D01*
X8639Y30512D01*
X8649Y30496D01*
X8662Y30482D01*
X8677Y30470D01*
X8694Y30462D01*
X8712Y30457D01*
X8731Y30455D01*
X8833Y30455D01*
X8856Y30457D01*
X8879Y30462D01*
X8901Y30470D01*
X8922Y30481D01*
X8940Y30495D01*
X8957Y30512D01*
X8971Y30530D01*
X8982Y30551D01*
X8990Y30573D01*
X8995Y30596D01*
X8997Y30619D01*
D11*
X22986Y30089D02*
X23116Y30089D01*
X22986Y30089D02*
X22746Y30089D01*
X22616Y30089D01*
X22746Y30089D02*
X22748Y30110D01*
X22753Y30130D01*
X22762Y30149D01*
X22774Y30166D01*
X22789Y30181D01*
X22806Y30193D01*
X22825Y30202D01*
X22845Y30207D01*
X22866Y30209D01*
X22887Y30207D01*
X22907Y30202D01*
X22926Y30193D01*
X22943Y30181D01*
X22958Y30166D01*
X22970Y30149D01*
X22979Y30130D01*
X22984Y30110D01*
X22986Y30089D01*
D13*
X23094Y30019D02*
X23094Y29752D01*
X23092Y29733D01*
X23087Y29715D01*
X23079Y29698D01*
X23067Y29683D01*
X23053Y29670D01*
X23037Y29660D01*
X23019Y29653D01*
X23001Y29649D01*
X22981Y29649D01*
X22963Y29653D01*
X22945Y29660D01*
X22929Y29670D01*
X22915Y29683D01*
X22903Y29698D01*
X22895Y29715D01*
X22890Y29733D01*
X22888Y29752D01*
X22888Y30019D01*
X22722Y29649D02*
X22598Y29649D01*
X22598Y29650D02*
X22582Y29652D01*
X22567Y29656D01*
X22552Y29664D01*
X22540Y29674D01*
X22530Y29686D01*
X22522Y29701D01*
X22518Y29716D01*
X22516Y29732D01*
X22516Y29773D01*
X22518Y29789D01*
X22522Y29804D01*
X22530Y29819D01*
X22540Y29831D01*
X22552Y29841D01*
X22567Y29849D01*
X22582Y29853D01*
X22598Y29855D01*
X22722Y29855D01*
X22722Y30019D01*
X22516Y30019D01*
D11*
X25494Y46721D02*
X25651Y46879D01*
X25651Y46564D01*
X25494Y46721D01*
D13*
X26784Y31204D02*
X27154Y31204D01*
X27154Y31307D01*
X27152Y31326D01*
X27147Y31344D01*
X27139Y31361D01*
X27127Y31376D01*
X27113Y31389D01*
X27097Y31399D01*
X27079Y31406D01*
X27061Y31410D01*
X27041Y31410D01*
X27023Y31406D01*
X27005Y31399D01*
X26989Y31389D01*
X26975Y31376D01*
X26963Y31361D01*
X26955Y31344D01*
X26950Y31326D01*
X26948Y31307D01*
X26949Y31307D02*
X26949Y31204D01*
X26949Y31327D02*
X26784Y31410D01*
X27062Y31768D02*
X27080Y31766D01*
X27098Y31761D01*
X27114Y31752D01*
X27128Y31741D01*
X27139Y31727D01*
X27148Y31711D01*
X27153Y31693D01*
X27155Y31675D01*
X27154Y31675D02*
X27153Y31656D01*
X27148Y31638D01*
X27141Y31621D01*
X27131Y31605D01*
X27119Y31591D01*
X27105Y31579D01*
X27089Y31569D01*
X27072Y31562D01*
X26990Y31736D02*
X27002Y31747D01*
X27016Y31756D01*
X27030Y31762D01*
X27046Y31766D01*
X27062Y31767D01*
X26990Y31737D02*
X26784Y31562D01*
X26784Y31767D01*
X26969Y31922D02*
X27004Y31924D01*
X27038Y31930D01*
X27071Y31939D01*
X27103Y31953D01*
X27117Y31960D01*
X27129Y31969D01*
X27140Y31981D01*
X27148Y31994D01*
X27152Y32009D01*
X27154Y32025D01*
X27152Y32041D01*
X27148Y32056D01*
X27140Y32069D01*
X27129Y32081D01*
X27117Y32090D01*
X27103Y32097D01*
X27103Y32096D02*
X27071Y32110D01*
X27038Y32119D01*
X27004Y32125D01*
X26969Y32127D01*
X26969Y31922D02*
X26934Y31924D01*
X26900Y31930D01*
X26867Y31939D01*
X26835Y31953D01*
X26821Y31960D01*
X26809Y31969D01*
X26798Y31981D01*
X26790Y31994D01*
X26786Y32009D01*
X26784Y32025D01*
X26835Y32096D02*
X26867Y32110D01*
X26900Y32119D01*
X26934Y32125D01*
X26969Y32127D01*
X26835Y32097D02*
X26821Y32090D01*
X26809Y32081D01*
X26798Y32069D01*
X26790Y32056D01*
X26786Y32041D01*
X26784Y32025D01*
X26866Y31942D02*
X27072Y32107D01*
X8753Y28298D02*
X8671Y28298D01*
X8753Y28299D02*
X8769Y28301D01*
X8784Y28305D01*
X8799Y28313D01*
X8811Y28323D01*
X8821Y28335D01*
X8829Y28350D01*
X8833Y28365D01*
X8835Y28381D01*
X8835Y28586D01*
X8833Y28602D01*
X8829Y28617D01*
X8821Y28632D01*
X8811Y28644D01*
X8799Y28654D01*
X8784Y28662D01*
X8769Y28666D01*
X8753Y28668D01*
X8671Y28668D01*
X8452Y28668D02*
X8534Y28381D01*
X8328Y28381D01*
X8390Y28463D02*
X8390Y28298D01*
X21315Y31480D02*
X21315Y31563D01*
X21315Y31480D02*
X21317Y31464D01*
X21321Y31449D01*
X21329Y31434D01*
X21339Y31422D01*
X21351Y31412D01*
X21366Y31404D01*
X21381Y31400D01*
X21397Y31398D01*
X21603Y31398D01*
X21619Y31400D01*
X21634Y31404D01*
X21649Y31412D01*
X21661Y31422D01*
X21671Y31434D01*
X21679Y31449D01*
X21683Y31464D01*
X21685Y31480D01*
X21685Y31563D01*
X21315Y31699D02*
X21315Y31823D01*
X21317Y31839D01*
X21321Y31854D01*
X21329Y31869D01*
X21339Y31881D01*
X21351Y31891D01*
X21366Y31899D01*
X21381Y31903D01*
X21397Y31905D01*
X21438Y31905D01*
X21454Y31903D01*
X21469Y31899D01*
X21484Y31891D01*
X21496Y31881D01*
X21506Y31869D01*
X21514Y31854D01*
X21518Y31839D01*
X21520Y31823D01*
X21521Y31823D02*
X21521Y31699D01*
X21685Y31699D01*
X21685Y31905D01*
X24203Y48189D02*
X24285Y48189D01*
X24285Y48190D02*
X24301Y48192D01*
X24316Y48196D01*
X24331Y48204D01*
X24343Y48214D01*
X24353Y48226D01*
X24361Y48241D01*
X24365Y48256D01*
X24367Y48272D01*
X24368Y48272D02*
X24368Y48477D01*
X24367Y48477D02*
X24365Y48493D01*
X24361Y48508D01*
X24353Y48523D01*
X24343Y48535D01*
X24331Y48545D01*
X24316Y48553D01*
X24301Y48557D01*
X24285Y48559D01*
X24203Y48559D01*
X24067Y48395D02*
X23943Y48395D01*
X23927Y48393D01*
X23912Y48389D01*
X23897Y48381D01*
X23885Y48371D01*
X23875Y48359D01*
X23867Y48344D01*
X23863Y48329D01*
X23861Y48313D01*
X23861Y48292D01*
X23863Y48273D01*
X23868Y48255D01*
X23876Y48238D01*
X23888Y48223D01*
X23902Y48210D01*
X23918Y48200D01*
X23936Y48193D01*
X23954Y48189D01*
X23974Y48189D01*
X23992Y48193D01*
X24010Y48200D01*
X24026Y48210D01*
X24040Y48223D01*
X24052Y48238D01*
X24060Y48255D01*
X24065Y48273D01*
X24067Y48292D01*
X24067Y48395D01*
X24066Y48395D02*
X24064Y48418D01*
X24059Y48441D01*
X24051Y48463D01*
X24040Y48484D01*
X24026Y48502D01*
X24009Y48519D01*
X23991Y48533D01*
X23970Y48544D01*
X23948Y48552D01*
X23925Y48557D01*
X23902Y48559D01*
D12*
X7985Y22063D02*
X7985Y21748D01*
X7985Y21335D02*
X7355Y21335D01*
X7355Y22477D02*
X7985Y22477D01*
D14*
X7040Y21217D02*
X7042Y21229D01*
X7047Y21240D01*
X7056Y21249D01*
X7067Y21254D01*
X7079Y21256D01*
X7091Y21254D01*
X7102Y21249D01*
X7111Y21240D01*
X7116Y21229D01*
X7118Y21217D01*
X7116Y21205D01*
X7111Y21194D01*
X7102Y21185D01*
X7091Y21180D01*
X7079Y21178D01*
X7067Y21180D01*
X7056Y21185D01*
X7047Y21194D01*
X7042Y21205D01*
X7040Y21217D01*
D13*
X8958Y21109D02*
X8958Y21376D01*
X8958Y21109D02*
X8956Y21090D01*
X8951Y21072D01*
X8943Y21055D01*
X8931Y21040D01*
X8917Y21027D01*
X8901Y21017D01*
X8883Y21010D01*
X8865Y21006D01*
X8845Y21006D01*
X8827Y21010D01*
X8809Y21017D01*
X8793Y21027D01*
X8779Y21040D01*
X8767Y21055D01*
X8759Y21072D01*
X8754Y21090D01*
X8752Y21109D01*
X8753Y21109D02*
X8753Y21376D01*
X8473Y21376D02*
X8455Y21374D01*
X8437Y21369D01*
X8421Y21360D01*
X8407Y21349D01*
X8396Y21335D01*
X8387Y21319D01*
X8382Y21301D01*
X8380Y21283D01*
X8473Y21376D02*
X8492Y21375D01*
X8510Y21370D01*
X8527Y21363D01*
X8543Y21353D01*
X8557Y21341D01*
X8569Y21327D01*
X8579Y21311D01*
X8586Y21294D01*
X8412Y21211D02*
X8401Y21223D01*
X8392Y21237D01*
X8386Y21251D01*
X8382Y21267D01*
X8381Y21283D01*
X8411Y21212D02*
X8586Y21006D01*
X8381Y21006D01*
X11730Y26307D02*
X11730Y26389D01*
X11730Y26307D02*
X11732Y26291D01*
X11736Y26276D01*
X11744Y26261D01*
X11754Y26249D01*
X11766Y26239D01*
X11781Y26231D01*
X11796Y26227D01*
X11812Y26225D01*
X11812Y26224D02*
X12017Y26224D01*
X12017Y26225D02*
X12033Y26227D01*
X12048Y26231D01*
X12063Y26239D01*
X12075Y26249D01*
X12085Y26261D01*
X12093Y26276D01*
X12097Y26291D01*
X12099Y26307D01*
X12100Y26307D02*
X12100Y26389D01*
X12100Y26525D02*
X12059Y26525D01*
X12100Y26525D02*
X12100Y26731D01*
X11730Y26628D01*
D11*
X10218Y25995D02*
X10088Y25995D01*
X9848Y25995D01*
X9718Y25995D01*
X9848Y25995D02*
X9850Y26016D01*
X9855Y26036D01*
X9864Y26055D01*
X9876Y26072D01*
X9891Y26087D01*
X9908Y26099D01*
X9927Y26108D01*
X9947Y26113D01*
X9968Y26115D01*
X9989Y26113D01*
X10009Y26108D01*
X10028Y26099D01*
X10045Y26087D01*
X10060Y26072D01*
X10072Y26055D01*
X10081Y26036D01*
X10086Y26016D01*
X10088Y25995D01*
D13*
X10195Y25892D02*
X10195Y25625D01*
X10193Y25606D01*
X10188Y25588D01*
X10180Y25571D01*
X10168Y25556D01*
X10154Y25543D01*
X10138Y25533D01*
X10120Y25526D01*
X10102Y25522D01*
X10082Y25522D01*
X10064Y25526D01*
X10046Y25533D01*
X10030Y25543D01*
X10016Y25556D01*
X10004Y25571D01*
X9996Y25588D01*
X9991Y25606D01*
X9989Y25625D01*
X9989Y25892D01*
X9741Y25892D02*
X9823Y25604D01*
X9617Y25604D01*
X9679Y25686D02*
X9679Y25522D01*
X8408Y26719D02*
X8325Y26719D01*
X8408Y26720D02*
X8424Y26722D01*
X8439Y26726D01*
X8454Y26734D01*
X8466Y26744D01*
X8476Y26756D01*
X8484Y26771D01*
X8488Y26786D01*
X8490Y26802D01*
X8490Y27007D01*
X8488Y27023D01*
X8484Y27038D01*
X8476Y27053D01*
X8466Y27065D01*
X8454Y27075D01*
X8439Y27083D01*
X8424Y27087D01*
X8408Y27089D01*
X8325Y27089D01*
X8189Y26822D02*
X8187Y26841D01*
X8182Y26859D01*
X8174Y26876D01*
X8162Y26891D01*
X8148Y26904D01*
X8132Y26914D01*
X8114Y26921D01*
X8096Y26925D01*
X8076Y26925D01*
X8058Y26921D01*
X8040Y26914D01*
X8024Y26904D01*
X8010Y26891D01*
X7998Y26876D01*
X7990Y26859D01*
X7985Y26841D01*
X7983Y26822D01*
X7985Y26803D01*
X7990Y26785D01*
X7998Y26768D01*
X8010Y26753D01*
X8024Y26740D01*
X8040Y26730D01*
X8058Y26723D01*
X8076Y26719D01*
X8096Y26719D01*
X8114Y26723D01*
X8132Y26730D01*
X8148Y26740D01*
X8162Y26753D01*
X8174Y26768D01*
X8182Y26785D01*
X8187Y26803D01*
X8189Y26822D01*
X8168Y27007D02*
X8166Y27024D01*
X8161Y27040D01*
X8152Y27055D01*
X8141Y27068D01*
X8127Y27078D01*
X8111Y27085D01*
X8095Y27089D01*
X8077Y27089D01*
X8061Y27085D01*
X8045Y27078D01*
X8031Y27068D01*
X8020Y27055D01*
X8011Y27040D01*
X8006Y27024D01*
X8004Y27007D01*
X8006Y26990D01*
X8011Y26974D01*
X8020Y26959D01*
X8031Y26946D01*
X8045Y26936D01*
X8061Y26929D01*
X8077Y26925D01*
X8095Y26925D01*
X8111Y26929D01*
X8127Y26936D01*
X8141Y26946D01*
X8152Y26959D01*
X8161Y26974D01*
X8166Y26990D01*
X8168Y27007D01*
X13829Y24317D02*
X14199Y24317D01*
X14199Y24420D01*
X14197Y24439D01*
X14192Y24457D01*
X14184Y24474D01*
X14172Y24489D01*
X14158Y24502D01*
X14142Y24512D01*
X14124Y24519D01*
X14106Y24523D01*
X14086Y24523D01*
X14068Y24519D01*
X14050Y24512D01*
X14034Y24502D01*
X14020Y24489D01*
X14008Y24474D01*
X14000Y24457D01*
X13995Y24439D01*
X13993Y24420D01*
X13994Y24420D02*
X13994Y24317D01*
X13994Y24440D02*
X13829Y24523D01*
X14107Y24881D02*
X14125Y24879D01*
X14143Y24874D01*
X14159Y24865D01*
X14173Y24854D01*
X14184Y24840D01*
X14193Y24824D01*
X14198Y24806D01*
X14200Y24788D01*
X14199Y24788D02*
X14198Y24769D01*
X14193Y24751D01*
X14186Y24734D01*
X14176Y24718D01*
X14164Y24704D01*
X14150Y24692D01*
X14134Y24682D01*
X14117Y24675D01*
X14035Y24849D02*
X14047Y24860D01*
X14061Y24869D01*
X14075Y24875D01*
X14091Y24879D01*
X14107Y24880D01*
X14035Y24850D02*
X13829Y24675D01*
X13829Y24880D01*
X14117Y25035D02*
X14199Y25138D01*
X13829Y25138D01*
X13829Y25240D02*
X13829Y25035D01*
X12213Y25137D02*
X12213Y25507D01*
X12110Y25507D01*
X12110Y25508D02*
X12091Y25506D01*
X12073Y25501D01*
X12056Y25493D01*
X12041Y25481D01*
X12028Y25467D01*
X12018Y25451D01*
X12011Y25433D01*
X12007Y25415D01*
X12007Y25395D01*
X12011Y25377D01*
X12018Y25359D01*
X12028Y25343D01*
X12041Y25329D01*
X12056Y25317D01*
X12073Y25309D01*
X12091Y25304D01*
X12110Y25302D01*
X12213Y25302D01*
X12089Y25302D02*
X12007Y25137D01*
X11649Y25415D02*
X11651Y25433D01*
X11656Y25451D01*
X11665Y25467D01*
X11676Y25481D01*
X11690Y25492D01*
X11706Y25501D01*
X11724Y25506D01*
X11742Y25508D01*
X11761Y25507D01*
X11779Y25502D01*
X11796Y25495D01*
X11812Y25485D01*
X11826Y25473D01*
X11838Y25459D01*
X11848Y25443D01*
X11855Y25426D01*
X11681Y25343D02*
X11670Y25355D01*
X11661Y25369D01*
X11655Y25383D01*
X11651Y25399D01*
X11650Y25415D01*
X11680Y25343D02*
X11855Y25137D01*
X11649Y25137D01*
X11289Y25415D02*
X11291Y25433D01*
X11296Y25451D01*
X11305Y25467D01*
X11316Y25481D01*
X11330Y25492D01*
X11346Y25501D01*
X11364Y25506D01*
X11382Y25508D01*
X11401Y25507D01*
X11419Y25502D01*
X11436Y25495D01*
X11452Y25485D01*
X11466Y25473D01*
X11478Y25459D01*
X11488Y25443D01*
X11495Y25426D01*
X11321Y25343D02*
X11310Y25355D01*
X11301Y25369D01*
X11295Y25383D01*
X11291Y25399D01*
X11290Y25415D01*
X11320Y25343D02*
X11495Y25137D01*
X11289Y25137D01*
X12469Y22404D02*
X12839Y22404D01*
X12839Y22507D01*
X12837Y22526D01*
X12832Y22544D01*
X12824Y22561D01*
X12812Y22576D01*
X12798Y22589D01*
X12782Y22599D01*
X12764Y22606D01*
X12746Y22610D01*
X12726Y22610D01*
X12708Y22606D01*
X12690Y22599D01*
X12674Y22589D01*
X12660Y22576D01*
X12648Y22561D01*
X12640Y22544D01*
X12635Y22526D01*
X12633Y22507D01*
X12634Y22507D02*
X12634Y22404D01*
X12634Y22527D02*
X12469Y22610D01*
X12747Y22968D02*
X12765Y22966D01*
X12783Y22961D01*
X12799Y22952D01*
X12813Y22941D01*
X12824Y22927D01*
X12833Y22911D01*
X12838Y22893D01*
X12840Y22875D01*
X12839Y22875D02*
X12838Y22856D01*
X12833Y22838D01*
X12826Y22821D01*
X12816Y22805D01*
X12804Y22791D01*
X12790Y22779D01*
X12774Y22769D01*
X12757Y22762D01*
X12675Y22936D02*
X12687Y22947D01*
X12701Y22956D01*
X12715Y22962D01*
X12731Y22966D01*
X12747Y22967D01*
X12675Y22936D02*
X12469Y22762D01*
X12469Y22967D01*
X12469Y23122D02*
X12469Y23225D01*
X12471Y23244D01*
X12476Y23262D01*
X12484Y23279D01*
X12496Y23294D01*
X12510Y23307D01*
X12526Y23317D01*
X12544Y23324D01*
X12562Y23328D01*
X12582Y23328D01*
X12600Y23324D01*
X12618Y23317D01*
X12634Y23307D01*
X12648Y23294D01*
X12660Y23279D01*
X12668Y23262D01*
X12673Y23244D01*
X12675Y23225D01*
X12839Y23245D02*
X12839Y23122D01*
X12839Y23245D02*
X12837Y23262D01*
X12832Y23278D01*
X12823Y23293D01*
X12812Y23306D01*
X12798Y23316D01*
X12782Y23323D01*
X12766Y23327D01*
X12748Y23327D01*
X12732Y23323D01*
X12716Y23316D01*
X12702Y23306D01*
X12691Y23293D01*
X12682Y23278D01*
X12677Y23262D01*
X12675Y23245D01*
X12675Y23163D01*
X10514Y23866D02*
X10144Y23866D01*
X10514Y23866D02*
X10514Y23969D01*
X10512Y23988D01*
X10507Y24006D01*
X10499Y24023D01*
X10487Y24038D01*
X10473Y24051D01*
X10457Y24061D01*
X10439Y24068D01*
X10421Y24072D01*
X10401Y24072D01*
X10383Y24068D01*
X10365Y24061D01*
X10349Y24051D01*
X10335Y24038D01*
X10323Y24023D01*
X10315Y24006D01*
X10310Y23988D01*
X10308Y23969D01*
X10308Y23866D01*
X10308Y23989D02*
X10144Y24072D01*
X10421Y24430D02*
X10439Y24428D01*
X10457Y24423D01*
X10473Y24414D01*
X10487Y24403D01*
X10498Y24389D01*
X10507Y24373D01*
X10512Y24355D01*
X10514Y24337D01*
X10513Y24318D01*
X10508Y24300D01*
X10501Y24283D01*
X10491Y24267D01*
X10479Y24253D01*
X10465Y24241D01*
X10449Y24231D01*
X10432Y24224D01*
X10349Y24398D02*
X10361Y24409D01*
X10375Y24418D01*
X10389Y24424D01*
X10405Y24428D01*
X10421Y24429D01*
X10349Y24398D02*
X10144Y24224D01*
X10144Y24429D01*
X10226Y24584D02*
X10514Y24666D01*
X10226Y24584D02*
X10226Y24789D01*
X10308Y24728D02*
X10144Y24728D01*
D11*
X2632Y28780D02*
X1492Y28780D01*
X1492Y28480D01*
X2632Y28480D01*
X2632Y28780D01*
D15*
X1269Y28884D02*
X1269Y29244D01*
X1369Y29244D02*
X1169Y29244D01*
X1033Y29164D02*
X933Y29244D01*
X933Y28884D01*
X1033Y28884D02*
X833Y28884D01*
D13*
X1715Y26645D02*
X2085Y26645D01*
X2085Y26748D01*
X2083Y26767D01*
X2078Y26785D01*
X2070Y26802D01*
X2058Y26817D01*
X2044Y26830D01*
X2028Y26840D01*
X2010Y26847D01*
X1992Y26851D01*
X1972Y26851D01*
X1954Y26847D01*
X1936Y26840D01*
X1920Y26830D01*
X1906Y26817D01*
X1894Y26802D01*
X1886Y26785D01*
X1881Y26767D01*
X1879Y26748D01*
X1879Y26645D01*
X1879Y26768D02*
X1715Y26851D01*
X1992Y27209D02*
X2010Y27207D01*
X2028Y27202D01*
X2044Y27193D01*
X2058Y27182D01*
X2069Y27168D01*
X2078Y27152D01*
X2083Y27134D01*
X2085Y27116D01*
X2084Y27097D01*
X2079Y27079D01*
X2072Y27062D01*
X2062Y27046D01*
X2050Y27032D01*
X2036Y27020D01*
X2020Y27010D01*
X2003Y27003D01*
X1920Y27177D02*
X1932Y27188D01*
X1946Y27197D01*
X1960Y27203D01*
X1976Y27207D01*
X1992Y27208D01*
X1921Y27177D02*
X1715Y27003D01*
X1715Y27208D01*
X1715Y27363D02*
X1715Y27486D01*
X1717Y27502D01*
X1721Y27517D01*
X1729Y27532D01*
X1739Y27544D01*
X1751Y27554D01*
X1766Y27562D01*
X1781Y27566D01*
X1797Y27568D01*
X1838Y27568D01*
X1854Y27566D01*
X1869Y27562D01*
X1884Y27554D01*
X1896Y27544D01*
X1906Y27532D01*
X1914Y27517D01*
X1918Y27502D01*
X1920Y27486D01*
X1921Y27486D02*
X1921Y27363D01*
X2085Y27363D01*
X2085Y27568D01*
X4561Y25313D02*
X4643Y25313D01*
X4659Y25315D01*
X4674Y25319D01*
X4689Y25327D01*
X4701Y25337D01*
X4711Y25349D01*
X4719Y25364D01*
X4723Y25379D01*
X4725Y25395D01*
X4725Y25601D01*
X4723Y25617D01*
X4719Y25632D01*
X4711Y25647D01*
X4701Y25659D01*
X4689Y25669D01*
X4674Y25677D01*
X4659Y25681D01*
X4643Y25683D01*
X4561Y25683D01*
X4342Y25477D02*
X4219Y25477D01*
X4342Y25478D02*
X4358Y25480D01*
X4373Y25484D01*
X4388Y25492D01*
X4400Y25502D01*
X4410Y25514D01*
X4418Y25529D01*
X4422Y25544D01*
X4424Y25560D01*
X4424Y25580D01*
X4422Y25599D01*
X4417Y25617D01*
X4409Y25634D01*
X4397Y25649D01*
X4383Y25662D01*
X4367Y25672D01*
X4349Y25679D01*
X4331Y25683D01*
X4311Y25683D01*
X4293Y25679D01*
X4275Y25672D01*
X4259Y25662D01*
X4245Y25649D01*
X4233Y25634D01*
X4225Y25617D01*
X4220Y25599D01*
X4218Y25580D01*
X4219Y25580D02*
X4219Y25477D01*
X4221Y25454D01*
X4226Y25431D01*
X4234Y25409D01*
X4245Y25388D01*
X4259Y25370D01*
X4276Y25353D01*
X4294Y25339D01*
X4315Y25328D01*
X4337Y25320D01*
X4360Y25315D01*
X4383Y25313D01*
X10020Y45075D02*
X10020Y45445D01*
X9917Y45445D01*
X9898Y45443D01*
X9880Y45438D01*
X9863Y45430D01*
X9848Y45418D01*
X9835Y45404D01*
X9825Y45388D01*
X9818Y45370D01*
X9814Y45352D01*
X9814Y45332D01*
X9818Y45314D01*
X9825Y45296D01*
X9835Y45280D01*
X9848Y45266D01*
X9863Y45254D01*
X9880Y45246D01*
X9898Y45241D01*
X9917Y45239D01*
X10020Y45239D01*
X9896Y45239D02*
X9814Y45075D01*
X9456Y45352D02*
X9458Y45370D01*
X9463Y45388D01*
X9472Y45404D01*
X9483Y45418D01*
X9497Y45429D01*
X9513Y45438D01*
X9531Y45443D01*
X9549Y45445D01*
X9568Y45444D01*
X9586Y45439D01*
X9603Y45432D01*
X9619Y45422D01*
X9633Y45410D01*
X9645Y45396D01*
X9655Y45380D01*
X9662Y45363D01*
X9488Y45280D02*
X9477Y45292D01*
X9468Y45306D01*
X9462Y45320D01*
X9458Y45336D01*
X9457Y45352D01*
X9487Y45280D02*
X9662Y45075D01*
X9456Y45075D01*
X9302Y45280D02*
X9179Y45280D01*
X9163Y45278D01*
X9148Y45274D01*
X9133Y45266D01*
X9121Y45256D01*
X9111Y45244D01*
X9103Y45229D01*
X9099Y45214D01*
X9097Y45198D01*
X9096Y45198D02*
X9096Y45177D01*
X9098Y45158D01*
X9103Y45140D01*
X9111Y45123D01*
X9123Y45108D01*
X9137Y45095D01*
X9153Y45085D01*
X9171Y45078D01*
X9189Y45074D01*
X9209Y45074D01*
X9227Y45078D01*
X9245Y45085D01*
X9261Y45095D01*
X9275Y45108D01*
X9287Y45123D01*
X9295Y45140D01*
X9300Y45158D01*
X9302Y45177D01*
X9302Y45280D01*
X9300Y45303D01*
X9295Y45326D01*
X9287Y45348D01*
X9276Y45369D01*
X9262Y45387D01*
X9245Y45404D01*
X9227Y45418D01*
X9206Y45429D01*
X9184Y45437D01*
X9161Y45442D01*
X9138Y45444D01*
X7632Y46303D02*
X7262Y46303D01*
X7632Y46303D02*
X7632Y46406D01*
X7630Y46425D01*
X7625Y46443D01*
X7617Y46460D01*
X7605Y46475D01*
X7591Y46488D01*
X7575Y46498D01*
X7557Y46505D01*
X7539Y46509D01*
X7519Y46509D01*
X7501Y46505D01*
X7483Y46498D01*
X7467Y46488D01*
X7453Y46475D01*
X7441Y46460D01*
X7433Y46443D01*
X7428Y46425D01*
X7426Y46406D01*
X7426Y46303D01*
X7426Y46426D02*
X7262Y46509D01*
X7539Y46867D02*
X7557Y46865D01*
X7575Y46860D01*
X7591Y46851D01*
X7605Y46840D01*
X7616Y46826D01*
X7625Y46810D01*
X7630Y46792D01*
X7632Y46774D01*
X7631Y46755D01*
X7626Y46737D01*
X7619Y46720D01*
X7609Y46704D01*
X7597Y46690D01*
X7583Y46678D01*
X7567Y46668D01*
X7550Y46661D01*
X7467Y46835D02*
X7479Y46846D01*
X7493Y46855D01*
X7507Y46861D01*
X7523Y46865D01*
X7539Y46866D01*
X7467Y46836D02*
X7262Y46661D01*
X7262Y46866D01*
X7591Y47021D02*
X7632Y47021D01*
X7632Y47226D01*
X7262Y47124D01*
X5849Y40002D02*
X5767Y40002D01*
X5849Y40002D02*
X5865Y40004D01*
X5880Y40008D01*
X5895Y40016D01*
X5907Y40026D01*
X5917Y40038D01*
X5925Y40053D01*
X5929Y40068D01*
X5931Y40084D01*
X5932Y40084D02*
X5932Y40289D01*
X5931Y40289D02*
X5929Y40305D01*
X5925Y40320D01*
X5917Y40335D01*
X5907Y40347D01*
X5895Y40357D01*
X5880Y40365D01*
X5865Y40369D01*
X5849Y40371D01*
X5849Y40372D02*
X5767Y40372D01*
X5631Y40289D02*
X5528Y40372D01*
X5528Y40002D01*
X5631Y40002D02*
X5425Y40002D01*
X5271Y40187D02*
X5269Y40222D01*
X5263Y40256D01*
X5254Y40289D01*
X5240Y40321D01*
X5233Y40335D01*
X5224Y40347D01*
X5212Y40358D01*
X5199Y40366D01*
X5184Y40370D01*
X5168Y40372D01*
X5152Y40370D01*
X5137Y40366D01*
X5124Y40358D01*
X5112Y40347D01*
X5103Y40335D01*
X5096Y40321D01*
X5082Y40289D01*
X5073Y40256D01*
X5067Y40222D01*
X5065Y40187D01*
X5271Y40187D02*
X5269Y40152D01*
X5263Y40118D01*
X5254Y40085D01*
X5240Y40053D01*
X5233Y40039D01*
X5224Y40027D01*
X5212Y40016D01*
X5199Y40008D01*
X5184Y40004D01*
X5168Y40002D01*
X5096Y40053D02*
X5082Y40085D01*
X5073Y40118D01*
X5067Y40152D01*
X5065Y40187D01*
X5096Y40053D02*
X5103Y40039D01*
X5112Y40027D01*
X5124Y40016D01*
X5137Y40008D01*
X5152Y40004D01*
X5168Y40002D01*
X5250Y40084D02*
X5086Y40289D01*
X12055Y38520D02*
X12425Y38520D01*
X12425Y38623D01*
X12423Y38642D01*
X12418Y38660D01*
X12410Y38677D01*
X12398Y38692D01*
X12384Y38705D01*
X12368Y38715D01*
X12350Y38722D01*
X12332Y38726D01*
X12312Y38726D01*
X12294Y38722D01*
X12276Y38715D01*
X12260Y38705D01*
X12246Y38692D01*
X12234Y38677D01*
X12226Y38660D01*
X12221Y38642D01*
X12219Y38623D01*
X12219Y38520D01*
X12219Y38644D02*
X12055Y38726D01*
X12332Y39084D02*
X12350Y39082D01*
X12368Y39077D01*
X12384Y39068D01*
X12398Y39057D01*
X12409Y39043D01*
X12418Y39027D01*
X12423Y39009D01*
X12425Y38991D01*
X12424Y38972D01*
X12419Y38954D01*
X12412Y38937D01*
X12402Y38921D01*
X12390Y38907D01*
X12376Y38895D01*
X12360Y38885D01*
X12343Y38878D01*
X12260Y39052D02*
X12272Y39063D01*
X12286Y39072D01*
X12300Y39078D01*
X12316Y39082D01*
X12332Y39083D01*
X12260Y39053D02*
X12055Y38878D01*
X12055Y39084D01*
X12219Y39320D02*
X12219Y39444D01*
X12219Y39320D02*
X12221Y39304D01*
X12225Y39289D01*
X12233Y39274D01*
X12243Y39262D01*
X12255Y39252D01*
X12270Y39244D01*
X12285Y39240D01*
X12301Y39238D01*
X12322Y39238D01*
X12341Y39240D01*
X12359Y39245D01*
X12376Y39253D01*
X12391Y39265D01*
X12404Y39279D01*
X12414Y39295D01*
X12421Y39313D01*
X12425Y39331D01*
X12425Y39351D01*
X12421Y39369D01*
X12414Y39387D01*
X12404Y39403D01*
X12391Y39417D01*
X12376Y39429D01*
X12359Y39437D01*
X12341Y39442D01*
X12322Y39444D01*
X12219Y39444D01*
X12219Y39443D02*
X12196Y39441D01*
X12173Y39436D01*
X12151Y39428D01*
X12130Y39417D01*
X12112Y39403D01*
X12095Y39386D01*
X12081Y39368D01*
X12070Y39347D01*
X12062Y39325D01*
X12057Y39302D01*
X12055Y39279D01*
X11509Y38457D02*
X11139Y38457D01*
X11509Y38457D02*
X11509Y38559D01*
X11507Y38578D01*
X11502Y38596D01*
X11494Y38613D01*
X11482Y38628D01*
X11468Y38641D01*
X11452Y38651D01*
X11434Y38658D01*
X11416Y38662D01*
X11396Y38662D01*
X11378Y38658D01*
X11360Y38651D01*
X11344Y38641D01*
X11330Y38628D01*
X11318Y38613D01*
X11310Y38596D01*
X11305Y38578D01*
X11303Y38559D01*
X11303Y38457D01*
X11303Y38580D02*
X11139Y38662D01*
X11416Y39020D02*
X11434Y39018D01*
X11452Y39013D01*
X11468Y39004D01*
X11482Y38993D01*
X11493Y38979D01*
X11502Y38963D01*
X11507Y38945D01*
X11509Y38927D01*
X11508Y38908D01*
X11503Y38890D01*
X11496Y38873D01*
X11486Y38857D01*
X11474Y38843D01*
X11460Y38831D01*
X11444Y38821D01*
X11427Y38814D01*
X11344Y38988D02*
X11356Y38999D01*
X11370Y39008D01*
X11384Y39014D01*
X11400Y39018D01*
X11416Y39019D01*
X11344Y38989D02*
X11139Y38814D01*
X11139Y39020D01*
X11241Y39174D02*
X11260Y39176D01*
X11278Y39181D01*
X11295Y39189D01*
X11310Y39201D01*
X11323Y39215D01*
X11333Y39231D01*
X11340Y39249D01*
X11344Y39267D01*
X11344Y39287D01*
X11340Y39305D01*
X11333Y39323D01*
X11323Y39339D01*
X11310Y39353D01*
X11295Y39365D01*
X11278Y39373D01*
X11260Y39378D01*
X11241Y39380D01*
X11222Y39378D01*
X11204Y39373D01*
X11187Y39365D01*
X11172Y39353D01*
X11159Y39339D01*
X11149Y39323D01*
X11142Y39305D01*
X11138Y39287D01*
X11138Y39267D01*
X11142Y39249D01*
X11149Y39231D01*
X11159Y39215D01*
X11172Y39201D01*
X11187Y39189D01*
X11204Y39181D01*
X11222Y39176D01*
X11241Y39174D01*
X11426Y39195D02*
X11443Y39197D01*
X11459Y39202D01*
X11474Y39211D01*
X11487Y39222D01*
X11497Y39236D01*
X11504Y39252D01*
X11508Y39268D01*
X11508Y39286D01*
X11504Y39302D01*
X11497Y39318D01*
X11487Y39332D01*
X11474Y39343D01*
X11459Y39352D01*
X11443Y39357D01*
X11426Y39359D01*
X11409Y39357D01*
X11393Y39352D01*
X11378Y39343D01*
X11365Y39332D01*
X11355Y39318D01*
X11348Y39302D01*
X11344Y39286D01*
X11344Y39268D01*
X11348Y39252D01*
X11355Y39236D01*
X11365Y39222D01*
X11378Y39211D01*
X11393Y39202D01*
X11409Y39197D01*
X11426Y39195D01*
D11*
X16192Y28943D02*
X16192Y25693D01*
X15692Y25693D01*
X12192Y25693D01*
X12192Y28943D01*
X16192Y28943D01*
X15942Y25443D02*
X15442Y25443D01*
X15692Y25693D01*
X15942Y25443D01*
D13*
X15827Y26833D02*
X15747Y26898D01*
X15747Y26608D01*
X15827Y26608D02*
X15666Y26608D01*
X15616Y28025D02*
X15618Y28041D01*
X15623Y28057D01*
X15632Y28071D01*
X15643Y28082D01*
X15657Y28091D01*
X15673Y28096D01*
X15689Y28098D01*
X15706Y28097D01*
X15722Y28092D01*
X15737Y28085D01*
X15750Y28075D01*
X15762Y28063D01*
X15771Y28049D01*
X15777Y28034D01*
X15640Y27969D02*
X15630Y27980D01*
X15622Y27994D01*
X15618Y28009D01*
X15616Y28025D01*
X15640Y27969D02*
X15777Y27808D01*
X15616Y27808D01*
X12777Y26848D02*
X12777Y26816D01*
X12777Y26848D02*
X12616Y26848D01*
X12697Y26558D01*
X12778Y27938D02*
X12776Y27955D01*
X12771Y27971D01*
X12763Y27986D01*
X12751Y27998D01*
X12738Y28008D01*
X12722Y28015D01*
X12705Y28019D01*
X12689Y28019D01*
X12672Y28015D01*
X12657Y28008D01*
X12643Y27998D01*
X12631Y27986D01*
X12623Y27971D01*
X12618Y27955D01*
X12616Y27938D01*
X12618Y27921D01*
X12623Y27905D01*
X12631Y27890D01*
X12643Y27878D01*
X12657Y27868D01*
X12672Y27861D01*
X12689Y27857D01*
X12705Y27857D01*
X12722Y27861D01*
X12738Y27868D01*
X12751Y27878D01*
X12763Y27890D01*
X12771Y27905D01*
X12776Y27921D01*
X12778Y27938D01*
X12761Y28083D02*
X12759Y28097D01*
X12755Y28111D01*
X12747Y28123D01*
X12737Y28133D01*
X12725Y28141D01*
X12711Y28145D01*
X12697Y28147D01*
X12683Y28145D01*
X12669Y28141D01*
X12657Y28133D01*
X12647Y28123D01*
X12639Y28111D01*
X12635Y28097D01*
X12633Y28083D01*
X12635Y28069D01*
X12639Y28055D01*
X12647Y28043D01*
X12657Y28033D01*
X12669Y28025D01*
X12683Y28021D01*
X12697Y28019D01*
X12711Y28021D01*
X12725Y28025D01*
X12737Y28033D01*
X12747Y28043D01*
X12755Y28055D01*
X12759Y28069D01*
X12761Y28083D01*
D15*
X10133Y40020D02*
X10031Y40020D01*
X10133Y40020D02*
X10151Y40022D01*
X10168Y40026D01*
X10184Y40034D01*
X10199Y40044D01*
X10211Y40056D01*
X10221Y40071D01*
X10229Y40087D01*
X10233Y40104D01*
X10235Y40122D01*
X10235Y40378D01*
X10233Y40396D01*
X10229Y40413D01*
X10221Y40429D01*
X10211Y40444D01*
X10199Y40456D01*
X10184Y40466D01*
X10168Y40474D01*
X10151Y40478D01*
X10133Y40480D01*
X10031Y40480D01*
X9859Y40378D02*
X9731Y40480D01*
X9731Y40020D01*
X9859Y40020D02*
X9603Y40020D01*
X9409Y40378D02*
X9281Y40480D01*
X9281Y40020D01*
X9409Y40020D02*
X9153Y40020D01*
X5448Y44810D02*
X5346Y44810D01*
X5448Y44810D02*
X5466Y44812D01*
X5483Y44816D01*
X5499Y44824D01*
X5514Y44834D01*
X5526Y44846D01*
X5536Y44861D01*
X5544Y44877D01*
X5548Y44894D01*
X5550Y44912D01*
X5550Y45168D01*
X5548Y45186D01*
X5544Y45203D01*
X5536Y45219D01*
X5526Y45234D01*
X5514Y45246D01*
X5499Y45256D01*
X5483Y45264D01*
X5466Y45268D01*
X5448Y45270D01*
X5346Y45270D01*
X5174Y45168D02*
X5046Y45270D01*
X5046Y44810D01*
X5174Y44810D02*
X4918Y44810D01*
X4468Y45155D02*
X4470Y45175D01*
X4475Y45194D01*
X4483Y45213D01*
X4495Y45229D01*
X4509Y45243D01*
X4526Y45255D01*
X4544Y45263D01*
X4563Y45268D01*
X4583Y45270D01*
X4606Y45268D01*
X4629Y45263D01*
X4650Y45254D01*
X4670Y45242D01*
X4688Y45227D01*
X4703Y45209D01*
X4715Y45189D01*
X4724Y45168D01*
X4506Y45065D02*
X4493Y45080D01*
X4482Y45097D01*
X4474Y45116D01*
X4470Y45135D01*
X4468Y45155D01*
X4506Y45066D02*
X4724Y44810D01*
X4468Y44810D01*
D11*
X5752Y28664D02*
X4031Y26207D01*
X5752Y28664D02*
X6558Y28099D01*
X4838Y25642D01*
X4031Y26207D01*
M02*
