G04 EAGLE Gerber X2 export*
%TF.Part,Single*%
%TF.FileFunction,Legend,Top,1*%
%TF.FilePolarity,Positive*%
%TF.GenerationSoftware,Autodesk,EAGLE,9.0.1*%
%TF.CreationDate,2018-06-26T08:14:36Z*%
G75*
%MOIN*%
%FSLAX34Y34*%
%LPD*%
%AMOC8*
5,1,8,0,0,1.08239X$1,22.5*%
G01*
%ADD10R,0.170000X0.003340*%
%ADD11R,0.173300X0.003340*%
%ADD12R,0.153400X0.003330*%
%ADD13R,0.136600X0.003330*%
%ADD14R,0.136700X0.003330*%
%ADD15R,0.120000X0.003340*%
%ADD16R,0.123400X0.003340*%
%ADD17R,0.106600X0.003330*%
%ADD18R,0.106700X0.003330*%
%ADD19R,0.093400X0.003330*%
%ADD20R,0.710000X0.003340*%
%ADD21R,0.080000X0.003340*%
%ADD22R,0.750000X0.003330*%
%ADD23R,0.070000X0.003330*%
%ADD24R,0.066700X0.003330*%
%ADD25R,0.720000X0.003330*%
%ADD26R,0.773300X0.003330*%
%ADD27R,0.056700X0.003330*%
%ADD28R,0.056600X0.003330*%
%ADD29R,0.753300X0.003330*%
%ADD30R,0.790000X0.003340*%
%ADD31R,0.046600X0.003340*%
%ADD32R,0.046700X0.003340*%
%ADD33R,0.776700X0.003340*%
%ADD34R,0.806700X0.003330*%
%ADD35R,0.036700X0.003330*%
%ADD36R,0.033400X0.003330*%
%ADD37R,0.796700X0.003330*%
%ADD38R,0.823300X0.003330*%
%ADD39R,0.026700X0.003330*%
%ADD40R,0.023300X0.003330*%
%ADD41R,0.810000X0.003330*%
%ADD42R,0.210000X0.003340*%
%ADD43R,0.156700X0.003340*%
%ADD44R,0.016600X0.003340*%
%ADD45R,0.013300X0.003340*%
%ADD46R,0.176700X0.003340*%
%ADD47R,0.213400X0.003340*%
%ADD48R,0.140000X0.003340*%
%ADD49R,0.170000X0.003330*%
%ADD50R,0.196700X0.003330*%
%ADD51R,0.153300X0.003330*%
%ADD52R,0.006700X0.003330*%
%ADD53R,0.173300X0.003330*%
%ADD54R,0.140000X0.003330*%
%ADD55R,0.190000X0.003330*%
%ADD56R,0.186600X0.003330*%
%ADD57R,0.156700X0.003330*%
%ADD58R,0.176700X0.003330*%
%ADD59R,0.183300X0.003340*%
%ADD60R,0.180000X0.003340*%
%ADD61R,0.156600X0.003340*%
%ADD62R,0.176600X0.003340*%
%ADD63R,0.143300X0.003340*%
%ADD64R,0.180000X0.003330*%
%ADD65R,0.143300X0.003330*%
%ADD66R,0.173400X0.003330*%
%ADD67R,0.146700X0.003330*%
%ADD68R,0.166600X0.003340*%
%ADD69R,0.163400X0.003340*%
%ADD70R,0.183400X0.003340*%
%ADD71R,0.150000X0.003340*%
%ADD72R,0.166600X0.003330*%
%ADD73R,0.163300X0.003330*%
%ADD74R,0.186700X0.003330*%
%ADD75R,0.183400X0.003330*%
%ADD76R,0.163300X0.003340*%
%ADD77R,0.190000X0.003340*%
%ADD78R,0.193300X0.003330*%
%ADD79R,0.160000X0.003330*%
%ADD80R,0.196600X0.003330*%
%ADD81R,0.193300X0.003340*%
%ADD82R,0.160000X0.003340*%
%ADD83R,0.200000X0.003340*%
%ADD84R,0.203300X0.003330*%
%ADD85R,0.206600X0.003340*%
%ADD86R,0.200000X0.003330*%
%ADD87R,0.183300X0.003330*%
%ADD88R,0.210000X0.003330*%
%ADD89R,0.176600X0.003330*%
%ADD90R,0.203300X0.003340*%
%ADD91R,0.213300X0.003340*%
%ADD92R,0.206600X0.003330*%
%ADD93R,0.213300X0.003330*%
%ADD94R,0.216600X0.003330*%
%ADD95R,0.216600X0.003340*%
%ADD96R,0.220000X0.003330*%
%ADD97R,0.196600X0.003340*%
%ADD98R,0.220000X0.003340*%
%ADD99R,0.186600X0.003340*%
%ADD100R,0.223300X0.003330*%
%ADD101R,0.223300X0.003340*%
%ADD102R,0.226600X0.003330*%
%ADD103R,0.226600X0.003340*%
%ADD104R,0.230000X0.003330*%
%ADD105R,0.230000X0.003340*%
%ADD106R,0.223400X0.003330*%
%ADD107R,0.223400X0.003340*%
%ADD108R,0.206700X0.003340*%
%ADD109R,0.233400X0.003340*%
%ADD110R,0.196700X0.003340*%
%ADD111R,0.206700X0.003330*%
%ADD112R,0.233400X0.003330*%
%ADD113R,0.226700X0.003330*%
%ADD114R,0.203400X0.003330*%
%ADD115R,0.236700X0.003330*%
%ADD116R,0.233300X0.003340*%
%ADD117R,0.236600X0.003330*%
%ADD118R,0.213400X0.003330*%
%ADD119R,0.240000X0.003330*%
%ADD120R,0.236600X0.003340*%
%ADD121R,0.216700X0.003340*%
%ADD122R,0.243300X0.003340*%
%ADD123R,0.243300X0.003330*%
%ADD124R,0.253300X0.003330*%
%ADD125R,0.970000X0.003330*%
%ADD126R,0.966600X0.003340*%
%ADD127R,0.970000X0.003340*%
%ADD128R,0.963300X0.003330*%
%ADD129R,0.966700X0.003330*%
%ADD130R,0.963300X0.003340*%
%ADD131R,0.960000X0.003330*%
%ADD132R,0.956700X0.003340*%
%ADD133R,0.960000X0.003340*%
%ADD134R,0.956700X0.003330*%
%ADD135R,0.950000X0.003330*%
%ADD136R,0.953300X0.003330*%
%ADD137R,0.950000X0.003340*%
%ADD138R,0.946600X0.003330*%
%ADD139R,0.943300X0.003330*%
%ADD140R,0.943300X0.003340*%
%ADD141R,0.940000X0.003330*%
%ADD142R,0.936700X0.003330*%
%ADD143R,0.936700X0.003340*%
%ADD144R,0.933400X0.003330*%
%ADD145R,0.930000X0.003330*%
%ADD146R,0.933300X0.003330*%
%ADD147R,0.930000X0.003340*%
%ADD148R,0.926600X0.003330*%
%ADD149R,0.923300X0.003330*%
%ADD150R,0.923300X0.003340*%
%ADD151R,0.916700X0.003330*%
%ADD152R,0.920000X0.003330*%
%ADD153R,0.913400X0.003340*%
%ADD154R,0.916700X0.003340*%
%ADD155R,0.910000X0.003330*%
%ADD156R,0.906600X0.003330*%
%ADD157R,0.903300X0.003340*%
%ADD158R,0.906700X0.003340*%
%ADD159R,0.903300X0.003330*%
%ADD160R,0.896700X0.003330*%
%ADD161R,0.900000X0.003330*%
%ADD162R,0.896700X0.003340*%
%ADD163R,0.890000X0.003330*%
%ADD164R,0.893300X0.003330*%
%ADD165R,0.883300X0.003340*%
%ADD166R,0.886700X0.003340*%
%ADD167R,0.880000X0.003330*%
%ADD168R,0.883300X0.003330*%
%ADD169R,0.876700X0.003330*%
%ADD170R,0.873400X0.003340*%
%ADD171R,0.876700X0.003340*%
%ADD172R,0.870000X0.003330*%
%ADD173R,0.863300X0.003330*%
%ADD174R,0.863300X0.003340*%
%ADD175R,0.856700X0.003330*%
%ADD176R,0.860000X0.003330*%
%ADD177R,0.853400X0.003330*%
%ADD178R,0.850000X0.003340*%
%ADD179R,0.843300X0.003330*%
%ADD180R,0.850000X0.003330*%
%ADD181R,0.840000X0.003330*%
%ADD182R,0.836700X0.003340*%
%ADD183R,0.830000X0.003330*%
%ADD184R,0.836700X0.003330*%
%ADD185R,0.823300X0.003340*%
%ADD186R,0.816700X0.003330*%
%ADD187R,0.820000X0.003330*%
%ADD188R,0.803300X0.003340*%
%ADD189R,0.810000X0.003340*%
%ADD190R,0.803300X0.003330*%
%ADD191R,0.800000X0.003330*%
%ADD192R,0.796700X0.003340*%
%ADD193R,0.783300X0.003330*%
%ADD194R,0.790000X0.003330*%
%ADD195R,0.776700X0.003330*%
%ADD196R,0.770000X0.003340*%
%ADD197R,0.766600X0.003330*%
%ADD198R,0.770000X0.003330*%
%ADD199R,0.760000X0.003330*%
%ADD200R,0.763300X0.003330*%
%ADD201R,0.756700X0.003340*%
%ADD202R,0.743300X0.003330*%
%ADD203R,0.746700X0.003330*%
%ADD204R,0.736700X0.003340*%
%ADD205R,0.740000X0.003340*%
%ADD206R,0.003300X0.003340*%
%ADD207R,0.003400X0.003330*%
%ADD208R,0.730000X0.003330*%
%ADD209R,0.733300X0.003330*%
%ADD210R,0.006600X0.003330*%
%ADD211R,0.723300X0.003330*%
%ADD212R,0.726700X0.003330*%
%ADD213R,0.010000X0.003330*%
%ADD214R,0.713400X0.003340*%
%ADD215R,0.716700X0.003340*%
%ADD216R,0.013400X0.003340*%
%ADD217R,0.016700X0.003330*%
%ADD218R,0.703300X0.003330*%
%ADD219R,0.710000X0.003330*%
%ADD220R,0.020000X0.003330*%
%ADD221R,0.696700X0.003330*%
%ADD222R,0.026600X0.003340*%
%ADD223R,0.690000X0.003340*%
%ADD224R,0.696700X0.003340*%
%ADD225R,0.030000X0.003340*%
%ADD226R,0.683300X0.003330*%
%ADD227R,0.690000X0.003330*%
%ADD228R,0.033300X0.003330*%
%ADD229R,0.676700X0.003330*%
%ADD230R,0.040000X0.003330*%
%ADD231R,0.043300X0.003340*%
%ADD232R,0.663300X0.003340*%
%ADD233R,0.673300X0.003340*%
%ADD234R,0.043400X0.003340*%
%ADD235R,0.046700X0.003330*%
%ADD236R,0.656700X0.003330*%
%ADD237R,0.663300X0.003330*%
%ADD238R,0.050000X0.003330*%
%ADD239R,0.053300X0.003330*%
%ADD240R,0.650000X0.003330*%
%ADD241R,0.056600X0.003340*%
%ADD242R,0.640000X0.003340*%
%ADD243R,0.646700X0.003340*%
%ADD244R,0.060000X0.003340*%
%ADD245R,0.063400X0.003330*%
%ADD246R,0.630000X0.003330*%
%ADD247R,0.636700X0.003330*%
%ADD248R,0.063300X0.003330*%
%ADD249R,0.623300X0.003330*%
%ADD250R,0.073300X0.003340*%
%ADD251R,0.610000X0.003340*%
%ADD252R,0.616700X0.003340*%
%ADD253R,0.073400X0.003340*%
%ADD254R,0.076700X0.003330*%
%ADD255R,0.600000X0.003330*%
%ADD256R,0.610000X0.003330*%
%ADD257R,0.080000X0.003330*%
%ADD258R,0.086600X0.003330*%
%ADD259R,0.590000X0.003330*%
%ADD260R,0.596700X0.003330*%
%ADD261R,0.086700X0.003330*%
%ADD262R,0.090000X0.003340*%
%ADD263R,0.576700X0.003340*%
%ADD264R,0.590000X0.003340*%
%ADD265R,0.093300X0.003340*%
%ADD266R,0.093300X0.003330*%
%ADD267R,0.566600X0.003330*%
%ADD268R,0.576700X0.003330*%
%ADD269R,0.096600X0.003330*%
%ADD270R,0.100000X0.003330*%
%ADD271R,0.556700X0.003330*%
%ADD272R,0.563300X0.003330*%
%ADD273R,0.106700X0.003340*%
%ADD274R,0.543300X0.003340*%
%ADD275R,0.553300X0.003340*%
%ADD276R,0.110000X0.003340*%
%ADD277R,0.113300X0.003330*%
%ADD278R,0.530000X0.003330*%
%ADD279R,0.540000X0.003330*%
%ADD280R,0.113400X0.003330*%
%ADD281R,0.116700X0.003330*%
%ADD282R,0.516700X0.003330*%
%ADD283R,0.526700X0.003330*%
%ADD284R,0.120000X0.003330*%
%ADD285R,0.126600X0.003340*%
%ADD286R,0.503300X0.003340*%
%ADD287R,0.513300X0.003340*%
%ADD288R,0.123300X0.003340*%
%ADD289R,0.130000X0.003330*%
%ADD290R,0.490000X0.003330*%
%ADD291R,0.496700X0.003330*%
%ADD292R,0.133300X0.003330*%
%ADD293R,0.470000X0.003330*%
%ADD294R,0.483300X0.003330*%
%ADD295R,0.143400X0.003340*%
%ADD296R,0.456700X0.003340*%
%ADD297R,0.470000X0.003340*%
%ADD298R,0.150000X0.003330*%
%ADD299R,0.436700X0.003330*%
%ADD300R,0.450000X0.003330*%
%ADD301R,0.416700X0.003330*%
%ADD302R,0.433300X0.003330*%
%ADD303R,0.396700X0.003340*%
%ADD304R,0.413300X0.003340*%
%ADD305R,0.166700X0.003340*%
%ADD306R,0.373400X0.003330*%
%ADD307R,0.390000X0.003330*%
%ADD308R,0.343300X0.003330*%
%ADD309R,0.370000X0.003330*%
%ADD310R,0.313400X0.003340*%
%ADD311R,0.340000X0.003340*%
%ADD312R,0.270000X0.003330*%
%ADD313R,0.306700X0.003330*%
%ADD314R,0.263300X0.003330*%
%ADD315R,0.216700X0.003330*%
%ADD316R,0.236700X0.003340*%
%ADD317R,0.250000X0.003330*%
%ADD318R,0.003300X0.003330*%
%ADD319R,0.256600X0.003330*%
%ADD320R,0.013300X0.003330*%
%ADD321R,0.266600X0.003340*%
%ADD322R,0.023300X0.003340*%
%ADD323R,0.006700X0.003340*%
%ADD324R,0.283400X0.003330*%
%ADD325R,0.276600X0.003330*%
%ADD326R,0.296700X0.003330*%
%ADD327R,0.030000X0.003330*%
%ADD328R,0.290000X0.003330*%
%ADD329R,0.310000X0.003340*%
%ADD330R,0.303400X0.003340*%
%ADD331R,0.326700X0.003330*%
%ADD332R,0.320000X0.003330*%
%ADD333R,0.353300X0.003330*%
%ADD334R,0.073300X0.003330*%
%ADD335R,0.336700X0.003330*%
%ADD336R,0.096700X0.003340*%
%ADD337R,0.363300X0.003340*%
%ADD338R,0.733300X0.003340*%
%ADD339R,0.730000X0.003340*%
%ADD340R,0.736700X0.003330*%
%ADD341R,0.740000X0.003330*%
%ADD342R,0.743300X0.003340*%
%ADD343R,0.746700X0.003340*%
%ADD344R,0.750000X0.003340*%
%ADD345R,0.753300X0.003340*%
%ADD346R,0.720000X0.003340*%
%ADD347R,0.713400X0.003330*%
%ADD348R,0.706700X0.003330*%
%ADD349R,0.756700X0.003330*%
%ADD350R,0.700000X0.003340*%
%ADD351R,0.693400X0.003330*%
%ADD352R,0.686700X0.003330*%
%ADD353R,0.686700X0.003340*%
%ADD354R,0.680000X0.003330*%
%ADD355R,0.046600X0.003330*%
%ADD356R,0.760000X0.003340*%
%ADD357R,0.670000X0.003330*%
%ADD358R,0.666700X0.003330*%
%ADD359R,0.126600X0.003330*%
%ADD360R,0.660000X0.003340*%
%ADD361R,0.656600X0.003330*%
%ADD362R,0.653300X0.003340*%
%ADD363R,0.653300X0.003330*%
%ADD364R,0.646600X0.003340*%
%ADD365R,0.643300X0.003330*%
%ADD366R,0.640000X0.003330*%
%ADD367R,0.636600X0.003340*%
%ADD368R,0.763300X0.003340*%
%ADD369R,0.636600X0.003330*%
%ADD370R,0.633300X0.003330*%
%ADD371R,0.246600X0.003330*%
%ADD372R,0.630000X0.003340*%
%ADD373R,0.253400X0.003340*%
%ADD374R,0.633400X0.003330*%
%ADD375R,0.260000X0.003330*%
%ADD376R,0.266600X0.003330*%
%ADD377R,0.270000X0.003340*%
%ADD378R,0.626700X0.003330*%
%ADD379R,0.273400X0.003330*%
%ADD380R,0.280000X0.003330*%
%ADD381R,0.623400X0.003340*%
%ADD382R,0.286600X0.003340*%
%ADD383R,0.623400X0.003330*%
%ADD384R,0.620000X0.003330*%
%ADD385R,0.293400X0.003330*%
%ADD386R,0.620000X0.003340*%
%ADD387R,0.300000X0.003340*%
%ADD388R,0.616700X0.003330*%
%ADD389R,0.300000X0.003330*%
%ADD390R,0.306600X0.003330*%
%ADD391R,0.613400X0.003340*%
%ADD392R,0.306600X0.003340*%
%ADD393R,0.766700X0.003340*%
%ADD394R,0.613400X0.003330*%
%ADD395R,0.313400X0.003330*%
%ADD396R,0.766700X0.003330*%
%ADD397R,0.320000X0.003340*%
%ADD398R,0.326600X0.003330*%
%ADD399R,0.326600X0.003340*%
%ADD400R,0.606700X0.003330*%
%ADD401R,0.333400X0.003330*%
%ADD402R,0.606700X0.003340*%
%ADD403R,0.333400X0.003340*%
%ADD404R,0.076700X0.003340*%
%ADD405R,0.603400X0.003330*%
%ADD406R,0.603400X0.003340*%
%ADD407R,0.136700X0.003340*%
%ADD408R,0.340000X0.003330*%
%ADD409R,0.343300X0.003340*%
%ADD410R,0.346600X0.003330*%
%ADD411R,0.346600X0.003340*%
%ADD412R,0.350000X0.003330*%
%ADD413R,0.600000X0.003340*%
%ADD414R,0.350000X0.003340*%
%ADD415R,0.593300X0.003330*%
%ADD416R,0.596600X0.003330*%
%ADD417R,0.596600X0.003340*%
%ADD418R,0.603300X0.003330*%
%ADD419R,0.606600X0.003330*%
%ADD420R,0.613300X0.003330*%
%ADD421R,0.616600X0.003340*%
%ADD422R,0.603300X0.003340*%
%ADD423R,0.626700X0.003340*%
%ADD424R,0.626600X0.003330*%
%ADD425R,0.626600X0.003340*%
%ADD426R,0.596700X0.003340*%
%ADD427R,0.586700X0.003330*%
%ADD428R,0.583300X0.003340*%
%ADD429R,0.623300X0.003340*%
%ADD430R,0.580000X0.003330*%
%ADD431R,0.573300X0.003330*%
%ADD432R,0.570000X0.003340*%
%ADD433R,0.566700X0.003330*%
%ADD434R,0.560000X0.003330*%
%ADD435R,0.646600X0.003330*%
%ADD436R,0.556700X0.003340*%
%ADD437R,0.553300X0.003330*%
%ADD438R,0.546700X0.003330*%
%ADD439R,0.543400X0.003340*%
%ADD440R,0.666600X0.003340*%
%ADD441R,0.536700X0.003330*%
%ADD442R,0.533400X0.003340*%
%ADD443R,0.683400X0.003340*%
%ADD444R,0.523400X0.003340*%
%ADD445R,0.693300X0.003340*%
%ADD446R,0.520000X0.003330*%
%ADD447R,0.696600X0.003330*%
%ADD448R,0.700000X0.003330*%
%ADD449R,0.513400X0.003340*%
%ADD450R,0.703300X0.003340*%
%ADD451R,0.510000X0.003330*%
%ADD452R,0.706600X0.003330*%
%ADD453R,0.506700X0.003330*%
%ADD454R,0.503400X0.003340*%
%ADD455R,0.716600X0.003340*%
%ADD456R,0.500000X0.003330*%
%ADD457R,0.716700X0.003330*%
%ADD458R,0.490000X0.003340*%
%ADD459R,0.723300X0.003340*%
%ADD460R,0.486600X0.003330*%
%ADD461R,0.480000X0.003340*%
%ADD462R,0.476600X0.003330*%
%ADD463R,0.733400X0.003330*%
%ADD464R,0.473300X0.003330*%
%ADD465R,0.736600X0.003340*%
%ADD466R,0.756600X0.003340*%
%ADD467R,0.466600X0.003330*%
%ADD468R,0.756600X0.003330*%
%ADD469R,0.463300X0.003330*%
%ADD470R,0.460000X0.003340*%
%ADD471R,0.456600X0.003330*%
%ADD472R,0.743400X0.003330*%
%ADD473R,0.453300X0.003330*%
%ADD474R,0.450000X0.003340*%
%ADD475R,0.746600X0.003340*%
%ADD476R,0.446600X0.003330*%
%ADD477R,0.443300X0.003330*%
%ADD478R,0.440000X0.003340*%
%ADD479R,0.753400X0.003330*%
%ADD480R,0.430000X0.003330*%
%ADD481R,0.426700X0.003340*%
%ADD482R,0.423300X0.003330*%
%ADD483R,0.420000X0.003330*%
%ADD484R,0.416700X0.003340*%
%ADD485R,0.413300X0.003330*%
%ADD486R,0.410000X0.003330*%
%ADD487R,0.406700X0.003340*%
%ADD488R,0.403300X0.003330*%
%ADD489R,0.400000X0.003330*%
%ADD490R,0.800000X0.003340*%
%ADD491R,0.393300X0.003330*%
%ADD492R,0.386700X0.003340*%
%ADD493R,0.843300X0.003340*%
%ADD494R,0.383300X0.003330*%
%ADD495R,0.380000X0.003330*%
%ADD496R,0.373400X0.003340*%
%ADD497R,0.873300X0.003340*%
%ADD498R,0.883400X0.003330*%
%ADD499R,0.763400X0.003330*%
%ADD500R,0.366700X0.003330*%
%ADD501R,0.363400X0.003340*%
%ADD502R,0.896600X0.003340*%
%ADD503R,0.763400X0.003340*%
%ADD504R,0.360000X0.003330*%
%ADD505R,0.906700X0.003330*%
%ADD506R,0.356700X0.003330*%
%ADD507R,0.913300X0.003330*%
%ADD508R,0.353400X0.003340*%
%ADD509R,0.920000X0.003340*%
%ADD510R,0.926700X0.003330*%
%ADD511R,0.346700X0.003330*%
%ADD512R,0.343400X0.003340*%
%ADD513R,0.940000X0.003340*%
%ADD514R,0.766600X0.003340*%
%ADD515R,0.946700X0.003330*%
%ADD516R,0.330000X0.003330*%
%ADD517R,0.973300X0.003330*%
%ADD518R,0.323400X0.003340*%
%ADD519R,0.976600X0.003340*%
%ADD520R,0.773300X0.003340*%
%ADD521R,0.316600X0.003330*%
%ADD522R,0.983400X0.003330*%
%ADD523R,0.313300X0.003330*%
%ADD524R,0.990000X0.003330*%
%ADD525R,0.993300X0.003340*%
%ADD526R,0.776600X0.003340*%
%ADD527R,1.000000X0.003330*%
%ADD528R,0.776600X0.003330*%
%ADD529R,0.303300X0.003330*%
%ADD530R,1.003300X0.003330*%
%ADD531R,0.780000X0.003330*%
%ADD532R,1.010000X0.003340*%
%ADD533R,0.780000X0.003340*%
%ADD534R,0.296600X0.003330*%
%ADD535R,1.013400X0.003330*%
%ADD536R,0.293300X0.003330*%
%ADD537R,1.020000X0.003330*%
%ADD538R,0.290000X0.003340*%
%ADD539R,1.023300X0.003340*%
%ADD540R,0.286600X0.003330*%
%ADD541R,1.030000X0.003330*%
%ADD542R,0.283300X0.003330*%
%ADD543R,1.033300X0.003330*%
%ADD544R,0.280000X0.003340*%
%ADD545R,1.040000X0.003340*%
%ADD546R,0.783300X0.003340*%
%ADD547R,1.043400X0.003330*%
%ADD548R,0.786700X0.003330*%
%ADD549R,0.273300X0.003330*%
%ADD550R,1.046700X0.003330*%
%ADD551R,1.053300X0.003340*%
%ADD552R,1.056700X0.003330*%
%ADD553R,1.060000X0.003330*%
%ADD554R,0.793300X0.003330*%
%ADD555R,0.256700X0.003340*%
%ADD556R,1.063300X0.003340*%
%ADD557R,0.793300X0.003340*%
%ADD558R,1.070000X0.003330*%
%ADD559R,1.073300X0.003330*%
%ADD560R,0.246700X0.003340*%
%ADD561R,1.076600X0.003340*%
%ADD562R,1.080000X0.003330*%
%ADD563R,1.083300X0.003330*%
%ADD564R,1.090000X0.003340*%
%ADD565R,0.806700X0.003340*%
%ADD566R,0.233300X0.003330*%
%ADD567R,1.093400X0.003330*%
%ADD568R,0.803400X0.003330*%
%ADD569R,1.096700X0.003330*%
%ADD570R,0.226700X0.003340*%
%ADD571R,1.100000X0.003340*%
%ADD572R,1.103400X0.003330*%
%ADD573R,1.106700X0.003330*%
%ADD574R,0.813400X0.003330*%
%ADD575R,1.110000X0.003340*%
%ADD576R,0.813400X0.003340*%
%ADD577R,1.113400X0.003330*%
%ADD578R,1.116700X0.003330*%
%ADD579R,0.203400X0.003340*%
%ADD580R,1.120000X0.003340*%
%ADD581R,0.820000X0.003340*%
%ADD582R,1.123400X0.003330*%
%ADD583R,0.823400X0.003330*%
%ADD584R,1.126700X0.003330*%
%ADD585R,0.193400X0.003340*%
%ADD586R,1.130000X0.003340*%
%ADD587R,0.826700X0.003340*%
%ADD588R,1.130000X0.003330*%
%ADD589R,1.133300X0.003330*%
%ADD590R,0.833400X0.003330*%
%ADD591R,1.136600X0.003340*%
%ADD592R,0.833400X0.003340*%
%ADD593R,1.140000X0.003330*%
%ADD594R,1.143300X0.003330*%
%ADD595R,0.836600X0.003330*%
%ADD596R,0.173400X0.003340*%
%ADD597R,1.143300X0.003340*%
%ADD598R,0.840000X0.003340*%
%ADD599R,1.146700X0.003330*%
%ADD600R,0.166700X0.003330*%
%ADD601R,1.150000X0.003330*%
%ADD602R,1.153300X0.003340*%
%ADD603R,0.846600X0.003340*%
%ADD604R,1.153400X0.003330*%
%ADD605R,1.156700X0.003330*%
%ADD606R,0.853300X0.003330*%
%ADD607R,0.153400X0.003340*%
%ADD608R,1.160000X0.003340*%
%ADD609R,0.856600X0.003340*%
%ADD610R,0.146600X0.003330*%
%ADD611R,1.160000X0.003330*%
%ADD612R,0.856600X0.003330*%
%ADD613R,1.163300X0.003330*%
%ADD614R,1.163300X0.003340*%
%ADD615R,1.166700X0.003330*%
%ADD616R,0.866600X0.003330*%
%ADD617R,0.133300X0.003340*%
%ADD618R,1.170000X0.003340*%
%ADD619R,1.166600X0.003330*%
%ADD620R,0.876600X0.003330*%
%ADD621R,1.170000X0.003330*%
%ADD622R,0.880000X0.003340*%
%ADD623R,0.123300X0.003330*%
%ADD624R,1.173300X0.003330*%
%ADD625R,1.173400X0.003330*%
%ADD626R,0.886700X0.003330*%
%ADD627R,0.116600X0.003340*%
%ADD628R,1.173300X0.003340*%
%ADD629R,0.890000X0.003340*%
%ADD630R,0.116600X0.003330*%
%ADD631R,1.176600X0.003330*%
%ADD632R,1.176700X0.003330*%
%ADD633R,1.173400X0.003340*%
%ADD634R,0.110000X0.003330*%
%ADD635R,0.103300X0.003330*%
%ADD636R,0.100000X0.003340*%
%ADD637R,0.913300X0.003340*%
%ADD638R,0.096700X0.003330*%
%ADD639R,0.926700X0.003340*%
%ADD640R,1.166700X0.003340*%
%ADD641R,0.943400X0.003330*%
%ADD642R,0.083300X0.003340*%
%ADD643R,1.156700X0.003340*%
%ADD644R,0.953400X0.003340*%
%ADD645R,0.083300X0.003330*%
%ADD646R,0.986700X0.003330*%
%ADD647R,0.963400X0.003330*%
%ADD648R,0.986700X0.003340*%
%ADD649R,0.966700X0.003340*%
%ADD650R,0.986600X0.003330*%
%ADD651R,0.973400X0.003330*%
%ADD652R,0.983300X0.003330*%
%ADD653R,0.980000X0.003330*%
%ADD654R,0.993400X0.003330*%
%ADD655R,0.066700X0.003340*%
%ADD656R,0.983300X0.003340*%
%ADD657R,1.003400X0.003340*%
%ADD658R,0.063400X0.003340*%
%ADD659R,0.983400X0.003340*%
%ADD660R,1.026700X0.003340*%
%ADD661R,1.036700X0.003330*%
%ADD662R,0.060000X0.003330*%
%ADD663R,0.980000X0.003340*%
%ADD664R,1.050000X0.003340*%
%ADD665R,0.976700X0.003330*%
%ADD666R,0.976600X0.003330*%
%ADD667R,0.056700X0.003340*%
%ADD668R,1.080000X0.003340*%
%ADD669R,1.090000X0.003330*%
%ADD670R,0.053400X0.003330*%
%ADD671R,1.106600X0.003330*%
%ADD672R,0.053400X0.003340*%
%ADD673R,1.600000X0.003340*%
%ADD674R,1.603300X0.003330*%
%ADD675R,1.606600X0.003330*%
%ADD676R,1.610000X0.003340*%
%ADD677R,0.043300X0.003330*%
%ADD678R,0.956600X0.003330*%
%ADD679R,1.610000X0.003330*%
%ADD680R,1.613300X0.003330*%
%ADD681R,1.616600X0.003340*%
%ADD682R,1.616700X0.003330*%
%ADD683R,1.620000X0.003330*%
%ADD684R,0.040000X0.003340*%
%ADD685R,0.943400X0.003340*%
%ADD686R,1.623300X0.003340*%
%ADD687R,1.623300X0.003330*%
%ADD688R,1.626700X0.003330*%
%ADD689R,1.630000X0.003340*%
%ADD690R,1.633300X0.003330*%
%ADD691R,1.636700X0.003330*%
%ADD692R,0.033300X0.003340*%
%ADD693R,1.640000X0.003340*%
%ADD694R,1.643300X0.003330*%
%ADD695R,1.646700X0.003330*%
%ADD696R,1.650000X0.003340*%
%ADD697R,0.916600X0.003330*%
%ADD698R,1.653300X0.003330*%
%ADD699R,1.656700X0.003330*%
%ADD700R,0.910000X0.003340*%
%ADD701R,1.660000X0.003340*%
%ADD702R,1.663300X0.003330*%
%ADD703R,1.663400X0.003330*%
%ADD704R,0.900000X0.003340*%
%ADD705R,1.666700X0.003340*%
%ADD706R,1.670000X0.003330*%
%ADD707R,1.673400X0.003330*%
%ADD708R,0.893400X0.003340*%
%ADD709R,1.676700X0.003340*%
%ADD710R,1.316700X0.003330*%
%ADD711R,1.296700X0.003330*%
%ADD712R,0.026700X0.003340*%
%ADD713R,0.883400X0.003340*%
%ADD714R,1.283400X0.003340*%
%ADD715R,1.270000X0.003330*%
%ADD716R,0.256700X0.003330*%
%ADD717R,1.260000X0.003330*%
%ADD718R,0.250000X0.003340*%
%ADD719R,1.253400X0.003340*%
%ADD720R,1.243400X0.003330*%
%ADD721R,0.866700X0.003330*%
%ADD722R,0.243400X0.003330*%
%ADD723R,1.236700X0.003330*%
%ADD724R,0.863400X0.003340*%
%ADD725R,0.240000X0.003340*%
%ADD726R,1.230000X0.003340*%
%ADD727R,1.223400X0.003330*%
%ADD728R,1.220000X0.003330*%
%ADD729R,1.210000X0.003340*%
%ADD730R,0.846600X0.003330*%
%ADD731R,1.203300X0.003330*%
%ADD732R,1.200000X0.003330*%
%ADD733R,1.196600X0.003340*%
%ADD734R,1.190000X0.003330*%
%ADD735R,0.833300X0.003330*%
%ADD736R,1.186600X0.003330*%
%ADD737R,0.830000X0.003340*%
%ADD738R,1.183300X0.003340*%
%ADD739R,0.826600X0.003330*%
%ADD740R,1.180000X0.003330*%
%ADD741R,0.026600X0.003330*%
%ADD742R,0.816700X0.003340*%
%ADD743R,0.813300X0.003330*%
%ADD744R,1.156600X0.003330*%
%ADD745R,0.793400X0.003340*%
%ADD746R,0.783400X0.003340*%
%ADD747R,1.140000X0.003340*%
%ADD748R,1.136700X0.003330*%
%ADD749R,0.036600X0.003330*%
%ADD750R,0.036600X0.003340*%
%ADD751R,1.133300X0.003340*%
%ADD752R,0.036700X0.003340*%
%ADD753R,1.126700X0.003340*%
%ADD754R,1.123300X0.003330*%
%ADD755R,0.743400X0.003340*%
%ADD756R,1.120000X0.003330*%
%ADD757R,1.116700X0.003340*%
%ADD758R,1.113300X0.003330*%
%ADD759R,1.110000X0.003330*%
%ADD760R,1.106700X0.003340*%
%ADD761R,1.103400X0.003340*%
%ADD762R,1.083400X0.003330*%
%ADD763R,0.053300X0.003340*%
%ADD764R,1.066700X0.003340*%
%ADD765R,1.053400X0.003330*%
%ADD766R,1.040000X0.003330*%
%ADD767R,0.670000X0.003340*%
%ADD768R,0.666600X0.003330*%
%ADD769R,1.016700X0.003330*%
%ADD770R,0.660000X0.003330*%
%ADD771R,1.003400X0.003330*%
%ADD772R,0.656700X0.003340*%
%ADD773R,0.993400X0.003340*%
%ADD774R,0.156600X0.003330*%
%ADD775R,0.646700X0.003330*%
%ADD776R,0.956600X0.003340*%
%ADD777R,0.073400X0.003330*%
%ADD778R,0.886600X0.003330*%
%ADD779R,0.076600X0.003340*%
%ADD780R,0.876600X0.003340*%
%ADD781R,0.583300X0.003330*%
%ADD782R,0.083400X0.003330*%
%ADD783R,0.573400X0.003340*%
%ADD784R,0.853300X0.003340*%
%ADD785R,0.553400X0.003340*%
%ADD786R,0.833300X0.003340*%
%ADD787R,0.546600X0.003330*%
%ADD788R,0.096600X0.003340*%
%ADD789R,0.536700X0.003340*%
%ADD790R,0.523300X0.003330*%
%ADD791R,0.106600X0.003340*%
%ADD792R,0.516700X0.003340*%
%ADD793R,0.786700X0.003340*%
%ADD794R,0.503300X0.003330*%
%ADD795R,0.496700X0.003340*%
%ADD796R,0.480000X0.003330*%
%ADD797R,0.473400X0.003340*%
%ADD798R,0.126700X0.003330*%
%ADD799R,0.456700X0.003330*%
%ADD800R,0.023400X0.003330*%
%ADD801R,0.130000X0.003340*%
%ADD802R,0.020000X0.003340*%
%ADD803R,0.440000X0.003330*%
%ADD804R,0.423300X0.003340*%
%ADD805R,0.390000X0.003340*%
%ADD806R,0.010000X0.003340*%
%ADD807R,0.360000X0.003340*%
%ADD808R,0.006600X0.003340*%
%ADD809R,0.680000X0.003340*%
%ADD810R,0.163400X0.003330*%
%ADD811R,0.673400X0.003330*%
%ADD812R,0.323300X0.003340*%
%ADD813R,0.003400X0.003340*%
%ADD814R,0.663400X0.003340*%
%ADD815R,0.310000X0.003330*%
%ADD816R,0.653400X0.003330*%
%ADD817R,0.186700X0.003340*%
%ADD818R,0.276700X0.003340*%
%ADD819R,0.650000X0.003340*%
%ADD820R,0.633300X0.003340*%
%ADD821R,0.256600X0.003340*%
%ADD822R,0.593300X0.003340*%
%ADD823R,0.586600X0.003330*%
%ADD824R,0.283300X0.003340*%
%ADD825R,0.580000X0.003340*%
%ADD826R,0.570000X0.003330*%
%ADD827R,0.316600X0.003340*%
%ADD828R,0.566600X0.003340*%
%ADD829R,0.380000X0.003340*%
%ADD830R,0.550000X0.003340*%
%ADD831R,0.550000X0.003330*%
%ADD832R,0.543300X0.003330*%
%ADD833R,0.540000X0.003340*%
%ADD834R,0.536600X0.003330*%
%ADD835R,0.533300X0.003330*%
%ADD836R,0.526700X0.003340*%
%ADD837R,0.066600X0.003330*%
%ADD838R,0.103400X0.003330*%
%ADD839R,0.513300X0.003330*%
%ADD840R,0.126700X0.003340*%
%ADD841R,0.506700X0.003340*%
%ADD842R,0.493300X0.003340*%
%ADD843R,0.493400X0.003340*%
%ADD844R,0.486700X0.003330*%
%ADD845R,0.483300X0.003340*%
%ADD846R,0.476700X0.003330*%
%ADD847R,0.473400X0.003330*%
%ADD848R,0.266700X0.003340*%
%ADD849R,0.466700X0.003330*%
%ADD850R,0.276700X0.003330*%
%ADD851R,0.463400X0.003330*%
%ADD852R,0.453400X0.003330*%
%ADD853R,0.393300X0.003340*%
%ADD854R,0.446700X0.003330*%
%ADD855R,0.843400X0.003330*%
%ADD856R,0.436600X0.003340*%
%ADD857R,0.436600X0.003330*%
%ADD858R,0.430000X0.003340*%
%ADD859R,0.893300X0.003340*%
%ADD860R,0.426600X0.003330*%
%ADD861R,0.903400X0.003330*%
%ADD862R,0.403400X0.003330*%
%ADD863R,0.396700X0.003330*%
%ADD864R,0.393400X0.003330*%
%ADD865R,1.013300X0.003330*%
%ADD866R,1.023400X0.003340*%
%ADD867R,0.383300X0.003340*%
%ADD868R,0.383400X0.003330*%
%ADD869R,0.376600X0.003330*%
%ADD870R,0.376600X0.003340*%
%ADD871R,0.373300X0.003330*%
%ADD872R,1.063400X0.003330*%
%ADD873R,1.083400X0.003340*%
%ADD874R,0.366700X0.003340*%
%ADD875R,0.363300X0.003330*%
%ADD876R,1.100000X0.003330*%
%ADD877R,0.356700X0.003340*%
%ADD878R,1.116600X0.003330*%
%ADD879R,0.346700X0.003340*%
%ADD880R,0.343400X0.003330*%
%ADD881R,1.143400X0.003330*%
%ADD882R,1.503400X0.003330*%
%ADD883R,0.336600X0.003330*%
%ADD884R,0.333300X0.003340*%
%ADD885R,1.590000X0.003340*%
%ADD886R,0.336600X0.003340*%
%ADD887R,1.643400X0.003330*%
%ADD888R,0.333300X0.003330*%
%ADD889R,1.683400X0.003330*%
%ADD890R,1.723400X0.003340*%
%ADD891R,1.756600X0.003330*%
%ADD892R,0.323300X0.003330*%
%ADD893R,0.316700X0.003330*%
%ADD894R,1.783400X0.003330*%
%ADD895R,0.316700X0.003340*%
%ADD896R,1.810000X0.003340*%
%ADD897R,1.836600X0.003330*%
%ADD898R,1.863400X0.003330*%
%ADD899R,0.306700X0.003340*%
%ADD900R,1.883400X0.003340*%
%ADD901R,0.303300X0.003340*%
%ADD902R,1.903400X0.003330*%
%ADD903R,1.923400X0.003330*%
%ADD904R,0.296600X0.003340*%
%ADD905R,1.943400X0.003340*%
%ADD906R,1.963400X0.003330*%
%ADD907R,1.976600X0.003330*%
%ADD908R,2.570000X0.003340*%
%ADD909R,2.566700X0.003330*%
%ADD910R,2.563400X0.003330*%
%ADD911R,2.563400X0.003340*%
%ADD912R,2.560000X0.003330*%
%ADD913R,2.556600X0.003330*%
%ADD914R,2.556600X0.003340*%
%ADD915R,2.550000X0.003330*%
%ADD916R,2.546700X0.003340*%
%ADD917R,2.543400X0.003330*%
%ADD918R,2.540000X0.003340*%
%ADD919R,2.536600X0.003330*%
%ADD920R,2.530000X0.003340*%
%ADD921R,2.530000X0.003330*%
%ADD922R,2.526700X0.003330*%
%ADD923R,2.523400X0.003340*%
%ADD924R,2.523400X0.003330*%
%ADD925R,2.516600X0.003330*%
%ADD926R,2.516600X0.003340*%
%ADD927R,2.513300X0.003330*%
%ADD928R,2.510000X0.003330*%
%ADD929R,2.506700X0.003340*%
%ADD930R,2.503400X0.003330*%
%ADD931R,2.496600X0.003340*%
%ADD932R,2.496600X0.003330*%
%ADD933R,2.490000X0.003330*%
%ADD934R,2.490000X0.003340*%
%ADD935R,2.483400X0.003330*%
%ADD936R,2.476600X0.003340*%
%ADD937R,2.476600X0.003330*%
%ADD938R,2.470000X0.003330*%
%ADD939R,2.470000X0.003340*%
%ADD940R,2.463400X0.003330*%
%ADD941R,2.456600X0.003340*%
%ADD942R,2.456600X0.003330*%
%ADD943R,2.450000X0.003330*%
%ADD944R,2.450000X0.003340*%
%ADD945R,2.536600X0.003340*%
%ADD946R,2.570000X0.003330*%
%ADD947R,2.576600X0.003340*%
%ADD948R,2.580000X0.003330*%
%ADD949R,2.583400X0.003330*%
%ADD950R,2.590000X0.003340*%
%ADD951R,2.596600X0.003330*%
%ADD952R,2.603400X0.003330*%
%ADD953R,2.610000X0.003340*%
%ADD954R,2.616600X0.003330*%
%ADD955R,2.623400X0.003330*%
%ADD956R,2.623400X0.003340*%
%ADD957R,2.630000X0.003330*%
%ADD958R,2.636600X0.003330*%
%ADD959R,2.643400X0.003340*%
%ADD960R,2.650000X0.003330*%
%ADD961R,2.656600X0.003340*%
%ADD962R,2.663400X0.003330*%
%ADD963R,2.670000X0.003330*%
%ADD964R,2.670000X0.003340*%
%ADD965R,2.676600X0.003330*%
%ADD966R,2.683400X0.003330*%
%ADD967R,2.690000X0.003340*%
%ADD968R,2.690000X0.003330*%
%ADD969R,2.696600X0.003330*%
%ADD970R,2.703400X0.003340*%
%ADD971R,2.703400X0.003330*%
%ADD972R,2.710000X0.003330*%
%ADD973R,2.716600X0.003340*%
%ADD974R,2.716600X0.003330*%
%ADD975R,2.723400X0.003330*%
%ADD976R,2.730000X0.003340*%
%ADD977R,2.730000X0.003330*%
%ADD978R,2.736600X0.003330*%
%ADD979R,2.743400X0.003340*%
%ADD980R,2.743400X0.003330*%
%ADD981R,2.750000X0.003330*%
%ADD982R,1.070000X0.003340*%
%ADD983R,0.476600X0.003340*%
%ADD984R,1.046600X0.003330*%
%ADD985R,1.033400X0.003330*%
%ADD986R,1.020000X0.003340*%
%ADD987R,0.493300X0.003330*%
%ADD988R,0.356600X0.003330*%
%ADD989R,0.526600X0.003330*%
%ADD990R,0.466700X0.003340*%
%ADD991R,0.246600X0.003340*%
%ADD992R,0.303400X0.003330*%
%ADD993R,0.503400X0.003330*%
%ADD994R,0.246700X0.003330*%
%ADD995R,0.296700X0.003340*%
%ADD996R,0.433300X0.003340*%
%ADD997R,0.486600X0.003340*%
%ADD998R,0.426700X0.003330*%
%ADD999R,0.410000X0.003340*%
%ADD1000R,0.393400X0.003340*%
%ADD1001R,0.443400X0.003340*%
%ADD1002R,0.433400X0.003330*%
%ADD1003R,0.373300X0.003340*%
%ADD1004R,0.143400X0.003330*%
%ADD1005R,0.423400X0.003330*%
%ADD1006R,0.330000X0.003340*%
%ADD1007R,0.376700X0.003330*%
%ADD1008R,0.133400X0.003330*%
%ADD1009R,0.103400X0.003340*%
%ADD1010R,0.090000X0.003330*%
%ADD1011R,0.076600X0.003330*%
%ADD1012R,0.070000X0.003340*%
%ADD1013R,0.043400X0.003330*%
%ADD1014R,0.023400X0.003340*%
%ADD1015R,0.016600X0.003330*%
%ADD1016R,0.366600X0.003330*%
%ADD1017R,0.353400X0.003330*%
%ADD1018R,0.293300X0.003340*%
%ADD1019R,0.386600X0.003330*%
%ADD1020R,0.356600X0.003340*%
%ADD1021R,0.283400X0.003340*%
%ADD1022R,0.336700X0.003340*%
%ADD1023R,0.406600X0.003340*%
%ADD1024R,0.413400X0.003330*%
%ADD1025R,0.370000X0.003340*%
%ADD1026R,0.426600X0.003340*%
%ADD1027R,0.436700X0.003340*%
%ADD1028R,0.443300X0.003340*%
%ADD1029R,0.893400X0.003330*%
%ADD1030R,0.460000X0.003330*%
%ADD1031R,0.896600X0.003330*%
%ADD1032R,0.463300X0.003340*%
%ADD1033R,0.456600X0.003340*%
%ADD1034R,0.403400X0.003340*%
%ADD1035R,0.446600X0.003340*%
%ADD1036R,0.386700X0.003330*%
%ADD1037R,0.260000X0.003340*%
%ADD1038R,0.413400X0.003340*%
%ADD1039R,0.263400X0.003330*%
%ADD1040R,0.406600X0.003330*%
%ADD1041R,0.406700X0.003330*%
%ADD1042R,0.386600X0.003340*%
%ADD1043R,0.273300X0.003340*%
%ADD1044R,0.403300X0.003340*%
%ADD1045R,0.723400X0.003340*%
%ADD1046R,0.396600X0.003330*%
%ADD1047R,0.353300X0.003340*%
%ADD1048R,1.343300X0.003330*%
%ADD1049R,1.340000X0.003330*%
%ADD1050R,1.336600X0.003330*%
%ADD1051R,1.336600X0.003340*%
%ADD1052R,1.333300X0.003340*%
%ADD1053R,1.333300X0.003330*%
%ADD1054R,1.330000X0.003330*%
%ADD1055R,1.326600X0.003330*%
%ADD1056R,1.323300X0.003340*%
%ADD1057R,1.320000X0.003340*%
%ADD1058R,1.320000X0.003330*%
%ADD1059R,1.316600X0.003330*%
%ADD1060R,1.313300X0.003330*%
%ADD1061R,1.313300X0.003340*%
%ADD1062R,1.310000X0.003340*%
%ADD1063R,1.310000X0.003330*%
%ADD1064R,1.306600X0.003330*%
%ADD1065R,1.306600X0.003340*%
%ADD1066R,1.303300X0.003330*%
%ADD1067R,1.303300X0.003340*%
%ADD1068R,2.976600X0.003340*%
%ADD1069R,2.976600X0.003330*%
%ADD1070R,2.970000X0.003330*%
%ADD1071R,2.970000X0.003340*%
%ADD1072R,2.963400X0.003330*%
%ADD1073R,2.963400X0.003340*%
%ADD1074R,2.956600X0.003330*%
%ADD1075R,2.956600X0.003340*%
%ADD1076R,2.950000X0.003330*%
%ADD1077R,2.950000X0.003340*%
%ADD1078R,2.943400X0.003330*%
%ADD1079R,2.943400X0.003340*%
%ADD1080R,2.936600X0.003330*%
%ADD1081R,2.936600X0.003340*%
%ADD1082R,2.930000X0.003330*%
%ADD1083R,2.930000X0.003340*%
%ADD1084R,2.923400X0.003340*%
%ADD1085R,2.923400X0.003330*%
%ADD1086R,2.916600X0.003340*%
%ADD1087R,2.916600X0.003330*%
%ADD1088R,2.910000X0.003340*%
%ADD1089R,2.910000X0.003330*%
%ADD1090R,2.903400X0.003340*%
%ADD1091R,2.903400X0.003330*%
%ADD1092R,2.896600X0.003340*%
%ADD1093R,2.896600X0.003330*%
%ADD1094R,2.890000X0.003340*%
%ADD1095R,2.890000X0.003330*%
%ADD1096R,2.883400X0.003340*%
%ADD1097R,2.883400X0.003330*%
%ADD1098R,2.876600X0.003330*%
%ADD1099R,2.876600X0.003340*%
%ADD1100R,2.870000X0.003330*%
%ADD1101R,2.870000X0.003340*%
%ADD1102R,2.863400X0.003330*%
%ADD1103R,2.863400X0.003340*%
%ADD1104R,2.856600X0.003330*%
%ADD1105R,2.856600X0.003340*%
%ADD1106R,2.850000X0.003330*%
%ADD1107R,2.850000X0.003340*%
%ADD1108R,2.843400X0.003330*%
%ADD1109R,2.843400X0.003340*%
%ADD1110R,2.836600X0.003330*%
%ADD1111R,2.836600X0.003340*%
%ADD1112R,2.830000X0.003330*%
%ADD1113R,2.830000X0.003340*%
%ADD1114R,2.823400X0.003330*%
%ADD1115R,2.823400X0.003340*%
%ADD1116R,2.816600X0.003330*%
%ADD1117R,2.816600X0.003340*%
%ADD1118R,2.810000X0.003330*%
%ADD1119R,2.810000X0.003340*%
%ADD1120R,2.803400X0.003330*%
%ADD1121R,2.803400X0.003340*%
%ADD1122R,2.796600X0.003330*%
%ADD1123R,2.796600X0.003340*%
%ADD1124R,2.793300X0.003340*%
%ADD1125R,2.793300X0.003330*%
%ADD1126R,2.790000X0.003330*%
%ADD1127R,2.790000X0.003340*%
%ADD1128R,2.786700X0.003340*%
%ADD1129R,2.783400X0.003330*%
%ADD1130R,2.783400X0.003340*%
%ADD1131R,2.780000X0.003330*%
%ADD1132R,2.776600X0.003340*%
%ADD1133R,2.776600X0.003330*%
%ADD1134R,2.773300X0.003330*%
%ADD1135R,2.770000X0.003330*%
%ADD1136R,2.770000X0.003340*%
%ADD1137R,2.763400X0.003340*%
%ADD1138R,2.763400X0.003330*%
%ADD1139R,2.760000X0.003330*%
%ADD1140R,2.756600X0.003330*%
%ADD1141R,2.756600X0.003340*%
%ADD1142R,2.753300X0.003330*%
%ADD1143R,2.753300X0.003340*%
%ADD1144R,2.746700X0.003340*%
%ADD1145R,2.746700X0.003330*%
%ADD1146R,2.740000X0.003330*%
%ADD1147R,2.740000X0.003340*%
%ADD1148R,2.733300X0.003340*%
%ADD1149R,2.733300X0.003330*%
%ADD1150R,1.300000X0.003340*%
%ADD1151R,1.283300X0.003330*%
%ADD1152R,1.276700X0.003330*%
%ADD1153R,1.263400X0.003330*%
%ADD1154R,1.246700X0.003340*%
%ADD1155R,1.233300X0.003330*%
%ADD1156R,1.213400X0.003340*%
%ADD1157R,1.176600X0.003340*%
%ADD1158R,1.146600X0.003330*%
%ADD1159R,1.136700X0.003340*%
%ADD1160R,1.113400X0.003340*%
%ADD1161R,1.113300X0.003340*%
%ADD1162R,1.093300X0.003340*%
%ADD1163R,1.093400X0.003340*%
%ADD1164R,1.086700X0.003330*%
%ADD1165R,1.073300X0.003340*%
%ADD1166R,1.076600X0.003330*%
%ADD1167R,1.066700X0.003330*%
%ADD1168R,1.066600X0.003330*%
%ADD1169R,1.060000X0.003340*%
%ADD1170R,1.053300X0.003330*%
%ADD1171R,1.050000X0.003330*%
%ADD1172R,1.046700X0.003340*%
%ADD1173R,1.043300X0.003340*%
%ADD1174R,1.033400X0.003340*%
%ADD1175R,1.030000X0.003340*%
%ADD1176R,1.026700X0.003330*%
%ADD1177R,1.023300X0.003330*%
%ADD1178R,1.016700X0.003340*%
%ADD1179R,1.016600X0.003330*%
%ADD1180R,1.006600X0.003330*%
%ADD1181R,1.003300X0.003340*%
%ADD1182R,0.996600X0.003330*%
%ADD1183R,0.996700X0.003340*%
%ADD1184R,0.993300X0.003330*%
%ADD1185R,0.973400X0.003340*%
%ADD1186R,0.966600X0.003330*%
%ADD1187R,0.933400X0.003340*%
%ADD1188R,0.923400X0.003330*%
%ADD1189R,0.916600X0.003340*%
%ADD1190R,0.873300X0.003330*%
%ADD1191R,0.870000X0.003340*%
%ADD1192R,0.753400X0.003340*%
%ADD1193R,0.113300X0.003340*%
%ADD1194R,0.746600X0.003330*%
%ADD1195R,0.113400X0.003340*%
%ADD1196R,0.703400X0.003340*%
%ADD1197R,0.693300X0.003330*%
%ADD1198R,0.663400X0.003330*%
%ADD1199R,0.643300X0.003340*%
%ADD1200R,0.613300X0.003340*%
%ADD1201R,0.606600X0.003340*%
%ADD1202R,0.593400X0.003340*%
%ADD1203R,0.583400X0.003330*%
%ADD1204R,0.573300X0.003340*%
%ADD1205R,0.573400X0.003330*%
%ADD1206R,0.560000X0.003340*%
%ADD1207R,0.556600X0.003330*%
%ADD1208R,0.536600X0.003340*%
%ADD1209R,0.533300X0.003340*%
%ADD1210R,0.533400X0.003330*%
%ADD1211R,0.530000X0.003340*%
%ADD1212R,0.526600X0.003340*%
%ADD1213R,0.523300X0.003340*%
%ADD1214R,0.523400X0.003330*%
%ADD1215R,0.520000X0.003340*%
%ADD1216R,0.516600X0.003330*%
%ADD1217R,0.513400X0.003330*%
%ADD1218R,0.510000X0.003340*%
%ADD1219R,0.506600X0.003340*%
%ADD1220R,0.496600X0.003330*%
%ADD1221R,0.286700X0.003330*%
%ADD1222R,0.266700X0.003330*%
%ADD1223R,0.123400X0.003330*%
%ADD1224R,0.153300X0.003340*%
%ADD1225R,0.400000X0.003340*%
%ADD1226R,0.376700X0.003340*%
%ADD1227R,0.326700X0.003340*%
%ADD1228R,0.263400X0.003340*%
%ADD1229R,0.263300X0.003340*%
%ADD1230R,0.243400X0.003340*%
%ADD1231R,0.063300X0.003340*%
%ADD1232C,0.010000*%


D10*
X11434Y333D03*
D11*
X18483Y333D03*
D12*
X11417Y367D03*
X18517Y367D03*
D13*
X11367Y400D03*
D14*
X18533Y400D03*
D15*
X11350Y433D03*
D16*
X18567Y433D03*
D17*
X11317Y467D03*
D18*
X18583Y467D03*
D19*
X11317Y500D03*
X18617Y500D03*
D20*
X6200Y300D03*
D21*
X11284Y533D03*
X18650Y533D03*
D22*
X6200Y333D03*
D23*
X11267Y567D03*
D24*
X18650Y567D03*
D25*
X23616Y333D03*
D26*
X6217Y367D03*
D27*
X11233Y600D03*
D28*
X18667Y600D03*
D29*
X23617Y367D03*
D30*
X6200Y400D03*
D31*
X11217Y633D03*
D32*
X18683Y633D03*
D33*
X23600Y400D03*
D34*
X6217Y433D03*
D35*
X11200Y667D03*
D36*
X18717Y667D03*
D37*
X23600Y433D03*
D38*
X6200Y467D03*
D39*
X11183Y700D03*
D40*
X18733Y700D03*
D41*
X23600Y467D03*
D11*
X2917Y500D03*
D42*
X5100Y500D03*
X7466Y500D03*
D43*
X9600Y500D03*
D44*
X11167Y733D03*
D45*
X18750Y733D03*
D46*
X20367Y500D03*
D42*
X22600Y500D03*
D47*
X24983Y500D03*
D48*
X27016Y500D03*
D49*
X2833Y533D03*
D50*
X5100Y533D03*
X7467Y533D03*
D51*
X9650Y533D03*
D52*
X11150Y767D03*
X18750Y767D03*
D53*
X20317Y533D03*
D50*
X22600Y533D03*
X24967Y533D03*
D54*
X27083Y533D03*
D49*
X2800Y567D03*
D55*
X5100Y567D03*
D56*
X7483Y567D03*
D57*
X9700Y567D03*
D58*
X20267Y567D03*
D55*
X22600Y567D03*
D56*
X24983Y567D03*
D54*
X27116Y567D03*
D11*
X2750Y600D03*
D59*
X5100Y600D03*
D60*
X7483Y600D03*
D61*
X9733Y600D03*
D62*
X20233Y600D03*
D59*
X22600Y600D03*
D60*
X24983Y600D03*
D63*
X27167Y600D03*
D53*
X2717Y633D03*
D58*
X5100Y633D03*
X7467Y633D03*
D57*
X9767Y633D03*
D64*
X20183Y633D03*
D58*
X22600Y633D03*
X24967Y633D03*
D65*
X27200Y633D03*
D58*
X2700Y667D03*
D49*
X5100Y667D03*
D66*
X7483Y667D03*
D57*
X9800Y667D03*
D64*
X20150Y667D03*
D66*
X22583Y667D03*
X24983Y667D03*
D67*
X27250Y667D03*
D46*
X2667Y700D03*
D10*
X5100Y700D03*
D68*
X7483Y700D03*
D69*
X9833Y700D03*
D70*
X20133Y700D03*
D10*
X22600Y700D03*
X24966Y700D03*
D71*
X27266Y700D03*
D64*
X2650Y733D03*
D72*
X5083Y733D03*
X7483Y733D03*
D73*
X9867Y733D03*
D74*
X20117Y733D03*
D72*
X22583Y733D03*
X24983Y733D03*
D12*
X27283Y733D03*
D75*
X2633Y767D03*
D73*
X5100Y767D03*
D72*
X7483Y767D03*
X9883Y767D03*
D56*
X20083Y767D03*
D73*
X22600Y767D03*
D72*
X24983Y767D03*
D51*
X27317Y767D03*
D59*
X2600Y800D03*
D76*
X5100Y800D03*
D68*
X7483Y800D03*
X9883Y800D03*
D77*
X20066Y800D03*
D76*
X22600Y800D03*
X24967Y800D03*
D61*
X27333Y800D03*
D56*
X2583Y833D03*
D73*
X5100Y833D03*
X7467Y833D03*
D49*
X9900Y833D03*
D78*
X20050Y833D03*
D73*
X22600Y833D03*
X24967Y833D03*
D79*
X27350Y833D03*
D55*
X2566Y867D03*
D73*
X5100Y867D03*
D79*
X7483Y867D03*
D53*
X9917Y867D03*
D80*
X20033Y867D03*
D73*
X22600Y867D03*
X24967Y867D03*
D79*
X27350Y867D03*
D81*
X2550Y900D03*
D76*
X5100Y900D03*
D82*
X7483Y900D03*
D62*
X9933Y900D03*
D83*
X20016Y900D03*
D76*
X22600Y900D03*
X24967Y900D03*
X27367Y900D03*
D78*
X2550Y933D03*
D73*
X5100Y933D03*
D79*
X7483Y933D03*
D64*
X9950Y933D03*
D84*
X20000Y933D03*
D73*
X22600Y933D03*
X24967Y933D03*
D72*
X27383Y933D03*
D80*
X2533Y967D03*
D73*
X5100Y967D03*
D79*
X7483Y967D03*
D64*
X9950Y967D03*
D84*
X20000Y967D03*
D73*
X22600Y967D03*
X24967Y967D03*
D49*
X27400Y967D03*
D83*
X2516Y1000D03*
D76*
X5100Y1000D03*
D82*
X7483Y1000D03*
D59*
X9967Y1000D03*
D85*
X19983Y1000D03*
D76*
X22600Y1000D03*
X24967Y1000D03*
D10*
X27400Y1000D03*
D86*
X2516Y1033D03*
D73*
X5100Y1033D03*
D79*
X7483Y1033D03*
D87*
X9967Y1033D03*
D88*
X19966Y1033D03*
D73*
X22600Y1033D03*
X24967Y1033D03*
D53*
X27417Y1033D03*
D84*
X2500Y1067D03*
D73*
X5100Y1067D03*
D79*
X7483Y1067D03*
D56*
X9983Y1067D03*
D88*
X19966Y1067D03*
D73*
X22600Y1067D03*
X24967Y1067D03*
D89*
X27433Y1067D03*
D90*
X2500Y1100D03*
D76*
X5100Y1100D03*
D82*
X7483Y1100D03*
D77*
X10000Y1100D03*
D91*
X19950Y1100D03*
D76*
X22600Y1100D03*
X24967Y1100D03*
D62*
X27433Y1100D03*
D92*
X2483Y1133D03*
D73*
X5100Y1133D03*
D79*
X7483Y1133D03*
D55*
X10000Y1133D03*
D93*
X19950Y1133D03*
D73*
X22600Y1133D03*
X24967Y1133D03*
D64*
X27450Y1133D03*
D92*
X2483Y1167D03*
D73*
X5100Y1167D03*
D79*
X7483Y1167D03*
D55*
X10000Y1167D03*
D94*
X19933Y1167D03*
D73*
X22600Y1167D03*
X24967Y1167D03*
D64*
X27450Y1167D03*
D42*
X2466Y1200D03*
D76*
X5100Y1200D03*
D82*
X7483Y1200D03*
D81*
X10017Y1200D03*
D95*
X19933Y1200D03*
D76*
X22600Y1200D03*
X24967Y1200D03*
D59*
X27467Y1200D03*
D88*
X2466Y1233D03*
D73*
X5100Y1233D03*
D79*
X7483Y1233D03*
D78*
X10017Y1233D03*
D96*
X19916Y1233D03*
D73*
X22600Y1233D03*
X24967Y1233D03*
D87*
X27467Y1233D03*
D93*
X2450Y1267D03*
D73*
X5100Y1267D03*
D79*
X7483Y1267D03*
D80*
X10033Y1267D03*
D96*
X19916Y1267D03*
D73*
X22600Y1267D03*
X24967Y1267D03*
D87*
X27467Y1267D03*
D91*
X2450Y1300D03*
D76*
X5100Y1300D03*
D82*
X7483Y1300D03*
D97*
X10033Y1300D03*
D98*
X19916Y1300D03*
D76*
X22600Y1300D03*
X24967Y1300D03*
D99*
X27483Y1300D03*
D93*
X2450Y1333D03*
D73*
X5100Y1333D03*
D79*
X7483Y1333D03*
D80*
X10033Y1333D03*
D100*
X19900Y1333D03*
D73*
X22600Y1333D03*
X24967Y1333D03*
D56*
X27483Y1333D03*
D94*
X2433Y1367D03*
D73*
X5100Y1367D03*
D79*
X7483Y1367D03*
D86*
X10050Y1367D03*
D100*
X19900Y1367D03*
D73*
X22600Y1367D03*
X24967Y1367D03*
D55*
X27500Y1367D03*
D95*
X2433Y1400D03*
D76*
X5100Y1400D03*
D82*
X7483Y1400D03*
D83*
X10050Y1400D03*
D101*
X19900Y1400D03*
D76*
X22600Y1400D03*
X24967Y1400D03*
D77*
X27500Y1400D03*
D94*
X2433Y1433D03*
D73*
X5100Y1433D03*
D79*
X7483Y1433D03*
D86*
X10050Y1433D03*
D102*
X19883Y1433D03*
D73*
X22600Y1433D03*
X24967Y1433D03*
D55*
X27500Y1433D03*
D94*
X2433Y1467D03*
D73*
X5100Y1467D03*
D79*
X7483Y1467D03*
D86*
X10050Y1467D03*
D102*
X19883Y1467D03*
D73*
X22600Y1467D03*
X24967Y1467D03*
D55*
X27500Y1467D03*
D98*
X2416Y1500D03*
D76*
X5100Y1500D03*
D82*
X7483Y1500D03*
D90*
X10067Y1500D03*
D103*
X19883Y1500D03*
D76*
X22600Y1500D03*
X24967Y1500D03*
D81*
X27517Y1500D03*
D96*
X2416Y1533D03*
D73*
X5100Y1533D03*
D79*
X7483Y1533D03*
D84*
X10067Y1533D03*
D102*
X19883Y1533D03*
D73*
X22600Y1533D03*
X24967Y1533D03*
D78*
X27517Y1533D03*
D96*
X2416Y1567D03*
D73*
X5100Y1567D03*
D79*
X7483Y1567D03*
D84*
X10067Y1567D03*
D104*
X19866Y1567D03*
D73*
X22600Y1567D03*
X24967Y1567D03*
D78*
X27517Y1567D03*
D98*
X2416Y1600D03*
D76*
X5100Y1600D03*
D82*
X7483Y1600D03*
D90*
X10067Y1600D03*
D105*
X19866Y1600D03*
D76*
X22600Y1600D03*
X24967Y1600D03*
D81*
X27517Y1600D03*
D96*
X2416Y1633D03*
D73*
X5100Y1633D03*
D79*
X7483Y1633D03*
D84*
X10067Y1633D03*
D104*
X19866Y1633D03*
D73*
X22600Y1633D03*
X24967Y1633D03*
D78*
X27517Y1633D03*
D96*
X2416Y1667D03*
D73*
X5100Y1667D03*
D79*
X7483Y1667D03*
D84*
X10067Y1667D03*
D104*
X19866Y1667D03*
D73*
X22600Y1667D03*
X24967Y1667D03*
D78*
X27517Y1667D03*
D98*
X2416Y1700D03*
D76*
X5100Y1700D03*
D82*
X7483Y1700D03*
D90*
X10067Y1700D03*
D105*
X19866Y1700D03*
D76*
X22600Y1700D03*
X24967Y1700D03*
D81*
X27517Y1700D03*
D96*
X2416Y1733D03*
D73*
X5100Y1733D03*
D79*
X7483Y1733D03*
D84*
X10067Y1733D03*
D104*
X19866Y1733D03*
D73*
X22600Y1733D03*
X24967Y1733D03*
D78*
X27517Y1733D03*
D96*
X2416Y1767D03*
D73*
X5100Y1767D03*
D79*
X7483Y1767D03*
D84*
X10067Y1767D03*
D104*
X19866Y1767D03*
D73*
X22600Y1767D03*
X24967Y1767D03*
D78*
X27517Y1767D03*
D98*
X2416Y1800D03*
D76*
X5100Y1800D03*
D82*
X7483Y1800D03*
D90*
X10067Y1800D03*
D105*
X19866Y1800D03*
D76*
X22600Y1800D03*
X24967Y1800D03*
D81*
X27517Y1800D03*
D96*
X2416Y1833D03*
D73*
X5100Y1833D03*
D79*
X7483Y1833D03*
D84*
X10067Y1833D03*
D104*
X19866Y1833D03*
D73*
X22600Y1833D03*
X24967Y1833D03*
D78*
X27517Y1833D03*
D96*
X2416Y1867D03*
D73*
X5100Y1867D03*
D79*
X7483Y1867D03*
D84*
X10067Y1867D03*
D104*
X19866Y1867D03*
D73*
X22600Y1867D03*
X24967Y1867D03*
D78*
X27517Y1867D03*
D98*
X2416Y1900D03*
D76*
X5100Y1900D03*
D82*
X7483Y1900D03*
D90*
X10067Y1900D03*
D105*
X19866Y1900D03*
D76*
X22600Y1900D03*
X24967Y1900D03*
D81*
X27517Y1900D03*
D96*
X2416Y1933D03*
D73*
X5100Y1933D03*
D79*
X7483Y1933D03*
D84*
X10067Y1933D03*
D104*
X19866Y1933D03*
D73*
X22600Y1933D03*
X24967Y1933D03*
D78*
X27517Y1933D03*
D96*
X2416Y1967D03*
D73*
X5100Y1967D03*
D79*
X7483Y1967D03*
D84*
X10067Y1967D03*
D104*
X19866Y1967D03*
D73*
X22600Y1967D03*
X24967Y1967D03*
D78*
X27517Y1967D03*
D98*
X2416Y2000D03*
D76*
X5100Y2000D03*
D82*
X7483Y2000D03*
D90*
X10067Y2000D03*
D105*
X19866Y2000D03*
D76*
X22600Y2000D03*
X24967Y2000D03*
D81*
X27517Y2000D03*
D96*
X2416Y2033D03*
D73*
X5100Y2033D03*
D79*
X7483Y2033D03*
D84*
X10067Y2033D03*
D104*
X19866Y2033D03*
D73*
X22600Y2033D03*
X24967Y2033D03*
D78*
X27517Y2033D03*
D96*
X2416Y2067D03*
D73*
X5100Y2067D03*
D79*
X7483Y2067D03*
D84*
X10067Y2067D03*
D104*
X19866Y2067D03*
D73*
X22600Y2067D03*
X24967Y2067D03*
D78*
X27517Y2067D03*
D98*
X2416Y2100D03*
D76*
X5100Y2100D03*
X7467Y2100D03*
D90*
X10067Y2100D03*
D105*
X19866Y2100D03*
D76*
X22600Y2100D03*
X24967Y2100D03*
D81*
X27517Y2100D03*
D96*
X2416Y2133D03*
D73*
X5100Y2133D03*
D72*
X7483Y2133D03*
D84*
X10067Y2133D03*
D104*
X19866Y2133D03*
D73*
X22600Y2133D03*
X24967Y2133D03*
D78*
X27517Y2133D03*
D106*
X2433Y2167D03*
D73*
X5100Y2167D03*
D72*
X7483Y2167D03*
D84*
X10067Y2167D03*
D104*
X19866Y2167D03*
D73*
X22600Y2167D03*
D72*
X24983Y2167D03*
D78*
X27517Y2167D03*
D107*
X2433Y2200D03*
D68*
X5083Y2200D03*
X7483Y2200D03*
D108*
X10050Y2200D03*
D109*
X19883Y2200D03*
D68*
X22583Y2200D03*
X24983Y2200D03*
D110*
X27500Y2200D03*
D106*
X2433Y2233D03*
D49*
X5100Y2233D03*
D72*
X7483Y2233D03*
D111*
X10050Y2233D03*
D112*
X19883Y2233D03*
D49*
X22600Y2233D03*
X24966Y2233D03*
D50*
X27500Y2233D03*
D113*
X2450Y2267D03*
D66*
X5083Y2267D03*
X7483Y2267D03*
D114*
X10033Y2267D03*
D115*
X19900Y2267D03*
D66*
X22583Y2267D03*
X24983Y2267D03*
D50*
X27500Y2267D03*
D101*
X2467Y2300D03*
D46*
X5100Y2300D03*
X7467Y2300D03*
D108*
X10017Y2300D03*
D116*
X19917Y2300D03*
D46*
X22600Y2300D03*
X24967Y2300D03*
D83*
X27483Y2300D03*
D102*
X2483Y2333D03*
D87*
X5100Y2333D03*
D64*
X7483Y2333D03*
D88*
X10000Y2333D03*
D117*
X19933Y2333D03*
D87*
X22600Y2333D03*
D64*
X24983Y2333D03*
D86*
X27450Y2333D03*
D104*
X2500Y2367D03*
D55*
X5100Y2367D03*
D56*
X7483Y2367D03*
D118*
X9983Y2367D03*
D119*
X19950Y2367D03*
D55*
X22600Y2367D03*
X24966Y2367D03*
D114*
X27433Y2367D03*
D120*
X2533Y2400D03*
D110*
X5100Y2400D03*
D83*
X7483Y2400D03*
D121*
X9967Y2400D03*
D122*
X19967Y2400D03*
D110*
X22600Y2400D03*
D83*
X24983Y2400D03*
D108*
X27417Y2400D03*
D123*
X2567Y2433D03*
D88*
X5100Y2433D03*
D118*
X7483Y2433D03*
D106*
X9933Y2433D03*
D124*
X20017Y2433D03*
D118*
X22583Y2433D03*
X24983Y2433D03*
X27383Y2433D03*
D125*
X6200Y2467D03*
X23600Y2467D03*
D126*
X6183Y2500D03*
D127*
X23600Y2500D03*
D128*
X6200Y2533D03*
D129*
X23617Y2533D03*
D128*
X6200Y2567D03*
X23600Y2567D03*
D130*
X6200Y2600D03*
X23600Y2600D03*
D128*
X6200Y2633D03*
X23600Y2633D03*
D131*
X6183Y2667D03*
D128*
X23600Y2667D03*
D132*
X6200Y2700D03*
D133*
X23616Y2700D03*
D134*
X6200Y2733D03*
X23600Y2733D03*
X6200Y2767D03*
X23600Y2767D03*
D132*
X6200Y2800D03*
X23600Y2800D03*
D135*
X6200Y2833D03*
D136*
X23617Y2833D03*
D135*
X6200Y2867D03*
X23600Y2867D03*
D137*
X6200Y2900D03*
X23600Y2900D03*
D138*
X6183Y2933D03*
D135*
X23600Y2933D03*
D139*
X6200Y2967D03*
X23600Y2967D03*
D140*
X6200Y3000D03*
X23600Y3000D03*
D141*
X6183Y3033D03*
D139*
X23600Y3033D03*
D142*
X6200Y3067D03*
D141*
X23616Y3067D03*
D143*
X6200Y3100D03*
X23600Y3100D03*
D144*
X6183Y3133D03*
D142*
X23600Y3133D03*
D145*
X6200Y3167D03*
D146*
X23617Y3167D03*
D147*
X6200Y3200D03*
X23600Y3200D03*
D148*
X6183Y3233D03*
D145*
X23600Y3233D03*
D149*
X6200Y3267D03*
X23600Y3267D03*
D150*
X6200Y3300D03*
X23600Y3300D03*
D151*
X6200Y3333D03*
D152*
X23616Y3333D03*
D151*
X6200Y3367D03*
X23600Y3367D03*
D153*
X6183Y3400D03*
D154*
X23600Y3400D03*
D155*
X6200Y3433D03*
X23600Y3433D03*
D156*
X6183Y3467D03*
D155*
X23600Y3467D03*
D157*
X6200Y3500D03*
D158*
X23617Y3500D03*
D159*
X6200Y3533D03*
X23600Y3533D03*
D160*
X6200Y3567D03*
D161*
X23616Y3567D03*
D162*
X6200Y3600D03*
X23600Y3600D03*
D163*
X6200Y3633D03*
D164*
X23617Y3633D03*
D163*
X6200Y3667D03*
X23600Y3667D03*
D165*
X6200Y3700D03*
D166*
X23617Y3700D03*
D167*
X6183Y3733D03*
D168*
X23600Y3733D03*
D169*
X6200Y3767D03*
D167*
X23616Y3767D03*
D170*
X6183Y3800D03*
D171*
X23600Y3800D03*
D172*
X6200Y3833D03*
X23600Y3833D03*
D173*
X6200Y3867D03*
D172*
X23600Y3867D03*
D174*
X6200Y3900D03*
X23600Y3900D03*
D175*
X6200Y3933D03*
D176*
X23616Y3933D03*
D177*
X6183Y3967D03*
D175*
X23600Y3967D03*
D178*
X6200Y4000D03*
X23600Y4000D03*
D179*
X6200Y4033D03*
D180*
X23600Y4033D03*
D181*
X6183Y4067D03*
D179*
X23600Y4067D03*
D182*
X6200Y4100D03*
X23600Y4100D03*
D183*
X6200Y4133D03*
D184*
X23600Y4133D03*
D38*
X6200Y4167D03*
D183*
X23600Y4167D03*
D185*
X6200Y4200D03*
X23600Y4200D03*
D186*
X6200Y4233D03*
D187*
X23616Y4233D03*
D41*
X6200Y4267D03*
D186*
X23600Y4267D03*
D188*
X6200Y4300D03*
D189*
X23600Y4300D03*
D190*
X6200Y4333D03*
X23600Y4333D03*
D37*
X6200Y4367D03*
D191*
X23616Y4367D03*
D30*
X6200Y4400D03*
D192*
X23600Y4400D03*
D193*
X6200Y4433D03*
D194*
X23600Y4433D03*
D195*
X6200Y4467D03*
D193*
X23600Y4467D03*
D196*
X6200Y4500D03*
D33*
X23600Y4500D03*
D197*
X6183Y4533D03*
D198*
X23600Y4533D03*
D199*
X6183Y4567D03*
D200*
X23600Y4567D03*
D201*
X6200Y4600D03*
X23600Y4600D03*
D22*
X6200Y4633D03*
D29*
X23617Y4633D03*
D202*
X6200Y4667D03*
D203*
X23617Y4667D03*
D204*
X6200Y4700D03*
D205*
X23616Y4700D03*
D206*
X27900Y4700D03*
D207*
X1933Y4733D03*
D208*
X6200Y4733D03*
D209*
X23617Y4733D03*
D210*
X27883Y4733D03*
D52*
X1950Y4767D03*
D211*
X6200Y4767D03*
D212*
X23617Y4767D03*
D213*
X27900Y4767D03*
D45*
X1950Y4800D03*
D214*
X6183Y4800D03*
D215*
X23600Y4800D03*
D216*
X27883Y4800D03*
D217*
X1967Y4833D03*
D218*
X6200Y4833D03*
D219*
X23600Y4833D03*
D220*
X27883Y4833D03*
D40*
X1967Y4867D03*
D221*
X6200Y4867D03*
D218*
X23600Y4867D03*
D40*
X27867Y4867D03*
D222*
X1983Y4900D03*
D223*
X6200Y4900D03*
D224*
X23600Y4900D03*
D225*
X27866Y4900D03*
D36*
X1983Y4933D03*
D226*
X6200Y4933D03*
D227*
X23600Y4933D03*
D228*
X27850Y4933D03*
D35*
X2000Y4967D03*
D229*
X6200Y4967D03*
D226*
X23600Y4967D03*
D230*
X27850Y4967D03*
D231*
X2000Y5000D03*
D232*
X6200Y5000D03*
D233*
X23617Y5000D03*
D234*
X27833Y5000D03*
D235*
X2017Y5033D03*
D236*
X6200Y5033D03*
D237*
X23600Y5033D03*
D238*
X27833Y5033D03*
D239*
X2017Y5067D03*
D240*
X6200Y5067D03*
D236*
X23600Y5067D03*
D239*
X27817Y5067D03*
D241*
X2033Y5100D03*
D242*
X6183Y5100D03*
D243*
X23617Y5100D03*
D244*
X27816Y5100D03*
D245*
X2033Y5133D03*
D246*
X6200Y5133D03*
D247*
X23600Y5133D03*
D248*
X27800Y5133D03*
D24*
X2050Y5167D03*
D249*
X6200Y5167D03*
D246*
X23600Y5167D03*
D23*
X27800Y5167D03*
D250*
X2050Y5200D03*
D251*
X6200Y5200D03*
D252*
X23600Y5200D03*
D253*
X27783Y5200D03*
D254*
X2067Y5233D03*
D255*
X6183Y5233D03*
D256*
X23600Y5233D03*
D257*
X27783Y5233D03*
D258*
X2083Y5267D03*
D259*
X6200Y5267D03*
D260*
X23600Y5267D03*
D261*
X27750Y5267D03*
D262*
X2100Y5300D03*
D263*
X6200Y5300D03*
D264*
X23600Y5300D03*
D265*
X27750Y5300D03*
D266*
X2117Y5333D03*
D267*
X6183Y5333D03*
D268*
X23600Y5333D03*
D269*
X27733Y5333D03*
D270*
X2116Y5367D03*
D271*
X6200Y5367D03*
D272*
X23600Y5367D03*
D270*
X27716Y5367D03*
D273*
X2150Y5400D03*
D274*
X6200Y5400D03*
D275*
X23617Y5400D03*
D276*
X27700Y5400D03*
D277*
X2150Y5433D03*
D278*
X6200Y5433D03*
D279*
X23616Y5433D03*
D280*
X27683Y5433D03*
D281*
X2167Y5467D03*
D282*
X6200Y5467D03*
D283*
X23617Y5467D03*
D284*
X27683Y5467D03*
D285*
X2183Y5500D03*
D286*
X6200Y5500D03*
D287*
X23617Y5500D03*
D288*
X27667Y5500D03*
D289*
X2200Y5533D03*
D290*
X6200Y5533D03*
D291*
X23600Y5533D03*
D292*
X27650Y5533D03*
D13*
X2233Y5567D03*
D293*
X6200Y5567D03*
D294*
X23600Y5567D03*
D13*
X27633Y5567D03*
D295*
X2233Y5600D03*
D296*
X6200Y5600D03*
D297*
X23600Y5600D03*
D63*
X27600Y5600D03*
D298*
X2266Y5633D03*
D299*
X6200Y5633D03*
D300*
X23600Y5633D03*
D298*
X27600Y5633D03*
D57*
X2267Y5667D03*
D301*
X6200Y5667D03*
D302*
X23617Y5667D03*
D57*
X27567Y5667D03*
D76*
X2300Y5700D03*
D303*
X6200Y5700D03*
D304*
X23617Y5700D03*
D305*
X27550Y5700D03*
D49*
X2333Y5733D03*
D306*
X6183Y5733D03*
D307*
X23600Y5733D03*
D49*
X27533Y5733D03*
D64*
X2350Y5767D03*
D308*
X6200Y5767D03*
D309*
X23600Y5767D03*
D58*
X27500Y5767D03*
D99*
X2383Y5800D03*
D310*
X6183Y5800D03*
D311*
X23616Y5800D03*
D99*
X27483Y5800D03*
D78*
X2417Y5833D03*
D312*
X6200Y5833D03*
D313*
X23617Y5833D03*
D78*
X27450Y5833D03*
D114*
X2433Y5867D03*
D84*
X6200Y5867D03*
D314*
X23600Y5867D03*
D86*
X27416Y5867D03*
D42*
X2466Y5900D03*
X27400Y5900D03*
D96*
X2483Y5933D03*
D315*
X27367Y5933D03*
D113*
X2517Y5967D03*
D106*
X27333Y5967D03*
D316*
X2567Y6000D03*
X27300Y6000D03*
D317*
X2600Y6033D03*
D318*
X8567Y6033D03*
D123*
X27267Y6033D03*
D319*
X2633Y6067D03*
D320*
X8517Y6067D03*
D124*
X27217Y6067D03*
D321*
X2683Y6100D03*
D322*
X8467Y6100D03*
D323*
X21317Y6100D03*
D321*
X27183Y6100D03*
D324*
X2733Y6133D03*
D228*
X8417Y6133D03*
D217*
X21367Y6133D03*
D325*
X27133Y6133D03*
D326*
X2800Y6167D03*
D235*
X8350Y6167D03*
D327*
X21433Y6167D03*
D328*
X27066Y6167D03*
D329*
X2866Y6200D03*
D244*
X8283Y6200D03*
D231*
X21500Y6200D03*
D330*
X27033Y6200D03*
D331*
X2950Y6233D03*
D254*
X8200Y6233D03*
D27*
X21567Y6233D03*
D332*
X26950Y6233D03*
D333*
X3050Y6267D03*
D270*
X8083Y6267D03*
D334*
X21650Y6267D03*
D335*
X26867Y6267D03*
D303*
X3267Y6300D03*
D63*
X7867Y6300D03*
D336*
X21767Y6300D03*
D337*
X26767Y6300D03*
D208*
X4933Y6333D03*
X24933Y6333D03*
D209*
X4917Y6367D03*
D208*
X24933Y6367D03*
D338*
X4917Y6400D03*
D339*
X24933Y6400D03*
D209*
X4917Y6433D03*
X24950Y6433D03*
D340*
X4900Y6467D03*
D209*
X24950Y6467D03*
D204*
X4900Y6500D03*
D338*
X24950Y6500D03*
D340*
X4900Y6533D03*
X24967Y6533D03*
X4900Y6567D03*
X24967Y6567D03*
D205*
X4883Y6600D03*
D204*
X24967Y6600D03*
D341*
X4883Y6633D03*
D340*
X24967Y6633D03*
D341*
X4883Y6667D03*
X24983Y6667D03*
D205*
X4883Y6700D03*
X24983Y6700D03*
D202*
X4867Y6733D03*
D341*
X24983Y6733D03*
D202*
X4867Y6767D03*
D341*
X24983Y6767D03*
D342*
X4867Y6800D03*
X25000Y6800D03*
D202*
X4867Y6833D03*
X25000Y6833D03*
D203*
X4850Y6867D03*
D202*
X25000Y6867D03*
D343*
X4850Y6900D03*
D342*
X25000Y6900D03*
D203*
X4850Y6933D03*
X25017Y6933D03*
X4850Y6967D03*
X25017Y6967D03*
D343*
X4850Y7000D03*
X25017Y7000D03*
D22*
X4833Y7033D03*
D203*
X25017Y7033D03*
D22*
X4833Y7067D03*
D203*
X25017Y7067D03*
D344*
X4833Y7100D03*
X25033Y7100D03*
D22*
X4833Y7133D03*
X25033Y7133D03*
X4833Y7167D03*
X25033Y7167D03*
D345*
X4817Y7200D03*
D344*
X25033Y7200D03*
D29*
X4817Y7233D03*
D22*
X25033Y7233D03*
D29*
X4817Y7267D03*
X25050Y7267D03*
D342*
X4767Y7300D03*
D345*
X25050Y7300D03*
D209*
X4717Y7333D03*
D29*
X25050Y7333D03*
D212*
X4650Y7367D03*
D29*
X25050Y7367D03*
D346*
X4616Y7400D03*
D345*
X25050Y7400D03*
D347*
X4583Y7433D03*
D29*
X25050Y7433D03*
D348*
X4550Y7467D03*
D349*
X25067Y7467D03*
D350*
X4516Y7500D03*
D201*
X25067Y7500D03*
D351*
X4483Y7533D03*
D349*
X25067Y7533D03*
D352*
X4450Y7567D03*
D349*
X25067Y7567D03*
D353*
X4417Y7600D03*
D201*
X25067Y7600D03*
D354*
X4383Y7633D03*
D349*
X25067Y7633D03*
D229*
X4367Y7667D03*
D355*
X9083Y7667D03*
D349*
X25067Y7667D03*
D233*
X4350Y7700D03*
D21*
X9083Y7700D03*
D356*
X25083Y7700D03*
D357*
X4333Y7733D03*
D17*
X9083Y7733D03*
D199*
X25083Y7733D03*
D358*
X4317Y7767D03*
D359*
X9083Y7767D03*
D199*
X25083Y7767D03*
D360*
X4283Y7800D03*
D48*
X9083Y7800D03*
D356*
X25083Y7800D03*
D236*
X4267Y7833D03*
D12*
X9083Y7833D03*
D199*
X25083Y7833D03*
D361*
X4233Y7867D03*
D72*
X9083Y7867D03*
D199*
X25083Y7867D03*
D362*
X4217Y7900D03*
D60*
X9083Y7900D03*
D356*
X25083Y7900D03*
D363*
X4217Y7933D03*
D56*
X9083Y7933D03*
D199*
X25083Y7933D03*
D240*
X4200Y7967D03*
D86*
X9083Y7967D03*
D199*
X25083Y7967D03*
D364*
X4183Y8000D03*
D85*
X9083Y8000D03*
D356*
X25083Y8000D03*
D365*
X4167Y8033D03*
D315*
X9100Y8033D03*
D200*
X25100Y8033D03*
D366*
X4150Y8067D03*
D102*
X9083Y8067D03*
D200*
X25100Y8067D03*
D367*
X4133Y8100D03*
D109*
X9083Y8100D03*
D368*
X25100Y8100D03*
D369*
X4133Y8133D03*
D119*
X9083Y8133D03*
D200*
X25100Y8133D03*
D370*
X4117Y8167D03*
D371*
X9083Y8167D03*
D200*
X25100Y8167D03*
D372*
X4100Y8200D03*
D373*
X9083Y8200D03*
D368*
X25100Y8200D03*
D374*
X4083Y8233D03*
D375*
X9083Y8233D03*
D200*
X25100Y8233D03*
D246*
X4066Y8267D03*
D376*
X9083Y8267D03*
D200*
X25100Y8267D03*
D372*
X4066Y8300D03*
D377*
X9100Y8300D03*
D368*
X25100Y8300D03*
D378*
X4050Y8333D03*
D379*
X9083Y8333D03*
D200*
X25100Y8333D03*
D378*
X4050Y8367D03*
D380*
X9083Y8367D03*
D200*
X25100Y8367D03*
D381*
X4033Y8400D03*
D382*
X9083Y8400D03*
D368*
X25100Y8400D03*
D383*
X4033Y8433D03*
D328*
X9100Y8433D03*
D200*
X25100Y8433D03*
D384*
X4016Y8467D03*
D385*
X9083Y8467D03*
D200*
X25100Y8467D03*
D386*
X4016Y8500D03*
D387*
X9083Y8500D03*
D368*
X25100Y8500D03*
D388*
X4000Y8533D03*
D389*
X9083Y8533D03*
D200*
X25100Y8533D03*
D388*
X4000Y8567D03*
D390*
X9083Y8567D03*
D200*
X25100Y8567D03*
D391*
X3983Y8600D03*
D392*
X9083Y8600D03*
D393*
X25117Y8600D03*
D394*
X3983Y8633D03*
D395*
X9083Y8633D03*
D396*
X25117Y8633D03*
D394*
X3983Y8667D03*
D395*
X9083Y8667D03*
D396*
X25117Y8667D03*
D251*
X3966Y8700D03*
D397*
X9083Y8700D03*
D393*
X25117Y8700D03*
D256*
X3966Y8733D03*
D332*
X9083Y8733D03*
D396*
X25117Y8733D03*
D256*
X3966Y8767D03*
D398*
X9083Y8767D03*
D396*
X25117Y8767D03*
D251*
X3966Y8800D03*
D399*
X9083Y8800D03*
D393*
X25117Y8800D03*
D400*
X3950Y8833D03*
D398*
X9083Y8833D03*
D396*
X25117Y8833D03*
D400*
X3950Y8867D03*
D401*
X9083Y8867D03*
D35*
X12100Y8867D03*
D396*
X25117Y8867D03*
D402*
X3950Y8900D03*
D403*
X9083Y8900D03*
D404*
X12100Y8900D03*
D393*
X25117Y8900D03*
D400*
X3950Y8933D03*
D401*
X9083Y8933D03*
D270*
X12083Y8933D03*
D396*
X25117Y8933D03*
D405*
X3933Y8967D03*
D335*
X9100Y8967D03*
D284*
X12083Y8967D03*
D396*
X25117Y8967D03*
D406*
X3933Y9000D03*
D311*
X9083Y9000D03*
D407*
X12100Y9000D03*
D393*
X25117Y9000D03*
D405*
X3933Y9033D03*
D408*
X9083Y9033D03*
D298*
X12100Y9033D03*
D396*
X25117Y9033D03*
D405*
X3933Y9067D03*
D408*
X9083Y9067D03*
D73*
X12100Y9067D03*
D200*
X25100Y9067D03*
D406*
X3933Y9100D03*
D409*
X9100Y9100D03*
D46*
X12100Y9100D03*
D368*
X25100Y9100D03*
D405*
X3933Y9133D03*
D308*
X9100Y9133D03*
D56*
X12083Y9133D03*
D200*
X25100Y9133D03*
D405*
X3933Y9167D03*
D410*
X9083Y9167D03*
D50*
X12100Y9167D03*
D200*
X25100Y9167D03*
D406*
X3933Y9200D03*
D411*
X9083Y9200D03*
D85*
X12083Y9200D03*
D368*
X25100Y9200D03*
D405*
X3933Y9233D03*
D410*
X9083Y9233D03*
D315*
X12100Y9233D03*
D200*
X25100Y9233D03*
D255*
X3916Y9267D03*
D412*
X9100Y9267D03*
D102*
X12083Y9267D03*
D200*
X25100Y9267D03*
D413*
X3916Y9300D03*
D414*
X9100Y9300D03*
D109*
X12083Y9300D03*
D368*
X25100Y9300D03*
D255*
X3916Y9333D03*
D415*
X10317Y9333D03*
D200*
X25100Y9333D03*
D255*
X3916Y9367D03*
D416*
X10333Y9367D03*
D200*
X25100Y9367D03*
D417*
X3933Y9400D03*
D413*
X10350Y9400D03*
D368*
X25100Y9400D03*
D416*
X3933Y9433D03*
D418*
X10367Y9433D03*
D200*
X25100Y9433D03*
D416*
X3933Y9467D03*
D419*
X10383Y9467D03*
D200*
X25100Y9467D03*
D417*
X3933Y9500D03*
D251*
X10400Y9500D03*
D368*
X25100Y9500D03*
D255*
X3950Y9533D03*
D256*
X10400Y9533D03*
D200*
X25100Y9533D03*
D255*
X3950Y9567D03*
D420*
X10417Y9567D03*
D200*
X25100Y9567D03*
D413*
X3950Y9600D03*
D421*
X10433Y9600D03*
D368*
X25100Y9600D03*
D255*
X3950Y9633D03*
D384*
X10450Y9633D03*
D200*
X25100Y9633D03*
D255*
X3950Y9667D03*
D388*
X10467Y9667D03*
D199*
X25083Y9667D03*
D413*
X3950Y9700D03*
D386*
X10483Y9700D03*
D356*
X25083Y9700D03*
D255*
X3950Y9733D03*
D249*
X10500Y9733D03*
D199*
X25083Y9733D03*
D255*
X3950Y9767D03*
D249*
X10500Y9767D03*
D199*
X25083Y9767D03*
D422*
X3967Y9800D03*
D423*
X10517Y9800D03*
D356*
X25083Y9800D03*
D418*
X3967Y9833D03*
D383*
X10533Y9833D03*
D199*
X25083Y9833D03*
D418*
X3967Y9867D03*
D378*
X10550Y9867D03*
D199*
X25083Y9867D03*
D422*
X3967Y9900D03*
D423*
X10550Y9900D03*
D356*
X25083Y9900D03*
D418*
X4000Y9933D03*
D249*
X10567Y9933D03*
D199*
X25083Y9933D03*
D418*
X4000Y9967D03*
D424*
X10583Y9967D03*
D199*
X25083Y9967D03*
D422*
X4000Y10000D03*
D425*
X10583Y10000D03*
D356*
X25083Y10000D03*
D418*
X4000Y10033D03*
D378*
X10617Y10033D03*
D199*
X25083Y10033D03*
D418*
X4000Y10067D03*
D378*
X10617Y10067D03*
D199*
X25083Y10067D03*
D426*
X3967Y10100D03*
D381*
X10633Y10100D03*
D356*
X25083Y10100D03*
D415*
X3950Y10133D03*
D378*
X10650Y10133D03*
D199*
X25083Y10133D03*
D427*
X3917Y10167D03*
D378*
X10650Y10167D03*
D199*
X25083Y10167D03*
D428*
X3900Y10200D03*
D429*
X10667Y10200D03*
D201*
X25067Y10200D03*
D430*
X3883Y10233D03*
D249*
X10667Y10233D03*
D349*
X25067Y10233D03*
D431*
X3850Y10267D03*
D246*
X10666Y10267D03*
D349*
X25067Y10267D03*
D432*
X3833Y10300D03*
D367*
X10633Y10300D03*
D201*
X25067Y10300D03*
D433*
X3817Y10333D03*
D366*
X10616Y10333D03*
D349*
X25067Y10333D03*
D434*
X3783Y10367D03*
D435*
X10583Y10367D03*
D349*
X25067Y10367D03*
D436*
X3767Y10400D03*
D362*
X10550Y10400D03*
D201*
X25067Y10400D03*
D437*
X3750Y10433D03*
D361*
X10533Y10433D03*
D349*
X25067Y10433D03*
D438*
X3750Y10467D03*
D237*
X10500Y10467D03*
D349*
X25067Y10467D03*
D439*
X3733Y10500D03*
D440*
X10483Y10500D03*
D201*
X25067Y10500D03*
D279*
X3716Y10533D03*
D357*
X10466Y10533D03*
D349*
X25067Y10533D03*
D441*
X3700Y10567D03*
D354*
X10450Y10567D03*
D349*
X25067Y10567D03*
D442*
X3683Y10600D03*
D443*
X10433Y10600D03*
D201*
X25067Y10600D03*
D278*
X3666Y10633D03*
D226*
X10400Y10633D03*
D349*
X25067Y10633D03*
D283*
X3650Y10667D03*
D227*
X10366Y10667D03*
D349*
X25067Y10667D03*
D444*
X3633Y10700D03*
D445*
X10350Y10700D03*
D201*
X25067Y10700D03*
D446*
X3616Y10733D03*
D447*
X10333Y10733D03*
D349*
X25067Y10733D03*
D282*
X3600Y10767D03*
D448*
X10316Y10767D03*
D29*
X25050Y10767D03*
D449*
X3583Y10800D03*
D450*
X10300Y10800D03*
D345*
X25050Y10800D03*
D451*
X3566Y10833D03*
D452*
X10283Y10833D03*
D29*
X25050Y10833D03*
D453*
X3550Y10867D03*
D219*
X10266Y10867D03*
D29*
X25050Y10867D03*
D454*
X3533Y10900D03*
D455*
X10233Y10900D03*
D345*
X25050Y10900D03*
D456*
X3516Y10933D03*
D457*
X10200Y10933D03*
D29*
X25050Y10933D03*
D291*
X3500Y10967D03*
D25*
X10183Y10967D03*
D29*
X25050Y10967D03*
D458*
X3500Y11000D03*
D459*
X10167Y11000D03*
D345*
X25050Y11000D03*
D460*
X3483Y11033D03*
D212*
X10150Y11033D03*
D29*
X25050Y11033D03*
D294*
X3467Y11067D03*
D212*
X10117Y11067D03*
D29*
X25050Y11067D03*
D461*
X3450Y11100D03*
D339*
X10100Y11100D03*
D345*
X25050Y11100D03*
D462*
X3433Y11133D03*
D463*
X10083Y11133D03*
D29*
X25050Y11133D03*
D464*
X3417Y11167D03*
D340*
X10067Y11167D03*
D29*
X25050Y11167D03*
D297*
X3400Y11200D03*
D465*
X10033Y11200D03*
D466*
X25033Y11200D03*
D467*
X3383Y11233D03*
D341*
X10016Y11233D03*
D468*
X25033Y11233D03*
D469*
X3367Y11267D03*
D341*
X9983Y11267D03*
D468*
X25033Y11267D03*
D470*
X3350Y11300D03*
D342*
X9967Y11300D03*
D345*
X25017Y11300D03*
D471*
X3333Y11333D03*
D472*
X9933Y11333D03*
D29*
X25017Y11333D03*
D473*
X3317Y11367D03*
D203*
X9917Y11367D03*
D29*
X25017Y11367D03*
D474*
X3300Y11400D03*
D475*
X9883Y11400D03*
D345*
X25017Y11400D03*
D476*
X3283Y11433D03*
D22*
X9866Y11433D03*
D29*
X25017Y11433D03*
D477*
X3267Y11467D03*
D22*
X9833Y11467D03*
D29*
X25017Y11467D03*
D478*
X3250Y11500D03*
D345*
X9817Y11500D03*
X25017Y11500D03*
D302*
X3250Y11533D03*
D479*
X9783Y11533D03*
D29*
X25017Y11533D03*
D480*
X3233Y11567D03*
D29*
X9750Y11567D03*
X25017Y11567D03*
D481*
X3217Y11600D03*
D466*
X9733Y11600D03*
D201*
X25000Y11600D03*
D482*
X3200Y11633D03*
D349*
X9700Y11633D03*
X25000Y11633D03*
D483*
X3183Y11667D03*
D349*
X9667Y11667D03*
X25000Y11667D03*
D484*
X3167Y11700D03*
D356*
X9650Y11700D03*
D201*
X25000Y11700D03*
D485*
X3150Y11733D03*
D199*
X9616Y11733D03*
D349*
X25000Y11733D03*
D486*
X3133Y11767D03*
D199*
X9583Y11767D03*
D349*
X25000Y11767D03*
D487*
X3117Y11800D03*
D368*
X9567Y11800D03*
D201*
X25000Y11800D03*
D488*
X3100Y11833D03*
D396*
X9550Y11833D03*
D349*
X24967Y11833D03*
D489*
X3083Y11867D03*
D193*
X9600Y11867D03*
D349*
X24967Y11867D03*
D303*
X3067Y11900D03*
D490*
X9650Y11900D03*
D201*
X24967Y11900D03*
D491*
X3050Y11933D03*
D186*
X9700Y11933D03*
D349*
X24967Y11933D03*
D307*
X3033Y11967D03*
D183*
X9733Y11967D03*
D349*
X24967Y11967D03*
D492*
X3017Y12000D03*
D493*
X9767Y12000D03*
D356*
X24950Y12000D03*
D494*
X3000Y12033D03*
D177*
X9783Y12033D03*
D199*
X24950Y12033D03*
D495*
X2983Y12067D03*
D173*
X9800Y12067D03*
D199*
X24950Y12067D03*
D496*
X2983Y12100D03*
D497*
X9817Y12100D03*
D356*
X24950Y12100D03*
D309*
X2966Y12133D03*
D498*
X9833Y12133D03*
D499*
X24933Y12133D03*
D500*
X2950Y12167D03*
D163*
X9833Y12167D03*
D499*
X24933Y12167D03*
D501*
X2933Y12200D03*
D502*
X9833Y12200D03*
D503*
X24933Y12200D03*
D504*
X2916Y12233D03*
D505*
X9850Y12233D03*
D499*
X24933Y12233D03*
D506*
X2900Y12267D03*
D507*
X9850Y12267D03*
D396*
X24917Y12267D03*
D508*
X2883Y12300D03*
D509*
X9850Y12300D03*
D393*
X24917Y12300D03*
D412*
X2866Y12333D03*
D510*
X9850Y12333D03*
D396*
X24917Y12333D03*
D511*
X2850Y12367D03*
D146*
X9850Y12367D03*
D200*
X24900Y12367D03*
D512*
X2833Y12400D03*
D513*
X9850Y12400D03*
D514*
X24883Y12400D03*
D408*
X2816Y12433D03*
D515*
X9850Y12433D03*
D197*
X24883Y12433D03*
D335*
X2800Y12467D03*
D136*
X9850Y12467D03*
D197*
X24883Y12467D03*
D403*
X2783Y12500D03*
D133*
X9850Y12500D03*
D196*
X24866Y12500D03*
D516*
X2766Y12533D03*
D129*
X9850Y12533D03*
D198*
X24866Y12533D03*
D331*
X2750Y12567D03*
D517*
X9850Y12567D03*
D198*
X24866Y12567D03*
D518*
X2733Y12600D03*
D519*
X9833Y12600D03*
D520*
X24850Y12600D03*
D521*
X2733Y12633D03*
D522*
X9833Y12633D03*
D26*
X24850Y12633D03*
D523*
X2717Y12667D03*
D524*
X9833Y12667D03*
D26*
X24850Y12667D03*
D329*
X2700Y12700D03*
D525*
X9817Y12700D03*
D526*
X24833Y12700D03*
D390*
X2683Y12733D03*
D527*
X9816Y12733D03*
D528*
X24833Y12733D03*
D529*
X2667Y12767D03*
D530*
X9800Y12767D03*
D531*
X24816Y12767D03*
D387*
X2650Y12800D03*
D532*
X9800Y12800D03*
D533*
X24816Y12800D03*
D534*
X2633Y12833D03*
D535*
X9783Y12833D03*
D531*
X24816Y12833D03*
D536*
X2617Y12867D03*
D537*
X9783Y12867D03*
D193*
X24800Y12867D03*
D538*
X2600Y12900D03*
D539*
X9767Y12900D03*
D533*
X24783Y12900D03*
D540*
X2583Y12933D03*
D541*
X9766Y12933D03*
D193*
X24767Y12933D03*
D542*
X2567Y12967D03*
D543*
X9750Y12967D03*
D193*
X24767Y12967D03*
D544*
X2550Y13000D03*
D545*
X9750Y13000D03*
D546*
X24767Y13000D03*
D325*
X2533Y13033D03*
D547*
X9733Y13033D03*
D548*
X24750Y13033D03*
D549*
X2517Y13067D03*
D550*
X9717Y13067D03*
D548*
X24750Y13067D03*
D377*
X2500Y13100D03*
D551*
X9717Y13100D03*
D30*
X24733Y13100D03*
D376*
X2483Y13133D03*
D552*
X9700Y13133D03*
D194*
X24733Y13133D03*
D375*
X2483Y13167D03*
D553*
X9683Y13167D03*
D554*
X24717Y13167D03*
D555*
X2467Y13200D03*
D556*
X9667Y13200D03*
D557*
X24717Y13200D03*
D124*
X2450Y13233D03*
D558*
X9666Y13233D03*
D37*
X24700Y13233D03*
D317*
X2433Y13267D03*
D559*
X9650Y13267D03*
D37*
X24700Y13267D03*
D560*
X2417Y13300D03*
D561*
X9633Y13300D03*
D490*
X24683Y13300D03*
D123*
X2400Y13333D03*
D562*
X9616Y13333D03*
D191*
X24683Y13333D03*
D119*
X2383Y13367D03*
D563*
X9600Y13367D03*
D190*
X24667Y13367D03*
D316*
X2367Y13400D03*
D564*
X9600Y13400D03*
D565*
X24650Y13400D03*
D566*
X2350Y13433D03*
D567*
X9583Y13433D03*
D568*
X24633Y13433D03*
D104*
X2333Y13467D03*
D569*
X9567Y13467D03*
D34*
X24617Y13467D03*
D570*
X2317Y13500D03*
D571*
X9550Y13500D03*
D565*
X24617Y13500D03*
D100*
X2300Y13533D03*
D572*
X9533Y13533D03*
D41*
X24600Y13533D03*
D96*
X2283Y13567D03*
D573*
X9517Y13567D03*
D574*
X24583Y13567D03*
D121*
X2267Y13600D03*
D575*
X9500Y13600D03*
D576*
X24583Y13600D03*
D93*
X2250Y13633D03*
D577*
X9483Y13633D03*
D186*
X24567Y13633D03*
D88*
X2233Y13667D03*
D578*
X9467Y13667D03*
D186*
X24567Y13667D03*
D579*
X2233Y13700D03*
D580*
X9450Y13700D03*
D581*
X24550Y13700D03*
D86*
X2216Y13733D03*
D582*
X9433Y13733D03*
D583*
X24533Y13733D03*
D50*
X2200Y13767D03*
D584*
X9417Y13767D03*
D583*
X24533Y13767D03*
D585*
X2183Y13800D03*
D586*
X9400Y13800D03*
D587*
X24517Y13800D03*
D55*
X2166Y13833D03*
D588*
X9366Y13833D03*
D183*
X24500Y13833D03*
D74*
X2150Y13867D03*
D589*
X9350Y13867D03*
D590*
X24483Y13867D03*
D70*
X2133Y13900D03*
D591*
X9333Y13900D03*
D592*
X24483Y13900D03*
D64*
X2116Y13933D03*
D593*
X9316Y13933D03*
D184*
X24467Y13933D03*
D58*
X2100Y13967D03*
D594*
X9300Y13967D03*
D595*
X24433Y13967D03*
D596*
X2083Y14000D03*
D597*
X9267Y14000D03*
D598*
X24416Y14000D03*
D49*
X2066Y14033D03*
D599*
X9250Y14033D03*
D181*
X24416Y14033D03*
D600*
X2050Y14067D03*
D601*
X9233Y14067D03*
D179*
X24400Y14067D03*
D69*
X2033Y14100D03*
D602*
X9217Y14100D03*
D603*
X24383Y14100D03*
D79*
X2016Y14133D03*
D604*
X9183Y14133D03*
D180*
X24366Y14133D03*
D57*
X2000Y14167D03*
D605*
X9167Y14167D03*
D606*
X24350Y14167D03*
D607*
X1983Y14200D03*
D608*
X9150Y14200D03*
D609*
X24333Y14200D03*
D610*
X1983Y14233D03*
D611*
X9116Y14233D03*
D612*
X24333Y14233D03*
D65*
X1967Y14267D03*
D613*
X9100Y14267D03*
D176*
X24316Y14267D03*
D48*
X1950Y14300D03*
D614*
X9067Y14300D03*
D174*
X24300Y14300D03*
D13*
X1933Y14333D03*
D615*
X9050Y14333D03*
D616*
X24283Y14333D03*
D13*
X1933Y14367D03*
D615*
X9017Y14367D03*
D172*
X24266Y14367D03*
D617*
X1917Y14400D03*
D618*
X9000Y14400D03*
D497*
X24250Y14400D03*
D289*
X1900Y14433D03*
D619*
X8983Y14433D03*
D620*
X24233Y14433D03*
D359*
X1883Y14467D03*
D621*
X8966Y14467D03*
D167*
X24216Y14467D03*
D285*
X1883Y14500D03*
D618*
X8933Y14500D03*
D622*
X24183Y14500D03*
D623*
X1867Y14533D03*
D624*
X8917Y14533D03*
D168*
X24167Y14533D03*
D284*
X1850Y14567D03*
D625*
X8883Y14567D03*
D626*
X24150Y14567D03*
D627*
X1833Y14600D03*
D628*
X8850Y14600D03*
D629*
X24133Y14600D03*
D630*
X1833Y14633D03*
D631*
X8833Y14633D03*
D164*
X24117Y14633D03*
D277*
X1817Y14667D03*
D632*
X8800Y14667D03*
D160*
X24100Y14667D03*
D276*
X1800Y14700D03*
D633*
X8783Y14700D03*
D157*
X24067Y14700D03*
D634*
X1800Y14733D03*
D624*
X8750Y14733D03*
D505*
X24050Y14733D03*
D635*
X1800Y14767D03*
D624*
X8717Y14767D03*
D155*
X24033Y14767D03*
D636*
X1783Y14800D03*
D633*
X8683Y14800D03*
D637*
X24017Y14800D03*
D270*
X1783Y14833D03*
D621*
X8666Y14833D03*
D152*
X23983Y14833D03*
D638*
X1767Y14867D03*
D621*
X8633Y14867D03*
D149*
X23967Y14867D03*
D336*
X1767Y14900D03*
D618*
X8600Y14900D03*
D639*
X23950Y14900D03*
D266*
X1750Y14933D03*
D619*
X8583Y14933D03*
D145*
X23933Y14933D03*
D266*
X1750Y14967D03*
D615*
X8550Y14967D03*
D142*
X23900Y14967D03*
D262*
X1733Y15000D03*
D640*
X8517Y15000D03*
D513*
X23883Y15000D03*
D261*
X1717Y15033D03*
D611*
X8483Y15033D03*
D641*
X23833Y15033D03*
D261*
X1717Y15067D03*
D611*
X8450Y15067D03*
D515*
X23817Y15067D03*
D642*
X1700Y15100D03*
D643*
X8400Y15100D03*
D644*
X23783Y15100D03*
D645*
X1700Y15133D03*
D601*
X8366Y15133D03*
D134*
X23767Y15133D03*
D257*
X1683Y15167D03*
D646*
X7517Y15167D03*
D298*
X13300Y15167D03*
D647*
X23733Y15167D03*
D21*
X1683Y15200D03*
D648*
X7517Y15200D03*
D617*
X13317Y15200D03*
D649*
X23717Y15200D03*
D254*
X1667Y15233D03*
D650*
X7483Y15233D03*
D281*
X13300Y15233D03*
D651*
X23683Y15233D03*
D254*
X1667Y15267D03*
D652*
X7467Y15267D03*
D638*
X13300Y15267D03*
D653*
X23650Y15267D03*
D253*
X1683Y15300D03*
D648*
X7450Y15300D03*
D250*
X13317Y15300D03*
D648*
X23617Y15300D03*
D23*
X1666Y15333D03*
D522*
X7433Y15333D03*
D327*
X13300Y15333D03*
D654*
X23583Y15333D03*
D23*
X1666Y15367D03*
D646*
X7417Y15367D03*
D527*
X23550Y15367D03*
D655*
X1650Y15400D03*
D656*
X7400Y15400D03*
D657*
X23533Y15400D03*
D24*
X1650Y15433D03*
D652*
X7367Y15433D03*
D535*
X23483Y15433D03*
D24*
X1650Y15467D03*
D652*
X7367Y15467D03*
D537*
X23450Y15467D03*
D658*
X1633Y15500D03*
D659*
X7333Y15500D03*
D660*
X23417Y15500D03*
D245*
X1633Y15533D03*
D653*
X7316Y15533D03*
D661*
X23367Y15533D03*
D662*
X1616Y15567D03*
D652*
X7300Y15567D03*
D547*
X23333Y15567D03*
D244*
X1616Y15600D03*
D663*
X7283Y15600D03*
D664*
X23266Y15600D03*
D662*
X1616Y15633D03*
D665*
X7267Y15633D03*
D553*
X23216Y15633D03*
D27*
X1600Y15667D03*
D666*
X7233Y15667D03*
D558*
X23166Y15667D03*
D667*
X1600Y15700D03*
D519*
X7233Y15700D03*
D668*
X23116Y15700D03*
D27*
X1600Y15733D03*
D517*
X7217Y15733D03*
D669*
X23066Y15733D03*
D670*
X1583Y15767D03*
D651*
X7183Y15767D03*
D671*
X22983Y15767D03*
D672*
X1583Y15800D03*
D127*
X7166Y15800D03*
D580*
X22916Y15800D03*
D238*
X1600Y15833D03*
D129*
X7150Y15833D03*
D220*
X12650Y15833D03*
D593*
X22816Y15833D03*
D238*
X1600Y15867D03*
D125*
X7133Y15867D03*
D235*
X12750Y15867D03*
D619*
X22683Y15867D03*
D31*
X1583Y15900D03*
D649*
X7117Y15900D03*
D673*
X20516Y15900D03*
D355*
X1583Y15933D03*
D128*
X7100Y15933D03*
D674*
X20500Y15933D03*
D355*
X1583Y15967D03*
D128*
X7067Y15967D03*
D675*
X20483Y15967D03*
D31*
X1583Y16000D03*
D133*
X7050Y16000D03*
D676*
X20466Y16000D03*
D677*
X1567Y16033D03*
D678*
X7033Y16033D03*
D679*
X20466Y16033D03*
D677*
X1567Y16067D03*
D136*
X7017Y16067D03*
D680*
X20450Y16067D03*
D231*
X1567Y16100D03*
D644*
X6983Y16100D03*
D681*
X20433Y16100D03*
D677*
X1567Y16133D03*
D135*
X6966Y16133D03*
D682*
X20400Y16133D03*
D677*
X1567Y16167D03*
D515*
X6950Y16167D03*
D683*
X20383Y16167D03*
D684*
X1550Y16200D03*
D685*
X6933Y16200D03*
D686*
X20367Y16200D03*
D230*
X1550Y16233D03*
D139*
X6900Y16233D03*
D687*
X20367Y16233D03*
D230*
X1550Y16267D03*
D141*
X6883Y16267D03*
D688*
X20350Y16267D03*
D684*
X1550Y16300D03*
D143*
X6867Y16300D03*
D689*
X20333Y16300D03*
D230*
X1550Y16333D03*
D146*
X6850Y16333D03*
D690*
X20317Y16333D03*
D35*
X1567Y16367D03*
D145*
X6833Y16367D03*
D691*
X20300Y16367D03*
D692*
X1550Y16400D03*
D639*
X6817Y16400D03*
D693*
X20283Y16400D03*
D228*
X1550Y16433D03*
D148*
X6783Y16433D03*
D694*
X20267Y16433D03*
D228*
X1550Y16467D03*
D149*
X6767Y16467D03*
D695*
X20250Y16467D03*
D692*
X1550Y16500D03*
D509*
X6750Y16500D03*
D696*
X20233Y16500D03*
D228*
X1550Y16533D03*
D697*
X6733Y16533D03*
D698*
X20217Y16533D03*
D228*
X1550Y16567D03*
D507*
X6717Y16567D03*
D699*
X20200Y16567D03*
D692*
X1550Y16600D03*
D700*
X6700Y16600D03*
D701*
X20183Y16600D03*
D228*
X1550Y16633D03*
D156*
X6683Y16633D03*
D702*
X20167Y16633D03*
D228*
X1550Y16667D03*
D159*
X6667Y16667D03*
D703*
X20133Y16667D03*
D692*
X1550Y16700D03*
D704*
X6650Y16700D03*
D705*
X20117Y16700D03*
D228*
X1550Y16733D03*
D161*
X6616Y16733D03*
D706*
X20100Y16733D03*
D228*
X1550Y16767D03*
D160*
X6600Y16767D03*
D707*
X20083Y16767D03*
D225*
X1533Y16800D03*
D708*
X6583Y16800D03*
D709*
X20067Y16800D03*
D327*
X1533Y16833D03*
D163*
X6566Y16833D03*
D389*
X13150Y16833D03*
D710*
X21867Y16833D03*
D327*
X1533Y16867D03*
D626*
X6550Y16867D03*
D380*
X13016Y16867D03*
D711*
X21967Y16867D03*
D712*
X1550Y16900D03*
D713*
X6533Y16900D03*
D377*
X12933Y16900D03*
D714*
X22033Y16900D03*
D39*
X1550Y16933D03*
D167*
X6516Y16933D03*
D314*
X12867Y16933D03*
D715*
X22100Y16933D03*
D39*
X1550Y16967D03*
D169*
X6500Y16967D03*
D716*
X12800Y16967D03*
D717*
X22150Y16967D03*
D712*
X1550Y17000D03*
D170*
X6483Y17000D03*
D718*
X12733Y17000D03*
D719*
X22183Y17000D03*
D39*
X1550Y17033D03*
D172*
X6466Y17033D03*
D371*
X12683Y17033D03*
D720*
X22233Y17033D03*
D39*
X1550Y17067D03*
D721*
X6450Y17067D03*
D722*
X12633Y17067D03*
D723*
X22267Y17067D03*
D225*
X1566Y17100D03*
D724*
X6433Y17100D03*
D725*
X12583Y17100D03*
D726*
X22300Y17100D03*
D327*
X1566Y17133D03*
D176*
X6416Y17133D03*
D117*
X12533Y17133D03*
D727*
X22333Y17133D03*
D327*
X1566Y17167D03*
D606*
X6417Y17167D03*
D112*
X12483Y17167D03*
D728*
X22350Y17167D03*
D225*
X1566Y17200D03*
D178*
X6400Y17200D03*
D116*
X12450Y17200D03*
D729*
X22366Y17200D03*
D327*
X1566Y17233D03*
D730*
X6383Y17233D03*
D104*
X12400Y17233D03*
D731*
X22400Y17233D03*
D327*
X1566Y17267D03*
D179*
X6367Y17267D03*
D104*
X12366Y17267D03*
D732*
X22416Y17267D03*
D225*
X1566Y17300D03*
D598*
X6350Y17300D03*
D570*
X12317Y17300D03*
D733*
X22433Y17300D03*
D327*
X1566Y17333D03*
D595*
X6333Y17333D03*
D102*
X12283Y17333D03*
D734*
X22466Y17333D03*
D327*
X1566Y17367D03*
D735*
X6317Y17367D03*
D113*
X12250Y17367D03*
D736*
X22483Y17367D03*
D225*
X1566Y17400D03*
D737*
X6300Y17400D03*
D101*
X12200Y17400D03*
D738*
X22500Y17400D03*
D327*
X1566Y17433D03*
D739*
X6283Y17433D03*
D100*
X12167Y17433D03*
D740*
X22516Y17433D03*
D741*
X1583Y17467D03*
D38*
X6267Y17467D03*
D106*
X12133Y17467D03*
D624*
X22550Y17467D03*
D225*
X1600Y17500D03*
D742*
X6267Y17500D03*
D101*
X12100Y17500D03*
D618*
X22566Y17500D03*
D327*
X1600Y17533D03*
D743*
X6250Y17533D03*
D100*
X12067Y17533D03*
D619*
X22583Y17533D03*
D327*
X1600Y17567D03*
D41*
X6233Y17567D03*
D106*
X12033Y17567D03*
D613*
X22600Y17567D03*
D225*
X1600Y17600D03*
D565*
X6217Y17600D03*
D101*
X12000Y17600D03*
D608*
X22616Y17600D03*
D327*
X1600Y17633D03*
D190*
X6200Y17633D03*
D100*
X11967Y17633D03*
D744*
X22633Y17633D03*
D327*
X1600Y17667D03*
D37*
X6200Y17667D03*
D106*
X11933Y17667D03*
D744*
X22633Y17667D03*
D692*
X1617Y17700D03*
D745*
X6183Y17700D03*
D101*
X11900Y17700D03*
D602*
X22650Y17700D03*
D228*
X1617Y17733D03*
D194*
X6166Y17733D03*
D100*
X11867Y17733D03*
D599*
X22650Y17733D03*
D228*
X1617Y17767D03*
D548*
X6150Y17767D03*
D113*
X11850Y17767D03*
D594*
X22667Y17767D03*
D692*
X1617Y17800D03*
D746*
X6133Y17800D03*
D570*
X11817Y17800D03*
D747*
X22683Y17800D03*
D228*
X1617Y17833D03*
D528*
X6133Y17833D03*
D102*
X11783Y17833D03*
D748*
X22700Y17833D03*
D749*
X1633Y17867D03*
D26*
X6117Y17867D03*
D113*
X11750Y17867D03*
D748*
X22700Y17867D03*
D750*
X1633Y17900D03*
D196*
X6100Y17900D03*
D105*
X11733Y17900D03*
D751*
X22717Y17900D03*
D749*
X1633Y17933D03*
D200*
X6100Y17933D03*
D104*
X11700Y17933D03*
D588*
X22733Y17933D03*
D749*
X1633Y17967D03*
D199*
X6083Y17967D03*
D104*
X11666Y17967D03*
D588*
X22733Y17967D03*
D752*
X1667Y18000D03*
D201*
X6067Y18000D03*
D116*
X11650Y18000D03*
D753*
X22750Y18000D03*
D35*
X1667Y18033D03*
D29*
X6050Y18033D03*
D566*
X11617Y18033D03*
D754*
X22767Y18033D03*
D35*
X1667Y18067D03*
D203*
X6050Y18067D03*
D112*
X11583Y18067D03*
D754*
X22767Y18067D03*
D752*
X1667Y18100D03*
D755*
X6033Y18100D03*
D316*
X11567Y18100D03*
D580*
X22783Y18100D03*
D230*
X1683Y18133D03*
D341*
X6016Y18133D03*
D117*
X11533Y18133D03*
D756*
X22783Y18133D03*
D230*
X1683Y18167D03*
D209*
X6017Y18167D03*
D119*
X11516Y18167D03*
D578*
X22800Y18167D03*
D684*
X1683Y18200D03*
D339*
X6000Y18200D03*
D725*
X11483Y18200D03*
D757*
X22800Y18200D03*
D677*
X1700Y18233D03*
D211*
X6000Y18233D03*
D123*
X11467Y18233D03*
D758*
X22817Y18233D03*
D677*
X1700Y18267D03*
D25*
X5983Y18267D03*
D722*
X11433Y18267D03*
D759*
X22800Y18267D03*
D231*
X1700Y18300D03*
D215*
X5967Y18300D03*
D560*
X11417Y18300D03*
D760*
X22817Y18300D03*
D235*
X1717Y18333D03*
D219*
X5966Y18333D03*
D371*
X11383Y18333D03*
D573*
X22817Y18333D03*
D235*
X1717Y18367D03*
D348*
X5950Y18367D03*
D317*
X11366Y18367D03*
D572*
X22833Y18367D03*
D32*
X1717Y18400D03*
D350*
X5950Y18400D03*
D718*
X11333Y18400D03*
D761*
X22833Y18400D03*
D238*
X1733Y18433D03*
D447*
X5933Y18433D03*
D371*
X11283Y18433D03*
D569*
X22867Y18433D03*
D238*
X1733Y18467D03*
D227*
X5933Y18467D03*
D112*
X11183Y18467D03*
D762*
X22933Y18467D03*
D763*
X1750Y18500D03*
D353*
X5917Y18500D03*
D101*
X11100Y18500D03*
D764*
X23017Y18500D03*
D238*
X1766Y18533D03*
D354*
X5916Y18533D03*
D88*
X11000Y18533D03*
D765*
X23083Y18533D03*
D670*
X1783Y18567D03*
D229*
X5900Y18567D03*
D86*
X10916Y18567D03*
D766*
X23150Y18567D03*
D672*
X1783Y18600D03*
D767*
X5900Y18600D03*
D77*
X10833Y18600D03*
D660*
X23217Y18600D03*
D670*
X1783Y18633D03*
D768*
X5883Y18633D03*
D64*
X10750Y18633D03*
D769*
X23267Y18633D03*
D27*
X1800Y18667D03*
D770*
X5883Y18667D03*
D66*
X10683Y18667D03*
D771*
X23333Y18667D03*
D667*
X1800Y18700D03*
D772*
X5867Y18700D03*
D76*
X10600Y18700D03*
D773*
X23383Y18700D03*
D662*
X1816Y18733D03*
D240*
X5866Y18733D03*
D774*
X10533Y18733D03*
D522*
X23433Y18733D03*
D662*
X1816Y18767D03*
D775*
X5850Y18767D03*
D298*
X10466Y18767D03*
D125*
X23500Y18767D03*
D658*
X1833Y18800D03*
D242*
X5850Y18800D03*
D63*
X10400Y18800D03*
D776*
X23533Y18800D03*
D245*
X1833Y18833D03*
D370*
X5850Y18833D03*
D13*
X10333Y18833D03*
D138*
X23583Y18833D03*
D24*
X1850Y18867D03*
D246*
X5833Y18867D03*
D289*
X10266Y18867D03*
D141*
X23616Y18867D03*
D655*
X1850Y18900D03*
D381*
X5833Y18900D03*
D288*
X10200Y18900D03*
D147*
X23666Y18900D03*
D23*
X1866Y18933D03*
D384*
X5816Y18933D03*
D284*
X10150Y18933D03*
D152*
X23716Y18933D03*
D777*
X1883Y18967D03*
D420*
X5817Y18967D03*
D280*
X10083Y18967D03*
D155*
X23766Y18967D03*
D253*
X1883Y19000D03*
D402*
X5817Y19000D03*
D273*
X10017Y19000D03*
D157*
X23800Y19000D03*
D254*
X1900Y19033D03*
D255*
X5816Y19033D03*
D635*
X9967Y19033D03*
D164*
X23850Y19033D03*
D334*
X1917Y19067D03*
D260*
X5800Y19067D03*
D638*
X9900Y19067D03*
D778*
X23883Y19067D03*
D779*
X1933Y19100D03*
D264*
X5800Y19100D03*
D265*
X9850Y19100D03*
D780*
X23933Y19100D03*
D257*
X1950Y19133D03*
D781*
X5800Y19133D03*
D258*
X9783Y19133D03*
D172*
X23966Y19133D03*
D257*
X1950Y19167D03*
D268*
X5800Y19167D03*
D782*
X9733Y19167D03*
D173*
X24000Y19167D03*
D642*
X1967Y19200D03*
D783*
X5783Y19200D03*
D21*
X9683Y19200D03*
D784*
X24050Y19200D03*
D258*
X1983Y19233D03*
D267*
X5783Y19233D03*
D334*
X9617Y19233D03*
D730*
X24083Y19233D03*
D258*
X1983Y19267D03*
D434*
X5783Y19267D03*
D23*
X9566Y19267D03*
D181*
X24116Y19267D03*
D262*
X2000Y19300D03*
D785*
X5783Y19300D03*
D655*
X9517Y19300D03*
D786*
X24150Y19300D03*
D266*
X2017Y19333D03*
D787*
X5783Y19333D03*
D248*
X9467Y19333D03*
D38*
X24167Y19333D03*
D266*
X2017Y19367D03*
D279*
X5783Y19367D03*
D662*
X9416Y19367D03*
D743*
X24217Y19367D03*
D788*
X2033Y19400D03*
D789*
X5767Y19400D03*
D667*
X9367Y19400D03*
D565*
X24250Y19400D03*
D270*
X2050Y19433D03*
D278*
X5766Y19433D03*
D239*
X9317Y19433D03*
D191*
X24283Y19433D03*
D635*
X2067Y19467D03*
D790*
X5767Y19467D03*
D238*
X9266Y19467D03*
D554*
X24317Y19467D03*
D791*
X2083Y19500D03*
D792*
X5767Y19500D03*
D32*
X9217Y19500D03*
D793*
X24350Y19500D03*
D17*
X2083Y19533D03*
D451*
X5766Y19533D03*
D677*
X9167Y19533D03*
D531*
X24383Y19533D03*
D634*
X2100Y19567D03*
D794*
X5767Y19567D03*
D230*
X9116Y19567D03*
D26*
X24417Y19567D03*
D276*
X2133Y19600D03*
D795*
X5767Y19600D03*
D752*
X9067Y19600D03*
D196*
X24433Y19600D03*
D277*
X2150Y19633D03*
D290*
X5766Y19633D03*
D228*
X9017Y19633D03*
D200*
X24467Y19633D03*
D281*
X2167Y19667D03*
D796*
X5783Y19667D03*
D327*
X8966Y19667D03*
D349*
X24500Y19667D03*
D15*
X2183Y19700D03*
D797*
X5783Y19700D03*
D225*
X8933Y19700D03*
D344*
X24533Y19700D03*
D623*
X2200Y19733D03*
D469*
X5767Y19733D03*
D741*
X8883Y19733D03*
D202*
X24567Y19733D03*
D798*
X2217Y19767D03*
D799*
X5767Y19767D03*
D800*
X8833Y19767D03*
D341*
X24583Y19767D03*
D801*
X2233Y19800D03*
D474*
X5766Y19800D03*
D802*
X8783Y19800D03*
D338*
X24617Y19800D03*
D292*
X2250Y19833D03*
D803*
X5783Y19833D03*
D220*
X8750Y19833D03*
D212*
X24650Y19833D03*
D14*
X2267Y19867D03*
D480*
X5766Y19867D03*
D217*
X8700Y19867D03*
D457*
X24667Y19867D03*
D48*
X2283Y19900D03*
D804*
X5767Y19900D03*
D45*
X8650Y19900D03*
D214*
X24683Y19900D03*
D65*
X2300Y19933D03*
D486*
X5766Y19933D03*
D320*
X8617Y19933D03*
D348*
X24717Y19933D03*
D67*
X2317Y19967D03*
D488*
X5767Y19967D03*
D213*
X8566Y19967D03*
D448*
X24750Y19967D03*
D71*
X2333Y20000D03*
D805*
X5766Y20000D03*
D806*
X8500Y20000D03*
D224*
X24767Y20000D03*
D51*
X2350Y20033D03*
D494*
X5767Y20033D03*
D213*
X8466Y20033D03*
D227*
X24800Y20033D03*
D57*
X2367Y20067D03*
D309*
X5766Y20067D03*
D52*
X8417Y20067D03*
D352*
X24817Y20067D03*
D82*
X2383Y20100D03*
D807*
X5783Y20100D03*
D808*
X8383Y20100D03*
D809*
X24850Y20100D03*
D810*
X2433Y20133D03*
D410*
X5783Y20133D03*
D207*
X8333Y20133D03*
D811*
X24883Y20133D03*
D600*
X2450Y20167D03*
D335*
X5767Y20167D03*
D318*
X8267Y20167D03*
D357*
X24900Y20167D03*
D10*
X2466Y20200D03*
D812*
X5767Y20200D03*
D813*
X8233Y20200D03*
D814*
X24933Y20200D03*
D58*
X2500Y20233D03*
D815*
X5766Y20233D03*
D770*
X24950Y20233D03*
D64*
X2516Y20267D03*
D385*
X5783Y20267D03*
D207*
X8133Y20267D03*
D816*
X24983Y20267D03*
D817*
X2550Y20300D03*
D818*
X5767Y20300D03*
D206*
X8100Y20300D03*
D819*
X25000Y20300D03*
D55*
X2566Y20333D03*
D314*
X5767Y20333D03*
D207*
X8033Y20333D03*
D775*
X25017Y20333D03*
D50*
X2600Y20367D03*
D123*
X5767Y20367D03*
D318*
X8000Y20367D03*
D366*
X25050Y20367D03*
D83*
X2616Y20400D03*
D101*
X5767Y20400D03*
D813*
X7933Y20400D03*
D820*
X25050Y20400D03*
D111*
X2650Y20433D03*
D84*
X5767Y20433D03*
D318*
X7900Y20433D03*
D424*
X25083Y20433D03*
D88*
X2666Y20467D03*
D58*
X5767Y20467D03*
D207*
X7833Y20467D03*
D249*
X25100Y20467D03*
D121*
X2700Y20500D03*
D71*
X5766Y20500D03*
D808*
X7783Y20500D03*
D386*
X25116Y20500D03*
D106*
X2733Y20533D03*
D280*
X5783Y20533D03*
D213*
X7733Y20533D03*
D420*
X25150Y20533D03*
D104*
X2766Y20567D03*
D662*
X5783Y20567D03*
D213*
X7666Y20567D03*
D256*
X25166Y20567D03*
D316*
X2800Y20600D03*
D45*
X7617Y20600D03*
D422*
X25200Y20600D03*
D722*
X2833Y20633D03*
D217*
X7567Y20633D03*
D255*
X25216Y20633D03*
D371*
X2883Y20667D03*
D217*
X7500Y20667D03*
D416*
X25233Y20667D03*
D821*
X2933Y20700D03*
D802*
X7450Y20700D03*
D822*
X25250Y20700D03*
D314*
X2967Y20733D03*
D741*
X7383Y20733D03*
D823*
X25283Y20733D03*
D549*
X3017Y20767D03*
D327*
X7333Y20767D03*
D781*
X25300Y20767D03*
D824*
X3067Y20800D03*
D692*
X7250Y20800D03*
D825*
X25316Y20800D03*
D536*
X3117Y20833D03*
D230*
X7183Y20833D03*
D431*
X25350Y20833D03*
D529*
X3167Y20867D03*
D238*
X7100Y20867D03*
D826*
X25366Y20867D03*
D827*
X3233Y20900D03*
D244*
X7016Y20900D03*
D828*
X25383Y20900D03*
D516*
X3300Y20933D03*
D24*
X6917Y20933D03*
D272*
X25400Y20933D03*
D412*
X3400Y20967D03*
D645*
X6800Y20967D03*
D271*
X25400Y20967D03*
D829*
X3550Y21000D03*
D276*
X6633Y21000D03*
D830*
X25433Y21000D03*
D831*
X4400Y21033D03*
D438*
X25450Y21033D03*
D787*
X4383Y21067D03*
D832*
X25467Y21067D03*
D833*
X4350Y21100D03*
X25483Y21100D03*
D834*
X4333Y21133D03*
D441*
X25500Y21133D03*
D835*
X4317Y21167D03*
D220*
X13050Y21167D03*
D213*
X16800Y21167D03*
D835*
X25517Y21167D03*
D836*
X4317Y21200D03*
D752*
X13000Y21200D03*
D225*
X16866Y21200D03*
D836*
X25550Y21200D03*
D790*
X4300Y21233D03*
D239*
X12950Y21233D03*
D235*
X16917Y21233D03*
D790*
X25567Y21233D03*
D446*
X4283Y21267D03*
D23*
X12900Y21267D03*
D837*
X16983Y21267D03*
D446*
X25583Y21267D03*
D792*
X4267Y21300D03*
D262*
X12866Y21300D03*
D21*
X17016Y21300D03*
D792*
X25600Y21300D03*
D451*
X4233Y21333D03*
D838*
X12833Y21333D03*
D638*
X17067Y21333D03*
D839*
X25617Y21333D03*
D453*
X4217Y21367D03*
D284*
X12783Y21367D03*
D280*
X17083Y21367D03*
D451*
X25633Y21367D03*
D286*
X4200Y21400D03*
D617*
X12750Y21400D03*
D840*
X17117Y21400D03*
D841*
X25650Y21400D03*
D456*
X4183Y21433D03*
D298*
X12733Y21433D03*
D54*
X17150Y21433D03*
D794*
X25667Y21433D03*
D291*
X4167Y21467D03*
D73*
X12700Y21467D03*
D57*
X17167Y21467D03*
D291*
X25667Y21467D03*
D842*
X4150Y21500D03*
D60*
X12683Y21500D03*
D10*
X17200Y21500D03*
D843*
X25683Y21500D03*
D290*
X4133Y21533D03*
D55*
X12666Y21533D03*
D74*
X17217Y21533D03*
D290*
X25700Y21533D03*
D844*
X4117Y21567D03*
D111*
X12650Y21567D03*
D86*
X17250Y21567D03*
D844*
X25717Y21567D03*
D845*
X4100Y21600D03*
D107*
X12633Y21600D03*
D91*
X17250Y21600D03*
D461*
X25750Y21600D03*
D796*
X4083Y21633D03*
D117*
X12633Y21633D03*
D104*
X17266Y21633D03*
D846*
X25767Y21633D03*
D847*
X4083Y21667D03*
D124*
X12617Y21667D03*
D123*
X17267Y21667D03*
D847*
X25783Y21667D03*
D297*
X4066Y21700D03*
D848*
X12617Y21700D03*
D555*
X17267Y21700D03*
D297*
X25800Y21700D03*
D849*
X4050Y21733D03*
D380*
X12616Y21733D03*
D850*
X17267Y21733D03*
D849*
X25817Y21733D03*
D851*
X4033Y21767D03*
D534*
X12633Y21767D03*
D536*
X17250Y21767D03*
D851*
X25833Y21767D03*
D470*
X4016Y21800D03*
D827*
X12633Y21800D03*
D329*
X17233Y21800D03*
D470*
X25850Y21800D03*
D799*
X4000Y21833D03*
D335*
X12667Y21833D03*
D331*
X17217Y21833D03*
D473*
X25850Y21833D03*
D852*
X3983Y21867D03*
D504*
X12716Y21867D03*
D412*
X17166Y21867D03*
D473*
X25850Y21867D03*
D474*
X3966Y21900D03*
D853*
X12817Y21900D03*
D492*
X17050Y21900D03*
D474*
X25866Y21900D03*
D854*
X3950Y21933D03*
D183*
X14933Y21933D03*
D476*
X25883Y21933D03*
D803*
X3950Y21967D03*
D855*
X14933Y21967D03*
D477*
X25900Y21967D03*
D856*
X3933Y22000D03*
D784*
X14917Y22000D03*
D478*
X25916Y22000D03*
D302*
X3917Y22033D03*
D721*
X14917Y22033D03*
D857*
X25933Y22033D03*
D480*
X3900Y22067D03*
D167*
X14916Y22067D03*
D302*
X25950Y22067D03*
D858*
X3900Y22100D03*
D859*
X14917Y22100D03*
D481*
X25950Y22100D03*
D860*
X3883Y22133D03*
D861*
X14933Y22133D03*
D482*
X25967Y22133D03*
D483*
X3883Y22167D03*
D697*
X14933Y22167D03*
D483*
X25983Y22167D03*
D484*
X3867Y22200D03*
D639*
X14917Y22200D03*
D484*
X26000Y22200D03*
D485*
X3850Y22233D03*
D141*
X14916Y22233D03*
D485*
X26017Y22233D03*
D486*
X3833Y22267D03*
D135*
X14933Y22267D03*
D486*
X26033Y22267D03*
D487*
X3817Y22300D03*
D133*
X14916Y22300D03*
D487*
X26017Y22300D03*
D488*
X3800Y22333D03*
D517*
X14917Y22333D03*
D862*
X26033Y22333D03*
D863*
X3800Y22367D03*
D522*
X14933Y22367D03*
D489*
X26050Y22367D03*
D303*
X3800Y22400D03*
D525*
X14917Y22400D03*
D303*
X26067Y22400D03*
D864*
X3783Y22433D03*
D771*
X14933Y22433D03*
D864*
X26083Y22433D03*
D307*
X3766Y22467D03*
D865*
X14917Y22467D03*
D307*
X26100Y22467D03*
D492*
X3750Y22500D03*
D866*
X14933Y22500D03*
D867*
X26100Y22500D03*
D868*
X3733Y22533D03*
D543*
X14917Y22533D03*
D494*
X26100Y22533D03*
D869*
X3733Y22567D03*
D547*
X14933Y22567D03*
D495*
X26116Y22567D03*
D870*
X3733Y22600D03*
D551*
X14917Y22600D03*
D870*
X26133Y22600D03*
D871*
X3717Y22633D03*
D872*
X14933Y22633D03*
D871*
X26150Y22633D03*
D309*
X3700Y22667D03*
D559*
X14917Y22667D03*
D500*
X26150Y22667D03*
D337*
X3700Y22700D03*
D873*
X14933Y22700D03*
D874*
X26150Y22700D03*
D504*
X3683Y22733D03*
D669*
X14933Y22733D03*
D875*
X26167Y22733D03*
D504*
X3683Y22767D03*
D876*
X14916Y22767D03*
D504*
X26183Y22767D03*
D877*
X3667Y22800D03*
D575*
X14933Y22800D03*
D508*
X26183Y22800D03*
D333*
X3650Y22833D03*
D878*
X14933Y22833D03*
D412*
X26200Y22833D03*
D511*
X3650Y22867D03*
D584*
X14917Y22867D03*
D412*
X26200Y22867D03*
D512*
X3633Y22900D03*
D591*
X14933Y22900D03*
D879*
X26217Y22900D03*
D880*
X3633Y22933D03*
D881*
X14933Y22933D03*
D408*
X26216Y22933D03*
X3616Y22967D03*
D882*
X14933Y22967D03*
D883*
X26233Y22967D03*
D884*
X3617Y23000D03*
D885*
X14933Y23000D03*
D886*
X26233Y23000D03*
D516*
X3600Y23033D03*
D887*
X14933Y23033D03*
D888*
X26250Y23033D03*
D516*
X3600Y23067D03*
D889*
X14933Y23067D03*
D331*
X26250Y23067D03*
D812*
X3600Y23100D03*
D890*
X14933Y23100D03*
D812*
X26267Y23100D03*
D332*
X3583Y23133D03*
D891*
X14933Y23133D03*
D892*
X26267Y23133D03*
D893*
X3567Y23167D03*
D894*
X14933Y23167D03*
D332*
X26283Y23167D03*
D895*
X3567Y23200D03*
D896*
X14933Y23200D03*
D310*
X26283Y23200D03*
D815*
X3566Y23233D03*
D897*
X14933Y23233D03*
D815*
X26300Y23233D03*
D313*
X3550Y23267D03*
D898*
X14933Y23267D03*
D815*
X26300Y23267D03*
D899*
X3550Y23300D03*
D900*
X14933Y23300D03*
D901*
X26300Y23300D03*
D389*
X3550Y23333D03*
D902*
X14933Y23333D03*
D389*
X26316Y23333D03*
D534*
X3533Y23367D03*
D903*
X14933Y23367D03*
D389*
X26316Y23367D03*
D904*
X3533Y23400D03*
D905*
X14933Y23400D03*
D904*
X26333Y23400D03*
D328*
X3533Y23433D03*
D906*
X14933Y23433D03*
D328*
X26333Y23433D03*
X3533Y23467D03*
D907*
X14933Y23467D03*
D328*
X26333Y23467D03*
D908*
X14933Y23500D03*
D909*
X14917Y23533D03*
D910*
X14933Y23567D03*
D911*
X14933Y23600D03*
D912*
X14916Y23633D03*
D913*
X14933Y23667D03*
D914*
X14933Y23700D03*
D915*
X14933Y23733D03*
X14933Y23767D03*
D916*
X14917Y23800D03*
D917*
X14933Y23833D03*
X14933Y23867D03*
D918*
X14916Y23900D03*
D919*
X14933Y23933D03*
X14933Y23967D03*
D920*
X14933Y24000D03*
D921*
X14933Y24033D03*
D922*
X14917Y24067D03*
D923*
X14933Y24100D03*
D924*
X14933Y24133D03*
D925*
X14933Y24167D03*
D926*
X14933Y24200D03*
D927*
X14917Y24233D03*
D928*
X14933Y24267D03*
D929*
X14917Y24300D03*
D930*
X14933Y24333D03*
X14933Y24367D03*
D931*
X14933Y24400D03*
D932*
X14933Y24433D03*
D933*
X14933Y24467D03*
D934*
X14933Y24500D03*
D935*
X14933Y24533D03*
X14933Y24567D03*
D936*
X14933Y24600D03*
D937*
X14933Y24633D03*
D938*
X14933Y24667D03*
D939*
X14933Y24700D03*
D940*
X14933Y24733D03*
X14933Y24767D03*
D941*
X14933Y24800D03*
D942*
X14933Y24833D03*
D943*
X14933Y24867D03*
D944*
X14933Y24900D03*
D942*
X14933Y24933D03*
D938*
X14933Y24967D03*
D936*
X14933Y25000D03*
D935*
X14933Y25033D03*
D933*
X14933Y25067D03*
D931*
X14933Y25100D03*
D930*
X14933Y25133D03*
D928*
X14933Y25167D03*
D926*
X14933Y25200D03*
D924*
X14933Y25233D03*
D921*
X14933Y25267D03*
D945*
X14933Y25300D03*
D917*
X14933Y25333D03*
D915*
X14933Y25367D03*
D914*
X14933Y25400D03*
D910*
X14933Y25433D03*
D946*
X14933Y25467D03*
D947*
X14933Y25500D03*
D948*
X14950Y25533D03*
D949*
X14933Y25567D03*
D950*
X14933Y25600D03*
D951*
X14933Y25633D03*
D952*
X14933Y25667D03*
D953*
X14933Y25700D03*
D954*
X14933Y25733D03*
D955*
X14933Y25767D03*
D956*
X14933Y25800D03*
D957*
X14933Y25833D03*
D958*
X14933Y25867D03*
D959*
X14933Y25900D03*
D960*
X14933Y25933D03*
X14933Y25967D03*
D961*
X14933Y26000D03*
D962*
X14933Y26033D03*
D963*
X14933Y26067D03*
D964*
X14933Y26100D03*
D965*
X14933Y26133D03*
D966*
X14933Y26167D03*
D967*
X14933Y26200D03*
D968*
X14933Y26233D03*
D969*
X14933Y26267D03*
D970*
X14933Y26300D03*
D971*
X14933Y26333D03*
D972*
X14933Y26367D03*
D973*
X14933Y26400D03*
D974*
X14933Y26433D03*
D975*
X14933Y26467D03*
D976*
X14933Y26500D03*
D977*
X14933Y26533D03*
D978*
X14933Y26567D03*
D979*
X14933Y26600D03*
D980*
X14933Y26633D03*
D981*
X14933Y26667D03*
D982*
X6500Y26700D03*
D983*
X14933Y26700D03*
D982*
X23366Y26700D03*
D984*
X6383Y26733D03*
D857*
X14933Y26733D03*
D984*
X23483Y26733D03*
D985*
X6283Y26767D03*
D862*
X14933Y26767D03*
D985*
X23583Y26767D03*
D986*
X6216Y26800D03*
D870*
X14933Y26800D03*
D986*
X23650Y26800D03*
D529*
X2600Y26833D03*
D987*
X8750Y26833D03*
D988*
X14933Y26833D03*
D832*
X21367Y26833D03*
D124*
X27517Y26833D03*
D389*
X2550Y26867D03*
D462*
X8733Y26867D03*
D883*
X14933Y26867D03*
D989*
X21383Y26867D03*
D317*
X27566Y26867D03*
D904*
X2533Y26900D03*
D990*
X8717Y26900D03*
D827*
X14933Y26900D03*
D792*
X21400Y26900D03*
D991*
X27583Y26900D03*
D326*
X2500Y26933D03*
D852*
X8683Y26933D03*
D992*
X14933Y26933D03*
D993*
X21433Y26933D03*
D994*
X27617Y26933D03*
D385*
X2483Y26967D03*
D477*
X8667Y26967D03*
D324*
X14933Y26967D03*
D987*
X21450Y26967D03*
D722*
X27633Y26967D03*
D995*
X2467Y27000D03*
D996*
X8650Y27000D03*
D377*
X14933Y27000D03*
D997*
X21483Y27000D03*
D122*
X27667Y27000D03*
D536*
X2450Y27033D03*
D998*
X8617Y27033D03*
D319*
X14933Y27033D03*
D846*
X21500Y27033D03*
D123*
X27667Y27033D03*
D534*
X2433Y27067D03*
D301*
X8600Y27067D03*
D994*
X14917Y27067D03*
D293*
X21533Y27067D03*
D371*
X27683Y27067D03*
D904*
X2433Y27100D03*
D999*
X8566Y27100D03*
D120*
X14933Y27100D03*
D470*
X21550Y27100D03*
D122*
X27700Y27100D03*
D389*
X2416Y27133D03*
D862*
X8533Y27133D03*
D106*
X14933Y27133D03*
D852*
X21583Y27133D03*
D994*
X27717Y27133D03*
D326*
X2400Y27167D03*
D489*
X8516Y27167D03*
D88*
X14933Y27167D03*
D300*
X21600Y27167D03*
D994*
X27717Y27167D03*
D387*
X2383Y27200D03*
D1000*
X8483Y27200D03*
D579*
X14933Y27200D03*
D1001*
X21633Y27200D03*
D718*
X27733Y27200D03*
D389*
X2383Y27233D03*
D307*
X8466Y27233D03*
D55*
X14933Y27233D03*
D803*
X21650Y27233D03*
D317*
X27733Y27233D03*
D390*
X2383Y27267D03*
D868*
X8433Y27267D03*
D75*
X14933Y27267D03*
D1002*
X21683Y27267D03*
D124*
X27750Y27267D03*
D392*
X2383Y27300D03*
D829*
X8416Y27300D03*
D62*
X14933Y27300D03*
D996*
X21717Y27300D03*
D821*
X27733Y27300D03*
D815*
X2366Y27333D03*
D495*
X8383Y27333D03*
D810*
X14933Y27333D03*
D480*
X21733Y27333D03*
D375*
X27750Y27333D03*
D395*
X2383Y27367D03*
D871*
X8350Y27367D03*
D774*
X14933Y27367D03*
D998*
X21750Y27367D03*
D375*
X27750Y27367D03*
D895*
X2367Y27400D03*
D1003*
X8317Y27400D03*
D71*
X14933Y27400D03*
D804*
X21800Y27400D03*
D848*
X27750Y27400D03*
D332*
X2383Y27433D03*
D306*
X8283Y27433D03*
D1004*
X14933Y27433D03*
D1005*
X21833Y27433D03*
D312*
X27733Y27433D03*
D398*
X2383Y27467D03*
D871*
X8250Y27467D03*
D777*
X12183Y27467D03*
D13*
X14933Y27467D03*
D777*
X17683Y27467D03*
D482*
X21867Y27467D03*
D325*
X27733Y27467D03*
D1006*
X2400Y27500D03*
D1003*
X8217Y27500D03*
D791*
X12183Y27500D03*
D16*
X14933Y27500D03*
D791*
X17683Y27500D03*
D804*
X21900Y27500D03*
D544*
X27716Y27500D03*
D408*
X2416Y27533D03*
D1007*
X8167Y27533D03*
D1008*
X12183Y27533D03*
D630*
X14933Y27533D03*
D1008*
X17683Y27533D03*
D998*
X21950Y27533D03*
D328*
X27700Y27533D03*
D145*
X5366Y27567D03*
D12*
X12183Y27567D03*
D634*
X14933Y27567D03*
D12*
X17683Y27567D03*
D145*
X24500Y27567D03*
D147*
X5333Y27600D03*
D10*
X12200Y27600D03*
D1009*
X14933Y27600D03*
D10*
X17666Y27600D03*
D147*
X24533Y27600D03*
D510*
X5317Y27633D03*
D56*
X12183Y27633D03*
D269*
X14933Y27633D03*
D56*
X17683Y27633D03*
D510*
X24550Y27633D03*
D148*
X5283Y27667D03*
D86*
X12183Y27667D03*
D1010*
X14933Y27667D03*
D86*
X17683Y27667D03*
D148*
X24583Y27667D03*
D150*
X5267Y27700D03*
D47*
X12183Y27700D03*
D262*
X14933Y27700D03*
D47*
X17683Y27700D03*
D150*
X24600Y27700D03*
D152*
X5250Y27733D03*
D102*
X12183Y27733D03*
D782*
X14933Y27733D03*
D102*
X17683Y27733D03*
D152*
X24616Y27733D03*
X5216Y27767D03*
D119*
X12183Y27767D03*
D1011*
X14933Y27767D03*
D119*
X17683Y27767D03*
D152*
X24650Y27767D03*
D154*
X5200Y27800D03*
D718*
X12200Y27800D03*
D1012*
X14933Y27800D03*
D718*
X17666Y27800D03*
D154*
X24667Y27800D03*
D151*
X5167Y27833D03*
D375*
X12183Y27833D03*
D245*
X14933Y27833D03*
D375*
X17683Y27833D03*
D151*
X24700Y27833D03*
X5167Y27867D03*
D312*
X12200Y27867D03*
D28*
X14933Y27867D03*
D312*
X17666Y27867D03*
D151*
X24700Y27867D03*
D637*
X5150Y27900D03*
D544*
X12183Y27900D03*
D241*
X14933Y27900D03*
D544*
X17683Y27900D03*
D637*
X24717Y27900D03*
D507*
X5117Y27933D03*
D540*
X12183Y27933D03*
D238*
X14933Y27933D03*
D540*
X17683Y27933D03*
D507*
X24750Y27933D03*
D155*
X5100Y27967D03*
D326*
X12200Y27967D03*
D1013*
X14933Y27967D03*
D326*
X17667Y27967D03*
D155*
X24766Y27967D03*
D153*
X5083Y28000D03*
D901*
X12200Y28000D03*
D750*
X14933Y28000D03*
D901*
X17667Y28000D03*
D153*
X24783Y28000D03*
D155*
X5066Y28033D03*
D395*
X12183Y28033D03*
D749*
X14933Y28033D03*
D395*
X17683Y28033D03*
D155*
X24800Y28033D03*
D505*
X5050Y28067D03*
D332*
X12183Y28067D03*
D327*
X14933Y28067D03*
D332*
X17683Y28067D03*
D505*
X24817Y28067D03*
D700*
X5033Y28100D03*
D399*
X12183Y28100D03*
D1014*
X14933Y28100D03*
D399*
X17683Y28100D03*
D700*
X24833Y28100D03*
D505*
X5017Y28133D03*
D401*
X12183Y28133D03*
D800*
X14933Y28133D03*
D401*
X17683Y28133D03*
D505*
X24850Y28133D03*
D159*
X5000Y28167D03*
D408*
X12183Y28167D03*
D1015*
X14933Y28167D03*
D408*
X17683Y28167D03*
D159*
X24867Y28167D03*
D870*
X2333Y28200D03*
D1006*
X7866Y28200D03*
D411*
X12183Y28200D03*
D806*
X14933Y28200D03*
D411*
X17683Y28200D03*
D829*
X22250Y28200D03*
D812*
X27800Y28200D03*
D1016*
X2283Y28233D03*
D893*
X7900Y28233D03*
D1017*
X12183Y28233D03*
D213*
X14933Y28233D03*
D1017*
X17683Y28233D03*
D500*
X22217Y28233D03*
D523*
X27850Y28233D03*
D504*
X2250Y28267D03*
D523*
X7917Y28267D03*
D506*
X12200Y28267D03*
D207*
X14933Y28267D03*
D506*
X17667Y28267D03*
D875*
X22200Y28267D03*
D815*
X27866Y28267D03*
D807*
X2216Y28300D03*
D330*
X7933Y28300D03*
D337*
X12200Y28300D03*
D813*
X14933Y28300D03*
D337*
X17667Y28300D03*
D877*
X22200Y28300D03*
D329*
X27900Y28300D03*
D506*
X2200Y28333D03*
D992*
X7933Y28333D03*
D309*
X12200Y28333D03*
D1016*
X17683Y28333D03*
D1017*
X22183Y28333D03*
D313*
X27917Y28333D03*
D1017*
X2183Y28367D03*
D534*
X7933Y28367D03*
D306*
X12183Y28367D03*
X17683Y28367D03*
D410*
X22183Y28367D03*
D992*
X27933Y28367D03*
D877*
X2167Y28400D03*
D1018*
X7950Y28400D03*
D829*
X12183Y28400D03*
X17683Y28400D03*
D411*
X22183Y28400D03*
D899*
X27950Y28400D03*
D333*
X2150Y28433D03*
D328*
X7933Y28433D03*
D494*
X12200Y28433D03*
X17667Y28433D03*
D408*
X22183Y28433D03*
D529*
X27967Y28433D03*
D333*
X2150Y28467D03*
D328*
X7933Y28467D03*
D1019*
X12183Y28467D03*
X17683Y28467D03*
D408*
X22183Y28467D03*
D529*
X27967Y28467D03*
D1020*
X2133Y28500D03*
D1021*
X7933Y28500D03*
D1000*
X12183Y28500D03*
X17683Y28500D03*
D1022*
X22200Y28500D03*
D392*
X27983Y28500D03*
D988*
X2133Y28533D03*
D324*
X7933Y28533D03*
D863*
X12200Y28533D03*
X17667Y28533D03*
D335*
X22200Y28533D03*
D529*
X28000Y28533D03*
D988*
X2133Y28567D03*
D380*
X7916Y28567D03*
D489*
X12183Y28567D03*
X17683Y28567D03*
D888*
X22217Y28567D03*
D529*
X28000Y28567D03*
D807*
X2116Y28600D03*
D544*
X7916Y28600D03*
D1023*
X12183Y28600D03*
X17683Y28600D03*
D884*
X22217Y28600D03*
D899*
X28017Y28600D03*
D504*
X2116Y28633D03*
D850*
X7900Y28633D03*
D486*
X12200Y28633D03*
X17666Y28633D03*
D516*
X22233Y28633D03*
D815*
X28000Y28633D03*
D504*
X2116Y28667D03*
D380*
X7883Y28667D03*
D1024*
X12183Y28667D03*
X17683Y28667D03*
D516*
X22233Y28667D03*
D815*
X28000Y28667D03*
D807*
X2116Y28700D03*
D544*
X7883Y28700D03*
D484*
X12200Y28700D03*
X17667Y28700D03*
D1006*
X22233Y28700D03*
D329*
X28000Y28700D03*
D500*
X2117Y28733D03*
D850*
X7867Y28733D03*
D483*
X12183Y28733D03*
X17683Y28733D03*
D516*
X22266Y28733D03*
D523*
X28017Y28733D03*
D500*
X2117Y28767D03*
D380*
X7850Y28767D03*
D482*
X12200Y28767D03*
X17667Y28767D03*
D516*
X22266Y28767D03*
D893*
X28000Y28767D03*
D1025*
X2133Y28800D03*
D544*
X7850Y28800D03*
D1026*
X12183Y28800D03*
X17683Y28800D03*
D403*
X22283Y28800D03*
D397*
X27983Y28800D03*
D871*
X2150Y28833D03*
D380*
X7816Y28833D03*
D480*
X12200Y28833D03*
X17666Y28833D03*
D888*
X22317Y28833D03*
D332*
X27983Y28833D03*
D495*
X2150Y28867D03*
D542*
X7800Y28867D03*
D1002*
X12183Y28867D03*
X17683Y28867D03*
D883*
X22333Y28867D03*
D516*
X27966Y28867D03*
D867*
X2167Y28900D03*
D538*
X7766Y28900D03*
D1027*
X12200Y28900D03*
X17667Y28900D03*
D311*
X22350Y28900D03*
D884*
X27950Y28900D03*
D491*
X2217Y28933D03*
D536*
X7717Y28933D03*
D803*
X12183Y28933D03*
X17683Y28933D03*
D308*
X22400Y28933D03*
D408*
X27916Y28933D03*
D164*
X4717Y28967D03*
D803*
X12183Y28967D03*
X17683Y28967D03*
D164*
X25150Y28967D03*
D162*
X4700Y29000D03*
D1028*
X12200Y29000D03*
X17667Y29000D03*
D162*
X25167Y29000D03*
D160*
X4700Y29033D03*
D476*
X12183Y29033D03*
X17683Y29033D03*
D160*
X25167Y29033D03*
D1029*
X4683Y29067D03*
D476*
X12183Y29067D03*
X17683Y29067D03*
D1029*
X25183Y29067D03*
D708*
X4683Y29100D03*
D474*
X12200Y29100D03*
X17666Y29100D03*
D708*
X25183Y29100D03*
D160*
X4667Y29133D03*
D852*
X12183Y29133D03*
X17683Y29133D03*
D160*
X25200Y29133D03*
X4667Y29167D03*
D852*
X12183Y29167D03*
X17683Y29167D03*
D160*
X25200Y29167D03*
D859*
X4650Y29200D03*
D296*
X12200Y29200D03*
X17667Y29200D03*
D859*
X25217Y29200D03*
D164*
X4650Y29233D03*
D799*
X12200Y29233D03*
X17667Y29233D03*
D164*
X25217Y29233D03*
X4650Y29267D03*
D1030*
X12183Y29267D03*
X17683Y29267D03*
D164*
X25217Y29267D03*
D502*
X4633Y29300D03*
D470*
X12183Y29300D03*
X17683Y29300D03*
D502*
X25233Y29300D03*
D1031*
X4633Y29333D03*
D1030*
X12183Y29333D03*
X17683Y29333D03*
D1031*
X25233Y29333D03*
X4633Y29367D03*
D469*
X12200Y29367D03*
X17667Y29367D03*
D1031*
X25233Y29367D03*
D502*
X4633Y29400D03*
D1032*
X12200Y29400D03*
X17667Y29400D03*
D502*
X25233Y29400D03*
D164*
X4617Y29433D03*
D467*
X12183Y29433D03*
X17683Y29433D03*
D164*
X25250Y29433D03*
X4617Y29467D03*
D467*
X12183Y29467D03*
D469*
X17700Y29467D03*
D164*
X25250Y29467D03*
D162*
X4600Y29500D03*
D470*
X12150Y29500D03*
D1033*
X17733Y29500D03*
D162*
X25267Y29500D03*
D160*
X4600Y29533D03*
D471*
X12133Y29533D03*
D473*
X17750Y29533D03*
D160*
X25267Y29533D03*
X4600Y29567D03*
D473*
X12117Y29567D03*
D300*
X17766Y29567D03*
D160*
X25267Y29567D03*
D1034*
X2133Y29600D03*
D544*
X7683Y29600D03*
D474*
X12100Y29600D03*
D1035*
X17783Y29600D03*
D1022*
X22467Y29600D03*
D877*
X27967Y29600D03*
D863*
X2100Y29633D03*
D549*
X7717Y29633D03*
D476*
X12083Y29633D03*
D477*
X17800Y29633D03*
D331*
X22417Y29633D03*
D511*
X28017Y29633D03*
D307*
X2066Y29667D03*
D312*
X7733Y29667D03*
D477*
X12067Y29667D03*
D803*
X17816Y29667D03*
D892*
X22400Y29667D03*
D880*
X28033Y29667D03*
D805*
X2033Y29700D03*
D848*
X7750Y29700D03*
D856*
X12033Y29700D03*
D996*
X17850Y29700D03*
D895*
X22367Y29700D03*
D1022*
X28067Y29700D03*
D307*
X2033Y29733D03*
D314*
X7767Y29733D03*
D302*
X12017Y29733D03*
D480*
X17866Y29733D03*
D893*
X22367Y29733D03*
D335*
X28100Y29733D03*
D1036*
X2017Y29767D03*
D314*
X7767Y29767D03*
D480*
X12000Y29767D03*
D860*
X17883Y29767D03*
D523*
X22350Y29767D03*
D335*
X28100Y29767D03*
D492*
X2017Y29800D03*
D1037*
X7783Y29800D03*
D858*
X11966Y29800D03*
D481*
X17917Y29800D03*
D329*
X22333Y29800D03*
D884*
X28117Y29800D03*
D494*
X2000Y29833D03*
D375*
X7783Y29833D03*
D998*
X11950Y29833D03*
D1005*
X17933Y29833D03*
D815*
X22333Y29833D03*
D888*
X28117Y29833D03*
D494*
X2000Y29867D03*
D375*
X7783Y29867D03*
D1005*
X11933Y29867D03*
D483*
X17950Y29867D03*
D815*
X22333Y29867D03*
D888*
X28117Y29867D03*
D867*
X2000Y29900D03*
D555*
X7800Y29900D03*
D484*
X11900Y29900D03*
D1038*
X17983Y29900D03*
D899*
X22317Y29900D03*
D1006*
X28133Y29900D03*
D494*
X2000Y29933D03*
D716*
X7800Y29933D03*
D1024*
X11883Y29933D03*
D486*
X18000Y29933D03*
D313*
X22317Y29933D03*
D516*
X28133Y29933D03*
D494*
X2000Y29967D03*
D375*
X7816Y29967D03*
D485*
X11850Y29967D03*
D486*
X18033Y29967D03*
D815*
X22300Y29967D03*
D516*
X28133Y29967D03*
D867*
X2000Y30000D03*
D1037*
X7816Y30000D03*
D999*
X11833Y30000D03*
D487*
X18050Y30000D03*
D329*
X22300Y30000D03*
D1006*
X28133Y30000D03*
D1019*
X1983Y30033D03*
D1039*
X7833Y30033D03*
D486*
X11800Y30033D03*
D1040*
X18083Y30033D03*
D395*
X22283Y30033D03*
D888*
X28150Y30033D03*
D1019*
X1983Y30067D03*
D312*
X7833Y30067D03*
D486*
X11766Y30067D03*
D1041*
X18117Y30067D03*
D332*
X22283Y30067D03*
D888*
X28150Y30067D03*
D1042*
X1983Y30100D03*
D1043*
X7850Y30100D03*
D487*
X11717Y30100D03*
D1044*
X18167Y30100D03*
D812*
X22267Y30100D03*
D886*
X28133Y30100D03*
D307*
X2000Y30133D03*
D380*
X7883Y30133D03*
D1040*
X11683Y30133D03*
D488*
X18200Y30133D03*
D331*
X22250Y30133D03*
D883*
X28133Y30133D03*
D491*
X2017Y30167D03*
D328*
X7900Y30167D03*
D485*
X11617Y30167D03*
D486*
X18266Y30167D03*
D408*
X22216Y30167D03*
X28116Y30167D03*
D853*
X2017Y30200D03*
D1045*
X10033Y30200D03*
D514*
X20083Y30200D03*
D311*
X28116Y30200D03*
D1046*
X2033Y30233D03*
D211*
X10000Y30233D03*
D396*
X20117Y30233D03*
D308*
X28100Y30233D03*
D489*
X2050Y30267D03*
D211*
X9967Y30267D03*
D396*
X20150Y30267D03*
D410*
X28083Y30267D03*
D1023*
X2083Y30300D03*
D459*
X9900Y30300D03*
D393*
X20217Y30300D03*
D1047*
X28050Y30300D03*
D1048*
X6767Y30333D03*
D198*
X20266Y30333D03*
D504*
X28016Y30333D03*
D1049*
X6750Y30367D03*
D1050*
X23133Y30367D03*
D1051*
X6733Y30400D03*
D1052*
X23150Y30400D03*
D1053*
X6717Y30433D03*
D1054*
X23166Y30433D03*
X6700Y30467D03*
D1055*
X23183Y30467D03*
D1056*
X6667Y30500D03*
D1057*
X23216Y30500D03*
D1058*
X6650Y30533D03*
D1059*
X23233Y30533D03*
X6633Y30567D03*
D1060*
X23250Y30567D03*
D1061*
X6617Y30600D03*
D1062*
X23266Y30600D03*
D1063*
X6600Y30633D03*
D1064*
X23283Y30633D03*
D1063*
X6566Y30667D03*
D1064*
X23283Y30667D03*
D1062*
X6566Y30700D03*
D1065*
X23283Y30700D03*
D1064*
X6583Y30733D03*
D1066*
X23300Y30733D03*
X6567Y30767D03*
X23300Y30767D03*
D1067*
X6567Y30800D03*
X23300Y30800D03*
D1066*
X6567Y30833D03*
X23300Y30833D03*
D1064*
X6583Y30867D03*
D1066*
X23300Y30867D03*
D1065*
X6583Y30900D03*
X23283Y30900D03*
D1064*
X6583Y30933D03*
X23283Y30933D03*
D1063*
X6600Y30967D03*
X23266Y30967D03*
D1062*
X6600Y31000D03*
X23266Y31000D03*
D1060*
X6617Y31033D03*
X23250Y31033D03*
D1058*
X6650Y31067D03*
X23216Y31067D03*
D1068*
X14933Y31100D03*
D1069*
X14933Y31133D03*
X14933Y31167D03*
D1068*
X14933Y31200D03*
D1069*
X14933Y31233D03*
X14933Y31267D03*
D1068*
X14933Y31300D03*
D1069*
X14933Y31333D03*
X14933Y31367D03*
D1068*
X14933Y31400D03*
D1070*
X14933Y31433D03*
X14933Y31467D03*
D1071*
X14933Y31500D03*
D1070*
X14933Y31533D03*
X14933Y31567D03*
D1071*
X14933Y31600D03*
D1070*
X14933Y31633D03*
X14933Y31667D03*
D1071*
X14933Y31700D03*
D1072*
X14933Y31733D03*
X14933Y31767D03*
D1073*
X14933Y31800D03*
D1072*
X14933Y31833D03*
X14933Y31867D03*
D1073*
X14933Y31900D03*
D1072*
X14933Y31933D03*
D1074*
X14933Y31967D03*
D1075*
X14933Y32000D03*
D1074*
X14933Y32033D03*
X14933Y32067D03*
D1075*
X14933Y32100D03*
D1074*
X14933Y32133D03*
D1076*
X14933Y32167D03*
D1077*
X14933Y32200D03*
D1076*
X14933Y32233D03*
X14933Y32267D03*
D1077*
X14933Y32300D03*
D1076*
X14933Y32333D03*
D1078*
X14933Y32367D03*
D1079*
X14933Y32400D03*
D1078*
X14933Y32433D03*
X14933Y32467D03*
D1079*
X14933Y32500D03*
D1078*
X14933Y32533D03*
D1080*
X14933Y32567D03*
D1081*
X14933Y32600D03*
D1080*
X14933Y32633D03*
X14933Y32667D03*
D1081*
X14933Y32700D03*
D1080*
X14933Y32733D03*
D1082*
X14933Y32767D03*
D1083*
X14933Y32800D03*
D1082*
X14933Y32833D03*
X14933Y32867D03*
D1083*
X14933Y32900D03*
D1082*
X14933Y32933D03*
X14933Y32967D03*
D1084*
X14933Y33000D03*
D1085*
X14933Y33033D03*
X14933Y33067D03*
D1084*
X14933Y33100D03*
D1085*
X14933Y33133D03*
X14933Y33167D03*
D1086*
X14933Y33200D03*
D1087*
X14933Y33233D03*
X14933Y33267D03*
D1086*
X14933Y33300D03*
D1087*
X14933Y33333D03*
X14933Y33367D03*
D1088*
X14933Y33400D03*
D1089*
X14933Y33433D03*
X14933Y33467D03*
D1088*
X14933Y33500D03*
D1089*
X14933Y33533D03*
X14933Y33567D03*
D1090*
X14933Y33600D03*
D1091*
X14933Y33633D03*
X14933Y33667D03*
D1090*
X14933Y33700D03*
D1091*
X14933Y33733D03*
X14933Y33767D03*
D1092*
X14933Y33800D03*
D1093*
X14933Y33833D03*
X14933Y33867D03*
D1092*
X14933Y33900D03*
D1093*
X14933Y33933D03*
X14933Y33967D03*
D1094*
X14933Y34000D03*
D1095*
X14933Y34033D03*
X14933Y34067D03*
D1094*
X14933Y34100D03*
D1095*
X14933Y34133D03*
X14933Y34167D03*
D1096*
X14933Y34200D03*
D1097*
X14933Y34233D03*
X14933Y34267D03*
D1096*
X14933Y34300D03*
D1097*
X14933Y34333D03*
X14933Y34367D03*
D1096*
X14933Y34400D03*
D1098*
X14933Y34433D03*
X14933Y34467D03*
D1099*
X14933Y34500D03*
D1098*
X14933Y34533D03*
X14933Y34567D03*
D1099*
X14933Y34600D03*
D1100*
X14933Y34633D03*
X14933Y34667D03*
D1101*
X14933Y34700D03*
D1100*
X14933Y34733D03*
X14933Y34767D03*
D1101*
X14933Y34800D03*
D1102*
X14933Y34833D03*
X14933Y34867D03*
D1103*
X14933Y34900D03*
D1102*
X14933Y34933D03*
X14933Y34967D03*
D1103*
X14933Y35000D03*
D1104*
X14933Y35033D03*
X14933Y35067D03*
D1105*
X14933Y35100D03*
D1104*
X14933Y35133D03*
X14933Y35167D03*
D1105*
X14933Y35200D03*
D1106*
X14933Y35233D03*
X14933Y35267D03*
D1107*
X14933Y35300D03*
D1106*
X14933Y35333D03*
X14933Y35367D03*
D1107*
X14933Y35400D03*
D1108*
X14933Y35433D03*
X14933Y35467D03*
D1109*
X14933Y35500D03*
D1108*
X14933Y35533D03*
X14933Y35567D03*
D1109*
X14933Y35600D03*
D1110*
X14933Y35633D03*
X14933Y35667D03*
D1111*
X14933Y35700D03*
D1110*
X14933Y35733D03*
X14933Y35767D03*
D1111*
X14933Y35800D03*
D1110*
X14933Y35833D03*
D1112*
X14933Y35867D03*
D1113*
X14933Y35900D03*
D1112*
X14933Y35933D03*
X14933Y35967D03*
D1113*
X14933Y36000D03*
D1112*
X14933Y36033D03*
D1114*
X14933Y36067D03*
D1115*
X14933Y36100D03*
D1114*
X14933Y36133D03*
X14933Y36167D03*
D1115*
X14933Y36200D03*
D1114*
X14933Y36233D03*
D1116*
X14933Y36267D03*
D1117*
X14933Y36300D03*
D1116*
X14933Y36333D03*
X14933Y36367D03*
D1117*
X14933Y36400D03*
D1116*
X14933Y36433D03*
D1118*
X14933Y36467D03*
D1119*
X14933Y36500D03*
D1118*
X14933Y36533D03*
X14933Y36567D03*
D1119*
X14933Y36600D03*
D1118*
X14933Y36633D03*
D1120*
X14933Y36667D03*
D1121*
X14933Y36700D03*
D1120*
X14933Y36733D03*
X14933Y36767D03*
D1121*
X14933Y36800D03*
D1120*
X14933Y36833D03*
D1122*
X14933Y36867D03*
D1123*
X14933Y36900D03*
D1122*
X14933Y36933D03*
X14933Y36967D03*
D1123*
X14933Y37000D03*
D1122*
X14933Y37033D03*
X14933Y37067D03*
D1124*
X14950Y37100D03*
D1125*
X14950Y37133D03*
D1126*
X14933Y37167D03*
D1127*
X14933Y37200D03*
D1126*
X14933Y37233D03*
X14933Y37267D03*
D1128*
X14950Y37300D03*
D1129*
X14933Y37333D03*
X14933Y37367D03*
D1130*
X14933Y37400D03*
D1129*
X14933Y37433D03*
D1131*
X14950Y37467D03*
D1132*
X14933Y37500D03*
D1133*
X14933Y37533D03*
X14933Y37567D03*
D1132*
X14933Y37600D03*
D1134*
X14917Y37633D03*
D1135*
X14933Y37667D03*
D1136*
X14933Y37700D03*
D1135*
X14933Y37733D03*
X14933Y37767D03*
D1137*
X14933Y37800D03*
D1138*
X14933Y37833D03*
X14933Y37867D03*
D1137*
X14933Y37900D03*
D1139*
X14950Y37933D03*
D1140*
X14933Y37967D03*
D1141*
X14933Y38000D03*
D1140*
X14933Y38033D03*
D1142*
X14950Y38067D03*
D1143*
X14950Y38100D03*
D981*
X14933Y38133D03*
X14933Y38167D03*
D1144*
X14950Y38200D03*
D1145*
X14950Y38233D03*
D980*
X14933Y38267D03*
D979*
X14933Y38300D03*
D980*
X14933Y38333D03*
D1146*
X14950Y38367D03*
D1147*
X14950Y38400D03*
D978*
X14933Y38433D03*
X14933Y38467D03*
D1148*
X14950Y38500D03*
D1149*
X14950Y38533D03*
D1049*
X7983Y38567D03*
X21916Y38567D03*
D1067*
X7800Y38600D03*
D1150*
X22083Y38600D03*
D1151*
X7700Y38633D03*
D1152*
X22200Y38633D03*
D1153*
X7633Y38667D03*
D717*
X22283Y38667D03*
D1154*
X7550Y38700D03*
X22350Y38700D03*
D723*
X7500Y38733D03*
D1155*
X22417Y38733D03*
D727*
X7433Y38767D03*
D728*
X22450Y38767D03*
D1156*
X7383Y38800D03*
D729*
X22500Y38800D03*
D732*
X7350Y38833D03*
X22550Y38833D03*
D734*
X7300Y38867D03*
X22600Y38867D03*
D738*
X7267Y38900D03*
D1157*
X22633Y38900D03*
D624*
X7217Y38933D03*
D621*
X22666Y38933D03*
D619*
X7183Y38967D03*
D613*
X22700Y38967D03*
D643*
X7167Y39000D03*
D602*
X22750Y39000D03*
D601*
X7133Y39033D03*
D1158*
X22783Y39033D03*
D594*
X7100Y39067D03*
D748*
X22800Y39067D03*
D1159*
X7067Y39100D03*
D586*
X22833Y39100D03*
D584*
X7050Y39133D03*
D754*
X22867Y39133D03*
D756*
X7016Y39167D03*
X22883Y39167D03*
D1160*
X6983Y39200D03*
D1161*
X22917Y39200D03*
D759*
X6966Y39233D03*
D572*
X22933Y39233D03*
X6933Y39267D03*
D876*
X22950Y39267D03*
D1162*
X6917Y39300D03*
D1163*
X22983Y39300D03*
D669*
X6900Y39333D03*
D1164*
X23017Y39333D03*
D563*
X6867Y39367D03*
D762*
X23033Y39367D03*
D668*
X6850Y39400D03*
D1165*
X23050Y39400D03*
D1166*
X6833Y39433D03*
D558*
X23066Y39433D03*
D1167*
X6817Y39467D03*
D1168*
X23083Y39467D03*
D556*
X6800Y39500D03*
D1169*
X23116Y39500D03*
D552*
X6767Y39533D03*
D1170*
X23117Y39533D03*
X6750Y39567D03*
D1171*
X23133Y39567D03*
D1172*
X6750Y39600D03*
D1173*
X23167Y39600D03*
D547*
X6733Y39633D03*
D766*
X23183Y39633D03*
D661*
X6700Y39667D03*
X23200Y39667D03*
D1174*
X6683Y39700D03*
D1175*
X23200Y39700D03*
D541*
X6666Y39733D03*
D1176*
X23217Y39733D03*
D1177*
X6667Y39767D03*
D537*
X23250Y39767D03*
D986*
X6650Y39800D03*
D1178*
X23267Y39800D03*
D1179*
X6633Y39833D03*
D535*
X23283Y39833D03*
D865*
X6617Y39867D03*
D1180*
X23283Y39867D03*
D532*
X6600Y39900D03*
D1181*
X23300Y39900D03*
D530*
X6600Y39933D03*
D527*
X23316Y39933D03*
X6583Y39967D03*
D1182*
X23333Y39967D03*
D1183*
X6567Y40000D03*
D525*
X23350Y40000D03*
D1184*
X6550Y40033D03*
D646*
X23350Y40033D03*
D524*
X6533Y40067D03*
D652*
X23367Y40067D03*
D659*
X6533Y40100D03*
D663*
X23383Y40100D03*
D653*
X6516Y40133D03*
D665*
X23400Y40133D03*
X6500Y40167D03*
D651*
X23383Y40167D03*
D1185*
X6483Y40200D03*
D127*
X23400Y40200D03*
D1186*
X6483Y40233D03*
D129*
X23417Y40233D03*
D128*
X6467Y40267D03*
D647*
X23433Y40267D03*
D130*
X6467Y40300D03*
D133*
X23450Y40300D03*
D131*
X6450Y40333D03*
D136*
X23450Y40333D03*
D678*
X6433Y40367D03*
D136*
X23450Y40367D03*
D137*
X6433Y40400D03*
X23466Y40400D03*
D515*
X6417Y40433D03*
D138*
X23483Y40433D03*
D515*
X6417Y40467D03*
D139*
X23500Y40467D03*
D140*
X6400Y40500D03*
D143*
X23500Y40500D03*
D141*
X6383Y40533D03*
D142*
X23500Y40533D03*
D144*
X6383Y40567D03*
D146*
X23517Y40567D03*
D1187*
X6383Y40600D03*
D147*
X23533Y40600D03*
D145*
X6366Y40633D03*
X23533Y40633D03*
D510*
X6350Y40667D03*
D1188*
X23533Y40667D03*
D150*
X6367Y40700D03*
D509*
X23550Y40700D03*
D152*
X6350Y40733D03*
X23550Y40733D03*
D697*
X6333Y40767D03*
D151*
X23567Y40767D03*
D1189*
X6333Y40800D03*
D700*
X23566Y40800D03*
D507*
X6317Y40833D03*
D155*
X23566Y40833D03*
D505*
X6317Y40867D03*
D156*
X23583Y40867D03*
D158*
X6317Y40900D03*
D157*
X23600Y40900D03*
D159*
X6300Y40933D03*
X23600Y40933D03*
X6300Y40967D03*
D160*
X23600Y40967D03*
D704*
X6283Y41000D03*
D162*
X23600Y41000D03*
D160*
X6300Y41033D03*
D164*
X23617Y41033D03*
D1029*
X6283Y41067D03*
D164*
X23617Y41067D03*
D708*
X6283Y41100D03*
D629*
X23633Y41100D03*
D163*
X6266Y41133D03*
D626*
X23617Y41133D03*
D163*
X6266Y41167D03*
D498*
X23633Y41167D03*
D165*
X6267Y41200D03*
D713*
X23633Y41200D03*
D168*
X6267Y41233D03*
D167*
X23650Y41233D03*
X6250Y41267D03*
X23650Y41267D03*
D622*
X6250Y41300D03*
D497*
X23650Y41300D03*
D1190*
X6250Y41333D03*
X23650Y41333D03*
X6250Y41367D03*
D172*
X23666Y41367D03*
D1191*
X6233Y41400D03*
D1192*
X23083Y41400D03*
D1193*
X27450Y41400D03*
D172*
X6233Y41433D03*
D1194*
X23083Y41433D03*
D634*
X27433Y41433D03*
D277*
X2450Y41467D03*
D203*
X6817Y41467D03*
D202*
X23067Y41467D03*
D634*
X27433Y41467D03*
D276*
X2466Y41500D03*
D755*
X6833Y41500D03*
D204*
X23067Y41500D03*
D276*
X27433Y41500D03*
D634*
X2466Y41533D03*
D341*
X6850Y41533D03*
D209*
X23050Y41533D03*
D634*
X27433Y41533D03*
D280*
X2483Y41567D03*
D209*
X6850Y41567D03*
D208*
X23033Y41567D03*
D277*
X27417Y41567D03*
D1195*
X2483Y41600D03*
D339*
X6866Y41600D03*
D1045*
X23033Y41600D03*
D276*
X27400Y41600D03*
D280*
X2483Y41633D03*
D211*
X6867Y41633D03*
D25*
X23016Y41633D03*
D634*
X27400Y41633D03*
X2500Y41667D03*
D25*
X6883Y41667D03*
D457*
X23000Y41667D03*
D634*
X27400Y41667D03*
D276*
X2500Y41700D03*
D215*
X6900Y41700D03*
D20*
X23000Y41700D03*
D276*
X27400Y41700D03*
D277*
X2517Y41733D03*
D219*
X6900Y41733D03*
D452*
X22983Y41733D03*
D280*
X27383Y41733D03*
D277*
X2517Y41767D03*
D348*
X6917Y41767D03*
D448*
X22983Y41767D03*
D634*
X27366Y41767D03*
D1193*
X2517Y41800D03*
D1196*
X6933Y41800D03*
D224*
X22967Y41800D03*
D276*
X27366Y41800D03*
D634*
X2533Y41833D03*
D447*
X6933Y41833D03*
D1197*
X22950Y41833D03*
D634*
X27366Y41833D03*
X2533Y41867D03*
D1197*
X6950Y41867D03*
D352*
X22950Y41867D03*
D277*
X27350Y41867D03*
D1193*
X2550Y41900D03*
D223*
X6966Y41900D03*
D809*
X22916Y41900D03*
D1193*
X27350Y41900D03*
D277*
X2550Y41933D03*
D354*
X6983Y41933D03*
D229*
X22900Y41933D03*
D634*
X27333Y41933D03*
X2566Y41967D03*
D229*
X7000Y41967D03*
D811*
X22883Y41967D03*
D634*
X27333Y41967D03*
D276*
X2566Y42000D03*
D233*
X7017Y42000D03*
D440*
X22883Y42000D03*
D276*
X27333Y42000D03*
D280*
X2583Y42033D03*
D358*
X7017Y42033D03*
D237*
X22867Y42033D03*
D277*
X27317Y42033D03*
D280*
X2583Y42067D03*
D1198*
X7033Y42067D03*
D770*
X22850Y42067D03*
D277*
X27317Y42067D03*
D1195*
X2583Y42100D03*
D772*
X7067Y42100D03*
D819*
X22833Y42100D03*
D276*
X27300Y42100D03*
D634*
X2600Y42133D03*
D816*
X7083Y42133D03*
D775*
X22817Y42133D03*
D634*
X27300Y42133D03*
X2600Y42167D03*
D435*
X7083Y42167D03*
D365*
X22800Y42167D03*
D634*
X27300Y42167D03*
D1193*
X2617Y42200D03*
D1199*
X7100Y42200D03*
D242*
X22783Y42200D03*
D1195*
X27283Y42200D03*
D277*
X2617Y42233D03*
D366*
X7116Y42233D03*
D246*
X22766Y42233D03*
D634*
X27266Y42233D03*
D277*
X2617Y42267D03*
D370*
X7150Y42267D03*
D378*
X22750Y42267D03*
D634*
X27266Y42267D03*
D276*
X2633Y42300D03*
D423*
X7150Y42300D03*
D381*
X22733Y42300D03*
D276*
X27266Y42300D03*
D634*
X2633Y42333D03*
D384*
X7183Y42333D03*
D388*
X22700Y42333D03*
D634*
X27266Y42333D03*
D277*
X2650Y42367D03*
D388*
X7200Y42367D03*
D394*
X22683Y42367D03*
D277*
X27250Y42367D03*
D1193*
X2650Y42400D03*
D1200*
X7217Y42400D03*
D1201*
X22683Y42400D03*
D276*
X27233Y42400D03*
D634*
X2666Y42433D03*
D400*
X7250Y42433D03*
D255*
X22650Y42433D03*
D634*
X27233Y42433D03*
X2666Y42467D03*
D255*
X7250Y42467D03*
D416*
X22633Y42467D03*
D634*
X27233Y42467D03*
D276*
X2666Y42500D03*
D1202*
X7283Y42500D03*
D264*
X22600Y42500D03*
D1193*
X27217Y42500D03*
D280*
X2683Y42533D03*
D259*
X7300Y42533D03*
D823*
X22583Y42533D03*
D277*
X27217Y42533D03*
D280*
X2683Y42567D03*
D1203*
X7333Y42567D03*
D268*
X22567Y42567D03*
D634*
X27200Y42567D03*
D276*
X2700Y42600D03*
D825*
X7350Y42600D03*
D1204*
X22550Y42600D03*
D276*
X27200Y42600D03*
D634*
X2700Y42633D03*
D1205*
X7383Y42633D03*
D433*
X22517Y42633D03*
D634*
X27200Y42633D03*
D277*
X2717Y42667D03*
D267*
X7383Y42667D03*
D272*
X22500Y42667D03*
D280*
X27183Y42667D03*
D1193*
X2717Y42700D03*
D1206*
X7416Y42700D03*
D436*
X22467Y42700D03*
D1195*
X27183Y42700D03*
D277*
X2717Y42733D03*
D1207*
X7433Y42733D03*
D831*
X22433Y42733D03*
D634*
X27166Y42733D03*
X2733Y42767D03*
D831*
X7466Y42767D03*
D438*
X22417Y42767D03*
D634*
X27166Y42767D03*
D276*
X2733Y42800D03*
D274*
X7500Y42800D03*
D833*
X22383Y42800D03*
D276*
X27166Y42800D03*
D277*
X2750Y42833D03*
D279*
X7516Y42833D03*
D278*
X22366Y42833D03*
D277*
X27150Y42833D03*
X2750Y42867D03*
D441*
X7567Y42867D03*
D835*
X22317Y42867D03*
D634*
X27133Y42867D03*
D1193*
X2750Y42900D03*
D1208*
X7633Y42900D03*
D1209*
X22250Y42900D03*
D276*
X27133Y42900D03*
D634*
X2766Y42933D03*
D1210*
X7683Y42933D03*
D278*
X22200Y42933D03*
D634*
X27133Y42933D03*
X2766Y42967D03*
D835*
X7750Y42967D03*
D278*
X22133Y42967D03*
D634*
X27133Y42967D03*
D1195*
X2783Y43000D03*
D1211*
X7800Y43000D03*
D1212*
X22083Y43000D03*
D1193*
X27117Y43000D03*
D280*
X2783Y43033D03*
D278*
X7866Y43033D03*
D283*
X22017Y43033D03*
D634*
X27100Y43033D03*
X2800Y43067D03*
D278*
X7933Y43067D03*
D283*
X21950Y43067D03*
D634*
X27100Y43067D03*
D276*
X2800Y43100D03*
D1212*
X7983Y43100D03*
D1213*
X21900Y43100D03*
D276*
X27100Y43100D03*
D634*
X2800Y43133D03*
D283*
X8050Y43133D03*
D1214*
X21833Y43133D03*
D280*
X27083Y43133D03*
D277*
X2817Y43167D03*
D790*
X8100Y43167D03*
D446*
X21783Y43167D03*
D280*
X27083Y43167D03*
D1193*
X2817Y43200D03*
D1213*
X8167Y43200D03*
D1215*
X21716Y43200D03*
D276*
X27066Y43200D03*
D634*
X2833Y43233D03*
D446*
X8250Y43233D03*
D1216*
X21633Y43233D03*
D634*
X27066Y43233D03*
X2833Y43267D03*
D282*
X8300Y43267D03*
D1217*
X21583Y43267D03*
D634*
X27066Y43267D03*
D1193*
X2850Y43300D03*
D792*
X8367Y43300D03*
D1218*
X21500Y43300D03*
D1193*
X27050Y43300D03*
D277*
X2850Y43333D03*
D451*
X8433Y43333D03*
D453*
X21450Y43333D03*
D277*
X27050Y43333D03*
X2850Y43367D03*
D453*
X8517Y43367D03*
D794*
X21367Y43367D03*
D634*
X27033Y43367D03*
D276*
X2866Y43400D03*
D1219*
X8583Y43400D03*
D286*
X21300Y43400D03*
D276*
X27033Y43400D03*
D634*
X2866Y43433D03*
D456*
X8650Y43433D03*
D1220*
X21233Y43433D03*
D634*
X27033Y43433D03*
D280*
X2883Y43467D03*
D1220*
X8733Y43467D03*
D987*
X21150Y43467D03*
D277*
X27017Y43467D03*
D1195*
X2883Y43500D03*
D458*
X8800Y43500D03*
X21066Y43500D03*
D276*
X27000Y43500D03*
D634*
X2900Y43533D03*
D294*
X8900Y43533D03*
D796*
X20983Y43533D03*
D634*
X27000Y43533D03*
X2900Y43567D03*
D796*
X8983Y43567D03*
D846*
X20900Y43567D03*
D634*
X27000Y43567D03*
D276*
X2900Y43600D03*
D297*
X9066Y43600D03*
D990*
X20817Y43600D03*
D276*
X27000Y43600D03*
D277*
X2917Y43633D03*
D469*
X9167Y43633D03*
D1030*
X20716Y43633D03*
D280*
X26983Y43633D03*
D277*
X2917Y43667D03*
D332*
X8617Y43667D03*
D1008*
X10883Y43667D03*
D289*
X19000Y43667D03*
D893*
X21233Y43667D03*
D634*
X26966Y43667D03*
D276*
X2933Y43700D03*
D901*
X8767Y43700D03*
D801*
X10933Y43700D03*
X18966Y43700D03*
D387*
X21116Y43700D03*
D276*
X26966Y43700D03*
D634*
X2933Y43733D03*
D1221*
X8916Y43733D03*
D289*
X11000Y43733D03*
X18900Y43733D03*
D324*
X20967Y43733D03*
D634*
X26966Y43733D03*
X2933Y43767D03*
D1222*
X9016Y43767D03*
D292*
X11017Y43767D03*
D1008*
X18883Y43767D03*
D1039*
X20867Y43767D03*
D277*
X26950Y43767D03*
D1193*
X2950Y43800D03*
D122*
X9133Y43800D03*
D48*
X11050Y43800D03*
X18850Y43800D03*
D725*
X20750Y43800D03*
D1193*
X26950Y43800D03*
D277*
X2950Y43833D03*
D88*
X9233Y43833D03*
D51*
X11050Y43833D03*
D298*
X18833Y43833D03*
D111*
X20617Y43833D03*
D634*
X26933Y43833D03*
X2966Y43867D03*
D79*
X11050Y43867D03*
D774*
X18833Y43867D03*
D634*
X26933Y43867D03*
D276*
X2966Y43900D03*
D69*
X11033Y43900D03*
D76*
X18867Y43900D03*
D276*
X26933Y43900D03*
D280*
X2983Y43933D03*
D73*
X11000Y43933D03*
X18900Y43933D03*
D277*
X26917Y43933D03*
D280*
X2983Y43967D03*
D73*
X10967Y43967D03*
D810*
X18933Y43967D03*
D277*
X26917Y43967D03*
D1195*
X2983Y44000D03*
D69*
X10933Y44000D03*
D76*
X18967Y44000D03*
D276*
X26900Y44000D03*
D634*
X3000Y44033D03*
D73*
X10900Y44033D03*
X19000Y44033D03*
D634*
X26900Y44033D03*
X3000Y44067D03*
D73*
X10867Y44067D03*
D810*
X19033Y44067D03*
D634*
X26900Y44067D03*
D1193*
X3017Y44100D03*
D69*
X10833Y44100D03*
D76*
X19067Y44100D03*
D1195*
X26883Y44100D03*
D277*
X3017Y44133D03*
D73*
X10800Y44133D03*
X19100Y44133D03*
D634*
X26866Y44133D03*
X3033Y44167D03*
D73*
X10767Y44167D03*
D810*
X19133Y44167D03*
D634*
X26866Y44167D03*
D276*
X3033Y44200D03*
D69*
X10733Y44200D03*
D76*
X19167Y44200D03*
D276*
X26866Y44200D03*
D634*
X3033Y44233D03*
D73*
X10700Y44233D03*
X19200Y44233D03*
D634*
X26866Y44233D03*
D277*
X3050Y44267D03*
D73*
X10667Y44267D03*
D810*
X19233Y44267D03*
D277*
X26850Y44267D03*
D1193*
X3050Y44300D03*
D69*
X10633Y44300D03*
D76*
X19267Y44300D03*
D276*
X26833Y44300D03*
D634*
X3066Y44333D03*
D73*
X10600Y44333D03*
X19300Y44333D03*
D634*
X26833Y44333D03*
X3066Y44367D03*
D73*
X10567Y44367D03*
D810*
X19333Y44367D03*
D634*
X26833Y44367D03*
D276*
X3066Y44400D03*
D69*
X10533Y44400D03*
D76*
X19367Y44400D03*
D1193*
X26817Y44400D03*
D280*
X3083Y44433D03*
D73*
X10500Y44433D03*
X19400Y44433D03*
D277*
X26817Y44433D03*
D280*
X3083Y44467D03*
D73*
X10467Y44467D03*
D810*
X19433Y44467D03*
D634*
X26800Y44467D03*
D276*
X3100Y44500D03*
D69*
X10433Y44500D03*
D76*
X19467Y44500D03*
D276*
X26800Y44500D03*
D634*
X3100Y44533D03*
D79*
X10383Y44533D03*
X19516Y44533D03*
D634*
X26800Y44533D03*
D277*
X3117Y44567D03*
D79*
X10350Y44567D03*
X19550Y44567D03*
D280*
X26783Y44567D03*
D1193*
X3117Y44600D03*
D82*
X10316Y44600D03*
X19583Y44600D03*
D1195*
X26783Y44600D03*
D634*
X3133Y44633D03*
D79*
X10283Y44633D03*
X19616Y44633D03*
D634*
X26766Y44633D03*
X3133Y44667D03*
D79*
X10250Y44667D03*
X19650Y44667D03*
D634*
X26766Y44667D03*
D276*
X3133Y44700D03*
D82*
X10216Y44700D03*
X19683Y44700D03*
D276*
X26766Y44700D03*
D277*
X3150Y44733D03*
D79*
X10183Y44733D03*
X19716Y44733D03*
D277*
X26750Y44733D03*
X3150Y44767D03*
D79*
X10150Y44767D03*
X19750Y44767D03*
D634*
X26733Y44767D03*
D276*
X3166Y44800D03*
D82*
X10116Y44800D03*
X19783Y44800D03*
D276*
X26733Y44800D03*
D634*
X3166Y44833D03*
D79*
X10083Y44833D03*
X19816Y44833D03*
D634*
X26733Y44833D03*
X3166Y44867D03*
D79*
X10050Y44867D03*
X19850Y44867D03*
D634*
X26733Y44867D03*
D1195*
X3183Y44900D03*
D82*
X10016Y44900D03*
X19883Y44900D03*
D1193*
X26717Y44900D03*
D280*
X3183Y44933D03*
D79*
X9983Y44933D03*
X19916Y44933D03*
D634*
X26700Y44933D03*
X3200Y44967D03*
D79*
X9950Y44967D03*
X19950Y44967D03*
D634*
X26700Y44967D03*
D276*
X3200Y45000D03*
D82*
X9916Y45000D03*
X19983Y45000D03*
D276*
X26700Y45000D03*
D634*
X3200Y45033D03*
D79*
X9883Y45033D03*
X20016Y45033D03*
D280*
X26683Y45033D03*
D277*
X3217Y45067D03*
D79*
X9850Y45067D03*
X20050Y45067D03*
D280*
X26683Y45067D03*
D1193*
X3217Y45100D03*
D82*
X9816Y45100D03*
X20083Y45100D03*
D276*
X26666Y45100D03*
D634*
X3233Y45133D03*
D79*
X9783Y45133D03*
X20116Y45133D03*
D634*
X26666Y45133D03*
X3233Y45167D03*
D79*
X9750Y45167D03*
X20150Y45167D03*
D634*
X26666Y45167D03*
D1193*
X3250Y45200D03*
D82*
X9716Y45200D03*
X20183Y45200D03*
D1193*
X26650Y45200D03*
D277*
X3250Y45233D03*
D79*
X9683Y45233D03*
X20216Y45233D03*
D277*
X26650Y45233D03*
D634*
X3266Y45267D03*
D79*
X9650Y45267D03*
X20250Y45267D03*
D634*
X26633Y45267D03*
D276*
X3266Y45300D03*
D82*
X9616Y45300D03*
X20283Y45300D03*
D276*
X26633Y45300D03*
D634*
X3266Y45333D03*
D79*
X9583Y45333D03*
X20316Y45333D03*
D634*
X26633Y45333D03*
D280*
X3283Y45367D03*
D79*
X9550Y45367D03*
X20350Y45367D03*
D277*
X26617Y45367D03*
D1195*
X3283Y45400D03*
D82*
X9516Y45400D03*
X20383Y45400D03*
D276*
X26600Y45400D03*
D634*
X3300Y45433D03*
D79*
X9483Y45433D03*
X20416Y45433D03*
D634*
X26600Y45433D03*
X3300Y45467D03*
D79*
X9450Y45467D03*
X20450Y45467D03*
D634*
X26600Y45467D03*
D276*
X3300Y45500D03*
D82*
X9416Y45500D03*
X20483Y45500D03*
D276*
X26600Y45500D03*
D277*
X3317Y45533D03*
D79*
X9383Y45533D03*
X20516Y45533D03*
D280*
X26583Y45533D03*
D277*
X3317Y45567D03*
D810*
X9333Y45567D03*
D73*
X20567Y45567D03*
D634*
X26566Y45567D03*
D276*
X3333Y45600D03*
D76*
X9300Y45600D03*
X20600Y45600D03*
D276*
X26566Y45600D03*
D634*
X3333Y45633D03*
D73*
X9267Y45633D03*
D810*
X20633Y45633D03*
D634*
X26566Y45633D03*
X3333Y45667D03*
D810*
X9233Y45667D03*
D73*
X20667Y45667D03*
D277*
X26550Y45667D03*
D1193*
X3350Y45700D03*
D76*
X9200Y45700D03*
X20700Y45700D03*
D1193*
X26550Y45700D03*
D277*
X3350Y45733D03*
D73*
X9167Y45733D03*
D810*
X20733Y45733D03*
D634*
X26533Y45733D03*
X3366Y45767D03*
D810*
X9133Y45767D03*
D73*
X20767Y45767D03*
D634*
X26533Y45767D03*
D276*
X3366Y45800D03*
D76*
X9100Y45800D03*
X20800Y45800D03*
D276*
X26533Y45800D03*
D280*
X3383Y45833D03*
D73*
X9067Y45833D03*
D810*
X20833Y45833D03*
D277*
X26517Y45833D03*
D280*
X3383Y45867D03*
D810*
X9033Y45867D03*
D73*
X20867Y45867D03*
D277*
X26517Y45867D03*
D276*
X3400Y45900D03*
D76*
X9000Y45900D03*
X20900Y45900D03*
D276*
X26500Y45900D03*
D634*
X3400Y45933D03*
D73*
X8967Y45933D03*
D810*
X20933Y45933D03*
D634*
X26500Y45933D03*
X3400Y45967D03*
D810*
X8933Y45967D03*
D73*
X20967Y45967D03*
D634*
X26500Y45967D03*
D1193*
X3417Y46000D03*
D76*
X8900Y46000D03*
X21000Y46000D03*
D1195*
X26483Y46000D03*
D277*
X3417Y46033D03*
D73*
X8867Y46033D03*
D810*
X21033Y46033D03*
D634*
X26466Y46033D03*
X3433Y46067D03*
D810*
X8833Y46067D03*
D73*
X21067Y46067D03*
D634*
X26466Y46067D03*
D276*
X3433Y46100D03*
D76*
X8800Y46100D03*
X21100Y46100D03*
D276*
X26466Y46100D03*
D634*
X3433Y46133D03*
D73*
X8767Y46133D03*
D810*
X21133Y46133D03*
D634*
X26466Y46133D03*
D277*
X3450Y46167D03*
D810*
X8733Y46167D03*
D73*
X21167Y46167D03*
D277*
X26450Y46167D03*
D1193*
X3450Y46200D03*
D82*
X8683Y46200D03*
X21216Y46200D03*
D276*
X26433Y46200D03*
D634*
X3466Y46233D03*
D79*
X8650Y46233D03*
X21250Y46233D03*
D634*
X26433Y46233D03*
X3466Y46267D03*
D79*
X8616Y46267D03*
X21283Y46267D03*
D634*
X26433Y46267D03*
D276*
X3466Y46300D03*
D82*
X8583Y46300D03*
X21316Y46300D03*
D1193*
X26417Y46300D03*
D280*
X3483Y46333D03*
D79*
X8550Y46333D03*
X21350Y46333D03*
D277*
X26417Y46333D03*
D634*
X3500Y46367D03*
D79*
X8516Y46367D03*
X21383Y46367D03*
D634*
X26400Y46367D03*
D276*
X3500Y46400D03*
D82*
X8483Y46400D03*
X21416Y46400D03*
D276*
X26400Y46400D03*
D634*
X3500Y46433D03*
D79*
X8450Y46433D03*
X21450Y46433D03*
D634*
X26400Y46433D03*
D277*
X3517Y46467D03*
D79*
X8416Y46467D03*
X21483Y46467D03*
D280*
X26383Y46467D03*
D1193*
X3517Y46500D03*
D82*
X8383Y46500D03*
X21516Y46500D03*
D1195*
X26383Y46500D03*
D634*
X3533Y46533D03*
D79*
X8350Y46533D03*
X21550Y46533D03*
D634*
X26366Y46533D03*
X3533Y46567D03*
D79*
X8316Y46567D03*
X21583Y46567D03*
D634*
X26366Y46567D03*
D276*
X3533Y46600D03*
D82*
X8283Y46600D03*
X21616Y46600D03*
D276*
X26366Y46600D03*
D277*
X3550Y46633D03*
D79*
X8250Y46633D03*
X21650Y46633D03*
D277*
X26350Y46633D03*
X3550Y46667D03*
D79*
X8216Y46667D03*
X21683Y46667D03*
D634*
X26333Y46667D03*
D276*
X3566Y46700D03*
D82*
X8183Y46700D03*
X21716Y46700D03*
D276*
X26333Y46700D03*
D634*
X3566Y46733D03*
D79*
X8150Y46733D03*
X21750Y46733D03*
D634*
X26333Y46733D03*
X3566Y46767D03*
D79*
X8116Y46767D03*
X21783Y46767D03*
D634*
X26333Y46767D03*
D1195*
X3583Y46800D03*
D82*
X8083Y46800D03*
X21816Y46800D03*
D1193*
X26317Y46800D03*
D280*
X3583Y46833D03*
D79*
X8050Y46833D03*
X21850Y46833D03*
D634*
X26300Y46833D03*
X3600Y46867D03*
D79*
X8016Y46867D03*
X21883Y46867D03*
D634*
X26300Y46867D03*
D276*
X3600Y46900D03*
D82*
X7983Y46900D03*
X21916Y46900D03*
D276*
X26300Y46900D03*
D277*
X3617Y46933D03*
D79*
X7950Y46933D03*
X21950Y46933D03*
D280*
X26283Y46933D03*
D277*
X3617Y46967D03*
D79*
X7916Y46967D03*
X21983Y46967D03*
D280*
X26283Y46967D03*
D276*
X3633Y47000D03*
D82*
X7883Y47000D03*
X22016Y47000D03*
D276*
X26266Y47000D03*
D634*
X3633Y47033D03*
D79*
X7850Y47033D03*
X22050Y47033D03*
D634*
X26266Y47033D03*
X3633Y47067D03*
D79*
X7816Y47067D03*
X22083Y47067D03*
D634*
X26266Y47067D03*
D1193*
X3650Y47100D03*
D82*
X7783Y47100D03*
X22116Y47100D03*
D1193*
X26250Y47100D03*
D277*
X3650Y47133D03*
D79*
X7750Y47133D03*
X22150Y47133D03*
D277*
X26250Y47133D03*
D634*
X3666Y47167D03*
D79*
X7716Y47167D03*
X22183Y47167D03*
D634*
X26233Y47167D03*
D276*
X3666Y47200D03*
D82*
X7683Y47200D03*
X22216Y47200D03*
D276*
X26233Y47200D03*
D634*
X3666Y47233D03*
D79*
X7650Y47233D03*
X22250Y47233D03*
D634*
X26233Y47233D03*
D280*
X3683Y47267D03*
D73*
X7600Y47267D03*
D79*
X22283Y47267D03*
D277*
X26217Y47267D03*
D1195*
X3683Y47300D03*
D76*
X7567Y47300D03*
D69*
X22333Y47300D03*
D276*
X26200Y47300D03*
D634*
X3700Y47333D03*
D810*
X7533Y47333D03*
D73*
X22367Y47333D03*
D634*
X26200Y47333D03*
D277*
X3717Y47367D03*
D73*
X7500Y47367D03*
X22400Y47367D03*
D280*
X26183Y47367D03*
D1193*
X3717Y47400D03*
D76*
X7467Y47400D03*
D69*
X22433Y47400D03*
D1195*
X26183Y47400D03*
D277*
X3717Y47433D03*
D810*
X7433Y47433D03*
D73*
X22467Y47433D03*
D280*
X26183Y47433D03*
D277*
X3750Y47467D03*
D73*
X7400Y47467D03*
X22500Y47467D03*
D277*
X26150Y47467D03*
D1193*
X3750Y47500D03*
D76*
X7367Y47500D03*
D69*
X22533Y47500D03*
D1193*
X26150Y47500D03*
D281*
X3767Y47533D03*
D810*
X7333Y47533D03*
D73*
X22567Y47533D03*
D630*
X26133Y47533D03*
D281*
X3767Y47567D03*
D73*
X7300Y47567D03*
X22600Y47567D03*
D284*
X26116Y47567D03*
D15*
X3783Y47600D03*
D76*
X7267Y47600D03*
D69*
X22633Y47600D03*
D15*
X26116Y47600D03*
D284*
X3816Y47633D03*
D810*
X7233Y47633D03*
D73*
X22667Y47633D03*
D284*
X26083Y47633D03*
D1223*
X3833Y47667D03*
D73*
X7200Y47667D03*
X22700Y47667D03*
D623*
X26067Y47667D03*
D16*
X3833Y47700D03*
D76*
X7167Y47700D03*
D69*
X22733Y47700D03*
D288*
X26067Y47700D03*
D798*
X3850Y47733D03*
D810*
X7133Y47733D03*
D73*
X22767Y47733D03*
D798*
X26050Y47733D03*
D289*
X3866Y47767D03*
D73*
X7100Y47767D03*
X22800Y47767D03*
D289*
X26033Y47767D03*
D801*
X3900Y47800D03*
D76*
X7067Y47800D03*
D69*
X22833Y47800D03*
D801*
X26000Y47800D03*
D292*
X3917Y47833D03*
D79*
X7016Y47833D03*
D73*
X22867Y47833D03*
D1008*
X25983Y47833D03*
D13*
X3933Y47867D03*
D79*
X6983Y47867D03*
D73*
X22900Y47867D03*
D14*
X25967Y47867D03*
D48*
X3950Y47900D03*
D82*
X6950Y47900D03*
X22950Y47900D03*
D295*
X25933Y47900D03*
D610*
X3983Y47933D03*
D73*
X6900Y47933D03*
X23000Y47933D03*
D65*
X25900Y47933D03*
D67*
X4017Y47967D03*
D73*
X6867Y47967D03*
D810*
X23033Y47967D03*
D610*
X25883Y47967D03*
D1224*
X4050Y48000D03*
D305*
X6817Y48000D03*
D68*
X23083Y48000D03*
D1224*
X25850Y48000D03*
D79*
X4083Y48033D03*
D49*
X6766Y48033D03*
X23133Y48033D03*
D79*
X25816Y48033D03*
D49*
X4133Y48067D03*
D53*
X6717Y48067D03*
D66*
X23183Y48067D03*
D49*
X25766Y48067D03*
D46*
X4200Y48100D03*
D60*
X6650Y48100D03*
X23250Y48100D03*
D46*
X25700Y48100D03*
D55*
X4266Y48133D03*
D78*
X6550Y48133D03*
D55*
X23333Y48133D03*
D78*
X25617Y48133D03*
D301*
X5400Y48167D03*
X24500Y48167D03*
D1038*
X5383Y48200D03*
D304*
X24517Y48200D03*
D486*
X5366Y48233D03*
X24533Y48233D03*
D488*
X5367Y48267D03*
D862*
X24533Y48267D03*
D1225*
X5350Y48300D03*
X24550Y48300D03*
D1046*
X5333Y48333D03*
D863*
X24567Y48333D03*
D491*
X5317Y48367D03*
D864*
X24583Y48367D03*
D805*
X5300Y48400D03*
X24600Y48400D03*
D494*
X5300Y48433D03*
X24600Y48433D03*
D495*
X5283Y48467D03*
X24616Y48467D03*
D1226*
X5267Y48500D03*
D870*
X24633Y48500D03*
D871*
X5250Y48533D03*
X24650Y48533D03*
D309*
X5233Y48567D03*
D500*
X24650Y48567D03*
D501*
X5233Y48600D03*
D337*
X24667Y48600D03*
D504*
X5216Y48633D03*
X24683Y48633D03*
D506*
X5200Y48667D03*
X24700Y48667D03*
D508*
X5183Y48700D03*
D414*
X24700Y48700D03*
D410*
X5183Y48733D03*
D511*
X24717Y48733D03*
D308*
X5167Y48767D03*
D880*
X24733Y48767D03*
D311*
X5150Y48800D03*
X24750Y48800D03*
D888*
X5150Y48833D03*
X24750Y48833D03*
D516*
X5133Y48867D03*
X24766Y48867D03*
D1227*
X5117Y48900D03*
D399*
X24783Y48900D03*
D332*
X5116Y48933D03*
X24783Y48933D03*
D893*
X5100Y48967D03*
X24800Y48967D03*
D329*
X5100Y49000D03*
X24800Y49000D03*
D390*
X5083Y49033D03*
D313*
X24817Y49033D03*
D389*
X5083Y49067D03*
X24816Y49067D03*
D995*
X5067Y49100D03*
D904*
X24833Y49100D03*
D328*
X5066Y49133D03*
X24833Y49133D03*
D1221*
X5050Y49167D03*
D324*
X24833Y49167D03*
D544*
X5050Y49200D03*
X24850Y49200D03*
D549*
X5050Y49233D03*
X24850Y49233D03*
D1222*
X5050Y49267D03*
X24850Y49267D03*
D1228*
X5033Y49300D03*
D1229*
X24867Y49300D03*
D319*
X5033Y49333D03*
D716*
X24867Y49333D03*
D317*
X5033Y49367D03*
X24866Y49367D03*
D1230*
X5033Y49400D03*
D122*
X24867Y49400D03*
D117*
X5033Y49433D03*
D115*
X24867Y49433D03*
D113*
X5017Y49467D03*
D104*
X24866Y49467D03*
D98*
X5016Y49500D03*
X24883Y49500D03*
D93*
X5017Y49533D03*
D118*
X24883Y49533D03*
D111*
X5017Y49567D03*
D92*
X24883Y49567D03*
D97*
X5033Y49600D03*
D110*
X24867Y49600D03*
D74*
X5017Y49633D03*
D56*
X24883Y49633D03*
D64*
X5016Y49667D03*
D58*
X24867Y49667D03*
D305*
X5017Y49700D03*
D68*
X24883Y49700D03*
D774*
X5033Y49733D03*
D57*
X24867Y49733D03*
D1004*
X5033Y49767D03*
D65*
X24867Y49767D03*
D840*
X5017Y49800D03*
D801*
X24866Y49800D03*
D634*
X5033Y49833D03*
X24866Y49833D03*
D1010*
X5033Y49867D03*
X24866Y49867D03*
D658*
X5033Y49900D03*
D1231*
X24867Y49900D03*
D1232*
X5029Y38441D02*
X5031Y38457D01*
X5037Y38473D01*
X5046Y38487D01*
X5058Y38498D01*
X5072Y38506D01*
X5088Y38511D01*
X5104Y38512D01*
X5120Y38509D01*
X5135Y38502D01*
X5149Y38493D01*
X5159Y38480D01*
X5167Y38465D01*
X5171Y38449D01*
X5171Y38433D01*
X5167Y38417D01*
X5159Y38402D01*
X5149Y38389D01*
X5136Y38380D01*
X5120Y38373D01*
X5104Y38370D01*
X5088Y38371D01*
X5072Y38376D01*
X5058Y38384D01*
X5046Y38395D01*
X5037Y38409D01*
X5031Y38425D01*
X5029Y38441D01*
X3663Y39953D02*
X3663Y28929D01*
X11537Y28929D01*
X11537Y39953D01*
X3663Y39953D01*
X6025Y38378D02*
X5631Y34441D01*
X9293Y34362D02*
X9686Y38299D01*
X5592Y34087D02*
X5198Y30150D01*
X8899Y30150D02*
X9293Y34087D01*
X7127Y34638D02*
X6261Y38063D01*
X7639Y38024D02*
X7442Y34677D01*
X7797Y34677D02*
X9253Y38024D01*
X7757Y33929D02*
X8623Y30504D01*
X7245Y30543D02*
X7442Y33890D01*
X7088Y33890D02*
X5631Y30543D01*
X9379Y30386D02*
X9381Y30420D01*
X9387Y30454D01*
X9396Y30487D01*
X9409Y30519D01*
X9426Y30549D01*
X9446Y30577D01*
X9469Y30603D01*
X9495Y30626D01*
X9523Y30646D01*
X9553Y30663D01*
X9585Y30676D01*
X9618Y30685D01*
X9652Y30691D01*
X9686Y30693D01*
X9720Y30691D01*
X9754Y30685D01*
X9787Y30676D01*
X9819Y30663D01*
X9849Y30646D01*
X9877Y30626D01*
X9903Y30603D01*
X9926Y30577D01*
X9946Y30549D01*
X9963Y30519D01*
X9976Y30487D01*
X9985Y30454D01*
X9991Y30420D01*
X9993Y30386D01*
X9991Y30352D01*
X9985Y30318D01*
X9976Y30285D01*
X9963Y30253D01*
X9946Y30223D01*
X9926Y30195D01*
X9903Y30169D01*
X9877Y30146D01*
X9849Y30126D01*
X9819Y30109D01*
X9787Y30096D01*
X9754Y30087D01*
X9720Y30081D01*
X9686Y30079D01*
X9652Y30081D01*
X9618Y30087D01*
X9585Y30096D01*
X9553Y30109D01*
X9523Y30126D01*
X9495Y30146D01*
X9469Y30169D01*
X9446Y30195D01*
X9426Y30223D01*
X9409Y30253D01*
X9396Y30285D01*
X9387Y30318D01*
X9381Y30352D01*
X9379Y30386D01*
X7500Y38441D02*
X6300Y38441D01*
X7900Y38441D02*
X9400Y38441D01*
X9100Y34241D02*
X7600Y34241D01*
X7300Y34241D02*
X5800Y34241D01*
X5600Y30241D02*
X6800Y30241D01*
X7200Y30241D02*
X8700Y30241D01*
X19655Y38425D02*
X19657Y38441D01*
X19663Y38457D01*
X19672Y38471D01*
X19684Y38482D01*
X19698Y38490D01*
X19714Y38495D01*
X19730Y38496D01*
X19746Y38493D01*
X19761Y38486D01*
X19775Y38477D01*
X19785Y38464D01*
X19793Y38449D01*
X19797Y38433D01*
X19797Y38417D01*
X19793Y38401D01*
X19785Y38386D01*
X19775Y38373D01*
X19762Y38364D01*
X19746Y38357D01*
X19730Y38354D01*
X19714Y38355D01*
X19698Y38360D01*
X19684Y38368D01*
X19672Y38379D01*
X19663Y38393D01*
X19657Y38409D01*
X19655Y38425D01*
X18289Y39937D02*
X18289Y28913D01*
X26163Y28913D01*
X26163Y39937D01*
X18289Y39937D01*
X20651Y38362D02*
X20258Y34425D01*
X23919Y34346D02*
X24313Y38283D01*
X20218Y34070D02*
X19825Y30133D01*
X23526Y30133D02*
X23919Y34070D01*
X21754Y34622D02*
X20888Y38047D01*
X22266Y38007D02*
X22069Y34661D01*
X22423Y34661D02*
X23880Y38007D01*
X22384Y33913D02*
X23250Y30488D01*
X21872Y30527D02*
X22069Y33874D01*
X21714Y33874D02*
X20258Y30527D01*
X24006Y30370D02*
X24008Y30404D01*
X24014Y30438D01*
X24023Y30471D01*
X24036Y30503D01*
X24053Y30533D01*
X24073Y30561D01*
X24096Y30587D01*
X24122Y30610D01*
X24150Y30630D01*
X24180Y30647D01*
X24212Y30660D01*
X24245Y30669D01*
X24279Y30675D01*
X24313Y30677D01*
X24347Y30675D01*
X24381Y30669D01*
X24414Y30660D01*
X24446Y30647D01*
X24476Y30630D01*
X24504Y30610D01*
X24530Y30587D01*
X24553Y30561D01*
X24573Y30533D01*
X24590Y30503D01*
X24603Y30471D01*
X24612Y30438D01*
X24618Y30404D01*
X24620Y30370D01*
X24618Y30336D01*
X24612Y30302D01*
X24603Y30269D01*
X24590Y30237D01*
X24573Y30207D01*
X24553Y30179D01*
X24530Y30153D01*
X24504Y30130D01*
X24476Y30110D01*
X24446Y30093D01*
X24414Y30080D01*
X24381Y30071D01*
X24347Y30065D01*
X24313Y30063D01*
X24279Y30065D01*
X24245Y30071D01*
X24212Y30080D01*
X24180Y30093D01*
X24150Y30110D01*
X24122Y30130D01*
X24096Y30153D01*
X24073Y30179D01*
X24053Y30207D01*
X24036Y30237D01*
X24023Y30269D01*
X24014Y30302D01*
X24008Y30336D01*
X24006Y30370D01*
X22126Y38425D02*
X20926Y38425D01*
X22526Y38425D02*
X24026Y38425D01*
X23726Y34225D02*
X22226Y34225D01*
X21926Y34225D02*
X20426Y34225D01*
X20226Y30225D02*
X21426Y30225D01*
X21826Y30225D02*
X23326Y30225D01*
M02*
