G04 EAGLE Gerber X2 export*
%TF.Part,Single*%
%TF.FileFunction,Soldermask,Bot,1*%
%TF.FilePolarity,Negative*%
%TF.GenerationSoftware,Autodesk,EAGLE,9.0.1*%
%TF.CreationDate,2018-06-26T08:14:36Z*%
G75*
%MOIN*%
%FSLAX34Y34*%
%LPD*%
%AMOC8*
5,1,8,0,0,1.08239X$1,22.5*%
G01*
%ADD10R,0.019811X0.055244*%
%ADD11R,0.055244X0.019811*%
%ADD12R,0.041465X0.106425*%
%ADD13R,0.059181X0.067055*%
%ADD14R,0.067055X0.059181*%
%ADD15R,0.067370X0.067370*%
%ADD16C,0.067370*%
%ADD17R,0.030000X0.060000*%
%ADD18R,0.060000X0.030000*%
%ADD19R,0.106425X0.033591*%
%ADD20C,0.004151*%
%ADD21R,0.039000X0.043000*%
%ADD22R,0.047000X0.069000*%
%ADD23R,0.208000X0.108000*%
%ADD24R,0.048157X0.132803*%


D10*
X8229Y41096D03*
X8032Y41096D03*
X7835Y41096D03*
X7638Y41096D03*
X7441Y41096D03*
X7244Y41096D03*
X7048Y41096D03*
X6851Y41096D03*
X6654Y41096D03*
X6457Y41096D03*
X6260Y41096D03*
X6063Y41096D03*
D11*
X5473Y41687D03*
X5473Y41883D03*
X5473Y42080D03*
X5473Y42277D03*
X5473Y42474D03*
X5473Y42671D03*
X5473Y42868D03*
X5473Y43065D03*
X5473Y43261D03*
X5473Y43458D03*
X5473Y43655D03*
X5473Y43852D03*
D10*
X6063Y44443D03*
X6260Y44443D03*
X6457Y44443D03*
X6654Y44443D03*
X6851Y44443D03*
X7048Y44443D03*
X7244Y44443D03*
X7441Y44443D03*
X7638Y44443D03*
X7835Y44443D03*
X8032Y44443D03*
X8229Y44443D03*
D11*
X8819Y43852D03*
X8819Y43655D03*
X8819Y43458D03*
X8819Y43261D03*
X8819Y43065D03*
X8819Y42868D03*
X8819Y42671D03*
X8819Y42474D03*
X8819Y42277D03*
X8819Y42080D03*
X8819Y41883D03*
X8819Y41687D03*
D12*
X6560Y22666D03*
X5595Y22666D03*
D13*
X8064Y23046D03*
X7316Y23046D03*
X9720Y23059D03*
X8972Y23059D03*
X8996Y22106D03*
X9744Y22106D03*
X5636Y21646D03*
X6384Y21646D03*
X7326Y23886D03*
X8074Y23886D03*
X8044Y20666D03*
X7296Y20666D03*
D14*
X5625Y34800D03*
X5625Y34052D03*
X2978Y33250D03*
X2978Y32502D03*
X3812Y34180D03*
X3812Y33432D03*
X23766Y34700D03*
X23766Y33952D03*
X22889Y35700D03*
X22889Y34952D03*
X21135Y37700D03*
X21135Y36952D03*
X8094Y37800D03*
X8094Y37052D03*
X7271Y36850D03*
X7271Y36102D03*
X6448Y35800D03*
X6448Y35052D03*
X2145Y32200D03*
X2145Y31452D03*
X1312Y31180D03*
X1312Y30432D03*
X27846Y31150D03*
X27846Y30402D03*
X26143Y34200D03*
X26143Y33452D03*
X22012Y36700D03*
X22012Y35952D03*
X20259Y38650D03*
X20259Y37902D03*
X8918Y38800D03*
X8918Y38052D03*
D15*
X4600Y38441D03*
D16*
X4600Y37441D03*
X4600Y36441D03*
X4600Y35441D03*
X4600Y34441D03*
X4600Y33441D03*
X4600Y32441D03*
X4600Y31441D03*
X4600Y30441D03*
X10600Y30441D03*
X10600Y31441D03*
X10600Y32441D03*
X10600Y33441D03*
X10600Y34441D03*
X10600Y35441D03*
X10600Y36441D03*
X10600Y37441D03*
X10600Y38441D03*
D15*
X19226Y38425D03*
D16*
X19226Y37425D03*
X19226Y36425D03*
X19226Y35425D03*
X19226Y34425D03*
X19226Y33425D03*
X19226Y32425D03*
X19226Y31425D03*
X19226Y30425D03*
X25226Y30425D03*
X25226Y31425D03*
X25226Y32425D03*
X25226Y33425D03*
X25226Y34425D03*
X25226Y35425D03*
X25226Y36425D03*
X25226Y37425D03*
X25226Y38425D03*
D17*
X8251Y29893D03*
X7881Y29893D03*
X7511Y29893D03*
X7511Y30973D03*
X8251Y30973D03*
D18*
X22326Y30329D03*
X22326Y30699D03*
X22326Y31069D03*
X23406Y31069D03*
X23406Y30329D03*
D19*
X24943Y46721D03*
X23368Y46721D03*
X24943Y46221D03*
X23368Y46221D03*
X24943Y45721D03*
X23368Y45721D03*
X24943Y45221D03*
X23368Y45221D03*
X24943Y44721D03*
X23368Y44721D03*
D14*
X26969Y33200D03*
X26969Y32452D03*
D13*
X8824Y29050D03*
X8076Y29050D03*
D14*
X21500Y30276D03*
X21500Y31024D03*
D13*
X24534Y47730D03*
X23786Y47730D03*
D20*
X7466Y21405D02*
X6940Y21405D01*
X6940Y21659D01*
X7466Y21659D01*
X7466Y21405D01*
X7466Y21446D02*
X6940Y21446D01*
X6940Y21487D02*
X7466Y21487D01*
X7466Y21528D02*
X6940Y21528D01*
X6940Y21569D02*
X7466Y21569D01*
X7466Y21610D02*
X6940Y21610D01*
X6940Y21651D02*
X7466Y21651D01*
X7466Y21779D02*
X6940Y21779D01*
X6940Y22033D01*
X7466Y22033D01*
X7466Y21779D01*
X7466Y21820D02*
X6940Y21820D01*
X6940Y21861D02*
X7466Y21861D01*
X7466Y21902D02*
X6940Y21902D01*
X6940Y21943D02*
X7466Y21943D01*
X7466Y21984D02*
X6940Y21984D01*
X6940Y22025D02*
X7466Y22025D01*
X7466Y22153D02*
X6940Y22153D01*
X6940Y22407D01*
X7466Y22407D01*
X7466Y22153D01*
X7466Y22194D02*
X6940Y22194D01*
X6940Y22235D02*
X7466Y22235D01*
X7466Y22276D02*
X6940Y22276D01*
X6940Y22317D02*
X7466Y22317D01*
X7466Y22358D02*
X6940Y22358D01*
X6940Y22399D02*
X7466Y22399D01*
X7873Y22153D02*
X8399Y22153D01*
X7873Y22153D02*
X7873Y22407D01*
X8399Y22407D01*
X8399Y22153D01*
X8399Y22194D02*
X7873Y22194D01*
X7873Y22235D02*
X8399Y22235D01*
X8399Y22276D02*
X7873Y22276D01*
X7873Y22317D02*
X8399Y22317D01*
X8399Y22358D02*
X7873Y22358D01*
X7873Y22399D02*
X8399Y22399D01*
X8399Y21405D02*
X7873Y21405D01*
X7873Y21659D01*
X8399Y21659D01*
X8399Y21405D01*
X8399Y21446D02*
X7873Y21446D01*
X7873Y21487D02*
X8399Y21487D01*
X8399Y21528D02*
X7873Y21528D01*
X7873Y21569D02*
X8399Y21569D01*
X8399Y21610D02*
X7873Y21610D01*
X7873Y21651D02*
X8399Y21651D01*
D14*
X11348Y26202D03*
X11348Y26950D03*
D18*
X9428Y26235D03*
X9428Y26605D03*
X9428Y26975D03*
X10508Y26975D03*
X10508Y26235D03*
D13*
X8545Y26271D03*
X7797Y26271D03*
D14*
X13448Y24780D03*
X13448Y24031D03*
X11791Y24780D03*
X11791Y24031D03*
X12621Y24031D03*
X12621Y24780D03*
X10929Y24027D03*
X10929Y24775D03*
D21*
X1682Y29030D03*
X2442Y29030D03*
X2062Y28230D03*
D14*
X2500Y27474D03*
X2500Y26726D03*
D13*
X4614Y24798D03*
X3866Y24798D03*
X9224Y44660D03*
X9972Y44660D03*
D14*
X6780Y46364D03*
X6780Y47112D03*
D13*
X6376Y40120D03*
X7124Y40120D03*
D14*
X12240Y40516D03*
X12240Y39768D03*
X11390Y39784D03*
X11390Y40532D03*
D22*
X15692Y26193D03*
X15692Y28483D03*
X14692Y26193D03*
X14692Y28483D03*
X13692Y26193D03*
X13692Y28483D03*
X12692Y26193D03*
X12692Y28483D03*
D13*
X9026Y40900D03*
X9774Y40900D03*
X5244Y44390D03*
X4496Y44390D03*
D23*
X14520Y20710D03*
X14520Y22710D03*
D24*
G36*
X4452Y26817D02*
X4175Y26422D01*
X3088Y27183D01*
X3365Y27578D01*
X4452Y26817D01*
G37*
G36*
X5026Y27636D02*
X4749Y27241D01*
X3662Y28002D01*
X3939Y28397D01*
X5026Y27636D01*
G37*
G36*
X5599Y28455D02*
X5322Y28060D01*
X4235Y28821D01*
X4512Y29216D01*
X5599Y28455D01*
G37*
M02*
