G04 EAGLE Gerber X2 export*
%TF.Part,Single*%
%TF.FileFunction,Copper,L3,Inr,Mixed*%
%TF.FilePolarity,Positive*%
%TF.GenerationSoftware,Autodesk,EAGLE,9.0.1*%
%TF.CreationDate,2018-07-28T04:13:14Z*%
G75*
%MOMM*%
%FSLAX34Y34*%
%LPD*%
%AMOC8*
5,1,8,0,0,1.08239X$1,22.5*%
G01*
%ADD10C,1.508000*%
%ADD11C,0.756400*%
%ADD12C,0.762000*%
%ADD13C,0.508000*%
%ADD14C,0.254000*%

G36*
X712790Y487700D02*
X712790Y487700D01*
X712952Y487720D01*
X712953Y487720D01*
X712954Y487721D01*
X713088Y487774D01*
X713248Y487837D01*
X713249Y487837D01*
X713249Y487838D01*
X713367Y487923D01*
X713505Y488023D01*
X713506Y488024D01*
X713507Y488024D01*
X713604Y488142D01*
X713708Y488268D01*
X713709Y488269D01*
X713776Y488411D01*
X713844Y488555D01*
X713845Y488556D01*
X713845Y488557D01*
X713874Y488709D01*
X713905Y488868D01*
X713905Y488869D01*
X713905Y488870D01*
X713905Y488871D01*
X713905Y489029D01*
X713850Y489916D01*
X713510Y495389D01*
X712954Y504341D01*
X712548Y510874D01*
X712444Y512552D01*
X712389Y513445D01*
X711981Y520021D01*
X711981Y520022D01*
X711575Y526558D01*
X711557Y526842D01*
X711415Y529129D01*
X711415Y529130D01*
X710976Y536193D01*
X710524Y543483D01*
X710523Y543488D01*
X710523Y543501D01*
X709939Y551113D01*
X709937Y551126D01*
X709935Y551157D01*
X709093Y558673D01*
X709090Y558686D01*
X709087Y558718D01*
X707980Y566202D01*
X707976Y566215D01*
X707972Y566246D01*
X706601Y573682D01*
X706597Y573695D01*
X706592Y573726D01*
X704957Y581113D01*
X704952Y581126D01*
X704946Y581157D01*
X703049Y588478D01*
X703044Y588490D01*
X703037Y588521D01*
X700881Y595768D01*
X700875Y595781D01*
X700867Y595812D01*
X698453Y602980D01*
X698447Y602992D01*
X698438Y603023D01*
X695770Y610100D01*
X695764Y610112D01*
X695753Y610142D01*
X692836Y617119D01*
X692830Y617131D01*
X692818Y617160D01*
X689654Y624031D01*
X689647Y624043D01*
X689634Y624072D01*
X686581Y630127D01*
X686528Y630205D01*
X686484Y630288D01*
X686414Y630375D01*
X686403Y630390D01*
X686396Y630397D01*
X686382Y630414D01*
X686290Y630514D01*
X686065Y631131D01*
X686060Y631141D01*
X686006Y631267D01*
X685710Y631854D01*
X685700Y631991D01*
X685681Y632083D01*
X685672Y632178D01*
X685640Y632284D01*
X685636Y632302D01*
X685632Y632311D01*
X685626Y632332D01*
X685579Y632460D01*
X685607Y633117D01*
X685606Y633127D01*
X685605Y633265D01*
X685556Y633920D01*
X685599Y634050D01*
X685617Y634143D01*
X685644Y634233D01*
X685656Y634344D01*
X685660Y634362D01*
X685659Y634372D01*
X685661Y634394D01*
X685667Y634530D01*
X685944Y635126D01*
X685947Y635136D01*
X685999Y635264D01*
X686204Y635888D01*
X686294Y635992D01*
X686346Y636070D01*
X686406Y636143D01*
X686459Y636241D01*
X686469Y636257D01*
X686473Y636266D01*
X686483Y636285D01*
X686541Y636409D01*
X687025Y636853D01*
X687031Y636861D01*
X687128Y636960D01*
X687556Y637458D01*
X687679Y637519D01*
X687757Y637572D01*
X687840Y637617D01*
X687927Y637687D01*
X687942Y637697D01*
X687949Y637704D01*
X687966Y637718D01*
X692855Y642208D01*
X692865Y642219D01*
X692891Y642242D01*
X698155Y647464D01*
X698164Y647475D01*
X698189Y647499D01*
X703252Y652921D01*
X703260Y652933D01*
X703284Y652957D01*
X708133Y658566D01*
X708141Y658578D01*
X708164Y658604D01*
X712793Y664393D01*
X712801Y664406D01*
X712823Y664432D01*
X717229Y670398D01*
X717236Y670410D01*
X717257Y670437D01*
X721431Y676569D01*
X721438Y676582D01*
X721458Y676610D01*
X725392Y682896D01*
X725398Y682909D01*
X725417Y682938D01*
X729106Y689369D01*
X729111Y689382D01*
X729129Y689412D01*
X732566Y695980D01*
X732571Y695993D01*
X732588Y696024D01*
X735768Y702719D01*
X735773Y702733D01*
X735789Y702764D01*
X738707Y709578D01*
X738711Y709592D01*
X738725Y709624D01*
X741375Y716545D01*
X741379Y716559D01*
X741392Y716591D01*
X743770Y723608D01*
X743773Y723622D01*
X743785Y723655D01*
X745887Y730762D01*
X745889Y730776D01*
X745900Y730810D01*
X747721Y737991D01*
X747723Y738006D01*
X747733Y738040D01*
X749272Y745291D01*
X749273Y745305D01*
X749281Y745340D01*
X750533Y752644D01*
X750534Y752658D01*
X750541Y752693D01*
X751505Y760037D01*
X751505Y760052D01*
X751511Y760087D01*
X752186Y767467D01*
X752185Y767481D01*
X752189Y767516D01*
X752575Y774919D01*
X752574Y774933D01*
X752577Y774968D01*
X752672Y782379D01*
X752671Y782394D01*
X752672Y782429D01*
X752479Y789837D01*
X752477Y789851D01*
X752477Y789886D01*
X751998Y797283D01*
X751995Y797297D01*
X751994Y797332D01*
X751230Y804709D01*
X751227Y804723D01*
X751224Y804757D01*
X750171Y812156D01*
X750169Y812164D01*
X750168Y812181D01*
X749140Y818494D01*
X749140Y818495D01*
X748942Y819713D01*
X748726Y821037D01*
X748726Y821038D01*
X747482Y828687D01*
X746309Y835895D01*
X744992Y843985D01*
X744992Y843986D01*
X744162Y849089D01*
X744162Y849090D01*
X743973Y850249D01*
X743973Y850250D01*
X743748Y851632D01*
X743748Y851633D01*
X742543Y859035D01*
X741259Y866931D01*
X740014Y874581D01*
X738769Y882230D01*
X737937Y887339D01*
X737937Y887340D01*
X737715Y888705D01*
X737524Y889882D01*
X737523Y889883D01*
X736692Y894991D01*
X736692Y894992D01*
X736594Y895594D01*
X736278Y897534D01*
X736278Y897535D01*
X735252Y903843D01*
X734203Y910291D01*
X734202Y910292D01*
X734031Y911344D01*
X733789Y912833D01*
X733789Y912834D01*
X732695Y919555D01*
X731713Y925590D01*
X731713Y925591D01*
X731500Y926896D01*
X731299Y928131D01*
X731299Y928133D01*
X730239Y934648D01*
X729207Y940992D01*
X729165Y941135D01*
X729133Y941248D01*
X729006Y942221D01*
X729003Y942233D01*
X729000Y942261D01*
X728842Y943236D01*
X728846Y943261D01*
X728845Y943288D01*
X728850Y943334D01*
X728849Y943349D01*
X728850Y943356D01*
X728848Y943370D01*
X728846Y943392D01*
X728865Y943525D01*
X728862Y943546D01*
X728865Y943568D01*
X728851Y943728D01*
X728081Y948853D01*
X728076Y948871D01*
X728068Y948926D01*
X726866Y954638D01*
X726864Y954643D01*
X726863Y954651D01*
X726862Y954655D01*
X726861Y954658D01*
X726602Y955890D01*
X726602Y955891D01*
X726337Y957149D01*
X726336Y957159D01*
X726007Y958728D01*
X726006Y958728D01*
X726006Y958729D01*
X724390Y966408D01*
X724390Y966409D01*
X722730Y974298D01*
X721426Y980493D01*
X721383Y980698D01*
X720895Y983014D01*
X720895Y983015D01*
X719278Y990698D01*
X717816Y997643D01*
X716574Y1003547D01*
X716470Y1004038D01*
X716470Y1004039D01*
X716043Y1006067D01*
X716043Y1006068D01*
X714550Y1013164D01*
X712987Y1020592D01*
X711192Y1029118D01*
X711192Y1029119D01*
X709631Y1036537D01*
X707958Y1044486D01*
X707958Y1044487D01*
X706424Y1051774D01*
X705254Y1057333D01*
X705254Y1057334D01*
X705065Y1058230D01*
X705065Y1058231D01*
X704723Y1059854D01*
X704723Y1059855D01*
X703361Y1066328D01*
X701489Y1075223D01*
X699872Y1082907D01*
X699872Y1082908D01*
X698374Y1090025D01*
X696637Y1098277D01*
X695025Y1105938D01*
X693403Y1113642D01*
X691786Y1121326D01*
X690699Y1126489D01*
X690699Y1126490D01*
X690467Y1127595D01*
X690169Y1129010D01*
X690169Y1129011D01*
X688785Y1135584D01*
X687466Y1141854D01*
X687465Y1141855D01*
X687211Y1143064D01*
X686935Y1144375D01*
X686935Y1144376D01*
X685409Y1151625D01*
X684231Y1157225D01*
X684071Y1157983D01*
X683700Y1159746D01*
X682613Y1164912D01*
X682407Y1165891D01*
X682082Y1167432D01*
X682082Y1167433D01*
X680672Y1174135D01*
X679379Y1180276D01*
X679353Y1180400D01*
X678849Y1182797D01*
X678849Y1182798D01*
X677232Y1190480D01*
X675614Y1198167D01*
X674279Y1204509D01*
X672910Y1211014D01*
X672910Y1211015D01*
X672531Y1212813D01*
X672531Y1212814D01*
X672379Y1213535D01*
X672379Y1213536D01*
X671003Y1220074D01*
X669675Y1226383D01*
X669675Y1226384D01*
X669325Y1228050D01*
X669145Y1228904D01*
X669145Y1228905D01*
X667850Y1235058D01*
X667843Y1235078D01*
X667823Y1235163D01*
X665893Y1241572D01*
X665880Y1241602D01*
X665873Y1241634D01*
X665809Y1241781D01*
X662921Y1247462D01*
X662900Y1247492D01*
X662886Y1247525D01*
X662797Y1247659D01*
X658931Y1252708D01*
X658906Y1252733D01*
X658886Y1252763D01*
X658774Y1252878D01*
X654049Y1257147D01*
X654021Y1257166D01*
X653998Y1257190D01*
X653867Y1257283D01*
X648438Y1260651D01*
X648409Y1260664D01*
X648384Y1260683D01*
X648239Y1260752D01*
X642287Y1263124D01*
X642257Y1263132D01*
X642230Y1263145D01*
X642075Y1263188D01*
X635798Y1264490D01*
X635767Y1264493D01*
X635737Y1264501D01*
X635577Y1264516D01*
X629184Y1264701D01*
X629151Y1264697D01*
X629118Y1264701D01*
X628958Y1264687D01*
X622655Y1263735D01*
X622622Y1263725D01*
X622587Y1263722D01*
X622431Y1263679D01*
X616415Y1261606D01*
X616383Y1261590D01*
X616349Y1261581D01*
X616204Y1261511D01*
X610653Y1258376D01*
X610628Y1258357D01*
X610599Y1258343D01*
X610468Y1258248D01*
X605308Y1253977D01*
X605293Y1253961D01*
X605229Y1253906D01*
X600762Y1249526D01*
X599360Y1248151D01*
X598923Y1247723D01*
X598922Y1247722D01*
X593745Y1242646D01*
X589607Y1238589D01*
X589607Y1238588D01*
X587934Y1236948D01*
X587767Y1236785D01*
X584026Y1233117D01*
X583264Y1232369D01*
X583263Y1232369D01*
X582187Y1231314D01*
X582186Y1231313D01*
X577579Y1226795D01*
X572865Y1222174D01*
X572241Y1221561D01*
X571026Y1220371D01*
X571025Y1220370D01*
X565989Y1215432D01*
X561707Y1211234D01*
X561707Y1211233D01*
X561009Y1210549D01*
X559869Y1209431D01*
X559868Y1209430D01*
X555498Y1205146D01*
X550550Y1200294D01*
X549254Y1199024D01*
X548711Y1198491D01*
X548710Y1198490D01*
X544970Y1194823D01*
X544054Y1193926D01*
X543131Y1193020D01*
X543130Y1193019D01*
X538120Y1188107D01*
X533812Y1183883D01*
X533811Y1183882D01*
X532562Y1182658D01*
X532562Y1182657D01*
X531972Y1182079D01*
X526393Y1176609D01*
X526392Y1176608D01*
X522095Y1172396D01*
X522095Y1172395D01*
X517077Y1167474D01*
X517076Y1167474D01*
X516274Y1166688D01*
X515238Y1165671D01*
X515237Y1165671D01*
X510176Y1160708D01*
X505919Y1156535D01*
X505294Y1155922D01*
X504080Y1154732D01*
X504080Y1154731D01*
X499415Y1150158D01*
X494760Y1145594D01*
X489183Y1140125D01*
X488356Y1139314D01*
X487343Y1138321D01*
X482729Y1133798D01*
X478025Y1129185D01*
X478024Y1129185D01*
X476668Y1127854D01*
X476185Y1127381D01*
X472447Y1123716D01*
X470808Y1122109D01*
X470608Y1121913D01*
X470607Y1121912D01*
X465874Y1117272D01*
X460389Y1111894D01*
X460387Y1111891D01*
X460380Y1111885D01*
X459653Y1111157D01*
X458696Y1110772D01*
X458693Y1110770D01*
X458685Y1110767D01*
X457733Y1110373D01*
X456702Y1110383D01*
X456698Y1110383D01*
X456689Y1110383D01*
X302002Y1110383D01*
X301998Y1110383D01*
X301989Y1110383D01*
X300960Y1110373D01*
X300008Y1110767D01*
X300004Y1110769D01*
X299996Y1110772D01*
X299040Y1111157D01*
X298312Y1111886D01*
X298308Y1111888D01*
X298303Y1111895D01*
X293664Y1116442D01*
X293012Y1117082D01*
X291825Y1118246D01*
X291824Y1118246D01*
X287280Y1122702D01*
X282509Y1127380D01*
X282089Y1127792D01*
X280670Y1129183D01*
X280669Y1129184D01*
X275089Y1134655D01*
X275088Y1134656D01*
X271348Y1138323D01*
X269824Y1139817D01*
X269824Y1139818D01*
X269508Y1140127D01*
X263928Y1145599D01*
X263927Y1145599D01*
X260187Y1149266D01*
X259239Y1150196D01*
X258347Y1151070D01*
X254609Y1154735D01*
X254531Y1154811D01*
X252770Y1156538D01*
X252770Y1156539D01*
X248450Y1160774D01*
X243452Y1165674D01*
X242497Y1166611D01*
X242496Y1166611D01*
X241613Y1167477D01*
X241612Y1167478D01*
X237872Y1171145D01*
X237703Y1171311D01*
X237702Y1171312D01*
X236033Y1172948D01*
X236032Y1172949D01*
X230990Y1177893D01*
X226714Y1182086D01*
X226713Y1182086D01*
X225605Y1183173D01*
X224875Y1183889D01*
X224874Y1183890D01*
X221135Y1187556D01*
X221134Y1187556D01*
X214806Y1193761D01*
X209979Y1198494D01*
X208785Y1199664D01*
X208140Y1200297D01*
X208139Y1200298D01*
X204400Y1203964D01*
X198821Y1209434D01*
X197735Y1210499D01*
X196982Y1211237D01*
X192041Y1216082D01*
X187662Y1220375D01*
X187662Y1220376D01*
X186290Y1221720D01*
X186290Y1221721D01*
X185823Y1222178D01*
X185822Y1222179D01*
X181421Y1226494D01*
X176506Y1231314D01*
X176505Y1231314D01*
X175662Y1232141D01*
X174666Y1233117D01*
X174666Y1233118D01*
X170927Y1236784D01*
X170926Y1236784D01*
X170011Y1237682D01*
X169087Y1238587D01*
X169087Y1238588D01*
X163914Y1243659D01*
X163914Y1243660D01*
X159769Y1247724D01*
X159639Y1247852D01*
X159638Y1247852D01*
X157929Y1249527D01*
X157929Y1249528D01*
X153474Y1253896D01*
X153457Y1253909D01*
X153391Y1253971D01*
X147968Y1258421D01*
X147936Y1258441D01*
X147908Y1258467D01*
X147772Y1258553D01*
X141914Y1261762D01*
X141876Y1261777D01*
X141841Y1261799D01*
X141767Y1261828D01*
X141757Y1261834D01*
X141745Y1261837D01*
X141691Y1261858D01*
X135343Y1263892D01*
X135303Y1263899D01*
X135266Y1263914D01*
X135107Y1263943D01*
X128453Y1264744D01*
X128419Y1264744D01*
X128385Y1264750D01*
X128224Y1264751D01*
X122012Y1264374D01*
X121984Y1264369D01*
X121956Y1264370D01*
X121797Y1264343D01*
X115704Y1262905D01*
X115679Y1262895D01*
X115651Y1262891D01*
X115499Y1262838D01*
X109747Y1260390D01*
X109722Y1260376D01*
X109694Y1260367D01*
X109554Y1260288D01*
X104319Y1256901D01*
X104296Y1256881D01*
X104268Y1256866D01*
X104144Y1256764D01*
X102501Y1255233D01*
X102500Y1255233D01*
X101138Y1253964D01*
X99775Y1252695D01*
X99594Y1252526D01*
X99573Y1252501D01*
X99547Y1252480D01*
X99443Y1252358D01*
X95724Y1247389D01*
X95708Y1247360D01*
X95686Y1247335D01*
X95605Y1247196D01*
X92822Y1241632D01*
X92813Y1241604D01*
X92797Y1241579D01*
X92741Y1241428D01*
X90869Y1235162D01*
X90865Y1235141D01*
X90843Y1235062D01*
X89565Y1229028D01*
X89553Y1228968D01*
X89552Y1228968D01*
X89031Y1226507D01*
X87965Y1221473D01*
X87743Y1220427D01*
X87431Y1218953D01*
X87431Y1218952D01*
X85831Y1211398D01*
X85831Y1211397D01*
X84230Y1203843D01*
X84230Y1203842D01*
X83163Y1198806D01*
X81355Y1190267D01*
X79429Y1181177D01*
X78363Y1176143D01*
X78363Y1176142D01*
X78086Y1174837D01*
X78086Y1174836D01*
X77829Y1173623D01*
X77829Y1173622D01*
X76405Y1166900D01*
X74628Y1158514D01*
X73562Y1153478D01*
X73452Y1152959D01*
X73028Y1150958D01*
X73028Y1150957D01*
X71427Y1143402D01*
X70150Y1137374D01*
X68311Y1128692D01*
X67161Y1123259D01*
X66910Y1122077D01*
X66627Y1120739D01*
X66627Y1120738D01*
X65273Y1114348D01*
X63960Y1108149D01*
X63960Y1108148D01*
X63713Y1106982D01*
X63426Y1105629D01*
X63426Y1105628D01*
X62360Y1100594D01*
X62067Y1099212D01*
X61826Y1098074D01*
X61826Y1098073D01*
X60467Y1091662D01*
X59159Y1085484D01*
X58820Y1083884D01*
X58625Y1082964D01*
X57024Y1075408D01*
X57024Y1075407D01*
X55517Y1068293D01*
X54357Y1062818D01*
X54239Y1062257D01*
X53824Y1060298D01*
X53823Y1060298D01*
X52434Y1053739D01*
X51156Y1047706D01*
X51156Y1047705D01*
X50897Y1046481D01*
X50623Y1045186D01*
X50622Y1045185D01*
X49254Y1038728D01*
X47956Y1032597D01*
X47669Y1031245D01*
X47422Y1030078D01*
X47422Y1030077D01*
X46035Y1023530D01*
X44222Y1014968D01*
X44221Y1014967D01*
X43155Y1009931D01*
X42890Y1008681D01*
X42621Y1007411D01*
X42621Y1007410D01*
X41376Y1001536D01*
X39649Y993384D01*
X38354Y987268D01*
X38143Y986271D01*
X37820Y984748D01*
X37820Y984747D01*
X36753Y979712D01*
X36220Y977193D01*
X36220Y977192D01*
X36219Y977191D01*
X35119Y971998D01*
X35108Y971862D01*
X35092Y971725D01*
X35094Y971694D01*
X35093Y971681D01*
X35095Y971667D01*
X34868Y970804D01*
X34865Y970786D01*
X34853Y970743D01*
X34663Y969843D01*
X34659Y969835D01*
X34592Y969716D01*
X34582Y969687D01*
X34576Y969675D01*
X34571Y969655D01*
X34541Y969563D01*
X32904Y963347D01*
X32902Y963333D01*
X32893Y963301D01*
X31272Y956058D01*
X31271Y956043D01*
X31262Y956008D01*
X29924Y948652D01*
X29923Y948644D01*
X29920Y948628D01*
X29299Y944802D01*
X29296Y944743D01*
X29287Y944691D01*
X29291Y944624D01*
X29284Y944528D01*
X29288Y944498D01*
X29287Y944485D01*
X29290Y944471D01*
X29104Y943597D01*
X29103Y943580D01*
X29093Y943536D01*
X28986Y942874D01*
X28981Y942759D01*
X28969Y942644D01*
X28975Y942577D01*
X28974Y942556D01*
X28978Y942537D01*
X28983Y942484D01*
X28987Y942459D01*
X28801Y941717D01*
X28799Y941696D01*
X28780Y941613D01*
X27788Y935520D01*
X27788Y935519D01*
X27521Y933876D01*
X27375Y932978D01*
X27375Y932977D01*
X26546Y927887D01*
X25108Y919047D01*
X23993Y912193D01*
X22821Y904990D01*
X22601Y903642D01*
X22407Y902448D01*
X22407Y902447D01*
X21579Y897357D01*
X20337Y889725D01*
X20074Y888111D01*
X19923Y887183D01*
X19923Y887182D01*
X18975Y881359D01*
X17853Y874459D01*
X17641Y873158D01*
X17439Y871917D01*
X17439Y871916D01*
X16610Y866823D01*
X16492Y866100D01*
X16492Y866099D01*
X16196Y864280D01*
X16196Y864279D01*
X15368Y859187D01*
X14087Y851319D01*
X12883Y843920D01*
X12632Y842376D01*
X12470Y841377D01*
X11641Y836285D01*
X11322Y834321D01*
X11227Y833743D01*
X11227Y833742D01*
X10231Y827622D01*
X9157Y821020D01*
X7719Y812180D01*
X7718Y812172D01*
X7715Y812155D01*
X6663Y804760D01*
X6663Y804745D01*
X6657Y804712D01*
X5894Y797342D01*
X5894Y797327D01*
X5890Y797293D01*
X5410Y789901D01*
X5411Y789886D01*
X5408Y789852D01*
X5214Y782447D01*
X5216Y782432D01*
X5214Y782397D01*
X5309Y774989D01*
X5311Y774974D01*
X5311Y774939D01*
X5695Y767547D01*
X5697Y767533D01*
X5698Y767497D01*
X6371Y760123D01*
X6374Y760109D01*
X6377Y760074D01*
X7339Y752733D01*
X7343Y752719D01*
X7346Y752684D01*
X8596Y745386D01*
X8600Y745372D01*
X8605Y745337D01*
X10140Y738095D01*
X10144Y738081D01*
X10151Y738046D01*
X11969Y730867D01*
X11974Y730854D01*
X11982Y730819D01*
X14080Y723717D01*
X14086Y723704D01*
X14095Y723670D01*
X16468Y716657D01*
X16474Y716644D01*
X16485Y716610D01*
X19131Y709692D01*
X19137Y709679D01*
X19149Y709646D01*
X22063Y702834D01*
X22070Y702822D01*
X22083Y702789D01*
X25258Y696096D01*
X25266Y696084D01*
X25280Y696052D01*
X28712Y689485D01*
X28721Y689473D01*
X28736Y689442D01*
X32419Y683013D01*
X32428Y683002D01*
X32444Y682971D01*
X36372Y676688D01*
X36381Y676677D01*
X36399Y676647D01*
X40566Y670519D01*
X40575Y670508D01*
X40594Y670479D01*
X44991Y664517D01*
X45001Y664507D01*
X45021Y664479D01*
X49645Y658689D01*
X49655Y658679D01*
X49676Y658651D01*
X54519Y653042D01*
X54529Y653032D01*
X54551Y653006D01*
X59605Y647586D01*
X59616Y647577D01*
X59639Y647551D01*
X64894Y642331D01*
X64906Y642322D01*
X64930Y642297D01*
X69819Y637800D01*
X69896Y637746D01*
X69966Y637684D01*
X70064Y637627D01*
X70079Y637616D01*
X70087Y637613D01*
X70105Y637602D01*
X70231Y637538D01*
X70656Y637043D01*
X70662Y637037D01*
X70760Y636935D01*
X71240Y636494D01*
X71300Y636365D01*
X71349Y636286D01*
X71391Y636202D01*
X71459Y636111D01*
X71469Y636096D01*
X71475Y636089D01*
X71487Y636073D01*
X71580Y635966D01*
X71782Y635346D01*
X71786Y635338D01*
X71837Y635206D01*
X72112Y634615D01*
X72118Y634473D01*
X72134Y634380D01*
X72139Y634287D01*
X72168Y634177D01*
X72171Y634159D01*
X72175Y634151D01*
X72180Y634131D01*
X72224Y633996D01*
X72174Y633346D01*
X72174Y633337D01*
X72171Y633196D01*
X72199Y632545D01*
X72150Y632411D01*
X72129Y632320D01*
X72099Y632232D01*
X72083Y632119D01*
X72079Y632101D01*
X72079Y632092D01*
X72076Y632072D01*
X72065Y631931D01*
X71770Y631349D01*
X71767Y631341D01*
X71711Y631211D01*
X71486Y630599D01*
X71390Y630495D01*
X71336Y630419D01*
X71274Y630348D01*
X71216Y630250D01*
X71206Y630236D01*
X71203Y630227D01*
X71193Y630210D01*
X68118Y624147D01*
X68114Y624135D01*
X68099Y624107D01*
X64913Y617232D01*
X64909Y617219D01*
X64895Y617191D01*
X61954Y610206D01*
X61950Y610193D01*
X61937Y610164D01*
X59247Y603082D01*
X59244Y603069D01*
X59232Y603040D01*
X56793Y595864D01*
X56791Y595851D01*
X56780Y595821D01*
X54598Y588563D01*
X54596Y588549D01*
X54586Y588519D01*
X52664Y581192D01*
X52662Y581178D01*
X52654Y581148D01*
X50992Y573752D01*
X50991Y573739D01*
X50983Y573708D01*
X49585Y566260D01*
X49585Y566247D01*
X49578Y566216D01*
X48444Y558722D01*
X48444Y558708D01*
X48438Y558677D01*
X47569Y551150D01*
X47569Y551136D01*
X47565Y551106D01*
X46955Y543496D01*
X46956Y543489D01*
X46954Y543473D01*
X46489Y535993D01*
X46411Y534724D01*
X46411Y534723D01*
X46391Y534401D01*
X45904Y526558D01*
X45904Y526557D01*
X45859Y525839D01*
X45623Y522031D01*
X45417Y518715D01*
X45229Y515685D01*
X45090Y513444D01*
X44981Y511700D01*
X44930Y510873D01*
X44930Y510872D01*
X44519Y504262D01*
X44519Y504261D01*
X44443Y503030D01*
X44125Y497915D01*
X44045Y496629D01*
X43731Y491569D01*
X43652Y490300D01*
X43629Y489917D01*
X43574Y489029D01*
X43584Y488868D01*
X43593Y488713D01*
X43594Y488712D01*
X43594Y488711D01*
X43644Y488557D01*
X43691Y488411D01*
X43692Y488410D01*
X43692Y488409D01*
X43777Y488276D01*
X43862Y488142D01*
X43862Y488141D01*
X43863Y488141D01*
X43972Y488038D01*
X44093Y487924D01*
X44094Y487924D01*
X44095Y487923D01*
X44225Y487852D01*
X44372Y487770D01*
X44373Y487770D01*
X44521Y487732D01*
X44680Y487691D01*
X44681Y487691D01*
X44683Y487691D01*
X44840Y487681D01*
X712638Y487681D01*
X712790Y487700D01*
G37*
%LPC*%
G36*
X367651Y591339D02*
X367651Y591339D01*
X365514Y592224D01*
X363878Y593860D01*
X362993Y595997D01*
X362993Y598311D01*
X363878Y600448D01*
X365514Y602084D01*
X367651Y602969D01*
X369965Y602969D01*
X370277Y602839D01*
X370286Y602837D01*
X370294Y602832D01*
X370439Y602795D01*
X370584Y602755D01*
X370593Y602755D01*
X370602Y602753D01*
X370763Y602743D01*
X483315Y602743D01*
X483414Y602755D01*
X483513Y602758D01*
X483571Y602775D01*
X483631Y602783D01*
X483723Y602819D01*
X483818Y602847D01*
X483870Y602877D01*
X483927Y602900D01*
X484007Y602958D01*
X484092Y603008D01*
X484167Y603074D01*
X484184Y603086D01*
X484192Y603096D01*
X484213Y603114D01*
X519312Y638213D01*
X519372Y638291D01*
X519440Y638364D01*
X519469Y638417D01*
X519506Y638464D01*
X519546Y638555D01*
X519594Y638642D01*
X519609Y638701D01*
X519633Y638756D01*
X519648Y638854D01*
X519673Y638950D01*
X519679Y639050D01*
X519683Y639070D01*
X519681Y639083D01*
X519683Y639111D01*
X519683Y786207D01*
X519682Y786216D01*
X519683Y786226D01*
X519662Y786375D01*
X519643Y786523D01*
X519640Y786531D01*
X519639Y786541D01*
X519587Y786693D01*
X519457Y787005D01*
X519457Y789319D01*
X520342Y791456D01*
X521978Y793092D01*
X524115Y793977D01*
X526429Y793977D01*
X528566Y793092D01*
X530202Y791456D01*
X531087Y789319D01*
X531087Y787005D01*
X530957Y786693D01*
X530955Y786684D01*
X530950Y786676D01*
X530913Y786531D01*
X530873Y786386D01*
X530873Y786377D01*
X530871Y786368D01*
X530861Y786207D01*
X530861Y635158D01*
X530010Y633104D01*
X489322Y592416D01*
X487268Y591565D01*
X370763Y591565D01*
X370754Y591564D01*
X370744Y591565D01*
X370595Y591544D01*
X370447Y591525D01*
X370439Y591522D01*
X370429Y591521D01*
X370277Y591469D01*
X369965Y591339D01*
X367651Y591339D01*
G37*
%LPD*%
%LPC*%
G36*
X132385Y1165351D02*
X132385Y1165351D01*
X124633Y1167428D01*
X117682Y1171441D01*
X112007Y1177116D01*
X107994Y1184067D01*
X105917Y1191819D01*
X105917Y1199845D01*
X107994Y1207597D01*
X112007Y1214548D01*
X117682Y1220223D01*
X124633Y1224236D01*
X132385Y1226313D01*
X140411Y1226313D01*
X148163Y1224236D01*
X155114Y1220223D01*
X160789Y1214548D01*
X164802Y1207597D01*
X166879Y1199845D01*
X166879Y1191819D01*
X164802Y1184067D01*
X160789Y1177116D01*
X155114Y1171441D01*
X148163Y1167428D01*
X140411Y1165351D01*
X132385Y1165351D01*
G37*
%LPD*%
%LPC*%
G36*
X619975Y1171574D02*
X619975Y1171574D01*
X613030Y1173435D01*
X606804Y1177030D01*
X601720Y1182114D01*
X598125Y1188340D01*
X596264Y1195285D01*
X596264Y1202475D01*
X598125Y1209420D01*
X601720Y1215646D01*
X606804Y1220730D01*
X613030Y1224325D01*
X619975Y1226186D01*
X627165Y1226186D01*
X634110Y1224325D01*
X640336Y1220730D01*
X645420Y1215646D01*
X649015Y1209420D01*
X650876Y1202475D01*
X650876Y1195285D01*
X649015Y1188340D01*
X645420Y1182114D01*
X640336Y1177030D01*
X634110Y1173435D01*
X627165Y1171574D01*
X619975Y1171574D01*
G37*
%LPD*%
%LPC*%
G36*
X326843Y974185D02*
X326843Y974185D01*
X324706Y975070D01*
X323197Y976580D01*
X323119Y976640D01*
X323047Y976708D01*
X322994Y976737D01*
X322946Y976774D01*
X322855Y976814D01*
X322768Y976862D01*
X322710Y976877D01*
X322654Y976901D01*
X322556Y976916D01*
X322460Y976941D01*
X322360Y976947D01*
X322340Y976951D01*
X322328Y976949D01*
X322300Y976951D01*
X303737Y976951D01*
X285109Y995580D01*
X285031Y995640D01*
X284959Y995708D01*
X284906Y995737D01*
X284858Y995774D01*
X284767Y995814D01*
X284680Y995862D01*
X284621Y995877D01*
X284566Y995901D01*
X284468Y995916D01*
X284372Y995941D01*
X284272Y995947D01*
X284252Y995951D01*
X284239Y995949D01*
X284211Y995951D01*
X215737Y995951D01*
X210951Y1000737D01*
X210951Y1019300D01*
X210939Y1019398D01*
X210936Y1019497D01*
X210919Y1019555D01*
X210911Y1019615D01*
X210875Y1019707D01*
X210847Y1019802D01*
X210817Y1019855D01*
X210794Y1019911D01*
X210736Y1019991D01*
X210686Y1020076D01*
X210620Y1020152D01*
X210608Y1020168D01*
X210598Y1020176D01*
X210580Y1020197D01*
X209070Y1021706D01*
X208185Y1023843D01*
X208185Y1026157D01*
X209070Y1028294D01*
X210706Y1029930D01*
X212843Y1030815D01*
X215157Y1030815D01*
X217294Y1029930D01*
X218930Y1028294D01*
X219815Y1026157D01*
X219815Y1023843D01*
X218930Y1021706D01*
X217420Y1020197D01*
X217360Y1020119D01*
X217292Y1020047D01*
X217263Y1019994D01*
X217226Y1019946D01*
X217186Y1019855D01*
X217138Y1019768D01*
X217123Y1019710D01*
X217099Y1019654D01*
X217084Y1019556D01*
X217059Y1019460D01*
X217053Y1019360D01*
X217049Y1019340D01*
X217051Y1019328D01*
X217049Y1019300D01*
X217049Y1003789D01*
X217061Y1003690D01*
X217064Y1003591D01*
X217081Y1003533D01*
X217089Y1003473D01*
X217125Y1003381D01*
X217153Y1003286D01*
X217183Y1003234D01*
X217206Y1003177D01*
X217264Y1003097D01*
X217314Y1003012D01*
X217380Y1002937D01*
X217392Y1002920D01*
X217402Y1002912D01*
X217420Y1002891D01*
X217891Y1002420D01*
X217969Y1002360D01*
X218041Y1002292D01*
X218094Y1002263D01*
X218142Y1002226D01*
X218233Y1002186D01*
X218320Y1002138D01*
X218379Y1002123D01*
X218434Y1002099D01*
X218532Y1002084D01*
X218628Y1002059D01*
X218728Y1002053D01*
X218748Y1002049D01*
X218761Y1002051D01*
X218789Y1002049D01*
X287263Y1002049D01*
X305891Y983420D01*
X305969Y983360D01*
X306041Y983292D01*
X306094Y983263D01*
X306142Y983226D01*
X306233Y983186D01*
X306320Y983138D01*
X306379Y983123D01*
X306434Y983099D01*
X306532Y983084D01*
X306628Y983059D01*
X306728Y983053D01*
X306748Y983049D01*
X306761Y983051D01*
X306789Y983049D01*
X322300Y983049D01*
X322398Y983061D01*
X322497Y983064D01*
X322555Y983081D01*
X322615Y983089D01*
X322707Y983125D01*
X322802Y983153D01*
X322855Y983183D01*
X322911Y983206D01*
X322991Y983264D01*
X323076Y983314D01*
X323152Y983380D01*
X323168Y983392D01*
X323176Y983402D01*
X323197Y983420D01*
X324706Y984930D01*
X326843Y985815D01*
X329157Y985815D01*
X331294Y984930D01*
X332930Y983294D01*
X333815Y981157D01*
X333815Y978843D01*
X332930Y976706D01*
X331294Y975070D01*
X329157Y974185D01*
X326843Y974185D01*
G37*
%LPD*%
%LPC*%
G36*
X130923Y995199D02*
X130923Y995199D01*
X128786Y996084D01*
X127150Y997720D01*
X126265Y999857D01*
X126265Y1002171D01*
X126333Y1002334D01*
X126346Y1002382D01*
X126367Y1002427D01*
X126388Y1002535D01*
X126417Y1002641D01*
X126418Y1002691D01*
X126427Y1002740D01*
X126420Y1002849D01*
X126422Y1002959D01*
X126410Y1003007D01*
X126407Y1003057D01*
X126374Y1003161D01*
X126348Y1003268D01*
X126325Y1003312D01*
X126309Y1003359D01*
X126251Y1003452D01*
X126199Y1003549D01*
X126166Y1003586D01*
X126139Y1003628D01*
X126059Y1003703D01*
X125985Y1003785D01*
X125944Y1003812D01*
X125908Y1003846D01*
X125811Y1003899D01*
X125720Y1003959D01*
X125673Y1003976D01*
X125629Y1004000D01*
X125523Y1004027D01*
X125419Y1004063D01*
X125369Y1004067D01*
X125321Y1004079D01*
X125160Y1004089D01*
X124573Y1004089D01*
X122436Y1004974D01*
X120800Y1006610D01*
X119915Y1008747D01*
X119915Y1011061D01*
X120800Y1013198D01*
X122436Y1014834D01*
X124573Y1015719D01*
X126887Y1015719D01*
X129024Y1014834D01*
X130660Y1013198D01*
X131545Y1011061D01*
X131545Y1008747D01*
X131477Y1008584D01*
X131464Y1008536D01*
X131443Y1008491D01*
X131422Y1008383D01*
X131393Y1008277D01*
X131392Y1008227D01*
X131383Y1008178D01*
X131390Y1008069D01*
X131388Y1007959D01*
X131400Y1007911D01*
X131403Y1007861D01*
X131436Y1007757D01*
X131462Y1007650D01*
X131485Y1007606D01*
X131501Y1007559D01*
X131559Y1007466D01*
X131611Y1007369D01*
X131644Y1007332D01*
X131671Y1007290D01*
X131751Y1007215D01*
X131825Y1007133D01*
X131866Y1007106D01*
X131902Y1007072D01*
X131999Y1007019D01*
X132090Y1006959D01*
X132137Y1006942D01*
X132181Y1006918D01*
X132287Y1006891D01*
X132391Y1006855D01*
X132441Y1006851D01*
X132489Y1006839D01*
X132650Y1006829D01*
X133124Y1006829D01*
X133242Y1006844D01*
X133361Y1006851D01*
X133399Y1006864D01*
X133440Y1006869D01*
X133550Y1006912D01*
X133663Y1006949D01*
X133698Y1006971D01*
X133735Y1006986D01*
X133831Y1007055D01*
X133932Y1007119D01*
X133960Y1007149D01*
X133993Y1007172D01*
X134069Y1007264D01*
X134150Y1007351D01*
X134170Y1007386D01*
X134195Y1007417D01*
X134246Y1007525D01*
X134304Y1007629D01*
X134314Y1007669D01*
X134331Y1007705D01*
X134353Y1007822D01*
X134383Y1007937D01*
X134387Y1007997D01*
X134391Y1008017D01*
X134389Y1008038D01*
X134393Y1008098D01*
X134393Y1009029D01*
X135278Y1011166D01*
X136914Y1012802D01*
X139051Y1013687D01*
X141365Y1013687D01*
X143502Y1012802D01*
X145138Y1011166D01*
X146023Y1009029D01*
X146023Y1006715D01*
X145138Y1004578D01*
X143502Y1002942D01*
X141365Y1002057D01*
X139164Y1002057D01*
X139046Y1002042D01*
X138927Y1002035D01*
X138889Y1002022D01*
X138848Y1002017D01*
X138738Y1001974D01*
X138625Y1001937D01*
X138590Y1001915D01*
X138553Y1001900D01*
X138457Y1001831D01*
X138356Y1001767D01*
X138328Y1001737D01*
X138295Y1001714D01*
X138219Y1001622D01*
X138138Y1001535D01*
X138118Y1001500D01*
X138093Y1001469D01*
X138042Y1001361D01*
X137984Y1001257D01*
X137974Y1001217D01*
X137957Y1001181D01*
X137935Y1001064D01*
X137905Y1000949D01*
X137901Y1000889D01*
X137897Y1000869D01*
X137899Y1000848D01*
X137895Y1000788D01*
X137895Y999857D01*
X137010Y997720D01*
X135374Y996084D01*
X133237Y995199D01*
X130923Y995199D01*
G37*
%LPD*%
%LPC*%
G36*
X285664Y732255D02*
X285664Y732255D01*
X283527Y733140D01*
X281891Y734776D01*
X281006Y736913D01*
X281006Y738406D01*
X280991Y738524D01*
X280983Y738643D01*
X280971Y738681D01*
X280966Y738722D01*
X280922Y738832D01*
X280885Y738945D01*
X280864Y738980D01*
X280849Y739017D01*
X280779Y739113D01*
X280715Y739214D01*
X280686Y739242D01*
X280662Y739275D01*
X280570Y739351D01*
X280484Y739432D01*
X280448Y739452D01*
X280417Y739477D01*
X280309Y739528D01*
X280205Y739586D01*
X280166Y739596D01*
X280129Y739613D01*
X280012Y739635D01*
X279897Y739665D01*
X279837Y739669D01*
X279817Y739673D01*
X279797Y739671D01*
X279736Y739675D01*
X279513Y739675D01*
X277376Y740560D01*
X275688Y742249D01*
X275649Y742279D01*
X275615Y742316D01*
X275524Y742376D01*
X275437Y742444D01*
X275391Y742463D01*
X275350Y742491D01*
X275246Y742526D01*
X275145Y742570D01*
X275096Y742578D01*
X275049Y742594D01*
X274940Y742603D01*
X274831Y742620D01*
X274781Y742615D01*
X274732Y742619D01*
X274624Y742600D01*
X274514Y742590D01*
X274467Y742573D01*
X274418Y742565D01*
X274318Y742520D01*
X274215Y742482D01*
X274174Y742454D01*
X274128Y742434D01*
X274043Y742366D01*
X273952Y742304D01*
X273919Y742267D01*
X273880Y742236D01*
X273814Y742148D01*
X273741Y742065D01*
X273719Y742021D01*
X273689Y741981D01*
X273677Y741958D01*
X272026Y740306D01*
X269889Y739421D01*
X267575Y739421D01*
X265438Y740306D01*
X263802Y741942D01*
X262917Y744079D01*
X262917Y746393D01*
X263802Y748530D01*
X265438Y750166D01*
X267575Y751051D01*
X269889Y751051D01*
X272026Y750166D01*
X273714Y748477D01*
X273753Y748447D01*
X273787Y748410D01*
X273878Y748350D01*
X273965Y748282D01*
X274011Y748263D01*
X274052Y748235D01*
X274156Y748200D01*
X274257Y748156D01*
X274306Y748148D01*
X274353Y748132D01*
X274462Y748123D01*
X274571Y748106D01*
X274621Y748111D01*
X274670Y748107D01*
X274778Y748126D01*
X274888Y748136D01*
X274935Y748153D01*
X274984Y748161D01*
X275084Y748206D01*
X275187Y748244D01*
X275228Y748272D01*
X275274Y748292D01*
X275359Y748360D01*
X275450Y748422D01*
X275483Y748459D01*
X275522Y748490D01*
X275588Y748578D01*
X275661Y748661D01*
X275683Y748705D01*
X275713Y748745D01*
X275725Y748768D01*
X277376Y750420D01*
X279513Y751305D01*
X281827Y751305D01*
X283964Y750420D01*
X285600Y748784D01*
X286485Y746647D01*
X286485Y745154D01*
X286500Y745035D01*
X286507Y744917D01*
X286520Y744878D01*
X286525Y744838D01*
X286568Y744727D01*
X286605Y744614D01*
X286627Y744580D01*
X286642Y744542D01*
X286711Y744446D01*
X286775Y744345D01*
X286805Y744318D01*
X286828Y744285D01*
X286920Y744209D01*
X287007Y744128D01*
X287042Y744108D01*
X287073Y744082D01*
X287181Y744031D01*
X287285Y743974D01*
X287325Y743964D01*
X287361Y743947D01*
X287478Y743924D01*
X287593Y743895D01*
X287653Y743891D01*
X287673Y743887D01*
X287694Y743888D01*
X287754Y743884D01*
X287977Y743884D01*
X290114Y742999D01*
X291750Y741363D01*
X292635Y739226D01*
X292635Y736913D01*
X291750Y734776D01*
X290114Y733140D01*
X287977Y732255D01*
X285664Y732255D01*
G37*
%LPD*%
%LPC*%
G36*
X638844Y890217D02*
X638844Y890217D01*
X635326Y891675D01*
X632633Y894368D01*
X631175Y897886D01*
X631175Y901694D01*
X632633Y905212D01*
X635326Y907905D01*
X638844Y909363D01*
X642652Y909363D01*
X646170Y907905D01*
X648863Y905212D01*
X650321Y901694D01*
X650321Y897886D01*
X648863Y894368D01*
X646170Y891675D01*
X642652Y890217D01*
X638844Y890217D01*
G37*
%LPD*%
%LPC*%
G36*
X486444Y890217D02*
X486444Y890217D01*
X482926Y891675D01*
X480233Y894368D01*
X478775Y897886D01*
X478775Y901694D01*
X480233Y905212D01*
X482926Y907905D01*
X486444Y909363D01*
X490252Y909363D01*
X493770Y907905D01*
X496463Y905212D01*
X497921Y901694D01*
X497921Y897886D01*
X496463Y894368D01*
X493770Y891675D01*
X490252Y890217D01*
X486444Y890217D01*
G37*
%LPD*%
%LPC*%
G36*
X267328Y865227D02*
X267328Y865227D01*
X263810Y866685D01*
X261117Y869378D01*
X259659Y872896D01*
X259659Y876704D01*
X261117Y880222D01*
X263810Y882915D01*
X267328Y884373D01*
X271136Y884373D01*
X274654Y882915D01*
X277347Y880222D01*
X278805Y876704D01*
X278805Y872896D01*
X277347Y869378D01*
X274654Y866685D01*
X271136Y865227D01*
X267328Y865227D01*
G37*
%LPD*%
%LPC*%
G36*
X114928Y865227D02*
X114928Y865227D01*
X111410Y866685D01*
X108717Y869378D01*
X107259Y872896D01*
X107259Y876704D01*
X108717Y880222D01*
X111410Y882915D01*
X114928Y884373D01*
X118736Y884373D01*
X122254Y882915D01*
X124947Y880222D01*
X126405Y876704D01*
X126405Y872896D01*
X124947Y869378D01*
X122254Y866685D01*
X118736Y865227D01*
X114928Y865227D01*
G37*
%LPD*%
%LPC*%
G36*
X638844Y864817D02*
X638844Y864817D01*
X635326Y866275D01*
X632633Y868968D01*
X631175Y872486D01*
X631175Y876294D01*
X632633Y879812D01*
X635326Y882505D01*
X638844Y883963D01*
X642652Y883963D01*
X646170Y882505D01*
X648863Y879812D01*
X650321Y876294D01*
X650321Y872486D01*
X648863Y868968D01*
X646170Y866275D01*
X642652Y864817D01*
X638844Y864817D01*
G37*
%LPD*%
%LPC*%
G36*
X486444Y864817D02*
X486444Y864817D01*
X482926Y866275D01*
X480233Y868968D01*
X478775Y872486D01*
X478775Y876294D01*
X480233Y879812D01*
X482926Y882505D01*
X486444Y883963D01*
X490252Y883963D01*
X493770Y882505D01*
X496463Y879812D01*
X497921Y876294D01*
X497921Y872486D01*
X496463Y868968D01*
X493770Y866275D01*
X490252Y864817D01*
X486444Y864817D01*
G37*
%LPD*%
%LPC*%
G36*
X267328Y839827D02*
X267328Y839827D01*
X263810Y841285D01*
X261117Y843978D01*
X259659Y847496D01*
X259659Y851304D01*
X261117Y854822D01*
X263810Y857515D01*
X267328Y858973D01*
X271136Y858973D01*
X274654Y857515D01*
X277347Y854822D01*
X278805Y851304D01*
X278805Y847496D01*
X277347Y843978D01*
X274654Y841285D01*
X271136Y839827D01*
X267328Y839827D01*
G37*
%LPD*%
%LPC*%
G36*
X114928Y839827D02*
X114928Y839827D01*
X111410Y841285D01*
X108717Y843978D01*
X107259Y847496D01*
X107259Y851304D01*
X108717Y854822D01*
X111410Y857515D01*
X114928Y858973D01*
X118736Y858973D01*
X122254Y857515D01*
X124947Y854822D01*
X126405Y851304D01*
X126405Y847496D01*
X124947Y843978D01*
X122254Y841285D01*
X118736Y839827D01*
X114928Y839827D01*
G37*
%LPD*%
%LPC*%
G36*
X638844Y839417D02*
X638844Y839417D01*
X635326Y840875D01*
X632633Y843568D01*
X631175Y847086D01*
X631175Y850894D01*
X632633Y854412D01*
X635326Y857105D01*
X638844Y858563D01*
X642652Y858563D01*
X646170Y857105D01*
X648863Y854412D01*
X650321Y850894D01*
X650321Y847086D01*
X648863Y843568D01*
X646170Y840875D01*
X642652Y839417D01*
X638844Y839417D01*
G37*
%LPD*%
%LPC*%
G36*
X486444Y839417D02*
X486444Y839417D01*
X482926Y840875D01*
X480233Y843568D01*
X478775Y847086D01*
X478775Y850894D01*
X480233Y854412D01*
X482926Y857105D01*
X486444Y858563D01*
X490252Y858563D01*
X493770Y857105D01*
X496463Y854412D01*
X497921Y850894D01*
X497921Y847086D01*
X496463Y843568D01*
X493770Y840875D01*
X490252Y839417D01*
X486444Y839417D01*
G37*
%LPD*%
%LPC*%
G36*
X267328Y814427D02*
X267328Y814427D01*
X263810Y815885D01*
X261117Y818578D01*
X259659Y822096D01*
X259659Y825904D01*
X261117Y829422D01*
X263810Y832115D01*
X267328Y833573D01*
X271136Y833573D01*
X274654Y832115D01*
X277347Y829422D01*
X278805Y825904D01*
X278805Y822096D01*
X277347Y818578D01*
X274654Y815885D01*
X271136Y814427D01*
X267328Y814427D01*
G37*
%LPD*%
%LPC*%
G36*
X114928Y814427D02*
X114928Y814427D01*
X111410Y815885D01*
X108717Y818578D01*
X107259Y822096D01*
X107259Y825904D01*
X108717Y829422D01*
X111410Y832115D01*
X114928Y833573D01*
X118736Y833573D01*
X122254Y832115D01*
X124947Y829422D01*
X126405Y825904D01*
X126405Y822096D01*
X124947Y818578D01*
X122254Y815885D01*
X118736Y814427D01*
X114928Y814427D01*
G37*
%LPD*%
%LPC*%
G36*
X638844Y814017D02*
X638844Y814017D01*
X635326Y815475D01*
X632633Y818168D01*
X631175Y821686D01*
X631175Y825494D01*
X632633Y829012D01*
X635326Y831705D01*
X638844Y833163D01*
X642652Y833163D01*
X646170Y831705D01*
X648863Y829012D01*
X650321Y825494D01*
X650321Y821686D01*
X648863Y818168D01*
X646170Y815475D01*
X642652Y814017D01*
X638844Y814017D01*
G37*
%LPD*%
%LPC*%
G36*
X486444Y814017D02*
X486444Y814017D01*
X482926Y815475D01*
X480233Y818168D01*
X478775Y821686D01*
X478775Y825494D01*
X480233Y829012D01*
X482926Y831705D01*
X486444Y833163D01*
X490252Y833163D01*
X493770Y831705D01*
X496463Y829012D01*
X497921Y825494D01*
X497921Y821686D01*
X496463Y818168D01*
X493770Y815475D01*
X490252Y814017D01*
X486444Y814017D01*
G37*
%LPD*%
%LPC*%
G36*
X267328Y789027D02*
X267328Y789027D01*
X263810Y790485D01*
X261117Y793178D01*
X259659Y796696D01*
X259659Y800504D01*
X261117Y804022D01*
X263810Y806715D01*
X267328Y808173D01*
X271136Y808173D01*
X274654Y806715D01*
X277347Y804022D01*
X278805Y800504D01*
X278805Y796696D01*
X277347Y793178D01*
X274654Y790485D01*
X271136Y789027D01*
X267328Y789027D01*
G37*
%LPD*%
%LPC*%
G36*
X114928Y789027D02*
X114928Y789027D01*
X111410Y790485D01*
X108717Y793178D01*
X107259Y796696D01*
X107259Y800504D01*
X108717Y804022D01*
X111410Y806715D01*
X114928Y808173D01*
X118736Y808173D01*
X122254Y806715D01*
X124947Y804022D01*
X126405Y800504D01*
X126405Y796696D01*
X124947Y793178D01*
X122254Y790485D01*
X118736Y789027D01*
X114928Y789027D01*
G37*
%LPD*%
%LPC*%
G36*
X638844Y788617D02*
X638844Y788617D01*
X635326Y790075D01*
X632633Y792768D01*
X631175Y796286D01*
X631175Y800094D01*
X632633Y803612D01*
X635326Y806305D01*
X638844Y807763D01*
X642652Y807763D01*
X646170Y806305D01*
X648863Y803612D01*
X650321Y800094D01*
X650321Y796286D01*
X648863Y792768D01*
X646170Y790075D01*
X642652Y788617D01*
X638844Y788617D01*
G37*
%LPD*%
%LPC*%
G36*
X486444Y788617D02*
X486444Y788617D01*
X482926Y790075D01*
X480233Y792768D01*
X478775Y796286D01*
X478775Y800094D01*
X480233Y803612D01*
X482926Y806305D01*
X486444Y807763D01*
X490252Y807763D01*
X493770Y806305D01*
X496463Y803612D01*
X497921Y800094D01*
X497921Y796286D01*
X496463Y792768D01*
X493770Y790075D01*
X490252Y788617D01*
X486444Y788617D01*
G37*
%LPD*%
%LPC*%
G36*
X267328Y763627D02*
X267328Y763627D01*
X263810Y765085D01*
X261117Y767778D01*
X259659Y771296D01*
X259659Y775104D01*
X261117Y778622D01*
X263810Y781315D01*
X267328Y782773D01*
X271136Y782773D01*
X274654Y781315D01*
X277347Y778622D01*
X278805Y775104D01*
X278805Y771296D01*
X277347Y767778D01*
X274654Y765085D01*
X271136Y763627D01*
X267328Y763627D01*
G37*
%LPD*%
%LPC*%
G36*
X114928Y763627D02*
X114928Y763627D01*
X111410Y765085D01*
X108717Y767778D01*
X107259Y771296D01*
X107259Y775104D01*
X108717Y778622D01*
X111410Y781315D01*
X114928Y782773D01*
X118736Y782773D01*
X122254Y781315D01*
X124947Y778622D01*
X126405Y775104D01*
X126405Y771296D01*
X124947Y767778D01*
X122254Y765085D01*
X118736Y763627D01*
X114928Y763627D01*
G37*
%LPD*%
%LPC*%
G36*
X638844Y763217D02*
X638844Y763217D01*
X635326Y764675D01*
X632633Y767368D01*
X631175Y770886D01*
X631175Y774694D01*
X632633Y778212D01*
X635326Y780905D01*
X638844Y782363D01*
X642652Y782363D01*
X646170Y780905D01*
X648863Y778212D01*
X650321Y774694D01*
X650321Y770886D01*
X648863Y767368D01*
X646170Y764675D01*
X642652Y763217D01*
X638844Y763217D01*
G37*
%LPD*%
%LPC*%
G36*
X486444Y763217D02*
X486444Y763217D01*
X482926Y764675D01*
X480233Y767368D01*
X478775Y770886D01*
X478775Y774694D01*
X480233Y778212D01*
X482926Y780905D01*
X486444Y782363D01*
X490252Y782363D01*
X493770Y780905D01*
X496463Y778212D01*
X497921Y774694D01*
X497921Y770886D01*
X496463Y767368D01*
X493770Y764675D01*
X490252Y763217D01*
X486444Y763217D01*
G37*
%LPD*%
%LPC*%
G36*
X267328Y966827D02*
X267328Y966827D01*
X263810Y968285D01*
X261117Y970978D01*
X259659Y974496D01*
X259659Y978304D01*
X261117Y981822D01*
X263810Y984515D01*
X267328Y985973D01*
X271136Y985973D01*
X274654Y984515D01*
X277347Y981822D01*
X278805Y978304D01*
X278805Y974496D01*
X277347Y970978D01*
X274654Y968285D01*
X271136Y966827D01*
X267328Y966827D01*
G37*
%LPD*%
%LPC*%
G36*
X114928Y966827D02*
X114928Y966827D01*
X111410Y968285D01*
X108717Y970978D01*
X107259Y974496D01*
X107259Y978304D01*
X108717Y981822D01*
X111410Y984515D01*
X114928Y985973D01*
X118736Y985973D01*
X122254Y984515D01*
X124947Y981822D01*
X126405Y978304D01*
X126405Y974496D01*
X124947Y970978D01*
X122254Y968285D01*
X118736Y966827D01*
X114928Y966827D01*
G37*
%LPD*%
%LPC*%
G36*
X638844Y966417D02*
X638844Y966417D01*
X635326Y967875D01*
X632633Y970568D01*
X631175Y974086D01*
X631175Y977894D01*
X632633Y981412D01*
X635326Y984105D01*
X638844Y985563D01*
X642652Y985563D01*
X646170Y984105D01*
X648863Y981412D01*
X650321Y977894D01*
X650321Y974086D01*
X648863Y970568D01*
X646170Y967875D01*
X642652Y966417D01*
X638844Y966417D01*
G37*
%LPD*%
%LPC*%
G36*
X486444Y966417D02*
X486444Y966417D01*
X482926Y967875D01*
X480233Y970568D01*
X478775Y974086D01*
X478775Y977894D01*
X480233Y981412D01*
X482926Y984105D01*
X486444Y985563D01*
X490252Y985563D01*
X493770Y984105D01*
X496463Y981412D01*
X497921Y977894D01*
X497921Y974086D01*
X496463Y970568D01*
X493770Y967875D01*
X490252Y966417D01*
X486444Y966417D01*
G37*
%LPD*%
%LPC*%
G36*
X267328Y941427D02*
X267328Y941427D01*
X263810Y942885D01*
X261117Y945578D01*
X259659Y949096D01*
X259659Y952904D01*
X261117Y956422D01*
X263810Y959115D01*
X267328Y960573D01*
X271136Y960573D01*
X274654Y959115D01*
X277347Y956422D01*
X278805Y952904D01*
X278805Y949096D01*
X277347Y945578D01*
X274654Y942885D01*
X271136Y941427D01*
X267328Y941427D01*
G37*
%LPD*%
%LPC*%
G36*
X114928Y941427D02*
X114928Y941427D01*
X111410Y942885D01*
X108717Y945578D01*
X107259Y949096D01*
X107259Y952904D01*
X108717Y956422D01*
X111410Y959115D01*
X114928Y960573D01*
X118736Y960573D01*
X122254Y959115D01*
X124947Y956422D01*
X126405Y952904D01*
X126405Y949096D01*
X124947Y945578D01*
X122254Y942885D01*
X118736Y941427D01*
X114928Y941427D01*
G37*
%LPD*%
%LPC*%
G36*
X638844Y941017D02*
X638844Y941017D01*
X635326Y942475D01*
X632633Y945168D01*
X631175Y948686D01*
X631175Y952494D01*
X632633Y956012D01*
X635326Y958705D01*
X638844Y960163D01*
X642652Y960163D01*
X646170Y958705D01*
X648863Y956012D01*
X650321Y952494D01*
X650321Y948686D01*
X648863Y945168D01*
X646170Y942475D01*
X642652Y941017D01*
X638844Y941017D01*
G37*
%LPD*%
%LPC*%
G36*
X486444Y941017D02*
X486444Y941017D01*
X482926Y942475D01*
X480233Y945168D01*
X478775Y948686D01*
X478775Y952494D01*
X480233Y956012D01*
X482926Y958705D01*
X486444Y960163D01*
X490252Y960163D01*
X493770Y958705D01*
X496463Y956012D01*
X497921Y952494D01*
X497921Y948686D01*
X496463Y945168D01*
X493770Y942475D01*
X490252Y941017D01*
X486444Y941017D01*
G37*
%LPD*%
%LPC*%
G36*
X267328Y916027D02*
X267328Y916027D01*
X263810Y917485D01*
X261117Y920178D01*
X259659Y923696D01*
X259659Y927504D01*
X261117Y931022D01*
X263810Y933715D01*
X267328Y935173D01*
X271136Y935173D01*
X274654Y933715D01*
X277347Y931022D01*
X278805Y927504D01*
X278805Y923696D01*
X277347Y920178D01*
X274654Y917485D01*
X271136Y916027D01*
X267328Y916027D01*
G37*
%LPD*%
%LPC*%
G36*
X114928Y916027D02*
X114928Y916027D01*
X111410Y917485D01*
X108717Y920178D01*
X107259Y923696D01*
X107259Y927504D01*
X108717Y931022D01*
X111410Y933715D01*
X114928Y935173D01*
X118736Y935173D01*
X122254Y933715D01*
X124947Y931022D01*
X126405Y927504D01*
X126405Y923696D01*
X124947Y920178D01*
X122254Y917485D01*
X118736Y916027D01*
X114928Y916027D01*
G37*
%LPD*%
%LPC*%
G36*
X638844Y915617D02*
X638844Y915617D01*
X635326Y917075D01*
X632633Y919768D01*
X631175Y923286D01*
X631175Y927094D01*
X632633Y930612D01*
X635326Y933305D01*
X638844Y934763D01*
X642652Y934763D01*
X646170Y933305D01*
X648863Y930612D01*
X650321Y927094D01*
X650321Y923286D01*
X648863Y919768D01*
X646170Y917075D01*
X642652Y915617D01*
X638844Y915617D01*
G37*
%LPD*%
%LPC*%
G36*
X486444Y915617D02*
X486444Y915617D01*
X482926Y917075D01*
X480233Y919768D01*
X478775Y923286D01*
X478775Y927094D01*
X480233Y930612D01*
X482926Y933305D01*
X486444Y934763D01*
X490252Y934763D01*
X493770Y933305D01*
X496463Y930612D01*
X497921Y927094D01*
X497921Y923286D01*
X496463Y919768D01*
X493770Y917075D01*
X490252Y915617D01*
X486444Y915617D01*
G37*
%LPD*%
%LPC*%
G36*
X267328Y890627D02*
X267328Y890627D01*
X263810Y892085D01*
X261117Y894778D01*
X259659Y898296D01*
X259659Y902104D01*
X261117Y905622D01*
X263810Y908315D01*
X267328Y909773D01*
X271136Y909773D01*
X274654Y908315D01*
X277347Y905622D01*
X278805Y902104D01*
X278805Y898296D01*
X277347Y894778D01*
X274654Y892085D01*
X271136Y890627D01*
X267328Y890627D01*
G37*
%LPD*%
%LPC*%
G36*
X114928Y890627D02*
X114928Y890627D01*
X111410Y892085D01*
X108717Y894778D01*
X107259Y898296D01*
X107259Y902104D01*
X108717Y905622D01*
X111410Y908315D01*
X114928Y909773D01*
X118736Y909773D01*
X122254Y908315D01*
X124947Y905622D01*
X126405Y902104D01*
X126405Y898296D01*
X124947Y894778D01*
X122254Y892085D01*
X118736Y890627D01*
X114928Y890627D01*
G37*
%LPD*%
%LPC*%
G36*
X209663Y1091465D02*
X209663Y1091465D01*
X207526Y1092350D01*
X205890Y1093986D01*
X205005Y1096123D01*
X205005Y1098437D01*
X205890Y1100574D01*
X207121Y1101805D01*
X207152Y1101844D01*
X207189Y1101877D01*
X207249Y1101969D01*
X207316Y1102056D01*
X207336Y1102102D01*
X207363Y1102143D01*
X207399Y1102247D01*
X207443Y1102348D01*
X207450Y1102397D01*
X207467Y1102444D01*
X207475Y1102553D01*
X207492Y1102662D01*
X207488Y1102711D01*
X207492Y1102761D01*
X207473Y1102869D01*
X207463Y1102978D01*
X207446Y1103025D01*
X207437Y1103074D01*
X207392Y1103174D01*
X207355Y1103278D01*
X207327Y1103319D01*
X207307Y1103364D01*
X207238Y1103450D01*
X207176Y1103541D01*
X207139Y1103574D01*
X207108Y1103613D01*
X207020Y1103679D01*
X206938Y1103751D01*
X206894Y1103774D01*
X206854Y1103804D01*
X206710Y1103875D01*
X206256Y1104063D01*
X204620Y1105698D01*
X203735Y1107835D01*
X203735Y1110149D01*
X204620Y1112286D01*
X206256Y1113922D01*
X208393Y1114807D01*
X210707Y1114807D01*
X212844Y1113922D01*
X214480Y1112286D01*
X215365Y1110149D01*
X215365Y1107835D01*
X214480Y1105698D01*
X213249Y1104467D01*
X213218Y1104428D01*
X213181Y1104395D01*
X213121Y1104303D01*
X213054Y1104216D01*
X213034Y1104170D01*
X213007Y1104129D01*
X212971Y1104025D01*
X212927Y1103924D01*
X212920Y1103875D01*
X212903Y1103828D01*
X212895Y1103719D01*
X212878Y1103610D01*
X212882Y1103561D01*
X212878Y1103511D01*
X212897Y1103403D01*
X212907Y1103294D01*
X212924Y1103247D01*
X212933Y1103198D01*
X212978Y1103098D01*
X213015Y1102994D01*
X213043Y1102953D01*
X213063Y1102908D01*
X213132Y1102822D01*
X213194Y1102731D01*
X213231Y1102698D01*
X213262Y1102659D01*
X213350Y1102593D01*
X213432Y1102521D01*
X213476Y1102498D01*
X213516Y1102468D01*
X213660Y1102397D01*
X214114Y1102209D01*
X215750Y1100574D01*
X216635Y1098437D01*
X216635Y1096123D01*
X215750Y1093986D01*
X214114Y1092350D01*
X211977Y1091465D01*
X209663Y1091465D01*
G37*
%LPD*%
%LPC*%
G36*
X128383Y751105D02*
X128383Y751105D01*
X126246Y751990D01*
X124610Y753626D01*
X123725Y755763D01*
X123725Y758077D01*
X124610Y760214D01*
X126246Y761850D01*
X128383Y762735D01*
X130697Y762735D01*
X132834Y761850D01*
X134469Y760214D01*
X135352Y758082D01*
X135421Y757961D01*
X135486Y757839D01*
X135500Y757824D01*
X135510Y757806D01*
X135607Y757706D01*
X135700Y757603D01*
X135717Y757592D01*
X135731Y757578D01*
X135849Y757505D01*
X135966Y757429D01*
X135985Y757422D01*
X136002Y757411D01*
X136135Y757371D01*
X136267Y757325D01*
X136287Y757324D01*
X136306Y757318D01*
X136445Y757311D01*
X136584Y757300D01*
X136604Y757304D01*
X136624Y757303D01*
X136760Y757331D01*
X136897Y757355D01*
X136916Y757363D01*
X136935Y757367D01*
X137060Y757428D01*
X137187Y757485D01*
X137203Y757498D01*
X137221Y757507D01*
X137327Y757597D01*
X137435Y757684D01*
X137448Y757700D01*
X137463Y757713D01*
X137543Y757827D01*
X137627Y757938D01*
X137639Y757963D01*
X137646Y757973D01*
X137653Y757992D01*
X137698Y758082D01*
X138580Y760214D01*
X140216Y761850D01*
X142353Y762735D01*
X144667Y762735D01*
X146804Y761850D01*
X148440Y760214D01*
X149325Y758077D01*
X149325Y755763D01*
X148440Y753626D01*
X146804Y751990D01*
X144667Y751105D01*
X142353Y751105D01*
X140216Y751990D01*
X138580Y753626D01*
X137698Y755758D01*
X137629Y755879D01*
X137564Y756001D01*
X137550Y756016D01*
X137540Y756034D01*
X137443Y756134D01*
X137350Y756237D01*
X137333Y756248D01*
X137319Y756262D01*
X137200Y756335D01*
X137084Y756411D01*
X137065Y756418D01*
X137048Y756429D01*
X136915Y756470D01*
X136783Y756515D01*
X136763Y756516D01*
X136744Y756522D01*
X136605Y756529D01*
X136466Y756540D01*
X136446Y756536D01*
X136426Y756537D01*
X136290Y756509D01*
X136153Y756485D01*
X136134Y756477D01*
X136115Y756473D01*
X135989Y756412D01*
X135863Y756355D01*
X135847Y756342D01*
X135829Y756333D01*
X135723Y756243D01*
X135615Y756156D01*
X135602Y756140D01*
X135587Y756127D01*
X135507Y756013D01*
X135423Y755902D01*
X135411Y755877D01*
X135404Y755867D01*
X135397Y755848D01*
X135352Y755758D01*
X134469Y753626D01*
X132834Y751990D01*
X130697Y751105D01*
X128383Y751105D01*
G37*
%LPD*%
%LPC*%
G36*
X185533Y1094005D02*
X185533Y1094005D01*
X183396Y1094890D01*
X181760Y1096526D01*
X180875Y1098663D01*
X180875Y1100977D01*
X181760Y1103114D01*
X183396Y1104750D01*
X185533Y1105635D01*
X187226Y1105635D01*
X187344Y1105650D01*
X187463Y1105657D01*
X187501Y1105670D01*
X187542Y1105675D01*
X187652Y1105718D01*
X187765Y1105755D01*
X187800Y1105777D01*
X187837Y1105792D01*
X187933Y1105861D01*
X188034Y1105925D01*
X188062Y1105955D01*
X188095Y1105978D01*
X188171Y1106070D01*
X188252Y1106157D01*
X188272Y1106192D01*
X188297Y1106223D01*
X188348Y1106331D01*
X188406Y1106435D01*
X188416Y1106475D01*
X188433Y1106511D01*
X188455Y1106628D01*
X188485Y1106743D01*
X188489Y1106803D01*
X188493Y1106823D01*
X188491Y1106844D01*
X188495Y1106904D01*
X188495Y1108597D01*
X189380Y1110734D01*
X191016Y1112370D01*
X193153Y1113255D01*
X195467Y1113255D01*
X197604Y1112370D01*
X199240Y1110734D01*
X200125Y1108597D01*
X200125Y1106283D01*
X199240Y1104146D01*
X197604Y1102510D01*
X195467Y1101625D01*
X193774Y1101625D01*
X193656Y1101610D01*
X193537Y1101603D01*
X193499Y1101590D01*
X193458Y1101585D01*
X193348Y1101542D01*
X193235Y1101505D01*
X193200Y1101483D01*
X193163Y1101468D01*
X193067Y1101399D01*
X192966Y1101335D01*
X192938Y1101305D01*
X192905Y1101282D01*
X192829Y1101190D01*
X192748Y1101103D01*
X192728Y1101068D01*
X192703Y1101037D01*
X192652Y1100929D01*
X192594Y1100825D01*
X192584Y1100785D01*
X192567Y1100749D01*
X192545Y1100632D01*
X192515Y1100517D01*
X192511Y1100457D01*
X192507Y1100437D01*
X192509Y1100416D01*
X192505Y1100356D01*
X192505Y1098663D01*
X191620Y1096526D01*
X189984Y1094890D01*
X187847Y1094005D01*
X185533Y1094005D01*
G37*
%LPD*%
%LPC*%
G36*
X161403Y1064795D02*
X161403Y1064795D01*
X159266Y1065680D01*
X157630Y1067316D01*
X156745Y1069453D01*
X156745Y1071767D01*
X157630Y1073904D01*
X157884Y1074158D01*
X157957Y1074252D01*
X158036Y1074341D01*
X158054Y1074377D01*
X158079Y1074409D01*
X158127Y1074518D01*
X158181Y1074624D01*
X158189Y1074663D01*
X158206Y1074701D01*
X158224Y1074818D01*
X158250Y1074934D01*
X158249Y1074975D01*
X158255Y1075015D01*
X158244Y1075133D01*
X158241Y1075252D01*
X158229Y1075291D01*
X158226Y1075331D01*
X158185Y1075443D01*
X158152Y1075558D01*
X158132Y1075593D01*
X158118Y1075631D01*
X158051Y1075729D01*
X157991Y1075832D01*
X157951Y1075877D01*
X157939Y1075894D01*
X157924Y1075907D01*
X157884Y1075953D01*
X156360Y1077476D01*
X155475Y1079613D01*
X155475Y1081927D01*
X156360Y1084064D01*
X157996Y1085700D01*
X160133Y1086585D01*
X162447Y1086585D01*
X164584Y1085700D01*
X166220Y1084064D01*
X167105Y1081927D01*
X167105Y1079613D01*
X166220Y1077476D01*
X165966Y1077223D01*
X165893Y1077128D01*
X165814Y1077039D01*
X165796Y1077003D01*
X165771Y1076971D01*
X165724Y1076862D01*
X165669Y1076756D01*
X165661Y1076716D01*
X165645Y1076679D01*
X165626Y1076562D01*
X165600Y1076446D01*
X165601Y1076405D01*
X165595Y1076365D01*
X165606Y1076247D01*
X165609Y1076128D01*
X165621Y1076089D01*
X165624Y1076049D01*
X165665Y1075936D01*
X165698Y1075822D01*
X165718Y1075788D01*
X165732Y1075749D01*
X165799Y1075651D01*
X165859Y1075548D01*
X165899Y1075503D01*
X165911Y1075486D01*
X165926Y1075473D01*
X165966Y1075428D01*
X167490Y1073904D01*
X168375Y1071767D01*
X168375Y1069453D01*
X167490Y1067316D01*
X165854Y1065680D01*
X163717Y1064795D01*
X161403Y1064795D01*
G37*
%LPD*%
%LPC*%
G36*
X593203Y1135915D02*
X593203Y1135915D01*
X591066Y1136800D01*
X589430Y1138436D01*
X588545Y1140573D01*
X588545Y1142887D01*
X589430Y1145024D01*
X591066Y1146660D01*
X593203Y1147545D01*
X595517Y1147545D01*
X597654Y1146660D01*
X599290Y1145024D01*
X600175Y1142887D01*
X600175Y1140573D01*
X599290Y1138436D01*
X597654Y1136800D01*
X595517Y1135915D01*
X593203Y1135915D01*
G37*
%LPD*%
%LPC*%
G36*
X237349Y1115109D02*
X237349Y1115109D01*
X235212Y1115994D01*
X233576Y1117630D01*
X232691Y1119767D01*
X232691Y1122081D01*
X233576Y1124218D01*
X235212Y1125854D01*
X237349Y1126739D01*
X239663Y1126739D01*
X241800Y1125854D01*
X243436Y1124218D01*
X244321Y1122081D01*
X244321Y1119767D01*
X243436Y1117630D01*
X241800Y1115994D01*
X239663Y1115109D01*
X237349Y1115109D01*
G37*
%LPD*%
%LPC*%
G36*
X102983Y1110515D02*
X102983Y1110515D01*
X100846Y1111400D01*
X99210Y1113036D01*
X98325Y1115173D01*
X98325Y1117487D01*
X99210Y1119624D01*
X100846Y1121260D01*
X102983Y1122145D01*
X105297Y1122145D01*
X107434Y1121260D01*
X109070Y1119624D01*
X109955Y1117487D01*
X109955Y1115173D01*
X109070Y1113036D01*
X107434Y1111400D01*
X105297Y1110515D01*
X102983Y1110515D01*
G37*
%LPD*%
%LPC*%
G36*
X118223Y1105435D02*
X118223Y1105435D01*
X116086Y1106320D01*
X114450Y1107956D01*
X113565Y1110093D01*
X113565Y1112407D01*
X114450Y1114544D01*
X116086Y1116180D01*
X118223Y1117065D01*
X120537Y1117065D01*
X122674Y1116180D01*
X124310Y1114544D01*
X125195Y1112407D01*
X125195Y1110093D01*
X124310Y1107956D01*
X122674Y1106320D01*
X120537Y1105435D01*
X118223Y1105435D01*
G37*
%LPD*%
%LPC*%
G36*
X155307Y1102895D02*
X155307Y1102895D01*
X153170Y1103780D01*
X151534Y1105416D01*
X150649Y1107553D01*
X150649Y1109867D01*
X151534Y1112004D01*
X153170Y1113640D01*
X155307Y1114525D01*
X157621Y1114525D01*
X159758Y1113640D01*
X161394Y1112004D01*
X162279Y1109867D01*
X162279Y1107553D01*
X161394Y1105416D01*
X159758Y1103780D01*
X157621Y1102895D01*
X155307Y1102895D01*
G37*
%LPD*%
%LPC*%
G36*
X203211Y1073025D02*
X203211Y1073025D01*
X201074Y1073910D01*
X199438Y1075546D01*
X198553Y1077683D01*
X198553Y1079997D01*
X199438Y1082134D01*
X201074Y1083770D01*
X203211Y1084655D01*
X205525Y1084655D01*
X207662Y1083770D01*
X209298Y1082134D01*
X210183Y1079997D01*
X210183Y1077683D01*
X209298Y1075546D01*
X207662Y1073910D01*
X205525Y1073025D01*
X203211Y1073025D01*
G37*
%LPD*%
%LPC*%
G36*
X175373Y1072923D02*
X175373Y1072923D01*
X173236Y1073808D01*
X171600Y1075444D01*
X170715Y1077581D01*
X170715Y1079895D01*
X171600Y1082032D01*
X173236Y1083668D01*
X175373Y1084553D01*
X177687Y1084553D01*
X179824Y1083668D01*
X181460Y1082032D01*
X182345Y1079895D01*
X182345Y1077581D01*
X181460Y1075444D01*
X179824Y1073808D01*
X177687Y1072923D01*
X175373Y1072923D01*
G37*
%LPD*%
%LPC*%
G36*
X532751Y1064287D02*
X532751Y1064287D01*
X530614Y1065172D01*
X528978Y1066808D01*
X528093Y1068945D01*
X528093Y1071259D01*
X528978Y1073396D01*
X530614Y1075032D01*
X532751Y1075917D01*
X535065Y1075917D01*
X537202Y1075032D01*
X538838Y1073396D01*
X539723Y1071259D01*
X539723Y1068945D01*
X538838Y1066808D01*
X537202Y1065172D01*
X535065Y1064287D01*
X532751Y1064287D01*
G37*
%LPD*%
%LPC*%
G36*
X247001Y1055905D02*
X247001Y1055905D01*
X244864Y1056790D01*
X243228Y1058426D01*
X242343Y1060563D01*
X242343Y1062877D01*
X243228Y1065014D01*
X244864Y1066650D01*
X247001Y1067535D01*
X249315Y1067535D01*
X251452Y1066650D01*
X253088Y1065014D01*
X253973Y1062877D01*
X253973Y1060563D01*
X253088Y1058426D01*
X251452Y1056790D01*
X249315Y1055905D01*
X247001Y1055905D01*
G37*
%LPD*%
%LPC*%
G36*
X202043Y1052095D02*
X202043Y1052095D01*
X199906Y1052980D01*
X198270Y1054616D01*
X197385Y1056753D01*
X197385Y1059067D01*
X198270Y1061204D01*
X199906Y1062840D01*
X202043Y1063725D01*
X204357Y1063725D01*
X206494Y1062840D01*
X208130Y1061204D01*
X209015Y1059067D01*
X209015Y1056753D01*
X208130Y1054616D01*
X206494Y1052980D01*
X204357Y1052095D01*
X202043Y1052095D01*
G37*
%LPD*%
%LPC*%
G36*
X259193Y1033045D02*
X259193Y1033045D01*
X257056Y1033930D01*
X255420Y1035566D01*
X254535Y1037703D01*
X254535Y1040017D01*
X255420Y1042154D01*
X257056Y1043790D01*
X259193Y1044675D01*
X261507Y1044675D01*
X263644Y1043790D01*
X265280Y1042154D01*
X266165Y1040017D01*
X266165Y1037703D01*
X265280Y1035566D01*
X263644Y1033930D01*
X261507Y1033045D01*
X259193Y1033045D01*
G37*
%LPD*%
%LPC*%
G36*
X498715Y1030505D02*
X498715Y1030505D01*
X496578Y1031390D01*
X494942Y1033026D01*
X494057Y1035163D01*
X494057Y1037477D01*
X494942Y1039614D01*
X496578Y1041250D01*
X498715Y1042135D01*
X501029Y1042135D01*
X503166Y1041250D01*
X504802Y1039614D01*
X505687Y1037477D01*
X505687Y1035163D01*
X504802Y1033026D01*
X503166Y1031390D01*
X501029Y1030505D01*
X498715Y1030505D01*
G37*
%LPD*%
%LPC*%
G36*
X383653Y1006375D02*
X383653Y1006375D01*
X381516Y1007260D01*
X379880Y1008896D01*
X378995Y1011033D01*
X378995Y1013347D01*
X379880Y1015484D01*
X381516Y1017120D01*
X383653Y1018005D01*
X385967Y1018005D01*
X388104Y1017120D01*
X389740Y1015484D01*
X390625Y1013347D01*
X390625Y1011033D01*
X389740Y1008896D01*
X388104Y1007260D01*
X385967Y1006375D01*
X383653Y1006375D01*
G37*
%LPD*%
%LPC*%
G36*
X274433Y1005105D02*
X274433Y1005105D01*
X272296Y1005990D01*
X270660Y1007626D01*
X269775Y1009763D01*
X269775Y1012077D01*
X270660Y1014214D01*
X272296Y1015850D01*
X274433Y1016735D01*
X276747Y1016735D01*
X278884Y1015850D01*
X280520Y1014214D01*
X281405Y1012077D01*
X281405Y1009763D01*
X280520Y1007626D01*
X278884Y1005990D01*
X276747Y1005105D01*
X274433Y1005105D01*
G37*
%LPD*%
%LPC*%
G36*
X190613Y1002565D02*
X190613Y1002565D01*
X188476Y1003450D01*
X186840Y1005086D01*
X185955Y1007223D01*
X185955Y1009537D01*
X186840Y1011674D01*
X188476Y1013310D01*
X190613Y1014195D01*
X192927Y1014195D01*
X195064Y1013310D01*
X196700Y1011674D01*
X197585Y1009537D01*
X197585Y1007223D01*
X196700Y1005086D01*
X195064Y1003450D01*
X192927Y1002565D01*
X190613Y1002565D01*
G37*
%LPD*%
%LPC*%
G36*
X103265Y1002057D02*
X103265Y1002057D01*
X101128Y1002942D01*
X99492Y1004578D01*
X98607Y1006715D01*
X98607Y1009029D01*
X99492Y1011166D01*
X101128Y1012802D01*
X103265Y1013687D01*
X105579Y1013687D01*
X107716Y1012802D01*
X109352Y1011166D01*
X110237Y1009029D01*
X110237Y1006715D01*
X109352Y1004578D01*
X107716Y1002942D01*
X105579Y1002057D01*
X103265Y1002057D01*
G37*
%LPD*%
%LPC*%
G36*
X481443Y994945D02*
X481443Y994945D01*
X479306Y995830D01*
X477670Y997466D01*
X476785Y999603D01*
X476785Y1001917D01*
X477670Y1004054D01*
X479306Y1005690D01*
X481443Y1006575D01*
X483757Y1006575D01*
X485894Y1005690D01*
X487530Y1004054D01*
X488415Y1001917D01*
X488415Y999603D01*
X487530Y997466D01*
X485894Y995830D01*
X483757Y994945D01*
X481443Y994945D01*
G37*
%LPD*%
%LPC*%
G36*
X148703Y989865D02*
X148703Y989865D01*
X146566Y990750D01*
X144930Y992386D01*
X144045Y994523D01*
X144045Y996837D01*
X144930Y998974D01*
X146566Y1000610D01*
X148703Y1001495D01*
X151017Y1001495D01*
X153154Y1000610D01*
X154790Y998974D01*
X155675Y996837D01*
X155675Y994523D01*
X154790Y992386D01*
X153154Y990750D01*
X151017Y989865D01*
X148703Y989865D01*
G37*
%LPD*%
%LPC*%
G36*
X177913Y1138455D02*
X177913Y1138455D01*
X175776Y1139340D01*
X174140Y1140976D01*
X173255Y1143113D01*
X173255Y1145427D01*
X174140Y1147564D01*
X175776Y1149200D01*
X177913Y1150085D01*
X180227Y1150085D01*
X182364Y1149200D01*
X184000Y1147564D01*
X184885Y1145427D01*
X184885Y1143113D01*
X184000Y1140976D01*
X182364Y1139340D01*
X180227Y1138455D01*
X177913Y1138455D01*
G37*
%LPD*%
%LPC*%
G36*
X619873Y818415D02*
X619873Y818415D01*
X617736Y819300D01*
X616100Y820936D01*
X615215Y823073D01*
X615215Y825387D01*
X616100Y827524D01*
X617736Y829160D01*
X619873Y830045D01*
X622187Y830045D01*
X624324Y829160D01*
X625960Y827524D01*
X626845Y825387D01*
X626845Y823073D01*
X625960Y820936D01*
X624324Y819300D01*
X622187Y818415D01*
X619873Y818415D01*
G37*
%LPD*%
%LPC*%
G36*
X591933Y796825D02*
X591933Y796825D01*
X589796Y797710D01*
X588160Y799346D01*
X587275Y801483D01*
X587275Y803797D01*
X588160Y805934D01*
X589796Y807570D01*
X591933Y808455D01*
X594247Y808455D01*
X596384Y807570D01*
X598020Y805934D01*
X598905Y803797D01*
X598905Y801483D01*
X598020Y799346D01*
X596384Y797710D01*
X594247Y796825D01*
X591933Y796825D01*
G37*
%LPD*%
%LPC*%
G36*
X565263Y794285D02*
X565263Y794285D01*
X563126Y795170D01*
X561490Y796806D01*
X560605Y798943D01*
X560605Y801257D01*
X561490Y803394D01*
X563126Y805030D01*
X565263Y805915D01*
X567577Y805915D01*
X569714Y805030D01*
X571350Y803394D01*
X572235Y801257D01*
X572235Y798943D01*
X571350Y796806D01*
X569714Y795170D01*
X567577Y794285D01*
X565263Y794285D01*
G37*
%LPD*%
%LPC*%
G36*
X243953Y972085D02*
X243953Y972085D01*
X241816Y972970D01*
X240180Y974606D01*
X239295Y976743D01*
X239295Y979057D01*
X240180Y981194D01*
X241816Y982830D01*
X243953Y983715D01*
X246267Y983715D01*
X248404Y982830D01*
X250040Y981194D01*
X250925Y979057D01*
X250925Y976743D01*
X250040Y974606D01*
X248404Y972970D01*
X246267Y972085D01*
X243953Y972085D01*
G37*
%LPD*%
%LPC*%
G36*
X133463Y779045D02*
X133463Y779045D01*
X131326Y779930D01*
X129690Y781566D01*
X128805Y783703D01*
X128805Y786017D01*
X129690Y788154D01*
X131326Y789790D01*
X133463Y790675D01*
X135777Y790675D01*
X137914Y789790D01*
X139550Y788154D01*
X140435Y786017D01*
X140435Y783703D01*
X139550Y781566D01*
X137914Y779930D01*
X135777Y779045D01*
X133463Y779045D01*
G37*
%LPD*%
%LPC*%
G36*
X243699Y748565D02*
X243699Y748565D01*
X241562Y749450D01*
X239926Y751086D01*
X239041Y753223D01*
X239041Y755537D01*
X239926Y757674D01*
X241562Y759310D01*
X243699Y760195D01*
X246013Y760195D01*
X248150Y759310D01*
X249786Y757674D01*
X250671Y755537D01*
X250671Y753223D01*
X249786Y751086D01*
X248150Y749450D01*
X246013Y748565D01*
X243699Y748565D01*
G37*
%LPD*%
%LPC*%
G36*
X175373Y983515D02*
X175373Y983515D01*
X173236Y984400D01*
X171600Y986036D01*
X170715Y988173D01*
X170715Y990487D01*
X171600Y992624D01*
X173236Y994260D01*
X175373Y995145D01*
X177687Y995145D01*
X179824Y994260D01*
X181460Y992624D01*
X182345Y990487D01*
X182345Y988173D01*
X181460Y986036D01*
X179824Y984400D01*
X177687Y983515D01*
X175373Y983515D01*
G37*
%LPD*%
%LPC*%
G36*
X649083Y738405D02*
X649083Y738405D01*
X646946Y739290D01*
X645310Y740926D01*
X644425Y743063D01*
X644425Y745377D01*
X645310Y747514D01*
X646946Y749150D01*
X649083Y750035D01*
X651397Y750035D01*
X653534Y749150D01*
X655170Y747514D01*
X656055Y745377D01*
X656055Y743063D01*
X655170Y740926D01*
X653534Y739290D01*
X651397Y738405D01*
X649083Y738405D01*
G37*
%LPD*%
%LPC*%
G36*
X472553Y738405D02*
X472553Y738405D01*
X470416Y739290D01*
X468780Y740926D01*
X467895Y743063D01*
X467895Y745377D01*
X468780Y747514D01*
X470416Y749150D01*
X472553Y750035D01*
X474867Y750035D01*
X477004Y749150D01*
X478640Y747514D01*
X479525Y745377D01*
X479525Y743063D01*
X478640Y740926D01*
X477004Y739290D01*
X474867Y738405D01*
X472553Y738405D01*
G37*
%LPD*%
%LPC*%
G36*
X252843Y735865D02*
X252843Y735865D01*
X250706Y736750D01*
X249070Y738386D01*
X248185Y740523D01*
X248185Y742837D01*
X249070Y744974D01*
X250706Y746610D01*
X252843Y747495D01*
X255157Y747495D01*
X257294Y746610D01*
X258930Y744974D01*
X259815Y742837D01*
X259815Y740523D01*
X258930Y738386D01*
X257294Y736750D01*
X255157Y735865D01*
X252843Y735865D01*
G37*
%LPD*%
%LPC*%
G36*
X72503Y732055D02*
X72503Y732055D01*
X70366Y732940D01*
X68730Y734576D01*
X67845Y736713D01*
X67845Y739027D01*
X68730Y741164D01*
X70366Y742800D01*
X72503Y743685D01*
X74817Y743685D01*
X76954Y742800D01*
X78590Y741164D01*
X79475Y739027D01*
X79475Y736713D01*
X78590Y734576D01*
X76954Y732940D01*
X74817Y732055D01*
X72503Y732055D01*
G37*
%LPD*%
%LPC*%
G36*
X165213Y719355D02*
X165213Y719355D01*
X163076Y720240D01*
X161440Y721876D01*
X160555Y724013D01*
X160555Y726327D01*
X161440Y728464D01*
X163076Y730100D01*
X165213Y730985D01*
X167527Y730985D01*
X169664Y730100D01*
X171300Y728464D01*
X172185Y726327D01*
X172185Y724013D01*
X171300Y721876D01*
X169664Y720240D01*
X167527Y719355D01*
X165213Y719355D01*
G37*
%LPD*%
%LPC*%
G36*
X185599Y708245D02*
X185599Y708245D01*
X183462Y709130D01*
X181826Y710766D01*
X180941Y712903D01*
X180941Y715216D01*
X181826Y717353D01*
X183462Y718989D01*
X185599Y719874D01*
X187912Y719874D01*
X190049Y718989D01*
X191685Y717353D01*
X192570Y715216D01*
X192570Y712903D01*
X191685Y710766D01*
X190049Y709130D01*
X187912Y708245D01*
X185599Y708245D01*
G37*
%LPD*%
%LPC*%
G36*
X208901Y698019D02*
X208901Y698019D01*
X206764Y698904D01*
X205128Y700540D01*
X204243Y702677D01*
X204243Y704991D01*
X205128Y707128D01*
X206764Y708764D01*
X208901Y709649D01*
X211215Y709649D01*
X213352Y708764D01*
X214988Y707128D01*
X215873Y704991D01*
X215873Y702677D01*
X214988Y700540D01*
X213352Y698904D01*
X211215Y698019D01*
X208901Y698019D01*
G37*
%LPD*%
%LPC*%
G36*
X287133Y690145D02*
X287133Y690145D01*
X284996Y691030D01*
X283360Y692666D01*
X282475Y694803D01*
X282475Y697117D01*
X283360Y699254D01*
X284996Y700890D01*
X287133Y701775D01*
X289447Y701775D01*
X291584Y700890D01*
X293220Y699254D01*
X294105Y697117D01*
X294105Y694803D01*
X293220Y692666D01*
X291584Y691030D01*
X289447Y690145D01*
X287133Y690145D01*
G37*
%LPD*%
%LPC*%
G36*
X346823Y676175D02*
X346823Y676175D01*
X344686Y677060D01*
X343050Y678696D01*
X342165Y680833D01*
X342165Y683147D01*
X343050Y685284D01*
X344686Y686920D01*
X346823Y687805D01*
X349137Y687805D01*
X351274Y686920D01*
X352910Y685284D01*
X353795Y683147D01*
X353795Y680833D01*
X352910Y678696D01*
X351274Y677060D01*
X349137Y676175D01*
X346823Y676175D01*
G37*
%LPD*%
%LPC*%
G36*
X185533Y660935D02*
X185533Y660935D01*
X183396Y661820D01*
X181760Y663456D01*
X180875Y665593D01*
X180875Y667907D01*
X181760Y670044D01*
X183396Y671680D01*
X185533Y672565D01*
X187847Y672565D01*
X189984Y671680D01*
X191620Y670044D01*
X192505Y667907D01*
X192505Y665593D01*
X191620Y663456D01*
X189984Y661820D01*
X187847Y660935D01*
X185533Y660935D01*
G37*
%LPD*%
%LPC*%
G36*
X384923Y630455D02*
X384923Y630455D01*
X382786Y631340D01*
X381150Y632976D01*
X380265Y635113D01*
X380265Y637427D01*
X381150Y639564D01*
X382786Y641200D01*
X384923Y642085D01*
X387237Y642085D01*
X389374Y641200D01*
X391010Y639564D01*
X391895Y637427D01*
X391895Y635113D01*
X391010Y632976D01*
X389374Y631340D01*
X387237Y630455D01*
X384923Y630455D01*
G37*
%LPD*%
%LPC*%
G36*
X97903Y611405D02*
X97903Y611405D01*
X95766Y612290D01*
X94130Y613926D01*
X93245Y616063D01*
X93245Y618377D01*
X94130Y620514D01*
X95766Y622150D01*
X97903Y623035D01*
X100217Y623035D01*
X102354Y622150D01*
X103990Y620514D01*
X104875Y618377D01*
X104875Y616063D01*
X103990Y613926D01*
X102354Y612290D01*
X100217Y611405D01*
X97903Y611405D01*
G37*
%LPD*%
%LPC*%
G36*
X257923Y579655D02*
X257923Y579655D01*
X255786Y580540D01*
X254150Y582176D01*
X253265Y584313D01*
X253265Y586627D01*
X254150Y588764D01*
X255786Y590400D01*
X257923Y591285D01*
X260237Y591285D01*
X262374Y590400D01*
X264010Y588764D01*
X264895Y586627D01*
X264895Y584313D01*
X264010Y582176D01*
X262374Y580540D01*
X260237Y579655D01*
X257923Y579655D01*
G37*
%LPD*%
%LPC*%
G36*
X257923Y555525D02*
X257923Y555525D01*
X255786Y556410D01*
X254150Y558046D01*
X253265Y560183D01*
X253265Y562497D01*
X254150Y564634D01*
X255786Y566270D01*
X257923Y567155D01*
X260237Y567155D01*
X262374Y566270D01*
X264010Y564634D01*
X264895Y562497D01*
X264895Y560183D01*
X264010Y558046D01*
X262374Y556410D01*
X260237Y555525D01*
X257923Y555525D01*
G37*
%LPD*%
%LPC*%
G36*
X161403Y532665D02*
X161403Y532665D01*
X159266Y533550D01*
X157630Y535186D01*
X156745Y537323D01*
X156745Y539637D01*
X157630Y541774D01*
X159266Y543410D01*
X161403Y544295D01*
X163717Y544295D01*
X165854Y543410D01*
X167490Y541774D01*
X168375Y539637D01*
X168375Y537323D01*
X167490Y535186D01*
X165854Y533550D01*
X163717Y532665D01*
X161403Y532665D01*
G37*
%LPD*%
D10*
X116832Y976400D03*
X116832Y951000D03*
X116832Y925600D03*
X116832Y900200D03*
X116832Y874800D03*
X116832Y849400D03*
X116832Y824000D03*
X116832Y798600D03*
X116832Y773200D03*
X269232Y773200D03*
X269232Y798600D03*
X269232Y824000D03*
X269232Y849400D03*
X269232Y874800D03*
X269232Y900200D03*
X269232Y925600D03*
X269232Y951000D03*
X269232Y976400D03*
X488348Y975990D03*
X488348Y950590D03*
X488348Y925190D03*
X488348Y899790D03*
X488348Y874390D03*
X488348Y848990D03*
X488348Y823590D03*
X488348Y798190D03*
X488348Y772790D03*
X640748Y772790D03*
X640748Y798190D03*
X640748Y823590D03*
X640748Y848990D03*
X640748Y874390D03*
X640748Y899790D03*
X640748Y925190D03*
X640748Y950590D03*
X640748Y975990D03*
D11*
X259080Y561340D03*
X259080Y585470D03*
X162560Y538480D03*
X288290Y695960D03*
X186690Y666750D03*
X99060Y617220D03*
X73660Y737870D03*
X104140Y1116330D03*
X119380Y1111250D03*
X191770Y1008380D03*
X260350Y1038860D03*
X275590Y1010920D03*
X594360Y1141730D03*
X186756Y714060D03*
X386080Y636270D03*
X525272Y788162D03*
X210058Y703834D03*
D12*
X525272Y636270D02*
X525272Y788162D01*
D11*
X368808Y597154D03*
X156464Y1108710D03*
X245110Y977900D03*
X384810Y1012190D03*
X210820Y1097280D03*
D12*
X525272Y636270D02*
X486156Y597154D01*
X368808Y597154D01*
D11*
X368300Y193040D03*
X138430Y535178D03*
X148082Y535178D03*
X148082Y525526D03*
X138430Y525526D03*
X640334Y1141222D03*
X326136Y1010666D03*
X229108Y1017524D03*
X268478Y1129792D03*
X145542Y1126998D03*
X166370Y1005840D03*
X545818Y755650D03*
X299466Y598170D03*
X355600Y610362D03*
X217170Y652272D03*
X239776Y733044D03*
D13*
X391160Y494284D02*
X391160Y274066D01*
X351536Y234442D01*
X351536Y210058D01*
X351790Y210058D01*
D11*
X351790Y210058D03*
X203200Y1177290D03*
X209550Y1108992D03*
X238506Y1120924D03*
X176530Y1078738D03*
X134620Y784860D03*
X499872Y1036320D03*
X533908Y1070102D03*
X179070Y1144270D03*
X166370Y725170D03*
X566420Y800100D03*
X149860Y995680D03*
X194310Y1107440D03*
X254000Y741680D03*
X186690Y1099820D03*
X593090Y802640D03*
X132080Y1001014D03*
X244856Y754380D03*
X161290Y1080770D03*
X280670Y745490D03*
X162560Y1070610D03*
X286820Y738070D03*
X268732Y745236D03*
X140208Y1007872D03*
X125730Y1009904D03*
X129540Y756920D03*
X650240Y744220D03*
X621030Y824230D03*
X104422Y1007872D03*
X143510Y756920D03*
X387350Y210566D03*
X369316Y229108D03*
X248158Y1061720D03*
X204368Y1078840D03*
X203200Y1057910D03*
X482600Y1000760D03*
X473710Y744220D03*
X176530Y989330D03*
X347980Y681990D03*
X214000Y1025000D03*
D14*
X214000Y1002000D01*
X217000Y999000D01*
X286000Y999000D01*
X305000Y980000D02*
X328000Y980000D01*
X329000Y980000D01*
X305000Y980000D02*
X286000Y999000D01*
D11*
X328000Y980000D03*
M02*
