G04 EAGLE Gerber X2 export*
%TF.Part,Single*%
%TF.FileFunction,Copper,L1,Top,Mixed*%
%TF.FilePolarity,Positive*%
%TF.GenerationSoftware,Autodesk,EAGLE,9.0.1*%
%TF.CreationDate,2018-07-28T04:13:14Z*%
G75*
%MOMM*%
%FSLAX34Y34*%
%LPD*%
%AMOC8*
5,1,8,0,0,1.08239X$1,22.5*%
G01*
%ADD10R,1.607819X0.084838*%
%ADD11R,2.623819X0.084581*%
%ADD12R,3.302000X0.084581*%
%ADD13R,3.893819X0.084838*%
%ADD14R,4.401819X0.084581*%
%ADD15R,4.826000X0.084581*%
%ADD16R,5.163819X0.084838*%
%ADD17R,5.588000X0.084581*%
%ADD18R,5.925819X0.084581*%
%ADD19R,6.179819X0.084838*%
%ADD20R,6.520181X0.084581*%
%ADD21R,6.774181X0.084581*%
%ADD22R,7.028181X0.084838*%
%ADD23R,7.282181X0.084581*%
%ADD24R,7.536181X0.084581*%
%ADD25R,7.703819X0.084838*%
%ADD26R,7.957819X0.084581*%
%ADD27R,8.128000X0.084581*%
%ADD28R,8.382000X0.084838*%
%ADD29R,8.552181X0.084581*%
%ADD30R,8.719819X0.084581*%
%ADD31R,8.890000X0.084838*%
%ADD32R,9.060181X0.084581*%
%ADD33R,9.227819X0.084581*%
%ADD34R,9.398000X0.084838*%
%ADD35R,9.568181X0.084581*%
%ADD36R,9.652000X0.084581*%
%ADD37R,9.822181X0.084838*%
%ADD38R,9.989819X0.084581*%
%ADD39R,10.076181X0.084581*%
%ADD40R,10.243819X0.084838*%
%ADD41R,10.330181X0.084581*%
%ADD42R,10.497819X0.084581*%
%ADD43R,10.584181X0.084838*%
%ADD44R,10.668000X0.084581*%
%ADD45R,10.838181X0.084581*%
%ADD46R,10.922000X0.084838*%
%ADD47R,11.005819X0.084581*%
%ADD48R,11.092181X0.084581*%
%ADD49R,11.176000X0.084838*%
%ADD50R,11.346181X0.084581*%
%ADD51R,11.513819X0.084838*%
%ADD52R,11.513819X0.084581*%
%ADD53R,11.600181X0.084581*%
%ADD54R,11.684000X0.084838*%
%ADD55R,11.767819X0.084581*%
%ADD56R,11.854181X0.084581*%
%ADD57R,11.938000X0.084838*%
%ADD58R,12.021819X0.084581*%
%ADD59R,12.108181X0.084838*%
%ADD60R,12.192000X0.084581*%
%ADD61R,12.275819X0.084838*%
%ADD62R,12.275819X0.084581*%
%ADD63R,12.362181X0.084581*%
%ADD64R,12.362181X0.084838*%
%ADD65R,12.446000X0.084581*%
%ADD66R,12.529819X0.084838*%
%ADD67R,12.529819X0.084581*%
%ADD68R,12.616181X0.084838*%
%ADD69R,12.616181X0.084581*%
%ADD70R,12.700000X0.084838*%
%ADD71R,12.700000X0.084581*%
%ADD72R,12.783819X0.084838*%
%ADD73R,12.783819X0.084581*%
%ADD74R,12.192000X0.084838*%
%ADD75R,12.108181X0.084581*%
%ADD76R,12.021819X0.084838*%
%ADD77R,11.938000X0.084581*%
%ADD78R,11.854181X0.084838*%
%ADD79R,11.430000X0.084838*%
%ADD80R,11.259819X0.084581*%
%ADD81R,10.838181X0.084838*%
%ADD82R,10.751819X0.084581*%
%ADD83R,10.497819X0.084838*%
%ADD84R,10.414000X0.084581*%
%ADD85R,10.160000X0.084838*%
%ADD86R,9.906000X0.084581*%
%ADD87R,9.735819X0.084838*%
%ADD88R,9.481819X0.084581*%
%ADD89R,9.314181X0.084838*%
%ADD90R,9.144000X0.084581*%
%ADD91R,8.973819X0.084581*%
%ADD92R,8.806181X0.084838*%
%ADD93R,8.636000X0.084581*%
%ADD94R,8.465819X0.084581*%
%ADD95R,8.298181X0.084838*%
%ADD96R,8.044181X0.084581*%
%ADD97R,7.790181X0.084581*%
%ADD98R,7.620000X0.084838*%
%ADD99R,7.366000X0.084581*%
%ADD100R,7.112000X0.084581*%
%ADD101R,6.858000X0.084838*%
%ADD102R,6.604000X0.084581*%
%ADD103R,6.350000X0.084581*%
%ADD104R,6.012181X0.084838*%
%ADD105R,5.671819X0.084581*%
%ADD106R,5.334000X0.084581*%
%ADD107R,4.996181X0.084838*%
%ADD108R,4.572000X0.084581*%
%ADD109R,4.064000X0.084581*%
%ADD110R,3.556000X0.084838*%
%ADD111R,2.964181X0.084581*%
%ADD112R,2.115819X0.084581*%
%ADD113R,0.678181X0.084838*%
%ADD114R,0.421637X0.084581*%
%ADD115R,1.016000X0.084581*%
%ADD116R,1.186181X0.084581*%
%ADD117R,1.353819X0.084838*%
%ADD118R,1.524000X0.084581*%
%ADD119R,1.694181X0.084581*%
%ADD120R,1.861819X0.084838*%
%ADD121R,2.202181X0.084581*%
%ADD122R,2.369819X0.084581*%
%ADD123R,2.540000X0.084838*%
%ADD124R,2.710181X0.084581*%
%ADD125R,2.877819X0.084581*%
%ADD126R,3.048000X0.084838*%
%ADD127R,3.385819X0.084581*%
%ADD128R,3.556000X0.084581*%
%ADD129R,3.726181X0.084838*%
%ADD130R,3.893819X0.084581*%
%ADD131R,4.318000X0.084838*%
%ADD132R,4.742181X0.084581*%
%ADD133R,4.909819X0.084838*%
%ADD134R,5.080000X0.084581*%
%ADD135R,5.250181X0.084581*%
%ADD136R,5.588000X0.084838*%
%ADD137R,5.758181X0.084581*%
%ADD138R,6.096000X0.084838*%
%ADD139R,6.266181X0.084581*%
%ADD140R,6.433819X0.084581*%
%ADD141R,6.774181X0.084838*%
%ADD142R,6.941819X0.084581*%
%ADD143R,7.282181X0.084838*%
%ADD144R,7.449819X0.084581*%
%ADD145R,7.620000X0.084581*%
%ADD146R,7.957819X0.084838*%
%ADD147R,8.298181X0.084581*%
%ADD148R,8.465819X0.084838*%
%ADD149R,8.806181X0.084581*%
%ADD150R,8.973819X0.084838*%
%ADD151R,9.057638X0.084581*%
%ADD152R,9.144000X0.084838*%
%ADD153R,9.230363X0.084581*%
%ADD154R,9.057638X0.084838*%
%ADD155R,8.890000X0.084581*%
%ADD156R,8.722363X0.084581*%
%ADD157R,8.382000X0.084581*%
%ADD158C,0.508000*%
%ADD159R,1.508000X1.508000*%
%ADD160C,1.508000*%
%ADD161R,1.850000X1.000000*%
%ADD162C,0.756400*%
%ADD163C,0.254000*%

G36*
X410155Y36399D02*
X410155Y36399D01*
X410191Y36397D01*
X417650Y36643D01*
X417689Y36648D01*
X417765Y36650D01*
X425193Y37389D01*
X425232Y37397D01*
X425308Y37405D01*
X432667Y38637D01*
X432705Y38647D01*
X432781Y38660D01*
X440044Y40383D01*
X440082Y40396D01*
X440157Y40413D01*
X447284Y42618D01*
X447321Y42634D01*
X447395Y42656D01*
X454363Y45333D01*
X454398Y45351D01*
X454470Y45379D01*
X461243Y48513D01*
X461277Y48534D01*
X461346Y48565D01*
X467895Y52142D01*
X468044Y52245D01*
X468194Y52348D01*
X468198Y52352D01*
X468202Y52355D01*
X468325Y52487D01*
X468450Y52620D01*
X468453Y52624D01*
X468456Y52628D01*
X468548Y52783D01*
X468642Y52940D01*
X468644Y52944D01*
X468646Y52949D01*
X468703Y53119D01*
X468762Y53293D01*
X468763Y53299D01*
X468764Y53303D01*
X468766Y53319D01*
X468799Y53540D01*
X469360Y60808D01*
X470405Y67964D01*
X471937Y75032D01*
X473949Y81975D01*
X476433Y88765D01*
X479375Y95367D01*
X482760Y101753D01*
X486573Y107895D01*
X490797Y113767D01*
X495407Y119339D01*
X500384Y124588D01*
X505703Y129487D01*
X511339Y134015D01*
X517269Y138152D01*
X523517Y141907D01*
X523657Y142012D01*
X523798Y142117D01*
X523806Y142125D01*
X523815Y142132D01*
X523928Y142264D01*
X524045Y142397D01*
X524050Y142407D01*
X524057Y142415D01*
X524141Y142570D01*
X524226Y142723D01*
X524229Y142734D01*
X524234Y142744D01*
X524283Y142912D01*
X524334Y143080D01*
X524335Y143094D01*
X524338Y143102D01*
X524340Y143132D01*
X524362Y143328D01*
X524684Y150869D01*
X524683Y150897D01*
X524686Y150944D01*
X524686Y290548D01*
X524684Y290570D01*
X524685Y290607D01*
X524428Y298306D01*
X524422Y298346D01*
X524420Y298423D01*
X523644Y306089D01*
X523636Y306128D01*
X523628Y306207D01*
X522332Y313805D01*
X522321Y313844D01*
X522308Y313922D01*
X520495Y321413D01*
X520481Y321451D01*
X520463Y321529D01*
X518140Y328875D01*
X518124Y328912D01*
X518100Y328988D01*
X515277Y336160D01*
X515258Y336196D01*
X515229Y336270D01*
X511920Y343229D01*
X511899Y343264D01*
X511865Y343335D01*
X508087Y350051D01*
X508064Y350084D01*
X508025Y350153D01*
X503797Y356594D01*
X503772Y356625D01*
X503728Y356691D01*
X499071Y362828D01*
X499044Y362857D01*
X498996Y362920D01*
X493933Y368725D01*
X493903Y368753D01*
X493851Y368812D01*
X493388Y369275D01*
X488401Y374262D01*
X488370Y374287D01*
X488314Y374343D01*
X482508Y379408D01*
X482475Y379431D01*
X482416Y379483D01*
X476279Y384139D01*
X476244Y384160D01*
X476182Y384208D01*
X469740Y388436D01*
X469704Y388454D01*
X469638Y388498D01*
X462920Y392277D01*
X462883Y392293D01*
X462814Y392332D01*
X455853Y395641D01*
X455815Y395654D01*
X455743Y395688D01*
X448571Y398511D01*
X448532Y398522D01*
X448458Y398551D01*
X441110Y400874D01*
X441071Y400882D01*
X440995Y400906D01*
X433505Y402719D01*
X433465Y402724D01*
X433388Y402743D01*
X425792Y404038D01*
X425752Y404041D01*
X425674Y404054D01*
X418010Y404829D01*
X417970Y404829D01*
X417893Y404837D01*
X410192Y405095D01*
X410170Y405093D01*
X410133Y405096D01*
X345335Y405096D01*
X345316Y405094D01*
X345285Y405095D01*
X338770Y404909D01*
X338735Y404904D01*
X338670Y404903D01*
X332176Y404343D01*
X332141Y404337D01*
X332076Y404332D01*
X325627Y403399D01*
X325592Y403390D01*
X325528Y403382D01*
X319141Y402078D01*
X319107Y402068D01*
X319043Y402055D01*
X312744Y400387D01*
X312704Y400372D01*
X312662Y400363D01*
X312530Y400305D01*
X312395Y400254D01*
X312360Y400230D01*
X312321Y400213D01*
X312204Y400128D01*
X312083Y400049D01*
X312054Y400019D01*
X312019Y399994D01*
X311923Y399886D01*
X311822Y399783D01*
X311799Y399747D01*
X311771Y399715D01*
X311700Y399589D01*
X311623Y399467D01*
X311609Y399427D01*
X311588Y399390D01*
X311545Y399252D01*
X311496Y399116D01*
X311490Y399074D01*
X311477Y399033D01*
X311465Y398889D01*
X311446Y398746D01*
X311449Y398704D01*
X311446Y398662D01*
X311464Y398518D01*
X311476Y398375D01*
X311488Y398334D01*
X311494Y398291D01*
X311542Y398156D01*
X311584Y398017D01*
X311605Y397980D01*
X311619Y397940D01*
X311744Y397724D01*
X314216Y394057D01*
X316519Y390276D01*
X316586Y390189D01*
X316645Y390097D01*
X316699Y390042D01*
X316747Y389980D01*
X316830Y389909D01*
X316907Y389832D01*
X316972Y389789D01*
X317031Y389739D01*
X317128Y389688D01*
X317220Y389628D01*
X317292Y389601D01*
X317361Y389564D01*
X317467Y389534D01*
X317569Y389496D01*
X317646Y389484D01*
X317720Y389463D01*
X317830Y389457D01*
X317938Y389440D01*
X318015Y389446D01*
X318093Y389441D01*
X318201Y389458D01*
X318310Y389465D01*
X318415Y389491D01*
X318461Y389498D01*
X318493Y389510D01*
X318552Y389525D01*
X325288Y391726D01*
X332149Y392896D01*
X339103Y393048D01*
X346007Y392181D01*
X352710Y390316D01*
X359069Y387491D01*
X364946Y383765D01*
X370211Y379221D01*
X375055Y373560D01*
X378950Y367214D01*
X381796Y360336D01*
X383528Y353094D01*
X384109Y345667D01*
X383528Y338242D01*
X381796Y330998D01*
X378950Y324121D01*
X375055Y317776D01*
X370212Y312115D01*
X365053Y307671D01*
X359304Y304008D01*
X353093Y301208D01*
X346423Y299291D01*
X346288Y299236D01*
X346151Y299188D01*
X346116Y299166D01*
X346077Y299150D01*
X345957Y299068D01*
X345834Y298991D01*
X345804Y298963D01*
X345770Y298939D01*
X345670Y298833D01*
X345565Y298732D01*
X345542Y298698D01*
X345514Y298667D01*
X345439Y298543D01*
X345358Y298422D01*
X345343Y298383D01*
X345322Y298348D01*
X345275Y298210D01*
X345222Y298075D01*
X345215Y298034D01*
X345202Y297994D01*
X345185Y297850D01*
X345162Y297706D01*
X345164Y297665D01*
X345160Y297624D01*
X345174Y297479D01*
X345182Y297334D01*
X345193Y297294D01*
X345197Y297252D01*
X345242Y297114D01*
X345281Y296974D01*
X345304Y296926D01*
X345313Y296898D01*
X345337Y296857D01*
X345389Y296749D01*
X349054Y290320D01*
X351644Y283534D01*
X353164Y276432D01*
X353582Y269178D01*
X352890Y261946D01*
X351105Y254902D01*
X350279Y252956D01*
X350268Y252918D01*
X350250Y252884D01*
X350214Y252740D01*
X350171Y252599D01*
X350167Y252560D01*
X350158Y252522D01*
X350153Y252374D01*
X350141Y252227D01*
X350146Y252188D01*
X350144Y252149D01*
X350171Y252004D01*
X350190Y251857D01*
X350204Y251820D01*
X350211Y251782D01*
X350267Y251646D01*
X350318Y251506D01*
X350339Y251473D01*
X350354Y251437D01*
X350438Y251316D01*
X350517Y251190D01*
X350544Y251163D01*
X350566Y251131D01*
X350674Y251030D01*
X350778Y250924D01*
X350811Y250903D01*
X350839Y250876D01*
X350967Y250801D01*
X351090Y250720D01*
X351127Y250706D01*
X351160Y250686D01*
X351301Y250639D01*
X351439Y250586D01*
X351477Y250580D01*
X351514Y250568D01*
X351661Y250552D01*
X351808Y250530D01*
X351846Y250532D01*
X351885Y250528D01*
X352033Y250544D01*
X352180Y250553D01*
X352218Y250564D01*
X352256Y250568D01*
X352397Y250615D01*
X352539Y250655D01*
X352573Y250673D01*
X352610Y250686D01*
X352738Y250761D01*
X352868Y250831D01*
X352898Y250856D01*
X352931Y250876D01*
X353120Y251039D01*
X354193Y252113D01*
X355877Y252113D01*
X356386Y251604D01*
X358132Y249859D01*
X359877Y248113D01*
X361623Y246368D01*
X363368Y244622D01*
X365114Y242877D01*
X366859Y241131D01*
X368605Y239386D01*
X370150Y237841D01*
X370150Y236223D01*
X370166Y236068D01*
X370177Y235913D01*
X370186Y235883D01*
X370190Y235852D01*
X370239Y235704D01*
X370282Y235555D01*
X370297Y235528D01*
X370307Y235498D01*
X370387Y235364D01*
X370461Y235228D01*
X370482Y235204D01*
X370498Y235177D01*
X370604Y235063D01*
X370706Y234945D01*
X370731Y234927D01*
X370752Y234904D01*
X370880Y234815D01*
X371004Y234722D01*
X371039Y234704D01*
X371059Y234691D01*
X371102Y234673D01*
X371227Y234610D01*
X372610Y234038D01*
X374243Y232404D01*
X374244Y232404D01*
X374246Y232402D01*
X375131Y230265D01*
X375131Y227951D01*
X374246Y225814D01*
X372610Y224178D01*
X370473Y223293D01*
X368159Y223293D01*
X366022Y224178D01*
X365802Y224399D01*
X364387Y225814D01*
X363971Y226817D01*
X363897Y226954D01*
X363827Y227093D01*
X363807Y227117D01*
X363792Y227145D01*
X363690Y227262D01*
X363593Y227384D01*
X363568Y227403D01*
X363548Y227427D01*
X363423Y227520D01*
X363302Y227618D01*
X363274Y227632D01*
X363249Y227651D01*
X363108Y227715D01*
X362969Y227785D01*
X362938Y227793D01*
X362910Y227806D01*
X362758Y227839D01*
X362607Y227877D01*
X362568Y227880D01*
X362545Y227885D01*
X362498Y227885D01*
X362358Y227895D01*
X360204Y227895D01*
X358464Y229635D01*
X358463Y229635D01*
X356718Y231381D01*
X354973Y233126D01*
X354972Y233126D01*
X346516Y241583D01*
X346513Y241585D01*
X346510Y241589D01*
X346369Y241701D01*
X346226Y241817D01*
X346222Y241819D01*
X346218Y241821D01*
X346058Y241901D01*
X345892Y241984D01*
X345888Y241985D01*
X345884Y241987D01*
X345707Y242031D01*
X345530Y242076D01*
X345526Y242076D01*
X345522Y242077D01*
X345339Y242083D01*
X345158Y242089D01*
X345153Y242089D01*
X345149Y242089D01*
X344968Y242055D01*
X344790Y242023D01*
X344786Y242021D01*
X344782Y242021D01*
X344614Y241950D01*
X344446Y241880D01*
X344442Y241878D01*
X344438Y241876D01*
X344290Y241772D01*
X344139Y241668D01*
X344136Y241664D01*
X344132Y241662D01*
X343957Y241485D01*
X339707Y236529D01*
X338895Y235833D01*
X338892Y235829D01*
X338888Y235826D01*
X338765Y235695D01*
X338639Y235561D01*
X338637Y235557D01*
X338633Y235553D01*
X338539Y235395D01*
X338447Y235241D01*
X338445Y235237D01*
X338443Y235233D01*
X338385Y235058D01*
X338327Y234888D01*
X338327Y234883D01*
X338325Y234878D01*
X338306Y234697D01*
X338285Y234517D01*
X338286Y234512D01*
X338285Y234507D01*
X338305Y234326D01*
X338323Y234146D01*
X338325Y234141D01*
X338325Y234136D01*
X338383Y233963D01*
X338439Y233791D01*
X338441Y233787D01*
X338443Y233782D01*
X338536Y233625D01*
X338627Y233469D01*
X338631Y233466D01*
X338633Y233461D01*
X338796Y233273D01*
X339666Y232404D01*
X341411Y230658D01*
X343157Y228913D01*
X344902Y227167D01*
X346648Y225422D01*
X348393Y223676D01*
X350139Y221931D01*
X351884Y220185D01*
X352189Y219880D01*
X352189Y217903D01*
X352158Y217820D01*
X352145Y217727D01*
X352122Y217637D01*
X352118Y217543D01*
X352105Y217451D01*
X352112Y217357D01*
X352108Y217264D01*
X352125Y217172D01*
X352132Y217078D01*
X352158Y216988D01*
X352175Y216896D01*
X352210Y216810D01*
X352237Y216720D01*
X352282Y216638D01*
X352317Y216552D01*
X352371Y216475D01*
X352415Y216393D01*
X352477Y216322D01*
X352530Y216245D01*
X352599Y216181D01*
X352660Y216111D01*
X352735Y216055D01*
X352803Y215991D01*
X352884Y215943D01*
X352958Y215887D01*
X353084Y215824D01*
X353124Y215800D01*
X353146Y215793D01*
X353181Y215775D01*
X355084Y214987D01*
X355122Y214949D01*
X355123Y214949D01*
X356720Y213352D01*
X357605Y211215D01*
X357605Y208901D01*
X356720Y206764D01*
X355084Y205128D01*
X352947Y204243D01*
X350633Y204243D01*
X348496Y205128D01*
X348426Y205198D01*
X346860Y206764D01*
X345994Y208857D01*
X345919Y208993D01*
X345850Y209132D01*
X345830Y209157D01*
X345815Y209184D01*
X345713Y209302D01*
X345615Y209423D01*
X345591Y209443D01*
X345571Y209466D01*
X345446Y209560D01*
X345325Y209657D01*
X345297Y209671D01*
X345272Y209690D01*
X345130Y209755D01*
X344991Y209824D01*
X344961Y209832D01*
X344932Y209845D01*
X344780Y209878D01*
X344630Y209917D01*
X344591Y209919D01*
X344568Y209924D01*
X344521Y209924D01*
X344381Y209934D01*
X342243Y209934D01*
X341743Y210435D01*
X337820Y214358D01*
X337771Y214397D01*
X337729Y214443D01*
X337626Y214514D01*
X337529Y214592D01*
X337473Y214620D01*
X337422Y214656D01*
X337307Y214703D01*
X337196Y214759D01*
X337135Y214775D01*
X337077Y214799D01*
X336955Y214821D01*
X336834Y214852D01*
X336772Y214854D01*
X336710Y214865D01*
X336586Y214860D01*
X336461Y214865D01*
X336400Y214854D01*
X336337Y214852D01*
X336216Y214821D01*
X336094Y214799D01*
X336036Y214775D01*
X335976Y214759D01*
X335864Y214703D01*
X335749Y214656D01*
X335698Y214620D01*
X335642Y214592D01*
X335545Y214514D01*
X335443Y214443D01*
X335400Y214397D01*
X335351Y214358D01*
X335273Y214261D01*
X335188Y214170D01*
X335156Y214116D01*
X335117Y214068D01*
X335062Y213956D01*
X334998Y213849D01*
X334978Y213790D01*
X334950Y213734D01*
X334919Y213613D01*
X334880Y213495D01*
X334873Y213433D01*
X334858Y213373D01*
X334840Y213125D01*
X334840Y213124D01*
X334840Y212364D01*
X332907Y210060D01*
X329944Y209538D01*
X327340Y211042D01*
X326311Y213868D01*
X327340Y216694D01*
X330199Y218346D01*
X330333Y218401D01*
X330481Y218457D01*
X330505Y218472D01*
X330531Y218483D01*
X330661Y218573D01*
X330795Y218660D01*
X330814Y218680D01*
X330837Y218696D01*
X330946Y218812D01*
X331057Y218925D01*
X331072Y218948D01*
X331092Y218969D01*
X331173Y219106D01*
X331258Y219239D01*
X331268Y219265D01*
X331282Y219290D01*
X331332Y219440D01*
X331387Y219589D01*
X331391Y219617D01*
X331400Y219644D01*
X331417Y219802D01*
X331439Y219959D01*
X331437Y219987D01*
X331440Y220015D01*
X331423Y220172D01*
X331411Y220331D01*
X331403Y220358D01*
X331400Y220386D01*
X331350Y220536D01*
X331305Y220689D01*
X331291Y220713D01*
X331282Y220740D01*
X331201Y220876D01*
X331125Y221015D01*
X331106Y221037D01*
X331092Y221061D01*
X330929Y221249D01*
X329525Y222653D01*
X329524Y222653D01*
X327971Y224207D01*
X327971Y225316D01*
X327960Y225416D01*
X327960Y225517D01*
X327941Y225601D01*
X327931Y225687D01*
X327899Y225783D01*
X327877Y225881D01*
X327841Y225959D01*
X327813Y226041D01*
X327762Y226128D01*
X327720Y226219D01*
X327667Y226288D01*
X327623Y226362D01*
X327555Y226436D01*
X327494Y226516D01*
X327428Y226572D01*
X327369Y226635D01*
X327286Y226693D01*
X327210Y226758D01*
X327133Y226799D01*
X327062Y226848D01*
X326969Y226887D01*
X326881Y226934D01*
X326798Y226958D01*
X326718Y226991D01*
X326619Y227009D01*
X326522Y227036D01*
X326436Y227042D01*
X326350Y227057D01*
X326250Y227054D01*
X326150Y227060D01*
X326064Y227047D01*
X325977Y227044D01*
X325880Y227019D01*
X325781Y227004D01*
X325662Y226964D01*
X325616Y226952D01*
X325591Y226939D01*
X325545Y226923D01*
X321306Y225128D01*
X314254Y223347D01*
X307013Y222663D01*
X299751Y223090D01*
X292640Y224622D01*
X285850Y227227D01*
X279423Y230907D01*
X279292Y230964D01*
X279163Y231029D01*
X279121Y231039D01*
X279081Y231056D01*
X278941Y231085D01*
X278801Y231120D01*
X278758Y231122D01*
X278715Y231130D01*
X278572Y231128D01*
X278428Y231133D01*
X278386Y231125D01*
X278342Y231124D01*
X278202Y231092D01*
X278061Y231066D01*
X278021Y231049D01*
X277979Y231039D01*
X277849Y230977D01*
X277716Y230922D01*
X277681Y230898D01*
X277642Y230879D01*
X277528Y230791D01*
X277410Y230709D01*
X277381Y230677D01*
X277347Y230651D01*
X277254Y230541D01*
X277157Y230435D01*
X277135Y230398D01*
X277107Y230365D01*
X277040Y230238D01*
X276967Y230114D01*
X276948Y230063D01*
X276933Y230035D01*
X276920Y229989D01*
X276880Y229880D01*
X275066Y223657D01*
X274944Y223236D01*
X272130Y217050D01*
X268463Y211332D01*
X264019Y206198D01*
X258672Y201608D01*
X252707Y197862D01*
X246255Y195042D01*
X239456Y193206D01*
X232327Y192383D01*
X232303Y192377D01*
X232279Y192377D01*
X232122Y192336D01*
X231963Y192301D01*
X231941Y192290D01*
X231918Y192284D01*
X231772Y192212D01*
X231625Y192143D01*
X231606Y192128D01*
X231584Y192117D01*
X231457Y192015D01*
X231328Y191917D01*
X231312Y191898D01*
X231293Y191883D01*
X231191Y191756D01*
X231086Y191633D01*
X231074Y191612D01*
X231059Y191593D01*
X230986Y191447D01*
X230910Y191304D01*
X230903Y191281D01*
X230892Y191259D01*
X230852Y191102D01*
X230807Y190945D01*
X230806Y190921D01*
X230800Y190897D01*
X230782Y190649D01*
X230782Y150944D01*
X230783Y150929D01*
X230782Y150906D01*
X230869Y146906D01*
X230871Y146883D01*
X230871Y146845D01*
X231097Y142849D01*
X231122Y142696D01*
X231141Y142543D01*
X231152Y142513D01*
X231158Y142481D01*
X231215Y142337D01*
X231266Y142192D01*
X231283Y142164D01*
X231295Y142134D01*
X231381Y142006D01*
X231463Y141874D01*
X231485Y141851D01*
X231503Y141824D01*
X231615Y141717D01*
X231722Y141606D01*
X231755Y141583D01*
X231773Y141566D01*
X231813Y141541D01*
X231925Y141461D01*
X238503Y137413D01*
X244724Y132940D01*
X250608Y128033D01*
X256128Y122716D01*
X261252Y117020D01*
X265953Y110974D01*
X270210Y104603D01*
X273996Y97945D01*
X277292Y91030D01*
X280078Y83893D01*
X282337Y76574D01*
X284058Y69112D01*
X285234Y61539D01*
X285866Y53843D01*
X285899Y53672D01*
X285929Y53501D01*
X285934Y53489D01*
X285936Y53477D01*
X286004Y53317D01*
X286071Y53156D01*
X286078Y53145D01*
X286083Y53133D01*
X286184Y52992D01*
X286282Y52848D01*
X286291Y52840D01*
X286299Y52829D01*
X286428Y52711D01*
X286554Y52593D01*
X286567Y52584D01*
X286575Y52578D01*
X286603Y52561D01*
X286763Y52457D01*
X293395Y48802D01*
X293432Y48787D01*
X293500Y48749D01*
X300365Y45547D01*
X300403Y45534D01*
X300473Y45501D01*
X307534Y42771D01*
X307573Y42760D01*
X307646Y42732D01*
X314879Y40484D01*
X314918Y40476D01*
X314993Y40452D01*
X322361Y38698D01*
X322401Y38693D01*
X322476Y38674D01*
X329945Y37420D01*
X329985Y37418D01*
X330061Y37405D01*
X337594Y36654D01*
X337633Y36654D01*
X337709Y36647D01*
X345277Y36397D01*
X345299Y36399D01*
X345335Y36396D01*
X410133Y36396D01*
X410155Y36399D01*
G37*
%LPC*%
G36*
X382195Y169983D02*
X382195Y169983D01*
X381890Y170288D01*
X381889Y170288D01*
X380144Y172034D01*
X378399Y173779D01*
X378398Y173779D01*
X376653Y175525D01*
X374908Y177270D01*
X374907Y177270D01*
X373162Y179016D01*
X371417Y180761D01*
X371416Y180761D01*
X369671Y182507D01*
X367926Y184252D01*
X367925Y184252D01*
X367923Y184255D01*
X367923Y185736D01*
X367906Y185891D01*
X367895Y186046D01*
X367886Y186076D01*
X367883Y186107D01*
X367834Y186255D01*
X367790Y186404D01*
X367775Y186432D01*
X367765Y186461D01*
X367686Y186595D01*
X367611Y186731D01*
X367591Y186755D01*
X367575Y186782D01*
X367469Y186896D01*
X367367Y187014D01*
X367342Y187032D01*
X367320Y187055D01*
X367193Y187144D01*
X367068Y187237D01*
X367033Y187255D01*
X367014Y187268D01*
X366971Y187286D01*
X366845Y187349D01*
X365006Y188111D01*
X363628Y189489D01*
X363370Y189746D01*
X362485Y191883D01*
X362485Y194197D01*
X363370Y196334D01*
X365006Y197970D01*
X367143Y198855D01*
X369457Y198855D01*
X371594Y197970D01*
X372069Y197494D01*
X372070Y197494D01*
X373230Y196334D01*
X373720Y195150D01*
X373765Y195067D01*
X373801Y194981D01*
X373854Y194904D01*
X373899Y194822D01*
X373960Y194751D01*
X374014Y194674D01*
X374082Y194611D01*
X374143Y194540D01*
X374218Y194484D01*
X374287Y194420D01*
X374367Y194372D01*
X374442Y194316D01*
X374527Y194278D01*
X374608Y194230D01*
X374696Y194200D01*
X374781Y194161D01*
X374873Y194141D01*
X374962Y194112D01*
X375054Y194102D01*
X375146Y194082D01*
X375240Y194082D01*
X375333Y194072D01*
X375426Y194082D01*
X375519Y194082D01*
X375610Y194102D01*
X375704Y194112D01*
X375792Y194141D01*
X375884Y194161D01*
X375969Y194200D01*
X375971Y194201D01*
X377869Y194201D01*
X378067Y194003D01*
X379812Y192257D01*
X381558Y190512D01*
X383303Y188766D01*
X385049Y187021D01*
X386794Y185275D01*
X388540Y183530D01*
X390285Y181784D01*
X392031Y180039D01*
X392141Y179929D01*
X392141Y178245D01*
X383879Y169983D01*
X382195Y169983D01*
G37*
%LPD*%
%LPC*%
G36*
X400155Y187943D02*
X400155Y187943D01*
X398610Y189489D01*
X396865Y191234D01*
X396864Y191234D01*
X395119Y192980D01*
X393374Y194725D01*
X393373Y194725D01*
X391628Y196471D01*
X389883Y198216D01*
X389882Y198216D01*
X388137Y199962D01*
X386392Y201707D01*
X386391Y201707D01*
X385883Y202216D01*
X385883Y203713D01*
X385867Y203868D01*
X385856Y204023D01*
X385847Y204053D01*
X385843Y204084D01*
X385794Y204232D01*
X385750Y204381D01*
X385735Y204409D01*
X385725Y204439D01*
X385646Y204572D01*
X385572Y204709D01*
X385551Y204732D01*
X385535Y204759D01*
X385429Y204873D01*
X385327Y204991D01*
X385302Y205010D01*
X385281Y205033D01*
X385153Y205121D01*
X385029Y205214D01*
X384994Y205232D01*
X384974Y205245D01*
X384931Y205263D01*
X384806Y205326D01*
X384056Y205637D01*
X382749Y206944D01*
X382420Y207272D01*
X381535Y209409D01*
X381535Y211723D01*
X382420Y213860D01*
X384056Y215496D01*
X386193Y216381D01*
X388507Y216381D01*
X390644Y215496D01*
X391190Y214949D01*
X391191Y214949D01*
X392279Y213860D01*
X392537Y213239D01*
X392611Y213102D01*
X392681Y212963D01*
X392700Y212939D01*
X392715Y212911D01*
X392817Y212794D01*
X392915Y212673D01*
X392939Y212653D01*
X392960Y212629D01*
X393085Y212536D01*
X393205Y212439D01*
X393233Y212425D01*
X393258Y212406D01*
X393400Y212341D01*
X393539Y212272D01*
X393569Y212264D01*
X393598Y212251D01*
X393750Y212218D01*
X393901Y212179D01*
X393940Y212176D01*
X393963Y212171D01*
X394009Y212171D01*
X394149Y212161D01*
X395829Y212161D01*
X396533Y211458D01*
X398278Y209712D01*
X400024Y207967D01*
X401769Y206221D01*
X403515Y204476D01*
X405260Y202730D01*
X407006Y200985D01*
X408751Y199239D01*
X410101Y197889D01*
X410101Y196205D01*
X401839Y187943D01*
X400155Y187943D01*
G37*
%LPD*%
D10*
X380157Y428413D03*
D11*
X380157Y429261D03*
D12*
X380145Y430106D03*
D13*
X379726Y430953D03*
D14*
X379726Y431801D03*
D15*
X380145Y432646D03*
D16*
X380157Y433493D03*
D17*
X379738Y434341D03*
D18*
X379726Y435186D03*
D19*
X380157Y436033D03*
D20*
X380157Y436881D03*
D21*
X379726Y437726D03*
D22*
X380157Y438573D03*
D23*
X379726Y439421D03*
D24*
X380157Y440266D03*
D25*
X380157Y441113D03*
D26*
X379726Y441961D03*
D27*
X379738Y442806D03*
D28*
X380145Y443653D03*
D29*
X380157Y444501D03*
D30*
X380157Y445346D03*
D31*
X380145Y446193D03*
D32*
X380157Y447041D03*
D33*
X380157Y447886D03*
D34*
X380145Y448733D03*
D35*
X380157Y449581D03*
D36*
X379738Y450426D03*
D37*
X379726Y451273D03*
D38*
X379726Y452121D03*
D39*
X380157Y452966D03*
D40*
X380157Y453813D03*
D41*
X379726Y454661D03*
D42*
X379726Y455506D03*
D43*
X380157Y456353D03*
D44*
X379738Y457201D03*
D45*
X379726Y458046D03*
D46*
X380145Y458893D03*
D47*
X379726Y459741D03*
D48*
X380157Y460586D03*
D49*
X379738Y461433D03*
D50*
X379726Y462281D03*
X379726Y463126D03*
D51*
X379726Y463973D03*
D52*
X379726Y464821D03*
D53*
X380157Y465666D03*
D54*
X379738Y466513D03*
D55*
X380157Y467361D03*
D56*
X379726Y468206D03*
D57*
X380145Y469053D03*
D58*
X379726Y469901D03*
X379726Y470746D03*
D59*
X380157Y471593D03*
D60*
X379738Y472441D03*
X379738Y473286D03*
D61*
X380157Y474133D03*
D62*
X380157Y474981D03*
D63*
X379726Y475826D03*
D64*
X379726Y476673D03*
D65*
X380145Y477521D03*
X380145Y478366D03*
D66*
X379726Y479213D03*
D67*
X379726Y480061D03*
X379726Y480906D03*
D68*
X380157Y481753D03*
D69*
X380157Y482601D03*
X380157Y483446D03*
D70*
X379738Y484293D03*
D71*
X379738Y485141D03*
X379738Y485986D03*
D70*
X379738Y486833D03*
D71*
X379738Y487681D03*
X379738Y488526D03*
D72*
X380157Y489373D03*
D73*
X380157Y490221D03*
X380157Y491066D03*
D72*
X380157Y491913D03*
D73*
X380157Y492761D03*
X380157Y493606D03*
D70*
X379738Y494453D03*
D71*
X379738Y495301D03*
X379738Y496146D03*
D70*
X379738Y496993D03*
D71*
X379738Y497841D03*
X379738Y498686D03*
D70*
X379738Y499533D03*
D69*
X380157Y500381D03*
X380157Y501226D03*
D68*
X380157Y502073D03*
D67*
X379726Y502921D03*
X379726Y503766D03*
D66*
X379726Y504613D03*
D65*
X380145Y505461D03*
D63*
X379726Y506306D03*
D64*
X379726Y507153D03*
D63*
X379726Y508001D03*
D62*
X380157Y508846D03*
D74*
X379738Y509693D03*
D60*
X379738Y510541D03*
D75*
X380157Y511386D03*
D76*
X379726Y512233D03*
D58*
X379726Y513081D03*
D77*
X380145Y513926D03*
D78*
X379726Y514773D03*
D56*
X379726Y515621D03*
D55*
X380157Y516466D03*
D54*
X379738Y517313D03*
D53*
X380157Y518161D03*
D52*
X379726Y519006D03*
D79*
X380145Y519853D03*
D50*
X379726Y520701D03*
D80*
X380157Y521546D03*
D49*
X379738Y522393D03*
D48*
X380157Y523241D03*
D47*
X379726Y524086D03*
D81*
X379726Y524933D03*
D82*
X380157Y525781D03*
D44*
X379738Y526626D03*
D83*
X379726Y527473D03*
D84*
X380145Y528321D03*
D41*
X379726Y529166D03*
D85*
X379738Y530013D03*
D38*
X379726Y530861D03*
D86*
X380145Y531706D03*
D87*
X380157Y532553D03*
D36*
X379738Y533401D03*
D88*
X379726Y534246D03*
D89*
X379726Y535093D03*
D90*
X379738Y535941D03*
D91*
X379726Y536786D03*
D92*
X379726Y537633D03*
D93*
X379738Y538481D03*
D94*
X379726Y539326D03*
D95*
X379726Y540173D03*
D96*
X380157Y541021D03*
D97*
X379726Y541866D03*
D98*
X379738Y542713D03*
D99*
X380145Y543561D03*
D100*
X379738Y544406D03*
D101*
X380145Y545253D03*
D102*
X379738Y546101D03*
D103*
X380145Y546946D03*
D104*
X380157Y547793D03*
D105*
X380157Y548641D03*
D106*
X380145Y549486D03*
D107*
X380157Y550333D03*
D108*
X379738Y551181D03*
D109*
X379738Y552026D03*
D110*
X379738Y552873D03*
D111*
X380157Y553721D03*
D112*
X380157Y554566D03*
D113*
X379726Y555413D03*
D114*
X379307Y742526D03*
D113*
X379726Y743373D03*
D115*
X379738Y744221D03*
D116*
X379726Y745066D03*
D117*
X379726Y745913D03*
D118*
X379738Y746761D03*
D119*
X379726Y747606D03*
D120*
X379726Y748453D03*
D121*
X379726Y749301D03*
D122*
X379726Y750146D03*
D123*
X379738Y750993D03*
D124*
X379726Y751841D03*
D125*
X379726Y752686D03*
D126*
X379738Y753533D03*
D127*
X379726Y754381D03*
D128*
X379738Y755226D03*
D129*
X379726Y756073D03*
D130*
X379726Y756921D03*
D109*
X379738Y757766D03*
D131*
X379307Y758613D03*
D108*
X379738Y759461D03*
D132*
X379726Y760306D03*
D133*
X379726Y761153D03*
D134*
X379738Y762001D03*
D135*
X379726Y762846D03*
D136*
X379738Y763693D03*
D137*
X379726Y764541D03*
D18*
X379726Y765386D03*
D138*
X379738Y766233D03*
D139*
X379726Y767081D03*
D140*
X379726Y767926D03*
D141*
X379726Y768773D03*
D142*
X379726Y769621D03*
D100*
X379738Y770466D03*
D143*
X379726Y771313D03*
D144*
X379726Y772161D03*
D145*
X379738Y773006D03*
D146*
X379726Y773853D03*
D27*
X379738Y774701D03*
D147*
X379726Y775546D03*
D148*
X379726Y776393D03*
D93*
X379738Y777241D03*
D149*
X379726Y778086D03*
D150*
X379726Y778933D03*
D151*
X379307Y779781D03*
D90*
X379738Y780626D03*
D152*
X379738Y781473D03*
D153*
X379307Y782321D03*
X379307Y783166D03*
D154*
X379307Y784013D03*
D151*
X379307Y784861D03*
D155*
X379307Y785706D03*
D31*
X379307Y786553D03*
D156*
X379307Y787401D03*
D157*
X379307Y788246D03*
D158*
X330517Y213868D02*
X330519Y213895D01*
X330525Y213922D01*
X330534Y213947D01*
X330547Y213971D01*
X330564Y213993D01*
X330583Y214012D01*
X330605Y214029D01*
X330629Y214042D01*
X330654Y214051D01*
X330681Y214057D01*
X330708Y214059D01*
X330735Y214057D01*
X330762Y214051D01*
X330787Y214042D01*
X330811Y214029D01*
X330833Y214012D01*
X330852Y213993D01*
X330869Y213971D01*
X330882Y213947D01*
X330891Y213922D01*
X330897Y213895D01*
X330899Y213868D01*
X330897Y213841D01*
X330891Y213814D01*
X330882Y213789D01*
X330869Y213765D01*
X330852Y213743D01*
X330833Y213724D01*
X330811Y213707D01*
X330787Y213694D01*
X330762Y213685D01*
X330735Y213679D01*
X330708Y213677D01*
X330681Y213679D01*
X330654Y213685D01*
X330629Y213694D01*
X330605Y213707D01*
X330583Y213724D01*
X330564Y213743D01*
X330547Y213765D01*
X330534Y213789D01*
X330525Y213814D01*
X330519Y213841D01*
X330517Y213868D01*
D159*
X116832Y976400D03*
D160*
X116832Y951000D03*
X116832Y925600D03*
X116832Y900200D03*
X116832Y874800D03*
X116832Y849400D03*
X116832Y824000D03*
X116832Y798600D03*
X116832Y773200D03*
X269232Y773200D03*
X269232Y798600D03*
X269232Y824000D03*
X269232Y849400D03*
X269232Y874800D03*
X269232Y900200D03*
X269232Y925600D03*
X269232Y951000D03*
X269232Y976400D03*
D159*
X488348Y975990D03*
D160*
X488348Y950590D03*
X488348Y925190D03*
X488348Y899790D03*
X488348Y874390D03*
X488348Y848990D03*
X488348Y823590D03*
X488348Y798190D03*
X488348Y772790D03*
X640748Y772790D03*
X640748Y798190D03*
X640748Y823590D03*
X640748Y848990D03*
X640748Y874390D03*
X640748Y899790D03*
X640748Y925190D03*
X640748Y950590D03*
X640748Y975990D03*
D161*
G36*
X377027Y192168D02*
X390108Y179087D01*
X383037Y172016D01*
X369956Y185097D01*
X377027Y192168D01*
G37*
G36*
X394987Y210128D02*
X408068Y197047D01*
X400997Y189976D01*
X387916Y203057D01*
X394987Y210128D01*
G37*
G36*
X337075Y232119D02*
X350156Y219038D01*
X343085Y211967D01*
X330004Y225048D01*
X337075Y232119D01*
G37*
G36*
X355036Y250080D02*
X368117Y236999D01*
X361046Y229928D01*
X347965Y243009D01*
X355036Y250080D01*
G37*
D162*
X259080Y561340D03*
X259080Y585470D03*
X162560Y538480D03*
X288290Y695960D03*
X186690Y666750D03*
X99060Y617220D03*
X73660Y737870D03*
X104140Y1116330D03*
X119380Y1111250D03*
X191770Y1008380D03*
X260350Y1038860D03*
X275590Y1010920D03*
X594360Y1141730D03*
X186756Y714060D03*
X386080Y636270D03*
X525272Y788162D03*
X210058Y703834D03*
X368808Y597154D03*
X156464Y1108710D03*
X245110Y977900D03*
X384810Y1012190D03*
X210820Y1097280D03*
X368300Y193040D03*
D158*
X379248Y182092D01*
X380032Y182092D01*
D162*
X138430Y535178D03*
X148082Y535178D03*
X148082Y525526D03*
X138430Y525526D03*
X640334Y1141222D03*
X326136Y1010666D03*
X229108Y1017524D03*
X268478Y1129792D03*
X145542Y1126998D03*
X166370Y1005840D03*
X545818Y755650D03*
X299466Y598170D03*
X355600Y610362D03*
X217170Y652272D03*
X239776Y733044D03*
X351790Y210058D03*
D158*
X340080Y221768D01*
X340080Y222043D01*
D162*
X203200Y1177290D03*
X209550Y1108992D03*
X238506Y1120924D03*
X176530Y1078738D03*
X134620Y784860D03*
X499872Y1036320D03*
X533908Y1070102D03*
X179070Y1144270D03*
X166370Y725170D03*
X566420Y800100D03*
X149860Y995680D03*
X194310Y1107440D03*
X254000Y741680D03*
X186690Y1099820D03*
X593090Y802640D03*
D163*
X244856Y755026D02*
X244856Y754380D01*
X244856Y755026D02*
X136144Y863738D01*
D162*
X132080Y1001014D03*
D163*
X136144Y996950D01*
X136144Y863738D01*
D162*
X244856Y754380D03*
X161290Y1080770D03*
X280670Y745490D03*
X162560Y1070610D03*
X286820Y738070D03*
X268732Y745236D03*
D163*
X140716Y873252D01*
X140716Y1007364D02*
X140208Y1007872D01*
D162*
X140208Y1007872D03*
D163*
X140716Y1007364D02*
X140716Y873252D01*
D162*
X125730Y1009904D03*
D163*
X103124Y987298D02*
X103124Y764032D01*
X103124Y987298D02*
X125730Y1009904D01*
X103124Y764032D02*
X110236Y756920D01*
D162*
X129540Y756920D03*
D163*
X110236Y756920D01*
D162*
X650240Y744220D03*
D163*
X621030Y773430D01*
D162*
X621030Y824230D03*
D163*
X621030Y773430D01*
D162*
X104422Y1007872D03*
D163*
X98806Y1002256D01*
X98806Y757936D01*
X107442Y749300D01*
X137160Y749300D02*
X144780Y756920D01*
X143510Y756920D01*
D162*
X143510Y756920D03*
D163*
X137160Y749300D02*
X107442Y749300D01*
D162*
X387350Y210566D03*
D163*
X397864Y200052D01*
X397992Y200052D01*
D162*
X369316Y229108D03*
D163*
X358420Y240004D01*
X358041Y240004D01*
D162*
X248158Y1061720D03*
X204368Y1078840D03*
X203200Y1057910D03*
X482600Y1000760D03*
D163*
X471170Y989330D01*
X471170Y746760D02*
X473710Y744220D01*
D162*
X473710Y744220D03*
D163*
X471170Y746760D02*
X471170Y989330D01*
D162*
X176530Y989330D03*
X347980Y681990D03*
X214000Y1025000D03*
X328000Y980000D03*
M02*
