G04 EAGLE Gerber X2 export*
%TF.Part,Single*%
%TF.FileFunction,Copper,L1,Top,Mixed*%
%TF.FilePolarity,Positive*%
%TF.GenerationSoftware,Autodesk,EAGLE,9.0.1*%
%TF.CreationDate,2018-06-28T06:38:32Z*%
G75*
%MOMM*%
%FSLAX34Y34*%
%LPD*%
%AMOC8*
5,1,8,0,0,1.08239X$1,22.5*%
G01*
%ADD10R,1.607819X0.084838*%
%ADD11R,2.623819X0.084581*%
%ADD12R,3.302000X0.084581*%
%ADD13R,3.893819X0.084838*%
%ADD14R,4.401819X0.084581*%
%ADD15R,4.826000X0.084581*%
%ADD16R,5.163819X0.084838*%
%ADD17R,5.588000X0.084581*%
%ADD18R,5.925819X0.084581*%
%ADD19R,6.179819X0.084838*%
%ADD20R,6.520181X0.084581*%
%ADD21R,6.774181X0.084581*%
%ADD22R,7.028181X0.084838*%
%ADD23R,7.282181X0.084581*%
%ADD24R,7.536181X0.084581*%
%ADD25R,7.703819X0.084838*%
%ADD26R,7.957819X0.084581*%
%ADD27R,8.128000X0.084581*%
%ADD28R,8.382000X0.084838*%
%ADD29R,8.552181X0.084581*%
%ADD30R,8.719819X0.084581*%
%ADD31R,8.890000X0.084838*%
%ADD32R,9.060181X0.084581*%
%ADD33R,9.227819X0.084581*%
%ADD34R,9.398000X0.084838*%
%ADD35R,9.568181X0.084581*%
%ADD36R,9.652000X0.084581*%
%ADD37R,9.822181X0.084838*%
%ADD38R,9.989819X0.084581*%
%ADD39R,10.076181X0.084581*%
%ADD40R,10.243819X0.084838*%
%ADD41R,10.330181X0.084581*%
%ADD42R,10.497819X0.084581*%
%ADD43R,10.584181X0.084838*%
%ADD44R,10.668000X0.084581*%
%ADD45R,10.838181X0.084581*%
%ADD46R,10.922000X0.084838*%
%ADD47R,11.005819X0.084581*%
%ADD48R,11.092181X0.084581*%
%ADD49R,11.176000X0.084838*%
%ADD50R,11.346181X0.084581*%
%ADD51R,11.513819X0.084838*%
%ADD52R,11.513819X0.084581*%
%ADD53R,11.600181X0.084581*%
%ADD54R,11.684000X0.084838*%
%ADD55R,11.767819X0.084581*%
%ADD56R,11.854181X0.084581*%
%ADD57R,11.938000X0.084838*%
%ADD58R,12.021819X0.084581*%
%ADD59R,12.108181X0.084838*%
%ADD60R,12.192000X0.084581*%
%ADD61R,12.275819X0.084838*%
%ADD62R,12.275819X0.084581*%
%ADD63R,12.362181X0.084581*%
%ADD64R,12.362181X0.084838*%
%ADD65R,12.446000X0.084581*%
%ADD66R,12.529819X0.084838*%
%ADD67R,12.529819X0.084581*%
%ADD68R,12.616181X0.084838*%
%ADD69R,12.616181X0.084581*%
%ADD70R,12.700000X0.084838*%
%ADD71R,12.700000X0.084581*%
%ADD72R,12.783819X0.084838*%
%ADD73R,12.783819X0.084581*%
%ADD74R,12.192000X0.084838*%
%ADD75R,12.108181X0.084581*%
%ADD76R,12.021819X0.084838*%
%ADD77R,11.938000X0.084581*%
%ADD78R,11.854181X0.084838*%
%ADD79R,11.430000X0.084838*%
%ADD80R,11.259819X0.084581*%
%ADD81R,10.838181X0.084838*%
%ADD82R,10.751819X0.084581*%
%ADD83R,10.497819X0.084838*%
%ADD84R,10.414000X0.084581*%
%ADD85R,10.160000X0.084838*%
%ADD86R,9.906000X0.084581*%
%ADD87R,9.735819X0.084838*%
%ADD88R,9.481819X0.084581*%
%ADD89R,9.314181X0.084838*%
%ADD90R,9.144000X0.084581*%
%ADD91R,8.973819X0.084581*%
%ADD92R,8.806181X0.084838*%
%ADD93R,8.636000X0.084581*%
%ADD94R,8.465819X0.084581*%
%ADD95R,8.298181X0.084838*%
%ADD96R,8.044181X0.084581*%
%ADD97R,7.790181X0.084581*%
%ADD98R,7.620000X0.084838*%
%ADD99R,7.366000X0.084581*%
%ADD100R,7.112000X0.084581*%
%ADD101R,6.858000X0.084838*%
%ADD102R,6.604000X0.084581*%
%ADD103R,6.350000X0.084581*%
%ADD104R,6.012181X0.084838*%
%ADD105R,5.671819X0.084581*%
%ADD106R,5.334000X0.084581*%
%ADD107R,4.996181X0.084838*%
%ADD108R,4.572000X0.084581*%
%ADD109R,4.064000X0.084581*%
%ADD110R,3.556000X0.084838*%
%ADD111R,2.964181X0.084581*%
%ADD112R,2.115819X0.084581*%
%ADD113R,0.678181X0.084838*%
%ADD114R,0.421637X0.084581*%
%ADD115R,1.016000X0.084581*%
%ADD116R,1.186181X0.084581*%
%ADD117R,1.353819X0.084838*%
%ADD118R,1.524000X0.084581*%
%ADD119R,1.694181X0.084581*%
%ADD120R,1.861819X0.084838*%
%ADD121R,2.202181X0.084581*%
%ADD122R,2.369819X0.084581*%
%ADD123R,2.540000X0.084838*%
%ADD124R,2.710181X0.084581*%
%ADD125R,2.877819X0.084581*%
%ADD126R,3.048000X0.084838*%
%ADD127R,3.385819X0.084581*%
%ADD128R,3.556000X0.084581*%
%ADD129R,3.726181X0.084838*%
%ADD130R,3.893819X0.084581*%
%ADD131R,4.318000X0.084838*%
%ADD132R,4.742181X0.084581*%
%ADD133R,4.909819X0.084838*%
%ADD134R,5.080000X0.084581*%
%ADD135R,5.250181X0.084581*%
%ADD136R,5.588000X0.084838*%
%ADD137R,5.758181X0.084581*%
%ADD138R,6.096000X0.084838*%
%ADD139R,6.266181X0.084581*%
%ADD140R,6.433819X0.084581*%
%ADD141R,6.774181X0.084838*%
%ADD142R,6.941819X0.084581*%
%ADD143R,7.282181X0.084838*%
%ADD144R,7.449819X0.084581*%
%ADD145R,7.620000X0.084581*%
%ADD146R,7.957819X0.084838*%
%ADD147R,8.298181X0.084581*%
%ADD148R,8.465819X0.084838*%
%ADD149R,8.806181X0.084581*%
%ADD150R,8.973819X0.084838*%
%ADD151R,9.057638X0.084581*%
%ADD152R,9.144000X0.084838*%
%ADD153R,9.230363X0.084581*%
%ADD154R,9.057638X0.084838*%
%ADD155R,8.890000X0.084581*%
%ADD156R,8.722363X0.084581*%
%ADD157R,8.382000X0.084581*%
%ADD158C,0.508000*%
%ADD159R,1.508000X1.508000*%
%ADD160C,1.508000*%
%ADD161R,1.850000X1.000000*%
%ADD162C,0.756400*%
%ADD163C,0.254000*%

G36*
X421142Y34800D02*
X421142Y34800D01*
X421165Y34799D01*
X431877Y35076D01*
X431894Y35079D01*
X432012Y35087D01*
X442634Y36502D01*
X442650Y36506D01*
X442767Y36527D01*
X453178Y39063D01*
X453193Y39069D01*
X453307Y39102D01*
X463390Y42732D01*
X463405Y42739D01*
X463514Y42784D01*
X473154Y47465D01*
X473168Y47474D01*
X473272Y47530D01*
X482359Y53210D01*
X482372Y53220D01*
X482470Y53287D01*
X490901Y59901D01*
X490913Y59913D01*
X491003Y59990D01*
X498683Y67463D01*
X498694Y67476D01*
X498775Y67562D01*
X505617Y75809D01*
X505626Y75823D01*
X505697Y75918D01*
X511624Y84846D01*
X511631Y84861D01*
X511646Y84884D01*
X511649Y84888D01*
X511652Y84895D01*
X511692Y84962D01*
X516635Y94470D01*
X516641Y94485D01*
X516691Y94593D01*
X520595Y104572D01*
X520599Y104588D01*
X520638Y104700D01*
X523459Y115038D01*
X523461Y115055D01*
X523487Y115170D01*
X525192Y125749D01*
X525193Y125766D01*
X525207Y125884D01*
X525777Y136584D01*
X525776Y136603D01*
X525779Y136652D01*
X525779Y303530D01*
X525779Y303532D01*
X525779Y303534D01*
X525769Y303694D01*
X524282Y315076D01*
X524278Y315092D01*
X524257Y315211D01*
X521557Y326367D01*
X521551Y326382D01*
X521517Y326498D01*
X517633Y337299D01*
X517626Y337314D01*
X517584Y337417D01*
X517583Y337420D01*
X517582Y337421D01*
X517580Y337425D01*
X512558Y347747D01*
X512549Y347760D01*
X512492Y347866D01*
X506389Y357588D01*
X506379Y357601D01*
X506311Y357700D01*
X499199Y366710D01*
X499187Y366721D01*
X499109Y366813D01*
X491070Y375006D01*
X491057Y375016D01*
X490969Y375098D01*
X482096Y382381D01*
X482082Y382389D01*
X481986Y382461D01*
X472382Y388748D01*
X472368Y388755D01*
X472264Y388817D01*
X462040Y394035D01*
X462024Y394040D01*
X461915Y394090D01*
X451189Y398179D01*
X451174Y398183D01*
X451059Y398221D01*
X439957Y401134D01*
X439941Y401136D01*
X439823Y401161D01*
X428471Y402864D01*
X428455Y402865D01*
X428335Y402877D01*
X416866Y403350D01*
X416851Y403349D01*
X416814Y403351D01*
X339598Y403351D01*
X339589Y403350D01*
X339570Y403351D01*
X328545Y403111D01*
X328528Y403108D01*
X328410Y403101D01*
X317472Y401694D01*
X317456Y401690D01*
X317340Y401670D01*
X306612Y399112D01*
X306596Y399106D01*
X306483Y399073D01*
X296087Y395393D01*
X296071Y395386D01*
X295962Y395342D01*
X286015Y390581D01*
X286000Y390572D01*
X285896Y390516D01*
X276509Y384728D01*
X276496Y384717D01*
X276398Y384651D01*
X267677Y377901D01*
X267665Y377889D01*
X267575Y377813D01*
X259618Y370177D01*
X259608Y370163D01*
X259526Y370078D01*
X252423Y361642D01*
X252414Y361628D01*
X252342Y361535D01*
X246173Y352393D01*
X246165Y352378D01*
X246104Y352278D01*
X240938Y342534D01*
X240932Y342518D01*
X240881Y342412D01*
X236777Y332176D01*
X236773Y332159D01*
X236733Y332048D01*
X233737Y321435D01*
X233734Y321418D01*
X233707Y321303D01*
X231852Y310432D01*
X231851Y310415D01*
X231836Y310298D01*
X231143Y299292D01*
X231145Y299271D01*
X231141Y299212D01*
X231141Y140970D01*
X231143Y140954D01*
X231142Y140913D01*
X231638Y129972D01*
X231641Y129956D01*
X231651Y129840D01*
X233293Y119012D01*
X233298Y118995D01*
X233320Y118881D01*
X236090Y108286D01*
X236097Y108270D01*
X236131Y108159D01*
X239998Y97913D01*
X240006Y97898D01*
X240052Y97791D01*
X244974Y88008D01*
X244984Y87994D01*
X245040Y87892D01*
X250962Y78680D01*
X250973Y78667D01*
X251040Y78572D01*
X257897Y70032D01*
X257909Y70020D01*
X257986Y69933D01*
X265701Y62161D01*
X265715Y62150D01*
X265800Y62071D01*
X274289Y55153D01*
X274304Y55143D01*
X274397Y55074D01*
X283565Y49085D01*
X283581Y49077D01*
X283681Y49018D01*
X293428Y44025D01*
X293444Y44019D01*
X293550Y43970D01*
X303767Y40028D01*
X303783Y40024D01*
X303894Y39987D01*
X314469Y37139D01*
X314486Y37137D01*
X314599Y37111D01*
X325414Y35390D01*
X325432Y35390D01*
X325547Y35376D01*
X336483Y34801D01*
X336502Y34802D01*
X336550Y34799D01*
X421132Y34799D01*
X421142Y34800D01*
G37*
%LPC*%
G36*
X350633Y204243D02*
X350633Y204243D01*
X348496Y205128D01*
X346860Y206764D01*
X345975Y208901D01*
X345975Y208918D01*
X345958Y209056D01*
X345945Y209195D01*
X345938Y209214D01*
X345935Y209234D01*
X345884Y209363D01*
X345837Y209494D01*
X345826Y209511D01*
X345818Y209529D01*
X345737Y209642D01*
X345659Y209757D01*
X345643Y209770D01*
X345632Y209787D01*
X345524Y209876D01*
X345420Y209968D01*
X345402Y209977D01*
X345387Y209990D01*
X345261Y210049D01*
X345137Y210112D01*
X345117Y210117D01*
X345099Y210125D01*
X344962Y210151D01*
X344827Y210182D01*
X344806Y210181D01*
X344787Y210185D01*
X344648Y210176D01*
X344509Y210172D01*
X344489Y210166D01*
X344469Y210165D01*
X344337Y210122D01*
X344203Y210084D01*
X344186Y210073D01*
X344167Y210067D01*
X344049Y209993D01*
X343950Y209934D01*
X342243Y209934D01*
X337364Y214814D01*
X337309Y214857D01*
X337260Y214907D01*
X337184Y214954D01*
X337113Y215009D01*
X337048Y215037D01*
X336989Y215073D01*
X336903Y215100D01*
X336821Y215135D01*
X336752Y215146D01*
X336685Y215167D01*
X336595Y215171D01*
X336507Y215185D01*
X336437Y215178D01*
X336367Y215182D01*
X336279Y215164D01*
X336190Y215155D01*
X336124Y215132D01*
X336056Y215117D01*
X335975Y215078D01*
X335891Y215048D01*
X335833Y215008D01*
X335770Y214978D01*
X335702Y214919D01*
X335628Y214869D01*
X335581Y214817D01*
X335528Y214771D01*
X335477Y214698D01*
X335417Y214631D01*
X335385Y214568D01*
X335345Y214511D01*
X335313Y214427D01*
X335273Y214347D01*
X335257Y214279D01*
X335232Y214214D01*
X335224Y214137D01*
X333823Y210753D01*
X330708Y209463D01*
X327593Y210753D01*
X326303Y213868D01*
X327593Y216983D01*
X330972Y218382D01*
X331033Y218388D01*
X331117Y218418D01*
X331204Y218439D01*
X331266Y218472D01*
X331332Y218495D01*
X331406Y218546D01*
X331486Y218588D01*
X331537Y218635D01*
X331595Y218674D01*
X331655Y218741D01*
X331721Y218801D01*
X331759Y218860D01*
X331806Y218912D01*
X331846Y218992D01*
X331896Y219067D01*
X331918Y219133D01*
X331950Y219195D01*
X331970Y219283D01*
X331999Y219368D01*
X332005Y219438D01*
X332020Y219506D01*
X332017Y219595D01*
X332024Y219685D01*
X332012Y219754D01*
X332010Y219824D01*
X331985Y219910D01*
X331970Y219998D01*
X331941Y220062D01*
X331922Y220129D01*
X331876Y220206D01*
X331839Y220288D01*
X331796Y220343D01*
X331760Y220403D01*
X331654Y220524D01*
X327971Y224207D01*
X327971Y225891D01*
X336233Y234152D01*
X337917Y234152D01*
X352189Y219880D01*
X352189Y218196D01*
X352032Y218040D01*
X351947Y217930D01*
X351858Y217823D01*
X351850Y217804D01*
X351837Y217788D01*
X351782Y217660D01*
X351723Y217535D01*
X351719Y217515D01*
X351711Y217496D01*
X351689Y217358D01*
X351663Y217222D01*
X351664Y217202D01*
X351661Y217182D01*
X351674Y217043D01*
X351683Y216905D01*
X351689Y216886D01*
X351691Y216866D01*
X351738Y216735D01*
X351781Y216603D01*
X351792Y216585D01*
X351799Y216566D01*
X351876Y216452D01*
X351951Y216334D01*
X351966Y216320D01*
X351977Y216303D01*
X352081Y216211D01*
X352183Y216116D01*
X352200Y216106D01*
X352216Y216093D01*
X352339Y216030D01*
X352461Y215962D01*
X352481Y215957D01*
X352499Y215948D01*
X352635Y215918D01*
X352769Y215883D01*
X352797Y215881D01*
X352809Y215878D01*
X352830Y215879D01*
X352930Y215873D01*
X352947Y215873D01*
X355084Y214988D01*
X356720Y213352D01*
X357605Y211215D01*
X357605Y208901D01*
X356720Y206764D01*
X355084Y205128D01*
X352947Y204243D01*
X350633Y204243D01*
G37*
%LPD*%
%LPC*%
G36*
X382195Y169983D02*
X382195Y169983D01*
X367923Y184255D01*
X367923Y186054D01*
X367919Y186084D01*
X367921Y186113D01*
X367899Y186241D01*
X367883Y186370D01*
X367872Y186397D01*
X367867Y186426D01*
X367814Y186545D01*
X367766Y186666D01*
X367748Y186689D01*
X367736Y186716D01*
X367655Y186818D01*
X367579Y186923D01*
X367556Y186942D01*
X367538Y186965D01*
X367434Y187043D01*
X367334Y187126D01*
X367307Y187138D01*
X367284Y187156D01*
X367139Y187227D01*
X365006Y188110D01*
X363370Y189746D01*
X362485Y191883D01*
X362485Y194197D01*
X363370Y196334D01*
X365006Y197970D01*
X367143Y198855D01*
X369457Y198855D01*
X371594Y197970D01*
X373230Y196334D01*
X373993Y194491D01*
X374017Y194448D01*
X374034Y194401D01*
X374096Y194310D01*
X374150Y194215D01*
X374185Y194179D01*
X374213Y194138D01*
X374295Y194065D01*
X374372Y193986D01*
X374414Y193960D01*
X374451Y193927D01*
X374549Y193877D01*
X374643Y193820D01*
X374690Y193806D01*
X374734Y193783D01*
X374842Y193759D01*
X374947Y193727D01*
X374996Y193724D01*
X375045Y193713D01*
X375154Y193717D01*
X375264Y193711D01*
X375313Y193721D01*
X375363Y193723D01*
X375468Y193753D01*
X375576Y193776D01*
X375620Y193798D01*
X375668Y193811D01*
X375763Y193867D01*
X375861Y193915D01*
X375899Y193948D01*
X375942Y193973D01*
X376063Y194079D01*
X376185Y194201D01*
X377868Y194201D01*
X392141Y179929D01*
X392141Y178245D01*
X383879Y169983D01*
X382195Y169983D01*
G37*
%LPD*%
%LPC*%
G36*
X368159Y223293D02*
X368159Y223293D01*
X366022Y224178D01*
X364386Y225814D01*
X363772Y227297D01*
X363747Y227341D01*
X363731Y227387D01*
X363669Y227478D01*
X363615Y227574D01*
X363580Y227609D01*
X363552Y227651D01*
X363470Y227723D01*
X363393Y227802D01*
X363351Y227828D01*
X363314Y227861D01*
X363216Y227911D01*
X363122Y227968D01*
X363075Y227983D01*
X363030Y228006D01*
X362923Y228030D01*
X362818Y228062D01*
X362769Y228064D01*
X362720Y228075D01*
X362610Y228072D01*
X362501Y228077D01*
X362452Y228067D01*
X362402Y228066D01*
X362297Y228035D01*
X362189Y228013D01*
X362144Y227991D01*
X362097Y227977D01*
X362002Y227921D01*
X361948Y227895D01*
X360204Y227895D01*
X345932Y242167D01*
X345932Y243851D01*
X354193Y252113D01*
X355877Y252113D01*
X370150Y237841D01*
X370150Y235905D01*
X370153Y235875D01*
X370151Y235846D01*
X370173Y235718D01*
X370189Y235589D01*
X370200Y235562D01*
X370205Y235533D01*
X370259Y235414D01*
X370307Y235293D01*
X370324Y235270D01*
X370336Y235243D01*
X370417Y235141D01*
X370493Y235036D01*
X370516Y235017D01*
X370535Y234994D01*
X370638Y234916D01*
X370738Y234833D01*
X370765Y234821D01*
X370789Y234803D01*
X370933Y234732D01*
X372610Y234038D01*
X374246Y232402D01*
X375131Y230265D01*
X375131Y227951D01*
X374246Y225814D01*
X372610Y224178D01*
X370473Y223293D01*
X368159Y223293D01*
G37*
%LPD*%
%LPC*%
G36*
X400155Y187943D02*
X400155Y187943D01*
X385883Y202216D01*
X385883Y204032D01*
X385879Y204061D01*
X385882Y204090D01*
X385860Y204218D01*
X385843Y204347D01*
X385833Y204375D01*
X385827Y204404D01*
X385774Y204522D01*
X385726Y204643D01*
X385709Y204667D01*
X385697Y204694D01*
X385616Y204795D01*
X385539Y204900D01*
X385517Y204919D01*
X385498Y204942D01*
X385395Y205020D01*
X385295Y205103D01*
X385268Y205116D01*
X385244Y205133D01*
X385100Y205204D01*
X384056Y205637D01*
X382420Y207272D01*
X381535Y209409D01*
X381535Y211723D01*
X382420Y213860D01*
X384056Y215496D01*
X386193Y216381D01*
X388507Y216381D01*
X390644Y215496D01*
X392279Y213860D01*
X392658Y212945D01*
X392673Y212919D01*
X392682Y212891D01*
X392752Y212782D01*
X392816Y212669D01*
X392836Y212648D01*
X392852Y212623D01*
X392947Y212533D01*
X393037Y212440D01*
X393062Y212425D01*
X393084Y212405D01*
X393198Y212342D01*
X393308Y212274D01*
X393337Y212265D01*
X393362Y212251D01*
X393488Y212219D01*
X393612Y212180D01*
X393642Y212179D01*
X393670Y212172D01*
X393831Y212161D01*
X395829Y212161D01*
X410101Y197889D01*
X410101Y196205D01*
X401839Y187943D01*
X400155Y187943D01*
G37*
%LPD*%
D10*
X380157Y428413D03*
D11*
X380157Y429261D03*
D12*
X380145Y430106D03*
D13*
X379726Y430953D03*
D14*
X379726Y431801D03*
D15*
X380145Y432646D03*
D16*
X380157Y433493D03*
D17*
X379738Y434341D03*
D18*
X379726Y435186D03*
D19*
X380157Y436033D03*
D20*
X380157Y436881D03*
D21*
X379726Y437726D03*
D22*
X380157Y438573D03*
D23*
X379726Y439421D03*
D24*
X380157Y440266D03*
D25*
X380157Y441113D03*
D26*
X379726Y441961D03*
D27*
X379738Y442806D03*
D28*
X380145Y443653D03*
D29*
X380157Y444501D03*
D30*
X380157Y445346D03*
D31*
X380145Y446193D03*
D32*
X380157Y447041D03*
D33*
X380157Y447886D03*
D34*
X380145Y448733D03*
D35*
X380157Y449581D03*
D36*
X379738Y450426D03*
D37*
X379726Y451273D03*
D38*
X379726Y452121D03*
D39*
X380157Y452966D03*
D40*
X380157Y453813D03*
D41*
X379726Y454661D03*
D42*
X379726Y455506D03*
D43*
X380157Y456353D03*
D44*
X379738Y457201D03*
D45*
X379726Y458046D03*
D46*
X380145Y458893D03*
D47*
X379726Y459741D03*
D48*
X380157Y460586D03*
D49*
X379738Y461433D03*
D50*
X379726Y462281D03*
X379726Y463126D03*
D51*
X379726Y463973D03*
D52*
X379726Y464821D03*
D53*
X380157Y465666D03*
D54*
X379738Y466513D03*
D55*
X380157Y467361D03*
D56*
X379726Y468206D03*
D57*
X380145Y469053D03*
D58*
X379726Y469901D03*
X379726Y470746D03*
D59*
X380157Y471593D03*
D60*
X379738Y472441D03*
X379738Y473286D03*
D61*
X380157Y474133D03*
D62*
X380157Y474981D03*
D63*
X379726Y475826D03*
D64*
X379726Y476673D03*
D65*
X380145Y477521D03*
X380145Y478366D03*
D66*
X379726Y479213D03*
D67*
X379726Y480061D03*
X379726Y480906D03*
D68*
X380157Y481753D03*
D69*
X380157Y482601D03*
X380157Y483446D03*
D70*
X379738Y484293D03*
D71*
X379738Y485141D03*
X379738Y485986D03*
D70*
X379738Y486833D03*
D71*
X379738Y487681D03*
X379738Y488526D03*
D72*
X380157Y489373D03*
D73*
X380157Y490221D03*
X380157Y491066D03*
D72*
X380157Y491913D03*
D73*
X380157Y492761D03*
X380157Y493606D03*
D70*
X379738Y494453D03*
D71*
X379738Y495301D03*
X379738Y496146D03*
D70*
X379738Y496993D03*
D71*
X379738Y497841D03*
X379738Y498686D03*
D70*
X379738Y499533D03*
D69*
X380157Y500381D03*
X380157Y501226D03*
D68*
X380157Y502073D03*
D67*
X379726Y502921D03*
X379726Y503766D03*
D66*
X379726Y504613D03*
D65*
X380145Y505461D03*
D63*
X379726Y506306D03*
D64*
X379726Y507153D03*
D63*
X379726Y508001D03*
D62*
X380157Y508846D03*
D74*
X379738Y509693D03*
D60*
X379738Y510541D03*
D75*
X380157Y511386D03*
D76*
X379726Y512233D03*
D58*
X379726Y513081D03*
D77*
X380145Y513926D03*
D78*
X379726Y514773D03*
D56*
X379726Y515621D03*
D55*
X380157Y516466D03*
D54*
X379738Y517313D03*
D53*
X380157Y518161D03*
D52*
X379726Y519006D03*
D79*
X380145Y519853D03*
D50*
X379726Y520701D03*
D80*
X380157Y521546D03*
D49*
X379738Y522393D03*
D48*
X380157Y523241D03*
D47*
X379726Y524086D03*
D81*
X379726Y524933D03*
D82*
X380157Y525781D03*
D44*
X379738Y526626D03*
D83*
X379726Y527473D03*
D84*
X380145Y528321D03*
D41*
X379726Y529166D03*
D85*
X379738Y530013D03*
D38*
X379726Y530861D03*
D86*
X380145Y531706D03*
D87*
X380157Y532553D03*
D36*
X379738Y533401D03*
D88*
X379726Y534246D03*
D89*
X379726Y535093D03*
D90*
X379738Y535941D03*
D91*
X379726Y536786D03*
D92*
X379726Y537633D03*
D93*
X379738Y538481D03*
D94*
X379726Y539326D03*
D95*
X379726Y540173D03*
D96*
X380157Y541021D03*
D97*
X379726Y541866D03*
D98*
X379738Y542713D03*
D99*
X380145Y543561D03*
D100*
X379738Y544406D03*
D101*
X380145Y545253D03*
D102*
X379738Y546101D03*
D103*
X380145Y546946D03*
D104*
X380157Y547793D03*
D105*
X380157Y548641D03*
D106*
X380145Y549486D03*
D107*
X380157Y550333D03*
D108*
X379738Y551181D03*
D109*
X379738Y552026D03*
D110*
X379738Y552873D03*
D111*
X380157Y553721D03*
D112*
X380157Y554566D03*
D113*
X379726Y555413D03*
D114*
X379307Y742526D03*
D113*
X379726Y743373D03*
D115*
X379738Y744221D03*
D116*
X379726Y745066D03*
D117*
X379726Y745913D03*
D118*
X379738Y746761D03*
D119*
X379726Y747606D03*
D120*
X379726Y748453D03*
D121*
X379726Y749301D03*
D122*
X379726Y750146D03*
D123*
X379738Y750993D03*
D124*
X379726Y751841D03*
D125*
X379726Y752686D03*
D126*
X379738Y753533D03*
D127*
X379726Y754381D03*
D128*
X379738Y755226D03*
D129*
X379726Y756073D03*
D130*
X379726Y756921D03*
D109*
X379738Y757766D03*
D131*
X379307Y758613D03*
D108*
X379738Y759461D03*
D132*
X379726Y760306D03*
D133*
X379726Y761153D03*
D134*
X379738Y762001D03*
D135*
X379726Y762846D03*
D136*
X379738Y763693D03*
D137*
X379726Y764541D03*
D18*
X379726Y765386D03*
D138*
X379738Y766233D03*
D139*
X379726Y767081D03*
D140*
X379726Y767926D03*
D141*
X379726Y768773D03*
D142*
X379726Y769621D03*
D100*
X379738Y770466D03*
D143*
X379726Y771313D03*
D144*
X379726Y772161D03*
D145*
X379738Y773006D03*
D146*
X379726Y773853D03*
D27*
X379738Y774701D03*
D147*
X379726Y775546D03*
D148*
X379726Y776393D03*
D93*
X379738Y777241D03*
D149*
X379726Y778086D03*
D150*
X379726Y778933D03*
D151*
X379307Y779781D03*
D90*
X379738Y780626D03*
D152*
X379738Y781473D03*
D153*
X379307Y782321D03*
X379307Y783166D03*
D154*
X379307Y784013D03*
D151*
X379307Y784861D03*
D155*
X379307Y785706D03*
D31*
X379307Y786553D03*
D156*
X379307Y787401D03*
D157*
X379307Y788246D03*
D158*
X330517Y213868D02*
X330519Y213895D01*
X330525Y213922D01*
X330534Y213947D01*
X330547Y213971D01*
X330564Y213993D01*
X330583Y214012D01*
X330605Y214029D01*
X330629Y214042D01*
X330654Y214051D01*
X330681Y214057D01*
X330708Y214059D01*
X330735Y214057D01*
X330762Y214051D01*
X330787Y214042D01*
X330811Y214029D01*
X330833Y214012D01*
X330852Y213993D01*
X330869Y213971D01*
X330882Y213947D01*
X330891Y213922D01*
X330897Y213895D01*
X330899Y213868D01*
X330897Y213841D01*
X330891Y213814D01*
X330882Y213789D01*
X330869Y213765D01*
X330852Y213743D01*
X330833Y213724D01*
X330811Y213707D01*
X330787Y213694D01*
X330762Y213685D01*
X330735Y213679D01*
X330708Y213677D01*
X330681Y213679D01*
X330654Y213685D01*
X330629Y213694D01*
X330605Y213707D01*
X330583Y213724D01*
X330564Y213743D01*
X330547Y213765D01*
X330534Y213789D01*
X330525Y213814D01*
X330519Y213841D01*
X330517Y213868D01*
D159*
X116832Y976400D03*
D160*
X116832Y951000D03*
X116832Y925600D03*
X116832Y900200D03*
X116832Y874800D03*
X116832Y849400D03*
X116832Y824000D03*
X116832Y798600D03*
X116832Y773200D03*
X269232Y773200D03*
X269232Y798600D03*
X269232Y824000D03*
X269232Y849400D03*
X269232Y874800D03*
X269232Y900200D03*
X269232Y925600D03*
X269232Y951000D03*
X269232Y976400D03*
D159*
X488348Y975990D03*
D160*
X488348Y950590D03*
X488348Y925190D03*
X488348Y899790D03*
X488348Y874390D03*
X488348Y848990D03*
X488348Y823590D03*
X488348Y798190D03*
X488348Y772790D03*
X640748Y772790D03*
X640748Y798190D03*
X640748Y823590D03*
X640748Y848990D03*
X640748Y874390D03*
X640748Y899790D03*
X640748Y925190D03*
X640748Y950590D03*
X640748Y975990D03*
D161*
G36*
X377027Y192168D02*
X390108Y179087D01*
X383037Y172016D01*
X369956Y185097D01*
X377027Y192168D01*
G37*
G36*
X394987Y210128D02*
X408068Y197047D01*
X400997Y189976D01*
X387916Y203057D01*
X394987Y210128D01*
G37*
G36*
X337075Y232119D02*
X350156Y219038D01*
X343085Y211967D01*
X330004Y225048D01*
X337075Y232119D01*
G37*
G36*
X355036Y250080D02*
X368117Y236999D01*
X361046Y229928D01*
X347965Y243009D01*
X355036Y250080D01*
G37*
D162*
X259080Y561340D03*
X259080Y585470D03*
X162560Y538480D03*
X288290Y695960D03*
X186690Y666750D03*
X99060Y617220D03*
X73660Y737870D03*
X104140Y1116330D03*
X119380Y1111250D03*
X191770Y1008380D03*
X260350Y1038860D03*
X275590Y1010920D03*
X594360Y1141730D03*
X186756Y714060D03*
X386080Y636270D03*
X525272Y788162D03*
X210058Y703834D03*
X368808Y597154D03*
X156464Y1108710D03*
X245110Y977900D03*
X384810Y1012190D03*
X210820Y1097280D03*
X368300Y193040D03*
D158*
X379248Y182092D01*
X380032Y182092D01*
D162*
X138430Y535178D03*
X148082Y535178D03*
X148082Y525526D03*
X138430Y525526D03*
X640334Y1141222D03*
X326136Y1010666D03*
X229108Y1017524D03*
X268478Y1129792D03*
X145542Y1126998D03*
X166370Y1005840D03*
X545818Y755650D03*
X299466Y598170D03*
X355600Y610362D03*
X217170Y652272D03*
X239776Y733044D03*
X351790Y210058D03*
D158*
X340080Y221768D01*
X340080Y222043D01*
D162*
X203200Y1177290D03*
X209550Y1108992D03*
X238506Y1120924D03*
X176530Y1078738D03*
X134620Y784860D03*
X499872Y1036320D03*
X533908Y1070102D03*
X179070Y1144270D03*
X166370Y725170D03*
X566420Y800100D03*
X149860Y995680D03*
X194310Y1107440D03*
X254000Y741680D03*
X186690Y1099820D03*
X593090Y802640D03*
D163*
X244856Y755026D02*
X244856Y754380D01*
X244856Y755026D02*
X136144Y863738D01*
D162*
X132080Y1001014D03*
D163*
X136144Y996950D01*
X136144Y863738D01*
D162*
X244856Y754380D03*
X161290Y1080770D03*
X280670Y745490D03*
X162560Y1070610D03*
X286820Y738070D03*
X268732Y745236D03*
D163*
X140716Y873252D01*
X140716Y1007364D02*
X140208Y1007872D01*
D162*
X140208Y1007872D03*
D163*
X140716Y1007364D02*
X140716Y873252D01*
D162*
X125730Y1009904D03*
D163*
X103124Y987298D02*
X103124Y764032D01*
X103124Y987298D02*
X125730Y1009904D01*
X103124Y764032D02*
X110236Y756920D01*
D162*
X129540Y756920D03*
D163*
X110236Y756920D01*
D162*
X650240Y744220D03*
D163*
X621030Y773430D01*
D162*
X621030Y824230D03*
D163*
X621030Y773430D01*
D162*
X104422Y1007872D03*
D163*
X98806Y1002256D01*
X98806Y757936D01*
X107442Y749300D01*
X137160Y749300D02*
X144780Y756920D01*
X143510Y756920D01*
D162*
X143510Y756920D03*
D163*
X137160Y749300D02*
X107442Y749300D01*
D162*
X387350Y210566D03*
D163*
X397864Y200052D01*
X397992Y200052D01*
D162*
X369316Y229108D03*
D163*
X358420Y240004D01*
X358041Y240004D01*
D162*
X248158Y1061720D03*
X204368Y1078840D03*
X203200Y1057910D03*
X482600Y1000760D03*
D163*
X471170Y989330D01*
X471170Y746760D02*
X473710Y744220D01*
D162*
X473710Y744220D03*
D163*
X471170Y746760D02*
X471170Y989330D01*
D162*
X176530Y989330D03*
X347980Y681990D03*
X214000Y1025000D03*
X328000Y980000D03*
M02*
