M48
;GenerationSoftware,Autodesk,EAGLE,9.0.1*%
;CreationDate,2018-06-28T06:38:31Z*%
FMAT,2
ICI,OFF
METRIC,TZ,000.000
T4C0.350
T3C1.000
T2C4.445
T1C5.080
%
G90
M71
T1
X13640Y119583
T2
X62357Y119888
T3
X48835Y89979
X11683Y97640
X11683Y95100
X11683Y92560
X11683Y90020
X11683Y87480
X11683Y84940
X11683Y82400
X11683Y79860
X11683Y77320
X26923Y77320
X26923Y79860
X26923Y82400
X26923Y84940
X26923Y87480
X26923Y90020
X26923Y92560
X26923Y95100
X26923Y97640
X48835Y97599
X48835Y95059
X48835Y92519
X48835Y87439
X48835Y84899
X48835Y82359
X48835Y79819
X48835Y77279
X64075Y77279
X64075Y79819
X64075Y82359
X64075Y84899
X64075Y87439
X64075Y89979
X64075Y92519
X64075Y95059
X64075Y97599
T4
X35179Y21006
X20320Y117729
X20955Y110899
X23851Y112092
X17653Y107874
X13462Y78486
X49987Y103632
X53391Y107010
X17907Y114427
X16637Y72517
X56642Y80010
X14986Y99568
X19431Y110744
X25400Y74168
X18669Y109982
X59309Y80264
X13208Y100101
X24486Y75438
X16129Y108077
X28067Y74549
X38608Y63627
X28682Y73807
X26873Y74524
X14021Y100787
X12573Y100990
X12954Y75692
X65024Y74422
X62103Y82423
X10442Y100787
X14351Y75692
X38735Y21057
X36932Y22911
X24816Y106172
X20437Y107884
X20320Y105791
X48260Y100076
X47371Y74422
X17653Y98933
X34798Y68199
X21400Y102500
X32800Y98000
X25908Y56134
X25908Y58547
X16256Y53848
X28829Y69596
X18669Y66675
X9906Y61722
X7366Y73787
X10414Y111633
X11938Y111125
X19177Y100838
X26035Y103886
X27559Y101092
X59436Y114173
X18676Y71406
X52527Y78816
X21006Y70383
X36881Y59715
X15646Y110871
X24511Y97790
X38481Y101219
X21082Y109728
X36830Y19304
X13843Y53518
X16256Y107061
X14808Y53518
X14808Y52553
X13843Y52553
X64033Y114122
X32614Y101067
X22911Y101752
X26848Y112979
X14554Y112700
X16637Y100584
X54582Y75565
X29947Y59817
X35560Y61036
X21717Y65227
X23978Y73304
M30