G04 EAGLE Gerber X2 export*
%TF.Part,Single*%
%TF.FileFunction,Soldermask,Top,1*%
%TF.FilePolarity,Negative*%
%TF.GenerationSoftware,Autodesk,EAGLE,9.0.1*%
%TF.CreationDate,2018-06-28T06:38:32Z*%
G75*
%MOMM*%
%FSLAX34Y34*%
%LPD*%
%AMOC8*
5,1,8,0,0,1.08239X$1,22.5*%
G01*
%ADD10R,0.421637X0.084581*%
%ADD11R,0.678181X0.084838*%
%ADD12R,1.016000X0.084581*%
%ADD13R,1.186181X0.084581*%
%ADD14R,1.353819X0.084838*%
%ADD15R,1.524000X0.084581*%
%ADD16R,1.694181X0.084581*%
%ADD17R,1.861819X0.084838*%
%ADD18R,2.202181X0.084581*%
%ADD19R,2.369819X0.084581*%
%ADD20R,2.540000X0.084838*%
%ADD21R,2.710181X0.084581*%
%ADD22R,2.877819X0.084581*%
%ADD23R,3.048000X0.084838*%
%ADD24R,3.385819X0.084581*%
%ADD25R,3.556000X0.084581*%
%ADD26R,3.726181X0.084838*%
%ADD27R,3.893819X0.084581*%
%ADD28R,4.064000X0.084581*%
%ADD29R,4.318000X0.084838*%
%ADD30R,4.572000X0.084581*%
%ADD31R,4.742181X0.084581*%
%ADD32R,4.909819X0.084838*%
%ADD33R,5.080000X0.084581*%
%ADD34R,5.250181X0.084581*%
%ADD35R,5.588000X0.084838*%
%ADD36R,5.758181X0.084581*%
%ADD37R,5.925819X0.084581*%
%ADD38R,6.096000X0.084838*%
%ADD39R,6.266181X0.084581*%
%ADD40R,6.433819X0.084581*%
%ADD41R,6.774181X0.084838*%
%ADD42R,6.941819X0.084581*%
%ADD43R,7.112000X0.084581*%
%ADD44R,7.282181X0.084838*%
%ADD45R,7.449819X0.084581*%
%ADD46R,7.620000X0.084581*%
%ADD47R,7.957819X0.084838*%
%ADD48R,8.128000X0.084581*%
%ADD49R,8.298181X0.084581*%
%ADD50R,8.465819X0.084838*%
%ADD51R,8.636000X0.084581*%
%ADD52R,8.806181X0.084581*%
%ADD53R,8.973819X0.084838*%
%ADD54R,9.057638X0.084581*%
%ADD55R,9.144000X0.084581*%
%ADD56R,9.144000X0.084838*%
%ADD57R,9.230363X0.084581*%
%ADD58R,9.057638X0.084838*%
%ADD59R,8.890000X0.084581*%
%ADD60R,8.890000X0.084838*%
%ADD61R,8.722363X0.084581*%
%ADD62R,8.382000X0.084581*%
%ADD63R,1.607819X0.084838*%
%ADD64R,2.623819X0.084581*%
%ADD65R,3.302000X0.084581*%
%ADD66R,3.893819X0.084838*%
%ADD67R,4.401819X0.084581*%
%ADD68R,4.826000X0.084581*%
%ADD69R,5.163819X0.084838*%
%ADD70R,5.588000X0.084581*%
%ADD71R,6.179819X0.084838*%
%ADD72R,6.520181X0.084581*%
%ADD73R,6.774181X0.084581*%
%ADD74R,7.028181X0.084838*%
%ADD75R,7.282181X0.084581*%
%ADD76R,7.536181X0.084581*%
%ADD77R,7.703819X0.084838*%
%ADD78R,7.957819X0.084581*%
%ADD79R,8.382000X0.084838*%
%ADD80R,8.552181X0.084581*%
%ADD81R,8.719819X0.084581*%
%ADD82R,9.060181X0.084581*%
%ADD83R,9.227819X0.084581*%
%ADD84R,9.398000X0.084838*%
%ADD85R,9.568181X0.084581*%
%ADD86R,9.652000X0.084581*%
%ADD87R,9.822181X0.084838*%
%ADD88R,9.989819X0.084581*%
%ADD89R,10.076181X0.084581*%
%ADD90R,10.243819X0.084838*%
%ADD91R,10.330181X0.084581*%
%ADD92R,10.497819X0.084581*%
%ADD93R,10.584181X0.084838*%
%ADD94R,10.668000X0.084581*%
%ADD95R,10.838181X0.084581*%
%ADD96R,10.922000X0.084838*%
%ADD97R,11.005819X0.084581*%
%ADD98R,11.092181X0.084581*%
%ADD99R,11.176000X0.084838*%
%ADD100R,11.346181X0.084581*%
%ADD101R,11.513819X0.084838*%
%ADD102R,11.513819X0.084581*%
%ADD103R,11.600181X0.084581*%
%ADD104R,11.684000X0.084838*%
%ADD105R,11.767819X0.084581*%
%ADD106R,11.854181X0.084581*%
%ADD107R,11.938000X0.084838*%
%ADD108R,12.021819X0.084581*%
%ADD109R,12.108181X0.084838*%
%ADD110R,12.192000X0.084581*%
%ADD111R,12.275819X0.084838*%
%ADD112R,12.275819X0.084581*%
%ADD113R,12.362181X0.084581*%
%ADD114R,12.362181X0.084838*%
%ADD115R,12.446000X0.084581*%
%ADD116R,12.529819X0.084838*%
%ADD117R,12.529819X0.084581*%
%ADD118R,12.616181X0.084838*%
%ADD119R,12.616181X0.084581*%
%ADD120R,12.700000X0.084838*%
%ADD121R,12.700000X0.084581*%
%ADD122R,12.783819X0.084838*%
%ADD123R,12.783819X0.084581*%
%ADD124R,12.192000X0.084838*%
%ADD125R,12.108181X0.084581*%
%ADD126R,12.021819X0.084838*%
%ADD127R,11.938000X0.084581*%
%ADD128R,11.854181X0.084838*%
%ADD129R,11.430000X0.084838*%
%ADD130R,11.259819X0.084581*%
%ADD131R,10.838181X0.084838*%
%ADD132R,10.751819X0.084581*%
%ADD133R,10.497819X0.084838*%
%ADD134R,10.414000X0.084581*%
%ADD135R,10.160000X0.084838*%
%ADD136R,9.906000X0.084581*%
%ADD137R,9.735819X0.084838*%
%ADD138R,9.481819X0.084581*%
%ADD139R,9.314181X0.084838*%
%ADD140R,8.973819X0.084581*%
%ADD141R,8.806181X0.084838*%
%ADD142R,8.465819X0.084581*%
%ADD143R,8.298181X0.084838*%
%ADD144R,8.044181X0.084581*%
%ADD145R,7.790181X0.084581*%
%ADD146R,7.620000X0.084838*%
%ADD147R,7.366000X0.084581*%
%ADD148R,6.858000X0.084838*%
%ADD149R,6.604000X0.084581*%
%ADD150R,6.350000X0.084581*%
%ADD151R,6.012181X0.084838*%
%ADD152R,5.671819X0.084581*%
%ADD153R,5.334000X0.084581*%
%ADD154R,4.996181X0.084838*%
%ADD155R,3.556000X0.084838*%
%ADD156R,2.964181X0.084581*%
%ADD157R,2.115819X0.084581*%
%ADD158C,5.283200*%
%ADD159C,4.648200*%
%ADD160R,1.711200X1.711200*%
%ADD161C,1.711200*%
%ADD162R,2.053200X1.203200*%

G36*
X421135Y34673D02*
X421135Y34673D01*
X421139Y34672D01*
X432077Y35245D01*
X432083Y35248D01*
X432090Y35247D01*
X442909Y36960D01*
X442915Y36964D01*
X442922Y36963D01*
X453503Y39798D01*
X453508Y39802D01*
X453515Y39802D01*
X463741Y43727D01*
X463746Y43732D01*
X463754Y43733D01*
X473513Y48706D01*
X473518Y48711D01*
X473525Y48712D01*
X482711Y54678D01*
X482715Y54684D01*
X482722Y54686D01*
X491235Y61579D01*
X491238Y61585D01*
X491244Y61588D01*
X498990Y69334D01*
X498992Y69340D01*
X498999Y69343D01*
X505892Y77856D01*
X505894Y77862D01*
X505900Y77867D01*
X511866Y87053D01*
X511867Y87060D01*
X511872Y87065D01*
X516845Y96825D01*
X516846Y96831D01*
X516851Y96837D01*
X520776Y107063D01*
X520776Y107069D01*
X520780Y107075D01*
X523615Y117656D01*
X523614Y117662D01*
X523618Y117669D01*
X525331Y128488D01*
X525330Y128494D01*
X525333Y128501D01*
X525906Y139439D01*
X525905Y139443D01*
X525906Y139446D01*
X525906Y297688D01*
X525905Y297691D01*
X525906Y297695D01*
X525327Y308740D01*
X525324Y308746D01*
X525326Y308753D01*
X523596Y319677D01*
X523592Y319682D01*
X523593Y319689D01*
X520730Y330373D01*
X520726Y330378D01*
X520726Y330385D01*
X516763Y340711D01*
X516758Y340715D01*
X516757Y340723D01*
X511736Y350577D01*
X511731Y350582D01*
X511730Y350589D01*
X505706Y359865D01*
X505700Y359868D01*
X505698Y359875D01*
X498738Y368470D01*
X498732Y368474D01*
X498729Y368480D01*
X490908Y376301D01*
X490902Y376303D01*
X490898Y376310D01*
X482303Y383270D01*
X482297Y383272D01*
X482293Y383278D01*
X473017Y389302D01*
X473010Y389303D01*
X473005Y389308D01*
X463151Y394329D01*
X463144Y394330D01*
X463139Y394335D01*
X452813Y398298D01*
X452807Y398298D01*
X452801Y398302D01*
X442117Y401165D01*
X442111Y401164D01*
X442105Y401168D01*
X431181Y402898D01*
X431174Y402896D01*
X431168Y402899D01*
X420123Y403478D01*
X420119Y403477D01*
X420116Y403478D01*
X338836Y403478D01*
X338825Y403473D01*
X338811Y403476D01*
X338714Y403456D01*
X338695Y403444D01*
X338669Y403438D01*
X338586Y403383D01*
X338574Y403363D01*
X338551Y403348D01*
X338496Y403265D01*
X338492Y403243D01*
X338480Y403224D01*
X335026Y403224D01*
X335023Y403223D01*
X335019Y403224D01*
X324160Y402655D01*
X324154Y402652D01*
X324147Y402654D01*
X313407Y400953D01*
X313401Y400949D01*
X313394Y400950D01*
X302891Y398135D01*
X302886Y398131D01*
X302878Y398131D01*
X292727Y394234D01*
X292722Y394230D01*
X292714Y394229D01*
X283026Y389292D01*
X283021Y389287D01*
X283014Y389286D01*
X273895Y383363D01*
X273891Y383358D01*
X273884Y383356D01*
X265433Y376512D01*
X265430Y376507D01*
X265423Y376504D01*
X257734Y368815D01*
X257732Y368808D01*
X257726Y368805D01*
X250882Y360354D01*
X250881Y360348D01*
X250875Y360343D01*
X244952Y351224D01*
X244951Y351217D01*
X244946Y351212D01*
X240009Y341524D01*
X240008Y341517D01*
X240004Y341512D01*
X236107Y331360D01*
X236107Y331353D01*
X236103Y331347D01*
X233288Y320844D01*
X233289Y320837D01*
X233285Y320831D01*
X231584Y310091D01*
X231586Y310084D01*
X231583Y310078D01*
X231014Y299219D01*
X231015Y299215D01*
X231014Y299212D01*
X231014Y140716D01*
X231015Y140713D01*
X231014Y140709D01*
X231594Y129638D01*
X231597Y129632D01*
X231596Y129625D01*
X233330Y118675D01*
X233333Y118669D01*
X233333Y118662D01*
X236202Y107953D01*
X236206Y107948D01*
X236206Y107940D01*
X240179Y97590D01*
X240184Y97585D01*
X240185Y97578D01*
X245218Y87700D01*
X245223Y87695D01*
X245224Y87688D01*
X251263Y78390D01*
X251268Y78387D01*
X251270Y78380D01*
X258247Y69764D01*
X258253Y69760D01*
X258256Y69754D01*
X266096Y61914D01*
X266102Y61912D01*
X266106Y61905D01*
X274722Y54928D01*
X274728Y54927D01*
X274732Y54921D01*
X284030Y48882D01*
X284037Y48881D01*
X284042Y48876D01*
X293920Y43843D01*
X293927Y43842D01*
X293932Y43837D01*
X304282Y39864D01*
X304289Y39864D01*
X304295Y39860D01*
X315004Y36991D01*
X315010Y36992D01*
X315017Y36988D01*
X325967Y35254D01*
X325973Y35255D01*
X325980Y35252D01*
X337051Y34672D01*
X337055Y34673D01*
X337058Y34672D01*
X421132Y34672D01*
X421135Y34673D01*
G37*
D10*
X379307Y742526D03*
D11*
X379726Y743373D03*
D12*
X379738Y744221D03*
D13*
X379726Y745066D03*
D14*
X379726Y745913D03*
D15*
X379738Y746761D03*
D16*
X379726Y747606D03*
D17*
X379726Y748453D03*
D18*
X379726Y749301D03*
D19*
X379726Y750146D03*
D20*
X379738Y750993D03*
D21*
X379726Y751841D03*
D22*
X379726Y752686D03*
D23*
X379738Y753533D03*
D24*
X379726Y754381D03*
D25*
X379738Y755226D03*
D26*
X379726Y756073D03*
D27*
X379726Y756921D03*
D28*
X379738Y757766D03*
D29*
X379307Y758613D03*
D30*
X379738Y759461D03*
D31*
X379726Y760306D03*
D32*
X379726Y761153D03*
D33*
X379738Y762001D03*
D34*
X379726Y762846D03*
D35*
X379738Y763693D03*
D36*
X379726Y764541D03*
D37*
X379726Y765386D03*
D38*
X379738Y766233D03*
D39*
X379726Y767081D03*
D40*
X379726Y767926D03*
D41*
X379726Y768773D03*
D42*
X379726Y769621D03*
D43*
X379738Y770466D03*
D44*
X379726Y771313D03*
D45*
X379726Y772161D03*
D46*
X379738Y773006D03*
D47*
X379726Y773853D03*
D48*
X379738Y774701D03*
D49*
X379726Y775546D03*
D50*
X379726Y776393D03*
D51*
X379738Y777241D03*
D52*
X379726Y778086D03*
D53*
X379726Y778933D03*
D54*
X379307Y779781D03*
D55*
X379738Y780626D03*
D56*
X379738Y781473D03*
D57*
X379307Y782321D03*
X379307Y783166D03*
D58*
X379307Y784013D03*
D54*
X379307Y784861D03*
D59*
X379307Y785706D03*
D60*
X379307Y786553D03*
D61*
X379307Y787401D03*
D62*
X379307Y788246D03*
D63*
X380157Y428413D03*
D64*
X380157Y429261D03*
D65*
X380145Y430106D03*
D66*
X379726Y430953D03*
D67*
X379726Y431801D03*
D68*
X380145Y432646D03*
D69*
X380157Y433493D03*
D70*
X379738Y434341D03*
D37*
X379726Y435186D03*
D71*
X380157Y436033D03*
D72*
X380157Y436881D03*
D73*
X379726Y437726D03*
D74*
X380157Y438573D03*
D75*
X379726Y439421D03*
D76*
X380157Y440266D03*
D77*
X380157Y441113D03*
D78*
X379726Y441961D03*
D48*
X379738Y442806D03*
D79*
X380145Y443653D03*
D80*
X380157Y444501D03*
D81*
X380157Y445346D03*
D60*
X380145Y446193D03*
D82*
X380157Y447041D03*
D83*
X380157Y447886D03*
D84*
X380145Y448733D03*
D85*
X380157Y449581D03*
D86*
X379738Y450426D03*
D87*
X379726Y451273D03*
D88*
X379726Y452121D03*
D89*
X380157Y452966D03*
D90*
X380157Y453813D03*
D91*
X379726Y454661D03*
D92*
X379726Y455506D03*
D93*
X380157Y456353D03*
D94*
X379738Y457201D03*
D95*
X379726Y458046D03*
D96*
X380145Y458893D03*
D97*
X379726Y459741D03*
D98*
X380157Y460586D03*
D99*
X379738Y461433D03*
D100*
X379726Y462281D03*
X379726Y463126D03*
D101*
X379726Y463973D03*
D102*
X379726Y464821D03*
D103*
X380157Y465666D03*
D104*
X379738Y466513D03*
D105*
X380157Y467361D03*
D106*
X379726Y468206D03*
D107*
X380145Y469053D03*
D108*
X379726Y469901D03*
X379726Y470746D03*
D109*
X380157Y471593D03*
D110*
X379738Y472441D03*
X379738Y473286D03*
D111*
X380157Y474133D03*
D112*
X380157Y474981D03*
D113*
X379726Y475826D03*
D114*
X379726Y476673D03*
D115*
X380145Y477521D03*
X380145Y478366D03*
D116*
X379726Y479213D03*
D117*
X379726Y480061D03*
X379726Y480906D03*
D118*
X380157Y481753D03*
D119*
X380157Y482601D03*
X380157Y483446D03*
D120*
X379738Y484293D03*
D121*
X379738Y485141D03*
X379738Y485986D03*
D120*
X379738Y486833D03*
D121*
X379738Y487681D03*
X379738Y488526D03*
D122*
X380157Y489373D03*
D123*
X380157Y490221D03*
X380157Y491066D03*
D122*
X380157Y491913D03*
D123*
X380157Y492761D03*
X380157Y493606D03*
D120*
X379738Y494453D03*
D121*
X379738Y495301D03*
X379738Y496146D03*
D120*
X379738Y496993D03*
D121*
X379738Y497841D03*
X379738Y498686D03*
D120*
X379738Y499533D03*
D119*
X380157Y500381D03*
X380157Y501226D03*
D118*
X380157Y502073D03*
D117*
X379726Y502921D03*
X379726Y503766D03*
D116*
X379726Y504613D03*
D115*
X380145Y505461D03*
D113*
X379726Y506306D03*
D114*
X379726Y507153D03*
D113*
X379726Y508001D03*
D112*
X380157Y508846D03*
D124*
X379738Y509693D03*
D110*
X379738Y510541D03*
D125*
X380157Y511386D03*
D126*
X379726Y512233D03*
D108*
X379726Y513081D03*
D127*
X380145Y513926D03*
D128*
X379726Y514773D03*
D106*
X379726Y515621D03*
D105*
X380157Y516466D03*
D104*
X379738Y517313D03*
D103*
X380157Y518161D03*
D102*
X379726Y519006D03*
D129*
X380145Y519853D03*
D100*
X379726Y520701D03*
D130*
X380157Y521546D03*
D99*
X379738Y522393D03*
D98*
X380157Y523241D03*
D97*
X379726Y524086D03*
D131*
X379726Y524933D03*
D132*
X380157Y525781D03*
D94*
X379738Y526626D03*
D133*
X379726Y527473D03*
D134*
X380145Y528321D03*
D91*
X379726Y529166D03*
D135*
X379738Y530013D03*
D88*
X379726Y530861D03*
D136*
X380145Y531706D03*
D137*
X380157Y532553D03*
D86*
X379738Y533401D03*
D138*
X379726Y534246D03*
D139*
X379726Y535093D03*
D55*
X379738Y535941D03*
D140*
X379726Y536786D03*
D141*
X379726Y537633D03*
D51*
X379738Y538481D03*
D142*
X379726Y539326D03*
D143*
X379726Y540173D03*
D144*
X380157Y541021D03*
D145*
X379726Y541866D03*
D146*
X379738Y542713D03*
D147*
X380145Y543561D03*
D43*
X379738Y544406D03*
D148*
X380145Y545253D03*
D149*
X379738Y546101D03*
D150*
X380145Y546946D03*
D151*
X380157Y547793D03*
D152*
X380157Y548641D03*
D153*
X380145Y549486D03*
D154*
X380157Y550333D03*
D30*
X379738Y551181D03*
D28*
X379738Y552026D03*
D155*
X379738Y552873D03*
D156*
X380157Y553721D03*
D157*
X380157Y554566D03*
D11*
X379726Y555413D03*
D158*
X136398Y1195832D03*
D159*
X623570Y1198880D03*
D160*
X116832Y976400D03*
D161*
X116832Y951000D03*
X116832Y925600D03*
X116832Y900200D03*
X116832Y874800D03*
X116832Y849400D03*
X116832Y824000D03*
X116832Y798600D03*
X116832Y773200D03*
X269232Y773200D03*
X269232Y798600D03*
X269232Y824000D03*
X269232Y849400D03*
X269232Y874800D03*
X269232Y900200D03*
X269232Y925600D03*
X269232Y951000D03*
X269232Y976400D03*
D160*
X488348Y975990D03*
D161*
X488348Y950590D03*
X488348Y925190D03*
X488348Y899790D03*
X488348Y874390D03*
X488348Y848990D03*
X488348Y823590D03*
X488348Y798190D03*
X488348Y772790D03*
X640748Y772790D03*
X640748Y798190D03*
X640748Y823590D03*
X640748Y848990D03*
X640748Y874390D03*
X640748Y899790D03*
X640748Y925190D03*
X640748Y950590D03*
X640748Y975990D03*
D162*
G36*
X377027Y193605D02*
X391545Y179087D01*
X383037Y170579D01*
X368519Y185097D01*
X377027Y193605D01*
G37*
G36*
X394987Y211565D02*
X409505Y197047D01*
X400997Y188539D01*
X386479Y203057D01*
X394987Y211565D01*
G37*
G36*
X337075Y233556D02*
X351593Y219038D01*
X343085Y210530D01*
X328567Y225048D01*
X337075Y233556D01*
G37*
G36*
X355036Y251517D02*
X369554Y236999D01*
X361046Y228491D01*
X346528Y243009D01*
X355036Y251517D01*
G37*
M02*
