<svg id="Layer_1" data-name="Layer 1" xmlns="http://www.w3.org/2000/svg" viewBox="0 0 248.14 314.32"><defs><style>.cls-1{fill:#efefef;}.cls-2{fill:#f16b6c;}.cls-3{fill:#fff;}.cls-4{fill:none;stroke:#f16b6c;stroke-linecap:round;stroke-miterlimit:10;stroke-width:4.55px;}.cls-5{fill:#fc0;}</style></defs><title>meow_v4-noai</title><g id="Layer_2" data-name="Layer 2"><path class="cls-1" d="M150.5,153.1H92.8a54.73,54.73,0,0,0-54.6,51.3l-4.7,75.7a54.76,54.76,0,0,0,54.6,58.1h67a54.76,54.76,0,0,0,54.6-58.1L205,204.4A54.57,54.57,0,0,0,150.5,153.1Z" transform="translate(-27.86 -24.68)"/><circle class="cls-2" cx="93.74" cy="124.02" r="75.6"/><circle class="cls-1" cx="93.74" cy="124.02" r="58.4"/><path class="cls-3" d="M209.7,105.7,194.4,33a10.48,10.48,0,0,0-17.6-5.3L140.9,62.9Z" transform="translate(-27.86 -24.68)"/><path class="cls-3" d="M33.7,105.7,49.1,33a10.48,10.48,0,0,1,17.6-5.3l35.9,35.2Z" transform="translate(-27.86 -24.68)"/><path class="cls-2" d="M43.4,94.3l11-52.2A7.49,7.49,0,0,1,67,38.3L92.8,63.6Z" transform="translate(-27.86 -24.68)"/><path class="cls-2" d="M200.1,94.3l-11-52.2a7.49,7.49,0,0,0-12.6-3.8L150.7,63.6Z" transform="translate(-27.86 -24.68)"/><path class="cls-3" d="M166.5,194.5H76.8a49,49,0,0,1-48.3-56.7L34,104A48.89,48.89,0,0,1,82.3,62.9H161A49,49,0,0,1,209.3,104l5.5,33.8A49,49,0,0,1,166.5,194.5Z" transform="translate(-27.86 -24.68)"/><path class="cls-3" d="M75.6,145.7a23.22,23.22,0,1,1,16.2-6.8,22.2,22.2,0,0,1-16.2,6.8Z" transform="translate(-27.86 -24.68)"/><path class="cls-2" d="M75.6,100.5a22.1,22.1,0,1,1-22.1,22.1,22.11,22.11,0,0,1,22.1-22.1m0-2v0h0a24.1,24.1,0,1,0,24.1,24.1A24.11,24.11,0,0,0,75.6,98.5Z" transform="translate(-27.86 -24.68)"/><circle class="cls-2" cx="47.74" cy="97.92" r="18.4"/><path class="cls-3" d="M167.6,145.7a23.2,23.2,0,1,1,23.1-23.3,23,23,0,0,1-23.1,23.3Z" transform="translate(-27.86 -24.68)"/><path class="cls-2" d="M167.6,100.5a22.1,22.1,0,1,1-22.1,22.1,22.11,22.11,0,0,1,22.1-22.1m0-2v0h0a24.1,24.1,0,1,0,24.1,24.1,24.11,24.11,0,0,0-24.1-24.1Z" transform="translate(-27.86 -24.68)"/><circle class="cls-2" cx="139.74" cy="97.92" r="18.4"/><line class="cls-4" x1="38.44" y1="143.12" x2="26.84" y2="143.12"/><line class="cls-4" x1="38.44" y1="134.42" x2="26.84" y2="134.42"/><line class="cls-4" x1="38.44" y1="125.72" x2="26.84" y2="125.72"/><line class="cls-4" x1="163.94" y1="143.12" x2="152.34" y2="143.12"/><line class="cls-4" x1="163.94" y1="134.42" x2="152.34" y2="134.42"/><line class="cls-4" x1="163.94" y1="125.62" x2="152.34" y2="125.62"/><path class="cls-4" d="M121.6,151.4a17.2,17.2,0,0,1-34.4,0" transform="translate(-27.86 -24.68)"/><path class="cls-4" d="M156.1,151.4a17.2,17.2,0,0,1-34.4,0" transform="translate(-27.86 -24.68)"/><path class="cls-5" d="M112,143.3h19.3a1.82,1.82,0,0,1,1.2,3.2l-9.6,8.2a1.69,1.69,0,0,1-2.3,0l-9.6-8.2A1.74,1.74,0,0,1,112,143.3Z" transform="translate(-27.86 -24.68)"/><path class="cls-2" d="M121.8,96.2h0A29.92,29.92,0,0,1,91.9,66.3V62.8h59.8v3.5A29.92,29.92,0,0,1,121.8,96.2Z" transform="translate(-27.86 -24.68)"/><circle class="cls-5" cx="93.94" cy="192.32" r="15.9"/><path class="cls-2" d="M130.5,339H112.7a30.92,30.92,0,0,1-30.9-30.9V269.8a30.92,30.92,0,0,1,30.9-30.9h17.8a30.92,30.92,0,0,1,30.9,30.9v38.3A30.79,30.79,0,0,1,130.5,339Z" transform="translate(-27.86 -24.68)"/><path class="cls-5" d="M129.8,330.1H113.6a28.17,28.17,0,0,1-28.2-28.2V267a28.17,28.17,0,0,1,28.2-28.2h16.2A28.17,28.17,0,0,1,158,267v34.9A28.3,28.3,0,0,1,129.8,330.1Z" transform="translate(-27.86 -24.68)"/><path class="cls-3" d="M88.5,338.2H45.7a10.76,10.76,0,0,1-10.8-10.8h0a27,27,0,0,1,27-27H72.2a27,27,0,0,1,27,27h0A10.61,10.61,0,0,1,88.5,338.2Z" transform="translate(-27.86 -24.68)"/><path class="cls-3" d="M197.6,338.2H154.8A10.76,10.76,0,0,1,144,327.4h0a27,27,0,0,1,27-27h10.3a27,27,0,0,1,27,27h0A10.67,10.67,0,0,1,197.6,338.2Z" transform="translate(-27.86 -24.68)"/><circle class="cls-3" cx="103.81" cy="272.12" r="12.3" transform="translate(-189.88 128.42) rotate(-45)"/><circle class="cls-3" cx="84.88" cy="279.7" r="12.3" transform="translate(-200.78 117.26) rotate(-45)"/><circle class="cls-3" cx="111.43" cy="253.22" r="12.3" transform="translate(-174.28 128.28) rotate(-45)"/><path class="cls-3" d="M68.6,271.1,46.9,249.4a24.2,24.2,0,0,1,0-34.3h0a24.2,24.2,0,0,1,34.3,0l21.7,21.7a24.2,24.2,0,0,1,0,34.3h0A24.2,24.2,0,0,1,68.6,271.1Z" transform="translate(-27.86 -24.68)"/><path class="cls-3" d="M276,134.1h0a27.12,27.12,0,0,1-27.1,27.1h0a27.12,27.12,0,0,1-27.1-27.1h0A27.12,27.12,0,0,1,248.9,107h0A27.12,27.12,0,0,1,276,134.1Z" transform="translate(-27.86 -24.68)"/><line class="cls-4" x1="54.44" y1="301.02" x2="54.44" y2="308.62"/><line class="cls-4" x1="39.44" y1="301.02" x2="39.44" y2="308.62"/><line class="cls-4" x1="24.44" y1="301.02" x2="24.44" y2="308.62"/><line class="cls-4" x1="164.44" y1="301.02" x2="164.44" y2="308.62"/><line class="cls-4" x1="149.44" y1="301.02" x2="149.44" y2="308.62"/><line class="cls-4" x1="134.44" y1="301.02" x2="134.44" y2="308.62"/><path class="cls-3" d="M269.3,148.1a212.89,212.89,0,0,1,.4,26.6,127.54,127.54,0,0,1-4.6,28.8A92,92,0,0,1,259,219a65.08,65.08,0,0,1-11.1,15.6,58.19,58.19,0,0,1-17.4,12.5,67.31,67.31,0,0,1-20.3,5.7l-3.6-55.6a20.16,20.16,0,0,0,2.9.3,4.32,4.32,0,0,0,2.5-.6,12.26,12.26,0,0,0,3.6-3.2,38.49,38.49,0,0,0,3.9-6.3,81,81,0,0,0,5.8-18,171.76,171.76,0,0,0,3-21.2h41Z" transform="translate(-27.86 -24.68)"/><ellipse class="cls-2" cx="221.04" cy="117.22" rx="15.1" ry="11.5"/><path class="cls-2" d="M242.7,127h0a4.48,4.48,0,0,1-4.5-4.5v-4.7a4.48,4.48,0,0,1,4.5-4.5h0a4.48,4.48,0,0,1,4.5,4.5v4.7A4.48,4.48,0,0,1,242.7,127Z" transform="translate(-27.86 -24.68)"/><path class="cls-2" d="M231.3,135h0a4.48,4.48,0,0,1-4.5-4.5v-4.7a4.48,4.48,0,0,1,4.5-4.5h0a4.48,4.48,0,0,1,4.5,4.5v4.7A4.48,4.48,0,0,1,231.3,135Z" transform="translate(-27.86 -24.68)"/><path class="cls-2" d="M266.7,135h0a4.48,4.48,0,0,1-4.5-4.5v-4.7a4.48,4.48,0,0,1,4.5-4.5h0a4.48,4.48,0,0,1,4.5,4.5v4.7A4.48,4.48,0,0,1,266.7,135Z" transform="translate(-27.86 -24.68)"/><path class="cls-2" d="M255.3,127h0a4.48,4.48,0,0,1-4.5-4.5v-4.7a4.48,4.48,0,0,1,4.5-4.5h0a4.48,4.48,0,0,1,4.5,4.5v4.7A4.55,4.55,0,0,1,255.3,127Z" transform="translate(-27.86 -24.68)"/></g></svg>