  0
SECTION
  2
HEADER
  9
$ACADVER
  1
AC1014
  9
$HANDSEED
  5
FFFF
  9
$MEASUREMENT
 70
     1
  0
ENDSEC
  0
SECTION
  2
TABLES
  0
TABLE
  2
VPORT
  5
8
330
0
100
AcDbSymbolTable
 70
     4
  0
VPORT
  5
2E
330
8
100
AcDbSymbolTableRecord
100
AcDbViewportTableRecord
  2
*ACTIVE
 70
     0
 10
0.0
 20
0.0
 11
1.0
 21
1.0
 12
210.0
 22
148.5
 13
0.0
 23
0.0
 14
10.0
 24
10.0
 15
10.0
 25
10.0
 16
0.0
 26
0.0
 36
1.0
 17
0.0
 27
0.0
 37
0.0
 40
341.0
 41
1.24
 42
50.0
 43
0.0
 44
0.0
 50
0.0
 51
0.0
 71
     0
 72
   100
 73
     1
 74
     3
 75
     0
 76
     0
 77
     0
 78
     0
  0
ENDTAB
  0
TABLE
  2
LTYPE
  5
5
330
0
100
AcDbSymbolTable
 70
     1
  0
LTYPE
  5
14
330
5
100
AcDbSymbolTableRecord
100
AcDbLinetypeTableRecord
  2
BYBLOCK
 70
     0
  3

 72
    65
 73
     0
 40
0.0
  0
LTYPE
  5
15
330
5
100
AcDbSymbolTableRecord
100
AcDbLinetypeTableRecord
  2
BYLAYER
 70
     0
  3

 72
    65
 73
     0
 40
0.0
  0
LTYPE
  5
16
330
5
100
AcDbSymbolTableRecord
100
AcDbLinetypeTableRecord
  2
CONTINUOUS
 70
     0
  3
Solid line
 72
    65
 73
     0
 40
0.0
  0
ENDTAB
  0
TABLE
  2
LAYER
  5
2
100
AcDbSymbolTable
 70
3
  0
LAYER
  5
50
100
AcDbSymbolTableRecord
100
AcDbLayerTableRecord
  2
0
 70
0
  6
CONTINUOUS
  0
LAYER
  5
51
100
AcDbSymbolTableRecord
100
AcDbLayerTableRecord
  2
Back
 70
0
  6
CONTINUOUS
  0
LAYER
  5
52
100
AcDbSymbolTableRecord
100
AcDbLayerTableRecord
  2
Front
 70
0
  6
CONTINUOUS
  0
ENDTAB
  0
TABLE
  2
STYLE
  5
3
330
0
100
AcDbSymbolTable
 70
     1
  0
STYLE
  5
11
330
3
100
AcDbSymbolTableRecord
100
AcDbTextStyleTableRecord
  2
STANDARD
 70
     0
 40
0.0
 41
1.0
 50
0.0
 71
     0
 42
2.5
  3
txt
  4

  0
ENDTAB
  0
TABLE
  2
VIEW
  5
6
330
0
100
AcDbSymbolTable
 70
     0
  0
ENDTAB
  0
TABLE
  2
UCS
  5
7
330
0
100
AcDbSymbolTable
 70
     0
  0
ENDTAB
  0
TABLE
  2
APPID
  5
9
330
0
100
AcDbSymbolTable
 70
     2
  0
APPID
  5
12
330
9
100
AcDbSymbolTableRecord
100
AcDbRegAppTableRecord
  2
ACAD
 70
     0
  0
ENDTAB
  0
TABLE
  2
DIMSTYLE
  5
A
330
0
100
AcDbSymbolTable
 70
     1
  0
DIMSTYLE
105
27
330
A
100
AcDbSymbolTableRecord
100
AcDbDimStyleTableRecord
  2
ISO-25
 70
     0
  3

  4

  5

  6

  7

 40
1.0
 41
2.5
 42
0.625
 43
3.75
 44
1.25
 45
0.0
 46
0.0
 47
0.0
 48
0.0
140
2.5
141
2.5
142
0.0
143
0.03937007874016
144
1.0
145
0.0
146
1.0
147
0.625
 71
     0
 72
     0
 73
     0
 74
     0
 75
     0
 76
     0
 77
     1
 78
     8
170
     0
171
     3
172
     1
173
     0
174
     0
175
     0
176
     0
177
     0
178
     0
270
     2
271
     2
272
     2
273
     2
274
     3
340
11
275
     0
280
     0
281
     0
282
     0
283
     0
284
     8
285
     0
286
     0
287
     3
288
     0
  0
ENDTAB
  0
TABLE
  2
BLOCK_RECORD
  5
1
330
0
100
AcDbSymbolTable
 70
     1
  0
BLOCK_RECORD
  5
1F
330
1
100
AcDbSymbolTableRecord
100
AcDbBlockTableRecord
  2
*MODEL_SPACE
  0
BLOCK_RECORD
  5
1B
330
1
100
AcDbSymbolTableRecord
100
AcDbBlockTableRecord
  2
*PAPER_SPACE
  0
ENDTAB
  0
ENDSEC
  0
SECTION
  2
BLOCKS
  0
BLOCK
  5
20
330
1F
100
AcDbEntity
  8
0
100
AcDbBlockBegin
  2
*MODEL_SPACE
 70
     0
 10
0.0
 20
0.0
 30
0.0
  3
*MODEL_SPACE
  1

  0
ENDBLK
  5
21
330
1F
100
AcDbEntity
  8
0
100
AcDbBlockEnd
  0
BLOCK
  5
1C
330
1B
100
AcDbEntity
 67
     1
  8
0
100
AcDbBlockBegin
  2
*PAPER_SPACE
  1

  0
ENDBLK
  5
1D
330
1B
100
AcDbEntity
 67
     1
  8
0
100
AcDbBlockEnd
  0
ENDSEC
  0
SECTION
  2
ENTITIES
  0
LWPOLYLINE
  5
100
100
AcDbEntity
  8
Back
 62
7
100
AcDbPolyline
 90
5
 70
1
 10
0.037594
 20
72.481596
 30
0.0
 10
60.638486
 20
72.481596
 30
0.0
 10
60.638486
 20
0.037593
 30
0.0
 10
0.037594
 20
0.037593
 30
0.0
 10
0.037594
 20
72.481596
 30
0.0
  0
SPLINE
  5
101
100
AcDbEntity
  8
Front
 62
7
100
AcDbSpline
 70
8
 71
3
 72
8
 73
4
 74
0
 40
0
 40
0
 40
0
 40
0
 40
1
 40
1
 40
1
 40
1
 10
20.821133
 20
37.481889
 30
0.0
 10
15.099344
 20
37.481889
 30
0.0
 10
10.367484
 20
33.027209
 30
0.0
 10
10.011110
 20
27.325219
 30
0.0
  0
LWPOLYLINE
  5
102
100
AcDbEntity
  8
Front
 62
7
100
AcDbPolyline
 90
2
 70
1
 10
32.244912
 20
37.481889
 30
0.0
 10
20.821133
 20
37.481889
 30
0.0
  0
SPLINE
  5
103
100
AcDbEntity
  8
Front
 62
7
100
AcDbSpline
 70
8
 71
3
 72
8
 73
4
 74
0
 40
0
 40
0
 40
0
 40
0
 40
1
 40
1
 40
1
 40
1
 10
9.080576
 20
12.337695
 30
0.0
 10
8.704403
 20
6.101143
 30
0.0
 10
13.654048
 20
0.834721
 30
0.0
 10
19.890600
 20
0.834721
 30
0.0
  0
LWPOLYLINE
  5
104
100
AcDbEntity
  8
Front
 62
7
100
AcDbPolyline
 90
2
 70
1
 10
10.011110
 20
27.325219
 30
0.0
 10
9.080576
 20
12.337695
 30
0.0
  0
SPLINE
  5
105
100
AcDbEntity
  8
Front
 62
7
100
AcDbSpline
 70
8
 71
3
 72
8
 73
4
 74
0
 40
0
 40
0
 40
0
 40
0
 40
1
 40
1
 40
1
 40
1
 10
33.155647
 20
0.834721
 30
0.0
 10
39.392199
 20
0.834721
 30
0.0
 10
44.341843
 20
6.101143
 30
0.0
 10
43.965670
 20
12.337695
 30
0.0
  0
LWPOLYLINE
  5
106
100
AcDbEntity
  8
Front
 62
7
100
AcDbPolyline
 90
2
 70
1
 10
19.890600
 20
0.834721
 30
0.0
 10
33.155647
 20
0.834721
 30
0.0
  0
SPLINE
  5
107
100
AcDbEntity
  8
Front
 62
7
100
AcDbSpline
 70
8
 71
3
 72
8
 73
4
 74
0
 40
0
 40
0
 40
0
 40
0
 40
1
 40
1
 40
1
 40
1
 10
43.035137
 20
27.325219
 30
0.0
 10
42.698561
 20
33.027209
 30
0.0
 10
37.966701
 20
37.481889
 30
0.0
 10
32.244912
 20
37.481889
 30
0.0
  0
LWPOLYLINE
  5
108
100
AcDbEntity
  8
Front
 62
7
100
AcDbPolyline
 90
2
 70
1
 10
43.965670
 20
12.337695
 30
0.0
 10
43.035137
 20
27.325219
 30
0.0
  0
LWPOLYLINE
  5
109
100
AcDbEntity
  8
Front
 62
7
100
AcDbPolyline
 90
2
 70
1
 10
32.244912
 20
37.481889
 30
0.0
 10
32.244912
 20
37.481889
 30
0.0
  0
SPLINE
  5
10a
100
AcDbEntity
  8
Front
 62
7
100
AcDbSpline
 70
8
 71
3
 72
8
 73
4
 74
0
 40
0
 40
0
 40
0
 40
0
 40
1
 40
1
 40
1
 40
1
 10
40.936488
 20
61.259981
 30
0.0
 10
40.599912
 20
62.863666
 30
0.0
 10
38.620054
 20
63.457623
 30
0.0
 10
37.451938
 20
62.309306
 30
0.0
  0
LWPOLYLINE
  5
10b
100
AcDbEntity
  8
Front
 62
7
100
AcDbPolyline
 90
2
 70
1
 10
43.965670
 20
46.866415
 30
0.0
 10
40.936488
 20
61.259981
 30
0.0
  0
LWPOLYLINE
  5
10c
100
AcDbEntity
  8
Front
 62
7
100
AcDbPolyline
 90
4
 70
1
 10
37.451938
 20
62.309306
 30
0.0
 10
30.344249
 20
55.340206
 30
0.0
 10
43.965670
 20
46.866415
 30
0.0
 10
43.965670
 20
46.866415
 30
0.0
  0
SPLINE
  5
10d
100
AcDbEntity
  8
Front
 62
7
100
AcDbSpline
 70
8
 71
3
 72
8
 73
4
 74
0
 40
0
 40
0
 40
0
 40
0
 40
1
 40
1
 40
1
 40
1
 10
12.169154
 20
61.259981
 30
0.0
 10
12.505730
 20
62.863666
 30
0.0
 10
14.485588
 20
63.457623
 30
0.0
 10
15.653704
 20
62.309306
 30
0.0
  0
LWPOLYLINE
  5
10e
100
AcDbEntity
  8
Front
 62
7
100
AcDbPolyline
 90
2
 70
1
 10
9.120174
 20
46.866415
 30
0.0
 10
12.169154
 20
61.259981
 30
0.0
  0
LWPOLYLINE
  5
10f
100
AcDbEntity
  8
Front
 62
7
100
AcDbPolyline
 90
4
 70
1
 10
15.653704
 20
62.309306
 30
0.0
 10
22.761394
 20
55.340206
 30
0.0
 10
9.120174
 20
46.866415
 30
0.0
 10
9.120174
 20
46.866415
 30
0.0
  0
SPLINE
  5
110
100
AcDbEntity
  8
Front
 62
7
100
AcDbSpline
 70
8
 71
3
 72
8
 73
4
 74
0
 40
0
 40
0
 40
0
 40
0
 40
1
 40
1
 40
1
 40
1
 10
13.218479
 20
59.458310
 30
0.0
 10
13.456062
 20
60.606628
 30
0.0
 10
14.881560
 20
61.042197
 30
0.0
 10
15.713100
 20
60.210656
 30
0.0
  0
LWPOLYLINE
  5
111
100
AcDbEntity
  8
Front
 62
7
100
AcDbPolyline
 90
2
 70
1
 10
11.040636
 20
49.123453
 30
0.0
 10
13.218479
 20
59.458310
 30
0.0
  0
LWPOLYLINE
  5
112
100
AcDbEntity
  8
Front
 62
7
100
AcDbPolyline
 90
4
 70
1
 10
15.713100
 20
60.210656
 30
0.0
 10
20.821133
 20
55.201616
 30
0.0
 10
11.040636
 20
49.123453
 30
0.0
 10
11.040636
 20
49.123453
 30
0.0
  0
SPLINE
  5
113
100
AcDbEntity
  8
Front
 62
7
100
AcDbSpline
 70
8
 71
3
 72
8
 73
4
 74
0
 40
0
 40
0
 40
0
 40
0
 40
1
 40
1
 40
1
 40
1
 10
39.887163
 20
59.458310
 30
0.0
 10
39.649580
 20
60.606628
 30
0.0
 10
38.224083
 20
61.042197
 30
0.0
 10
37.392543
 20
60.210656
 30
0.0
  0
LWPOLYLINE
  5
114
100
AcDbEntity
  8
Front
 62
7
100
AcDbPolyline
 90
2
 70
1
 10
42.065007
 20
49.123453
 30
0.0
 10
39.887163
 20
59.458310
 30
0.0
  0
LWPOLYLINE
  5
115
100
AcDbEntity
  8
Front
 62
7
100
AcDbPolyline
 90
4
 70
1
 10
37.392543
 20
60.210656
 30
0.0
 10
32.284510
 20
55.201616
 30
0.0
 10
42.065007
 20
49.123453
 30
0.0
 10
42.065007
 20
49.123453
 30
0.0
  0
SPLINE
  5
116
100
AcDbEntity
  8
Front
 62
7
100
AcDbSpline
 70
8
 71
3
 72
8
 73
4
 74
0
 40
0
 40
0
 40
0
 40
0
 40
1
 40
1
 40
1
 40
1
 10
17.653361
 20
29.285278
 30
0.0
 10
11.693989
 20
29.285278
 30
0.0
 10
7.140316
 20
34.630894
 30
0.0
 10
8.090647
 20
40.511071
 30
0.0
  0
LWPOLYLINE
  5
117
100
AcDbEntity
  8
Front
 62
7
100
AcDbPolyline
 90
2
 70
1
 10
35.412685
 20
29.285278
 30
0.0
 10
17.653361
 20
29.285278
 30
0.0
  0
SPLINE
  5
118
100
AcDbEntity
  8
Front
 62
7
100
AcDbSpline
 70
8
 71
3
 72
8
 73
4
 74
0
 40
0
 40
0
 40
0
 40
0
 40
1
 40
1
 40
1
 40
1
 10
9.179569
 20
47.202991
 30
0.0
 10
9.931915
 20
51.895254
 30
0.0
 10
13.990624
 20
55.340206
 30
0.0
 10
18.742282
 20
55.340206
 30
0.0
  0
LWPOLYLINE
  5
119
100
AcDbEntity
  8
Front
 62
7
100
AcDbPolyline
 90
2
 70
1
 10
8.090647
 20
40.511071
 30
0.0
 10
9.179569
 20
47.202991
 30
0.0
  0
SPLINE
  5
11a
100
AcDbEntity
  8
Front
 62
7
100
AcDbSpline
 70
8
 71
3
 72
8
 73
4
 74
0
 40
0
 40
0
 40
0
 40
0
 40
1
 40
1
 40
1
 40
1
 10
34.323763
 20
55.340206
 30
0.0
 10
39.075422
 20
55.340206
 30
0.0
 10
43.114332
 20
51.895254
 30
0.0
 10
43.886476
 20
47.202991
 30
0.0
  0
LWPOLYLINE
  5
11b
100
AcDbEntity
  8
Front
 62
7
100
AcDbPolyline
 90
2
 70
1
 10
18.742282
 20
55.340206
 30
0.0
 10
34.323763
 20
55.340206
 30
0.0
  0
SPLINE
  5
11c
100
AcDbEntity
  8
Front
 62
7
100
AcDbSpline
 70
8
 71
3
 72
8
 73
4
 74
0
 40
0
 40
0
 40
0
 40
0
 40
1
 40
1
 40
1
 40
1
 10
44.975398
 20
40.511071
 30
0.0
 10
45.925730
 20
34.630894
 30
0.0
 10
41.372057
 20
29.285278
 30
0.0
 10
35.412685
 20
29.285278
 30
0.0
  0
LWPOLYLINE
  5
11d
100
AcDbEntity
  8
Front
 62
7
100
AcDbPolyline
 90
2
 70
1
 10
43.886476
 20
47.202991
 30
0.0
 10
44.975398
 20
40.511071
 30
0.0
  0
SPLINE
  5
11e
100
AcDbEntity
  8
Front
 62
7
100
AcDbSpline
 70
8
 71
3
 72
8
 73
4
 74
0
 40
0
 40
0
 40
0
 40
0
 40
1
 40
1
 40
1
 40
1
 10
17.415778
 20
38.946984
 30
0.0
 10
16.188266
 20
38.946984
 30
0.0
 10
15.039948
 20
39.422150
 30
0.0
 10
14.168811
 20
40.293287
 30
0.0
  0
SPLINE
  5
11f
100
AcDbEntity
  8
Front
 62
7
100
AcDbSpline
 70
8
 71
3
 72
8
 73
4
 74
0
 40
0
 40
0
 40
0
 40
0
 40
1
 40
1
 40
1
 40
1
 10
14.168811
 20
40.293287
 30
0.0
 10
13.297673
 20
41.164424
 30
0.0
 10
12.822508
 20
42.312742
 30
0.0
 10
12.822508
 20
43.540254
 30
0.0
  0
SPLINE
  5
120
100
AcDbEntity
  8
Front
 62
7
100
AcDbSpline
 70
8
 71
3
 72
8
 73
4
 74
0
 40
0
 40
0
 40
0
 40
0
 40
1
 40
1
 40
1
 40
1
 10
12.822508
 20
43.540254
 30
0.0
 10
12.822508
 20
46.074472
 30
0.0
 10
14.881560
 20
48.113725
 30
0.0
 10
17.395979
 20
48.113725
 30
0.0
  0
SPLINE
  5
121
100
AcDbEntity
  8
Front
 62
7
100
AcDbSpline
 70
8
 71
3
 72
8
 73
4
 74
0
 40
0
 40
0
 40
0
 40
0
 40
1
 40
1
 40
1
 40
1
 10
17.395979
 20
48.113725
 30
0.0
 10
19.930197
 20
48.113725
 30
0.0
 10
21.969451
 20
46.054673
 30
0.0
 10
21.969451
 20
43.540254
 30
0.0
  0
SPLINE
  5
122
100
AcDbEntity
  8
Front
 62
7
100
AcDbSpline
 70
8
 71
3
 72
8
 73
4
 74
0
 40
0
 40
0
 40
0
 40
0
 40
1
 40
1
 40
1
 40
1
 10
21.969451
 20
43.540254
 30
0.0
 10
21.969451
 20
42.312742
 30
0.0
 10
21.494285
 20
41.164424
 30
0.0
 10
20.623147
 20
40.293287
 30
0.0
  0
SPLINE
  5
123
100
AcDbEntity
  8
Front
 62
7
100
AcDbSpline
 70
8
 71
3
 72
8
 73
4
 74
0
 40
0
 40
0
 40
0
 40
0
 40
1
 40
1
 40
1
 40
1
 10
20.623147
 20
40.293287
 30
0.0
 10
19.791607
 20
39.422150
 30
0.0
 10
18.643289
 20
38.946984
 30
0.0
 10
17.415778
 20
38.946984
 30
0.0
  0
LWPOLYLINE
  5
124
100
AcDbEntity
  8
Front
 62
7
100
AcDbPolyline
 90
2
 70
1
 10
35.412685
 20
29.285278
 30
0.0
 10
35.412685
 20
29.285278
 30
0.0
  0
SPLINE
  5
125
100
AcDbEntity
  8
Front
 62
7
100
AcDbSpline
 70
8
 71
3
 72
8
 73
4
 74
0
 40
0
 40
0
 40
0
 40
0
 40
1
 40
1
 40
1
 40
1
 10
17.415778
 20
47.895941
 30
0.0
 10
19.831204
 20
47.895941
 30
0.0
 10
21.791263
 20
45.935882
 30
0.0
 10
21.791263
 20
43.520455
 30
0.0
  0
SPLINE
  5
126
100
AcDbEntity
  8
Front
 62
7
100
AcDbSpline
 70
8
 71
3
 72
8
 73
4
 74
0
 40
0
 40
0
 40
0
 40
0
 40
1
 40
1
 40
1
 40
1
 10
21.791263
 20
43.520455
 30
0.0
 10
21.791263
 20
41.815782
 30
0.0
 10
20.815007
 20
40.337915
 30
0.0
 10
19.391414
 20
39.615776
 30
0.0
  0
SPLINE
  5
127
100
AcDbEntity
  8
Front
 62
7
100
AcDbSpline
 70
8
 71
3
 72
8
 73
4
 74
0
 40
0
 40
0
 40
0
 40
0
 40
1
 40
1
 40
1
 40
1
 10
19.391414
 20
39.615776
 30
0.0
 10
18.797855
 20
39.314685
 30
0.0
 10
18.126531
 20
39.144970
 30
0.0
 10
17.415778
 20
39.144970
 30
0.0
  0
SPLINE
  5
128
100
AcDbEntity
  8
Front
 62
7
100
AcDbSpline
 70
8
 71
3
 72
8
 73
4
 74
0
 40
0
 40
0
 40
0
 40
0
 40
1
 40
1
 40
1
 40
1
 10
17.415778
 20
39.144970
 30
0.0
 10
15.000351
 20
39.144970
 30
0.0
 10
13.040292
 20
41.105029
 30
0.0
 10
13.040292
 20
43.520455
 30
0.0
  0
SPLINE
  5
129
100
AcDbEntity
  8
Front
 62
7
100
AcDbSpline
 70
8
 71
3
 72
8
 73
4
 74
0
 40
0
 40
0
 40
0
 40
0
 40
1
 40
1
 40
1
 40
1
 10
13.040292
 20
43.520455
 30
0.0
 10
13.040292
 20
45.935882
 30
0.0
 10
15.000351
 20
47.895941
 30
0.0
 10
17.415778
 20
47.895941
 30
0.0
  0
LWPOLYLINE
  5
12a
100
AcDbEntity
  8
Front
 62
7
100
AcDbPolyline
 90
3
 70
1
 10
17.415778
 20
38.946984
 30
0.0
 10
17.415778
 20
38.946984
 30
0.0
 10
17.415778
 20
38.946984
 30
0.0
  0
SPLINE
  5
12b
100
AcDbEntity
  8
Front
 62
7
100
AcDbSpline
 70
8
 71
3
 72
8
 73
4
 74
0
 40
0
 40
0
 40
0
 40
0
 40
1
 40
1
 40
1
 40
1
 10
17.415778
 20
48.291912
 30
0.0
 10
14.782567
 20
48.291912
 30
0.0
 10
12.644320
 20
46.153666
 30
0.0
 10
12.644320
 20
43.520455
 30
0.0
  0
SPLINE
  5
12c
100
AcDbEntity
  8
Front
 62
7
100
AcDbSpline
 70
8
 71
3
 72
8
 73
4
 74
0
 40
0
 40
0
 40
0
 40
0
 40
1
 40
1
 40
1
 40
1
 10
12.644320
 20
43.520455
 30
0.0
 10
12.644320
 20
40.887244
 30
0.0
 10
14.782567
 20
38.748998
 30
0.0
 10
17.415778
 20
38.748998
 30
0.0
  0
SPLINE
  5
12d
100
AcDbEntity
  8
Front
 62
7
100
AcDbSpline
 70
8
 71
3
 72
8
 73
4
 74
0
 40
0
 40
0
 40
0
 40
0
 40
1
 40
1
 40
1
 40
1
 10
17.415778
 20
38.748998
 30
0.0
 10
20.048988
 20
38.748998
 30
0.0
 10
22.187235
 20
40.887244
 30
0.0
 10
22.187235
 20
43.520455
 30
0.0
  0
SPLINE
  5
12e
100
AcDbEntity
  8
Front
 62
7
100
AcDbSpline
 70
8
 71
3
 72
8
 73
4
 74
0
 40
0
 40
0
 40
0
 40
0
 40
1
 40
1
 40
1
 40
1
 10
22.187235
 20
43.520455
 30
0.0
 10
22.207033
 20
46.153666
 30
0.0
 10
20.048988
 20
48.291912
 30
0.0
 10
17.415778
 20
48.291912
 30
0.0
  0
SPLINE
  5
12f
100
AcDbEntity
  8
Front
 62
7
100
AcDbSpline
 70
8
 71
3
 72
8
 73
4
 74
0
 40
0
 40
0
 40
0
 40
0
 40
1
 40
1
 40
1
 40
1
 10
35.630469
 20
38.946984
 30
0.0
 10
34.402957
 20
38.946984
 30
0.0
 10
33.254640
 20
39.422150
 30
0.0
 10
32.383502
 20
40.293287
 30
0.0
  0
SPLINE
  5
130
100
AcDbEntity
  8
Front
 62
7
100
AcDbSpline
 70
8
 71
3
 72
8
 73
4
 74
0
 40
0
 40
0
 40
0
 40
0
 40
1
 40
1
 40
1
 40
1
 10
32.383502
 20
40.293287
 30
0.0
 10
31.512365
 20
41.164424
 30
0.0
 10
31.037199
 20
42.312742
 30
0.0
 10
31.037199
 20
43.540254
 30
0.0
  0
SPLINE
  5
131
100
AcDbEntity
  8
Front
 62
7
100
AcDbSpline
 70
8
 71
3
 72
8
 73
4
 74
0
 40
0
 40
0
 40
0
 40
0
 40
1
 40
1
 40
1
 40
1
 10
31.037199
 20
43.540254
 30
0.0
 10
31.037199
 20
44.767766
 30
0.0
 10
31.512365
 20
45.916083
 30
0.0
 10
32.383502
 20
46.787221
 30
0.0
  0
SPLINE
  5
132
100
AcDbEntity
  8
Front
 62
7
100
AcDbSpline
 70
8
 71
3
 72
8
 73
4
 74
0
 40
0
 40
0
 40
0
 40
0
 40
1
 40
1
 40
1
 40
1
 10
32.383502
 20
46.787221
 30
0.0
 10
33.254640
 20
47.658358
 30
0.0
 10
34.402957
 20
48.133524
 30
0.0
 10
35.630469
 20
48.133524
 30
0.0
  0
SPLINE
  5
133
100
AcDbEntity
  8
Front
 62
7
100
AcDbSpline
 70
8
 71
3
 72
8
 73
4
 74
0
 40
0
 40
0
 40
0
 40
0
 40
1
 40
1
 40
1
 40
1
 10
35.630469
 20
48.133524
 30
0.0
 10
38.164687
 20
48.133524
 30
0.0
 10
40.203941
 20
46.074472
 30
0.0
 10
40.203941
 20
43.560052
 30
0.0
  0
SPLINE
  5
134
100
AcDbEntity
  8
Front
 62
7
100
AcDbSpline
 70
8
 71
3
 72
8
 73
4
 74
0
 40
0
 40
0
 40
0
 40
0
 40
1
 40
1
 40
1
 40
1
 10
40.203941
 20
43.560052
 30
0.0
 10
40.223739
 20
41.006036
 30
0.0
 10
38.164687
 20
38.946984
 30
0.0
 10
35.630469
 20
38.946984
 30
0.0
  0
LWPOLYLINE
  5
135
100
AcDbEntity
  8
Front
 62
7
100
AcDbPolyline
 90
5
 70
1
 10
17.415778
 20
48.291912
 30
0.0
 10
17.415778
 20
47.895941
 30
0.0
 10
17.415778
 20
48.291912
 30
0.0
 10
17.415778
 20
48.291912
 30
0.0
 10
17.415778
 20
48.291912
 30
0.0
  0
SPLINE
  5
136
100
AcDbEntity
  8
Front
 62
7
100
AcDbSpline
 70
8
 71
3
 72
8
 73
4
 74
0
 40
0
 40
0
 40
0
 40
0
 40
1
 40
1
 40
1
 40
1
 10
35.630469
 20
47.895941
 30
0.0
 10
38.045896
 20
47.895941
 30
0.0
 10
40.005955
 20
45.935882
 30
0.0
 10
40.005955
 20
43.520455
 30
0.0
  0
SPLINE
  5
137
100
AcDbEntity
  8
Front
 62
7
100
AcDbSpline
 70
8
 71
3
 72
8
 73
4
 74
0
 40
0
 40
0
 40
0
 40
0
 40
1
 40
1
 40
1
 40
1
 10
40.005955
 20
43.520455
 30
0.0
 10
40.005955
 20
41.105029
 30
0.0
 10
38.045896
 20
39.144970
 30
0.0
 10
35.630469
 20
39.144970
 30
0.0
  0
SPLINE
  5
138
100
AcDbEntity
  8
Front
 62
7
100
AcDbSpline
 70
8
 71
3
 72
8
 73
4
 74
0
 40
0
 40
0
 40
0
 40
0
 40
1
 40
1
 40
1
 40
1
 10
35.630469
 20
39.144970
 30
0.0
 10
33.215043
 20
39.144970
 30
0.0
 10
31.254983
 20
41.105029
 30
0.0
 10
31.254983
 20
43.520455
 30
0.0
  0
SPLINE
  5
139
100
AcDbEntity
  8
Front
 62
7
100
AcDbSpline
 70
8
 71
3
 72
8
 73
4
 74
0
 40
0
 40
0
 40
0
 40
0
 40
1
 40
1
 40
1
 40
1
 10
31.254983
 20
43.520455
 30
0.0
 10
31.254983
 20
45.935882
 30
0.0
 10
33.215043
 20
47.895941
 30
0.0
 10
35.630469
 20
47.895941
 30
0.0
  0
LWPOLYLINE
  5
13a
100
AcDbEntity
  8
Front
 62
7
100
AcDbPolyline
 90
3
 70
1
 10
35.630469
 20
38.946984
 30
0.0
 10
35.630469
 20
38.946984
 30
0.0
 10
35.630469
 20
38.946984
 30
0.0
  0
SPLINE
  5
13b
100
AcDbEntity
  8
Front
 62
7
100
AcDbSpline
 70
8
 71
3
 72
8
 73
4
 74
0
 40
0
 40
0
 40
0
 40
0
 40
1
 40
1
 40
1
 40
1
 10
35.630469
 20
48.291912
 30
0.0
 10
32.997258
 20
48.291912
 30
0.0
 10
30.859012
 20
46.153666
 30
0.0
 10
30.859012
 20
43.520455
 30
0.0
  0
SPLINE
  5
13c
100
AcDbEntity
  8
Front
 62
7
100
AcDbSpline
 70
8
 71
3
 72
8
 73
4
 74
0
 40
0
 40
0
 40
0
 40
0
 40
1
 40
1
 40
1
 40
1
 10
30.859012
 20
43.520455
 30
0.0
 10
30.859012
 20
40.887244
 30
0.0
 10
32.997258
 20
38.748998
 30
0.0
 10
35.630469
 20
38.748998
 30
0.0
  0
SPLINE
  5
13d
100
AcDbEntity
  8
Front
 62
7
100
AcDbSpline
 70
8
 71
3
 72
8
 73
4
 74
0
 40
0
 40
0
 40
0
 40
0
 40
1
 40
1
 40
1
 40
1
 10
35.630469
 20
38.748998
 30
0.0
 10
38.263680
 20
38.748998
 30
0.0
 10
40.401926
 20
40.887244
 30
0.0
 10
40.401926
 20
43.520455
 30
0.0
  0
SPLINE
  5
13e
100
AcDbEntity
  8
Front
 62
7
100
AcDbSpline
 70
8
 71
3
 72
8
 73
4
 74
0
 40
0
 40
0
 40
0
 40
0
 40
1
 40
1
 40
1
 40
1
 10
40.401926
 20
43.520455
 30
0.0
 10
40.421725
 20
46.153666
 30
0.0
 10
38.263680
 20
48.291912
 30
0.0
 10
35.630469
 20
48.291912
 30
0.0
  0
SPLINE
  5
13f
100
AcDbEntity
  8
Front
 62
7
100
AcDbSpline
 70
8
 71
3
 72
8
 73
4
 74
0
 40
0
 40
0
 40
0
 40
0
 40
1
 40
1
 40
1
 40
1
 10
26.523123
 20
37.818465
 30
0.0
 10
26.523123
 20
36.750147
 30
0.0
 10
26.031299
 20
35.796800
 30
0.0
 10
25.261699
 20
35.172476
 30
0.0
  0
SPLINE
  5
140
100
AcDbEntity
  8
Front
 62
7
100
AcDbSpline
 70
8
 71
3
 72
8
 73
4
 74
0
 40
0
 40
0
 40
0
 40
0
 40
1
 40
1
 40
1
 40
1
 10
25.261699
 20
35.172476
 30
0.0
 10
24.676352
 20
34.697625
 30
0.0
 10
23.930316
 20
34.413109
 30
0.0
 10
23.117768
 20
34.413109
 30
0.0
  0
SPLINE
  5
141
100
AcDbEntity
  8
Front
 62
7
100
AcDbSpline
 70
8
 71
3
 72
8
 73
4
 74
0
 40
0
 40
0
 40
0
 40
0
 40
1
 40
1
 40
1
 40
1
 10
23.117768
 20
34.413109
 30
0.0
 10
21.236903
 20
34.413109
 30
0.0
 10
19.712413
 20
35.937600
 30
0.0
 10
19.712413
 20
37.818465
 30
0.0
  0
SPLINE
  5
142
100
AcDbEntity
  8
Front
 62
7
100
AcDbSpline
 70
8
 71
3
 72
8
 73
4
 74
0
 40
0
 40
0
 40
0
 40
0
 40
1
 40
1
 40
1
 40
1
 10
33.353633
 20
37.818465
 30
0.0
 10
33.353633
 20
35.937600
 30
0.0
 10
31.829142
 20
34.413109
 30
0.0
 10
29.948277
 20
34.413109
 30
0.0
  0
SPLINE
  5
143
100
AcDbEntity
  8
Front
 62
7
100
AcDbSpline
 70
8
 71
3
 72
8
 73
4
 74
0
 40
0
 40
0
 40
0
 40
0
 40
1
 40
1
 40
1
 40
1
 10
29.948277
 20
34.413109
 30
0.0
 10
29.536257
 20
34.413109
 30
0.0
 10
29.141339
 20
34.486265
 30
0.0
 10
28.775800
 20
34.620298
 30
0.0
  0
SPLINE
  5
144
100
AcDbEntity
  8
Front
 62
7
100
AcDbSpline
 70
8
 71
3
 72
8
 73
4
 74
0
 40
0
 40
0
 40
0
 40
0
 40
1
 40
1
 40
1
 40
1
 10
28.775800
 20
34.620298
 30
0.0
 10
27.472661
 20
35.098116
 30
0.0
 10
26.542922
 20
36.349620
 30
0.0
 10
26.542922
 20
37.818465
 30
0.0
  0
LWPOLYLINE
  5
145
100
AcDbEntity
  8
Front
 62
7
100
AcDbPolyline
 90
6
 70
1
 10
35.630469
 20
48.291912
 30
0.0
 10
35.630469
 20
47.895941
 30
0.0
 10
35.630469
 20
48.291912
 30
0.0
 10
35.630469
 20
48.291912
 30
0.0
 10
35.630469
 20
48.291912
 30
0.0
 10
35.630469
 20
48.291912
 30
0.0
  0
SPLINE
  5
146
100
AcDbEntity
  8
Front
 62
7
100
AcDbSpline
 70
8
 71
3
 72
8
 73
4
 74
0
 40
0
 40
0
 40
0
 40
0
 40
1
 40
1
 40
1
 40
1
 10
26.562721
 20
48.747280
 30
0.0
 10
23.295955
 20
48.747280
 30
0.0
 10
20.642946
 20
51.400289
 30
0.0
 10
20.642946
 20
54.667055
 30
0.0
  0
LWPOLYLINE
  5
147
100
AcDbEntity
  8
Front
 62
7
100
AcDbPolyline
 90
2
 70
1
 10
26.562721
 20
48.747280
 30
0.0
 10
26.562721
 20
48.747280
 30
0.0
  0
SPLINE
  5
148
100
AcDbEntity
  8
Front
 62
7
100
AcDbSpline
 70
8
 71
3
 72
8
 73
4
 74
0
 40
0
 40
0
 40
0
 40
0
 40
1
 40
1
 40
1
 40
1
 10
32.482495
 20
54.667055
 30
0.0
 10
32.482495
 20
51.400289
 30
0.0
 10
29.829486
 20
48.747280
 30
0.0
 10
26.562721
 20
48.747280
 30
0.0
  0
LWPOLYLINE
  5
149
100
AcDbEntity
  8
Front
 62
7
100
AcDbPolyline
 90
4
 70
1
 10
20.642946
 20
54.667055
 30
0.0
 10
20.642946
 20
55.360005
 30
0.0
 10
32.482495
 20
55.360005
 30
0.0
 10
32.482495
 20
54.667055
 30
0.0
  0
LWPOLYLINE
  5
14a
100
AcDbEntity
  8
Front
 62
7
100
AcDbPolyline
 90
2
 70
1
 10
26.562721
 20
48.747280
 30
0.0
 10
26.562721
 20
48.747280
 30
0.0
  0
SPLINE
  5
14b
100
AcDbEntity
  8
Front
 62
7
100
AcDbSpline
 70
8
 71
3
 72
8
 73
4
 74
0
 40
0
 40
0
 40
0
 40
0
 40
1
 40
1
 40
1
 40
1
 10
24.761050
 20
0.676333
 30
0.0
 10
21.375493
 20
0.676333
 30
0.0
 10
18.643289
 20
3.428335
 30
0.0
 10
18.643289
 20
6.794093
 30
0.0
  0
LWPOLYLINE
  5
14c
100
AcDbEntity
  8
Front
 62
7
100
AcDbPolyline
 90
2
 70
1
 10
28.285197
 20
0.676333
 30
0.0
 10
24.761050
 20
0.676333
 30
0.0
  0
SPLINE
  5
14d
100
AcDbEntity
  8
Front
 62
7
100
AcDbSpline
 70
8
 71
3
 72
8
 73
4
 74
0
 40
0
 40
0
 40
0
 40
0
 40
1
 40
1
 40
1
 40
1
 10
18.643289
 20
14.376949
 30
0.0
 10
18.643289
 20
17.762505
 30
0.0
 10
21.395292
 20
20.494709
 30
0.0
 10
24.761050
 20
20.494709
 30
0.0
  0
LWPOLYLINE
  5
14e
100
AcDbEntity
  8
Front
 62
7
100
AcDbPolyline
 90
2
 70
1
 10
18.643289
 20
6.794093
 30
0.0
 10
18.643289
 20
14.376949
 30
0.0
  0
SPLINE
  5
14f
100
AcDbEntity
  8
Front
 62
7
100
AcDbSpline
 70
8
 71
3
 72
8
 73
4
 74
0
 40
0
 40
0
 40
0
 40
0
 40
1
 40
1
 40
1
 40
1
 10
28.285197
 20
20.494709
 30
0.0
 10
31.670754
 20
20.494709
 30
0.0
 10
34.402957
 20
17.742707
 30
0.0
 10
34.402957
 20
14.376949
 30
0.0
  0
LWPOLYLINE
  5
150
100
AcDbEntity
  8
Front
 62
7
100
AcDbPolyline
 90
2
 70
1
 10
24.761050
 20
20.494709
 30
0.0
 10
28.285197
 20
20.494709
 30
0.0
  0
SPLINE
  5
151
100
AcDbEntity
  8
Front
 62
7
100
AcDbSpline
 70
8
 71
3
 72
8
 73
4
 74
0
 40
0
 40
0
 40
0
 40
0
 40
1
 40
1
 40
1
 40
1
 10
34.402957
 20
6.794093
 30
0.0
 10
34.422756
 20
3.408537
 30
0.0
 10
31.670754
 20
0.676333
 30
0.0
 10
28.285197
 20
0.676333
 30
0.0
  0
LWPOLYLINE
  5
152
100
AcDbEntity
  8
Front
 62
7
100
AcDbPolyline
 90
2
 70
1
 10
34.402957
 20
14.376949
 30
0.0
 10
34.402957
 20
6.794093
 30
0.0
  0
LWPOLYLINE
  5
153
100
AcDbEntity
  8
Front
 62
7
100
AcDbPolyline
 90
2
 70
1
 10
28.285197
 20
0.676333
 30
0.0
 10
28.285197
 20
0.676333
 30
0.0
  0
SPLINE
  5
154
100
AcDbEntity
  8
Front
 62
7
100
AcDbSpline
 70
8
 71
3
 72
8
 73
4
 74
0
 40
0
 40
0
 40
0
 40
0
 40
1
 40
1
 40
1
 40
1
 10
11.496003
 20
0.834721
 30
0.0
 10
10.308088
 20
0.834721
 30
0.0
 10
9.357756
 20
1.785053
 30
0.0
 10
9.357756
 20
2.972968
 30
0.0
  0
LWPOLYLINE
  5
155
100
AcDbEntity
  8
Front
 62
7
100
AcDbPolyline
 90
2
 70
1
 10
19.969794
 20
0.834721
 30
0.0
 10
11.496003
 20
0.834721
 30
0.0
  0
SPLINE
  5
156
100
AcDbEntity
  8
Front
 62
7
100
AcDbSpline
 70
8
 71
3
 72
8
 73
4
 74
0
 40
0
 40
0
 40
0
 40
0
 40
1
 40
1
 40
1
 40
1
 10
9.357756
 20
2.972968
 30
0.0
 10
9.357756
 20
5.922956
 30
0.0
 10
11.753384
 20
8.318584
 30
0.0
 10
14.703372
 20
8.318584
 30
0.0
  0
LWPOLYLINE
  5
157
100
AcDbEntity
  8
Front
 62
7
100
AcDbPolyline
 90
2
 70
1
 10
9.357756
 20
2.972968
 30
0.0
 10
9.357756
 20
2.972968
 30
0.0
  0
SPLINE
  5
158
100
AcDbEntity
  8
Front
 62
7
100
AcDbSpline
 70
8
 71
3
 72
8
 73
4
 74
0
 40
0
 40
0
 40
0
 40
0
 40
1
 40
1
 40
1
 40
1
 10
16.742626
 20
8.318584
 30
0.0
 10
19.692614
 20
8.318584
 30
0.0
 10
22.088242
 20
5.922956
 30
0.0
 10
22.088242
 20
2.972968
 30
0.0
  0
LWPOLYLINE
  5
159
100
AcDbEntity
  8
Front
 62
7
100
AcDbPolyline
 90
2
 70
1
 10
14.703372
 20
8.318584
 30
0.0
 10
16.742626
 20
8.318584
 30
0.0
  0
SPLINE
  5
15a
100
AcDbEntity
  8
Front
 62
7
100
AcDbSpline
 70
8
 71
3
 72
8
 73
4
 74
0
 40
0
 40
0
 40
0
 40
0
 40
1
 40
1
 40
1
 40
1
 10
22.088242
 20
2.972968
 30
0.0
 10
22.108041
 20
1.785053
 30
0.0
 10
21.157709
 20
0.834721
 30
0.0
 10
19.969794
 20
0.834721
 30
0.0
  0
LWPOLYLINE
  5
15b
100
AcDbEntity
  8
Front
 62
7
100
AcDbPolyline
 90
2
 70
1
 10
22.088242
 20
2.972968
 30
0.0
 10
22.088242
 20
2.972968
 30
0.0
  0
LWPOLYLINE
  5
15c
100
AcDbEntity
  8
Front
 62
7
100
AcDbPolyline
 90
2
 70
1
 10
19.969794
 20
0.834721
 30
0.0
 10
19.969794
 20
0.834721
 30
0.0
  0
SPLINE
  5
15d
100
AcDbEntity
  8
Front
 62
7
100
AcDbSpline
 70
8
 71
3
 72
8
 73
4
 74
0
 40
0
 40
0
 40
0
 40
0
 40
1
 40
1
 40
1
 40
1
 10
33.096251
 20
0.834721
 30
0.0
 10
31.908337
 20
0.834721
 30
0.0
 10
30.958005
 20
1.785053
 30
0.0
 10
30.958005
 20
2.972968
 30
0.0
  0
LWPOLYLINE
  5
15e
100
AcDbEntity
  8
Front
 62
7
100
AcDbPolyline
 90
2
 70
1
 10
41.570043
 20
0.834721
 30
0.0
 10
33.096251
 20
0.834721
 30
0.0
  0
SPLINE
  5
15f
100
AcDbEntity
  8
Front
 62
7
100
AcDbSpline
 70
8
 71
3
 72
8
 73
4
 74
0
 40
0
 40
0
 40
0
 40
0
 40
1
 40
1
 40
1
 40
1
 10
30.958005
 20
2.972968
 30
0.0
 10
30.958005
 20
5.922956
 30
0.0
 10
33.353633
 20
8.318584
 30
0.0
 10
36.303621
 20
8.318584
 30
0.0
  0
LWPOLYLINE
  5
160
100
AcDbEntity
  8
Front
 62
7
100
AcDbPolyline
 90
2
 70
1
 10
30.958005
 20
2.972968
 30
0.0
 10
30.958005
 20
2.972968
 30
0.0
  0
SPLINE
  5
161
100
AcDbEntity
  8
Front
 62
7
100
AcDbSpline
 70
8
 71
3
 72
8
 73
4
 74
0
 40
0
 40
0
 40
0
 40
0
 40
1
 40
1
 40
1
 40
1
 10
38.342874
 20
8.318584
 30
0.0
 10
41.292862
 20
8.318584
 30
0.0
 10
43.688490
 20
5.922956
 30
0.0
 10
43.688490
 20
2.972968
 30
0.0
  0
LWPOLYLINE
  5
162
100
AcDbEntity
  8
Front
 62
7
100
AcDbPolyline
 90
2
 70
1
 10
36.303621
 20
8.318584
 30
0.0
 10
38.342874
 20
8.318584
 30
0.0
  0
SPLINE
  5
163
100
AcDbEntity
  8
Front
 62
7
100
AcDbSpline
 70
8
 71
3
 72
8
 73
4
 74
0
 40
0
 40
0
 40
0
 40
0
 40
1
 40
1
 40
1
 40
1
 10
43.688490
 20
2.972968
 30
0.0
 10
43.708289
 20
1.785053
 30
0.0
 10
42.738159
 20
0.834721
 30
0.0
 10
41.570043
 20
0.834721
 30
0.0
  0
LWPOLYLINE
  5
164
100
AcDbEntity
  8
Front
 62
7
100
AcDbPolyline
 90
2
 70
1
 10
43.688490
 20
2.972968
 30
0.0
 10
43.688490
 20
2.972968
 30
0.0
  0
LWPOLYLINE
  5
165
100
AcDbEntity
  8
Front
 62
7
100
AcDbPolyline
 90
2
 70
1
 10
41.570043
 20
0.834721
 30
0.0
 10
41.570043
 20
0.834721
 30
0.0
  0
SPLINE
  5
166
100
AcDbEntity
  8
Front
 62
7
100
AcDbSpline
 70
8
 71
3
 72
8
 73
4
 74
0
 40
0
 40
0
 40
0
 40
0
 40
1
 40
1
 40
1
 40
1
 10
11.733586
 20
18.415859
 30
0.0
 10
9.852721
 20
20.296723
 30
0.0
 10
9.852721
 20
23.325906
 30
0.0
 10
11.733586
 20
25.206771
 30
0.0
  0
LWPOLYLINE
  5
167
100
AcDbEntity
  8
Front
 62
7
100
AcDbPolyline
 90
2
 70
1
 10
16.029877
 20
14.119567
 30
0.0
 10
11.733586
 20
18.415859
 30
0.0
  0
SPLINE
  5
168
100
AcDbEntity
  8
Front
 62
7
100
AcDbSpline
 70
8
 71
3
 72
8
 73
4
 74
0
 40
0
 40
0
 40
0
 40
0
 40
1
 40
1
 40
1
 40
1
 10
11.733586
 20
25.206771
 30
0.0
 10
13.614451
 20
27.087636
 30
0.0
 10
16.643633
 20
27.087636
 30
0.0
 10
18.524498
 20
25.206771
 30
0.0
  0
LWPOLYLINE
  5
169
100
AcDbEntity
  8
Front
 62
7
100
AcDbPolyline
 90
2
 70
1
 10
11.733586
 20
25.206771
 30
0.0
 10
11.733586
 20
25.206771
 30
0.0
  0
SPLINE
  5
16a
100
AcDbEntity
  8
Front
 62
7
100
AcDbSpline
 70
8
 71
3
 72
8
 73
4
 74
0
 40
0
 40
0
 40
0
 40
0
 40
1
 40
1
 40
1
 40
1
 10
22.820789
 20
20.910479
 30
0.0
 10
24.701654
 20
19.029614
 30
0.0
 10
24.701654
 20
16.000432
 30
0.0
 10
22.820789
 20
14.119567
 30
0.0
  0
LWPOLYLINE
  5
16b
100
AcDbEntity
  8
Front
 62
7
100
AcDbPolyline
 90
2
 70
1
 10
18.524498
 20
25.206771
 30
0.0
 10
22.820789
 20
20.910479
 30
0.0
  0
SPLINE
  5
16c
100
AcDbEntity
  8
Front
 62
7
100
AcDbSpline
 70
8
 71
3
 72
8
 73
4
 74
0
 40
0
 40
0
 40
0
 40
0
 40
1
 40
1
 40
1
 40
1
 10
22.820789
 20
14.119567
 30
0.0
 10
20.939924
 20
12.238702
 30
0.0
 10
17.910742
 20
12.238702
 30
0.0
 10
16.029877
 20
14.119567
 30
0.0
  0
LWPOLYLINE
  5
16d
100
AcDbEntity
  8
Front
 62
7
100
AcDbPolyline
 90
2
 70
1
 10
22.820789
 20
14.119567
 30
0.0
 10
22.820789
 20
14.119567
 30
0.0
  0
LWPOLYLINE
  5
16e
100
AcDbEntity
  8
Front
 62
7
100
AcDbPolyline
 90
2
 70
1
 10
16.029877
 20
14.119567
 30
0.0
 10
16.029877
 20
14.119567
 30
0.0
  0
SPLINE
  5
16f
100
AcDbEntity
  8
Front
 62
7
100
AcDbSpline
 70
8
 71
3
 72
8
 73
4
 74
0
 40
0
 40
0
 40
0
 40
0
 40
1
 40
1
 40
1
 40
1
 10
56.300184
 20
41.243619
 30
0.0
 10
56.300184
 20
38.273832
 30
0.0
 10
53.884758
 20
35.878204
 30
0.0
 10
50.934770
 20
35.878204
 30
0.0
  0
LWPOLYLINE
  5
170
100
AcDbEntity
  8
Front
 62
7
100
AcDbPolyline
 90
2
 70
1
 10
56.300184
 20
41.243619
 30
0.0
 10
56.300184
 20
41.243619
 30
0.0
  0
SPLINE
  5
171
100
AcDbEntity
  8
Front
 62
7
100
AcDbSpline
 70
8
 71
3
 72
8
 73
4
 74
0
 40
0
 40
0
 40
0
 40
0
 40
1
 40
1
 40
1
 40
1
 10
50.934770
 20
35.878204
 30
0.0
 10
47.964983
 20
35.878204
 30
0.0
 10
45.569355
 20
38.293631
 30
0.0
 10
45.569355
 20
41.243619
 30
0.0
  0
LWPOLYLINE
  5
172
100
AcDbEntity
  8
Front
 62
7
100
AcDbPolyline
 90
2
 70
1
 10
50.934770
 20
35.878204
 30
0.0
 10
50.934770
 20
35.878204
 30
0.0
  0
SPLINE
  5
173
100
AcDbEntity
  8
Front
 62
7
100
AcDbSpline
 70
8
 71
3
 72
8
 73
4
 74
0
 40
0
 40
0
 40
0
 40
0
 40
1
 40
1
 40
1
 40
1
 10
45.569355
 20
41.243619
 30
0.0
 10
45.569355
 20
44.213405
 30
0.0
 10
47.984782
 20
46.609033
 30
0.0
 10
50.934770
 20
46.609033
 30
0.0
  0
LWPOLYLINE
  5
174
100
AcDbEntity
  8
Front
 62
7
100
AcDbPolyline
 90
2
 70
1
 10
45.569355
 20
41.243619
 30
0.0
 10
45.569355
 20
41.243619
 30
0.0
  0
SPLINE
  5
175
100
AcDbEntity
  8
Front
 62
7
100
AcDbSpline
 70
8
 71
3
 72
8
 73
4
 74
0
 40
0
 40
0
 40
0
 40
0
 40
1
 40
1
 40
1
 40
1
 10
50.934770
 20
46.609033
 30
0.0
 10
53.904556
 20
46.609033
 30
0.0
 10
56.300184
 20
44.193607
 30
0.0
 10
56.300184
 20
41.243619
 30
0.0
  0
LWPOLYLINE
  5
176
100
AcDbEntity
  8
Front
 62
7
100
AcDbPolyline
 90
2
 70
1
 10
50.934770
 20
46.609033
 30
0.0
 10
50.934770
 20
46.609033
 30
0.0
  0
SPLINE
  5
177
100
AcDbEntity
  8
Front
 62
7
100
AcDbSpline
 70
8
 71
3
 72
8
 73
4
 74
0
 40
0
 40
0
 40
0
 40
0
 40
1
 40
1
 40
1
 40
1
 10
54.973680
 20
38.471818
 30
0.0
 10
55.092471
 20
36.788939
 30
0.0
 10
55.151867
 20
35.007067
 30
0.0
 10
55.052874
 20
33.205396
 30
0.0
  0
SPLINE
  5
178
100
AcDbEntity
  8
Front
 62
7
100
AcDbSpline
 70
8
 71
3
 72
8
 73
4
 74
0
 40
0
 40
0
 40
0
 40
0
 40
1
 40
1
 40
1
 40
1
 10
55.052874
 20
33.205396
 30
0.0
 10
54.953881
 20
31.383927
 30
0.0
 10
54.716298
 20
29.503062
 30
0.0
 10
54.142139
 20
27.503406
 30
0.0
  0
SPLINE
  5
179
100
AcDbEntity
  8
Front
 62
7
100
AcDbSpline
 70
8
 71
3
 72
8
 73
4
 74
0
 40
0
 40
0
 40
0
 40
0
 40
1
 40
1
 40
1
 40
1
 10
54.142139
 20
27.503406
 30
0.0
 10
53.845161
 20
26.513477
 30
0.0
 10
53.468988
 20
25.483951
 30
0.0
 10
52.934426
 20
24.434626
 30
0.0
  0
SPLINE
  5
17a
100
AcDbEntity
  8
Front
 62
7
100
AcDbSpline
 70
8
 71
3
 72
8
 73
4
 74
0
 40
0
 40
0
 40
0
 40
0
 40
1
 40
1
 40
1
 40
1
 10
52.934426
 20
24.434626
 30
0.0
 10
52.399865
 20
23.385302
 30
0.0
 10
51.687116
 20
22.335977
 30
0.0
 10
50.736784
 20
21.346048
 30
0.0
  0
SPLINE
  5
17b
100
AcDbEntity
  8
Front
 62
7
100
AcDbSpline
 70
8
 71
3
 72
8
 73
4
 74
0
 40
0
 40
0
 40
0
 40
0
 40
1
 40
1
 40
1
 40
1
 10
50.736784
 20
21.346048
 30
0.0
 10
49.806251
 20
20.356119
 30
0.0
 10
48.598538
 20
19.484982
 30
0.0
 10
47.291832
 20
18.871226
 30
0.0
  0
SPLINE
  5
17c
100
AcDbEntity
  8
Front
 62
7
100
AcDbSpline
 70
8
 71
3
 72
8
 73
4
 74
0
 40
0
 40
0
 40
0
 40
0
 40
1
 40
1
 40
1
 40
1
 10
47.291832
 20
18.871226
 30
0.0
 10
45.985125
 20
18.257470
 30
0.0
 10
44.579426
 20
17.901096
 30
0.0
 10
43.272720
 20
17.742707
 30
0.0
  0
LWPOLYLINE
  5
17d
100
AcDbEntity
  8
Front
 62
7
100
AcDbPolyline
 90
2
 70
1
 10
56.300184
 20
41.243619
 30
0.0
 10
56.300184
 20
41.243619
 30
0.0
  0
SPLINE
  5
17e
100
AcDbEntity
  8
Front
 62
7
100
AcDbSpline
 70
8
 71
3
 72
8
 73
4
 74
0
 40
0
 40
0
 40
0
 40
0
 40
1
 40
1
 40
1
 40
1
 10
42.559971
 20
28.750716
 30
0.0
 10
42.817353
 20
28.711119
 30
0.0
 10
42.995540
 20
28.691320
 30
0.0
 10
43.134130
 20
28.691320
 30
0.0
  0
SPLINE
  5
17f
100
AcDbEntity
  8
Front
 62
7
100
AcDbSpline
 70
8
 71
3
 72
8
 73
4
 74
0
 40
0
 40
0
 40
0
 40
0
 40
1
 40
1
 40
1
 40
1
 10
43.134130
 20
28.691320
 30
0.0
 10
43.272720
 20
28.691320
 30
0.0
 10
43.431109
 20
28.691320
 30
0.0
 10
43.629095
 20
28.810112
 30
0.0
  0
SPLINE
  5
180
100
AcDbEntity
  8
Front
 62
7
100
AcDbSpline
 70
8
 71
3
 72
8
 73
4
 74
0
 40
0
 40
0
 40
0
 40
0
 40
1
 40
1
 40
1
 40
1
 10
43.629095
 20
28.810112
 30
0.0
 10
43.827080
 20
28.909105
 30
0.0
 10
44.084462
 20
29.126889
 30
0.0
 10
44.341843
 20
29.443666
 30
0.0
  0
SPLINE
  5
181
100
AcDbEntity
  8
Front
 62
7
100
AcDbSpline
 70
8
 71
3
 72
8
 73
4
 74
0
 40
0
 40
0
 40
0
 40
0
 40
1
 40
1
 40
1
 40
1
 10
44.341843
 20
29.443666
 30
0.0
 10
44.599225
 20
29.760444
 30
0.0
 10
44.856606
 20
30.196012
 30
0.0
 10
45.113988
 20
30.690977
 30
0.0
  0
SPLINE
  5
182
100
AcDbEntity
  8
Front
 62
7
100
AcDbSpline
 70
8
 71
3
 72
8
 73
4
 74
0
 40
0
 40
0
 40
0
 40
0
 40
1
 40
1
 40
1
 40
1
 10
45.113988
 20
30.690977
 30
0.0
 10
45.589154
 20
31.680906
 30
0.0
 10
45.985125
 20
32.928216
 30
0.0
 10
46.262305
 20
34.254721
 30
0.0
  0
SPLINE
  5
183
100
AcDbEntity
  8
Front
 62
7
100
AcDbSpline
 70
8
 71
3
 72
8
 73
4
 74
0
 40
0
 40
0
 40
0
 40
0
 40
1
 40
1
 40
1
 40
1
 10
46.262305
 20
34.254721
 30
0.0
 10
46.539486
 20
35.581226
 30
0.0
 10
46.737471
 20
36.986925
 30
0.0
 10
46.856263
 20
38.452019
 30
0.0
  0
LWPOLYLINE
  5
184
100
AcDbEntity
  8
Front
 62
7
100
AcDbPolyline
 90
2
 70
1
 10
43.272720
 20
17.742707
 30
0.0
 10
42.559971
 20
28.750716
 30
0.0
  0
LWPOLYLINE
  5
185
100
AcDbEntity
  8
Front
 62
7
100
AcDbPolyline
 90
3
 70
1
 10
46.856263
 20
38.452019
 30
0.0
 10
54.973680
 20
38.452019
 30
0.0
 10
54.973680
 20
38.471818
 30
0.0
  0
SPLINE
  5
186
100
AcDbEntity
  8
Front
 62
7
100
AcDbSpline
 70
8
 71
3
 72
8
 73
4
 74
0
 40
0
 40
0
 40
0
 40
0
 40
1
 40
1
 40
1
 40
1
 10
49.707258
 20
42.649318
 30
0.0
 10
49.212294
 20
42.649318
 30
0.0
 10
48.816322
 20
43.045289
 30
0.0
 10
48.816322
 20
43.540254
 30
0.0
  0
LWPOLYLINE
  5
187
100
AcDbEntity
  8
Front
 62
7
100
AcDbPolyline
 90
2
 70
1
 10
49.707258
 20
42.649318
 30
0.0
 10
49.707258
 20
42.649318
 30
0.0
  0
SPLINE
  5
188
100
AcDbEntity
  8
Front
 62
7
100
AcDbSpline
 70
8
 71
3
 72
8
 73
4
 74
0
 40
0
 40
0
 40
0
 40
0
 40
1
 40
1
 40
1
 40
1
 10
48.816322
 20
44.470787
 30
0.0
 10
48.816322
 20
44.965751
 30
0.0
 10
49.212294
 20
45.361723
 30
0.0
 10
49.707258
 20
45.361723
 30
0.0
  0
LWPOLYLINE
  5
189
100
AcDbEntity
  8
Front
 62
7
100
AcDbPolyline
 90
2
 70
1
 10
48.816322
 20
43.540254
 30
0.0
 10
48.816322
 20
44.470787
 30
0.0
  0
SPLINE
  5
18a
100
AcDbEntity
  8
Front
 62
7
100
AcDbSpline
 70
8
 71
3
 72
8
 73
4
 74
0
 40
0
 40
0
 40
0
 40
0
 40
1
 40
1
 40
1
 40
1
 10
49.707258
 20
45.361723
 30
0.0
 10
50.202222
 20
45.361723
 30
0.0
 10
50.598194
 20
44.965751
 30
0.0
 10
50.598194
 20
44.470787
 30
0.0
  0
LWPOLYLINE
  5
18b
100
AcDbEntity
  8
Front
 62
7
100
AcDbPolyline
 90
2
 70
1
 10
49.707258
 20
45.361723
 30
0.0
 10
49.707258
 20
45.361723
 30
0.0
  0
SPLINE
  5
18c
100
AcDbEntity
  8
Front
 62
7
100
AcDbSpline
 70
8
 71
3
 72
8
 73
4
 74
0
 40
0
 40
0
 40
0
 40
0
 40
1
 40
1
 40
1
 40
1
 10
50.598194
 20
43.540254
 30
0.0
 10
50.598194
 20
43.045289
 30
0.0
 10
50.202222
 20
42.649318
 30
0.0
 10
49.707258
 20
42.649318
 30
0.0
  0
LWPOLYLINE
  5
18d
100
AcDbEntity
  8
Front
 62
7
100
AcDbPolyline
 90
2
 70
1
 10
50.598194
 20
44.470787
 30
0.0
 10
50.598194
 20
43.540254
 30
0.0
  0
LWPOLYLINE
  5
18e
100
AcDbEntity
  8
Front
 62
7
100
AcDbPolyline
 90
2
 70
1
 10
49.707258
 20
42.649318
 30
0.0
 10
49.707258
 20
42.649318
 30
0.0
  0
SPLINE
  5
18f
100
AcDbEntity
  8
Front
 62
7
100
AcDbSpline
 70
8
 71
3
 72
8
 73
4
 74
0
 40
0
 40
0
 40
0
 40
0
 40
1
 40
1
 40
1
 40
1
 10
47.450220
 20
41.065432
 30
0.0
 10
46.955256
 20
41.065432
 30
0.0
 10
46.559284
 20
41.461403
 30
0.0
 10
46.559284
 20
41.956368
 30
0.0
  0
LWPOLYLINE
  5
190
100
AcDbEntity
  8
Front
 62
7
100
AcDbPolyline
 90
2
 70
1
 10
47.450220
 20
41.065432
 30
0.0
 10
47.450220
 20
41.065432
 30
0.0
  0
SPLINE
  5
191
100
AcDbEntity
  8
Front
 62
7
100
AcDbSpline
 70
8
 71
3
 72
8
 73
4
 74
0
 40
0
 40
0
 40
0
 40
0
 40
1
 40
1
 40
1
 40
1
 10
46.559284
 20
42.886901
 30
0.0
 10
46.559284
 20
43.381865
 30
0.0
 10
46.955256
 20
43.777837
 30
0.0
 10
47.450220
 20
43.777837
 30
0.0
  0
LWPOLYLINE
  5
192
100
AcDbEntity
  8
Front
 62
7
100
AcDbPolyline
 90
2
 70
1
 10
46.559284
 20
41.956368
 30
0.0
 10
46.559284
 20
42.886901
 30
0.0
  0
SPLINE
  5
193
100
AcDbEntity
  8
Front
 62
7
100
AcDbSpline
 70
8
 71
3
 72
8
 73
4
 74
0
 40
0
 40
0
 40
0
 40
0
 40
1
 40
1
 40
1
 40
1
 10
47.450220
 20
43.777837
 30
0.0
 10
47.945185
 20
43.777837
 30
0.0
 10
48.341156
 20
43.381865
 30
0.0
 10
48.341156
 20
42.886901
 30
0.0
  0
LWPOLYLINE
  5
194
100
AcDbEntity
  8
Front
 62
7
100
AcDbPolyline
 90
2
 70
1
 10
47.450220
 20
43.777837
 30
0.0
 10
47.450220
 20
43.777837
 30
0.0
  0
SPLINE
  5
195
100
AcDbEntity
  8
Front
 62
7
100
AcDbSpline
 70
8
 71
3
 72
8
 73
4
 74
0
 40
0
 40
0
 40
0
 40
0
 40
1
 40
1
 40
1
 40
1
 10
48.341156
 20
41.956368
 30
0.0
 10
48.341156
 20
41.461403
 30
0.0
 10
47.945185
 20
41.065432
 30
0.0
 10
47.450220
 20
41.065432
 30
0.0
  0
LWPOLYLINE
  5
196
100
AcDbEntity
  8
Front
 62
7
100
AcDbPolyline
 90
2
 70
1
 10
48.341156
 20
42.886901
 30
0.0
 10
48.341156
 20
41.956368
 30
0.0
  0
LWPOLYLINE
  5
197
100
AcDbEntity
  8
Front
 62
7
100
AcDbPolyline
 90
2
 70
1
 10
47.450220
 20
41.065432
 30
0.0
 10
47.450220
 20
41.065432
 30
0.0
  0
SPLINE
  5
198
100
AcDbEntity
  8
Front
 62
7
100
AcDbSpline
 70
8
 71
3
 72
8
 73
4
 74
0
 40
0
 40
0
 40
0
 40
0
 40
1
 40
1
 40
1
 40
1
 10
54.458917
 20
41.065432
 30
0.0
 10
53.963952
 20
41.065432
 30
0.0
 10
53.567981
 20
41.461403
 30
0.0
 10
53.567981
 20
41.956368
 30
0.0
  0
LWPOLYLINE
  5
199
100
AcDbEntity
  8
Front
 62
7
100
AcDbPolyline
 90
2
 70
1
 10
54.458917
 20
41.065432
 30
0.0
 10
54.458917
 20
41.065432
 30
0.0
  0
SPLINE
  5
19a
100
AcDbEntity
  8
Front
 62
7
100
AcDbSpline
 70
8
 71
3
 72
8
 73
4
 74
0
 40
0
 40
0
 40
0
 40
0
 40
1
 40
1
 40
1
 40
1
 10
53.567981
 20
42.886901
 30
0.0
 10
53.567981
 20
43.381865
 30
0.0
 10
53.963952
 20
43.777837
 30
0.0
 10
54.458917
 20
43.777837
 30
0.0
  0
LWPOLYLINE
  5
19b
100
AcDbEntity
  8
Front
 62
7
100
AcDbPolyline
 90
2
 70
1
 10
53.567981
 20
41.956368
 30
0.0
 10
53.567981
 20
42.886901
 30
0.0
  0
SPLINE
  5
19c
100
AcDbEntity
  8
Front
 62
7
100
AcDbSpline
 70
8
 71
3
 72
8
 73
4
 74
0
 40
0
 40
0
 40
0
 40
0
 40
1
 40
1
 40
1
 40
1
 10
54.458917
 20
43.777837
 30
0.0
 10
54.953881
 20
43.777837
 30
0.0
 10
55.349853
 20
43.381865
 30
0.0
 10
55.349853
 20
42.886901
 30
0.0
  0
LWPOLYLINE
  5
19d
100
AcDbEntity
  8
Front
 62
7
100
AcDbPolyline
 90
2
 70
1
 10
54.458917
 20
43.777837
 30
0.0
 10
54.458917
 20
43.777837
 30
0.0
  0
SPLINE
  5
19e
100
AcDbEntity
  8
Front
 62
7
100
AcDbSpline
 70
8
 71
3
 72
8
 73
4
 74
0
 40
0
 40
0
 40
0
 40
0
 40
1
 40
1
 40
1
 40
1
 10
55.349853
 20
41.956368
 30
0.0
 10
55.349853
 20
41.461403
 30
0.0
 10
54.953881
 20
41.065432
 30
0.0
 10
54.458917
 20
41.065432
 30
0.0
  0
LWPOLYLINE
  5
19f
100
AcDbEntity
  8
Front
 62
7
100
AcDbPolyline
 90
2
 70
1
 10
55.349853
 20
42.886901
 30
0.0
 10
55.349853
 20
41.956368
 30
0.0
  0
LWPOLYLINE
  5
1a0
100
AcDbEntity
  8
Front
 62
7
100
AcDbPolyline
 90
2
 70
1
 10
54.458917
 20
41.065432
 30
0.0
 10
54.458917
 20
41.065432
 30
0.0
  0
SPLINE
  5
1a1
100
AcDbEntity
  8
Front
 62
7
100
AcDbSpline
 70
8
 71
3
 72
8
 73
4
 74
0
 40
0
 40
0
 40
0
 40
0
 40
1
 40
1
 40
1
 40
1
 10
52.201879
 20
42.649318
 30
0.0
 10
51.706914
 20
42.649318
 30
0.0
 10
51.310943
 20
43.045289
 30
0.0
 10
51.310943
 20
43.540254
 30
0.0
  0
LWPOLYLINE
  5
1a2
100
AcDbEntity
  8
Front
 62
7
100
AcDbPolyline
 90
2
 70
1
 10
52.201879
 20
42.649318
 30
0.0
 10
52.201879
 20
42.649318
 30
0.0
  0
SPLINE
  5
1a3
100
AcDbEntity
  8
Front
 62
7
100
AcDbSpline
 70
8
 71
3
 72
8
 73
4
 74
0
 40
0
 40
0
 40
0
 40
0
 40
1
 40
1
 40
1
 40
1
 10
51.310943
 20
44.470787
 30
0.0
 10
51.310943
 20
44.965751
 30
0.0
 10
51.706914
 20
45.361723
 30
0.0
 10
52.201879
 20
45.361723
 30
0.0
  0
LWPOLYLINE
  5
1a4
100
AcDbEntity
  8
Front
 62
7
100
AcDbPolyline
 90
2
 70
1
 10
51.310943
 20
43.540254
 30
0.0
 10
51.310943
 20
44.470787
 30
0.0
  0
SPLINE
  5
1a5
100
AcDbEntity
  8
Front
 62
7
100
AcDbSpline
 70
8
 71
3
 72
8
 73
4
 74
0
 40
0
 40
0
 40
0
 40
0
 40
1
 40
1
 40
1
 40
1
 10
52.201879
 20
45.361723
 30
0.0
 10
52.696843
 20
45.361723
 30
0.0
 10
53.092815
 20
44.965751
 30
0.0
 10
53.092815
 20
44.470787
 30
0.0
  0
LWPOLYLINE
  5
1a6
100
AcDbEntity
  8
Front
 62
7
100
AcDbPolyline
 90
2
 70
1
 10
52.201879
 20
45.361723
 30
0.0
 10
52.201879
 20
45.361723
 30
0.0
  0
SPLINE
  5
1a7
100
AcDbEntity
  8
Front
 62
7
100
AcDbSpline
 70
8
 71
3
 72
8
 73
4
 74
0
 40
0
 40
0
 40
0
 40
0
 40
1
 40
1
 40
1
 40
1
 10
53.092815
 20
43.540254
 30
0.0
 10
53.092815
 20
43.045289
 30
0.0
 10
52.677045
 20
42.649318
 30
0.0
 10
52.201879
 20
42.649318
 30
0.0
  0
LWPOLYLINE
  5
1a8
100
AcDbEntity
  8
Front
 62
7
100
AcDbPolyline
 90
2
 70
1
 10
53.092815
 20
44.470787
 30
0.0
 10
53.092815
 20
43.540254
 30
0.0
  0
LWPOLYLINE
  5
1a9
100
AcDbEntity
  8
Front
 62
7
100
AcDbPolyline
 90
2
 70
1
 10
52.201879
 20
42.649318
 30
0.0
 10
52.201879
 20
42.649318
 30
0.0
  0
ENDSEC
  0
SECTION
  2
OBJECTS
  0
DICTIONARY
  5
C
330
0
100
AcDbDictionary
  3
ACAD_GROUP
350
D
  3
ACAD_MLINESTYLE
350
17
  0
DICTIONARY
  5
D
330
C
100
AcDbDictionary
  0
DICTIONARY
  5
1A
330
C
100
AcDbDictionary
  0
DICTIONARY
  5
17
330
C
100
AcDbDictionary
  3
STANDARD
350
18
  0
DICTIONARY
  5
19
330
C
100
AcDbDictionary
  0
ENDSEC
  0
EOF
