  0
SECTION
  2
HEADER
  9
$ACADVER
  1
AC1009
  9
$EXTMIN
 10
0.0
 20
0.0
 30
0.0
  9
$EXTMAX
 10
1000.0
 20
1000.0
 30
0.0
  9
$FILLMODE
 70
 0
  9
$SPLFRAME
 70
 1
  0
ENDSEC
  0
SECTION
  2
TABLES
  0
TABLE
  2
LAYER
 70
1
  0
LAYER
  2
0
 70
     0
 62
     7
  6
CONTINUOUS
  0
ENDTAB
  0
ENDSEC
  0
SECTION
  2
ENTITIES
  0
POLYLINE
  8
0
 62
     7
 66
     1
 10
0
 20
0
 30
0.0
 70
     1
 40
0
 41
0
  0
VERTEX
  8
0
 10
1.56771
 20
1.96078
 30
0.0
 40
0
 41
0
  0
VERTEX
  8
0
 10
0.966689
 20
1.96078
 30
0.0
 40
0
 41
0
  0
VERTEX
  8
0
 10
0.939128
 20
1.96078
 30
0.0
 40
0
 41
0
  0
VERTEX
  8
0
 10
0.856554
 20
1.95014
 30
0.0
 40
0
 41
0
  0
VERTEX
  8
0
 10
0.753418
 20
1.91949
 30
0.0
 40
0
 41
0
  0
VERTEX
  8
0
 10
0.659343
 20
1.87082
 30
0.0
 40
0
 41
0
  0
VERTEX
  8
0
 10
0.576389
 20
1.8061
 30
0.0
 40
0
 41
0
  0
VERTEX
  8
0
 10
0.506728
 20
1.72732
 30
0.0
 40
0
 41
0
  0
VERTEX
  8
0
 10
0.452311
 20
1.6365
 30
0.0
 40
0
 41
0
  0
VERTEX
  8
0
 10
0.415365
 20
1.53549
 30
0.0
 40
0
 41
0
  0
VERTEX
  8
0
 10
0.399576
 20
1.45383
 30
0.0
 40
0
 41
0
  0
VERTEX
  8
0
 10
0.397894
 20
1.42637
 30
0.0
 40
0
 41
0
  0
VERTEX
  8
0
 10
0.348958
 20
0.637858
 30
0.0
 40
0
 41
0
  0
VERTEX
  8
0
 10
0.347168
 20
0.608018
 30
0.0
 40
0
 41
0
  0
VERTEX
  8
0
 10
0.354221
 20
0.517686
 30
0.0
 40
0
 41
0
  0
VERTEX
  8
0
 10
0.383301
 20
0.404893
 30
0.0
 40
0
 41
0
  0
VERTEX
  8
0
 10
0.433649
 20
0.302192
 30
0.0
 40
0
 41
0
  0
VERTEX
  8
0
 10
0.502821
 20
0.21224
 30
0.0
 40
0
 41
0
  0
VERTEX
  8
0
 10
0.588325
 20
0.137641
 30
0.0
 40
0
 41
0
  0
VERTEX
  8
0
 10
0.687608
 20
0.0811089
 30
0.0
 40
0
 41
0
  0
VERTEX
  8
0
 10
0.798232
 20
0.0452474
 30
0.0
 40
0
 41
0
  0
VERTEX
  8
0
 10
0.887804
 20
0.0326606
 30
0.0
 40
0
 41
0
  0
VERTEX
  8
0
 10
0.917697
 20
0.0326606
 30
0.0
 40
0
 41
0
  0
VERTEX
  8
0
 10
1.61561
 20
0.0326606
 30
0.0
 40
0
 41
0
  0
VERTEX
  8
0
 10
1.64546
 20
0.0326606
 30
0.0
 40
0
 41
0
  0
VERTEX
  8
0
 10
1.73503
 20
0.0452474
 30
0.0
 40
0
 41
0
  0
VERTEX
  8
0
 10
1.84565
 20
0.0811089
 30
0.0
 40
0
 41
0
  0
VERTEX
  8
0
 10
1.94493
 20
0.137641
 30
0.0
 40
0
 41
0
  0
VERTEX
  8
0
 10
2.03043
 20
0.21224
 30
0.0
 40
0
 41
0
  0
VERTEX
  8
0
 10
2.09961
 20
0.302192
 30
0.0
 40
0
 41
0
  0
VERTEX
  8
0
 10
2.14996
 20
0.404893
 30
0.0
 40
0
 41
0
  0
VERTEX
  8
0
 10
2.17904
 20
0.517686
 30
0.0
 40
0
 41
0
  0
VERTEX
  8
0
 10
2.18614
 20
0.608018
 30
0.0
 40
0
 41
0
  0
VERTEX
  8
0
 10
2.18435
 20
0.637858
 30
0.0
 40
0
 41
0
  0
VERTEX
  8
0
 10
2.13542
 20
1.42637
 30
0.0
 40
0
 41
0
  0
VERTEX
  8
0
 10
2.13379
 20
1.45383
 30
0.0
 40
0
 41
0
  0
VERTEX
  8
0
 10
2.11828
 20
1.53549
 30
0.0
 40
0
 41
0
  0
VERTEX
  8
0
 10
2.08154
 20
1.6365
 30
0.0
 40
0
 41
0
  0
VERTEX
  8
0
 10
2.02735
 20
1.72732
 30
0.0
 40
0
 41
0
  0
VERTEX
  8
0
 10
1.95779
 20
1.8061
 30
0.0
 40
0
 41
0
  0
VERTEX
  8
0
 10
1.87494
 20
1.87082
 30
0.0
 40
0
 41
0
  0
VERTEX
  8
0
 10
1.78093
 20
1.91949
 30
0.0
 40
0
 41
0
  0
VERTEX
  8
0
 10
1.67779
 20
1.95014
 30
0.0
 40
0
 41
0
  0
VERTEX
  8
0
 10
1.59521
 20
1.96078
 30
0.0
 40
0
 41
0
  0
VERTEX
  8
0
 10
1.56771
 20
1.96078
 30
0.0
 40
0
 41
0
  0
SEQEND
 8
0
  0
POLYLINE
  8
0
 62
     13
 66
     1
 10
0
 20
0
 30
0.0
 70
     1
 40
0
 41
0
  0
VERTEX
  8
0
 10
2.05414
 20
2.00663
 30
0.0
 40
0
 41
0
  0
VERTEX
  8
0
 10
2.05414
 20
1.96696
 30
0.0
 40
0
 41
0
  0
VERTEX
  8
0
 10
2.03814
 20
1.84793
 30
0.0
 40
0
 41
0
  0
VERTEX
  8
0
 10
1.99224
 20
1.70008
 30
0.0
 40
0
 41
0
  0
VERTEX
  8
0
 10
1.91965
 20
1.56629
 30
0.0
 40
0
 41
0
  0
VERTEX
  8
0
 10
1.82346
 20
1.44976
 30
0.0
 40
0
 41
0
  0
VERTEX
  8
0
 10
1.70692
 20
1.35362
 30
0.0
 40
0
 41
0
  0
VERTEX
  8
0
 10
1.57319
 20
1.28098
 30
0.0
 40
0
 41
0
  0
VERTEX
  8
0
 10
1.42535
 20
1.23508
 30
0.0
 40
0
 41
0
  0
VERTEX
  8
0
 10
1.30632
 20
1.21908
 30
0.0
 40
0
 41
0
  0
VERTEX
  8
0
 10
1.26666
 20
1.21908
 30
0.0
 40
0
 41
0
  0
VERTEX
  8
0
 10
1.22694
 20
1.21908
 30
0.0
 40
0
 41
0
  0
VERTEX
  8
0
 10
1.10791
 20
1.23508
 30
0.0
 40
0
 41
0
  0
VERTEX
  8
0
 10
0.960124
 20
1.28098
 30
0.0
 40
0
 41
0
  0
VERTEX
  8
0
 10
0.826335
 20
1.35362
 30
0.0
 40
0
 41
0
  0
VERTEX
  8
0
 10
0.709799
 20
1.44976
 30
0.0
 40
0
 41
0
  0
VERTEX
  8
0
 10
0.613661
 20
1.56629
 30
0.0
 40
0
 41
0
  0
VERTEX
  8
0
 10
0.541015
 20
1.70008
 30
0.0
 40
0
 41
0
  0
VERTEX
  8
0
 10
0.495117
 20
1.84793
 30
0.0
 40
0
 41
0
  0
VERTEX
  8
0
 10
0.479167
 20
1.96696
 30
0.0
 40
0
 41
0
  0
VERTEX
  8
0
 10
0.479167
 20
2.00663
 30
0.0
 40
0
 41
0
  0
VERTEX
  8
0
 10
0.479167
 20
2.04633
 30
0.0
 40
0
 41
0
  0
VERTEX
  8
0
 10
0.495117
 20
2.16536
 30
0.0
 40
0
 41
0
  0
VERTEX
  8
0
 10
0.541015
 20
2.31315
 30
0.0
 40
0
 41
0
  0
VERTEX
  8
0
 10
0.613661
 20
2.44694
 30
0.0
 40
0
 41
0
  0
VERTEX
  8
0
 10
0.709799
 20
2.56347
 30
0.0
 40
0
 41
0
  0
VERTEX
  8
0
 10
0.826335
 20
2.65961
 30
0.0
 40
0
 41
0
  0
VERTEX
  8
0
 10
0.960124
 20
2.73226
 30
0.0
 40
0
 41
0
  0
VERTEX
  8
0
 10
1.10791
 20
2.77815
 30
0.0
 40
0
 41
0
  0
VERTEX
  8
0
 10
1.22694
 20
2.79411
 30
0.0
 40
0
 41
0
  0
VERTEX
  8
0
 10
1.26666
 20
2.79411
 30
0.0
 40
0
 41
0
  0
VERTEX
  8
0
 10
1.30632
 20
2.79411
 30
0.0
 40
0
 41
0
  0
VERTEX
  8
0
 10
1.42535
 20
2.77815
 30
0.0
 40
0
 41
0
  0
VERTEX
  8
0
 10
1.57319
 20
2.73226
 30
0.0
 40
0
 41
0
  0
VERTEX
  8
0
 10
1.70692
 20
2.65961
 30
0.0
 40
0
 41
0
  0
VERTEX
  8
0
 10
1.82346
 20
2.56347
 30
0.0
 40
0
 41
0
  0
VERTEX
  8
0
 10
1.91965
 20
2.44694
 30
0.0
 40
0
 41
0
  0
VERTEX
  8
0
 10
1.99224
 20
2.31315
 30
0.0
 40
0
 41
0
  0
VERTEX
  8
0
 10
2.03814
 20
2.16536
 30
0.0
 40
0
 41
0
  0
VERTEX
  8
0
 10
2.05414
 20
2.04633
 30
0.0
 40
0
 41
0
  0
VERTEX
  8
0
 10
2.05414
 20
2.00663
 30
0.0
 40
0
 41
0
  0
SEQEND
 8
0
  0
POLYLINE
  8
0
 62
     7
 66
     1
 10
0
 20
0
 30
0.0
 70
     1
 40
0
 41
0
  0
VERTEX
  8
0
 10
1.875
 20
2.00663
 30
0.0
 40
0
 41
0
  0
VERTEX
  8
0
 10
1.875
 20
1.97601
 30
0.0
 40
0
 41
0
  0
VERTEX
  8
0
 10
1.86262
 20
1.88406
 30
0.0
 40
0
 41
0
  0
VERTEX
  8
0
 10
1.82715
 20
1.76986
 30
0.0
 40
0
 41
0
  0
VERTEX
  8
0
 10
1.77111
 20
1.6665
 30
0.0
 40
0
 41
0
  0
VERTEX
  8
0
 10
1.69678
 20
1.5765
 30
0.0
 40
0
 41
0
  0
VERTEX
  8
0
 10
1.60678
 20
1.50217
 30
0.0
 40
0
 41
0
  0
VERTEX
  8
0
 10
1.50342
 20
1.44613
 30
0.0
 40
0
 41
0
  0
VERTEX
  8
0
 10
1.38921
 20
1.41064
 30
0.0
 40
0
 41
0
  0
VERTEX
  8
0
 10
1.29725
 20
1.39828
 30
0.0
 40
0
 41
0
  0
VERTEX
  8
0
 10
1.26666
 20
1.39828
 30
0.0
 40
0
 41
0
  0
VERTEX
  8
0
 10
1.236
 20
1.39828
 30
0.0
 40
0
 41
0
  0
VERTEX
  8
0
 10
1.14404
 20
1.41064
 30
0.0
 40
0
 41
0
  0
VERTEX
  8
0
 10
1.02984
 20
1.44613
 30
0.0
 40
0
 41
0
  0
VERTEX
  8
0
 10
0.92654
 20
1.50217
 30
0.0
 40
0
 41
0
  0
VERTEX
  8
0
 10
0.836481
 20
1.5765
 30
0.0
 40
0
 41
0
  0
VERTEX
  8
0
 10
0.762207
 20
1.6665
 30
0.0
 40
0
 41
0
  0
VERTEX
  8
0
 10
0.706108
 20
1.76986
 30
0.0
 40
0
 41
0
  0
VERTEX
  8
0
 10
0.670628
 20
1.88406
 30
0.0
 40
0
 41
0
  0
VERTEX
  8
0
 10
0.658311
 20
1.97601
 30
0.0
 40
0
 41
0
  0
VERTEX
  8
0
 10
0.658311
 20
2.00663
 30
0.0
 40
0
 41
0
  0
VERTEX
  8
0
 10
0.658311
 20
2.03728
 30
0.0
 40
0
 41
0
  0
VERTEX
  8
0
 10
0.670628
 20
2.12924
 30
0.0
 40
0
 41
0
  0
VERTEX
  8
0
 10
0.706108
 20
2.24343
 30
0.0
 40
0
 41
0
  0
VERTEX
  8
0
 10
0.762207
 20
2.34674
 30
0.0
 40
0
 41
0
  0
VERTEX
  8
0
 10
0.836481
 20
2.43674
 30
0.0
 40
0
 41
0
  0
VERTEX
  8
0
 10
0.92654
 20
2.51107
 30
0.0
 40
0
 41
0
  0
VERTEX
  8
0
 10
1.02984
 20
2.56711
 30
0.0
 40
0
 41
0
  0
VERTEX
  8
0
 10
1.14404
 20
2.6026
 30
0.0
 40
0
 41
0
  0
VERTEX
  8
0
 10
1.236
 20
2.6149
 30
0.0
 40
0
 41
0
  0
VERTEX
  8
0
 10
1.26666
 20
2.6149
 30
0.0
 40
0
 41
0
  0
VERTEX
  8
0
 10
1.29725
 20
2.6149
 30
0.0
 40
0
 41
0
  0
VERTEX
  8
0
 10
1.38921
 20
2.6026
 30
0.0
 40
0
 41
0
  0
VERTEX
  8
0
 10
1.50342
 20
2.56711
 30
0.0
 40
0
 41
0
  0
VERTEX
  8
0
 10
1.60678
 20
2.51107
 30
0.0
 40
0
 41
0
  0
VERTEX
  8
0
 10
1.69678
 20
2.43674
 30
0.0
 40
0
 41
0
  0
VERTEX
  8
0
 10
1.77111
 20
2.34674
 30
0.0
 40
0
 41
0
  0
VERTEX
  8
0
 10
1.82715
 20
2.24343
 30
0.0
 40
0
 41
0
  0
VERTEX
  8
0
 10
1.86262
 20
2.12924
 30
0.0
 40
0
 41
0
  0
VERTEX
  8
0
 10
1.875
 20
2.03728
 30
0.0
 40
0
 41
0
  0
VERTEX
  8
0
 10
1.875
 20
2.00663
 30
0.0
 40
0
 41
0
  0
SEQEND
 8
0
  0
POLYLINE
  8
0
 62
     7
 66
     1
 10
0
 20
0
 30
0.0
 70
     1
 40
0
 41
0
  0
VERTEX
  8
0
 10
2.18435
 20
2.45454
 30
0.0
 40
0
 41
0
  0
VERTEX
  8
0
 10
2.02501
 20
3.21181
 30
0.0
 40
0
 41
0
  0
VERTEX
  8
0
 10
2.02344
 20
3.21929
 30
0.0
 40
0
 41
0
  0
VERTEX
  8
0
 10
2.01454
 20
3.24089
 30
0.0
 40
0
 41
0
  0
VERTEX
  8
0
 10
1.9975
 20
3.26454
 30
0.0
 40
0
 41
0
  0
VERTEX
  8
0
 10
1.97538
 20
3.28228
 30
0.0
 40
0
 41
0
  0
VERTEX
  8
0
 10
1.94971
 20
3.29372
 30
0.0
 40
0
 41
0
  0
VERTEX
  8
0
 10
1.92199
 20
3.29839
 30
0.0
 40
0
 41
0
  0
VERTEX
  8
0
 10
1.89372
 20
3.29579
 30
0.0
 40
0
 41
0
  0
VERTEX
  8
0
 10
1.86643
 20
3.28549
 30
0.0
 40
0
 41
0
  0
VERTEX
  8
0
 10
1.84711
 20
3.2724
 30
0.0
 40
0
 41
0
  0
VERTEX
  8
0
 10
1.84169
 20
3.26704
 30
0.0
 40
0
 41
0
  0
VERTEX
  8
0
 10
1.46772
 20
2.90033
 30
0.0
 40
0
 41
0
  0
VERTEX
  8
0
 10
2.18435
 20
2.45454
 30
0.0
 40
0
 41
0
  0
SEQEND
 8
0
  0
POLYLINE
  8
0
 62
     7
 66
     1
 10
0
 20
0
 30
0.0
 70
     1
 40
0
 41
0
  0
VERTEX
  8
0
 10
0.351019
 20
2.45454
 30
0.0
 40
0
 41
0
  0
VERTEX
  8
0
 10
0.511447
 20
3.21181
 30
0.0
 40
0
 41
0
  0
VERTEX
  8
0
 10
0.513021
 20
3.21929
 30
0.0
 40
0
 41
0
  0
VERTEX
  8
0
 10
0.521864
 20
3.24089
 30
0.0
 40
0
 41
0
  0
VERTEX
  8
0
 10
0.5389
 20
3.26454
 30
0.0
 40
0
 41
0
  0
VERTEX
  8
0
 10
0.561035
 20
3.28228
 30
0.0
 40
0
 41
0
  0
VERTEX
  8
0
 10
0.586697
 20
3.29372
 30
0.0
 40
0
 41
0
  0
VERTEX
  8
0
 10
0.614421
 20
3.29839
 30
0.0
 40
0
 41
0
  0
VERTEX
  8
0
 10
0.642686
 20
3.29579
 30
0.0
 40
0
 41
0
  0
VERTEX
  8
0
 10
0.669976
 20
3.28549
 30
0.0
 40
0
 41
0
  0
VERTEX
  8
0
 10
0.68929
 20
3.2724
 30
0.0
 40
0
 41
0
  0
VERTEX
  8
0
 10
0.694769
 20
3.26704
 30
0.0
 40
0
 41
0
  0
VERTEX
  8
0
 10
1.06874
 20
2.90033
 30
0.0
 40
0
 41
0
  0
VERTEX
  8
0
 10
0.351019
 20
2.45454
 30
0.0
 40
0
 41
0
  0
SEQEND
 8
0
  0
POLYLINE
  8
0
 62
     13
 66
     1
 10
0
 20
0
 30
0.0
 70
     1
 40
0
 41
0
  0
VERTEX
  8
0
 10
0.452094
 20
2.57324
 30
0.0
 40
0
 41
0
  0
VERTEX
  8
0
 10
0.566678
 20
3.11703
 30
0.0
 40
0
 41
0
  0
VERTEX
  8
0
 10
0.568739
 20
3.12706
 30
0.0
 40
0
 41
0
  0
VERTEX
  8
0
 10
0.586262
 20
3.15483
 30
0.0
 40
0
 41
0
  0
VERTEX
  8
0
 10
0.620551
 20
3.17589
 30
0.0
 40
0
 41
0
  0
VERTEX
  8
0
 10
0.660699
 20
3.1774
 30
0.0
 40
0
 41
0
  0
VERTEX
  8
0
 10
0.690647
 20
3.16385
 30
0.0
 40
0
 41
0
  0
VERTEX
  8
0
 10
0.697917
 20
3.15657
 30
0.0
 40
0
 41
0
  0
VERTEX
  8
0
 10
0.966689
 20
2.89307
 30
0.0
 40
0
 41
0
  0
VERTEX
  8
0
 10
0.452094
 20
2.57324
 30
0.0
 40
0
 41
0
  0
SEQEND
 8
0
  0
POLYLINE
  8
0
 62
     13
 66
     1
 10
0
 20
0
 30
0.0
 70
     1
 40
0
 41
0
  0
VERTEX
  8
0
 10
2.08436
 20
2.57324
 30
0.0
 40
0
 41
0
  0
VERTEX
  8
0
 10
1.96978
 20
3.11703
 30
0.0
 40
0
 41
0
  0
VERTEX
  8
0
 10
1.96772
 20
3.12706
 30
0.0
 40
0
 41
0
  0
VERTEX
  8
0
 10
1.95014
 20
3.15483
 30
0.0
 40
0
 41
0
  0
VERTEX
  8
0
 10
1.91585
 20
3.17589
 30
0.0
 40
0
 41
0
  0
VERTEX
  8
0
 10
1.87571
 20
3.1774
 30
0.0
 40
0
 41
0
  0
VERTEX
  8
0
 10
1.84576
 20
3.16385
 30
0.0
 40
0
 41
0
  0
VERTEX
  8
0
 10
1.83854
 20
3.15657
 30
0.0
 40
0
 41
0
  0
VERTEX
  8
0
 10
1.56976
 20
2.89307
 30
0.0
 40
0
 41
0
  0
VERTEX
  8
0
 10
2.08436
 20
2.57324
 30
0.0
 40
0
 41
0
  0
SEQEND
 8
0
  0
POLYLINE
  8
0
 62
     7
 66
     1
 10
0
 20
0
 30
0.0
 70
     1
 40
0
 41
0
  0
VERTEX
  8
0
 10
1.73438
 20
1.52951
 30
0.0
 40
0
 41
0
  0
VERTEX
  8
0
 10
0.800022
 20
1.52951
 30
0.0
 40
0
 41
0
  0
VERTEX
  8
0
 10
0.771593
 20
1.52951
 30
0.0
 40
0
 41
0
  0
VERTEX
  8
0
 10
0.686307
 20
1.54221
 30
0.0
 40
0
 41
0
  0
VERTEX
  8
0
 10
0.582032
 20
1.57835
 30
0.0
 40
0
 41
0
  0
VERTEX
  8
0
 10
0.4898
 20
1.63482
 30
0.0
 40
0
 41
0
  0
VERTEX
  8
0
 10
0.412056
 20
1.70882
 30
0.0
 40
0
 41
0
  0
VERTEX
  8
0
 10
0.3514
 20
1.79731
 30
0.0
 40
0
 41
0
  0
VERTEX
  8
0
 10
0.310275
 20
1.89735
 30
0.0
 40
0
 41
0
  0
VERTEX
  8
0
 10
0.291233
 20
2.00597
 30
0.0
 40
0
 41
0
  0
VERTEX
  8
0
 10
0.292318
 20
2.09212
 30
0.0
 40
0
 41
0
  0
VERTEX
  8
0
 10
0.296875
 20
2.12011
 30
0.0
 40
0
 41
0
  0
VERTEX
  8
0
 10
0.354167
 20
2.47222
 30
0.0
 40
0
 41
0
  0
VERTEX
  8
0
 10
0.357747
 20
2.4949
 30
0.0
 40
0
 41
0
  0
VERTEX
  8
0
 10
0.376899
 20
2.56153
 30
0.0
 40
0
 41
0
  0
VERTEX
  8
0
 10
0.414333
 20
2.64328
 30
0.0
 40
0
 41
0
  0
VERTEX
  8
0
 10
0.464844
 20
2.71619
 30
0.0
 40
0
 41
0
  0
VERTEX
  8
0
 10
0.526801
 20
2.77886
 30
0.0
 40
0
 41
0
  0
VERTEX
  8
0
 10
0.598687
 20
2.82997
 30
0.0
 40
0
 41
0
  0
VERTEX
  8
0
 10
0.678765
 20
2.86817
 30
0.0
 40
0
 41
0
  0
VERTEX
  8
0
 10
0.765517
 20
2.89208
 30
0.0
 40
0
 41
0
  0
VERTEX
  8
0
 10
0.834364
 20
2.90033
 30
0.0
 40
0
 41
0
  0
VERTEX
  8
0
 10
0.857314
 20
2.90033
 30
0.0
 40
0
 41
0
  0
VERTEX
  8
0
 10
1.67708
 20
2.90033
 30
0.0
 40
0
 41
0
  0
VERTEX
  8
0
 10
1.69997
 20
2.90033
 30
0.0
 40
0
 41
0
  0
VERTEX
  8
0
 10
1.76878
 20
2.89208
 30
0.0
 40
0
 41
0
  0
VERTEX
  8
0
 10
1.85542
 20
2.86817
 30
0.0
 40
0
 41
0
  0
VERTEX
  8
0
 10
1.93539
 20
2.82997
 30
0.0
 40
0
 41
0
  0
VERTEX
  8
0
 10
2.00717
 20
2.77886
 30
0.0
 40
0
 41
0
  0
VERTEX
  8
0
 10
2.06907
 20
2.71619
 30
0.0
 40
0
 41
0
  0
VERTEX
  8
0
 10
2.11957
 20
2.64328
 30
0.0
 40
0
 41
0
  0
VERTEX
  8
0
 10
2.15717
 20
2.56153
 30
0.0
 40
0
 41
0
  0
VERTEX
  8
0
 10
2.17649
 20
2.4949
 30
0.0
 40
0
 41
0
  0
VERTEX
  8
0
 10
2.18024
 20
2.47222
 30
0.0
 40
0
 41
0
  0
VERTEX
  8
0
 10
2.23753
 20
2.12011
 30
0.0
 40
0
 41
0
  0
VERTEX
  8
0
 10
2.24203
 20
2.09212
 30
0.0
 40
0
 41
0
  0
VERTEX
  8
0
 10
2.24306
 20
2.00597
 30
0.0
 40
0
 41
0
  0
VERTEX
  8
0
 10
2.22407
 20
1.89735
 30
0.0
 40
0
 41
0
  0
VERTEX
  8
0
 10
2.18294
 20
1.79731
 30
0.0
 40
0
 41
0
  0
VERTEX
  8
0
 10
2.12224
 20
1.70882
 30
0.0
 40
0
 41
0
  0
VERTEX
  8
0
 10
2.04449
 20
1.63482
 30
0.0
 40
0
 41
0
  0
VERTEX
  8
0
 10
1.95226
 20
1.57835
 30
0.0
 40
0
 41
0
  0
VERTEX
  8
0
 10
1.84804
 20
1.54221
 30
0.0
 40
0
 41
0
  0
VERTEX
  8
0
 10
1.76275
 20
1.52951
 30
0.0
 40
0
 41
0
  0
VERTEX
  8
0
 10
1.73438
 20
1.52951
 30
0.0
 40
0
 41
0
  0
SEQEND
 8
0
  0
POLYLINE
  8
0
 62
     7
 66
     1
 10
0
 20
0
 30
0.0
 70
     1
 40
0
 41
0
  0
VERTEX
  8
0
 10
0.787489
 20
2.03788
 30
0.0
 40
0
 41
0
  0
VERTEX
  8
0
 10
0.775608
 20
2.03788
 30
0.0
 40
0
 41
0
  0
VERTEX
  8
0
 10
0.739963
 20
2.04254
 30
0.0
 40
0
 41
0
  0
VERTEX
  8
0
 10
0.695042
 20
2.0561
 30
0.0
 40
0
 41
0
  0
VERTEX
  8
0
 10
0.653592
 20
2.07829
 30
0.0
 40
0
 41
0
  0
VERTEX
  8
0
 10
0.625054
 20
2.10026
 30
0.0
 40
0
 41
0
  0
VERTEX
  8
0
 10
0.616644
 20
2.10867
 30
0.0
 40
0
 41
0
  0
VERTEX
  8
0
 10
0.608236
 20
2.11714
 30
0.0
 40
0
 41
0
  0
VERTEX
  8
0
 10
0.586262
 20
2.14567
 30
0.0
 40
0
 41
0
  0
VERTEX
  8
0
 10
0.564074
 20
2.18713
 30
0.0
 40
0
 41
0
  0
VERTEX
  8
0
 10
0.550456
 20
2.23204
 30
0.0
 40
0
 41
0
  0
VERTEX
  8
0
 10
0.545844
 20
2.26768
 30
0.0
 40
0
 41
0
  0
VERTEX
  8
0
 10
0.545844
 20
2.27951
 30
0.0
 40
0
 41
0
  0
VERTEX
  8
0
 10
0.545844
 20
2.303
 30
0.0
 40
0
 41
0
  0
VERTEX
  8
0
 10
0.564833
 20
2.37337
 30
0.0
 40
0
 41
0
  0
VERTEX
  8
0
 10
0.616536
 20
2.44988
 30
0.0
 40
0
 41
0
  0
VERTEX
  8
0
 10
0.693033
 20
2.50131
 30
0.0
 40
0
 41
0
  0
VERTEX
  8
0
 10
0.763075
 20
2.52013
 30
0.0
 40
0
 41
0
  0
VERTEX
  8
0
 10
0.786458
 20
2.52013
 30
0.0
 40
0
 41
0
  0
VERTEX
  8
0
 10
0.809896
 20
2.52013
 30
0.0
 40
0
 41
0
  0
VERTEX
  8
0
 10
0.880262
 20
2.50114
 30
0.0
 40
0
 41
0
  0
VERTEX
  8
0
 10
0.95676
 20
2.44943
 30
0.0
 40
0
 41
0
  0
VERTEX
  8
0
 10
1.00819
 20
2.37294
 30
0.0
 40
0
 41
0
  0
VERTEX
  8
0
 10
1.02707
 20
2.3029
 30
0.0
 40
0
 41
0
  0
VERTEX
  8
0
 10
1.02707
 20
2.27951
 30
0.0
 40
0
 41
0
  0
VERTEX
  8
0
 10
1.02707
 20
2.26768
 30
0.0
 40
0
 41
0
  0
VERTEX
  8
0
 10
1.02241
 20
2.23204
 30
0.0
 40
0
 41
0
  0
VERTEX
  8
0
 10
1.00884
 20
2.18713
 30
0.0
 40
0
 41
0
  0
VERTEX
  8
0
 10
0.9866
 20
2.14567
 30
0.0
 40
0
 41
0
  0
VERTEX
  8
0
 10
0.964681
 20
2.11708
 30
0.0
 40
0
 41
0
  0
VERTEX
  8
0
 10
0.956272
 20
2.10867
 30
0.0
 40
0
 41
0
  0
VERTEX
  8
0
 10
0.948188
 20
2.10026
 30
0.0
 40
0
 41
0
  0
VERTEX
  8
0
 10
0.920464
 20
2.07829
 30
0.0
 40
0
 41
0
  0
VERTEX
  8
0
 10
0.879665
 20
2.0561
 30
0.0
 40
0
 41
0
  0
VERTEX
  8
0
 10
0.834961
 20
2.04254
 30
0.0
 40
0
 41
0
  0
VERTEX
  8
0
 10
0.799317
 20
2.03788
 30
0.0
 40
0
 41
0
  0
VERTEX
  8
0
 10
0.787489
 20
2.03788
 30
0.0
 40
0
 41
0
  0
SEQEND
 8
0
  0
POLYLINE
  8
0
 62
     13
 66
     1
 10
0
 20
0
 30
0.0
 70
     1
 40
0
 41
0
  0
VERTEX
  8
0
 10
0.787489
 20
2.50868
 30
0.0
 40
0
 41
0
  0
VERTEX
  8
0
 10
0.809842
 20
2.50868
 30
0.0
 40
0
 41
0
  0
VERTEX
  8
0
 10
0.877061
 20
2.49061
 30
0.0
 40
0
 41
0
  0
VERTEX
  8
0
 10
0.95025
 20
2.44125
 30
0.0
 40
0
 41
0
  0
VERTEX
  8
0
 10
0.999567
 20
2.36806
 30
0.0
 40
0
 41
0
  0
VERTEX
  8
0
 10
1.01769
 20
2.30089
 30
0.0
 40
0
 41
0
  0
VERTEX
  8
0
 10
1.01769
 20
2.27849
 30
0.0
 40
0
 41
0
  0
VERTEX
  8
0
 10
1.01769
 20
2.25612
 30
0.0
 40
0
 41
0
  0
VERTEX
  8
0
 10
0.999567
 20
2.18892
 30
0.0
 40
0
 41
0
  0
VERTEX
  8
0
 10
0.95025
 20
2.11572
 30
0.0
 40
0
 41
0
  0
VERTEX
  8
0
 10
0.877061
 20
2.0664
 30
0.0
 40
0
 41
0
  0
VERTEX
  8
0
 10
0.809842
 20
2.04829
 30
0.0
 40
0
 41
0
  0
VERTEX
  8
0
 10
0.787489
 20
2.04829
 30
0.0
 40
0
 41
0
  0
VERTEX
  8
0
 10
0.765082
 20
2.04829
 30
0.0
 40
0
 41
0
  0
VERTEX
  8
0
 10
0.697917
 20
2.0664
 30
0.0
 40
0
 41
0
  0
VERTEX
  8
0
 10
0.624729
 20
2.11572
 30
0.0
 40
0
 41
0
  0
VERTEX
  8
0
 10
0.575358
 20
2.18892
 30
0.0
 40
0
 41
0
  0
VERTEX
  8
0
 10
0.557292
 20
2.25612
 30
0.0
 40
0
 41
0
  0
VERTEX
  8
0
 10
0.557292
 20
2.27849
 30
0.0
 40
0
 41
0
  0
VERTEX
  8
0
 10
0.557292
 20
2.30089
 30
0.0
 40
0
 41
0
  0
VERTEX
  8
0
 10
0.575358
 20
2.36806
 30
0.0
 40
0
 41
0
  0
VERTEX
  8
0
 10
0.624729
 20
2.44125
 30
0.0
 40
0
 41
0
  0
VERTEX
  8
0
 10
0.697917
 20
2.49061
 30
0.0
 40
0
 41
0
  0
VERTEX
  8
0
 10
0.765082
 20
2.50868
 30
0.0
 40
0
 41
0
  0
VERTEX
  8
0
 10
0.787489
 20
2.50868
 30
0.0
 40
0
 41
0
  0
SEQEND
 8
0
  0
POLYLINE
  8
0
 62
     13
 66
     1
 10
0
 20
0
 30
0.0
 70
     1
 40
0
 41
0
  0
VERTEX
  8
0
 10
0.787489
 20
2.52951
 30
0.0
 40
0
 41
0
  0
VERTEX
  8
0
 10
0.787489
 20
2.50868
 30
0.0
 40
0
 41
0
  0
VERTEX
  8
0
 10
0.787489
 20
2.52951
 30
0.0
 40
0
 41
0
  0
VERTEX
  8
0
 10
0.763021
 20
2.52951
 30
0.0
 40
0
 41
0
  0
VERTEX
  8
0
 10
0.689779
 20
2.50982
 30
0.0
 40
0
 41
0
  0
VERTEX
  8
0
 10
0.610026
 20
2.45594
 30
0.0
 40
0
 41
0
  0
VERTEX
  8
0
 10
0.556153
 20
2.37619
 30
0.0
 40
0
 41
0
  0
VERTEX
  8
0
 10
0.536458
 20
2.30296
 30
0.0
 40
0
 41
0
  0
VERTEX
  8
0
 10
0.536458
 20
2.27849
 30
0.0
 40
0
 41
0
  0
VERTEX
  8
0
 10
0.536458
 20
2.25407
 30
0.0
 40
0
 41
0
  0
VERTEX
  8
0
 10
0.556153
 20
2.18083
 30
0.0
 40
0
 41
0
  0
VERTEX
  8
0
 10
0.610026
 20
2.10101
 30
0.0
 40
0
 41
0
  0
VERTEX
  8
0
 10
0.689779
 20
2.04719
 30
0.0
 40
0
 41
0
  0
VERTEX
  8
0
 10
0.763021
 20
2.02746
 30
0.0
 40
0
 41
0
  0
VERTEX
  8
0
 10
0.787489
 20
2.02746
 30
0.0
 40
0
 41
0
  0
VERTEX
  8
0
 10
0.811903
 20
2.02746
 30
0.0
 40
0
 41
0
  0
VERTEX
  8
0
 10
0.885146
 20
2.04719
 30
0.0
 40
0
 41
0
  0
VERTEX
  8
0
 10
0.964953
 20
2.10101
 30
0.0
 40
0
 41
0
  0
VERTEX
  8
0
 10
1.01877
 20
2.18083
 30
0.0
 40
0
 41
0
  0
VERTEX
  8
0
 10
1.03852
 20
2.25407
 30
0.0
 40
0
 41
0
  0
VERTEX
  8
0
 10
1.03852
 20
2.27849
 30
0.0
 40
0
 41
0
  0
VERTEX
  8
0
 10
1.03868
 20
2.3029
 30
0.0
 40
0
 41
0
  0
VERTEX
  8
0
 10
1.01921
 20
2.37619
 30
0.0
 40
0
 41
0
  0
VERTEX
  8
0
 10
0.965332
 20
2.45594
 30
0.0
 40
0
 41
0
  0
VERTEX
  8
0
 10
0.885308
 20
2.50982
 30
0.0
 40
0
 41
0
  0
VERTEX
  8
0
 10
0.811903
 20
2.52951
 30
0.0
 40
0
 41
0
  0
VERTEX
  8
0
 10
0.787489
 20
2.52951
 30
0.0
 40
0
 41
0
  0
SEQEND
 8
0
  0
POLYLINE
  8
0
 62
     13
 66
     1
 10
0
 20
0
 30
0.0
 70
     1
 40
0
 41
0
  0
VERTEX
  8
0
 10
0.979167
 20
2.27849
 30
0.0
 40
0
 41
0
  0
VERTEX
  8
0
 10
0.979167
 20
2.26887
 30
0.0
 40
0
 41
0
  0
VERTEX
  8
0
 10
0.975261
 20
2.2399
 30
0.0
 40
0
 41
0
  0
VERTEX
  8
0
 10
0.964085
 20
2.20389
 30
0.0
 40
0
 41
0
  0
VERTEX
  8
0
 10
0.946397
 20
2.17133
 30
0.0
 40
0
 41
0
  0
VERTEX
  8
0
 10
0.923014
 20
2.14296
 30
0.0
 40
0
 41
0
  0
VERTEX
  8
0
 10
0.89464
 20
2.11957
 30
0.0
 40
0
 41
0
  0
VERTEX
  8
0
 10
0.862088
 20
2.10189
 30
0.0
 40
0
 41
0
  0
VERTEX
  8
0
 10
0.826064
 20
2.09071
 30
0.0
 40
0
 41
0
  0
VERTEX
  8
0
 10
0.797092
 20
2.08681
 30
0.0
 40
0
 41
0
  0
VERTEX
  8
0
 10
0.787489
 20
2.08681
 30
0.0
 40
0
 41
0
  0
VERTEX
  8
0
 10
0.777832
 20
2.08681
 30
0.0
 40
0
 41
0
  0
VERTEX
  8
0
 10
0.748861
 20
2.09071
 30
0.0
 40
0
 41
0
  0
VERTEX
  8
0
 10
0.712836
 20
2.10189
 30
0.0
 40
0
 41
0
  0
VERTEX
  8
0
 10
0.680285
 20
2.11957
 30
0.0
 40
0
 41
0
  0
VERTEX
  8
0
 10
0.65191
 20
2.14296
 30
0.0
 40
0
 41
0
  0
VERTEX
  8
0
 10
0.628526
 20
2.17133
 30
0.0
 40
0
 41
0
  0
VERTEX
  8
0
 10
0.61084
 20
2.20389
 30
0.0
 40
0
 41
0
  0
VERTEX
  8
0
 10
0.599664
 20
2.2399
 30
0.0
 40
0
 41
0
  0
VERTEX
  8
0
 10
0.595811
 20
2.26887
 30
0.0
 40
0
 41
0
  0
VERTEX
  8
0
 10
0.595811
 20
2.27849
 30
0.0
 40
0
 41
0
  0
VERTEX
  8
0
 10
0.595811
 20
2.28814
 30
0.0
 40
0
 41
0
  0
VERTEX
  8
0
 10
0.599664
 20
2.31711
 30
0.0
 40
0
 41
0
  0
VERTEX
  8
0
 10
0.61084
 20
2.35314
 30
0.0
 40
0
 41
0
  0
VERTEX
  8
0
 10
0.628526
 20
2.38569
 30
0.0
 40
0
 41
0
  0
VERTEX
  8
0
 10
0.65191
 20
2.41407
 30
0.0
 40
0
 41
0
  0
VERTEX
  8
0
 10
0.680285
 20
2.43744
 30
0.0
 40
0
 41
0
  0
VERTEX
  8
0
 10
0.712836
 20
2.45514
 30
0.0
 40
0
 41
0
  0
VERTEX
  8
0
 10
0.748861
 20
2.46631
 30
0.0
 40
0
 41
0
  0
VERTEX
  8
0
 10
0.777832
 20
2.47017
 30
0.0
 40
0
 41
0
  0
VERTEX
  8
0
 10
0.787489
 20
2.47017
 30
0.0
 40
0
 41
0
  0
VERTEX
  8
0
 10
0.797092
 20
2.47017
 30
0.0
 40
0
 41
0
  0
VERTEX
  8
0
 10
0.826064
 20
2.46631
 30
0.0
 40
0
 41
0
  0
VERTEX
  8
0
 10
0.862088
 20
2.45514
 30
0.0
 40
0
 41
0
  0
VERTEX
  8
0
 10
0.89464
 20
2.43744
 30
0.0
 40
0
 41
0
  0
VERTEX
  8
0
 10
0.923014
 20
2.41407
 30
0.0
 40
0
 41
0
  0
VERTEX
  8
0
 10
0.946397
 20
2.38569
 30
0.0
 40
0
 41
0
  0
VERTEX
  8
0
 10
0.964085
 20
2.35314
 30
0.0
 40
0
 41
0
  0
VERTEX
  8
0
 10
0.975261
 20
2.31711
 30
0.0
 40
0
 41
0
  0
VERTEX
  8
0
 10
0.979167
 20
2.28814
 30
0.0
 40
0
 41
0
  0
VERTEX
  8
0
 10
0.979167
 20
2.27849
 30
0.0
 40
0
 41
0
  0
SEQEND
 8
0
  0
POLYLINE
  8
0
 62
     7
 66
     1
 10
0
 20
0
 30
0.0
 70
     1
 40
0
 41
0
  0
VERTEX
  8
0
 10
1.74582
 20
2.03788
 30
0.0
 40
0
 41
0
  0
VERTEX
  8
0
 10
1.73394
 20
2.03788
 30
0.0
 40
0
 41
0
  0
VERTEX
  8
0
 10
1.69829
 20
2.04254
 30
0.0
 40
0
 41
0
  0
VERTEX
  8
0
 10
1.65338
 20
2.0561
 30
0.0
 40
0
 41
0
  0
VERTEX
  8
0
 10
1.61193
 20
2.07829
 30
0.0
 40
0
 41
0
  0
VERTEX
  8
0
 10
1.58339
 20
2.10026
 30
0.0
 40
0
 41
0
  0
VERTEX
  8
0
 10
1.57497
 20
2.10867
 30
0.0
 40
0
 41
0
  0
VERTEX
  8
0
 10
1.56657
 20
2.11714
 30
0.0
 40
0
 41
0
  0
VERTEX
  8
0
 10
1.5446
 20
2.14567
 30
0.0
 40
0
 41
0
  0
VERTEX
  8
0
 10
1.5224
 20
2.18713
 30
0.0
 40
0
 41
0
  0
VERTEX
  8
0
 10
1.50879
 20
2.23204
 30
0.0
 40
0
 41
0
  0
VERTEX
  8
0
 10
1.50418
 20
2.26768
 30
0.0
 40
0
 41
0
  0
VERTEX
  8
0
 10
1.50418
 20
2.27951
 30
0.0
 40
0
 41
0
  0
VERTEX
  8
0
 10
1.50418
 20
2.29139
 30
0.0
 40
0
 41
0
  0
VERTEX
  8
0
 10
1.50879
 20
2.32704
 30
0.0
 40
0
 41
0
  0
VERTEX
  8
0
 10
1.5224
 20
2.37196
 30
0.0
 40
0
 41
0
  0
VERTEX
  8
0
 10
1.5446
 20
2.41342
 30
0.0
 40
0
 41
0
  0
VERTEX
  8
0
 10
1.56657
 20
2.44194
 30
0.0
 40
0
 41
0
  0
VERTEX
  8
0
 10
1.57497
 20
2.45036
 30
0.0
 40
0
 41
0
  0
VERTEX
  8
0
 10
1.58339
 20
2.45882
 30
0.0
 40
0
 41
0
  0
VERTEX
  8
0
 10
1.61193
 20
2.48079
 30
0.0
 40
0
 41
0
  0
VERTEX
  8
0
 10
1.65338
 20
2.50299
 30
0.0
 40
0
 41
0
  0
VERTEX
  8
0
 10
1.69829
 20
2.51654
 30
0.0
 40
0
 41
0
  0
VERTEX
  8
0
 10
1.73394
 20
2.52115
 30
0.0
 40
0
 41
0
  0
VERTEX
  8
0
 10
1.74582
 20
2.52115
 30
0.0
 40
0
 41
0
  0
VERTEX
  8
0
 10
1.76926
 20
2.52115
 30
0.0
 40
0
 41
0
  0
VERTEX
  8
0
 10
1.83963
 20
2.50222
 30
0.0
 40
0
 41
0
  0
VERTEX
  8
0
 10
1.91612
 20
2.45053
 30
0.0
 40
0
 41
0
  0
VERTEX
  8
0
 10
1.96756
 20
2.37397
 30
0.0
 40
0
 41
0
  0
VERTEX
  8
0
 10
1.98643
 20
2.30393
 30
0.0
 40
0
 41
0
  0
VERTEX
  8
0
 10
1.98643
 20
2.28054
 30
0.0
 40
0
 41
0
  0
VERTEX
  8
0
 10
1.9866
 20
2.25694
 30
0.0
 40
0
 41
0
  0
VERTEX
  8
0
 10
1.96804
 20
2.18599
 30
0.0
 40
0
 41
0
  0
VERTEX
  8
0
 10
1.9165
 20
2.10883
 30
0.0
 40
0
 41
0
  0
VERTEX
  8
0
 10
1.83979
 20
2.05692
 30
0.0
 40
0
 41
0
  0
VERTEX
  8
0
 10
1.76932
 20
2.03788
 30
0.0
 40
0
 41
0
  0
VERTEX
  8
0
 10
1.74582
 20
2.03788
 30
0.0
 40
0
 41
0
  0
SEQEND
 8
0
  0
POLYLINE
  8
0
 62
     13
 66
     1
 10
0
 20
0
 30
0.0
 70
     1
 40
0
 41
0
  0
VERTEX
  8
0
 10
1.74582
 20
2.50868
 30
0.0
 40
0
 41
0
  0
VERTEX
  8
0
 10
1.76818
 20
2.50868
 30
0.0
 40
0
 41
0
  0
VERTEX
  8
0
 10
1.83539
 20
2.49061
 30
0.0
 40
0
 41
0
  0
VERTEX
  8
0
 10
1.90858
 20
2.44125
 30
0.0
 40
0
 41
0
  0
VERTEX
  8
0
 10
1.9579
 20
2.36806
 30
0.0
 40
0
 41
0
  0
VERTEX
  8
0
 10
1.97601
 20
2.30089
 30
0.0
 40
0
 41
0
  0
VERTEX
  8
0
 10
1.97601
 20
2.27849
 30
0.0
 40
0
 41
0
  0
VERTEX
  8
0
 10
1.97601
 20
2.25612
 30
0.0
 40
0
 41
0
  0
VERTEX
  8
0
 10
1.9579
 20
2.18892
 30
0.0
 40
0
 41
0
  0
VERTEX
  8
0
 10
1.90858
 20
2.11572
 30
0.0
 40
0
 41
0
  0
VERTEX
  8
0
 10
1.83539
 20
2.0664
 30
0.0
 40
0
 41
0
  0
VERTEX
  8
0
 10
1.76818
 20
2.04829
 30
0.0
 40
0
 41
0
  0
VERTEX
  8
0
 10
1.74582
 20
2.04829
 30
0.0
 40
0
 41
0
  0
VERTEX
  8
0
 10
1.72342
 20
2.04829
 30
0.0
 40
0
 41
0
  0
VERTEX
  8
0
 10
1.65625
 20
2.0664
 30
0.0
 40
0
 41
0
  0
VERTEX
  8
0
 10
1.58306
 20
2.11572
 30
0.0
 40
0
 41
0
  0
VERTEX
  8
0
 10
1.53369
 20
2.18892
 30
0.0
 40
0
 41
0
  0
VERTEX
  8
0
 10
1.51563
 20
2.25612
 30
0.0
 40
0
 41
0
  0
VERTEX
  8
0
 10
1.51563
 20
2.27849
 30
0.0
 40
0
 41
0
  0
VERTEX
  8
0
 10
1.51563
 20
2.30089
 30
0.0
 40
0
 41
0
  0
VERTEX
  8
0
 10
1.53369
 20
2.36806
 30
0.0
 40
0
 41
0
  0
VERTEX
  8
0
 10
1.58306
 20
2.44125
 30
0.0
 40
0
 41
0
  0
VERTEX
  8
0
 10
1.65625
 20
2.49061
 30
0.0
 40
0
 41
0
  0
VERTEX
  8
0
 10
1.72342
 20
2.50868
 30
0.0
 40
0
 41
0
  0
VERTEX
  8
0
 10
1.74582
 20
2.50868
 30
0.0
 40
0
 41
0
  0
SEQEND
 8
0
  0
POLYLINE
  8
0
 62
     13
 66
     1
 10
0
 20
0
 30
0.0
 70
     1
 40
0
 41
0
  0
VERTEX
  8
0
 10
1.74582
 20
2.52951
 30
0.0
 40
0
 41
0
  0
VERTEX
  8
0
 10
1.74582
 20
2.50868
 30
0.0
 40
0
 41
0
  0
VERTEX
  8
0
 10
1.74582
 20
2.52951
 30
0.0
 40
0
 41
0
  0
VERTEX
  8
0
 10
1.72136
 20
2.52951
 30
0.0
 40
0
 41
0
  0
VERTEX
  8
0
 10
1.64811
 20
2.50982
 30
0.0
 40
0
 41
0
  0
VERTEX
  8
0
 10
1.56836
 20
2.45594
 30
0.0
 40
0
 41
0
  0
VERTEX
  8
0
 10
1.51449
 20
2.37619
 30
0.0
 40
0
 41
0
  0
VERTEX
  8
0
 10
1.49479
 20
2.30296
 30
0.0
 40
0
 41
0
  0
VERTEX
  8
0
 10
1.49479
 20
2.27849
 30
0.0
 40
0
 41
0
  0
VERTEX
  8
0
 10
1.49479
 20
2.25407
 30
0.0
 40
0
 41
0
  0
VERTEX
  8
0
 10
1.51449
 20
2.18083
 30
0.0
 40
0
 41
0
  0
VERTEX
  8
0
 10
1.56836
 20
2.10101
 30
0.0
 40
0
 41
0
  0
VERTEX
  8
0
 10
1.64811
 20
2.04719
 30
0.0
 40
0
 41
0
  0
VERTEX
  8
0
 10
1.72136
 20
2.02746
 30
0.0
 40
0
 41
0
  0
VERTEX
  8
0
 10
1.74582
 20
2.02746
 30
0.0
 40
0
 41
0
  0
VERTEX
  8
0
 10
1.77024
 20
2.02746
 30
0.0
 40
0
 41
0
  0
VERTEX
  8
0
 10
1.84347
 20
2.04719
 30
0.0
 40
0
 41
0
  0
VERTEX
  8
0
 10
1.92329
 20
2.10101
 30
0.0
 40
0
 41
0
  0
VERTEX
  8
0
 10
1.97711
 20
2.18083
 30
0.0
 40
0
 41
0
  0
VERTEX
  8
0
 10
1.99685
 20
2.25407
 30
0.0
 40
0
 41
0
  0
VERTEX
  8
0
 10
1.99685
 20
2.27849
 30
0.0
 40
0
 41
0
  0
VERTEX
  8
0
 10
1.99701
 20
2.3029
 30
0.0
 40
0
 41
0
  0
VERTEX
  8
0
 10
1.97754
 20
2.37619
 30
0.0
 40
0
 41
0
  0
VERTEX
  8
0
 10
1.92367
 20
2.45594
 30
0.0
 40
0
 41
0
  0
VERTEX
  8
0
 10
1.84364
 20
2.50982
 30
0.0
 40
0
 41
0
  0
VERTEX
  8
0
 10
1.77024
 20
2.52951
 30
0.0
 40
0
 41
0
  0
VERTEX
  8
0
 10
1.74582
 20
2.52951
 30
0.0
 40
0
 41
0
  0
SEQEND
 8
0
  0
POLYLINE
  8
0
 62
     13
 66
     1
 10
0
 20
0
 30
0.0
 70
     1
 40
0
 41
0
  0
VERTEX
  8
0
 10
1.9375
 20
2.27849
 30
0.0
 40
0
 41
0
  0
VERTEX
  8
0
 10
1.9375
 20
2.26887
 30
0.0
 40
0
 41
0
  0
VERTEX
  8
0
 10
1.9336
 20
2.2399
 30
0.0
 40
0
 41
0
  0
VERTEX
  8
0
 10
1.92242
 20
2.20389
 30
0.0
 40
0
 41
0
  0
VERTEX
  8
0
 10
1.90474
 20
2.17133
 30
0.0
 40
0
 41
0
  0
VERTEX
  8
0
 10
1.88135
 20
2.14296
 30
0.0
 40
0
 41
0
  0
VERTEX
  8
0
 10
1.85297
 20
2.11957
 30
0.0
 40
0
 41
0
  0
VERTEX
  8
0
 10
1.82042
 20
2.10189
 30
0.0
 40
0
 41
0
  0
VERTEX
  8
0
 10
1.7844
 20
2.09071
 30
0.0
 40
0
 41
0
  0
VERTEX
  8
0
 10
1.75543
 20
2.08681
 30
0.0
 40
0
 41
0
  0
VERTEX
  8
0
 10
1.74582
 20
2.08681
 30
0.0
 40
0
 41
0
  0
VERTEX
  8
0
 10
1.73617
 20
2.08681
 30
0.0
 40
0
 41
0
  0
VERTEX
  8
0
 10
1.70719
 20
2.09071
 30
0.0
 40
0
 41
0
  0
VERTEX
  8
0
 10
1.67117
 20
2.10189
 30
0.0
 40
0
 41
0
  0
VERTEX
  8
0
 10
1.63861
 20
2.11957
 30
0.0
 40
0
 41
0
  0
VERTEX
  8
0
 10
1.61025
 20
2.14296
 30
0.0
 40
0
 41
0
  0
VERTEX
  8
0
 10
1.58686
 20
2.17133
 30
0.0
 40
0
 41
0
  0
VERTEX
  8
0
 10
1.56917
 20
2.20389
 30
0.0
 40
0
 41
0
  0
VERTEX
  8
0
 10
1.558
 20
2.2399
 30
0.0
 40
0
 41
0
  0
VERTEX
  8
0
 10
1.55414
 20
2.26887
 30
0.0
 40
0
 41
0
  0
VERTEX
  8
0
 10
1.55414
 20
2.27849
 30
0.0
 40
0
 41
0
  0
VERTEX
  8
0
 10
1.55414
 20
2.28814
 30
0.0
 40
0
 41
0
  0
VERTEX
  8
0
 10
1.558
 20
2.31711
 30
0.0
 40
0
 41
0
  0
VERTEX
  8
0
 10
1.56917
 20
2.35314
 30
0.0
 40
0
 41
0
  0
VERTEX
  8
0
 10
1.58686
 20
2.38569
 30
0.0
 40
0
 41
0
  0
VERTEX
  8
0
 10
1.61025
 20
2.41407
 30
0.0
 40
0
 41
0
  0
VERTEX
  8
0
 10
1.63861
 20
2.43744
 30
0.0
 40
0
 41
0
  0
VERTEX
  8
0
 10
1.67117
 20
2.45514
 30
0.0
 40
0
 41
0
  0
VERTEX
  8
0
 10
1.70719
 20
2.46631
 30
0.0
 40
0
 41
0
  0
VERTEX
  8
0
 10
1.73617
 20
2.47017
 30
0.0
 40
0
 41
0
  0
VERTEX
  8
0
 10
1.74582
 20
2.47017
 30
0.0
 40
0
 41
0
  0
VERTEX
  8
0
 10
1.75543
 20
2.47017
 30
0.0
 40
0
 41
0
  0
VERTEX
  8
0
 10
1.7844
 20
2.46631
 30
0.0
 40
0
 41
0
  0
VERTEX
  8
0
 10
1.82042
 20
2.45514
 30
0.0
 40
0
 41
0
  0
VERTEX
  8
0
 10
1.85297
 20
2.43744
 30
0.0
 40
0
 41
0
  0
VERTEX
  8
0
 10
1.88135
 20
2.41407
 30
0.0
 40
0
 41
0
  0
VERTEX
  8
0
 10
1.90474
 20
2.38569
 30
0.0
 40
0
 41
0
  0
VERTEX
  8
0
 10
1.92242
 20
2.35314
 30
0.0
 40
0
 41
0
  0
VERTEX
  8
0
 10
1.9336
 20
2.31711
 30
0.0
 40
0
 41
0
  0
VERTEX
  8
0
 10
1.9375
 20
2.28814
 30
0.0
 40
0
 41
0
  0
VERTEX
  8
0
 10
1.9375
 20
2.27849
 30
0.0
 40
0
 41
0
  0
SEQEND
 8
0
  0
POLYLINE
  8
0
 62
     13
 66
     1
 10
0
 20
0
 30
0.0
 40
3.4152
 41
3.4152
  0
VERTEX
  8
0
 10
0.690647
 20
1.80761
 30
0.0
 40
0.0474333
 41
0.0474333
  0
VERTEX
  8
0
 10
0.569769
 20
1.80761
 30
0.0
 40
0.0474333
 41
0.0474333
  0
SEQEND
 8
0
  0
POLYLINE
  8
0
 62
     13
 66
     1
 10
0
 20
0
 30
0.0
 40
3.4152
 41
3.4152
  0
VERTEX
  8
0
 10
0.690647
 20
1.89828
 30
0.0
 40
0.0474333
 41
0.0474333
  0
VERTEX
  8
0
 10
0.569769
 20
1.89828
 30
0.0
 40
0.0474333
 41
0.0474333
  0
SEQEND
 8
0
  0
POLYLINE
  8
0
 62
     13
 66
     1
 10
0
 20
0
 30
0.0
 40
3.4152
 41
3.4152
  0
VERTEX
  8
0
 10
0.690647
 20
1.98888
 30
0.0
 40
0.0474333
 41
0.0474333
  0
VERTEX
  8
0
 10
0.569769
 20
1.98888
 30
0.0
 40
0.0474333
 41
0.0474333
  0
SEQEND
 8
0
  0
POLYLINE
  8
0
 62
     13
 66
     1
 10
0
 20
0
 30
0.0
 40
3.4152
 41
3.4152
  0
VERTEX
  8
0
 10
1.99794
 20
1.80761
 30
0.0
 40
0.0474333
 41
0.0474333
  0
VERTEX
  8
0
 10
1.87706
 20
1.80761
 30
0.0
 40
0.0474333
 41
0.0474333
  0
SEQEND
 8
0
  0
POLYLINE
  8
0
 62
     13
 66
     1
 10
0
 20
0
 30
0.0
 40
3.4152
 41
3.4152
  0
VERTEX
  8
0
 10
1.99794
 20
1.89828
 30
0.0
 40
0.0474333
 41
0.0474333
  0
VERTEX
  8
0
 10
1.87706
 20
1.89828
 30
0.0
 40
0.0474333
 41
0.0474333
  0
SEQEND
 8
0
  0
POLYLINE
  8
0
 62
     13
 66
     1
 10
0
 20
0
 30
0.0
 40
3.4152
 41
3.4152
  0
VERTEX
  8
0
 10
1.99794
 20
1.9899
 30
0.0
 40
0.0474333
 41
0.0474333
  0
VERTEX
  8
0
 10
1.87706
 20
1.9899
 30
0.0
 40
0.0474333
 41
0.0474333
  0
SEQEND
 8
0
  0
POLYLINE
  8
0
 62
     13
 66
     1
 10
0
 20
0
 30
0.0
 40
3.4152
 41
3.4152
  0
VERTEX
  8
0
 10
1.26666
 20
1.97846
 30
0.0
 40
0.0474333
 41
0.0474333
  0
VERTEX
  8
0
 10
1.26666
 20
1.96946
 30
0.0
 40
0.0474333
 41
0.0474333
  0
VERTEX
  8
0
 10
1.26297
 20
1.94239
 30
0.0
 40
0.0474333
 41
0.0474333
  0
VERTEX
  8
0
 10
1.25255
 20
1.90875
 30
0.0
 40
0.0474333
 41
0.0474333
  0
VERTEX
  8
0
 10
1.23606
 20
1.87831
 30
0.0
 40
0.0474333
 41
0.0474333
  0
VERTEX
  8
0
 10
1.21419
 20
1.85178
 30
0.0
 40
0.0474333
 41
0.0474333
  0
VERTEX
  8
0
 10
1.18766
 20
1.82992
 30
0.0
 40
0.0474333
 41
0.0474333
  0
VERTEX
  8
0
 10
1.15723
 20
1.81342
 30
0.0
 40
0.0474333
 41
0.0474333
  0
VERTEX
  8
0
 10
1.12359
 20
1.803
 30
0.0
 40
0.0474333
 41
0.0474333
  0
VERTEX
  8
0
 10
1.09652
 20
1.79932
 30
0.0
 40
0.0474333
 41
0.0474333
  0
VERTEX
  8
0
 10
1.08751
 20
1.79932
 30
0.0
 40
0.0474333
 41
0.0474333
  0
VERTEX
  8
0
 10
1.07845
 20
1.79932
 30
0.0
 40
0.0474333
 41
0.0474333
  0
VERTEX
  8
0
 10
1.05138
 20
1.803
 30
0.0
 40
0.0474333
 41
0.0474333
  0
VERTEX
  8
0
 10
1.01774
 20
1.81342
 30
0.0
 40
0.0474333
 41
0.0474333
  0
VERTEX
  8
0
 10
0.987304
 20
1.82992
 30
0.0
 40
0.0474333
 41
0.0474333
  0
VERTEX
  8
0
 10
0.960775
 20
1.85178
 30
0.0
 40
0.0474333
 41
0.0474333
  0
VERTEX
  8
0
 10
0.938911
 20
1.87831
 30
0.0
 40
0.0474333
 41
0.0474333
  0
VERTEX
  8
0
 10
0.922364
 20
1.90875
 30
0.0
 40
0.0474333
 41
0.0474333
  0
VERTEX
  8
0
 10
0.911947
 20
1.94239
 30
0.0
 40
0.0474333
 41
0.0474333
  0
VERTEX
  8
0
 10
0.908311
 20
1.96946
 30
0.0
 40
0.0474333
 41
0.0474333
  0
VERTEX
  8
0
 10
0.908311
 20
1.97846
 30
0.0
 40
0.0474333
 41
0.0474333
  0
SEQEND
 8
0
  0
POLYLINE
  8
0
 62
     13
 66
     1
 10
0
 20
0
 30
0.0
 40
3.4152
 41
3.4152
  0
VERTEX
  8
0
 10
1.62603
 20
1.97846
 30
0.0
 40
0.0474333
 41
0.0474333
  0
VERTEX
  8
0
 10
1.62603
 20
1.96946
 30
0.0
 40
0.0474333
 41
0.0474333
  0
VERTEX
  8
0
 10
1.62235
 20
1.94239
 30
0.0
 40
0.0474333
 41
0.0474333
  0
VERTEX
  8
0
 10
1.61193
 20
1.90875
 30
0.0
 40
0.0474333
 41
0.0474333
  0
VERTEX
  8
0
 10
1.59543
 20
1.87831
 30
0.0
 40
0.0474333
 41
0.0474333
  0
VERTEX
  8
0
 10
1.57357
 20
1.85178
 30
0.0
 40
0.0474333
 41
0.0474333
  0
VERTEX
  8
0
 10
1.54704
 20
1.82992
 30
0.0
 40
0.0474333
 41
0.0474333
  0
VERTEX
  8
0
 10
1.5166
 20
1.81342
 30
0.0
 40
0.0474333
 41
0.0474333
  0
VERTEX
  8
0
 10
1.48296
 20
1.803
 30
0.0
 40
0.0474333
 41
0.0474333
  0
VERTEX
  8
0
 10
1.45589
 20
1.79932
 30
0.0
 40
0.0474333
 41
0.0474333
  0
VERTEX
  8
0
 10
1.44689
 20
1.79932
 30
0.0
 40
0.0474333
 41
0.0474333
  0
VERTEX
  8
0
 10
1.43782
 20
1.79932
 30
0.0
 40
0.0474333
 41
0.0474333
  0
VERTEX
  8
0
 10
1.41075
 20
1.803
 30
0.0
 40
0.0474333
 41
0.0474333
  0
VERTEX
  8
0
 10
1.37712
 20
1.81342
 30
0.0
 40
0.0474333
 41
0.0474333
  0
VERTEX
  8
0
 10
1.34668
 20
1.82992
 30
0.0
 40
0.0474333
 41
0.0474333
  0
VERTEX
  8
0
 10
1.32015
 20
1.85178
 30
0.0
 40
0.0474333
 41
0.0474333
  0
VERTEX
  8
0
 10
1.29829
 20
1.87831
 30
0.0
 40
0.0474333
 41
0.0474333
  0
VERTEX
  8
0
 10
1.28174
 20
1.90875
 30
0.0
 40
0.0474333
 41
0.0474333
  0
VERTEX
  8
0
 10
1.27132
 20
1.94239
 30
0.0
 40
0.0474333
 41
0.0474333
  0
VERTEX
  8
0
 10
1.26769
 20
1.96946
 30
0.0
 40
0.0474333
 41
0.0474333
  0
VERTEX
  8
0
 10
1.26769
 20
1.97846
 30
0.0
 40
0.0474333
 41
0.0474333
  0
SEQEND
 8
0
  0
POLYLINE
  8
0
 62
     40
 66
     1
 10
0
 20
0
 30
0.0
 70
     1
 40
0
 41
0
  0
VERTEX
  8
0
 10
1.16667
 20
2.06282
 30
0.0
 40
0
 41
0
  0
VERTEX
  8
0
 10
1.36773
 20
2.06282
 30
0.0
 40
0
 41
0
  0
VERTEX
  8
0
 10
1.37055
 20
2.06282
 30
0.0
 40
0
 41
0
  0
VERTEX
  8
0
 10
1.37902
 20
2.05925
 30
0.0
 40
0
 41
0
  0
VERTEX
  8
0
 10
1.38569
 20
2.05051
 30
0.0
 40
0
 41
0
  0
VERTEX
  8
0
 10
1.38645
 20
2.03956
 30
0.0
 40
0
 41
0
  0
VERTEX
  8
0
 10
1.38232
 20
2.03136
 30
0.0
 40
0
 41
0
  0
VERTEX
  8
0
 10
1.38021
 20
2.02951
 30
0.0
 40
0
 41
0
  0
VERTEX
  8
0
 10
1.28022
 20
1.94413
 30
0.0
 40
0
 41
0
  0
VERTEX
  8
0
 10
1.27837
 20
1.94254
 30
0.0
 40
0
 41
0
  0
VERTEX
  8
0
 10
1.2678
 20
1.9394
 30
0.0
 40
0
 41
0
  0
VERTEX
  8
0
 10
1.25776
 20
1.94254
 30
0.0
 40
0
 41
0
  0
VERTEX
  8
0
 10
1.25624
 20
1.94413
 30
0.0
 40
0
 41
0
  0
VERTEX
  8
0
 10
1.15625
 20
2.02951
 30
0.0
 40
0
 41
0
  0
VERTEX
  8
0
 10
1.15381
 20
2.03131
 30
0.0
 40
0
 41
0
  0
VERTEX
  8
0
 10
1.14876
 20
2.03956
 30
0.0
 40
0
 41
0
  0
VERTEX
  8
0
 10
1.14893
 20
2.05051
 30
0.0
 40
0
 41
0
  0
VERTEX
  8
0
 10
1.15533
 20
2.05925
 30
0.0
 40
0
 41
0
  0
VERTEX
  8
0
 10
1.16379
 20
2.06282
 30
0.0
 40
0
 41
0
  0
VERTEX
  8
0
 10
1.16667
 20
2.06282
 30
0.0
 40
0
 41
0
  0
SEQEND
 8
0
  0
POLYLINE
  8
0
 62
     13
 66
     1
 10
0
 20
0
 30
0.0
 70
     1
 40
0
 41
0
  0
VERTEX
  8
0
 10
1.26877
 20
2.5535
 30
0.0
 40
0
 41
0
  0
VERTEX
  8
0
 10
1.23844
 20
2.5535
 30
0.0
 40
0
 41
0
  0
VERTEX
  8
0
 10
1.14757
 20
2.57801
 30
0.0
 40
0
 41
0
  0
VERTEX
  8
0
 10
1.04856
 20
2.64475
 30
0.0
 40
0
 41
0
  0
VERTEX
  8
0
 10
0.981771
 20
2.74376
 30
0.0
 40
0
 41
0
  0
VERTEX
  8
0
 10
0.957303
 20
2.83464
 30
0.0
 40
0
 41
0
  0
VERTEX
  8
0
 10
0.957303
 20
2.8649
 30
0.0
 40
0
 41
0
  0
VERTEX
  8
0
 10
0.957303
 20
2.90136
 30
0.0
 40
0
 41
0
  0
VERTEX
  8
0
 10
1.58018
 20
2.90136
 30
0.0
 40
0
 41
0
  0
VERTEX
  8
0
 10
1.58018
 20
2.8649
 30
0.0
 40
0
 41
0
  0
VERTEX
  8
0
 10
1.58018
 20
2.83464
 30
0.0
 40
0
 41
0
  0
VERTEX
  8
0
 10
1.55567
 20
2.74376
 30
0.0
 40
0
 41
0
  0
VERTEX
  8
0
 10
1.48893
 20
2.64475
 30
0.0
 40
0
 41
0
  0
VERTEX
  8
0
 10
1.38992
 20
2.57801
 30
0.0
 40
0
 41
0
  0
VERTEX
  8
0
 10
1.29905
 20
2.5535
 30
0.0
 40
0
 41
0
  0
VERTEX
  8
0
 10
1.26877
 20
2.5535
 30
0.0
 40
0
 41
0
  0
SEQEND
 8
0
  0
POLYLINE
  8
0
 62
     40
 66
     1
 10
0
 20
0
 30
0.0
 70
     1
 40
0
 41
0
  0
VERTEX
  8
0
 10
1.43435
 20
1.29514
 30
0.0
 40
0
 41
0
  0
VERTEX
  8
0
 10
1.43435
 20
1.28684
 30
0.0
 40
0
 41
0
  0
VERTEX
  8
0
 10
1.43099
 20
1.26177
 30
0.0
 40
0
 41
0
  0
VERTEX
  8
0
 10
1.42133
 20
1.23069
 30
0.0
 40
0
 41
0
  0
VERTEX
  8
0
 10
1.40603
 20
1.20258
 30
0.0
 40
0
 41
0
  0
VERTEX
  8
0
 10
1.38585
 20
1.17806
 30
0.0
 40
0
 41
0
  0
VERTEX
  8
0
 10
1.36133
 20
1.15782
 30
0.0
 40
0
 41
0
  0
VERTEX
  8
0
 10
1.33323
 20
1.14252
 30
0.0
 40
0
 41
0
  0
VERTEX
  8
0
 10
1.30214
 20
1.13292
 30
0.0
 40
0
 41
0
  0
VERTEX
  8
0
 10
1.27707
 20
1.1295
 30
0.0
 40
0
 41
0
  0
VERTEX
  8
0
 10
1.26877
 20
1.1295
 30
0.0
 40
0
 41
0
  0
VERTEX
  8
0
 10
1.26042
 20
1.1295
 30
0.0
 40
0
 41
0
  0
VERTEX
  8
0
 10
1.23535
 20
1.13292
 30
0.0
 40
0
 41
0
  0
VERTEX
  8
0
 10
1.20426
 20
1.14252
 30
0.0
 40
0
 41
0
  0
VERTEX
  8
0
 10
1.17616
 20
1.15782
 30
0.0
 40
0
 41
0
  0
VERTEX
  8
0
 10
1.15164
 20
1.17806
 30
0.0
 40
0
 41
0
  0
VERTEX
  8
0
 10
1.1314
 20
1.20258
 30
0.0
 40
0
 41
0
  0
VERTEX
  8
0
 10
1.1161
 20
1.23069
 30
0.0
 40
0
 41
0
  0
VERTEX
  8
0
 10
1.1065
 20
1.26177
 30
0.0
 40
0
 41
0
  0
VERTEX
  8
0
 10
1.10314
 20
1.28684
 30
0.0
 40
0
 41
0
  0
VERTEX
  8
0
 10
1.10314
 20
1.29514
 30
0.0
 40
0
 41
0
  0
VERTEX
  8
0
 10
1.10314
 20
1.30349
 30
0.0
 40
0
 41
0
  0
VERTEX
  8
0
 10
1.1065
 20
1.32856
 30
0.0
 40
0
 41
0
  0
VERTEX
  8
0
 10
1.1161
 20
1.35965
 30
0.0
 40
0
 41
0
  0
VERTEX
  8
0
 10
1.1314
 20
1.38775
 30
0.0
 40
0
 41
0
  0
VERTEX
  8
0
 10
1.15164
 20
1.41228
 30
0.0
 40
0
 41
0
  0
VERTEX
  8
0
 10
1.17616
 20
1.43251
 30
0.0
 40
0
 41
0
  0
VERTEX
  8
0
 10
1.20426
 20
1.44781
 30
0.0
 40
0
 41
0
  0
VERTEX
  8
0
 10
1.23535
 20
1.45742
 30
0.0
 40
0
 41
0
  0
VERTEX
  8
0
 10
1.26042
 20
1.46078
 30
0.0
 40
0
 41
0
  0
VERTEX
  8
0
 10
1.26877
 20
1.46078
 30
0.0
 40
0
 41
0
  0
VERTEX
  8
0
 10
1.27707
 20
1.46078
 30
0.0
 40
0
 41
0
  0
VERTEX
  8
0
 10
1.30214
 20
1.45742
 30
0.0
 40
0
 41
0
  0
VERTEX
  8
0
 10
1.33323
 20
1.44781
 30
0.0
 40
0
 41
0
  0
VERTEX
  8
0
 10
1.36133
 20
1.43251
 30
0.0
 40
0
 41
0
  0
VERTEX
  8
0
 10
1.38585
 20
1.41228
 30
0.0
 40
0
 41
0
  0
VERTEX
  8
0
 10
1.40603
 20
1.38775
 30
0.0
 40
0
 41
0
  0
VERTEX
  8
0
 10
1.42133
 20
1.35965
 30
0.0
 40
0
 41
0
  0
VERTEX
  8
0
 10
1.43099
 20
1.32856
 30
0.0
 40
0
 41
0
  0
VERTEX
  8
0
 10
1.43435
 20
1.30349
 30
0.0
 40
0
 41
0
  0
VERTEX
  8
0
 10
1.43435
 20
1.29514
 30
0.0
 40
0
 41
0
  0
SEQEND
 8
0
  0
POLYLINE
  8
0
 62
     13
 66
     1
 10
0
 20
0
 30
0.0
 70
     1
 40
0
 41
0
  0
VERTEX
  8
0
 10
1.35938
 20
0.0243056
 30
0.0
 40
0
 41
0
  0
VERTEX
  8
0
 10
1.17394
 20
0.0243056
 30
0.0
 40
0
 41
0
  0
VERTEX
  8
0
 10
1.14258
 20
0.0243056
 30
0.0
 40
0
 41
0
  0
VERTEX
  8
0
 10
1.0485
 20
0.0497504
 30
0.0
 40
0
 41
0
  0
VERTEX
  8
0
 10
0.946181
 20
0.118869
 30
0.0
 40
0
 41
0
  0
VERTEX
  8
0
 10
0.877333
 20
0.221192
 30
0.0
 40
0
 41
0
  0
VERTEX
  8
0
 10
0.852106
 20
0.314942
 30
0.0
 40
0
 41
0
  0
VERTEX
  8
0
 10
0.852106
 20
0.346192
 30
0.0
 40
0
 41
0
  0
VERTEX
  8
0
 10
0.852106
 20
0.745117
 30
0.0
 40
0
 41
0
  0
VERTEX
  8
0
 10
0.852106
 20
0.776531
 30
0.0
 40
0
 41
0
  0
VERTEX
  8
0
 10
0.877442
 20
0.870606
 30
0.0
 40
0
 41
0
  0
VERTEX
  8
0
 10
0.946615
 20
0.972874
 30
0.0
 40
0
 41
0
  0
VERTEX
  8
0
 10
1.04894
 20
1.04177
 30
0.0
 40
0
 41
0
  0
VERTEX
  8
0
 10
1.14269
 20
1.067
 30
0.0
 40
0
 41
0
  0
VERTEX
  8
0
 10
1.17394
 20
1.067
 30
0.0
 40
0
 41
0
  0
VERTEX
  8
0
 10
1.35938
 20
1.067
 30
0.0
 40
0
 41
0
  0
VERTEX
  8
0
 10
1.39074
 20
1.067
 30
0.0
 40
0
 41
0
  0
VERTEX
  8
0
 10
1.48481
 20
1.04161
 30
0.0
 40
0
 41
0
  0
VERTEX
  8
0
 10
1.58708
 20
0.972493
 30
0.0
 40
0
 41
0
  0
VERTEX
  8
0
 10
1.65597
 20
0.870171
 30
0.0
 40
0
 41
0
  0
VERTEX
  8
0
 10
1.68126
 20
0.776421
 30
0.0
 40
0
 41
0
  0
VERTEX
  8
0
 10
1.68126
 20
0.745117
 30
0.0
 40
0
 41
0
  0
VERTEX
  8
0
 10
1.68126
 20
0.346192
 30
0.0
 40
0
 41
0
  0
VERTEX
  8
0
 10
1.68143
 20
0.314887
 30
0.0
 40
0
 41
0
  0
VERTEX
  8
0
 10
1.65642
 20
0.220757
 30
0.0
 40
0
 41
0
  0
VERTEX
  8
0
 10
1.58746
 20
0.11849
 30
0.0
 40
0
 41
0
  0
VERTEX
  8
0
 10
1.48492
 20
0.0495876
 30
0.0
 40
0
 41
0
  0
VERTEX
  8
0
 10
1.39074
 20
0.0243056
 30
0.0
 40
0
 41
0
  0
VERTEX
  8
0
 10
1.35938
 20
0.0243056
 30
0.0
 40
0
 41
0
  0
SEQEND
 8
0
  0
POLYLINE
  8
0
 62
     40
 66
     1
 10
0
 20
0
 30
0.0
 70
     1
 40
0
 41
0
  0
VERTEX
  8
0
 10
1.35211
 20
0.117025
 30
0.0
 40
0
 41
0
  0
VERTEX
  8
0
 10
1.18332
 20
0.117025
 30
0.0
 40
0
 41
0
  0
VERTEX
  8
0
 10
1.15468
 20
0.117025
 30
0.0
 40
0
 41
0
  0
VERTEX
  8
0
 10
1.06885
 20
0.140082
 30
0.0
 40
0
 41
0
  0
VERTEX
  8
0
 10
0.975478
 20
0.202963
 30
0.0
 40
0
 41
0
  0
VERTEX
  8
0
 10
0.912597
 20
0.296332
 30
0.0
 40
0
 41
0
  0
VERTEX
  8
0
 10
0.889594
 20
0.382161
 30
0.0
 40
0
 41
0
  0
VERTEX
  8
0
 10
0.889594
 20
0.410753
 30
0.0
 40
0
 41
0
  0
VERTEX
  8
0
 10
0.889594
 20
0.774306
 30
0.0
 40
0
 41
0
  0
VERTEX
  8
0
 10
0.889594
 20
0.802951
 30
0.0
 40
0
 41
0
  0
VERTEX
  8
0
 10
0.912597
 20
0.888781
 30
0.0
 40
0
 41
0
  0
VERTEX
  8
0
 10
0.975478
 20
0.98215
 30
0.0
 40
0
 41
0
  0
VERTEX
  8
0
 10
1.06885
 20
1.04503
 30
0.0
 40
0
 41
0
  0
VERTEX
  8
0
 10
1.15468
 20
1.06803
 30
0.0
 40
0
 41
0
  0
VERTEX
  8
0
 10
1.18332
 20
1.06803
 30
0.0
 40
0
 41
0
  0
VERTEX
  8
0
 10
1.35211
 20
1.06803
 30
0.0
 40
0
 41
0
  0
VERTEX
  8
0
 10
1.3807
 20
1.06803
 30
0.0
 40
0
 41
0
  0
VERTEX
  8
0
 10
1.46653
 20
1.04503
 30
0.0
 40
0
 41
0
  0
VERTEX
  8
0
 10
1.5599
 20
0.98215
 30
0.0
 40
0
 41
0
  0
VERTEX
  8
0
 10
1.62278
 20
0.888781
 30
0.0
 40
0
 41
0
  0
VERTEX
  8
0
 10
1.64583
 20
0.802951
 30
0.0
 40
0
 41
0
  0
VERTEX
  8
0
 10
1.64583
 20
0.774306
 30
0.0
 40
0
 41
0
  0
VERTEX
  8
0
 10
1.64583
 20
0.410753
 30
0.0
 40
0
 41
0
  0
VERTEX
  8
0
 10
1.64561
 20
0.382161
 30
0.0
 40
0
 41
0
  0
VERTEX
  8
0
 10
1.62218
 20
0.296332
 30
0.0
 40
0
 41
0
  0
VERTEX
  8
0
 10
1.55908
 20
0.202963
 30
0.0
 40
0
 41
0
  0
VERTEX
  8
0
 10
1.46593
 20
0.140082
 30
0.0
 40
0
 41
0
  0
VERTEX
  8
0
 10
1.38053
 20
0.117025
 30
0.0
 40
0
 41
0
  0
VERTEX
  8
0
 10
1.35211
 20
0.117025
 30
0.0
 40
0
 41
0
  0
SEQEND
 8
0
  0
POLYLINE
  8
0
 62
     7
 66
     1
 10
0
 20
0
 30
0.0
 70
     1
 40
0
 41
0
  0
VERTEX
  8
0
 10
0.921875
 20
0.0326606
 30
0.0
 40
0
 41
0
  0
VERTEX
  8
0
 10
0.476019
 20
0.0326606
 30
0.0
 40
0
 41
0
  0
VERTEX
  8
0
 10
0.465007
 20
0.0326606
 30
0.0
 40
0
 41
0
  0
VERTEX
  8
0
 10
0.432075
 20
0.0414497
 30
0.0
 40
0
 41
0
  0
VERTEX
  8
0
 10
0.396322
 20
0.0654839
 30
0.0
 40
0
 41
0
  0
VERTEX
  8
0
 10
0.372288
 20
0.101237
 30
0.0
 40
0
 41
0
  0
VERTEX
  8
0
 10
0.363553
 20
0.134169
 30
0.0
 40
0
 41
0
  0
VERTEX
  8
0
 10
0.363553
 20
0.145128
 30
0.0
 40
0
 41
0
  0
VERTEX
  8
0
 10
0.363553
 20
0.172526
 30
0.0
 40
0
 41
0
  0
VERTEX
  8
0
 10
0.385633
 20
0.254557
 30
0.0
 40
0
 41
0
  0
VERTEX
  8
0
 10
0.445964
 20
0.343967
 30
0.0
 40
0
 41
0
  0
VERTEX
  8
0
 10
0.535374
 20
0.404297
 30
0.0
 40
0
 41
0
  0
VERTEX
  8
0
 10
0.617404
 20
0.426378
 30
0.0
 40
0
 41
0
  0
VERTEX
  8
0
 10
0.644803
 20
0.426378
 30
0.0
 40
0
 41
0
  0
VERTEX
  8
0
 10
0.752061
 20
0.426378
 30
0.0
 40
0
 41
0
  0
VERTEX
  8
0
 10
0.779406
 20
0.426378
 30
0.0
 40
0
 41
0
  0
VERTEX
  8
0
 10
0.861436
 20
0.404297
 30
0.0
 40
0
 41
0
  0
VERTEX
  8
0
 10
0.950846
 20
0.343967
 30
0.0
 40
0
 41
0
  0
VERTEX
  8
0
 10
1.01118
 20
0.254557
 30
0.0
 40
0
 41
0
  0
VERTEX
  8
0
 10
1.03331
 20
0.172526
 30
0.0
 40
0
 41
0
  0
VERTEX
  8
0
 10
1.03331
 20
0.145128
 30
0.0
 40
0
 41
0
  0
VERTEX
  8
0
 10
1.03348
 20
0.134223
 30
0.0
 40
0
 41
0
  0
VERTEX
  8
0
 10
1.02512
 20
0.101237
 30
0.0
 40
0
 41
0
  0
VERTEX
  8
0
 10
1.00141
 20
0.0654839
 30
0.0
 40
0
 41
0
  0
VERTEX
  8
0
 10
0.965767
 20
0.0414497
 30
0.0
 40
0
 41
0
  0
VERTEX
  8
0
 10
0.932835
 20
0.0326606
 30
0.0
 40
0
 41
0
  0
VERTEX
  8
0
 10
0.921875
 20
0.0326606
 30
0.0
 40
0
 41
0
  0
SEQEND
 8
0
  0
POLYLINE
  8
0
 62
     7
 66
     1
 10
0
 20
0
 30
0.0
 70
     1
 40
0
 41
0
  0
VERTEX
  8
0
 10
2.05832
 20
0.0326606
 30
0.0
 40
0
 41
0
  0
VERTEX
  8
0
 10
1.61253
 20
0.0326606
 30
0.0
 40
0
 41
0
  0
VERTEX
  8
0
 10
1.60151
 20
0.0326606
 30
0.0
 40
0
 41
0
  0
VERTEX
  8
0
 10
1.56853
 20
0.0414497
 30
0.0
 40
0
 41
0
  0
VERTEX
  8
0
 10
1.53282
 20
0.0654839
 30
0.0
 40
0
 41
0
  0
VERTEX
  8
0
 10
1.50879
 20
0.101237
 30
0.0
 40
0
 41
0
  0
VERTEX
  8
0
 10
1.5
 20
0.134169
 30
0.0
 40
0
 41
0
  0
VERTEX
  8
0
 10
1.5
 20
0.145128
 30
0.0
 40
0
 41
0
  0
VERTEX
  8
0
 10
1.5
 20
0.172526
 30
0.0
 40
0
 41
0
  0
VERTEX
  8
0
 10
1.52208
 20
0.254557
 30
0.0
 40
0
 41
0
  0
VERTEX
  8
0
 10
1.58242
 20
0.343967
 30
0.0
 40
0
 41
0
  0
VERTEX
  8
0
 10
1.67182
 20
0.404297
 30
0.0
 40
0
 41
0
  0
VERTEX
  8
0
 10
1.75385
 20
0.426378
 30
0.0
 40
0
 41
0
  0
VERTEX
  8
0
 10
1.78125
 20
0.426378
 30
0.0
 40
0
 41
0
  0
VERTEX
  8
0
 10
1.88857
 20
0.426378
 30
0.0
 40
0
 41
0
  0
VERTEX
  8
0
 10
1.9159
 20
0.426378
 30
0.0
 40
0
 41
0
  0
VERTEX
  8
0
 10
1.99794
 20
0.404297
 30
0.0
 40
0
 41
0
  0
VERTEX
  8
0
 10
2.08735
 20
0.343967
 30
0.0
 40
0
 41
0
  0
VERTEX
  8
0
 10
2.14768
 20
0.254557
 30
0.0
 40
0
 41
0
  0
VERTEX
  8
0
 10
2.16982
 20
0.172526
 30
0.0
 40
0
 41
0
  0
VERTEX
  8
0
 10
2.16982
 20
0.145128
 30
0.0
 40
0
 41
0
  0
VERTEX
  8
0
 10
2.16997
 20
0.134223
 30
0.0
 40
0
 41
0
  0
VERTEX
  8
0
 10
2.16146
 20
0.101237
 30
0.0
 40
0
 41
0
  0
VERTEX
  8
0
 10
2.13747
 20
0.0654839
 30
0.0
 40
0
 41
0
  0
VERTEX
  8
0
 10
2.10178
 20
0.0414497
 30
0.0
 40
0
 41
0
  0
VERTEX
  8
0
 10
2.06917
 20
0.0326606
 30
0.0
 40
0
 41
0
  0
VERTEX
  8
0
 10
2.05832
 20
0.0326606
 30
0.0
 40
0
 41
0
  0
SEQEND
 8
0
  0
POLYLINE
  8
0
 62
     7
 66
     1
 10
0
 20
0
 30
0.0
 70
     1
 40
0
 41
0
  0
VERTEX
  8
0
 10
1.17188
 20
0.811578
 30
0.0
 40
0
 41
0
  0
VERTEX
  8
0
 10
1.18066
 20
0.802789
 30
0.0
 40
0
 41
0
  0
VERTEX
  8
0
 10
1.20003
 20
0.769206
 30
0.0
 40
0
 41
0
  0
VERTEX
  8
0
 10
1.20942
 20
0.721029
 30
0.0
 40
0
 41
0
  0
VERTEX
  8
0
 10
1.20003
 20
0.672851
 30
0.0
 40
0
 41
0
  0
VERTEX
  8
0
 10
1.18066
 20
0.639268
 30
0.0
 40
0
 41
0
  0
VERTEX
  8
0
 10
1.17188
 20
0.630425
 30
0.0
 40
0
 41
0
  0
VERTEX
  8
0
 10
1.16303
 20
0.621636
 30
0.0
 40
0
 41
0
  0
VERTEX
  8
0
 10
1.12945
 20
0.602268
 30
0.0
 40
0
 41
0
  0
VERTEX
  8
0
 10
1.08127
 20
0.592882
 30
0.0
 40
0
 41
0
  0
VERTEX
  8
0
 10
1.03309
 20
0.602268
 30
0.0
 40
0
 41
0
  0
VERTEX
  8
0
 10
0.999511
 20
0.621636
 30
0.0
 40
0
 41
0
  0
VERTEX
  8
0
 10
0.990722
 20
0.630425
 30
0.0
 40
0
 41
0
  0
VERTEX
  8
0
 10
0.981879
 20
0.639268
 30
0.0
 40
0
 41
0
  0
VERTEX
  8
0
 10
0.962511
 20
0.672851
 30
0.0
 40
0
 41
0
  0
VERTEX
  8
0
 10
0.953125
 20
0.721029
 30
0.0
 40
0
 41
0
  0
VERTEX
  8
0
 10
0.962511
 20
0.769206
 30
0.0
 40
0
 41
0
  0
VERTEX
  8
0
 10
0.981879
 20
0.802789
 30
0.0
 40
0
 41
0
  0
VERTEX
  8
0
 10
0.990722
 20
0.811578
 30
0.0
 40
0
 41
0
  0
VERTEX
  8
0
 10
0.999511
 20
0.820421
 30
0.0
 40
0
 41
0
  0
VERTEX
  8
0
 10
1.03309
 20
0.839789
 30
0.0
 40
0
 41
0
  0
VERTEX
  8
0
 10
1.08127
 20
0.849175
 30
0.0
 40
0
 41
0
  0
VERTEX
  8
0
 10
1.12945
 20
0.839789
 30
0.0
 40
0
 41
0
  0
VERTEX
  8
0
 10
1.16303
 20
0.820421
 30
0.0
 40
0
 41
0
  0
VERTEX
  8
0
 10
1.17188
 20
0.811578
 30
0.0
 40
0
 41
0
  0
SEQEND
 8
0
  0
POLYLINE
  8
0
 62
     7
 66
     1
 10
0
 20
0
 30
0.0
 70
     1
 40
0
 41
0
  0
VERTEX
  8
0
 10
0.974826
 20
0.732585
 30
0.0
 40
0
 41
0
  0
VERTEX
  8
0
 10
0.983615
 20
0.723796
 30
0.0
 40
0
 41
0
  0
VERTEX
  8
0
 10
1.00293
 20
0.690213
 30
0.0
 40
0
 41
0
  0
VERTEX
  8
0
 10
1.01232
 20
0.642036
 30
0.0
 40
0
 41
0
  0
VERTEX
  8
0
 10
1.00293
 20
0.593858
 30
0.0
 40
0
 41
0
  0
VERTEX
  8
0
 10
0.983615
 20
0.560275
 30
0.0
 40
0
 41
0
  0
VERTEX
  8
0
 10
0.974826
 20
0.551432
 30
0.0
 40
0
 41
0
  0
VERTEX
  8
0
 10
0.965983
 20
0.542643
 30
0.0
 40
0
 41
0
  0
VERTEX
  8
0
 10
0.9324
 20
0.523275
 30
0.0
 40
0
 41
0
  0
VERTEX
  8
0
 10
0.884169
 20
0.513889
 30
0.0
 40
0
 41
0
  0
VERTEX
  8
0
 10
0.835992
 20
0.523275
 30
0.0
 40
0
 41
0
  0
VERTEX
  8
0
 10
0.802408
 20
0.542643
 30
0.0
 40
0
 41
0
  0
VERTEX
  8
0
 10
0.793619
 20
0.551432
 30
0.0
 40
0
 41
0
  0
VERTEX
  8
0
 10
0.784776
 20
0.560275
 30
0.0
 40
0
 41
0
  0
VERTEX
  8
0
 10
0.765463
 20
0.593858
 30
0.0
 40
0
 41
0
  0
VERTEX
  8
0
 10
0.756076
 20
0.642036
 30
0.0
 40
0
 41
0
  0
VERTEX
  8
0
 10
0.765463
 20
0.690213
 30
0.0
 40
0
 41
0
  0
VERTEX
  8
0
 10
0.784776
 20
0.723796
 30
0.0
 40
0
 41
0
  0
VERTEX
  8
0
 10
0.793619
 20
0.732585
 30
0.0
 40
0
 41
0
  0
VERTEX
  8
0
 10
0.802408
 20
0.741428
 30
0.0
 40
0
 41
0
  0
VERTEX
  8
0
 10
0.835992
 20
0.760796
 30
0.0
 40
0
 41
0
  0
VERTEX
  8
0
 10
0.884169
 20
0.770182
 30
0.0
 40
0
 41
0
  0
VERTEX
  8
0
 10
0.9324
 20
0.760796
 30
0.0
 40
0
 41
0
  0
VERTEX
  8
0
 10
0.965983
 20
0.741428
 30
0.0
 40
0
 41
0
  0
VERTEX
  8
0
 10
0.974826
 20
0.732585
 30
0.0
 40
0
 41
0
  0
SEQEND
 8
0
  0
POLYLINE
  8
0
 62
     7
 66
     1
 10
0
 20
0
 30
0.0
 70
     1
 40
0
 41
0
  0
VERTEX
  8
0
 10
1.25136
 20
1.00846
 30
0.0
 40
0
 41
0
  0
VERTEX
  8
0
 10
1.26015
 20
0.999675
 30
0.0
 40
0
 41
0
  0
VERTEX
  8
0
 10
1.27946
 20
0.966092
 30
0.0
 40
0
 41
0
  0
VERTEX
  8
0
 10
1.28885
 20
0.91786
 30
0.0
 40
0
 41
0
  0
VERTEX
  8
0
 10
1.27946
 20
0.869683
 30
0.0
 40
0
 41
0
  0
VERTEX
  8
0
 10
1.26015
 20
0.8361
 30
0.0
 40
0
 41
0
  0
VERTEX
  8
0
 10
1.25136
 20
0.827257
 30
0.0
 40
0
 41
0
  0
VERTEX
  8
0
 10
1.24251
 20
0.818468
 30
0.0
 40
0
 41
0
  0
VERTEX
  8
0
 10
1.20893
 20
0.799154
 30
0.0
 40
0
 41
0
  0
VERTEX
  8
0
 10
1.16075
 20
0.789768
 30
0.0
 40
0
 41
0
  0
VERTEX
  8
0
 10
1.11252
 20
0.799154
 30
0.0
 40
0
 41
0
  0
VERTEX
  8
0
 10
1.07894
 20
0.818468
 30
0.0
 40
0
 41
0
  0
VERTEX
  8
0
 10
1.07015
 20
0.827257
 30
0.0
 40
0
 41
0
  0
VERTEX
  8
0
 10
1.06131
 20
0.8361
 30
0.0
 40
0
 41
0
  0
VERTEX
  8
0
 10
1.04199
 20
0.869683
 30
0.0
 40
0
 41
0
  0
VERTEX
  8
0
 10
1.03261
 20
0.91786
 30
0.0
 40
0
 41
0
  0
VERTEX
  8
0
 10
1.04199
 20
0.966092
 30
0.0
 40
0
 41
0
  0
VERTEX
  8
0
 10
1.06131
 20
0.999675
 30
0.0
 40
0
 41
0
  0
VERTEX
  8
0
 10
1.07015
 20
1.00846
 30
0.0
 40
0
 41
0
  0
VERTEX
  8
0
 10
1.07894
 20
1.01731
 30
0.0
 40
0
 41
0
  0
VERTEX
  8
0
 10
1.11252
 20
1.03662
 30
0.0
 40
0
 41
0
  0
VERTEX
  8
0
 10
1.16075
 20
1.04601
 30
0.0
 40
0
 41
0
  0
VERTEX
  8
0
 10
1.20893
 20
1.03662
 30
0.0
 40
0
 41
0
  0
VERTEX
  8
0
 10
1.24251
 20
1.01731
 30
0.0
 40
0
 41
0
  0
VERTEX
  8
0
 10
1.25136
 20
1.00846
 30
0.0
 40
0
 41
0
  0
SEQEND
 8
0
  0
POLYLINE
  8
0
 62
     7
 66
     1
 10
0
 20
0
 30
0.0
 70
     1
 40
0
 41
0
  0
VERTEX
  8
0
 10
0.714572
 20
0.731608
 30
0.0
 40
0
 41
0
  0
VERTEX
  8
0
 10
0.488553
 20
0.957628
 30
0.0
 40
0
 41
0
  0
VERTEX
  8
0
 10
0.471138
 20
0.975043
 30
0.0
 40
0
 41
0
  0
VERTEX
  8
0
 10
0.432889
 20
1.04134
 30
0.0
 40
0
 41
0
  0
VERTEX
  8
0
 10
0.414333
 20
1.13628
 30
0.0
 40
0
 41
0
  0
VERTEX
  8
0
 10
0.432889
 20
1.23128
 30
0.0
 40
0
 41
0
  0
VERTEX
  8
0
 10
0.471138
 20
1.29753
 30
0.0
 40
0
 41
0
  0
VERTEX
  8
0
 10
0.488553
 20
1.31494
 30
0.0
 40
0
 41
0
  0
VERTEX
  8
0
 10
0.505914
 20
1.33236
 30
0.0
 40
0
 41
0
  0
VERTEX
  8
0
 10
0.572157
 20
1.37061
 30
0.0
 40
0
 41
0
  0
VERTEX
  8
0
 10
0.667156
 20
1.38917
 30
0.0
 40
0
 41
0
  0
VERTEX
  8
0
 10
0.762153
 20
1.37061
 30
0.0
 40
0
 41
0
  0
VERTEX
  8
0
 10
0.828396
 20
1.33236
 30
0.0
 40
0
 41
0
  0
VERTEX
  8
0
 10
0.845811
 20
1.31494
 30
0.0
 40
0
 41
0
  0
VERTEX
  8
0
 10
1.07189
 20
1.08887
 30
0.0
 40
0
 41
0
  0
VERTEX
  8
0
 10
1.08925
 20
1.07151
 30
0.0
 40
0
 41
0
  0
VERTEX
  8
0
 10
1.12755
 20
1.00526
 30
0.0
 40
0
 41
0
  0
VERTEX
  8
0
 10
1.1461
 20
0.910265
 30
0.0
 40
0
 41
0
  0
VERTEX
  8
0
 10
1.12755
 20
0.815267
 30
0.0
 40
0
 41
0
  0
VERTEX
  8
0
 10
1.0893
 20
0.749024
 30
0.0
 40
0
 41
0
  0
VERTEX
  8
0
 10
1.07189
 20
0.731608
 30
0.0
 40
0
 41
0
  0
VERTEX
  8
0
 10
1.05447
 20
0.714193
 30
0.0
 40
0
 41
0
  0
VERTEX
  8
0
 10
0.988172
 20
0.675944
 30
0.0
 40
0
 41
0
  0
VERTEX
  8
0
 10
0.893229
 20
0.657389
 30
0.0
 40
0
 41
0
  0
VERTEX
  8
0
 10
0.798232
 20
0.675944
 30
0.0
 40
0
 41
0
  0
VERTEX
  8
0
 10
0.731987
 20
0.714193
 30
0.0
 40
0
 41
0
  0
VERTEX
  8
0
 10
0.714572
 20
0.731608
 30
0.0
 40
0
 41
0
  0
SEQEND
 8
0
  0
POLYLINE
  8
0
 62
     7
 66
     1
 10
0
 20
0
 30
0.0
 70
     1
 40
0
 41
0
  0
VERTEX
  8
0
 10
2.875
 20
2.15869
 30
0.0
 40
0
 41
0
  0
VERTEX
  8
0
 10
2.875
 20
2.13124
 30
0.0
 40
0
 41
0
  0
VERTEX
  8
0
 10
2.85271
 20
2.04872
 30
0.0
 40
0
 41
0
  0
VERTEX
  8
0
 10
2.79204
 20
1.95899
 30
0.0
 40
0
 41
0
  0
VERTEX
  8
0
 10
2.70226
 20
1.89854
 30
0.0
 40
0
 41
0
  0
VERTEX
  8
0
 10
2.62007
 20
1.87642
 30
0.0
 40
0
 41
0
  0
VERTEX
  8
0
 10
2.59272
 20
1.87642
 30
0.0
 40
0
 41
0
  0
VERTEX
  8
0
 10
2.56521
 20
1.87642
 30
0.0
 40
0
 41
0
  0
VERTEX
  8
0
 10
2.48269
 20
1.89871
 30
0.0
 40
0
 41
0
  0
VERTEX
  8
0
 10
2.39296
 20
1.95936
 30
0.0
 40
0
 41
0
  0
VERTEX
  8
0
 10
2.33251
 20
2.04915
 30
0.0
 40
0
 41
0
  0
VERTEX
  8
0
 10
2.31044
 20
2.13135
 30
0.0
 40
0
 41
0
  0
VERTEX
  8
0
 10
2.31044
 20
2.15869
 30
0.0
 40
0
 41
0
  0
VERTEX
  8
0
 10
2.31044
 20
2.18619
 30
0.0
 40
0
 41
0
  0
VERTEX
  8
0
 10
2.33268
 20
2.26872
 30
0.0
 40
0
 41
0
  0
VERTEX
  8
0
 10
2.39333
 20
2.35846
 30
0.0
 40
0
 41
0
  0
VERTEX
  8
0
 10
2.48313
 20
2.41889
 30
0.0
 40
0
 41
0
  0
VERTEX
  8
0
 10
2.56532
 20
2.44097
 30
0.0
 40
0
 41
0
  0
VERTEX
  8
0
 10
2.59272
 20
2.44097
 30
0.0
 40
0
 41
0
  0
VERTEX
  8
0
 10
2.62017
 20
2.44097
 30
0.0
 40
0
 41
0
  0
VERTEX
  8
0
 10
2.70269
 20
2.41872
 30
0.0
 40
0
 41
0
  0
VERTEX
  8
0
 10
2.79243
 20
2.35807
 30
0.0
 40
0
 41
0
  0
VERTEX
  8
0
 10
2.85286
 20
2.26828
 30
0.0
 40
0
 41
0
  0
VERTEX
  8
0
 10
2.875
 20
2.18608
 30
0.0
 40
0
 41
0
  0
VERTEX
  8
0
 10
2.875
 20
2.15869
 30
0.0
 40
0
 41
0
  0
SEQEND
 8
0
  0
POLYLINE
  8
0
 62
     13
 66
     1
 10
0
 20
0
 30
0.0
 40
3.4152
 41
3.4152
  0
VERTEX
  8
0
 10
0.857314
 20
0.162869
 30
0.0
 40
0.0474333
 41
0.0474333
  0
VERTEX
  8
0
 10
0.857314
 20
0.0836589
 30
0.0
 40
0.0474333
 41
0.0474333
  0
SEQEND
 8
0
  0
POLYLINE
  8
0
 62
     13
 66
     1
 10
0
 20
0
 30
0.0
 40
3.4152
 41
3.4152
  0
VERTEX
  8
0
 10
0.701064
 20
0.162869
 30
0.0
 40
0.0474333
 41
0.0474333
  0
VERTEX
  8
0
 10
0.701064
 20
0.0836589
 30
0.0
 40
0.0474333
 41
0.0474333
  0
SEQEND
 8
0
  0
POLYLINE
  8
0
 62
     13
 66
     1
 10
0
 20
0
 30
0.0
 40
3.4152
 41
3.4152
  0
VERTEX
  8
0
 10
0.544814
 20
0.162869
 30
0.0
 40
0.0474333
 41
0.0474333
  0
VERTEX
  8
0
 10
0.544814
 20
0.0836589
 30
0.0
 40
0.0474333
 41
0.0474333
  0
SEQEND
 8
0
  0
POLYLINE
  8
0
 62
     13
 66
     1
 10
0
 20
0
 30
0.0
 40
3.4152
 41
3.4152
  0
VERTEX
  8
0
 10
2.00315
 20
0.162869
 30
0.0
 40
0.0474333
 41
0.0474333
  0
VERTEX
  8
0
 10
2.00315
 20
0.0836589
 30
0.0
 40
0.0474333
 41
0.0474333
  0
SEQEND
 8
0
  0
POLYLINE
  8
0
 62
     13
 66
     1
 10
0
 20
0
 30
0.0
 40
3.4152
 41
3.4152
  0
VERTEX
  8
0
 10
1.8469
 20
0.162869
 30
0.0
 40
0.0474333
 41
0.0474333
  0
VERTEX
  8
0
 10
1.8469
 20
0.0836589
 30
0.0
 40
0.0474333
 41
0.0474333
  0
SEQEND
 8
0
  0
POLYLINE
  8
0
 62
     13
 66
     1
 10
0
 20
0
 30
0.0
 40
3.4152
 41
3.4152
  0
VERTEX
  8
0
 10
1.69065
 20
0.162869
 30
0.0
 40
0.0474333
 41
0.0474333
  0
VERTEX
  8
0
 10
1.69065
 20
0.0836589
 30
0.0
 40
0.0474333
 41
0.0474333
  0
SEQEND
 8
0
  0
POLYLINE
  8
0
 62
     7
 66
     1
 10
0
 20
0
 30
0.0
 70
     1
 40
0
 41
0
  0
VERTEX
  8
0
 10
2.80524
 20
2.01286
 30
0.0
 40
0
 41
0
  0
VERTEX
  8
0
 10
2.80675
 20
1.99072
 30
0.0
 40
0
 41
0
  0
VERTEX
  8
0
 10
2.81065
 20
1.7595
 30
0.0
 40
0
 41
0
  0
VERTEX
  8
0
 10
2.80935
 20
1.73579
 30
0.0
 40
0
 41
0
  0
VERTEX
  8
0
 10
2.80806
 20
1.71186
 30
0.0
 40
0
 41
0
  0
VERTEX
  8
0
 10
2.79476
 20
1.58931
 30
0.0
 40
0
 41
0
  0
VERTEX
  8
0
 10
2.76899
 20
1.46208
 30
0.0
 40
0
 41
0
  0
VERTEX
  8
0
 10
2.76144
 20
1.43576
 30
0.0
 40
0
 41
0
  0
VERTEX
  8
0
 10
2.75754
 20
1.42275
 30
0.0
 40
0
 41
0
  0
VERTEX
  8
0
 10
2.73432
 20
1.35623
 30
0.0
 40
0
 41
0
  0
VERTEX
  8
0
 10
2.70492
 20
1.28814
 30
0.0
 40
0
 41
0
  0
VERTEX
  8
0
 10
2.69792
 20
1.27431
 30
0.0
 40
0
 41
0
  0
VERTEX
  8
0
 10
2.69086
 20
1.26052
 30
0.0
 40
0
 41
0
  0
VERTEX
  8
0
 10
2.64828
 20
1.19189
 30
0.0
 40
0
 41
0
  0
VERTEX
  8
0
 10
2.59478
 20
1.12484
 30
0.0
 40
0
 41
0
  0
VERTEX
  8
0
 10
2.58231
 20
1.11182
 30
0.0
 40
0
 41
0
  0
VERTEX
  8
0
 10
2.57004
 20
1.0988
 30
0.0
 40
0
 41
0
  0
VERTEX
  8
0
 10
2.49908
 20
1.03933
 30
0.0
 40
0
 41
0
  0
VERTEX
  8
0
 10
2.41818
 20
0.989692
 30
0.0
 40
0
 41
0
  0
VERTEX
  8
0
 10
2.40104
 20
0.981608
 30
0.0
 40
0
 41
0
  0
VERTEX
  8
0
 10
2.38385
 20
0.973579
 30
0.0
 40
0
 41
0
  0
VERTEX
  8
0
 10
2.29531
 20
0.942979
 30
0.0
 40
0
 41
0
  0
VERTEX
  8
0
 10
2.20676
 20
0.924317
 30
0.0
 40
0
 41
0
  0
VERTEX
  8
0
 10
2.18956
 20
0.9222
 30
0.0
 40
0
 41
0
  0
VERTEX
  8
0
 10
2.15207
 20
1.50142
 30
0.0
 40
0
 41
0
  0
VERTEX
  8
0
 10
2.15543
 20
1.50092
 30
0.0
 40
0
 41
0
  0
VERTEX
  8
0
 10
2.17557
 20
1.49826
 30
0.0
 40
0
 41
0
  0
VERTEX
  8
0
 10
2.18229
 20
1.49826
 30
0.0
 40
0
 41
0
  0
VERTEX
  8
0
 10
2.18881
 20
1.49826
 30
0.0
 40
0
 41
0
  0
VERTEX
  8
0
 10
2.20574
 20
1.50299
 30
0.0
 40
0
 41
0
  0
VERTEX
  8
0
 10
2.20833
 20
1.5045
 30
0.0
 40
0
 41
0
  0
VERTEX
  8
0
 10
2.21094
 20
1.50581
 30
0.0
 40
0
 41
0
  0
VERTEX
  8
0
 10
2.22592
 20
1.51687
 30
0.0
 40
0
 41
0
  0
VERTEX
  8
0
 10
2.2424
 20
1.53369
 30
0.0
 40
0
 41
0
  0
VERTEX
  8
0
 10
2.24582
 20
1.53787
 30
0.0
 40
0
 41
0
  0
VERTEX
  8
0
 10
2.24918
 20
1.54204
 30
0.0
 40
0
 41
0
  0
VERTEX
  8
0
 10
2.28304
 20
1.59694
 30
0.0
 40
0
 41
0
  0
VERTEX
  8
0
 10
2.28646
 20
1.60346
 30
0.0
 40
0
 41
0
  0
VERTEX
  8
0
 10
2.29269
 20
1.61649
 30
0.0
 40
0
 41
0
  0
VERTEX
  8
0
 10
2.32058
 20
1.6906
 30
0.0
 40
0
 41
0
  0
VERTEX
  8
0
 10
2.34321
 20
1.77354
 30
0.0
 40
0
 41
0
  0
VERTEX
  8
0
 10
2.3469
 20
1.79096
 30
0.0
 40
0
 41
0
  0
VERTEX
  8
0
 10
2.35053
 20
1.80843
 30
0.0
 40
0
 41
0
  0
VERTEX
  8
0
 10
2.37657
 20
1.99257
 30
0.0
 40
0
 41
0
  0
VERTEX
  8
0
 10
2.37815
 20
2.01183
 30
0.0
 40
0
 41
0
  0
VERTEX
  8
0
 10
2.80524
 20
2.01183
 30
0.0
 40
0
 41
0
  0
VERTEX
  8
0
 10
2.80524
 20
2.01286
 30
0.0
 40
0
 41
0
  0
SEQEND
 8
0
  0
POLYLINE
  8
0
 62
     13
 66
     1
 10
0
 20
0
 30
0.0
 70
     1
 40
0
 41
0
  0
VERTEX
  8
0
 10
2.75
 20
2.07742
 30
0.0
 40
0
 41
0
  0
VERTEX
  8
0
 10
2.75
 20
2.06581
 30
0.0
 40
0
 41
0
  0
VERTEX
  8
0
 10
2.73762
 20
2.03082
 30
0.0
 40
0
 41
0
  0
VERTEX
  8
0
 10
2.70389
 20
1.99274
 30
0.0
 40
0
 41
0
  0
VERTEX
  8
0
 10
2.65392
 20
1.96707
 30
0.0
 40
0
 41
0
  0
VERTEX
  8
0
 10
2.60801
 20
1.95763
 30
0.0
 40
0
 41
0
  0
VERTEX
  8
0
 10
2.59272
 20
1.95763
 30
0.0
 40
0
 41
0
  0
VERTEX
  8
0
 10
2.57736
 20
1.95763
 30
0.0
 40
0
 41
0
  0
VERTEX
  8
0
 10
2.53147
 20
1.96707
 30
0.0
 40
0
 41
0
  0
VERTEX
  8
0
 10
2.4815
 20
1.99274
 30
0.0
 40
0
 41
0
  0
VERTEX
  8
0
 10
2.44775
 20
2.03082
 30
0.0
 40
0
 41
0
  0
VERTEX
  8
0
 10
2.43544
 20
2.06581
 30
0.0
 40
0
 41
0
  0
VERTEX
  8
0
 10
2.43544
 20
2.07742
 30
0.0
 40
0
 41
0
  0
VERTEX
  8
0
 10
2.43544
 20
2.08908
 30
0.0
 40
0
 41
0
  0
VERTEX
  8
0
 10
2.44775
 20
2.12408
 30
0.0
 40
0
 41
0
  0
VERTEX
  8
0
 10
2.4815
 20
2.16217
 30
0.0
 40
0
 41
0
  0
VERTEX
  8
0
 10
2.53147
 20
2.18782
 30
0.0
 40
0
 41
0
  0
VERTEX
  8
0
 10
2.57736
 20
2.19721
 30
0.0
 40
0
 41
0
  0
VERTEX
  8
0
 10
2.59272
 20
2.19721
 30
0.0
 40
0
 41
0
  0
VERTEX
  8
0
 10
2.60801
 20
2.19721
 30
0.0
 40
0
 41
0
  0
VERTEX
  8
0
 10
2.65392
 20
2.18782
 30
0.0
 40
0
 41
0
  0
VERTEX
  8
0
 10
2.70389
 20
2.16217
 30
0.0
 40
0
 41
0
  0
VERTEX
  8
0
 10
2.73762
 20
2.12408
 30
0.0
 40
0
 41
0
  0
VERTEX
  8
0
 10
2.75
 20
2.08908
 30
0.0
 40
0
 41
0
  0
VERTEX
  8
0
 10
2.75
 20
2.07742
 30
0.0
 40
0
 41
0
  0
SEQEND
 8
0
  0
POLYLINE
  8
0
 62
     13
 66
     1
 10
0
 20
0
 30
0.0
 70
     1
 40
0
 41
0
  0
VERTEX
  8
0
 10
2.5281
 20
2.23264
 30
0.0
 40
0
 41
0
  0
VERTEX
  8
0
 10
2.52349
 20
2.23264
 30
0.0
 40
0
 41
0
  0
VERTEX
  8
0
 10
2.50976
 20
2.23633
 30
0.0
 40
0
 41
0
  0
VERTEX
  8
0
 10
2.4949
 20
2.24631
 30
0.0
 40
0
 41
0
  0
VERTEX
  8
0
 10
2.48486
 20
2.26124
 30
0.0
 40
0
 41
0
  0
VERTEX
  8
0
 10
2.48122
 20
2.27496
 30
0.0
 40
0
 41
0
  0
VERTEX
  8
0
 10
2.48122
 20
2.27951
 30
0.0
 40
0
 41
0
  0
VERTEX
  8
0
 10
2.48122
 20
2.32844
 30
0.0
 40
0
 41
0
  0
VERTEX
  8
0
 10
2.48122
 20
2.33306
 30
0.0
 40
0
 41
0
  0
VERTEX
  8
0
 10
2.48486
 20
2.34679
 30
0.0
 40
0
 41
0
  0
VERTEX
  8
0
 10
2.4949
 20
2.36165
 30
0.0
 40
0
 41
0
  0
VERTEX
  8
0
 10
2.50976
 20
2.37169
 30
0.0
 40
0
 41
0
  0
VERTEX
  8
0
 10
2.52349
 20
2.37532
 30
0.0
 40
0
 41
0
  0
VERTEX
  8
0
 10
2.5281
 20
2.37532
 30
0.0
 40
0
 41
0
  0
VERTEX
  8
0
 10
2.53267
 20
2.37532
 30
0.0
 40
0
 41
0
  0
VERTEX
  8
0
 10
2.54639
 20
2.37169
 30
0.0
 40
0
 41
0
  0
VERTEX
  8
0
 10
2.56131
 20
2.36165
 30
0.0
 40
0
 41
0
  0
VERTEX
  8
0
 10
2.57129
 20
2.34679
 30
0.0
 40
0
 41
0
  0
VERTEX
  8
0
 10
2.57497
 20
2.33306
 30
0.0
 40
0
 41
0
  0
VERTEX
  8
0
 10
2.57497
 20
2.32844
 30
0.0
 40
0
 41
0
  0
VERTEX
  8
0
 10
2.57497
 20
2.27951
 30
0.0
 40
0
 41
0
  0
VERTEX
  8
0
 10
2.57497
 20
2.27496
 30
0.0
 40
0
 41
0
  0
VERTEX
  8
0
 10
2.57129
 20
2.26124
 30
0.0
 40
0
 41
0
  0
VERTEX
  8
0
 10
2.56131
 20
2.24631
 30
0.0
 40
0
 41
0
  0
VERTEX
  8
0
 10
2.54639
 20
2.23633
 30
0.0
 40
0
 41
0
  0
VERTEX
  8
0
 10
2.53267
 20
2.23264
 30
0.0
 40
0
 41
0
  0
VERTEX
  8
0
 10
2.5281
 20
2.23264
 30
0.0
 40
0
 41
0
  0
SEQEND
 8
0
  0
POLYLINE
  8
0
 62
     13
 66
     1
 10
0
 20
0
 30
0.0
 70
     1
 40
0
 41
0
  0
VERTEX
  8
0
 10
2.4094
 20
2.14931
 30
0.0
 40
0
 41
0
  0
VERTEX
  8
0
 10
2.40479
 20
2.14931
 30
0.0
 40
0
 41
0
  0
VERTEX
  8
0
 10
2.39106
 20
2.153
 30
0.0
 40
0
 41
0
  0
VERTEX
  8
0
 10
2.37619
 20
2.16297
 30
0.0
 40
0
 41
0
  0
VERTEX
  8
0
 10
2.36615
 20
2.1779
 30
0.0
 40
0
 41
0
  0
VERTEX
  8
0
 10
2.36253
 20
2.19162
 30
0.0
 40
0
 41
0
  0
VERTEX
  8
0
 10
2.36253
 20
2.19618
 30
0.0
 40
0
 41
0
  0
VERTEX
  8
0
 10
2.36253
 20
2.24511
 30
0.0
 40
0
 41
0
  0
VERTEX
  8
0
 10
2.36253
 20
2.24972
 30
0.0
 40
0
 41
0
  0
VERTEX
  8
0
 10
2.36615
 20
2.26346
 30
0.0
 40
0
 41
0
  0
VERTEX
  8
0
 10
2.37619
 20
2.27832
 30
0.0
 40
0
 41
0
  0
VERTEX
  8
0
 10
2.39106
 20
2.28836
 30
0.0
 40
0
 41
0
  0
VERTEX
  8
0
 10
2.40479
 20
2.29199
 30
0.0
 40
0
 41
0
  0
VERTEX
  8
0
 10
2.4094
 20
2.29199
 30
0.0
 40
0
 41
0
  0
VERTEX
  8
0
 10
2.41396
 20
2.29199
 30
0.0
 40
0
 41
0
  0
VERTEX
  8
0
 10
2.42768
 20
2.28836
 30
0.0
 40
0
 41
0
  0
VERTEX
  8
0
 10
2.4426
 20
2.27832
 30
0.0
 40
0
 41
0
  0
VERTEX
  8
0
 10
2.45258
 20
2.26346
 30
0.0
 40
0
 41
0
  0
VERTEX
  8
0
 10
2.45628
 20
2.24972
 30
0.0
 40
0
 41
0
  0
VERTEX
  8
0
 10
2.45628
 20
2.24511
 30
0.0
 40
0
 41
0
  0
VERTEX
  8
0
 10
2.45628
 20
2.19618
 30
0.0
 40
0
 41
0
  0
VERTEX
  8
0
 10
2.45628
 20
2.19162
 30
0.0
 40
0
 41
0
  0
VERTEX
  8
0
 10
2.45258
 20
2.1779
 30
0.0
 40
0
 41
0
  0
VERTEX
  8
0
 10
2.4426
 20
2.16297
 30
0.0
 40
0
 41
0
  0
VERTEX
  8
0
 10
2.42768
 20
2.153
 30
0.0
 40
0
 41
0
  0
VERTEX
  8
0
 10
2.41396
 20
2.14931
 30
0.0
 40
0
 41
0
  0
VERTEX
  8
0
 10
2.4094
 20
2.14931
 30
0.0
 40
0
 41
0
  0
SEQEND
 8
0
  0
POLYLINE
  8
0
 62
     13
 66
     1
 10
0
 20
0
 30
0.0
 70
     1
 40
0
 41
0
  0
VERTEX
  8
0
 10
2.7781
 20
2.14931
 30
0.0
 40
0
 41
0
  0
VERTEX
  8
0
 10
2.77349
 20
2.14931
 30
0.0
 40
0
 41
0
  0
VERTEX
  8
0
 10
2.75976
 20
2.153
 30
0.0
 40
0
 41
0
  0
VERTEX
  8
0
 10
2.7449
 20
2.16297
 30
0.0
 40
0
 41
0
  0
VERTEX
  8
0
 10
2.73486
 20
2.1779
 30
0.0
 40
0
 41
0
  0
VERTEX
  8
0
 10
2.73122
 20
2.19162
 30
0.0
 40
0
 41
0
  0
VERTEX
  8
0
 10
2.73122
 20
2.19618
 30
0.0
 40
0
 41
0
  0
VERTEX
  8
0
 10
2.73122
 20
2.24511
 30
0.0
 40
0
 41
0
  0
VERTEX
  8
0
 10
2.73122
 20
2.24972
 30
0.0
 40
0
 41
0
  0
VERTEX
  8
0
 10
2.73486
 20
2.26346
 30
0.0
 40
0
 41
0
  0
VERTEX
  8
0
 10
2.7449
 20
2.27832
 30
0.0
 40
0
 41
0
  0
VERTEX
  8
0
 10
2.75976
 20
2.28836
 30
0.0
 40
0
 41
0
  0
VERTEX
  8
0
 10
2.77349
 20
2.29199
 30
0.0
 40
0
 41
0
  0
VERTEX
  8
0
 10
2.7781
 20
2.29199
 30
0.0
 40
0
 41
0
  0
VERTEX
  8
0
 10
2.78267
 20
2.29199
 30
0.0
 40
0
 41
0
  0
VERTEX
  8
0
 10
2.79639
 20
2.28836
 30
0.0
 40
0
 41
0
  0
VERTEX
  8
0
 10
2.81131
 20
2.27832
 30
0.0
 40
0
 41
0
  0
VERTEX
  8
0
 10
2.82129
 20
2.26346
 30
0.0
 40
0
 41
0
  0
VERTEX
  8
0
 10
2.82497
 20
2.24972
 30
0.0
 40
0
 41
0
  0
VERTEX
  8
0
 10
2.82497
 20
2.24511
 30
0.0
 40
0
 41
0
  0
VERTEX
  8
0
 10
2.82497
 20
2.19618
 30
0.0
 40
0
 41
0
  0
VERTEX
  8
0
 10
2.82497
 20
2.19162
 30
0.0
 40
0
 41
0
  0
VERTEX
  8
0
 10
2.82129
 20
2.1779
 30
0.0
 40
0
 41
0
  0
VERTEX
  8
0
 10
2.81131
 20
2.16297
 30
0.0
 40
0
 41
0
  0
VERTEX
  8
0
 10
2.79639
 20
2.153
 30
0.0
 40
0
 41
0
  0
VERTEX
  8
0
 10
2.78267
 20
2.14931
 30
0.0
 40
0
 41
0
  0
VERTEX
  8
0
 10
2.7781
 20
2.14931
 30
0.0
 40
0
 41
0
  0
SEQEND
 8
0
  0
POLYLINE
  8
0
 62
     13
 66
     1
 10
0
 20
0
 30
0.0
 70
     1
 40
0
 41
0
  0
VERTEX
  8
0
 10
2.6594
 20
2.23264
 30
0.0
 40
0
 41
0
  0
VERTEX
  8
0
 10
2.65479
 20
2.23264
 30
0.0
 40
0
 41
0
  0
VERTEX
  8
0
 10
2.64106
 20
2.23633
 30
0.0
 40
0
 41
0
  0
VERTEX
  8
0
 10
2.62619
 20
2.24631
 30
0.0
 40
0
 41
0
  0
VERTEX
  8
0
 10
2.61615
 20
2.26124
 30
0.0
 40
0
 41
0
  0
VERTEX
  8
0
 10
2.61253
 20
2.27496
 30
0.0
 40
0
 41
0
  0
VERTEX
  8
0
 10
2.61253
 20
2.27951
 30
0.0
 40
0
 41
0
  0
VERTEX
  8
0
 10
2.61253
 20
2.32844
 30
0.0
 40
0
 41
0
  0
VERTEX
  8
0
 10
2.61253
 20
2.33306
 30
0.0
 40
0
 41
0
  0
VERTEX
  8
0
 10
2.61615
 20
2.34679
 30
0.0
 40
0
 41
0
  0
VERTEX
  8
0
 10
2.62619
 20
2.36165
 30
0.0
 40
0
 41
0
  0
VERTEX
  8
0
 10
2.64106
 20
2.37169
 30
0.0
 40
0
 41
0
  0
VERTEX
  8
0
 10
2.65479
 20
2.37532
 30
0.0
 40
0
 41
0
  0
VERTEX
  8
0
 10
2.6594
 20
2.37532
 30
0.0
 40
0
 41
0
  0
VERTEX
  8
0
 10
2.66396
 20
2.37532
 30
0.0
 40
0
 41
0
  0
VERTEX
  8
0
 10
2.67768
 20
2.37169
 30
0.0
 40
0
 41
0
  0
VERTEX
  8
0
 10
2.6926
 20
2.36165
 30
0.0
 40
0
 41
0
  0
VERTEX
  8
0
 10
2.70258
 20
2.34679
 30
0.0
 40
0
 41
0
  0
VERTEX
  8
0
 10
2.70628
 20
2.33306
 30
0.0
 40
0
 41
0
  0
VERTEX
  8
0
 10
2.70628
 20
2.32844
 30
0.0
 40
0
 41
0
  0
VERTEX
  8
0
 10
2.70628
 20
2.27951
 30
0.0
 40
0
 41
0
  0
VERTEX
  8
0
 10
2.70628
 20
2.27496
 30
0.0
 40
0
 41
0
  0
VERTEX
  8
0
 10
2.70242
 20
2.26124
 30
0.0
 40
0
 41
0
  0
VERTEX
  8
0
 10
2.69217
 20
2.24631
 30
0.0
 40
0
 41
0
  0
VERTEX
  8
0
 10
2.67725
 20
2.23633
 30
0.0
 40
0
 41
0
  0
VERTEX
  8
0
 10
2.66385
 20
2.23264
 30
0.0
 40
0
 41
0
  0
VERTEX
  8
0
 10
2.6594
 20
2.23264
 30
0.0
 40
0
 41
0
  0
SEQEND
 8
0
  0
ENDSEC
  0
EOF
