<?xml version="1.0" encoding="UTF-8" standalone="no"?>
<!-- Generator: Adobe Illustrator 21.0.2, SVG Export Plug-In . SVG Version: 6.00 Build 0)  -->

<svg
   xmlns:dc="http://purl.org/dc/elements/1.1/"
   xmlns:cc="http://creativecommons.org/ns#"
   xmlns:rdf="http://www.w3.org/1999/02/22-rdf-syntax-ns#"
   xmlns:svg="http://www.w3.org/2000/svg"
   xmlns="http://www.w3.org/2000/svg"
   xmlns:sodipodi="http://sodipodi.sourceforge.net/DTD/sodipodi-0.dtd"
   xmlns:inkscape="http://www.inkscape.org/namespaces/inkscape"
   version="1.1"
   x="0px"
   y="0px"
   viewBox="0 0 244.13491 313.51606"
   xml:space="preserve"
   id="svg7139"
   sodipodi:docname="meow_v4_mask-cutout.svg"
   inkscape:version="0.91 r13725"
   width="68.900299mm"
   height="88.481201mm"><metadata
     id="metadata7145"><rdf:RDF><cc:Work
         rdf:about=""><dc:format>image/svg+xml</dc:format><dc:type
           rdf:resource="http://purl.org/dc/dcmitype/StillImage" /><dc:title></dc:title></cc:Work></rdf:RDF></metadata><defs
     id="defs7143" /><sodipodi:namedview
     pagecolor="#ffffff"
     bordercolor="#666666"
     borderopacity="1"
     objecttolerance="10"
     gridtolerance="10"
     guidetolerance="10"
     inkscape:pageopacity="0"
     inkscape:pageshadow="2"
     inkscape:window-width="1823"
     inkscape:window-height="937"
     id="namedview7141"
     showgrid="false"
     inkscape:zoom="2.4592085"
     inkscape:cx="122.06711"
     inkscape:cy="156.75776"
     inkscape:window-x="0"
     inkscape:window-y="0"
     inkscape:window-maximized="0"
     inkscape:current-layer="Layer_2"
     units="mm"
     fit-margin-top="0"
     fit-margin-left="0"
     fit-margin-right="0"
     fit-margin-bottom="0" /><style
     type="text/css"
     id="style6965">
	.st0{fill:#EFEFEF;}
	.st1{fill:#F16B6C;}
	.st2{fill:#FFFFFF;}
	.st3{fill:none;stroke:#F16B6C;stroke-width:4.5536;stroke-linecap:round;stroke-miterlimit:10;}
	.st4{fill:#FFCC00;}
</style><g
     id="svg8"
     inkscape:export-filename="C:\Users\dash\Documents\GitHub\defcon26-meow\art\meow_v1.png"
     inkscape:export-xdpi="96"
     inkscape:export-ydpi="96"
     inkscape:version="0.92.1 r15371"
     sodipodi:docname="meow_v3.svg"
     transform="translate(-27.865092,-24.683938)"><sodipodi:namedview
       bordercolor="#666666"
       borderopacity="1.0"
       id="base"
       inkscape:current-layer="layer12"
       inkscape:cx="62.544425"
       inkscape:cy="233.65003"
       inkscape:document-units="cm"
       inkscape:guide-bbox="true"
       inkscape:lockguides="false"
       inkscape:object-nodes="false"
       inkscape:object-paths="false"
       inkscape:pagecheckerboard="true"
       inkscape:pageopacity="0.0"
       inkscape:pageshadow="2"
       inkscape:snap-intersection-paths="false"
       inkscape:snap-nodes="false"
       inkscape:snap-smooth-nodes="false"
       inkscape:snap-to-guides="true"
       inkscape:window-height="1048"
       inkscape:window-maximized="1"
       inkscape:window-width="1735"
       inkscape:window-x="1921"
       inkscape:window-y="0"
       inkscape:zoom="1.4142136"
       objecttolerance="10000"
       pagecolor="#ffffff"
       showgrid="false"
       showguides="false"
       units="cm"><sodipodi:guide
         id="guide4491"
         inkscape:locked="false"
         orientation="1,0"
         position="70.114584,301.625" /><sodipodi:guide
         id="guide4493"
         inkscape:locked="false"
         orientation="1,0"
         position="129.81167,326.09462" /><inkscape:grid
         id="grid4495"
         type="xygrid" /><sodipodi:guide
         id="guide4499"
         inkscape:locked="false"
         orientation="0,1"
         position="-19.84375,260.04762" /><sodipodi:guide
         id="guide4501"
         inkscape:locked="false"
         orientation="0,1"
         position="-20.032738,179.91667" /><sodipodi:guide
         id="guide4503"
         inkscape:locked="false"
         orientation="0,1"
         position="-16.630952,270.06399" /><sodipodi:guide
         id="guide4512"
         inkscape:locked="false"
         orientation="0,1"
         position="-19.465774,219.98214" /><sodipodi:guide
         id="guide4514"
         inkscape:locked="false"
         orientation="-0.82575936,0.56402259"
         position="60.098215,179.91667" /><sodipodi:guide
         id="guide4518"
         inkscape:locked="false"
         orientation="-0.82575936,-0.56402259"
         position="140.07024,179.91667" /><sodipodi:guide
         id="guide4520"
         inkscape:locked="false"
         orientation="1,0"
         position="79.941963,226.97471" /><sodipodi:guide
         id="guide4522"
         inkscape:locked="false"
         orientation="1,0"
         position="119.93731,202.36411" /><sodipodi:guide
         id="guide4541"
         inkscape:locked="false"
         orientation="1,0"
         position="124.99885,314.20012" /><sodipodi:guide
         id="guide4543"
         inkscape:locked="false"
         orientation="1,0"
         position="74.835466,302.68275" /><sodipodi:guide
         id="guide4584"
         inkscape:locked="false"
         orientation="0,1"
         position="83.871844,297.00001" /><sodipodi:guide
         id="guide4586"
         inkscape:locked="false"
         orientation="0,1"
         position="44.675444,230.00027" /><sodipodi:guide
         id="guide4588"
         inkscape:locked="false"
         orientation="0,1"
         position="70.109929,209.50604" /><sodipodi:guide
         id="guide4590"
         inkscape:locked="false"
         orientation="0,1"
         position="63.219967,249.92962" /><sodipodi:guide
         id="guide4592"
         inkscape:locked="false"
         orientation="0,1"
         position="59.968654,242.10238" /><sodipodi:guide
         id="guide4594"
         inkscape:locked="false"
         orientation="1,0"
         position="88.033508,219.98214" /><sodipodi:guide
         id="guide4596"
         inkscape:locked="false"
         orientation="1,0"
         position="111.92945,245.11286" /><sodipodi:guide
         id="guide4598"
         inkscape:locked="false"
         orientation="1,0"
         position="93.926808,245.11286" /><sodipodi:guide
         id="guide4600"
         inkscape:locked="false"
         orientation="1,0"
         position="106.08913,212.41909" /><sodipodi:guide
         id="guide4612"
         inkscape:locked="false"
         orientation="0,1"
         position="88.026276,238.4296" /><sodipodi:guide
         id="guide4614"
         inkscape:locked="false"
         orientation="0,1"
         position="85.076013,233.9741" /><sodipodi:guide
         id="guide4669"
         inkscape:locked="false"
         orientation="0.59697004,0.80226353"
         position="91.879688,214.3759" /><sodipodi:guide
         id="guide4692"
         inkscape:locked="false"
         orientation="1,0"
         position="100.00044,239.56605" /><sodipodi:guide
         id="guide4725"
         inkscape:locked="false"
         orientation="0,1"
         position="63.761852,190.02117" /><sodipodi:guide
         id="guide4727"
         inkscape:locked="false"
         orientation="0,1"
         position="84.297592,194.9914" /></sodipodi:namedview></g><g
     id="Layer_2"
     transform="translate(-27.865092,-24.683938)"><g
       id="g5469"><path
         inkscape:connector-curvature="0"
         id="path6997"
         d="M 58.986328,24.693359 C 54.466797,24.868164 50.162109,27.9375 49.099609,33 L 35.234375,98.453125 C 34.724574,100.2599 34.303487,102.1072 34,104 l -0.195312,1.20508 -0.105469,0.49414 0.02734,-0.0176 L 28.5,137.80078 c -2.804529,17.35303 3.892106,33.77286 15.939453,44.43555 -3.535401,6.67363 -5.740924,14.1751 -6.240234,22.16406 L 33.5,280.09961 c -1.9,31.5 23.099609,58.09961 54.599609,58.09961 l 67.000001,0 c 31.5,0 56.49961,-26.59961 54.59961,-58.09961 l -1.71094,-27.54883 c 6.08332,-0.89359 12.50262,-2.62871 18.51172,-5.45117 6.6,-3.1 12.70039,-7.5 17.40039,-12.5 4.8,-5 8.39961,-10.29961 11.09961,-15.59961 2.7,-5.3 4.59961,-10.5 6.09961,-15.5 2.9,-10.1 4.09961,-19.60078 4.59961,-28.80078 0.5,-9.1 0.20156,-18.09961 -0.39844,-26.59961 l 0,0.0996 -41,0 c -0.6,7.4 -1.6,14.50117 -3,21.20117 -1.4,6.7 -3.40078,13 -5.80078,18 -1.3,2.5 -2.60039,4.69883 -3.90039,6.29883 -1.3,1.6 -2.59961,2.70117 -3.59961,3.20117 -1,0.6 -1.8,0.59961 -2.5,0.59961 -0.38224,0 -0.84482,-0.0361 -1.37891,-0.0957 -1.02093,-5.3757 -2.82157,-10.46347 -5.28711,-15.14258 12.06476,-10.66202 18.77347,-27.09465 15.9668,-44.46094 l -5.23633,-32.18555 0.13477,0.084 -0.74024,-3.51563 c -0.0506,-0.2494 -0.10197,-0.4982 -0.15625,-0.74609 L 194.40039,33 c -1.7,-8.1 -11.69961,-11.100781 -17.59961,-5.300781 l -35.90039,35.201172 -38.30078,0 -35.900391,-35.201172 c -2.2125,-2.175 -5.001172,-3.110742 -7.712891,-3.00586 z"
         style="fill:#000000;fill-opacity:1" /><g
         id="g7021"><g
           id="g7017" /></g><g
         id="g7031"><g
           id="g7027" /></g><g
         id="g7045"><g
           id="g7035" /><g
           id="g7039" /><g
           id="g7043" /></g><g
         id="g7059"><g
           id="g7049" /><g
           id="g7053" /><g
           id="g7057" /></g><g
         id="g7075" /><path
         inkscape:connector-curvature="0"
         style="fill:#000000;fill-opacity:1"
         id="path7077"
         d="m 88.5,338.2 -42.8,0 c -6,0 -10.8,-4.8 -10.8,-10.8 l 0,0 c 0,-14.9 12.1,-27 27,-27 l 10.3,0 c 14.9,0 27,12.1 27,27 l 0,0 c 0.1,6 -4.7,10.8 -10.7,10.8 z"
         class="st2" /><path
         inkscape:connector-curvature="0"
         style="fill:#000000;fill-opacity:1"
         id="path7079"
         d="m 197.6,338.2 -42.8,0 c -6,0 -10.8,-4.8 -10.8,-10.8 l 0,0 c 0,-14.9 12.1,-27 27,-27 l 10.3,0 c 14.9,0 27,12.1 27,27 l 0,0 c 0.1,6 -4.8,10.8 -10.7,10.8 z"
         class="st2" /><g
         id="g7091"><g
           id="g7087" /></g><g
         transform="translate(-4,0)"
         id="g7095"><path
           style="fill:#000000;fill-opacity:0.97142855"
           inkscape:connector-curvature="0"
           id="path7093"
           d="m 276,134.1 0,0 c 0,15 -12.2,27.1 -27.1,27.1 l 0,0 c -15,0 -27.1,-12.2 -27.1,-27.1 l 0,0 c 0,-15 12.2,-27.1 27.1,-27.1 l 0,0 c 15,0 27.1,12.2 27.1,27.1 z"
           class="st2" /></g><g
         id="g7109"><g
           id="g7099" /><g
           id="g7103" /><g
           id="g7107" /></g><g
         id="g7123"><g
           id="g7113" /><g
           id="g7117" /><g
           id="g7121" /></g></g></g><g
     id="Layer_3"
     transform="translate(-27.865092,-24.683938)" /></svg>