  0
SECTION
  2
HEADER
  9
$ACADVER
  1
AC1014
  9
$HANDSEED
  5
FFFF
  9
$MEASUREMENT
 70
     1
  0
ENDSEC
  0
SECTION
  2
TABLES
  0
TABLE
  2
VPORT
  5
8
330
0
100
AcDbSymbolTable
 70
     4
  0
VPORT
  5
2E
330
8
100
AcDbSymbolTableRecord
100
AcDbViewportTableRecord
  2
*ACTIVE
 70
     0
 10
0.0
 20
0.0
 11
1.0
 21
1.0
 12
210.0
 22
148.5
 13
0.0
 23
0.0
 14
10.0
 24
10.0
 15
10.0
 25
10.0
 16
0.0
 26
0.0
 36
1.0
 17
0.0
 27
0.0
 37
0.0
 40
341.0
 41
1.24
 42
50.0
 43
0.0
 44
0.0
 50
0.0
 51
0.0
 71
     0
 72
   100
 73
     1
 74
     3
 75
     0
 76
     0
 77
     0
 78
     0
  0
ENDTAB
  0
TABLE
  2
LTYPE
  5
5
330
0
100
AcDbSymbolTable
 70
     1
  0
LTYPE
  5
14
330
5
100
AcDbSymbolTableRecord
100
AcDbLinetypeTableRecord
  2
BYBLOCK
 70
     0
  3

 72
    65
 73
     0
 40
0.0
  0
LTYPE
  5
15
330
5
100
AcDbSymbolTableRecord
100
AcDbLinetypeTableRecord
  2
BYLAYER
 70
     0
  3

 72
    65
 73
     0
 40
0.0
  0
LTYPE
  5
16
330
5
100
AcDbSymbolTableRecord
100
AcDbLinetypeTableRecord
  2
CONTINUOUS
 70
     0
  3
Solid line
 72
    65
 73
     0
 40
0.0
  0
ENDTAB
  0
TABLE
  2
LAYER
  5
2
100
AcDbSymbolTable
 70
1
  0
LAYER
  5
50
100
AcDbSymbolTableRecord
100
AcDbLayerTableRecord
  2
0
 70
0
  6
CONTINUOUS
  0
ENDTAB
  0
TABLE
  2
STYLE
  5
3
330
0
100
AcDbSymbolTable
 70
     1
  0
STYLE
  5
11
330
3
100
AcDbSymbolTableRecord
100
AcDbTextStyleTableRecord
  2
STANDARD
 70
     0
 40
0.0
 41
1.0
 50
0.0
 71
     0
 42
2.5
  3
txt
  4

  0
ENDTAB
  0
TABLE
  2
VIEW
  5
6
330
0
100
AcDbSymbolTable
 70
     0
  0
ENDTAB
  0
TABLE
  2
UCS
  5
7
330
0
100
AcDbSymbolTable
 70
     0
  0
ENDTAB
  0
TABLE
  2
APPID
  5
9
330
0
100
AcDbSymbolTable
 70
     2
  0
APPID
  5
12
330
9
100
AcDbSymbolTableRecord
100
AcDbRegAppTableRecord
  2
ACAD
 70
     0
  0
ENDTAB
  0
TABLE
  2
DIMSTYLE
  5
A
330
0
100
AcDbSymbolTable
 70
     1
  0
DIMSTYLE
105
27
330
A
100
AcDbSymbolTableRecord
100
AcDbDimStyleTableRecord
  2
ISO-25
 70
     0
  3

  4

  5

  6

  7

 40
1.0
 41
2.5
 42
0.625
 43
3.75
 44
1.25
 45
0.0
 46
0.0
 47
0.0
 48
0.0
140
2.5
141
2.5
142
0.0
143
0.03937007874016
144
1.0
145
0.0
146
1.0
147
0.625
 71
     0
 72
     0
 73
     0
 74
     0
 75
     0
 76
     0
 77
     1
 78
     8
170
     0
171
     3
172
     1
173
     0
174
     0
175
     0
176
     0
177
     0
178
     0
270
     2
271
     2
272
     2
273
     2
274
     3
340
11
275
     0
280
     0
281
     0
282
     0
283
     0
284
     8
285
     0
286
     0
287
     3
288
     0
  0
ENDTAB
  0
TABLE
  2
BLOCK_RECORD
  5
1
330
0
100
AcDbSymbolTable
 70
     1
  0
BLOCK_RECORD
  5
1F
330
1
100
AcDbSymbolTableRecord
100
AcDbBlockTableRecord
  2
*MODEL_SPACE
  0
BLOCK_RECORD
  5
1B
330
1
100
AcDbSymbolTableRecord
100
AcDbBlockTableRecord
  2
*PAPER_SPACE
  0
ENDTAB
  0
ENDSEC
  0
SECTION
  2
BLOCKS
  0
BLOCK
  5
20
330
1F
100
AcDbEntity
  8
0
100
AcDbBlockBegin
  2
*MODEL_SPACE
 70
     0
 10
0.0
 20
0.0
 30
0.0
  3
*MODEL_SPACE
  1

  0
ENDBLK
  5
21
330
1F
100
AcDbEntity
  8
0
100
AcDbBlockEnd
  0
BLOCK
  5
1C
330
1B
100
AcDbEntity
 67
     1
  8
0
100
AcDbBlockBegin
  2
*PAPER_SPACE
  1

  0
ENDBLK
  5
1D
330
1B
100
AcDbEntity
 67
     1
  8
0
100
AcDbBlockEnd
  0
ENDSEC
  0
SECTION
  2
ENTITIES
  0
SPLINE
  5
100
100
AcDbEntity
  8
0
 62
7
100
AcDbSpline
 70
8
 71
3
 72
8
 73
4
 74
0
 40
0
 40
0
 40
0
 40
0
 40
1
 40
1
 40
1
 40
1
 10
52.073858
 20
89.043538
 30
0.0
 10
51.308570
 20
89.073177
 30
0.0
 10
50.521526
 20
88.808499
 30
0.0
 10
49.897109
 20
88.194666
 30
0.0
  0
SPLINE
  5
101
100
AcDbEntity
  8
0
 62
7
100
AcDbSpline
 70
8
 71
3
 72
8
 73
4
 74
0
 40
0
 40
0
 40
0
 40
0
 40
1
 40
1
 40
1
 40
1
 10
18.824002
 20
88.194666
 30
0.0
 10
18.199585
 20
88.808499
 30
0.0
 10
17.412560
 20
89.072586
 30
0.0
 10
16.647253
 20
89.042986
 30
0.0
  0
SPLINE
  5
102
100
AcDbEntity
  8
0
 62
7
100
AcDbSpline
 70
8
 71
3
 72
8
 73
4
 74
0
 40
0
 40
0
 40
0
 40
0
 40
1
 40
1
 40
1
 40
1
 10
16.647253
 20
89.042986
 30
0.0
 10
15.371740
 20
88.993652
 30
0.0
 10
14.156862
 20
88.127418
 30
0.0
 10
13.857001
 20
86.698668
 30
0.0
  0
LWPOLYLINE
  5
103
100
AcDbEntity
  8
0
 62
7
100
AcDbPolyline
 90
4
 70
1
 10
49.897109
 20
88.194666
 30
0.0
 10
39.793884
 20
78.288225
 30
0.0
 10
28.927227
 20
78.288225
 30
0.0
 10
18.824002
 20
88.194666
 30
0.0
  0
SPLINE
  5
104
100
AcDbEntity
  8
0
 62
7
100
AcDbSpline
 70
8
 71
3
 72
8
 73
4
 74
0
 40
0
 40
0
 40
0
 40
0
 40
1
 40
1
 40
1
 40
1
 10
9.943924
 20
68.226341
 30
0.0
 10
9.800046
 20
67.716429
 30
0.0
 10
9.681206
 20
67.195080
 30
0.0
 10
9.595556
 20
66.660890
 30
0.0
  0
LWPOLYLINE
  5
105
100
AcDbEntity
  8
0
 62
7
100
AcDbPolyline
 90
2
 70
1
 10
13.857001
 20
86.698668
 30
0.0
 10
9.943924
 20
68.226341
 30
0.0
  0
SPLINE
  5
106
100
AcDbEntity
  8
0
 62
7
100
AcDbSpline
 70
8
 71
3
 72
8
 73
4
 74
0
 40
0
 40
0
 40
0
 40
0
 40
1
 40
1
 40
1
 40
1
 10
8.043333
 20
57.121559
 30
0.0
 10
7.251840
 20
52.224193
 30
0.0
 10
9.141768
 20
47.590048
 30
0.0
 10
12.541801
 20
44.580859
 30
0.0
  0
SPLINE
  5
107
100
AcDbEntity
  8
0
 62
7
100
AcDbSpline
 70
8
 71
3
 72
8
 73
4
 74
0
 40
0
 40
0
 40
0
 40
0
 40
1
 40
1
 40
1
 40
1
 10
12.541801
 20
44.580859
 30
0.0
 10
11.544032
 20
42.697412
 30
0.0
 10
10.921585
 20
40.580331
 30
0.0
 10
10.780668
 20
38.325669
 30
0.0
  0
LWPOLYLINE
  5
108
100
AcDbEntity
  8
0
 62
7
100
AcDbPolyline
 90
5
 70
1
 10
9.595556
 20
66.660890
 30
0.0
 10
9.540434
 20
66.320790
 30
0.0
 10
9.510668
 20
66.181332
 30
0.0
 10
9.518384
 20
66.186299
 30
0.0
 10
8.043333
 20
57.121559
 30
0.0
  0
SPLINE
  5
109
100
AcDbEntity
  8
0
 62
7
100
AcDbSpline
 70
8
 71
3
 72
8
 73
4
 74
0
 40
0
 40
0
 40
0
 40
0
 40
1
 40
1
 40
1
 40
1
 10
9.454444
 20
16.961667
 30
0.0
 10
9.264799
 20
13.817542
 30
0.0
 10
10.028077
 20
10.848601
 30
0.0
 10
11.482917
 20
8.321368
 30
0.0
  0
SPLINE
  5
10a
100
AcDbEntity
  8
0
 62
7
100
AcDbSpline
 70
8
 71
3
 72
8
 73
4
 74
0
 40
0
 40
0
 40
0
 40
0
 40
1
 40
1
 40
1
 40
1
 10
11.482917
 20
8.321368
 30
0.0
 10
10.461066
 20
7.024560
 30
0.0
 10
9.849666
 20
5.389613
 30
0.0
 10
9.849666
 20
3.612335
 30
0.0
  0
SPLINE
  5
10b
100
AcDbEntity
  8
0
 62
7
100
AcDbSpline
 70
8
 71
3
 72
8
 73
4
 74
0
 40
0
 40
0
 40
0
 40
0
 40
1
 40
1
 40
1
 40
1
 10
9.849666
 20
3.612335
 30
0.0
 10
9.849666
 20
1.919002
 30
0.0
 10
11.204002
 20
0.564666
 30
0.0
 10
12.897335
 20
0.564666
 30
0.0
  0
LWPOLYLINE
  5
10c
100
AcDbEntity
  8
0
 62
7
100
AcDbPolyline
 90
2
 70
1
 10
10.780668
 20
38.325669
 30
0.0
 10
9.454444
 20
16.961667
 30
0.0
  0
SPLINE
  5
10d
100
AcDbEntity
  8
0
 62
7
100
AcDbSpline
 70
8
 71
3
 72
8
 73
4
 74
0
 40
0
 40
0
 40
0
 40
0
 40
1
 40
1
 40
1
 40
1
 10
55.767001
 20
0.564666
 30
0.0
 10
57.432112
 20
0.564666
 30
0.0
 10
58.815331
 20
1.919002
 30
0.0
 10
58.787109
 20
3.612335
 30
0.0
  0
SPLINE
  5
10e
100
AcDbEntity
  8
0
 62
7
100
AcDbSpline
 70
8
 71
3
 72
8
 73
4
 74
0
 40
0
 40
0
 40
0
 40
0
 40
1
 40
1
 40
1
 40
1
 10
58.787109
 20
3.612335
 30
0.0
 10
58.787109
 20
5.389827
 30
0.0
 10
58.175381
 20
7.025037
 30
0.0
 10
57.153308
 20
8.321919
 30
0.0
  0
SPLINE
  5
10f
100
AcDbEntity
  8
0
 62
7
100
AcDbSpline
 70
8
 71
3
 72
8
 73
4
 74
0
 40
0
 40
0
 40
0
 40
0
 40
1
 40
1
 40
1
 40
1
 10
57.153308
 20
8.321919
 30
0.0
 10
58.607991
 20
10.849063
 30
0.0
 10
59.371413
 20
13.817714
 30
0.0
 10
59.181780
 20
16.961667
 30
0.0
  0
LWPOLYLINE
  5
110
100
AcDbEntity
  8
0
 62
7
100
AcDbPolyline
 90
5
 70
1
 10
12.897335
 20
0.564666
 30
0.0
 10
24.863667
 20
0.564666
 30
0.0
 10
24.976667
 20
0.564666
 30
0.0
 10
43.772557
 20
0.564666
 30
0.0
 10
55.767001
 20
0.564666
 30
0.0
  0
SPLINE
  5
111
100
AcDbEntity
  8
0
 62
7
100
AcDbSpline
 70
8
 71
3
 72
8
 73
4
 74
0
 40
0
 40
0
 40
0
 40
0
 40
1
 40
1
 40
1
 40
1
 10
58.698915
 20
24.736559
 30
0.0
 10
60.415763
 20
24.988750
 30
0.0
 10
62.227432
 20
25.478439
 30
0.0
 10
63.923333
 20
26.275000
 30
0.0
  0
SPLINE
  5
112
100
AcDbEntity
  8
0
 62
7
100
AcDbSpline
 70
8
 71
3
 72
8
 73
4
 74
0
 40
0
 40
0
 40
0
 40
0
 40
1
 40
1
 40
1
 40
1
 10
63.923333
 20
26.275000
 30
0.0
 10
65.786000
 20
27.149889
 30
0.0
 10
67.507666
 20
28.391667
 30
0.0
 10
68.834110
 20
29.802778
 30
0.0
  0
SPLINE
  5
113
100
AcDbEntity
  8
0
 62
7
100
AcDbSpline
 70
8
 71
3
 72
8
 73
4
 74
0
 40
0
 40
0
 40
0
 40
0
 40
1
 40
1
 40
1
 40
1
 10
68.834110
 20
29.802778
 30
0.0
 10
70.188777
 20
31.213889
 30
0.0
 10
71.204667
 20
32.709557
 30
0.0
 10
71.966667
 20
34.205334
 30
0.0
  0
SPLINE
  5
114
100
AcDbEntity
  8
0
 62
7
100
AcDbSpline
 70
8
 71
3
 72
8
 73
4
 74
0
 40
0
 40
0
 40
0
 40
0
 40
1
 40
1
 40
1
 40
1
 10
71.966667
 20
34.205334
 30
0.0
 10
72.728667
 20
35.701112
 30
0.0
 10
73.264779
 20
37.168668
 30
0.0
 10
73.688112
 20
38.579779
 30
0.0
  0
SPLINE
  5
115
100
AcDbEntity
  8
0
 62
7
100
AcDbSpline
 70
8
 71
3
 72
8
 73
4
 74
0
 40
0
 40
0
 40
0
 40
0
 40
1
 40
1
 40
1
 40
1
 10
73.688112
 20
38.579779
 30
0.0
 10
74.506557
 20
41.430223
 30
0.0
 10
74.845113
 20
44.111554
 30
0.0
 10
74.986224
 20
46.707999
 30
0.0
  0
SPLINE
  5
116
100
AcDbEntity
  8
0
 62
7
100
AcDbSpline
 70
8
 71
3
 72
8
 73
4
 74
0
 40
0
 40
0
 40
0
 40
0
 40
1
 40
1
 40
1
 40
1
 10
74.986224
 20
46.707999
 30
0.0
 10
75.107837
 20
48.921332
 30
0.0
 10
75.057214
 20
51.107699
 30
0.0
 10
74.933858
 20
53.206826
 30
0.0
  0
SPLINE
  5
117
100
AcDbEntity
  8
0
 62
7
100
AcDbSpline
 70
8
 71
3
 72
8
 73
4
 74
0
 40
0
 40
0
 40
0
 40
0
 40
1
 40
1
 40
1
 40
1
 10
74.933858
 20
53.206826
 30
0.0
 10
76.073370
 20
54.540953
 30
0.0
 10
76.764444
 20
56.270958
 30
0.0
 10
76.764444
 20
58.166111
 30
0.0
  0
SPLINE
  5
118
100
AcDbEntity
  8
0
 62
7
100
AcDbSpline
 70
8
 71
3
 72
8
 73
4
 74
0
 40
0
 40
0
 40
0
 40
0
 40
1
 40
1
 40
1
 40
1
 10
76.764444
 20
58.166111
 30
0.0
 10
76.764444
 20
62.371222
 30
0.0
 10
73.349666
 20
65.814223
 30
0.0
 10
69.116332
 20
65.814223
 30
0.0
  0
SPLINE
  5
119
100
AcDbEntity
  8
0
 62
7
100
AcDbSpline
 70
8
 71
3
 72
8
 73
4
 74
0
 40
0
 40
0
 40
0
 40
0
 40
1
 40
1
 40
1
 40
1
 10
69.116332
 20
65.814223
 30
0.0
 10
64.911221
 20
65.814223
 30
0.0
 10
61.468220
 20
62.399444
 30
0.0
 10
61.468220
 20
58.166111
 30
0.0
  0
SPLINE
  5
11a
100
AcDbEntity
  8
0
 62
7
100
AcDbSpline
 70
8
 71
3
 72
8
 73
4
 74
0
 40
0
 40
0
 40
0
 40
0
 40
1
 40
1
 40
1
 40
1
 10
61.468220
 20
58.166111
 30
0.0
 10
61.468220
 20
56.323017
 30
0.0
 10
62.124384
 20
54.626189
 30
0.0
 10
63.217778
 20
53.301636
 30
0.0
  0
SPLINE
  5
11b
100
AcDbEntity
  8
0
 62
7
100
AcDbSpline
 70
8
 71
3
 72
8
 73
4
 74
0
 40
0
 40
0
 40
0
 40
0
 40
1
 40
1
 40
1
 40
1
 10
63.217778
 20
53.301636
 30
0.0
 10
63.044987
 20
51.532537
 30
0.0
 10
62.794693
 20
49.824347
 30
0.0
 10
62.455998
 20
48.203446
 30
0.0
  0
SPLINE
  5
11c
100
AcDbEntity
  8
0
 62
7
100
AcDbSpline
 70
8
 71
3
 72
8
 73
4
 74
0
 40
0
 40
0
 40
0
 40
0
 40
1
 40
1
 40
1
 40
1
 10
62.455998
 20
48.203446
 30
0.0
 10
62.060887
 20
46.312558
 30
0.0
 10
61.496222
 20
44.534558
 30
0.0
 10
60.818889
 20
43.123446
 30
0.0
  0
SPLINE
  5
11d
100
AcDbEntity
  8
0
 62
7
100
AcDbSpline
 70
8
 71
3
 72
8
 73
4
 74
0
 40
0
 40
0
 40
0
 40
0
 40
1
 40
1
 40
1
 40
1
 10
60.818889
 20
43.123446
 30
0.0
 10
60.452000
 20
42.417891
 30
0.0
 10
60.085001
 20
41.797332
 30
0.0
 10
59.718112
 20
41.345777
 30
0.0
  0
SPLINE
  5
11e
100
AcDbEntity
  8
0
 62
7
100
AcDbSpline
 70
8
 71
3
 72
8
 73
4
 74
0
 40
0
 40
0
 40
0
 40
0
 40
1
 40
1
 40
1
 40
1
 10
59.718112
 20
41.345777
 30
0.0
 10
59.351223
 20
40.894221
 30
0.0
 10
58.984444
 20
40.583446
 30
0.0
 10
58.702222
 20
40.442335
 30
0.0
  0
SPLINE
  5
11f
100
AcDbEntity
  8
0
 62
7
100
AcDbSpline
 70
8
 71
3
 72
8
 73
4
 74
0
 40
0
 40
0
 40
0
 40
0
 40
1
 40
1
 40
1
 40
1
 10
58.702222
 20
40.442335
 30
0.0
 10
58.420000
 20
40.273002
 30
0.0
 10
58.194222
 20
40.273112
 30
0.0
 10
57.996667
 20
40.273112
 30
0.0
  0
SPLINE
  5
120
100
AcDbEntity
  8
0
 62
7
100
AcDbSpline
 70
8
 71
3
 72
8
 73
4
 74
0
 40
0
 40
0
 40
0
 40
0
 40
1
 40
1
 40
1
 40
1
 10
57.996667
 20
40.273112
 30
0.0
 10
57.888336
 20
40.273112
 30
0.0
 10
57.756885
 20
40.283159
 30
0.0
 10
57.605303
 20
40.300121
 30
0.0
  0
SPLINE
  5
121
100
AcDbEntity
  8
0
 62
7
100
AcDbSpline
 70
8
 71
3
 72
8
 73
4
 74
0
 40
0
 40
0
 40
0
 40
0
 40
1
 40
1
 40
1
 40
1
 10
57.605303
 20
40.300121
 30
0.0
 10
57.316584
 20
41.816738
 30
0.0
 10
56.811093
 20
43.253345
 30
0.0
 10
56.115368
 20
44.573693
 30
0.0
  0
SPLINE
  5
122
100
AcDbEntity
  8
0
 62
7
100
AcDbSpline
 70
8
 71
3
 72
8
 73
4
 74
0
 40
0
 40
0
 40
0
 40
0
 40
1
 40
1
 40
1
 40
1
 10
56.115368
 20
44.573693
 30
0.0
 10
59.520373
 20
47.582687
 30
0.0
 10
61.413658
 20
52.220406
 30
0.0
 10
60.621553
 20
57.121559
 30
0.0
  0
LWPOLYLINE
  5
123
100
AcDbEntity
  8
0
 62
7
100
AcDbPolyline
 90
2
 70
1
 10
59.181780
 20
16.961667
 30
0.0
 10
58.698915
 20
24.736559
 30
0.0
  0
SPLINE
  5
124
100
AcDbEntity
  8
0
 62
7
100
AcDbSpline
 70
8
 71
3
 72
8
 73
4
 74
0
 40
0
 40
0
 40
0
 40
0
 40
1
 40
1
 40
1
 40
1
 10
58.972868
 20
67.173518
 30
0.0
 10
58.958587
 20
67.243905
 30
0.0
 10
58.944089
 20
67.314121
 30
0.0
 10
58.928770
 20
67.384082
 30
0.0
  0
LWPOLYLINE
  5
125
100
AcDbEntity
  8
0
 62
7
100
AcDbPolyline
 90
4
 70
1
 10
60.621553
 20
57.121559
 30
0.0
 10
59.143745
 20
66.205036
 30
0.0
 10
59.181780
 20
66.181329
 30
0.0
 10
58.972868
 20
67.173518
 30
0.0
  0
SPLINE
  5
126
100
AcDbEntity
  8
0
 62
7
100
AcDbSpline
 70
8
 71
3
 72
8
 73
4
 74
0
 40
0
 40
0
 40
0
 40
0
 40
1
 40
1
 40
1
 40
1
 10
54.864110
 20
86.698668
 30
0.0
 10
54.564249
 20
88.127418
 30
0.0
 10
53.349339
 20
88.994139
 30
0.0
 10
52.073858
 20
89.043538
 30
0.0
  0
LWPOLYLINE
  5
127
100
AcDbEntity
  8
0
 62
7
100
AcDbPolyline
 90
2
 70
1
 10
58.928770
 20
67.384082
 30
0.0
 10
54.864110
 20
86.698668
 30
0.0
  0
LWPOLYLINE
  5
128
100
AcDbEntity
  8
0
 62
7
100
AcDbPolyline
 90
2
 70
1
 10
52.073858
 20
89.043538
 30
0.0
 10
52.073858
 20
89.043538
 30
0.0
  0
LWPOLYLINE
  5
129
100
AcDbEntity
  8
0
 62
7
100
AcDbPolyline
 90
217
 70
0
 10
11.916785
 20
0.818395
 30
0.0
 10
11.654820
 20
0.937532
 30
0.0
 10
11.377704
 20
1.112899
 30
0.0
 10
10.826451
 20
1.583743
 30
0.0
 10
10.359888
 20
2.133772
 30
0.0
 10
10.188636
 20
2.408120
 30
0.0
 10
10.074880
 20
2.665833
 30
0.0
 10
9.969027
 20
3.161757
 30
0.0
 10
9.941656
 20
3.743212
 30
0.0
 10
9.987528
 20
4.385519
 30
0.0
 10
10.101402
 20
5.063994
 30
0.0
 10
10.278040
 20
5.753959
 30
0.0
 10
10.512202
 20
6.430733
 30
0.0
 10
10.798648
 20
7.069634
 30
0.0
 10
11.132139
 20
7.645982
 30
0.0
 10
11.551490
 20
8.279664
 30
0.0
 10
10.996074
 20
9.488459
 30
0.0
 10
10.446309
 20
10.801005
 30
0.0
 10
10.042164
 20
12.061510
 30
0.0
 10
9.751906
 20
13.388210
 30
0.0
 10
9.543799
 20
14.899339
 30
0.0
 10
9.571783
 20
16.124132
 30
0.0
 10
9.700594
 20
18.874152
 30
0.0
 10
10.145263
 20
26.960791
 30
0.0
 10
10.646938
 20
35.181091
 30
0.0
 10
10.974756
 20
39.556886
 30
0.0
 10
11.159925
 20
40.504719
 30
0.0
 10
11.444302
 20
41.572992
 30
0.0
 10
11.789501
 20
42.632001
 30
0.0
 10
12.157136
 20
43.552040
 30
0.0
 10
12.632961
 20
44.601453
 30
0.0
 10
11.700638
 20
45.572368
 30
0.0
 10
10.849830
 20
46.547100
 30
0.0
 10
10.105219
 20
47.586421
 30
0.0
 10
9.469083
 20
48.684620
 30
0.0
 10
8.943702
 20
49.835983
 30
0.0
 10
8.531355
 20
51.034799
 30
0.0
 10
8.234322
 20
52.275354
 30
0.0
 10
8.054881
 20
53.551938
 30
0.0
 10
7.995312
 20
54.858836
 30
0.0
 10
8.036960
 20
55.895450
 30
0.0
 10
8.173401
 20
57.231802
 30
0.0
 10
8.809306
 20
61.439466
 30
0.0
 10
9.951270
 20
67.542816
 30
0.0
 10
11.650996
 20
75.935402
 30
0.0
 10
13.267927
 20
83.529637
 30
0.0
 10
13.845171
 20
86.062502
 30
0.0
 10
14.161507
 20
87.237936
 30
0.0
 10
14.422876
 20
87.726998
 30
0.0
 10
14.750750
 20
88.122768
 30
0.0
 10
15.163596
 20
88.443096
 30
0.0
 10
15.679880
 20
88.705838
 30
0.0
 10
16.269827
 20
88.881837
 30
0.0
 10
16.873772
 20
88.933168
 30
0.0
 10
17.455648
 20
88.860482
 30
0.0
 10
17.979392
 20
88.664428
 30
0.0
 10
18.590535
 20
88.154914
 30
0.0
 10
19.875552
 20
86.969833
 30
0.0
 10
23.714475
 20
83.279714
 30
0.0
 10
28.936882
 20
78.168540
 30
0.0
 10
34.356147
 20
78.168540
 30
0.0
 10
39.775412
 20
78.168540
 30
0.0
 10
45.005134
 20
83.282404
 30
0.0
 10
48.846551
 20
86.973632
 30
0.0
 10
50.130245
 20
88.158436
 30
0.0
 10
50.738430
 20
88.667117
 30
0.0
 10
51.271227
 20
88.866462
 30
0.0
 10
51.847725
 20
88.932323
 30
0.0
 10
52.439723
 20
88.875714
 30
0.0
 10
53.019017
 20
88.707652
 30
0.0
 10
53.557403
 20
88.439154
 30
0.0
 10
54.026678
 20
88.081235
 30
0.0
 10
54.398639
 20
87.644912
 30
0.0
 10
54.645083
 20
87.141199
 30
0.0
 10
54.972363
 20
85.817064
 30
0.0
 10
55.547268
 20
83.188283
 30
0.0
 10
57.127511
 20
75.558211
 30
0.0
 10
58.760926
 20
67.333843
 30
0.0
 10
59.822625
 20
61.598038
 30
0.0
 10
60.304443
 20
58.595796
 30
0.0
 10
60.559567
 20
56.736850
 30
0.0
 10
60.647056
 20
55.484949
 30
0.0
 10
60.625970
 20
54.303841
 30
0.0
 10
60.518484
 20
53.010354
 30
0.0
 10
60.306260
 20
51.772187
 30
0.0
 10
59.987867
 20
50.586017
 30
0.0
 10
59.561871
 20
49.448519
 30
0.0
 10
59.026841
 20
48.356371
 30
0.0
 10
58.381342
 20
47.306248
 30
0.0
 10
57.623942
 20
46.294826
 30
0.0
 10
56.753210
 20
45.318783
 30
0.0
 10
56.038104
 20
44.579335
 30
0.0
 10
56.596390
 20
43.257381
 30
0.0
 10
57.046851
 20
42.079207
 30
0.0
 10
57.345899
 20
41.102939
 30
0.0
 10
57.463129
 20
40.644138
 30
0.0
 10
57.580277
 20
40.394495
 30
0.0
 10
57.748247
 20
40.290952
 30
0.0
 10
58.017943
 20
40.270451
 30
0.0
 10
58.379001
 20
40.314130
 30
0.0
 10
58.737573
 20
40.443566
 30
0.0
 10
59.092464
 20
40.656361
 30
0.0
 10
59.442476
 20
40.950113
 30
0.0
 10
59.786413
 20
41.322422
 30
0.0
 10
60.123078
 20
41.770888
 30
0.0
 10
60.451276
 20
42.293110
 30
0.0
 10
60.769809
 20
42.886690
 30
0.0
 10
61.373094
 20
44.278318
 30
0.0
 10
61.923363
 20
45.926571
 30
0.0
 10
62.411042
 20
47.812246
 30
0.0
 10
62.826559
 20
49.916143
 30
0.0
 10
63.082473
 20
51.561949
 30
0.0
 10
63.194157
 20
52.691654
 30
0.0
 10
63.165318
 20
53.386899
 30
0.0
 10
63.099361
 20
53.597112
 30
0.0
 10
62.999662
 20
53.729327
 30
0.0
 10
62.700494
 20
54.175605
 30
0.0
 10
62.282191
 20
54.998785
 30
0.0
 10
62.056652
 20
55.541956
 30
0.0
 10
61.875597
 20
56.094173
 30
0.0
 10
61.738613
 20
56.653094
 30
0.0
 10
61.645286
 20
57.216379
 30
0.0
 10
61.595202
 20
57.781687
 30
0.0
 10
61.587947
 20
58.346677
 30
0.0
 10
61.623106
 20
58.909009
 30
0.0
 10
61.700266
 20
59.466343
 30
0.0
 10
61.819012
 20
60.016337
 30
0.0
 10
61.978930
 20
60.556651
 30
0.0
 10
62.179607
 20
61.084944
 30
0.0
 10
62.420627
 20
61.598876
 30
0.0
 10
62.701578
 20
62.096106
 30
0.0
 10
63.022044
 20
62.574294
 30
0.0
 10
63.381613
 20
63.031098
 30
0.0
 10
63.779868
 20
63.464179
 30
0.0
 10
64.437192
 20
64.055780
 30
0.0
 10
65.137961
 20
64.555742
 30
0.0
 10
65.874806
 20
64.964781
 30
0.0
 10
66.640359
 20
65.283616
 30
0.0
 10
67.427248
 20
65.512962
 30
0.0
 10
68.228107
 20
65.653539
 30
0.0
 10
69.035565
 20
65.706062
 30
0.0
 10
69.842253
 20
65.671249
 30
0.0
 10
70.640803
 20
65.549818
 30
0.0
 10
71.423845
 20
65.342485
 30
0.0
 10
72.184009
 20
65.049969
 30
0.0
 10
72.913927
 20
64.672985
 30
0.0
 10
73.606230
 20
64.212252
 30
0.0
 10
74.253548
 20
63.668487
 30
0.0
 10
74.848513
 20
63.042406
 30
0.0
 10
75.383754
 20
62.334728
 30
0.0
 10
75.966651
 20
61.341044
 30
0.0
 10
76.179517
 20
60.855262
 30
0.0
 10
76.344772
 20
60.359964
 30
0.0
 10
76.466001
 20
59.842479
 30
0.0
 10
76.546786
 20
59.290140
 30
0.0
 10
76.601360
 20
58.030224
 30
0.0
 10
76.536266
 20
56.896493
 30
0.0
 10
76.337290
 20
55.916864
 30
0.0
 10
75.973040
 20
54.984802
 30
0.0
 10
75.412126
 20
53.993772
 30
0.0
 10
74.923625
 20
53.223483
 30
0.0
 10
74.941517
 20
50.113529
 30
0.0
 10
74.909628
 20
47.665106
 30
0.0
 10
74.782770
 20
45.381474
 30
0.0
 10
74.557929
 20
43.247136
 30
0.0
 10
74.232087
 20
41.246597
 30
0.0
 10
73.802229
 20
39.364359
 30
0.0
 10
73.265339
 20
37.584928
 30
0.0
 10
72.618401
 20
35.892806
 30
0.0
 10
71.858398
 20
34.272498
 30
0.0
 10
71.082073
 20
32.895546
 30
0.0
 10
70.221541
 20
31.618859
 30
0.0
 10
69.278276
 20
30.443847
 30
0.0
 10
68.253753
 20
29.371924
 30
0.0
 10
67.149446
 20
28.404502
 30
0.0
 10
65.966829
 20
27.542994
 30
0.0
 10
64.707378
 20
26.788812
 30
0.0
 10
63.372565
 20
26.143369
 30
0.0
 10
62.205488
 20
25.699100
 30
0.0
 10
60.918373
 20
25.295575
 30
0.0
 10
59.755984
 20
25.002408
 30
0.0
 10
58.963086
 20
24.889215
 30
0.0
 10
58.743896
 20
24.869594
 30
0.0
 10
58.679264
 20
24.825480
 30
0.0
 10
58.640240
 20
24.741088
 30
0.0
 10
58.625911
 20
24.399239
 30
0.0
 10
58.674706
 20
23.739586
 30
0.0
 10
58.892014
 20
20.898008
 30
0.0
 10
59.022198
 20
18.504794
 30
0.0
 10
59.060414
 20
16.489595
 30
0.0
 10
59.001816
 20
14.782060
 30
0.0
 10
58.841560
 20
13.311838
 30
0.0
 10
58.574799
 20
12.008580
 30
0.0
 10
58.196689
 20
10.801935
 30
0.0
 10
57.702385
 20
9.621552
 30
0.0
 10
57.096192
 20
8.318710
 30
0.0
 10
57.623789
 20
7.446578
 30
0.0
 10
58.074282
 20
6.580631
 30
0.0
 10
58.399256
 20
5.681184
 30
0.0
 10
58.597445
 20
4.752660
 30
0.0
 10
58.667582
 20
3.799483
 30
0.0
 10
58.643923
 20
3.266145
 30
0.0
 10
58.565128
 20
2.786392
 30
0.0
 10
58.429412
 20
2.357374
 30
0.0
 10
58.234989
 20
1.976239
 30
0.0
 10
57.980072
 20
1.640137
 30
0.0
 10
57.662877
 20
1.346216
 30
0.0
 10
57.281617
 20
1.091626
 30
0.0
 10
56.834507
 20
0.873515
 30
0.0
 10
56.515294
 20
0.800545
 30
0.0
 10
55.832133
 20
0.743715
 30
0.0
 10
52.676080
 20
0.671257
 30
0.0
 10
34.319811
 20
0.640612
 30
0.0
 10
17.700229
 20
0.690926
 30
0.0
 10
13.475597
 20
0.744843
 30
0.0
 10
11.916788
 20
0.818395
 30
0.0
 10
11.916785
 20
0.818395
 30
0.0
  0
ENDSEC
  0
SECTION
  2
OBJECTS
  0
DICTIONARY
  5
C
330
0
100
AcDbDictionary
  3
ACAD_GROUP
350
D
  3
ACAD_MLINESTYLE
350
17
  0
DICTIONARY
  5
D
330
C
100
AcDbDictionary
  0
DICTIONARY
  5
1A
330
C
100
AcDbDictionary
  0
DICTIONARY
  5
17
330
C
100
AcDbDictionary
  3
STANDARD
350
18
  0
DICTIONARY
  5
19
330
C
100
AcDbDictionary
  0
ENDSEC
  0
EOF
