<?xml version="1.0" encoding="UTF-8" standalone="no"?>
<!-- Generator: Adobe Illustrator 21.0.2, SVG Export Plug-In . SVG Version: 6.00 Build 0)  -->

<svg
   xmlns:dc="http://purl.org/dc/elements/1.1/"
   xmlns:cc="http://creativecommons.org/ns#"
   xmlns:rdf="http://www.w3.org/1999/02/22-rdf-syntax-ns#"
   xmlns:svg="http://www.w3.org/2000/svg"
   xmlns="http://www.w3.org/2000/svg"
   xmlns:sodipodi="http://sodipodi.sourceforge.net/DTD/sodipodi-0.dtd"
   xmlns:inkscape="http://www.inkscape.org/namespaces/inkscape"
   version="1.1"
   x="0px"
   y="0px"
   viewBox="0 0 283.5 340.2"
   style="enable-background:new 0 0 283.5 340.2;"
   xml:space="preserve"
   id="svg4946"
   sodipodi:docname="meow_v5_nogray_outline.svg"
   inkscape:version="0.91 r13725"><metadata
     id="metadata4952"><rdf:RDF><cc:Work
         rdf:about=""><dc:format>image/svg+xml</dc:format><dc:type
           rdf:resource="http://purl.org/dc/dcmitype/StillImage" /><dc:title></dc:title></cc:Work></rdf:RDF></metadata><defs
     id="defs4950" /><sodipodi:namedview
     pagecolor="#ffffff"
     bordercolor="#666666"
     borderopacity="1"
     objecttolerance="10"
     gridtolerance="10"
     guidetolerance="10"
     inkscape:pageopacity="0"
     inkscape:pageshadow="2"
     inkscape:window-width="1366"
     inkscape:window-height="667"
     id="namedview4948"
     showgrid="false"
     inkscape:zoom="0.79400961"
     inkscape:cx="100.74074"
     inkscape:cy="117.27199"
     inkscape:window-x="-1"
     inkscape:window-y="0"
     inkscape:window-maximized="0"
     inkscape:current-layer="Layer_2"
     showguides="false" /><style
     type="text/css"
     id="style4772">
	.st0{fill:#EFEFEF;}
	.st1{fill:#F16B6C;}
	.st2{fill:#FFFFFF;}
	.st3{fill:none;stroke:#F16B6C;stroke-width:4.5536;stroke-linecap:round;stroke-miterlimit:10;}
	.st4{fill:#FFCC00;}
</style><g
     id="svg8"
     inkscape:export-filename="C:\Users\dash\Documents\GitHub\defcon26-meow\art\meow_v1.png"
     inkscape:export-xdpi="96"
     inkscape:export-ydpi="96"
     inkscape:version="0.92.1 r15371"
     sodipodi:docname="meow_v3.svg"><sodipodi:namedview
       bordercolor="#666666"
       borderopacity="1.0"
       id="base"
       inkscape:current-layer="layer12"
       inkscape:cx="62.544425"
       inkscape:cy="233.65003"
       inkscape:document-units="cm"
       inkscape:guide-bbox="true"
       inkscape:lockguides="false"
       inkscape:object-nodes="false"
       inkscape:object-paths="false"
       inkscape:pagecheckerboard="true"
       inkscape:pageopacity="0.0"
       inkscape:pageshadow="2"
       inkscape:snap-intersection-paths="false"
       inkscape:snap-nodes="false"
       inkscape:snap-smooth-nodes="false"
       inkscape:snap-to-guides="true"
       inkscape:window-height="1048"
       inkscape:window-maximized="1"
       inkscape:window-width="1735"
       inkscape:window-x="1921"
       inkscape:window-y="0"
       inkscape:zoom="1.4142136"
       objecttolerance="10000"
       pagecolor="#ffffff"
       showgrid="false"
       showguides="false"
       units="cm"><sodipodi:guide
         id="guide4491"
         inkscape:locked="false"
         orientation="1,0"
         position="70.114584,301.625" /><sodipodi:guide
         id="guide4493"
         inkscape:locked="false"
         orientation="1,0"
         position="129.81167,326.09462" /><inkscape:grid
         id="grid4495"
         type="xygrid" /><sodipodi:guide
         id="guide4499"
         inkscape:locked="false"
         orientation="0,1"
         position="-19.84375,260.04762" /><sodipodi:guide
         id="guide4501"
         inkscape:locked="false"
         orientation="0,1"
         position="-20.032738,179.91667" /><sodipodi:guide
         id="guide4503"
         inkscape:locked="false"
         orientation="0,1"
         position="-16.630952,270.06399" /><sodipodi:guide
         id="guide4512"
         inkscape:locked="false"
         orientation="0,1"
         position="-19.465774,219.98214" /><sodipodi:guide
         id="guide4514"
         inkscape:locked="false"
         orientation="-0.82575936,0.56402259"
         position="60.098215,179.91667" /><sodipodi:guide
         id="guide4518"
         inkscape:locked="false"
         orientation="-0.82575936,-0.56402259"
         position="140.07024,179.91667" /><sodipodi:guide
         id="guide4520"
         inkscape:locked="false"
         orientation="1,0"
         position="79.941963,226.97471" /><sodipodi:guide
         id="guide4522"
         inkscape:locked="false"
         orientation="1,0"
         position="119.93731,202.36411" /><sodipodi:guide
         id="guide4541"
         inkscape:locked="false"
         orientation="1,0"
         position="124.99885,314.20012" /><sodipodi:guide
         id="guide4543"
         inkscape:locked="false"
         orientation="1,0"
         position="74.835466,302.68275" /><sodipodi:guide
         id="guide4584"
         inkscape:locked="false"
         orientation="0,1"
         position="83.871844,297.00001" /><sodipodi:guide
         id="guide4586"
         inkscape:locked="false"
         orientation="0,1"
         position="44.675444,230.00027" /><sodipodi:guide
         id="guide4588"
         inkscape:locked="false"
         orientation="0,1"
         position="70.109929,209.50604" /><sodipodi:guide
         id="guide4590"
         inkscape:locked="false"
         orientation="0,1"
         position="63.219967,249.92962" /><sodipodi:guide
         id="guide4592"
         inkscape:locked="false"
         orientation="0,1"
         position="59.968654,242.10238" /><sodipodi:guide
         id="guide4594"
         inkscape:locked="false"
         orientation="1,0"
         position="88.033508,219.98214" /><sodipodi:guide
         id="guide4596"
         inkscape:locked="false"
         orientation="1,0"
         position="111.92945,245.11286" /><sodipodi:guide
         id="guide4598"
         inkscape:locked="false"
         orientation="1,0"
         position="93.926808,245.11286" /><sodipodi:guide
         id="guide4600"
         inkscape:locked="false"
         orientation="1,0"
         position="106.08913,212.41909" /><sodipodi:guide
         id="guide4612"
         inkscape:locked="false"
         orientation="0,1"
         position="88.026276,238.4296" /><sodipodi:guide
         id="guide4614"
         inkscape:locked="false"
         orientation="0,1"
         position="85.076013,233.9741" /><sodipodi:guide
         id="guide4669"
         inkscape:locked="false"
         orientation="0.59697004,0.80226353"
         position="91.879688,214.3759" /><sodipodi:guide
         id="guide4692"
         inkscape:locked="false"
         orientation="1,0"
         position="100.00044,239.56605" /><sodipodi:guide
         id="guide4725"
         inkscape:locked="false"
         orientation="0,1"
         position="63.761852,190.02117" /><sodipodi:guide
         id="guide4727"
         inkscape:locked="false"
         orientation="0,1"
         position="84.297592,194.9914" /></sodipodi:namedview></g><g
     id="Layer_2"><path
       style="fill:#ffffff;fill-opacity:1;stroke:#f16b6c;stroke-width:2;stroke-miterlimit:4;stroke-dasharray:none;stroke-opacity:1"
       d="m 228.5,247.09961 c 6.6,-3.1 12.70039,-7.5 17.40039,-12.5 4.8,-5 8.39961,-10.29961 11.09961,-15.59961 2.7,-5.3 4.59961,-10.5 6.09961,-15.5 2.9,-10.1 4.09961,-19.60078 4.59961,-28.80078 0.43094,-7.84321 0.25195,-15.59077 -0.18555,-23.0293 C 271.55066,146.94281 274,140.81404 274,134.09961 274,119.19961 261.90039,107 246.90039,107 c -14.9,0 -27.09961,12.09961 -27.09961,27.09961 0,6.53066 2.32489,12.54294 6.19922,17.23633 -0.61225,6.26821 -1.49912,12.3211 -2.69922,18.06445 -1.4,6.7 -3.40078,13 -5.80078,18 -1.3,2.5 -2.60039,4.69883 -3.90039,6.29883 -1.3,1.6 -2.59961,2.70117 -3.59961,3.20117 -1,0.6 -3.8,0.59961 -4.5,0.59961 -0.62612,0 -0.56126,-0.32578 -1.45898,-0.53906 C 199.04984,171.81939 176.85781,153.09961 150.5,153.09961 l -57.699219,0 c -28.9,0 -52.801562,22.50078 -54.601562,51.30078 L 33.5,280.09961 c -1.9,31.5 23.099609,58.09961 54.599609,58.09961 l 67.000001,0 c 31.5,0 56.49961,-26.59961 54.59961,-58.09961 l -1.76367,-28.40625 1.71757,-2.00275 c 3.3947,-0.38881 14.44581,-0.52383 18.84688,-2.591 z"
       id="path4253"
       inkscape:connector-curvature="0"
       sodipodi:nodetypes="scscccssscscscscssccsscccs" /><circle
       class="st1"
       cx="121.6"
       cy="148.7"
       r="75.6"
       id="circle4806" /><circle
       class="st0"
       cx="121.6"
       cy="148.7"
       r="58.4"
       id="circle4808"
       style="fill:#feffff;fill-opacity:1" /><path
       class="st2"
       d="M209.7,105.7L194.4,33c-1.7-8.1-11.7-11.1-17.6-5.3l-35.9,35.2L209.7,105.7z"
       id="path4810"
       style="stroke:#f16b6c;stroke-opacity:1;stroke-width:2;stroke-miterlimit:4;stroke-dasharray:none" /><path
       class="st2"
       d="M33.7,105.7L49.1,33c1.7-8.1,11.7-11.1,17.6-5.3l35.9,35.2L33.7,105.7z"
       id="path4812"
       style="stroke-width:2;stroke-miterlimit:4;stroke-dasharray:none;stroke:#f16b6c;stroke-opacity:1" /><path
       class="st1"
       d="M43.4,94.3l11-52.2c1.2-5.8,8.4-8,12.6-3.8l25.8,25.3L43.4,94.3z"
       id="path4814"
       style="stroke-width:0.2;stroke-miterlimit:4;stroke-dasharray:none" /><path
       class="st1"
       d="M200.1,94.3l-11-52.2c-1.2-5.8-8.4-8-12.6-3.8l-25.8,25.3L200.1,94.3z"
       id="path4816" /><path
       class="st2"
       d="M166.5,194.5l-89.7,0c-30.1,0-53.1-27-48.3-56.7l5.5-33.8c3.8-23.7,24.3-41.1,48.3-41.1l78.7,0   c24,0,44.4,17.4,48.3,41.1l5.5,33.8C219.6,167.5,196.6,194.5,166.5,194.5z"
       id="path4818"
       style="stroke:#f16b6c;stroke-opacity:1;stroke-width:2;stroke-miterlimit:4;stroke-dasharray:none" /><g
       id="g4828"><g
         id="g4824"><path
           class="st2"
           d="M75.6,145.7c-6.2,0-12-2.4-16.4-6.8c-4.4-4.4-6.8-10.2-6.8-16.4c0-12.8,10.4-23.1,23.1-23.1     c12.8,0,23.1,10.4,23.1,23.1c0,6.2-2.4,12-6.8,16.4C87.6,143.3,81.8,145.7,75.6,145.7C75.6,145.7,75.6,145.7,75.6,145.7z"
           id="path4820" /><path
           class="st1"
           d="M75.6,100.5c12.2,0,22.1,9.9,22.1,22.1c0,12.2-9.9,22.1-22.1,22.1c-12.2,0-22.1-9.9-22.1-22.1     C53.5,110.4,63.4,100.5,75.6,100.5 M75.6,98.5v2V98.5L75.6,98.5c-13.3,0-24.1,10.8-24.1,24.1c0,13.3,10.8,24.1,24.1,24.1     c13.3,0,24.1-10.8,24.1-24.1C99.8,109.3,88.9,98.5,75.6,98.5L75.6,98.5z"
           id="path4822" /></g><circle
         class="st1"
         cx="75.6"
         cy="122.6"
         r="18.4"
         id="circle4826" /></g><g
       id="g4838"><g
         id="g4834"><path
           class="st2"
           d="M167.6,145.7c-6.2,0-12-2.4-16.4-6.8c-4.4-4.4-6.8-10.2-6.8-16.4c0-6.2,2.4-12,6.8-16.4     c4.4-4.4,10.2-6.8,16.4-6.8c12.8,0,23.1,10.4,23.1,23.1C190.8,135.3,180.4,145.7,167.6,145.7     C167.6,145.7,167.6,145.7,167.6,145.7z"
           id="path4830" /><path
           class="st1"
           d="M167.6,100.5c12.2,0,22.1,9.9,22.1,22.1c0,12.2-9.9,22.1-22.1,22.1s-22.1-9.9-22.1-22.1     S155.4,100.5,167.6,100.5 M167.6,98.5v2V98.5L167.6,98.5c-13.3,0-24.1,10.8-24.1,24.1c0,13.3,10.8,24.1,24.1,24.1     c13.3,0,24.1-10.8,24.1-24.1C191.8,109.3,180.9,98.5,167.6,98.5L167.6,98.5z"
           id="path4832" /></g><circle
         class="st1"
         cx="167.6"
         cy="122.6"
         r="18.4"
         id="circle4836" /></g><g
       id="g4852"><g
         id="g4842"><line
           class="st3"
           x1="66.3"
           y1="167.8"
           x2="54.7"
           y2="167.8"
           id="line4840" /></g><g
         id="g4846"><line
           class="st3"
           x1="66.3"
           y1="159.1"
           x2="54.7"
           y2="159.1"
           id="line4844" /></g><g
         id="g4850"><line
           class="st3"
           x1="66.3"
           y1="150.4"
           x2="54.7"
           y2="150.4"
           id="line4848" /></g></g><g
       id="g4866"><g
         id="g4856"><line
           class="st3"
           x1="191.8"
           y1="167.8"
           x2="180.2"
           y2="167.8"
           id="line4854" /></g><g
         id="g4860"><line
           class="st3"
           x1="191.8"
           y1="159.1"
           x2="180.2"
           y2="159.1"
           id="line4858" /></g><g
         id="g4864"><line
           class="st3"
           x1="191.8"
           y1="150.3"
           x2="180.2"
           y2="150.3"
           id="line4862" /></g></g><path
       class="st3"
       d="M121.6,151.4c0,9.5-7.7,17.2-17.2,17.2c-9.5,0-17.2-7.7-17.2-17.2"
       id="path4868" /><path
       class="st3"
       d="M156.1,151.4c0,9.5-7.7,17.2-17.2,17.2s-17.2-7.7-17.2-17.2"
       id="path4870" /><path
       class="st4"
       d="M112,143.3l19.3,0c1.7,0,2.5,2.1,1.2,3.2l-9.6,8.2c-0.7,0.6-1.7,0.6-2.3,0l-9.6-8.2   C109.5,145.4,110.3,143.3,112,143.3z"
       id="path4872" /><path
       class="st1"
       d="M121.8,96.2L121.8,96.2c-16.5,0-29.9-13.4-29.9-29.9v-3.5h59.8v3.5C151.7,82.8,138.3,96.2,121.8,96.2z"
       id="path4874" /><circle
       class="st4"
       cx="121.8"
       cy="217"
       r="15.9"
       id="circle4876" /><g
       id="g4882"><path
         class="st1"
         d="M130.5,339h-17.8c-17.1,0-30.9-13.9-30.9-30.9v-38.3c0-17.1,13.9-30.9,30.9-30.9h17.8    c17.1,0,30.9,13.9,30.9,30.9v38.3C161.5,325.2,147.6,339,130.5,339z"
         id="path4878" /><path
         class="st4"
         d="M129.8,330.1h-16.2c-15.6,0-28.2-12.6-28.2-28.2V267c0-15.6,12.6-28.2,28.2-28.2h16.2    c15.6,0,28.2,12.6,28.2,28.2v34.9C157.9,317.5,145.3,330.1,129.8,330.1z"
         id="path4880" /></g><path
       class="st2"
       d="M88.5,338.2H45.7c-6,0-10.8-4.8-10.8-10.8v0c0-14.9,12.1-27,27-27h10.3c14.9,0,27,12.1,27,27v0   C99.3,333.4,94.5,338.2,88.5,338.2z"
       id="path4884"
       style="stroke:#f16b6c;stroke-opacity:1;stroke-width:2;stroke-miterlimit:4;stroke-dasharray:none" /><path
       class="st2"
       d="M197.6,338.2h-42.8c-6,0-10.8-4.8-10.8-10.8v0c0-14.9,12.1-27,27-27h10.3c14.9,0,27,12.1,27,27v0   C208.4,333.4,203.5,338.2,197.6,338.2z"
       id="path4886"
       style="stroke:#f16b6c;stroke-opacity:1;stroke-width:2;stroke-miterlimit:4;stroke-dasharray:none" /><g
       id="g4898"
       style="stroke-width:2;stroke-miterlimit:4;stroke-dasharray:none"><g
         id="g4894"
         style="stroke-width:2;stroke-miterlimit:4;stroke-dasharray:none"><path
           style="stroke-width:2;stroke-miterlimit:4;stroke-dasharray:none;stroke:#f16b6c;stroke-opacity:1;fill:#ffffff;fill-opacity:1"
           d="M 64.050781 207.97461 C 57.850781 207.97461 51.650391 210.34961 46.900391 215.09961 C 37.400391 224.59961 37.400391 239.90039 46.900391 249.40039 L 68.599609 271.09961 C 70.118852 272.61886 71.78807 273.89238 73.556641 274.92578 A 12.299882 12.299882 0 0 0 76.185547 288.39648 A 12.299882 12.299882 0 0 0 93.582031 288.39648 A 12.299882 12.299882 0 0 0 96.90625 282.30273 C 101.69209 285.55128 108.26068 285.05565 112.50195 280.81445 C 116.66416 276.64936 117.29062 270.11865 113.99609 265.23828 C 114.06539 265.22358 114.13602 265.21317 114.20508 265.19727 C 116.40616 264.68949 118.46711 263.57669 120.12891 261.91797 C 124.93223 257.11458 124.93223 249.32683 120.12891 244.52344 C 116.62493 241.02039 111.36118 239.96179 106.77539 241.83789 C 106.75359 241.80019 106.73314 241.76219 106.71094 241.72461 C 105.68086 239.96779 104.41065 238.31104 102.90039 236.80078 L 81.199219 215.09961 C 76.449219 210.34961 70.250781 207.97461 64.050781 207.97461 z "
           id="ellipse4890" /><g
           id="g4243"
           style="stroke-width:2;stroke-miterlimit:4;stroke-dasharray:none" /></g></g><g
       id="g4916"><g
         id="g4906"><line
           class="st3"
           x1="82.3"
           y1="325.7"
           x2="82.3"
           y2="333.3"
           id="line4904" /></g><g
         id="g4910"><line
           class="st3"
           x1="67.3"
           y1="325.7"
           x2="67.3"
           y2="333.3"
           id="line4908" /></g><g
         id="g4914"><line
           class="st3"
           x1="52.3"
           y1="325.7"
           x2="52.3"
           y2="333.3"
           id="line4912" /></g></g><g
       id="g4930"><g
         id="g4920"><line
           class="st3"
           x1="192.3"
           y1="325.7"
           x2="192.3"
           y2="333.3"
           id="line4918" /></g><g
         id="g4924"><line
           class="st3"
           x1="177.3"
           y1="325.7"
           x2="177.3"
           y2="333.3"
           id="line4922" /></g><g
         id="g4928"><line
           class="st3"
           x1="162.3"
           y1="325.7"
           x2="162.3"
           y2="333.3"
           id="line4926" /></g></g><g
       id="g4235"
       style="stroke:#f16b6c;stroke-width:2;stroke-miterlimit:4;stroke-dasharray:none;stroke-opacity:1"
       transform="translate(-2,0)"><g
         id="g4902"
         style="stroke:#f16b6c;stroke-width:2;stroke-miterlimit:4;stroke-dasharray:none;stroke-opacity:1" /></g><ellipse
       class="st1"
       cx="247.37103"
       cy="142.66447"
       rx="15.1"
       ry="11.5"
       id="ellipse4934"
       style="fill:#f16b6c" /><path
       class="st1"
       d="m 241.17103,127.76448 0,0 c -2.5,0 -4.5,-2 -4.5,-4.5 l 0,-4.7 c 0,-2.5 2,-4.5 4.5,-4.5 l 0,0 c 2.5,0 4.5,2 4.5,4.5 l 0,4.7 c 0,2.5 -2,4.5 -4.5,4.5 z"
       id="path4936"
       inkscape:connector-curvature="0"
       style="fill:#f16b6c" /><path
       class="st1"
       d="m 229.77103,135.76448 0,0 c -2.5,0 -4.5,-2 -4.5,-4.5 l 0,-4.7 c 0,-2.5 2,-4.5 4.5,-4.5 l 0,0 c 2.5,0 4.5,2 4.5,4.5 l 0,4.7 c 0,2.5 -2,4.5 -4.5,4.5 z"
       id="path4938"
       inkscape:connector-curvature="0"
       style="fill:#f16b6c" /><path
       class="st1"
       d="m 265.17103,135.76448 0,0 c -2.5,0 -4.5,-2 -4.5,-4.5 l 0,-4.7 c 0,-2.5 2,-4.5 4.5,-4.5 l 0,0 c 2.5,0 4.5,2 4.5,4.5 l 0,4.7 c 0,2.5 -2,4.5 -4.5,4.5 z"
       id="path4940"
       inkscape:connector-curvature="0"
       style="fill:#f16b6c" /><path
       class="st1"
       d="m 253.77103,127.76448 0,0 c -2.5,0 -4.5,-2 -4.5,-4.5 l 0,-4.7 c 0,-2.5 2,-4.5 4.5,-4.5 l 0,0 c 2.5,0 4.5,2 4.5,4.5 l 0,4.7 c 0,2.5 -2.1,4.5 -4.5,4.5 z"
       id="path4942"
       inkscape:connector-curvature="0"
       style="fill:#f16b6c" /></g><g
     id="Layer_3" /></svg>