  0
SECTION
  2
HEADER
  9
$ACADVER
  1
AC1014
  9
$HANDSEED
  5
FFFF
  9
$MEASUREMENT
 70
     1
  0
ENDSEC
  0
SECTION
  2
TABLES
  0
TABLE
  2
VPORT
  5
8
330
0
100
AcDbSymbolTable
 70
     4
  0
VPORT
  5
2E
330
8
100
AcDbSymbolTableRecord
100
AcDbViewportTableRecord
  2
*ACTIVE
 70
     0
 10
0.0
 20
0.0
 11
1.0
 21
1.0
 12
210.0
 22
148.5
 13
0.0
 23
0.0
 14
10.0
 24
10.0
 15
10.0
 25
10.0
 16
0.0
 26
0.0
 36
1.0
 17
0.0
 27
0.0
 37
0.0
 40
341.0
 41
1.24
 42
50.0
 43
0.0
 44
0.0
 50
0.0
 51
0.0
 71
     0
 72
   100
 73
     1
 74
     3
 75
     0
 76
     0
 77
     0
 78
     0
  0
ENDTAB
  0
TABLE
  2
LTYPE
  5
5
330
0
100
AcDbSymbolTable
 70
     1
  0
LTYPE
  5
14
330
5
100
AcDbSymbolTableRecord
100
AcDbLinetypeTableRecord
  2
BYBLOCK
 70
     0
  3

 72
    65
 73
     0
 40
0.0
  0
LTYPE
  5
15
330
5
100
AcDbSymbolTableRecord
100
AcDbLinetypeTableRecord
  2
BYLAYER
 70
     0
  3

 72
    65
 73
     0
 40
0.0
  0
LTYPE
  5
16
330
5
100
AcDbSymbolTableRecord
100
AcDbLinetypeTableRecord
  2
CONTINUOUS
 70
     0
  3
Solid line
 72
    65
 73
     0
 40
0.0
  0
ENDTAB
  0
TABLE
  2
LAYER
  5
2
100
AcDbSymbolTable
 70
1
  0
LAYER
  5
50
100
AcDbSymbolTableRecord
100
AcDbLayerTableRecord
  2
0
 70
0
  6
CONTINUOUS
  0
ENDTAB
  0
TABLE
  2
STYLE
  5
3
330
0
100
AcDbSymbolTable
 70
     1
  0
STYLE
  5
11
330
3
100
AcDbSymbolTableRecord
100
AcDbTextStyleTableRecord
  2
STANDARD
 70
     0
 40
0.0
 41
1.0
 50
0.0
 71
     0
 42
2.5
  3
txt
  4

  0
ENDTAB
  0
TABLE
  2
VIEW
  5
6
330
0
100
AcDbSymbolTable
 70
     0
  0
ENDTAB
  0
TABLE
  2
UCS
  5
7
330
0
100
AcDbSymbolTable
 70
     0
  0
ENDTAB
  0
TABLE
  2
APPID
  5
9
330
0
100
AcDbSymbolTable
 70
     2
  0
APPID
  5
12
330
9
100
AcDbSymbolTableRecord
100
AcDbRegAppTableRecord
  2
ACAD
 70
     0
  0
ENDTAB
  0
TABLE
  2
DIMSTYLE
  5
A
330
0
100
AcDbSymbolTable
 70
     1
  0
DIMSTYLE
105
27
330
A
100
AcDbSymbolTableRecord
100
AcDbDimStyleTableRecord
  2
ISO-25
 70
     0
  3

  4

  5

  6

  7

 40
1.0
 41
2.5
 42
0.625
 43
3.75
 44
1.25
 45
0.0
 46
0.0
 47
0.0
 48
0.0
140
2.5
141
2.5
142
0.0
143
0.03937007874016
144
1.0
145
0.0
146
1.0
147
0.625
 71
     0
 72
     0
 73
     0
 74
     0
 75
     0
 76
     0
 77
     1
 78
     8
170
     0
171
     3
172
     1
173
     0
174
     0
175
     0
176
     0
177
     0
178
     0
270
     2
271
     2
272
     2
273
     2
274
     3
340
11
275
     0
280
     0
281
     0
282
     0
283
     0
284
     8
285
     0
286
     0
287
     3
288
     0
  0
ENDTAB
  0
TABLE
  2
BLOCK_RECORD
  5
1
330
0
100
AcDbSymbolTable
 70
     1
  0
BLOCK_RECORD
  5
1F
330
1
100
AcDbSymbolTableRecord
100
AcDbBlockTableRecord
  2
*MODEL_SPACE
  0
BLOCK_RECORD
  5
1B
330
1
100
AcDbSymbolTableRecord
100
AcDbBlockTableRecord
  2
*PAPER_SPACE
  0
ENDTAB
  0
ENDSEC
  0
SECTION
  2
BLOCKS
  0
BLOCK
  5
20
330
1F
100
AcDbEntity
  8
0
100
AcDbBlockBegin
  2
*MODEL_SPACE
 70
     0
 10
0.0
 20
0.0
 30
0.0
  3
*MODEL_SPACE
  1

  0
ENDBLK
  5
21
330
1F
100
AcDbEntity
  8
0
100
AcDbBlockEnd
  0
BLOCK
  5
1C
330
1B
100
AcDbEntity
 67
     1
  8
0
100
AcDbBlockBegin
  2
*PAPER_SPACE
  1

  0
ENDBLK
  5
1D
330
1B
100
AcDbEntity
 67
     1
  8
0
100
AcDbBlockEnd
  0
ENDSEC
  0
SECTION
  2
ENTITIES
  0
SPLINE
  5
100
100
AcDbEntity
  8
0
 62
7
100
AcDbSpline
 70
8
 71
3
 72
8
 73
4
 74
0
 40
0
 40
0
 40
0
 40
0
 40
1
 40
1
 40
1
 40
1
 10
-18.493380
 20
87.933491
 30
0.0
 10
-19.258667
 20
87.963130
 30
0.0
 10
-20.045712
 20
87.698453
 30
0.0
 10
-20.670129
 20
87.084619
 30
0.0
  0
SPLINE
  5
101
100
AcDbEntity
  8
0
 62
7
100
AcDbSpline
 70
8
 71
3
 72
8
 73
4
 74
0
 40
0
 40
0
 40
0
 40
0
 40
1
 40
1
 40
1
 40
1
 10
-51.743237
 20
87.084619
 30
0.0
 10
-52.367654
 20
87.698453
 30
0.0
 10
-53.154679
 20
87.962540
 30
0.0
 10
-53.919986
 20
87.932940
 30
0.0
  0
SPLINE
  5
102
100
AcDbEntity
  8
0
 62
7
100
AcDbSpline
 70
8
 71
3
 72
8
 73
4
 74
0
 40
0
 40
0
 40
0
 40
0
 40
1
 40
1
 40
1
 40
1
 10
-53.919986
 20
87.932940
 30
0.0
 10
-55.195498
 20
87.883606
 30
0.0
 10
-56.410377
 20
87.017371
 30
0.0
 10
-56.710239
 20
85.588621
 30
0.0
  0
LWPOLYLINE
  5
103
100
AcDbEntity
  8
0
 62
7
100
AcDbPolyline
 90
4
 70
1
 10
-20.670129
 20
87.084619
 30
0.0
 10
-30.773353
 20
77.178178
 30
0.0
 10
-41.640009
 20
77.178178
 30
0.0
 10
-51.743237
 20
87.084619
 30
0.0
  0
SPLINE
  5
104
100
AcDbEntity
  8
0
 62
7
100
AcDbSpline
 70
8
 71
3
 72
8
 73
4
 74
0
 40
0
 40
0
 40
0
 40
0
 40
1
 40
1
 40
1
 40
1
 10
-60.623315
 20
67.116295
 30
0.0
 10
-60.767191
 20
66.606384
 30
0.0
 10
-60.886032
 20
66.085035
 30
0.0
 10
-60.971684
 20
65.550845
 30
0.0
  0
LWPOLYLINE
  5
105
100
AcDbEntity
  8
0
 62
7
100
AcDbPolyline
 90
2
 70
1
 10
-56.710239
 20
85.588621
 30
0.0
 10
-60.623315
 20
67.116295
 30
0.0
  0
SPLINE
  5
106
100
AcDbEntity
  8
0
 62
7
100
AcDbSpline
 70
8
 71
3
 72
8
 73
4
 74
0
 40
0
 40
0
 40
0
 40
0
 40
1
 40
1
 40
1
 40
1
 10
-62.523918
 20
56.011514
 30
0.0
 10
-63.315410
 20
51.114148
 30
0.0
 10
-61.425480
 20
46.480003
 30
0.0
 10
-58.025448
 20
43.470814
 30
0.0
  0
SPLINE
  5
107
100
AcDbEntity
  8
0
 62
7
100
AcDbSpline
 70
8
 71
3
 72
8
 73
4
 74
0
 40
0
 40
0
 40
0
 40
0
 40
1
 40
1
 40
1
 40
1
 10
-58.025448
 20
43.470814
 30
0.0
 10
-59.023216
 20
41.587367
 30
0.0
 10
-59.645666
 20
39.470286
 30
0.0
 10
-59.786582
 20
37.215624
 30
0.0
  0
LWPOLYLINE
  5
108
100
AcDbEntity
  8
0
 62
7
100
AcDbPolyline
 90
5
 70
1
 10
-60.971684
 20
65.550845
 30
0.0
 10
-61.026805
 20
65.210745
 30
0.0
 10
-61.056571
 20
65.071287
 30
0.0
 10
-61.048866
 20
65.076254
 30
0.0
 10
-62.523918
 20
56.011514
 30
0.0
  0
SPLINE
  5
109
100
AcDbEntity
  8
0
 62
7
100
AcDbSpline
 70
8
 71
3
 72
8
 73
4
 74
0
 40
0
 40
0
 40
0
 40
0
 40
1
 40
1
 40
1
 40
1
 10
-61.112806
 20
15.851622
 30
0.0
 10
-61.302451
 20
12.707497
 30
0.0
 10
-60.539173
 20
9.738556
 30
0.0
 10
-59.084334
 20
7.211323
 30
0.0
  0
SPLINE
  5
10a
100
AcDbEntity
  8
0
 62
7
100
AcDbSpline
 70
8
 71
3
 72
8
 73
4
 74
0
 40
0
 40
0
 40
0
 40
0
 40
1
 40
1
 40
1
 40
1
 10
-59.084334
 20
7.211323
 30
0.0
 10
-60.106185
 20
5.914515
 30
0.0
 10
-60.717585
 20
4.279568
 30
0.0
 10
-60.717585
 20
2.502290
 30
0.0
  0
SPLINE
  5
10b
100
AcDbEntity
  8
0
 62
7
100
AcDbSpline
 70
8
 71
3
 72
8
 73
4
 74
0
 40
0
 40
0
 40
0
 40
0
 40
1
 40
1
 40
1
 40
1
 10
-60.717585
 20
2.502290
 30
0.0
 10
-60.717585
 20
0.808957
 30
0.0
 10
-59.363249
 20
-0.545379
 30
0.0
 10
-57.669915
 20
-0.545379
 30
0.0
  0
LWPOLYLINE
  5
10c
100
AcDbEntity
  8
0
 62
7
100
AcDbPolyline
 90
2
 70
1
 10
-59.786582
 20
37.215624
 30
0.0
 10
-61.112806
 20
15.851622
 30
0.0
  0
SPLINE
  5
10d
100
AcDbEntity
  8
0
 62
7
100
AcDbSpline
 70
8
 71
3
 72
8
 73
4
 74
0
 40
0
 40
0
 40
0
 40
0
 40
1
 40
1
 40
1
 40
1
 10
-14.800246
 20
-0.545379
 30
0.0
 10
-13.135135
 20
-0.545379
 30
0.0
 10
-11.751916
 20
0.808957
 30
0.0
 10
-11.780138
 20
2.502290
 30
0.0
  0
SPLINE
  5
10e
100
AcDbEntity
  8
0
 62
7
100
AcDbSpline
 70
8
 71
3
 72
8
 73
4
 74
0
 40
0
 40
0
 40
0
 40
0
 40
1
 40
1
 40
1
 40
1
 10
-11.780138
 20
2.502290
 30
0.0
 10
-11.780138
 20
4.279782
 30
0.0
 10
-12.391866
 20
5.914992
 30
0.0
 10
-13.413940
 20
7.211874
 30
0.0
  0
SPLINE
  5
10f
100
AcDbEntity
  8
0
 62
7
100
AcDbSpline
 70
8
 71
3
 72
8
 73
4
 74
0
 40
0
 40
0
 40
0
 40
0
 40
1
 40
1
 40
1
 40
1
 10
-13.413940
 20
7.211874
 30
0.0
 10
-11.959256
 20
9.739019
 30
0.0
 10
-11.195834
 20
12.707669
 30
0.0
 10
-11.385468
 20
15.851622
 30
0.0
  0
LWPOLYLINE
  5
110
100
AcDbEntity
  8
0
 62
7
100
AcDbPolyline
 90
5
 70
1
 10
-57.669915
 20
-0.545379
 30
0.0
 10
-45.703583
 20
-0.545379
 30
0.0
 10
-45.590584
 20
-0.545379
 30
0.0
 10
-26.794692
 20
-0.545379
 30
0.0
 10
-14.800246
 20
-0.545379
 30
0.0
  0
SPLINE
  5
111
100
AcDbEntity
  8
0
 62
7
100
AcDbSpline
 70
8
 71
3
 72
8
 73
4
 74
0
 40
0
 40
0
 40
0
 40
0
 40
1
 40
1
 40
1
 40
1
 10
-11.868333
 20
23.626514
 30
0.0
 10
-10.151485
 20
23.878705
 30
0.0
 10
-8.339816
 20
24.368394
 30
0.0
 10
-6.643914
 20
25.164955
 30
0.0
  0
SPLINE
  5
112
100
AcDbEntity
  8
0
 62
7
100
AcDbSpline
 70
8
 71
3
 72
8
 73
4
 74
0
 40
0
 40
0
 40
0
 40
0
 40
1
 40
1
 40
1
 40
1
 10
-6.643914
 20
25.164955
 30
0.0
 10
-4.781247
 20
26.039844
 30
0.0
 10
-3.059582
 20
27.281622
 30
0.0
 10
-1.733137
 20
28.692733
 30
0.0
  0
SPLINE
  5
113
100
AcDbEntity
  8
0
 62
7
100
AcDbSpline
 70
8
 71
3
 72
8
 73
4
 74
0
 40
0
 40
0
 40
0
 40
0
 40
1
 40
1
 40
1
 40
1
 10
-1.733137
 20
28.692733
 30
0.0
 10
-0.378471
 20
30.103844
 30
0.0
 10
0.637419
 20
31.599512
 30
0.0
 10
1.399419
 20
33.095289
 30
0.0
  0
SPLINE
  5
114
100
AcDbEntity
  8
0
 62
7
100
AcDbSpline
 70
8
 71
3
 72
8
 73
4
 74
0
 40
0
 40
0
 40
0
 40
0
 40
1
 40
1
 40
1
 40
1
 10
1.399419
 20
33.095289
 30
0.0
 10
2.161419
 20
34.591067
 30
0.0
 10
2.697531
 20
36.058623
 30
0.0
 10
3.120865
 20
37.469734
 30
0.0
  0
SPLINE
  5
115
100
AcDbEntity
  8
0
 62
7
100
AcDbSpline
 70
8
 71
3
 72
8
 73
4
 74
0
 40
0
 40
0
 40
0
 40
0
 40
1
 40
1
 40
1
 40
1
 10
3.120865
 20
37.469734
 30
0.0
 10
3.939309
 20
40.320178
 30
0.0
 10
4.277866
 20
43.001510
 30
0.0
 10
4.418977
 20
45.597954
 30
0.0
  0
SPLINE
  5
116
100
AcDbEntity
  8
0
 62
7
100
AcDbSpline
 70
8
 71
3
 72
8
 73
4
 74
0
 40
0
 40
0
 40
0
 40
0
 40
1
 40
1
 40
1
 40
1
 10
4.418977
 20
45.597954
 30
0.0
 10
4.540589
 20
47.811287
 30
0.0
 10
4.489967
 20
49.997655
 30
0.0
 10
4.366611
 20
52.096781
 30
0.0
  0
SPLINE
  5
117
100
AcDbEntity
  8
0
 62
7
100
AcDbSpline
 70
8
 71
3
 72
8
 73
4
 74
0
 40
0
 40
0
 40
0
 40
0
 40
1
 40
1
 40
1
 40
1
 10
4.366611
 20
52.096781
 30
0.0
 10
5.506122
 20
53.430908
 30
0.0
 10
6.197197
 20
55.160913
 30
0.0
 10
6.197197
 20
57.056066
 30
0.0
  0
SPLINE
  5
118
100
AcDbEntity
  8
0
 62
7
100
AcDbSpline
 70
8
 71
3
 72
8
 73
4
 74
0
 40
0
 40
0
 40
0
 40
0
 40
1
 40
1
 40
1
 40
1
 10
6.197197
 20
57.056066
 30
0.0
 10
6.197197
 20
61.261177
 30
0.0
 10
2.782418
 20
64.704178
 30
0.0
 10
-1.450915
 20
64.704178
 30
0.0
  0
SPLINE
  5
119
100
AcDbEntity
  8
0
 62
7
100
AcDbSpline
 70
8
 71
3
 72
8
 73
4
 74
0
 40
0
 40
0
 40
0
 40
0
 40
1
 40
1
 40
1
 40
1
 10
-1.450915
 20
64.704178
 30
0.0
 10
-5.656026
 20
64.704178
 30
0.0
 10
-9.099027
 20
61.289399
 30
0.0
 10
-9.099027
 20
57.056066
 30
0.0
  0
SPLINE
  5
11a
100
AcDbEntity
  8
0
 62
7
100
AcDbSpline
 70
8
 71
3
 72
8
 73
4
 74
0
 40
0
 40
0
 40
0
 40
0
 40
1
 40
1
 40
1
 40
1
 10
-9.099027
 20
57.056066
 30
0.0
 10
-9.099027
 20
55.212972
 30
0.0
 10
-8.442863
 20
53.516144
 30
0.0
 10
-7.349470
 20
52.191591
 30
0.0
  0
SPLINE
  5
11b
100
AcDbEntity
  8
0
 62
7
100
AcDbSpline
 70
8
 71
3
 72
8
 73
4
 74
0
 40
0
 40
0
 40
0
 40
0
 40
1
 40
1
 40
1
 40
1
 10
-7.349470
 20
52.191591
 30
0.0
 10
-7.522260
 20
50.422492
 30
0.0
 10
-7.772555
 20
48.714303
 30
0.0
 10
-8.111250
 20
47.093402
 30
0.0
  0
SPLINE
  5
11c
100
AcDbEntity
  8
0
 62
7
100
AcDbSpline
 70
8
 71
3
 72
8
 73
4
 74
0
 40
0
 40
0
 40
0
 40
0
 40
1
 40
1
 40
1
 40
1
 10
-8.111250
 20
47.093402
 30
0.0
 10
-8.506361
 20
45.202513
 30
0.0
 10
-9.071025
 20
43.424513
 30
0.0
 10
-9.748359
 20
42.013402
 30
0.0
  0
SPLINE
  5
11d
100
AcDbEntity
  8
0
 62
7
100
AcDbSpline
 70
8
 71
3
 72
8
 73
4
 74
0
 40
0
 40
0
 40
0
 40
0
 40
1
 40
1
 40
1
 40
1
 10
-9.748359
 20
42.013402
 30
0.0
 10
-10.115247
 20
41.307846
 30
0.0
 10
-10.482246
 20
40.687287
 30
0.0
 10
-10.849135
 20
40.235732
 30
0.0
  0
SPLINE
  5
11e
100
AcDbEntity
  8
0
 62
7
100
AcDbSpline
 70
8
 71
3
 72
8
 73
4
 74
0
 40
0
 40
0
 40
0
 40
0
 40
1
 40
1
 40
1
 40
1
 10
-10.849135
 20
40.235732
 30
0.0
 10
-11.216024
 20
39.784176
 30
0.0
 10
-11.582803
 20
39.473402
 30
0.0
 10
-11.865025
 20
39.332290
 30
0.0
  0
SPLINE
  5
11f
100
AcDbEntity
  8
0
 62
7
100
AcDbSpline
 70
8
 71
3
 72
8
 73
4
 74
0
 40
0
 40
0
 40
0
 40
0
 40
1
 40
1
 40
1
 40
1
 10
-11.865025
 20
39.332290
 30
0.0
 10
-12.147247
 20
39.162957
 30
0.0
 10
-12.373025
 20
39.163067
 30
0.0
 10
-12.570581
 20
39.163067
 30
0.0
  0
SPLINE
  5
120
100
AcDbEntity
  8
0
 62
7
100
AcDbSpline
 70
8
 71
3
 72
8
 73
4
 74
0
 40
0
 40
0
 40
0
 40
0
 40
1
 40
1
 40
1
 40
1
 10
-12.570581
 20
39.163067
 30
0.0
 10
-12.678912
 20
39.163067
 30
0.0
 10
-12.810362
 20
39.173114
 30
0.0
 10
-12.961944
 20
39.190076
 30
0.0
  0
SPLINE
  5
121
100
AcDbEntity
  8
0
 62
7
100
AcDbSpline
 70
8
 71
3
 72
8
 73
4
 74
0
 40
0
 40
0
 40
0
 40
0
 40
1
 40
1
 40
1
 40
1
 10
-12.961944
 20
39.190076
 30
0.0
 10
-13.250663
 20
40.706693
 30
0.0
 10
-13.756154
 20
42.143300
 30
0.0
 10
-14.451880
 20
43.463648
 30
0.0
  0
SPLINE
  5
122
100
AcDbEntity
  8
0
 62
7
100
AcDbSpline
 70
8
 71
3
 72
8
 73
4
 74
0
 40
0
 40
0
 40
0
 40
0
 40
1
 40
1
 40
1
 40
1
 10
-14.451880
 20
43.463648
 30
0.0
 10
-11.046863
 20
46.472643
 30
0.0
 10
-9.153578
 20
51.110361
 30
0.0
 10
-9.945683
 20
56.011514
 30
0.0
  0
LWPOLYLINE
  5
123
100
AcDbEntity
  8
0
 62
7
100
AcDbPolyline
 90
2
 70
1
 10
-11.385468
 20
15.851622
 30
0.0
 10
-11.868333
 20
23.626514
 30
0.0
  0
SPLINE
  5
124
100
AcDbEntity
  8
0
 62
7
100
AcDbSpline
 70
8
 71
3
 72
8
 73
4
 74
0
 40
0
 40
0
 40
0
 40
0
 40
1
 40
1
 40
1
 40
1
 10
-11.594368
 20
66.063473
 30
0.0
 10
-11.608649
 20
66.133860
 30
0.0
 10
-11.623147
 20
66.204077
 30
0.0
 10
-11.638466
 20
66.274037
 30
0.0
  0
LWPOLYLINE
  5
125
100
AcDbEntity
  8
0
 62
7
100
AcDbPolyline
 90
4
 70
1
 10
-9.945683
 20
56.011514
 30
0.0
 10
-11.423491
 20
65.094991
 30
0.0
 10
-11.385456
 20
65.071285
 30
0.0
 10
-11.594368
 20
66.063473
 30
0.0
  0
SPLINE
  5
126
100
AcDbEntity
  8
0
 62
7
100
AcDbSpline
 70
8
 71
3
 72
8
 73
4
 74
0
 40
0
 40
0
 40
0
 40
0
 40
1
 40
1
 40
1
 40
1
 10
-15.703126
 20
85.588621
 30
0.0
 10
-16.002987
 20
87.017371
 30
0.0
 10
-17.217899
 20
87.884092
 30
0.0
 10
-18.493380
 20
87.933491
 30
0.0
  0
LWPOLYLINE
  5
127
100
AcDbEntity
  8
0
 62
7
100
AcDbPolyline
 90
2
 70
1
 10
-11.638466
 20
66.274037
 30
0.0
 10
-15.703126
 20
85.588621
 30
0.0
  0
LWPOLYLINE
  5
128
100
AcDbEntity
  8
0
 62
7
100
AcDbPolyline
 90
2
 70
1
 10
-18.493380
 20
87.933491
 30
0.0
 10
-18.493380
 20
87.933491
 30
0.0
  0
LWPOLYLINE
  5
129
100
AcDbEntity
  8
0
 62
7
100
AcDbPolyline
 90
217
 70
0
 10
17.607035
 20
0.904453
 30
0.0
 10
17.418970
 20
0.989980
 30
0.0
 10
17.220026
 20
1.115879
 30
0.0
 10
16.824277
 20
1.453900
 30
0.0
 10
16.489328
 20
1.848771
 30
0.0
 10
16.366383
 20
2.045728
 30
0.0
 10
16.284719
 20
2.230742
 30
0.0
 10
16.208728
 20
2.586768
 30
0.0
 10
16.189085
 20
3.004203
 30
0.0
 10
16.222015
 20
3.465317
 30
0.0
 10
16.303766
 20
3.952399
 30
0.0
 10
16.430577
 20
4.447730
 30
0.0
 10
16.598686
 20
4.933590
 30
0.0
 10
16.804324
 20
5.392263
 30
0.0
 10
17.043742
 20
5.806026
 30
0.0
 10
17.344797
 20
6.260951
 30
0.0
 10
16.946059
 20
7.128754
 30
0.0
 10
16.551380
 20
8.071040
 30
0.0
 10
16.261238
 20
8.975969
 30
0.0
 10
16.052862
 20
9.928415
 30
0.0
 10
15.903460
 20
11.013266
 30
0.0
 10
15.923554
 20
11.892552
 30
0.0
 10
16.016027
 20
13.866812
 30
0.0
 10
16.335257
 20
19.672267
 30
0.0
 10
16.695412
 20
25.573681
 30
0.0
 10
16.930754
 20
28.715096
 30
0.0
 10
17.063689
 20
29.395554
 30
0.0
 10
17.267846
 20
30.162476
 30
0.0
 10
17.515668
 20
30.922746
 30
0.0
 10
17.779594
 20
31.583247
 30
0.0
 10
18.121196
 20
32.336628
 30
0.0
 10
17.451872
 20
33.033655
 30
0.0
 10
16.841070
 20
33.733422
 30
0.0
 10
16.306507
 20
34.479558
 30
0.0
 10
15.849823
 20
35.267966
 30
0.0
 10
15.472650
 20
36.094536
 30
0.0
 10
15.176622
 20
36.955175
 30
0.0
 10
14.963380
 20
37.845778
 30
0.0
 10
14.834557
 20
38.762247
 30
0.0
 10
14.791792
 20
39.700478
 30
0.0
 10
14.821691
 20
40.444669
 30
0.0
 10
14.919641
 20
41.404047
 30
0.0
 10
15.376164
 20
44.424759
 30
0.0
 10
16.195986
 20
48.806400
 30
0.0
 10
17.416233
 20
54.831497
 30
0.0
 10
18.577041
 20
60.283455
 30
0.0
 10
18.991448
 20
62.101818
 30
0.0
 10
19.218546
 20
62.945671
 30
0.0
 10
19.406184
 20
63.296773
 30
0.0
 10
19.641569
 20
63.580897
 30
0.0
 10
19.937953
 20
63.810866
 30
0.0
 10
20.308599
 20
63.999489
 30
0.0
 10
20.732127
 20
64.125840
 30
0.0
 10
21.165702
 20
64.162690
 30
0.0
 10
21.583436
 20
64.110510
 30
0.0
 10
21.959435
 20
63.969760
 30
0.0
 10
22.398180
 20
63.603977
 30
0.0
 10
23.320703
 20
62.753199
 30
0.0
 10
26.076693
 20
60.104032
 30
0.0
 10
29.825896
 20
56.434683
 30
0.0
 10
33.716426
 20
56.434683
 30
0.0
 10
37.606955
 20
56.434683
 30
0.0
 10
41.361411
 20
60.105963
 30
0.0
 10
44.119193
 20
62.755925
 30
0.0
 10
45.040764
 20
63.606503
 30
0.0
 10
45.477388
 20
63.971690
 30
0.0
 10
45.859886
 20
64.114802
 30
0.0
 10
46.273757
 20
64.162083
 30
0.0
 10
46.698755
 20
64.121443
 30
0.0
 10
47.114635
 20
64.000790
 30
0.0
 10
47.501147
 20
63.808035
 30
0.0
 10
47.838041
 20
63.551083
 30
0.0
 10
48.105077
 20
63.237842
 30
0.0
 10
48.281999
 20
62.876222
 30
0.0
 10
48.516955
 20
61.925616
 30
0.0
 10
48.929685
 20
60.038393
 30
0.0
 10
50.064154
 20
54.560708
 30
0.0
 10
51.236793
 20
48.656374
 30
0.0
 10
51.998993
 20
44.538599
 30
0.0
 10
52.344896
 20
42.383268
 30
0.0
 10
52.528049
 20
41.048718
 30
0.0
 10
52.590861
 20
40.149967
 30
0.0
 10
52.575734
 20
39.302042
 30
0.0
 10
52.498569
 20
38.373438
 30
0.0
 10
52.346211
 20
37.484551
 30
0.0
 10
52.117633
 20
36.632990
 30
0.0
 10
51.811809
 20
35.816372
 30
0.0
 10
51.427707
 20
35.032310
 30
0.0
 10
50.964298
 20
34.278419
 30
0.0
 10
50.420558
 20
33.552312
 30
0.0
 10
49.795450
 20
32.851605
 30
0.0
 10
49.282071
 20
32.320747
 30
0.0
 10
49.682868
 20
31.371710
 30
0.0
 10
50.006256
 20
30.525890
 30
0.0
 10
50.220945
 20
29.825020
 30
0.0
 10
50.305106
 20
29.495641
 30
0.0
 10
50.389206
 20
29.316424
 30
0.0
 10
50.509797
 20
29.242090
 30
0.0
 10
50.703412
 20
29.227358
 30
0.0
 10
50.962619
 20
29.258715
 30
0.0
 10
51.220037
 20
29.351643
 30
0.0
 10
51.474819
 20
29.504407
 30
0.0
 10
51.726092
 20
29.715292
 30
0.0
 10
51.973009
 20
29.982579
 30
0.0
 10
52.214701
 20
30.304535
 30
0.0
 10
52.450320
 20
30.679442
 30
0.0
 10
52.678996
 20
31.105575
 30
0.0
 10
53.112100
 20
32.104639
 30
0.0
 10
53.507140
 20
33.287929
 30
0.0
 10
53.857248
 20
34.641670
 30
0.0
 10
54.155552
 20
36.152072
 30
0.0
 10
54.339273
 20
37.333607
 30
0.0
 10
54.419452
 20
38.144632
 30
0.0
 10
54.398737
 20
38.643753
 30
0.0
 10
54.351388
 20
38.794668
 30
0.0
 10
54.279814
 20
38.889583
 30
0.0
 10
54.065037
 20
39.209970
 30
0.0
 10
53.764736
 20
39.800937
 30
0.0
 10
53.602819
 20
40.190884
 30
0.0
 10
53.472839
 20
40.587324
 30
0.0
 10
53.374496
 20
40.988579
 30
0.0
 10
53.307496
 20
41.392964
 30
0.0
 10
53.271541
 20
41.798803
 30
0.0
 10
53.266320
 20
42.204412
 30
0.0
 10
53.291551
 20
42.608117
 30
0.0
 10
53.346943
 20
43.008229
 30
0.0
 10
53.432194
 20
43.403075
 30
0.0
 10
53.546999
 20
43.790970
 30
0.0
 10
53.691065
 20
44.170237
 30
0.0
 10
53.864095
 20
44.539192
 30
0.0
 10
54.065791
 20
44.896155
 30
0.0
 10
54.295856
 20
45.239450
 30
0.0
 10
54.553996
 20
45.567392
 30
0.0
 10
54.839904
 20
45.878305
 30
0.0
 10
55.311802
 20
46.303021
 30
0.0
 10
55.814891
 20
46.661946
 30
0.0
 10
56.343877
 20
46.955598
 30
0.0
 10
56.893471
 20
47.184494
 30
0.0
 10
57.458384
 20
47.349143
 30
0.0
 10
58.033327
 20
47.450063
 30
0.0
 10
58.613009
 20
47.487770
 30
0.0
 10
59.192135
 20
47.462794
 30
0.0
 10
59.765418
 20
47.375618
 30
0.0
 10
60.327571
 20
47.226771
 30
0.0
 10
60.873299
 20
47.016773
 30
0.0
 10
61.397312
 20
46.746136
 30
0.0
 10
61.894322
 20
46.415371
 30
0.0
 10
62.359038
 20
46.024999
 30
0.0
 10
62.786164
 20
45.575529
 30
0.0
 10
63.170421
 20
45.067481
 30
0.0
 10
63.588883
 20
44.354108
 30
0.0
 10
63.741701
 20
44.005360
 30
0.0
 10
63.860341
 20
43.649785
 30
0.0
 10
63.947373
 20
43.278276
 30
0.0
 10
64.005367
 20
42.881749
 30
0.0
 10
64.044548
 20
41.977246
 30
0.0
 10
63.997817
 20
41.163331
 30
0.0
 10
63.854968
 20
40.460050
 30
0.0
 10
63.593472
 20
39.790916
 30
0.0
 10
63.190786
 20
39.079448
 30
0.0
 10
62.840088
 20
38.526453
 30
0.0
 10
62.852929
 20
36.293796
 30
0.0
 10
62.830041
 20
34.536054
 30
0.0
 10
62.738971
 20
32.896616
 30
0.0
 10
62.577554
 20
31.364358
 30
0.0
 10
62.343631
 20
29.928158
 30
0.0
 10
62.035030
 20
28.576886
 30
0.0
 10
61.649596
 20
27.299421
 30
0.0
 10
61.185151
 20
26.084633
 30
0.0
 10
60.639542
 20
24.921403
 30
0.0
 10
60.082213
 20
23.932877
 30
0.0
 10
59.464431
 20
23.016335
 30
0.0
 10
58.787253
 20
22.172787
 30
0.0
 10
58.051740
 20
21.403246
 30
0.0
 10
57.258949
 20
20.708725
 30
0.0
 10
56.409940
 20
20.090244
 30
0.0
 10
55.505773
 20
19.548809
 30
0.0
 10
54.547499
 20
19.085442
 30
0.0
 10
53.709646
 20
18.766497
 30
0.0
 10
52.785617
 20
18.476805
 30
0.0
 10
51.951131
 20
18.266338
 30
0.0
 10
51.381903
 20
18.185077
 30
0.0
 10
51.224547
 20
18.170994
 30
0.0
 10
51.178147
 20
18.139324
 30
0.0
 10
51.150122
 20
18.078736
 30
0.0
 10
51.139821
 20
17.833321
 30
0.0
 10
51.174850
 20
17.359750
 30
0.0
 10
51.330857
 20
15.319760
 30
0.0
 10
51.424318
 20
13.601656
 30
0.0
 10
51.451750
 20
12.154931
 30
0.0
 10
51.409682
 20
10.929079
 30
0.0
 10
51.294634
 20
9.873596
 30
0.0
 10
51.103124
 20
8.937976
 30
0.0
 10
50.831677
 20
8.071717
 30
0.0
 10
50.476810
 20
7.224314
 30
0.0
 10
50.041621
 20
6.288993
 30
0.0
 10
50.420389
 20
5.662883
 30
0.0
 10
50.743798
 20
5.041215
 30
0.0
 10
50.977100
 20
4.395494
 30
0.0
 10
51.119382
 20
3.728899
 30
0.0
 10
51.169734
 20
3.044606
 30
0.0
 10
51.152744
 20
2.661718
 30
0.0
 10
51.096175
 20
2.317302
 30
0.0
 10
50.998744
 20
2.009305
 30
0.0
 10
50.859165
 20
1.735685
 30
0.0
 10
50.676161
 20
1.494396
 30
0.0
 10
50.448441
 20
1.283390
 30
0.0
 10
50.174734
 20
1.100617
 30
0.0
 10
49.853748
 20
0.944034
 30
0.0
 10
49.624584
 20
0.891648
 30
0.0
 10
49.134138
 20
0.850850
 30
0.0
 10
46.868385
 20
0.798831
 30
0.0
 10
33.690286
 20
0.776846
 30
0.0
 10
21.758970
 20
0.812965
 30
0.0
 10
18.726074
 20
0.851674
 30
0.0
 10
17.606995
 20
0.904478
 30
0.0
 10
17.606995
 20
0.904478
 30
0.0
  0
ENDSEC
  0
SECTION
  2
OBJECTS
  0
DICTIONARY
  5
C
330
0
100
AcDbDictionary
  3
ACAD_GROUP
350
D
  3
ACAD_MLINESTYLE
350
17
  0
DICTIONARY
  5
D
330
C
100
AcDbDictionary
  0
DICTIONARY
  5
1A
330
C
100
AcDbDictionary
  0
DICTIONARY
  5
17
330
C
100
AcDbDictionary
  3
STANDARD
350
18
  0
DICTIONARY
  5
19
330
C
100
AcDbDictionary
  0
ENDSEC
  0
EOF
