<?xml version="1.0" encoding="UTF-8" standalone="no"?>
<!-- Generator: Adobe Illustrator 21.0.2, SVG Export Plug-In . SVG Version: 6.00 Build 0)  -->

<svg
   xmlns:dc="http://purl.org/dc/elements/1.1/"
   xmlns:cc="http://creativecommons.org/ns#"
   xmlns:rdf="http://www.w3.org/1999/02/22-rdf-syntax-ns#"
   xmlns:svg="http://www.w3.org/2000/svg"
   xmlns="http://www.w3.org/2000/svg"
   xmlns:sodipodi="http://sodipodi.sourceforge.net/DTD/sodipodi-0.dtd"
   xmlns:inkscape="http://www.inkscape.org/namespaces/inkscape"
   version="1.1"
   x="0px"
   y="0px"
   viewBox="0 0 283.5 340.2"
   style="enable-background:new 0 0 283.5 340.2;"
   xml:space="preserve"
   id="svg7139"
   sodipodi:docname="meow_v4_mask.svg"
   inkscape:version="0.92.1 r15371"><metadata
     id="metadata7145"><rdf:RDF><cc:Work
         rdf:about=""><dc:format>image/svg+xml</dc:format><dc:type
           rdf:resource="http://purl.org/dc/dcmitype/StillImage" /><dc:title></dc:title></cc:Work></rdf:RDF></metadata><defs
     id="defs7143" /><sodipodi:namedview
     pagecolor="#ffffff"
     bordercolor="#666666"
     borderopacity="1"
     objecttolerance="10"
     gridtolerance="10"
     guidetolerance="10"
     inkscape:pageopacity="0"
     inkscape:pageshadow="2"
     inkscape:window-width="1823"
     inkscape:window-height="937"
     id="namedview7141"
     showgrid="false"
     inkscape:zoom="1.9621069"
     inkscape:cx="-39.419541"
     inkscape:cy="158.75907"
     inkscape:window-x="0"
     inkscape:window-y="0"
     inkscape:window-maximized="0"
     inkscape:current-layer="Layer_2" /><style
     type="text/css"
     id="style6965">
	.st0{fill:#EFEFEF;}
	.st1{fill:#F16B6C;}
	.st2{fill:#FFFFFF;}
	.st3{fill:none;stroke:#F16B6C;stroke-width:4.5536;stroke-linecap:round;stroke-miterlimit:10;}
	.st4{fill:#FFCC00;}
</style><g
     id="svg8"
     inkscape:export-filename="C:\Users\dash\Documents\GitHub\defcon26-meow\art\meow_v1.png"
     inkscape:export-xdpi="96"
     inkscape:export-ydpi="96"
     inkscape:version="0.92.1 r15371"
     sodipodi:docname="meow_v3.svg"><sodipodi:namedview
       bordercolor="#666666"
       borderopacity="1.0"
       id="base"
       inkscape:current-layer="layer12"
       inkscape:cx="62.544425"
       inkscape:cy="233.65003"
       inkscape:document-units="cm"
       inkscape:guide-bbox="true"
       inkscape:lockguides="false"
       inkscape:object-nodes="false"
       inkscape:object-paths="false"
       inkscape:pagecheckerboard="true"
       inkscape:pageopacity="0.0"
       inkscape:pageshadow="2"
       inkscape:snap-intersection-paths="false"
       inkscape:snap-nodes="false"
       inkscape:snap-smooth-nodes="false"
       inkscape:snap-to-guides="true"
       inkscape:window-height="1048"
       inkscape:window-maximized="1"
       inkscape:window-width="1735"
       inkscape:window-x="1921"
       inkscape:window-y="0"
       inkscape:zoom="1.4142136"
       objecttolerance="10000"
       pagecolor="#ffffff"
       showgrid="false"
       showguides="false"
       units="cm"><sodipodi:guide
         id="guide4491"
         inkscape:locked="false"
         orientation="1,0"
         position="70.114584,301.625" /><sodipodi:guide
         id="guide4493"
         inkscape:locked="false"
         orientation="1,0"
         position="129.81167,326.09462" /><inkscape:grid
         id="grid4495"
         type="xygrid" /><sodipodi:guide
         id="guide4499"
         inkscape:locked="false"
         orientation="0,1"
         position="-19.84375,260.04762" /><sodipodi:guide
         id="guide4501"
         inkscape:locked="false"
         orientation="0,1"
         position="-20.032738,179.91667" /><sodipodi:guide
         id="guide4503"
         inkscape:locked="false"
         orientation="0,1"
         position="-16.630952,270.06399" /><sodipodi:guide
         id="guide4512"
         inkscape:locked="false"
         orientation="0,1"
         position="-19.465774,219.98214" /><sodipodi:guide
         id="guide4514"
         inkscape:locked="false"
         orientation="-0.82575936,0.56402259"
         position="60.098215,179.91667" /><sodipodi:guide
         id="guide4518"
         inkscape:locked="false"
         orientation="-0.82575936,-0.56402259"
         position="140.07024,179.91667" /><sodipodi:guide
         id="guide4520"
         inkscape:locked="false"
         orientation="1,0"
         position="79.941963,226.97471" /><sodipodi:guide
         id="guide4522"
         inkscape:locked="false"
         orientation="1,0"
         position="119.93731,202.36411" /><sodipodi:guide
         id="guide4541"
         inkscape:locked="false"
         orientation="1,0"
         position="124.99885,314.20012" /><sodipodi:guide
         id="guide4543"
         inkscape:locked="false"
         orientation="1,0"
         position="74.835466,302.68275" /><sodipodi:guide
         id="guide4584"
         inkscape:locked="false"
         orientation="0,1"
         position="83.871844,297.00001" /><sodipodi:guide
         id="guide4586"
         inkscape:locked="false"
         orientation="0,1"
         position="44.675444,230.00027" /><sodipodi:guide
         id="guide4588"
         inkscape:locked="false"
         orientation="0,1"
         position="70.109929,209.50604" /><sodipodi:guide
         id="guide4590"
         inkscape:locked="false"
         orientation="0,1"
         position="63.219967,249.92962" /><sodipodi:guide
         id="guide4592"
         inkscape:locked="false"
         orientation="0,1"
         position="59.968654,242.10238" /><sodipodi:guide
         id="guide4594"
         inkscape:locked="false"
         orientation="1,0"
         position="88.033508,219.98214" /><sodipodi:guide
         id="guide4596"
         inkscape:locked="false"
         orientation="1,0"
         position="111.92945,245.11286" /><sodipodi:guide
         id="guide4598"
         inkscape:locked="false"
         orientation="1,0"
         position="93.926808,245.11286" /><sodipodi:guide
         id="guide4600"
         inkscape:locked="false"
         orientation="1,0"
         position="106.08913,212.41909" /><sodipodi:guide
         id="guide4612"
         inkscape:locked="false"
         orientation="0,1"
         position="88.026276,238.4296" /><sodipodi:guide
         id="guide4614"
         inkscape:locked="false"
         orientation="0,1"
         position="85.076013,233.9741" /><sodipodi:guide
         id="guide4669"
         inkscape:locked="false"
         orientation="0.59697004,0.80226353"
         position="91.879688,214.3759" /><sodipodi:guide
         id="guide4692"
         inkscape:locked="false"
         orientation="1,0"
         position="100.00044,239.56605" /><sodipodi:guide
         id="guide4725"
         inkscape:locked="false"
         orientation="0,1"
         position="63.761852,190.02117" /><sodipodi:guide
         id="guide4727"
         inkscape:locked="false"
         orientation="0,1"
         position="84.297592,194.9914" /></sodipodi:namedview></g><g
     id="Layer_2"><path
       class="st0"
       d="M150.5,153.1H92.8c-28.9,0-52.8,22.5-54.6,51.3l-4.7,75.7c-1.9,31.5,23.1,58.1,54.6,58.1h67   c31.5,0,56.5-26.6,54.6-58.1l-4.7-75.7C203.3,175.6,179.4,153.1,150.5,153.1z"
       id="path6997"
       style="fill:#000000;fill-opacity:1" /><path
       class="st2"
       d="M209.7,105.7L194.4,33c-1.7-8.1-11.7-11.1-17.6-5.3l-35.9,35.2L209.7,105.7z"
       id="path7003"
       style="fill:#000000;fill-opacity:1" /><path
       class="st2"
       d="M33.7,105.7L49.1,33c1.7-8.1,11.7-11.1,17.6-5.3l35.9,35.2L33.7,105.7z"
       id="path7005"
       style="fill:#000000;fill-opacity:1" /><path
       class="st2"
       d="M166.5,194.5l-89.7,0c-30.1,0-53.1-27-48.3-56.7l5.5-33.8c3.8-23.7,24.3-41.1,48.3-41.1l78.7,0   c24,0,44.4,17.4,48.3,41.1l5.5,33.8C219.6,167.5,196.6,194.5,166.5,194.5z"
       id="path7011"
       style="fill:#000000;fill-opacity:1" /><g
       id="g7021"><g
         id="g7017" /></g><g
       id="g7031"><g
         id="g7027" /></g><g
       id="g7045"><g
         id="g7035" /><g
         id="g7039" /><g
         id="g7043" /></g><g
       id="g7059"><g
         id="g7049" /><g
         id="g7053" /><g
         id="g7057" /></g><path
       class="st1"
       d="M121.8,96.2L121.8,96.2c-16.5,0-29.9-13.4-29.9-29.9v-3.5h59.8v3.5C151.7,82.8,138.3,96.2,121.8,96.2z"
       id="path7067"
       style="fill:#000000;fill-opacity:1" /><g
       id="g7075" /><path
       class="st2"
       d="M88.5,338.2H45.7c-6,0-10.8-4.8-10.8-10.8v0c0-14.9,12.1-27,27-27h10.3c14.9,0,27,12.1,27,27v0   C99.3,333.4,94.5,338.2,88.5,338.2z"
       id="path7077"
       style="fill:#000000;fill-opacity:1" /><path
       class="st2"
       d="M197.6,338.2h-42.8c-6,0-10.8-4.8-10.8-10.8v0c0-14.9,12.1-27,27-27h10.3c14.9,0,27,12.1,27,27v0   C208.4,333.4,203.5,338.2,197.6,338.2z"
       id="path7079"
       style="fill:#000000;fill-opacity:1" /><g
       id="g7091"><g
         id="g7087" /></g><g
       id="g7095"
       transform="translate(-4)"><path
         class="st2"
         d="m 276,134.1 v 0 c 0,15 -12.2,27.1 -27.1,27.1 v 0 c -15,0 -27.1,-12.2 -27.1,-27.1 v 0 c 0,-15 12.2,-27.1 27.1,-27.1 v 0 c 15,0 27.1,12.2 27.1,27.1 z"
         id="path7093"
         inkscape:connector-curvature="0"
         style="fill:#000000;fill-opacity:0.97142857" /></g><g
       id="g7109"><g
         id="g7099" /><g
         id="g7103" /><g
         id="g7107" /></g><g
       id="g7123"><g
         id="g7113" /><g
         id="g7117" /><g
         id="g7121" /></g><path
       class="st2"
       d="m 265.3,148.1 c 0.6,8.5 0.9,17.5 0.4,26.6 -0.5,9.2 -1.7,18.7 -4.6,28.8 -1.5,5 -3.4,10.2 -6.1,15.5 -2.7,5.3 -6.3,10.6 -11.1,15.6 -4.7,5 -10.8,9.4 -17.4,12.5 -6.6,3.1 -13.7,4.9 -20.3,5.7 l -3.6,-55.6 c 1.3,0.2 2.2,0.3 2.9,0.3 0.7,0 1.5,0 2.5,-0.6 1,-0.5 2.3,-1.6 3.6,-3.2 1.3,-1.6 2.6,-3.8 3.9,-6.3 2.4,-5 4.4,-11.3 5.8,-18 1.4,-6.7 2.4,-13.8 3,-21.2 h 41 z"
       id="path7125"
       inkscape:connector-curvature="0"
       style="fill:#000000;fill-opacity:0.97142857" /></g><g
     id="Layer_3" /></svg>