G04 #@! TF.FileFunction,Copper,L2,Bot,Signal*
%FSLAX46Y46*%
G04 Gerber Fmt 4.6, Leading zero omitted, Abs format (unit mm)*
G04 Created by KiCad (PCBNEW 4.0.7) date Thursday, July 26, 2018 'AMt' 11:31:36 AM*
%MOMM*%
%LPD*%
G01*
G04 APERTURE LIST*
%ADD10C,0.100000*%
%ADD11R,1.800000X1.800000*%
%ADD12C,1.800000*%
%ADD13C,1.400000*%
%ADD14O,1.400000X1.400000*%
%ADD15R,1.700000X1.700000*%
%ADD16O,1.700000X1.700000*%
%ADD17C,0.381000*%
G04 APERTURE END LIST*
D10*
D11*
X156464000Y-80772000D03*
D12*
X159004000Y-80772000D03*
D11*
X140716000Y-80772000D03*
D12*
X138176000Y-80772000D03*
D13*
X134112000Y-120904000D03*
D14*
X141732000Y-120904000D03*
D15*
X143319500Y-110299500D03*
D16*
X143319500Y-107759500D03*
X140779500Y-110299500D03*
X140779500Y-107759500D03*
D13*
X163576000Y-120904000D03*
D14*
X155956000Y-120904000D03*
D17*
X156464000Y-80772000D02*
X156083000Y-107823000D01*
X145161000Y-107759500D02*
X143319500Y-107759500D01*
X156083000Y-107823000D02*
X145161000Y-107759500D01*
X140716000Y-80772000D02*
X140716000Y-96456500D01*
X143319500Y-99060000D02*
X143319500Y-107759500D01*
X140716000Y-96456500D02*
X143319500Y-99060000D01*
X159004000Y-80772000D02*
X159004000Y-96393000D01*
X163576000Y-100457000D02*
X163576000Y-120904000D01*
X159004000Y-96393000D02*
X163576000Y-100457000D01*
X134112000Y-120904000D02*
X134112000Y-100457000D01*
X138176000Y-96393000D02*
X138176000Y-80772000D01*
X134112000Y-100457000D02*
X138176000Y-96393000D01*
X143319500Y-110299500D02*
X143319500Y-117348000D01*
X141795500Y-118872000D02*
X141795500Y-120840500D01*
X143319500Y-117348000D02*
X141795500Y-118872000D01*
X141795500Y-120840500D02*
X141732000Y-120904000D01*
X155956000Y-120904000D02*
X155956000Y-120777000D01*
X141732000Y-120904000D02*
X155956000Y-120904000D01*
X155956000Y-120904000D02*
X155956000Y-120904000D01*
X155956000Y-120777000D02*
X155956000Y-120777000D01*
M02*
