G04 #@! TF.FileFunction,Copper,L1,Top,Signal*
%FSLAX46Y46*%
G04 Gerber Fmt 4.6, Leading zero omitted, Abs format (unit mm)*
G04 Created by KiCad (PCBNEW 4.0.7) date Friday, August 17, 2018 'PMt' 06:17:43 PM*
%MOMM*%
%LPD*%
G01*
G04 APERTURE LIST*
%ADD10C,0.100000*%
%ADD11C,0.010000*%
%ADD12R,1.800000X1.800000*%
%ADD13C,1.800000*%
%ADD14C,1.400000*%
%ADD15O,1.400000X1.400000*%
%ADD16R,1.700000X1.700000*%
%ADD17O,1.700000X1.700000*%
G04 APERTURE END LIST*
D10*
D11*
G36*
X149089186Y-84212689D02*
X149413917Y-84212903D01*
X149694586Y-84213354D01*
X149934591Y-84214113D01*
X150137324Y-84215249D01*
X150306183Y-84216834D01*
X150444561Y-84218938D01*
X150555855Y-84221631D01*
X150643458Y-84224985D01*
X150710767Y-84229071D01*
X150761175Y-84233957D01*
X150798079Y-84239717D01*
X150824873Y-84246419D01*
X150844953Y-84254135D01*
X150850929Y-84257040D01*
X150952827Y-84334066D01*
X151021027Y-84437417D01*
X151051509Y-84555107D01*
X151040253Y-84675147D01*
X151013170Y-84740847D01*
X150984819Y-84773647D01*
X150921799Y-84835021D01*
X150828614Y-84921120D01*
X150709768Y-85028092D01*
X150569764Y-85152087D01*
X150413106Y-85289256D01*
X150244298Y-85435748D01*
X150067842Y-85587712D01*
X149888243Y-85741300D01*
X149710005Y-85892660D01*
X149537630Y-86037942D01*
X149375623Y-86173296D01*
X149228487Y-86294872D01*
X149100726Y-86398820D01*
X148996844Y-86481290D01*
X148921344Y-86538430D01*
X148878729Y-86566392D01*
X148876726Y-86567318D01*
X148756568Y-86598634D01*
X148645481Y-86589362D01*
X148598416Y-86569813D01*
X148568989Y-86547836D01*
X148504645Y-86496027D01*
X148409165Y-86417543D01*
X148286329Y-86315540D01*
X148139919Y-86193172D01*
X147973718Y-86053596D01*
X147791505Y-85899967D01*
X147597063Y-85735442D01*
X147500644Y-85653652D01*
X147266508Y-85454692D01*
X147068257Y-85285515D01*
X146902909Y-85143111D01*
X146767485Y-85024470D01*
X146659005Y-84926582D01*
X146574487Y-84846439D01*
X146510952Y-84781029D01*
X146465419Y-84727344D01*
X146434907Y-84682374D01*
X146416437Y-84643108D01*
X146407028Y-84606538D01*
X146403699Y-84569654D01*
X146403382Y-84545598D01*
X146424679Y-84455163D01*
X146480559Y-84361473D01*
X146559361Y-84282423D01*
X146587388Y-84263219D01*
X146603579Y-84254072D01*
X146622401Y-84246101D01*
X146647262Y-84239225D01*
X146681568Y-84233363D01*
X146728726Y-84228433D01*
X146792142Y-84224355D01*
X146875224Y-84221048D01*
X146981378Y-84218432D01*
X147114011Y-84216424D01*
X147276529Y-84214945D01*
X147472340Y-84213913D01*
X147704849Y-84213248D01*
X147977464Y-84212868D01*
X148293591Y-84212693D01*
X148656637Y-84212642D01*
X148717000Y-84212640D01*
X149089186Y-84212689D01*
X149089186Y-84212689D01*
G37*
X149089186Y-84212689D02*
X149413917Y-84212903D01*
X149694586Y-84213354D01*
X149934591Y-84214113D01*
X150137324Y-84215249D01*
X150306183Y-84216834D01*
X150444561Y-84218938D01*
X150555855Y-84221631D01*
X150643458Y-84224985D01*
X150710767Y-84229071D01*
X150761175Y-84233957D01*
X150798079Y-84239717D01*
X150824873Y-84246419D01*
X150844953Y-84254135D01*
X150850929Y-84257040D01*
X150952827Y-84334066D01*
X151021027Y-84437417D01*
X151051509Y-84555107D01*
X151040253Y-84675147D01*
X151013170Y-84740847D01*
X150984819Y-84773647D01*
X150921799Y-84835021D01*
X150828614Y-84921120D01*
X150709768Y-85028092D01*
X150569764Y-85152087D01*
X150413106Y-85289256D01*
X150244298Y-85435748D01*
X150067842Y-85587712D01*
X149888243Y-85741300D01*
X149710005Y-85892660D01*
X149537630Y-86037942D01*
X149375623Y-86173296D01*
X149228487Y-86294872D01*
X149100726Y-86398820D01*
X148996844Y-86481290D01*
X148921344Y-86538430D01*
X148878729Y-86566392D01*
X148876726Y-86567318D01*
X148756568Y-86598634D01*
X148645481Y-86589362D01*
X148598416Y-86569813D01*
X148568989Y-86547836D01*
X148504645Y-86496027D01*
X148409165Y-86417543D01*
X148286329Y-86315540D01*
X148139919Y-86193172D01*
X147973718Y-86053596D01*
X147791505Y-85899967D01*
X147597063Y-85735442D01*
X147500644Y-85653652D01*
X147266508Y-85454692D01*
X147068257Y-85285515D01*
X146902909Y-85143111D01*
X146767485Y-85024470D01*
X146659005Y-84926582D01*
X146574487Y-84846439D01*
X146510952Y-84781029D01*
X146465419Y-84727344D01*
X146434907Y-84682374D01*
X146416437Y-84643108D01*
X146407028Y-84606538D01*
X146403699Y-84569654D01*
X146403382Y-84545598D01*
X146424679Y-84455163D01*
X146480559Y-84361473D01*
X146559361Y-84282423D01*
X146587388Y-84263219D01*
X146603579Y-84254072D01*
X146622401Y-84246101D01*
X146647262Y-84239225D01*
X146681568Y-84233363D01*
X146728726Y-84228433D01*
X146792142Y-84224355D01*
X146875224Y-84221048D01*
X146981378Y-84218432D01*
X147114011Y-84216424D01*
X147276529Y-84214945D01*
X147472340Y-84213913D01*
X147704849Y-84213248D01*
X147977464Y-84212868D01*
X148293591Y-84212693D01*
X148656637Y-84212642D01*
X148717000Y-84212640D01*
X149089186Y-84212689D01*
G36*
X148374954Y-104223270D02*
X148826950Y-104224598D01*
X148970937Y-104225158D01*
X149360604Y-104226785D01*
X149703016Y-104228342D01*
X150001768Y-104229918D01*
X150260457Y-104231604D01*
X150482677Y-104233491D01*
X150672024Y-104235669D01*
X150832094Y-104238228D01*
X150966483Y-104241260D01*
X151078785Y-104244854D01*
X151172596Y-104249102D01*
X151251513Y-104254093D01*
X151319130Y-104259918D01*
X151379042Y-104266668D01*
X151434847Y-104274433D01*
X151490138Y-104283304D01*
X151526192Y-104289478D01*
X151952079Y-104373814D01*
X152342581Y-104474172D01*
X152711851Y-104595083D01*
X153074037Y-104741077D01*
X153369535Y-104879641D01*
X153862865Y-105149740D01*
X154317790Y-105452045D01*
X154736672Y-105788369D01*
X155121874Y-106160525D01*
X155308490Y-106367458D01*
X155663221Y-106815183D01*
X155971164Y-107280581D01*
X156233296Y-107765803D01*
X156450593Y-108272999D01*
X156624035Y-108804317D01*
X156754597Y-109361907D01*
X156805433Y-109660050D01*
X156811645Y-109704934D01*
X156817273Y-109754537D01*
X156822355Y-109811536D01*
X156826928Y-109878613D01*
X156831029Y-109958446D01*
X156834695Y-110053714D01*
X156837964Y-110167099D01*
X156840873Y-110301278D01*
X156843459Y-110458932D01*
X156845759Y-110642740D01*
X156847811Y-110855381D01*
X156849652Y-111099536D01*
X156851319Y-111377883D01*
X156852850Y-111693102D01*
X156854281Y-112047873D01*
X156855650Y-112444874D01*
X156856994Y-112886786D01*
X156858350Y-113376289D01*
X156858649Y-113489010D01*
X156867986Y-117025578D01*
X156745988Y-117071088D01*
X156620592Y-117123606D01*
X156465605Y-117197292D01*
X156293890Y-117285321D01*
X156118307Y-117380869D01*
X155951717Y-117477110D01*
X155806984Y-117567219D01*
X155790338Y-117578198D01*
X155370366Y-117886699D01*
X154985072Y-118229407D01*
X154636139Y-118603227D01*
X154325252Y-119005064D01*
X154054093Y-119431822D01*
X153824348Y-119880407D01*
X153637699Y-120347724D01*
X153495831Y-120830676D01*
X153400427Y-121326170D01*
X153353171Y-121831109D01*
X153348067Y-122067658D01*
X153349396Y-122238533D01*
X153353584Y-122370493D01*
X153361698Y-122475444D01*
X153374805Y-122565290D01*
X153393973Y-122651936D01*
X153403806Y-122689208D01*
X153466632Y-122878654D01*
X153551071Y-123075504D01*
X153648207Y-123261188D01*
X153749123Y-123417136D01*
X153760749Y-123432561D01*
X153816567Y-123511119D01*
X153839596Y-123560642D01*
X153832989Y-123588070D01*
X153831862Y-123589047D01*
X153781969Y-123621826D01*
X153695334Y-123670479D01*
X153581661Y-123730175D01*
X153450652Y-123796085D01*
X153312012Y-123863377D01*
X153175444Y-123927221D01*
X153050650Y-123982788D01*
X152988154Y-124009049D01*
X152559854Y-124168423D01*
X152138461Y-124292457D01*
X151703456Y-124386705D01*
X151429625Y-124430946D01*
X151365122Y-124439929D01*
X151302501Y-124447810D01*
X151238150Y-124454655D01*
X151168459Y-124460530D01*
X151089816Y-124465502D01*
X150998609Y-124469637D01*
X150891228Y-124473002D01*
X150764059Y-124475663D01*
X150613492Y-124477686D01*
X150435916Y-124479139D01*
X150227719Y-124480087D01*
X149985289Y-124480597D01*
X149705015Y-124480736D01*
X149383285Y-124480570D01*
X149016488Y-124480164D01*
X148772668Y-124479833D01*
X148431505Y-124479097D01*
X148102038Y-124477892D01*
X147788205Y-124476261D01*
X147493941Y-124474247D01*
X147223184Y-124471893D01*
X146979869Y-124469240D01*
X146767934Y-124466333D01*
X146591314Y-124463214D01*
X146453947Y-124459924D01*
X146359769Y-124456507D01*
X146313980Y-124453195D01*
X145797032Y-124363997D01*
X145314653Y-124246526D01*
X144857240Y-124097696D01*
X144415187Y-123914425D01*
X144021780Y-123717074D01*
X143923730Y-123663621D01*
X143843835Y-123619541D01*
X143791690Y-123590161D01*
X143776475Y-123580897D01*
X143786495Y-123558244D01*
X143819689Y-123503248D01*
X143870215Y-123425328D01*
X143906570Y-123371267D01*
X144048496Y-123129401D01*
X144155889Y-122869491D01*
X144229123Y-122588156D01*
X144268572Y-122282011D01*
X144274610Y-121947674D01*
X144247612Y-121581761D01*
X144187951Y-121180888D01*
X144163211Y-121050641D01*
X144038676Y-120552724D01*
X143867392Y-120070968D01*
X143651778Y-119608550D01*
X143394250Y-119168648D01*
X143097226Y-118754439D01*
X142763124Y-118369101D01*
X142394360Y-118015811D01*
X141993352Y-117697748D01*
X141562517Y-117418088D01*
X141284908Y-117267111D01*
X141160598Y-117205483D01*
X141040657Y-117148222D01*
X140938563Y-117101632D01*
X140867797Y-117072012D01*
X140866582Y-117071556D01*
X140745811Y-117026515D01*
X140745811Y-114892175D01*
X140803019Y-114906479D01*
X141043079Y-114949267D01*
X141308366Y-114967130D01*
X141579839Y-114960175D01*
X141838461Y-114928508D01*
X141970692Y-114899991D01*
X142310904Y-114787323D01*
X142627275Y-114631201D01*
X142916283Y-114434134D01*
X143174408Y-114198627D01*
X143398128Y-113927187D01*
X143455579Y-113842858D01*
X143544480Y-113694145D01*
X143628428Y-113531313D01*
X143701031Y-113368568D01*
X143755900Y-113220115D01*
X143784696Y-113111226D01*
X143799003Y-113050320D01*
X143812243Y-113017856D01*
X143814836Y-113016206D01*
X143841703Y-113029512D01*
X143891622Y-113062179D01*
X143900688Y-113068569D01*
X143959688Y-113104726D01*
X144047627Y-113151885D01*
X144146861Y-113200647D01*
X144160577Y-113207033D01*
X144487008Y-113330653D01*
X144822841Y-113406262D01*
X145163089Y-113434617D01*
X145502764Y-113416480D01*
X145836880Y-113352611D01*
X146160448Y-113243769D01*
X146468483Y-113090715D01*
X146755997Y-112894208D01*
X146875741Y-112793256D01*
X147082150Y-112578796D01*
X147269719Y-112326417D01*
X147431222Y-112047707D01*
X147559434Y-111754253D01*
X147601753Y-111628954D01*
X147627481Y-111541777D01*
X147646040Y-111465908D01*
X147658613Y-111390118D01*
X147666384Y-111303178D01*
X147670535Y-111193857D01*
X147672250Y-111050928D01*
X147672578Y-110956747D01*
X147669660Y-110733783D01*
X147657919Y-110548008D01*
X147634395Y-110386098D01*
X147596128Y-110234730D01*
X147540159Y-110080580D01*
X147463528Y-109910325D01*
X147420888Y-109823655D01*
X147289027Y-109560604D01*
X147468920Y-109506457D01*
X147786683Y-109384778D01*
X148087689Y-109217592D01*
X148364808Y-109009325D01*
X148540932Y-108841282D01*
X148673801Y-108695191D01*
X148778568Y-108563043D01*
X148867177Y-108427447D01*
X148951574Y-108271010D01*
X148997033Y-108177194D01*
X149125680Y-107846385D01*
X149205153Y-107505561D01*
X149235193Y-107158617D01*
X149215538Y-106809444D01*
X149145928Y-106461938D01*
X149118269Y-106368059D01*
X148999427Y-106059435D01*
X148844560Y-105778913D01*
X148648076Y-105517341D01*
X148502498Y-105360261D01*
X148243025Y-105132381D01*
X147959130Y-104946929D01*
X147646683Y-104801555D01*
X147356714Y-104708045D01*
X147246930Y-104680916D01*
X147148318Y-104662503D01*
X147045868Y-104651224D01*
X146924568Y-104645499D01*
X146769407Y-104643746D01*
X146746212Y-104643727D01*
X146586432Y-104645043D01*
X146462535Y-104650051D01*
X146359594Y-104660337D01*
X146262684Y-104677492D01*
X146156880Y-104703102D01*
X146136002Y-104708662D01*
X146027804Y-104738296D01*
X145935156Y-104764673D01*
X145871138Y-104784019D01*
X145852456Y-104790460D01*
X145824239Y-104788063D01*
X145786610Y-104756795D01*
X145734128Y-104691046D01*
X145678762Y-104611293D01*
X145611519Y-104505398D01*
X145576702Y-104435774D01*
X145573330Y-104400354D01*
X145576870Y-104396846D01*
X145616128Y-104384086D01*
X145696289Y-104366208D01*
X145807852Y-104344820D01*
X145941318Y-104321529D01*
X146087185Y-104297942D01*
X146235952Y-104275667D01*
X146378119Y-104256312D01*
X146479245Y-104244173D01*
X146556825Y-104238434D01*
X146678258Y-104233602D01*
X146844386Y-104229669D01*
X147056053Y-104226628D01*
X147314101Y-104224475D01*
X147619372Y-104223202D01*
X147972709Y-104222802D01*
X148374954Y-104223270D01*
X148374954Y-104223270D01*
G37*
X148374954Y-104223270D02*
X148826950Y-104224598D01*
X148970937Y-104225158D01*
X149360604Y-104226785D01*
X149703016Y-104228342D01*
X150001768Y-104229918D01*
X150260457Y-104231604D01*
X150482677Y-104233491D01*
X150672024Y-104235669D01*
X150832094Y-104238228D01*
X150966483Y-104241260D01*
X151078785Y-104244854D01*
X151172596Y-104249102D01*
X151251513Y-104254093D01*
X151319130Y-104259918D01*
X151379042Y-104266668D01*
X151434847Y-104274433D01*
X151490138Y-104283304D01*
X151526192Y-104289478D01*
X151952079Y-104373814D01*
X152342581Y-104474172D01*
X152711851Y-104595083D01*
X153074037Y-104741077D01*
X153369535Y-104879641D01*
X153862865Y-105149740D01*
X154317790Y-105452045D01*
X154736672Y-105788369D01*
X155121874Y-106160525D01*
X155308490Y-106367458D01*
X155663221Y-106815183D01*
X155971164Y-107280581D01*
X156233296Y-107765803D01*
X156450593Y-108272999D01*
X156624035Y-108804317D01*
X156754597Y-109361907D01*
X156805433Y-109660050D01*
X156811645Y-109704934D01*
X156817273Y-109754537D01*
X156822355Y-109811536D01*
X156826928Y-109878613D01*
X156831029Y-109958446D01*
X156834695Y-110053714D01*
X156837964Y-110167099D01*
X156840873Y-110301278D01*
X156843459Y-110458932D01*
X156845759Y-110642740D01*
X156847811Y-110855381D01*
X156849652Y-111099536D01*
X156851319Y-111377883D01*
X156852850Y-111693102D01*
X156854281Y-112047873D01*
X156855650Y-112444874D01*
X156856994Y-112886786D01*
X156858350Y-113376289D01*
X156858649Y-113489010D01*
X156867986Y-117025578D01*
X156745988Y-117071088D01*
X156620592Y-117123606D01*
X156465605Y-117197292D01*
X156293890Y-117285321D01*
X156118307Y-117380869D01*
X155951717Y-117477110D01*
X155806984Y-117567219D01*
X155790338Y-117578198D01*
X155370366Y-117886699D01*
X154985072Y-118229407D01*
X154636139Y-118603227D01*
X154325252Y-119005064D01*
X154054093Y-119431822D01*
X153824348Y-119880407D01*
X153637699Y-120347724D01*
X153495831Y-120830676D01*
X153400427Y-121326170D01*
X153353171Y-121831109D01*
X153348067Y-122067658D01*
X153349396Y-122238533D01*
X153353584Y-122370493D01*
X153361698Y-122475444D01*
X153374805Y-122565290D01*
X153393973Y-122651936D01*
X153403806Y-122689208D01*
X153466632Y-122878654D01*
X153551071Y-123075504D01*
X153648207Y-123261188D01*
X153749123Y-123417136D01*
X153760749Y-123432561D01*
X153816567Y-123511119D01*
X153839596Y-123560642D01*
X153832989Y-123588070D01*
X153831862Y-123589047D01*
X153781969Y-123621826D01*
X153695334Y-123670479D01*
X153581661Y-123730175D01*
X153450652Y-123796085D01*
X153312012Y-123863377D01*
X153175444Y-123927221D01*
X153050650Y-123982788D01*
X152988154Y-124009049D01*
X152559854Y-124168423D01*
X152138461Y-124292457D01*
X151703456Y-124386705D01*
X151429625Y-124430946D01*
X151365122Y-124439929D01*
X151302501Y-124447810D01*
X151238150Y-124454655D01*
X151168459Y-124460530D01*
X151089816Y-124465502D01*
X150998609Y-124469637D01*
X150891228Y-124473002D01*
X150764059Y-124475663D01*
X150613492Y-124477686D01*
X150435916Y-124479139D01*
X150227719Y-124480087D01*
X149985289Y-124480597D01*
X149705015Y-124480736D01*
X149383285Y-124480570D01*
X149016488Y-124480164D01*
X148772668Y-124479833D01*
X148431505Y-124479097D01*
X148102038Y-124477892D01*
X147788205Y-124476261D01*
X147493941Y-124474247D01*
X147223184Y-124471893D01*
X146979869Y-124469240D01*
X146767934Y-124466333D01*
X146591314Y-124463214D01*
X146453947Y-124459924D01*
X146359769Y-124456507D01*
X146313980Y-124453195D01*
X145797032Y-124363997D01*
X145314653Y-124246526D01*
X144857240Y-124097696D01*
X144415187Y-123914425D01*
X144021780Y-123717074D01*
X143923730Y-123663621D01*
X143843835Y-123619541D01*
X143791690Y-123590161D01*
X143776475Y-123580897D01*
X143786495Y-123558244D01*
X143819689Y-123503248D01*
X143870215Y-123425328D01*
X143906570Y-123371267D01*
X144048496Y-123129401D01*
X144155889Y-122869491D01*
X144229123Y-122588156D01*
X144268572Y-122282011D01*
X144274610Y-121947674D01*
X144247612Y-121581761D01*
X144187951Y-121180888D01*
X144163211Y-121050641D01*
X144038676Y-120552724D01*
X143867392Y-120070968D01*
X143651778Y-119608550D01*
X143394250Y-119168648D01*
X143097226Y-118754439D01*
X142763124Y-118369101D01*
X142394360Y-118015811D01*
X141993352Y-117697748D01*
X141562517Y-117418088D01*
X141284908Y-117267111D01*
X141160598Y-117205483D01*
X141040657Y-117148222D01*
X140938563Y-117101632D01*
X140867797Y-117072012D01*
X140866582Y-117071556D01*
X140745811Y-117026515D01*
X140745811Y-114892175D01*
X140803019Y-114906479D01*
X141043079Y-114949267D01*
X141308366Y-114967130D01*
X141579839Y-114960175D01*
X141838461Y-114928508D01*
X141970692Y-114899991D01*
X142310904Y-114787323D01*
X142627275Y-114631201D01*
X142916283Y-114434134D01*
X143174408Y-114198627D01*
X143398128Y-113927187D01*
X143455579Y-113842858D01*
X143544480Y-113694145D01*
X143628428Y-113531313D01*
X143701031Y-113368568D01*
X143755900Y-113220115D01*
X143784696Y-113111226D01*
X143799003Y-113050320D01*
X143812243Y-113017856D01*
X143814836Y-113016206D01*
X143841703Y-113029512D01*
X143891622Y-113062179D01*
X143900688Y-113068569D01*
X143959688Y-113104726D01*
X144047627Y-113151885D01*
X144146861Y-113200647D01*
X144160577Y-113207033D01*
X144487008Y-113330653D01*
X144822841Y-113406262D01*
X145163089Y-113434617D01*
X145502764Y-113416480D01*
X145836880Y-113352611D01*
X146160448Y-113243769D01*
X146468483Y-113090715D01*
X146755997Y-112894208D01*
X146875741Y-112793256D01*
X147082150Y-112578796D01*
X147269719Y-112326417D01*
X147431222Y-112047707D01*
X147559434Y-111754253D01*
X147601753Y-111628954D01*
X147627481Y-111541777D01*
X147646040Y-111465908D01*
X147658613Y-111390118D01*
X147666384Y-111303178D01*
X147670535Y-111193857D01*
X147672250Y-111050928D01*
X147672578Y-110956747D01*
X147669660Y-110733783D01*
X147657919Y-110548008D01*
X147634395Y-110386098D01*
X147596128Y-110234730D01*
X147540159Y-110080580D01*
X147463528Y-109910325D01*
X147420888Y-109823655D01*
X147289027Y-109560604D01*
X147468920Y-109506457D01*
X147786683Y-109384778D01*
X148087689Y-109217592D01*
X148364808Y-109009325D01*
X148540932Y-108841282D01*
X148673801Y-108695191D01*
X148778568Y-108563043D01*
X148867177Y-108427447D01*
X148951574Y-108271010D01*
X148997033Y-108177194D01*
X149125680Y-107846385D01*
X149205153Y-107505561D01*
X149235193Y-107158617D01*
X149215538Y-106809444D01*
X149145928Y-106461938D01*
X149118269Y-106368059D01*
X148999427Y-106059435D01*
X148844560Y-105778913D01*
X148648076Y-105517341D01*
X148502498Y-105360261D01*
X148243025Y-105132381D01*
X147959130Y-104946929D01*
X147646683Y-104801555D01*
X147356714Y-104708045D01*
X147246930Y-104680916D01*
X147148318Y-104662503D01*
X147045868Y-104651224D01*
X146924568Y-104645499D01*
X146769407Y-104643746D01*
X146746212Y-104643727D01*
X146586432Y-104645043D01*
X146462535Y-104650051D01*
X146359594Y-104660337D01*
X146262684Y-104677492D01*
X146156880Y-104703102D01*
X146136002Y-104708662D01*
X146027804Y-104738296D01*
X145935156Y-104764673D01*
X145871138Y-104784019D01*
X145852456Y-104790460D01*
X145824239Y-104788063D01*
X145786610Y-104756795D01*
X145734128Y-104691046D01*
X145678762Y-104611293D01*
X145611519Y-104505398D01*
X145576702Y-104435774D01*
X145573330Y-104400354D01*
X145576870Y-104396846D01*
X145616128Y-104384086D01*
X145696289Y-104366208D01*
X145807852Y-104344820D01*
X145941318Y-104321529D01*
X146087185Y-104297942D01*
X146235952Y-104275667D01*
X146378119Y-104256312D01*
X146479245Y-104244173D01*
X146556825Y-104238434D01*
X146678258Y-104233602D01*
X146844386Y-104229669D01*
X147056053Y-104226628D01*
X147314101Y-104224475D01*
X147619372Y-104223202D01*
X147972709Y-104222802D01*
X148374954Y-104223270D01*
G36*
X149828024Y-96423773D02*
X150139400Y-96494634D01*
X150292948Y-96546179D01*
X150472499Y-96621051D01*
X150663504Y-96711981D01*
X150851410Y-96811702D01*
X151021669Y-96912944D01*
X151143726Y-96996317D01*
X151300607Y-97124276D01*
X151465985Y-97278096D01*
X151627402Y-97444832D01*
X151772400Y-97611540D01*
X151888519Y-97765274D01*
X151899473Y-97781559D01*
X152104688Y-98135937D01*
X152262422Y-98506468D01*
X152372177Y-98889988D01*
X152433458Y-99283330D01*
X152445767Y-99683331D01*
X152408606Y-100086824D01*
X152323765Y-100482400D01*
X152271781Y-100637194D01*
X152196359Y-100817800D01*
X152104825Y-101009602D01*
X152004503Y-101197987D01*
X151902719Y-101368340D01*
X151818142Y-101491215D01*
X151690979Y-101645856D01*
X151538246Y-101809351D01*
X151372797Y-101969364D01*
X151207487Y-102113559D01*
X151055171Y-102229601D01*
X151032953Y-102244673D01*
X150878288Y-102338922D01*
X150698203Y-102434979D01*
X150508644Y-102525323D01*
X150325556Y-102602431D01*
X150164886Y-102658782D01*
X150139400Y-102666189D01*
X149899647Y-102721635D01*
X149639176Y-102762034D01*
X149374420Y-102785943D01*
X149121813Y-102791917D01*
X148897786Y-102778514D01*
X148882100Y-102776625D01*
X148478327Y-102701186D01*
X148093326Y-102579194D01*
X147729627Y-102411908D01*
X147389754Y-102200581D01*
X147076236Y-101946471D01*
X146935307Y-101809108D01*
X146753944Y-101609800D01*
X146603893Y-101415905D01*
X146472897Y-101209724D01*
X146348703Y-100973558D01*
X146330325Y-100935340D01*
X146183527Y-100569013D01*
X146084493Y-100190229D01*
X146033223Y-99803828D01*
X146029716Y-99414651D01*
X146073974Y-99027539D01*
X146165996Y-98647334D01*
X146305781Y-98278875D01*
X146330325Y-98226059D01*
X146454552Y-97984008D01*
X146583784Y-97774537D01*
X146730274Y-97579948D01*
X146906278Y-97382541D01*
X146935307Y-97352291D01*
X147233712Y-97079074D01*
X147557051Y-96848916D01*
X147901882Y-96662738D01*
X148264765Y-96521460D01*
X148642262Y-96426004D01*
X149030930Y-96377290D01*
X149427331Y-96376240D01*
X149828024Y-96423773D01*
X149828024Y-96423773D01*
G37*
X149828024Y-96423773D02*
X150139400Y-96494634D01*
X150292948Y-96546179D01*
X150472499Y-96621051D01*
X150663504Y-96711981D01*
X150851410Y-96811702D01*
X151021669Y-96912944D01*
X151143726Y-96996317D01*
X151300607Y-97124276D01*
X151465985Y-97278096D01*
X151627402Y-97444832D01*
X151772400Y-97611540D01*
X151888519Y-97765274D01*
X151899473Y-97781559D01*
X152104688Y-98135937D01*
X152262422Y-98506468D01*
X152372177Y-98889988D01*
X152433458Y-99283330D01*
X152445767Y-99683331D01*
X152408606Y-100086824D01*
X152323765Y-100482400D01*
X152271781Y-100637194D01*
X152196359Y-100817800D01*
X152104825Y-101009602D01*
X152004503Y-101197987D01*
X151902719Y-101368340D01*
X151818142Y-101491215D01*
X151690979Y-101645856D01*
X151538246Y-101809351D01*
X151372797Y-101969364D01*
X151207487Y-102113559D01*
X151055171Y-102229601D01*
X151032953Y-102244673D01*
X150878288Y-102338922D01*
X150698203Y-102434979D01*
X150508644Y-102525323D01*
X150325556Y-102602431D01*
X150164886Y-102658782D01*
X150139400Y-102666189D01*
X149899647Y-102721635D01*
X149639176Y-102762034D01*
X149374420Y-102785943D01*
X149121813Y-102791917D01*
X148897786Y-102778514D01*
X148882100Y-102776625D01*
X148478327Y-102701186D01*
X148093326Y-102579194D01*
X147729627Y-102411908D01*
X147389754Y-102200581D01*
X147076236Y-101946471D01*
X146935307Y-101809108D01*
X146753944Y-101609800D01*
X146603893Y-101415905D01*
X146472897Y-101209724D01*
X146348703Y-100973558D01*
X146330325Y-100935340D01*
X146183527Y-100569013D01*
X146084493Y-100190229D01*
X146033223Y-99803828D01*
X146029716Y-99414651D01*
X146073974Y-99027539D01*
X146165996Y-98647334D01*
X146305781Y-98278875D01*
X146330325Y-98226059D01*
X146454552Y-97984008D01*
X146583784Y-97774537D01*
X146730274Y-97579948D01*
X146906278Y-97382541D01*
X146935307Y-97352291D01*
X147233712Y-97079074D01*
X147557051Y-96848916D01*
X147901882Y-96662738D01*
X148264765Y-96521460D01*
X148642262Y-96426004D01*
X149030930Y-96377290D01*
X149427331Y-96376240D01*
X149828024Y-96423773D01*
D12*
X156464000Y-80772000D03*
D13*
X159004000Y-80772000D03*
D12*
X140716000Y-80772000D03*
D13*
X138176000Y-80772000D03*
D14*
X134112000Y-120904000D03*
D15*
X141732000Y-120904000D03*
D16*
X143319500Y-110299500D03*
D17*
X143319500Y-112839500D03*
X145859500Y-110299500D03*
X145859500Y-112839500D03*
D14*
X163576000Y-120904000D03*
D15*
X155956000Y-120904000D03*
M02*
