G04 #@! TF.FileFunction,Soldermask,Top*
%FSLAX46Y46*%
G04 Gerber Fmt 4.6, Leading zero omitted, Abs format (unit mm)*
G04 Created by KiCad (PCBNEW 4.0.7) date Friday, August 17, 2018 'PMt' 06:16:06 PM*
%MOMM*%
%LPD*%
G01*
G04 APERTURE LIST*
%ADD10C,0.100000*%
%ADD11C,0.010000*%
%ADD12R,2.200000X2.200000*%
%ADD13C,2.200000*%
%ADD14C,1.800000*%
%ADD15O,1.800000X1.800000*%
%ADD16R,2.100000X2.100000*%
%ADD17O,2.100000X2.100000*%
G04 APERTURE END LIST*
D10*
D11*
G36*
X149025686Y-84149189D02*
X149350417Y-84149403D01*
X149631086Y-84149854D01*
X149871091Y-84150613D01*
X150073824Y-84151749D01*
X150242683Y-84153334D01*
X150381061Y-84155438D01*
X150492355Y-84158131D01*
X150579958Y-84161485D01*
X150647267Y-84165571D01*
X150697675Y-84170457D01*
X150734579Y-84176217D01*
X150761373Y-84182919D01*
X150781453Y-84190635D01*
X150787429Y-84193540D01*
X150889327Y-84270566D01*
X150957527Y-84373917D01*
X150988009Y-84491607D01*
X150976753Y-84611647D01*
X150949670Y-84677347D01*
X150921319Y-84710147D01*
X150858299Y-84771521D01*
X150765114Y-84857620D01*
X150646268Y-84964592D01*
X150506264Y-85088587D01*
X150349606Y-85225756D01*
X150180798Y-85372248D01*
X150004342Y-85524212D01*
X149824743Y-85677800D01*
X149646505Y-85829160D01*
X149474130Y-85974442D01*
X149312123Y-86109796D01*
X149164987Y-86231372D01*
X149037226Y-86335320D01*
X148933344Y-86417790D01*
X148857844Y-86474930D01*
X148815229Y-86502892D01*
X148813226Y-86503818D01*
X148693068Y-86535134D01*
X148581981Y-86525862D01*
X148534916Y-86506313D01*
X148505489Y-86484336D01*
X148441145Y-86432527D01*
X148345665Y-86354043D01*
X148222829Y-86252040D01*
X148076419Y-86129672D01*
X147910218Y-85990096D01*
X147728005Y-85836467D01*
X147533563Y-85671942D01*
X147437144Y-85590152D01*
X147203008Y-85391192D01*
X147004757Y-85222015D01*
X146839409Y-85079611D01*
X146703985Y-84960970D01*
X146595505Y-84863082D01*
X146510987Y-84782939D01*
X146447452Y-84717529D01*
X146401919Y-84663844D01*
X146371407Y-84618874D01*
X146352937Y-84579608D01*
X146343528Y-84543038D01*
X146340199Y-84506154D01*
X146339882Y-84482098D01*
X146361179Y-84391663D01*
X146417059Y-84297973D01*
X146495861Y-84218923D01*
X146523888Y-84199719D01*
X146540079Y-84190572D01*
X146558901Y-84182601D01*
X146583762Y-84175725D01*
X146618068Y-84169863D01*
X146665226Y-84164933D01*
X146728642Y-84160855D01*
X146811724Y-84157548D01*
X146917878Y-84154932D01*
X147050511Y-84152924D01*
X147213029Y-84151445D01*
X147408840Y-84150413D01*
X147641349Y-84149748D01*
X147913964Y-84149368D01*
X148230091Y-84149193D01*
X148593137Y-84149142D01*
X148653500Y-84149140D01*
X149025686Y-84149189D01*
X149025686Y-84149189D01*
G37*
X149025686Y-84149189D02*
X149350417Y-84149403D01*
X149631086Y-84149854D01*
X149871091Y-84150613D01*
X150073824Y-84151749D01*
X150242683Y-84153334D01*
X150381061Y-84155438D01*
X150492355Y-84158131D01*
X150579958Y-84161485D01*
X150647267Y-84165571D01*
X150697675Y-84170457D01*
X150734579Y-84176217D01*
X150761373Y-84182919D01*
X150781453Y-84190635D01*
X150787429Y-84193540D01*
X150889327Y-84270566D01*
X150957527Y-84373917D01*
X150988009Y-84491607D01*
X150976753Y-84611647D01*
X150949670Y-84677347D01*
X150921319Y-84710147D01*
X150858299Y-84771521D01*
X150765114Y-84857620D01*
X150646268Y-84964592D01*
X150506264Y-85088587D01*
X150349606Y-85225756D01*
X150180798Y-85372248D01*
X150004342Y-85524212D01*
X149824743Y-85677800D01*
X149646505Y-85829160D01*
X149474130Y-85974442D01*
X149312123Y-86109796D01*
X149164987Y-86231372D01*
X149037226Y-86335320D01*
X148933344Y-86417790D01*
X148857844Y-86474930D01*
X148815229Y-86502892D01*
X148813226Y-86503818D01*
X148693068Y-86535134D01*
X148581981Y-86525862D01*
X148534916Y-86506313D01*
X148505489Y-86484336D01*
X148441145Y-86432527D01*
X148345665Y-86354043D01*
X148222829Y-86252040D01*
X148076419Y-86129672D01*
X147910218Y-85990096D01*
X147728005Y-85836467D01*
X147533563Y-85671942D01*
X147437144Y-85590152D01*
X147203008Y-85391192D01*
X147004757Y-85222015D01*
X146839409Y-85079611D01*
X146703985Y-84960970D01*
X146595505Y-84863082D01*
X146510987Y-84782939D01*
X146447452Y-84717529D01*
X146401919Y-84663844D01*
X146371407Y-84618874D01*
X146352937Y-84579608D01*
X146343528Y-84543038D01*
X146340199Y-84506154D01*
X146339882Y-84482098D01*
X146361179Y-84391663D01*
X146417059Y-84297973D01*
X146495861Y-84218923D01*
X146523888Y-84199719D01*
X146540079Y-84190572D01*
X146558901Y-84182601D01*
X146583762Y-84175725D01*
X146618068Y-84169863D01*
X146665226Y-84164933D01*
X146728642Y-84160855D01*
X146811724Y-84157548D01*
X146917878Y-84154932D01*
X147050511Y-84152924D01*
X147213029Y-84151445D01*
X147408840Y-84150413D01*
X147641349Y-84149748D01*
X147913964Y-84149368D01*
X148230091Y-84149193D01*
X148593137Y-84149142D01*
X148653500Y-84149140D01*
X149025686Y-84149189D01*
G36*
X149891524Y-96423773D02*
X150202900Y-96494634D01*
X150356448Y-96546179D01*
X150535999Y-96621051D01*
X150727004Y-96711981D01*
X150914910Y-96811702D01*
X151085169Y-96912944D01*
X151207226Y-96996317D01*
X151364107Y-97124276D01*
X151529485Y-97278096D01*
X151690902Y-97444832D01*
X151835900Y-97611540D01*
X151952019Y-97765274D01*
X151962973Y-97781559D01*
X152168188Y-98135937D01*
X152325922Y-98506468D01*
X152435677Y-98889988D01*
X152496958Y-99283330D01*
X152509267Y-99683331D01*
X152472106Y-100086824D01*
X152387265Y-100482400D01*
X152335281Y-100637194D01*
X152259859Y-100817800D01*
X152168325Y-101009602D01*
X152068003Y-101197987D01*
X151966219Y-101368340D01*
X151881642Y-101491215D01*
X151754479Y-101645856D01*
X151601746Y-101809351D01*
X151436297Y-101969364D01*
X151270987Y-102113559D01*
X151118671Y-102229601D01*
X151096453Y-102244673D01*
X150941788Y-102338922D01*
X150761703Y-102434979D01*
X150572144Y-102525323D01*
X150389056Y-102602431D01*
X150228386Y-102658782D01*
X150202900Y-102666189D01*
X149963147Y-102721635D01*
X149702676Y-102762034D01*
X149437920Y-102785943D01*
X149185313Y-102791917D01*
X148961286Y-102778514D01*
X148945600Y-102776625D01*
X148541827Y-102701186D01*
X148156826Y-102579194D01*
X147793127Y-102411908D01*
X147453254Y-102200581D01*
X147139736Y-101946471D01*
X146998807Y-101809108D01*
X146817444Y-101609800D01*
X146667393Y-101415905D01*
X146536397Y-101209724D01*
X146412203Y-100973558D01*
X146393825Y-100935340D01*
X146247027Y-100569013D01*
X146147993Y-100190229D01*
X146096723Y-99803828D01*
X146093216Y-99414651D01*
X146137474Y-99027539D01*
X146229496Y-98647334D01*
X146369281Y-98278875D01*
X146393825Y-98226059D01*
X146518052Y-97984008D01*
X146647284Y-97774537D01*
X146793774Y-97579948D01*
X146969778Y-97382541D01*
X146998807Y-97352291D01*
X147297212Y-97079074D01*
X147620551Y-96848916D01*
X147965382Y-96662738D01*
X148328265Y-96521460D01*
X148705762Y-96426004D01*
X149094430Y-96377290D01*
X149490831Y-96376240D01*
X149891524Y-96423773D01*
X149891524Y-96423773D01*
G37*
X149891524Y-96423773D02*
X150202900Y-96494634D01*
X150356448Y-96546179D01*
X150535999Y-96621051D01*
X150727004Y-96711981D01*
X150914910Y-96811702D01*
X151085169Y-96912944D01*
X151207226Y-96996317D01*
X151364107Y-97124276D01*
X151529485Y-97278096D01*
X151690902Y-97444832D01*
X151835900Y-97611540D01*
X151952019Y-97765274D01*
X151962973Y-97781559D01*
X152168188Y-98135937D01*
X152325922Y-98506468D01*
X152435677Y-98889988D01*
X152496958Y-99283330D01*
X152509267Y-99683331D01*
X152472106Y-100086824D01*
X152387265Y-100482400D01*
X152335281Y-100637194D01*
X152259859Y-100817800D01*
X152168325Y-101009602D01*
X152068003Y-101197987D01*
X151966219Y-101368340D01*
X151881642Y-101491215D01*
X151754479Y-101645856D01*
X151601746Y-101809351D01*
X151436297Y-101969364D01*
X151270987Y-102113559D01*
X151118671Y-102229601D01*
X151096453Y-102244673D01*
X150941788Y-102338922D01*
X150761703Y-102434979D01*
X150572144Y-102525323D01*
X150389056Y-102602431D01*
X150228386Y-102658782D01*
X150202900Y-102666189D01*
X149963147Y-102721635D01*
X149702676Y-102762034D01*
X149437920Y-102785943D01*
X149185313Y-102791917D01*
X148961286Y-102778514D01*
X148945600Y-102776625D01*
X148541827Y-102701186D01*
X148156826Y-102579194D01*
X147793127Y-102411908D01*
X147453254Y-102200581D01*
X147139736Y-101946471D01*
X146998807Y-101809108D01*
X146817444Y-101609800D01*
X146667393Y-101415905D01*
X146536397Y-101209724D01*
X146412203Y-100973558D01*
X146393825Y-100935340D01*
X146247027Y-100569013D01*
X146147993Y-100190229D01*
X146096723Y-99803828D01*
X146093216Y-99414651D01*
X146137474Y-99027539D01*
X146229496Y-98647334D01*
X146369281Y-98278875D01*
X146393825Y-98226059D01*
X146518052Y-97984008D01*
X146647284Y-97774537D01*
X146793774Y-97579948D01*
X146969778Y-97382541D01*
X146998807Y-97352291D01*
X147297212Y-97079074D01*
X147620551Y-96848916D01*
X147965382Y-96662738D01*
X148328265Y-96521460D01*
X148705762Y-96426004D01*
X149094430Y-96377290D01*
X149490831Y-96376240D01*
X149891524Y-96423773D01*
G36*
X148374954Y-104096270D02*
X148826950Y-104097598D01*
X148970937Y-104098158D01*
X149360604Y-104099785D01*
X149703016Y-104101342D01*
X150001768Y-104102918D01*
X150260457Y-104104604D01*
X150482677Y-104106491D01*
X150672024Y-104108669D01*
X150832094Y-104111228D01*
X150966483Y-104114260D01*
X151078785Y-104117854D01*
X151172596Y-104122102D01*
X151251513Y-104127093D01*
X151319130Y-104132918D01*
X151379042Y-104139668D01*
X151434847Y-104147433D01*
X151490138Y-104156304D01*
X151526192Y-104162478D01*
X151952079Y-104246814D01*
X152342581Y-104347172D01*
X152711851Y-104468083D01*
X153074037Y-104614077D01*
X153369535Y-104752641D01*
X153862865Y-105022740D01*
X154317790Y-105325045D01*
X154736672Y-105661369D01*
X155121874Y-106033525D01*
X155308490Y-106240458D01*
X155663221Y-106688183D01*
X155971164Y-107153581D01*
X156233296Y-107638803D01*
X156450593Y-108145999D01*
X156624035Y-108677317D01*
X156754597Y-109234907D01*
X156805433Y-109533050D01*
X156811645Y-109577934D01*
X156817273Y-109627537D01*
X156822355Y-109684536D01*
X156826928Y-109751613D01*
X156831029Y-109831446D01*
X156834695Y-109926714D01*
X156837964Y-110040099D01*
X156840873Y-110174278D01*
X156843459Y-110331932D01*
X156845759Y-110515740D01*
X156847811Y-110728381D01*
X156849652Y-110972536D01*
X156851319Y-111250883D01*
X156852850Y-111566102D01*
X156854281Y-111920873D01*
X156855650Y-112317874D01*
X156856994Y-112759786D01*
X156858350Y-113249289D01*
X156858649Y-113362010D01*
X156867986Y-116898578D01*
X156745988Y-116944088D01*
X156620592Y-116996606D01*
X156465605Y-117070292D01*
X156293890Y-117158321D01*
X156118307Y-117253869D01*
X155951717Y-117350110D01*
X155806984Y-117440219D01*
X155790338Y-117451198D01*
X155370366Y-117759699D01*
X154985072Y-118102407D01*
X154636139Y-118476227D01*
X154325252Y-118878064D01*
X154054093Y-119304822D01*
X153824348Y-119753407D01*
X153637699Y-120220724D01*
X153495831Y-120703676D01*
X153400427Y-121199170D01*
X153353171Y-121704109D01*
X153348067Y-121940658D01*
X153349396Y-122111533D01*
X153353584Y-122243493D01*
X153361698Y-122348444D01*
X153374805Y-122438290D01*
X153393973Y-122524936D01*
X153403806Y-122562208D01*
X153466632Y-122751654D01*
X153551071Y-122948504D01*
X153648207Y-123134188D01*
X153749123Y-123290136D01*
X153760749Y-123305561D01*
X153816567Y-123384119D01*
X153839596Y-123433642D01*
X153832989Y-123461070D01*
X153831862Y-123462047D01*
X153781969Y-123494826D01*
X153695334Y-123543479D01*
X153581661Y-123603175D01*
X153450652Y-123669085D01*
X153312012Y-123736377D01*
X153175444Y-123800221D01*
X153050650Y-123855788D01*
X152988154Y-123882049D01*
X152559854Y-124041423D01*
X152138461Y-124165457D01*
X151703456Y-124259705D01*
X151429625Y-124303946D01*
X151365122Y-124312929D01*
X151302501Y-124320810D01*
X151238150Y-124327655D01*
X151168459Y-124333530D01*
X151089816Y-124338502D01*
X150998609Y-124342637D01*
X150891228Y-124346002D01*
X150764059Y-124348663D01*
X150613492Y-124350686D01*
X150435916Y-124352139D01*
X150227719Y-124353087D01*
X149985289Y-124353597D01*
X149705015Y-124353736D01*
X149383285Y-124353570D01*
X149016488Y-124353164D01*
X148772668Y-124352833D01*
X148431505Y-124352097D01*
X148102038Y-124350892D01*
X147788205Y-124349261D01*
X147493941Y-124347247D01*
X147223184Y-124344893D01*
X146979869Y-124342240D01*
X146767934Y-124339333D01*
X146591314Y-124336214D01*
X146453947Y-124332924D01*
X146359769Y-124329507D01*
X146313980Y-124326195D01*
X145797032Y-124236997D01*
X145314653Y-124119526D01*
X144857240Y-123970696D01*
X144415187Y-123787425D01*
X144021780Y-123590074D01*
X143923730Y-123536621D01*
X143843835Y-123492541D01*
X143791690Y-123463161D01*
X143776475Y-123453897D01*
X143786495Y-123431244D01*
X143819689Y-123376248D01*
X143870215Y-123298328D01*
X143906570Y-123244267D01*
X144048496Y-123002401D01*
X144155889Y-122742491D01*
X144229123Y-122461156D01*
X144242105Y-122360408D01*
X146850923Y-122360408D01*
X146854109Y-122446378D01*
X146863536Y-122512043D01*
X146877378Y-122540652D01*
X146893514Y-122573403D01*
X146898764Y-122619801D01*
X146916661Y-122678628D01*
X146972564Y-122755515D01*
X147032248Y-122818913D01*
X147165731Y-122952093D01*
X147318284Y-122945000D01*
X147425923Y-122937891D01*
X147533805Y-122927495D01*
X147585251Y-122920896D01*
X147671205Y-122907895D01*
X147746357Y-122896170D01*
X147763229Y-122893442D01*
X147826690Y-122884244D01*
X147913695Y-122873055D01*
X147953919Y-122868252D01*
X148114540Y-122846148D01*
X148237734Y-122818876D01*
X148336922Y-122781026D01*
X148425530Y-122727187D01*
X148516978Y-122651950D01*
X148537820Y-122632906D01*
X148614748Y-122563157D01*
X148686631Y-122500362D01*
X148733211Y-122461879D01*
X148796457Y-122389632D01*
X148851990Y-122285557D01*
X148891671Y-122168675D01*
X148907358Y-122058006D01*
X148907373Y-122054953D01*
X148916897Y-121971389D01*
X148942271Y-121918215D01*
X148945511Y-121915232D01*
X148972693Y-121878697D01*
X148984913Y-121837866D01*
X148976531Y-121814284D01*
X148972133Y-121813531D01*
X148935482Y-121824322D01*
X148885441Y-121848848D01*
X148843777Y-121875335D01*
X148831097Y-121889807D01*
X148810734Y-121911777D01*
X148761713Y-121940536D01*
X148761177Y-121940795D01*
X148708075Y-121965460D01*
X148664388Y-121981316D01*
X148604873Y-121996979D01*
X148576842Y-122003721D01*
X148514284Y-122013747D01*
X148432646Y-122020520D01*
X148345506Y-122023837D01*
X148266438Y-122023494D01*
X148209018Y-122019288D01*
X148186821Y-122011017D01*
X148187281Y-122009547D01*
X148222511Y-121975879D01*
X148290644Y-121926962D01*
X148379143Y-121870238D01*
X148475476Y-121813148D01*
X148567106Y-121763134D01*
X148641499Y-121727636D01*
X148684900Y-121714132D01*
X148722701Y-121701055D01*
X148729395Y-121688375D01*
X148744403Y-121673306D01*
X149263329Y-121673306D01*
X149275671Y-121714061D01*
X149307158Y-121781586D01*
X149349479Y-121859853D01*
X149394323Y-121932828D01*
X149408514Y-121953371D01*
X149524191Y-122150635D01*
X149598544Y-122366674D01*
X149628779Y-122539852D01*
X149630840Y-122633651D01*
X149608062Y-122688934D01*
X149557170Y-122713236D01*
X149553176Y-122713869D01*
X149509160Y-122739889D01*
X149496190Y-122785913D01*
X149518697Y-122829371D01*
X149529093Y-122836484D01*
X149573159Y-122878254D01*
X149595585Y-122915233D01*
X149624945Y-122973293D01*
X149666137Y-123045732D01*
X149674387Y-123059377D01*
X149717534Y-123131609D01*
X149753740Y-123195049D01*
X149758469Y-123203767D01*
X149837423Y-123313905D01*
X149945717Y-123416649D01*
X150063263Y-123493698D01*
X150090587Y-123506319D01*
X150175870Y-123537720D01*
X150238268Y-123544787D01*
X150299576Y-123527466D01*
X150344251Y-123505686D01*
X150448575Y-123424520D01*
X150513161Y-123314386D01*
X150534114Y-123182383D01*
X150533249Y-123161078D01*
X150528827Y-123086122D01*
X150525485Y-123021238D01*
X150512395Y-122957750D01*
X150488311Y-122918565D01*
X150462684Y-122883031D01*
X150461864Y-122867714D01*
X150455377Y-122819393D01*
X150421941Y-122740018D01*
X150366873Y-122637841D01*
X150295489Y-122521110D01*
X150213109Y-122398074D01*
X150125048Y-122276983D01*
X150036625Y-122166087D01*
X149953156Y-122073635D01*
X149944269Y-122064712D01*
X149850114Y-121972179D01*
X149781314Y-121907956D01*
X149727667Y-121864005D01*
X149678967Y-121832286D01*
X149625012Y-121804759D01*
X149599396Y-121792997D01*
X149513253Y-121748386D01*
X149430786Y-121697297D01*
X149424221Y-121692672D01*
X149361319Y-121658520D01*
X149310259Y-121649246D01*
X149303775Y-121650898D01*
X149268976Y-121667639D01*
X149263329Y-121673306D01*
X148744403Y-121673306D01*
X148751181Y-121666501D01*
X148805407Y-121641005D01*
X148824740Y-121634310D01*
X148896986Y-121606644D01*
X148952008Y-121577973D01*
X148958224Y-121573482D01*
X148997800Y-121549282D01*
X149070411Y-121510836D01*
X149162845Y-121465039D01*
X149199765Y-121447450D01*
X149307017Y-121396346D01*
X149410078Y-121346253D01*
X149490349Y-121306235D01*
X149504870Y-121298766D01*
X149590001Y-121255135D01*
X149689520Y-121204980D01*
X149733699Y-121182996D01*
X149819940Y-121137678D01*
X149898384Y-121092117D01*
X149929733Y-121071708D01*
X149975576Y-121032329D01*
X149984336Y-120993795D01*
X149973190Y-120956385D01*
X149958284Y-120896434D01*
X149959721Y-120858225D01*
X149947808Y-120826834D01*
X149904925Y-120772552D01*
X149840001Y-120704013D01*
X149761964Y-120629852D01*
X149679744Y-120558702D01*
X149602271Y-120499196D01*
X149559692Y-120471439D01*
X149475382Y-120432767D01*
X149396851Y-120426939D01*
X149302975Y-120453165D01*
X149283135Y-120461098D01*
X149227035Y-120475266D01*
X149136086Y-120488844D01*
X149026266Y-120499645D01*
X148978030Y-120502847D01*
X148764692Y-120515317D01*
X148596383Y-120526344D01*
X148467318Y-120536432D01*
X148371713Y-120546088D01*
X148303781Y-120555819D01*
X148259025Y-120565760D01*
X148199920Y-120574581D01*
X148106216Y-120579784D01*
X147994080Y-120580670D01*
X147941207Y-120579451D01*
X147805276Y-120571604D01*
X147706210Y-120557076D01*
X147630198Y-120533416D01*
X147598944Y-120518672D01*
X147514164Y-120479136D01*
X147462113Y-120469031D01*
X147434340Y-120487953D01*
X147426376Y-120510478D01*
X147433677Y-120580896D01*
X147477163Y-120668633D01*
X147549326Y-120764996D01*
X147642657Y-120861293D01*
X147749647Y-120948832D01*
X147862786Y-121018922D01*
X147867860Y-121021505D01*
X147943900Y-121054352D01*
X148026301Y-121076518D01*
X148128049Y-121090183D01*
X148262133Y-121097530D01*
X148330809Y-121099248D01*
X148405472Y-121103894D01*
X148440143Y-121116803D01*
X148445515Y-121142132D01*
X148445223Y-121143711D01*
X148416293Y-121182216D01*
X148388697Y-121192872D01*
X148340590Y-121208976D01*
X148325133Y-121221440D01*
X148294526Y-121250067D01*
X148237202Y-121293986D01*
X148167010Y-121343655D01*
X148097799Y-121389535D01*
X148043416Y-121422086D01*
X148019270Y-121432149D01*
X147987672Y-121449961D01*
X147948914Y-121489357D01*
X147884408Y-121549196D01*
X147802958Y-121600647D01*
X147725168Y-121631776D01*
X147695742Y-121635992D01*
X147646241Y-121653823D01*
X147592157Y-121696203D01*
X147591210Y-121697195D01*
X147525247Y-121752498D01*
X147440472Y-121805377D01*
X147355238Y-121845907D01*
X147287902Y-121864159D01*
X147282083Y-121864382D01*
X147235051Y-121882351D01*
X147220100Y-121902520D01*
X147183888Y-121931302D01*
X147120435Y-121940658D01*
X147030019Y-121965940D01*
X146944214Y-122041558D01*
X146878408Y-122139422D01*
X146863113Y-122191054D01*
X146853938Y-122270008D01*
X146850923Y-122360408D01*
X144242105Y-122360408D01*
X144268572Y-122155011D01*
X144274610Y-121820674D01*
X144247612Y-121454761D01*
X144187951Y-121053888D01*
X144163211Y-120923641D01*
X144057962Y-120502831D01*
X145185733Y-120502831D01*
X145202333Y-120539161D01*
X145246819Y-120559938D01*
X145308404Y-120568392D01*
X145383849Y-120586489D01*
X145469745Y-120633058D01*
X145485826Y-120644668D01*
X145547549Y-120688587D01*
X145592938Y-120715844D01*
X145605322Y-120720237D01*
X145635561Y-120733444D01*
X145693241Y-120767563D01*
X145745855Y-120801839D01*
X145889953Y-120870304D01*
X146044464Y-120891896D01*
X146192213Y-120867335D01*
X146394745Y-120793976D01*
X146594938Y-120708037D01*
X146772980Y-120618299D01*
X146835201Y-120582311D01*
X146935673Y-120522671D01*
X147034876Y-120466095D01*
X147112940Y-120423888D01*
X147119276Y-120420662D01*
X147271682Y-120327960D01*
X147378418Y-120230798D01*
X147421709Y-120195683D01*
X147448498Y-120186303D01*
X147479981Y-120170323D01*
X147538136Y-120127696D01*
X147612389Y-120066399D01*
X147642360Y-120040107D01*
X147742479Y-119952117D01*
X147851598Y-119858211D01*
X147947186Y-119777767D01*
X147952788Y-119773140D01*
X148018048Y-119716060D01*
X148059094Y-119673532D01*
X148068824Y-119653135D01*
X148066008Y-119652370D01*
X148046289Y-119644470D01*
X148062171Y-119622937D01*
X148102316Y-119610234D01*
X148143708Y-119638962D01*
X148176150Y-119701005D01*
X148180847Y-119717410D01*
X148208564Y-119786141D01*
X148257212Y-119872479D01*
X148316194Y-119960616D01*
X148374915Y-120034747D01*
X148422776Y-120079066D01*
X148423678Y-120079617D01*
X148475196Y-120097108D01*
X148557406Y-120102774D01*
X148679630Y-120097224D01*
X148685972Y-120096740D01*
X148784413Y-120087922D01*
X148862750Y-120078673D01*
X148907580Y-120070646D01*
X148912355Y-120068810D01*
X148958333Y-120054963D01*
X149054329Y-120039103D01*
X149199554Y-120021357D01*
X149220287Y-120019103D01*
X149308246Y-120006007D01*
X149385076Y-119988591D01*
X149406276Y-119981719D01*
X149479497Y-119962624D01*
X149529691Y-119957475D01*
X149589861Y-119936397D01*
X149653873Y-119880728D01*
X149656909Y-119877173D01*
X149704938Y-119794849D01*
X149704042Y-119715952D01*
X149653753Y-119634702D01*
X149635673Y-119615595D01*
X149577100Y-119550944D01*
X149526806Y-119487700D01*
X149483893Y-119441802D01*
X149430871Y-119421830D01*
X149363188Y-119418330D01*
X149272915Y-119421921D01*
X149190041Y-119429943D01*
X149174340Y-119432374D01*
X149107285Y-119442513D01*
X149013330Y-119454846D01*
X148939155Y-119463673D01*
X148856924Y-119476354D01*
X148799508Y-119491675D01*
X148780246Y-119504940D01*
X148763822Y-119515317D01*
X148749147Y-119509023D01*
X148710020Y-119500595D01*
X148635168Y-119495958D01*
X148539629Y-119495952D01*
X148523660Y-119496429D01*
X148419457Y-119497788D01*
X148355989Y-119492169D01*
X148323440Y-119478104D01*
X148314728Y-119465157D01*
X148319501Y-119419019D01*
X148336812Y-119396861D01*
X148368314Y-119352664D01*
X148373439Y-119329725D01*
X148390794Y-119304338D01*
X148420538Y-119307935D01*
X148458790Y-119303508D01*
X148517282Y-119268897D01*
X148601399Y-119200604D01*
X148643010Y-119163453D01*
X148780491Y-119036132D01*
X148904442Y-118916853D01*
X149010300Y-118810386D01*
X149093500Y-118721503D01*
X149149480Y-118654975D01*
X149173675Y-118615574D01*
X149173595Y-118608722D01*
X149169819Y-118586243D01*
X149195917Y-118589874D01*
X149240191Y-118616446D01*
X149259439Y-118631978D01*
X149299535Y-118675998D01*
X149314180Y-118708255D01*
X149331632Y-118735595D01*
X149339605Y-118737054D01*
X149364022Y-118756625D01*
X149365031Y-118764176D01*
X149381909Y-118806334D01*
X149426540Y-118872151D01*
X149489915Y-118950149D01*
X149563026Y-119028851D01*
X149602670Y-119066950D01*
X149657042Y-119124164D01*
X149729908Y-119210977D01*
X149811163Y-119314940D01*
X149880394Y-119409062D01*
X149963909Y-119523561D01*
X150050359Y-119637574D01*
X150128349Y-119736300D01*
X150176689Y-119793980D01*
X150314962Y-119965388D01*
X150459376Y-120169639D01*
X150599510Y-120391495D01*
X150674660Y-120522125D01*
X150735012Y-120626507D01*
X150794647Y-120721843D01*
X150844404Y-120793799D01*
X150862976Y-120816820D01*
X150909630Y-120871473D01*
X150975089Y-120951441D01*
X151047138Y-121041744D01*
X151066003Y-121065784D01*
X151148344Y-121163415D01*
X151239728Y-121259942D01*
X151322264Y-121336630D01*
X151332970Y-121345419D01*
X151404714Y-121394829D01*
X151511705Y-121458452D01*
X151642490Y-121530373D01*
X151785617Y-121604678D01*
X151929635Y-121675453D01*
X152063092Y-121736785D01*
X152174534Y-121782760D01*
X152192935Y-121789507D01*
X152276952Y-121828347D01*
X152353402Y-121877209D01*
X152358201Y-121881044D01*
X152426448Y-121916867D01*
X152515905Y-121938151D01*
X152610994Y-121944425D01*
X152696139Y-121935215D01*
X152755763Y-121910050D01*
X152770040Y-121893540D01*
X152781071Y-121843715D01*
X152784532Y-121762213D01*
X152781402Y-121666106D01*
X152772660Y-121572465D01*
X152759287Y-121498361D01*
X152745379Y-121463931D01*
X152734882Y-121438506D01*
X152722011Y-121399556D01*
X152715437Y-121381298D01*
X152698748Y-121335240D01*
X152672946Y-121263228D01*
X152660656Y-121228746D01*
X152627233Y-121156623D01*
X152576747Y-121093342D01*
X152497256Y-121025105D01*
X152460807Y-120997817D01*
X152350677Y-120924084D01*
X152223738Y-120849098D01*
X152123689Y-120797091D01*
X151856675Y-120661834D01*
X151623689Y-120525410D01*
X151429459Y-120390915D01*
X151278712Y-120261446D01*
X151234073Y-120214503D01*
X151177264Y-120151174D01*
X151102350Y-120068508D01*
X151026712Y-119985674D01*
X150945424Y-119894397D01*
X150851340Y-119784817D01*
X150763052Y-119678636D01*
X150752055Y-119665082D01*
X150680734Y-119580645D01*
X150580819Y-119467672D01*
X150459434Y-119333821D01*
X150323705Y-119186750D01*
X150180757Y-119034117D01*
X150037715Y-118883579D01*
X149901703Y-118742795D01*
X149779846Y-118619422D01*
X149770621Y-118610233D01*
X149673957Y-118514056D01*
X149609179Y-118445668D01*
X149573047Y-118396092D01*
X149562318Y-118356350D01*
X149573753Y-118317462D01*
X149604111Y-118270452D01*
X149633376Y-118230006D01*
X149684785Y-118154352D01*
X149710394Y-118098905D01*
X149716139Y-118044138D01*
X149709342Y-117980070D01*
X149668503Y-117778779D01*
X149606503Y-117613302D01*
X149517968Y-117471116D01*
X149463014Y-117405872D01*
X149416524Y-117373814D01*
X149384569Y-117387547D01*
X149373382Y-117442691D01*
X149375117Y-117467603D01*
X149371832Y-117527043D01*
X149344220Y-117589083D01*
X149286880Y-117661712D01*
X149194415Y-117752922D01*
X149162997Y-117781527D01*
X149105622Y-117834807D01*
X149021180Y-117915357D01*
X148918617Y-118014543D01*
X148806877Y-118123733D01*
X148732771Y-118196764D01*
X148629014Y-118298186D01*
X148537065Y-118385795D01*
X148463207Y-118453786D01*
X148413721Y-118496356D01*
X148395657Y-118508225D01*
X148374181Y-118527776D01*
X148373439Y-118534498D01*
X148357008Y-118565611D01*
X148316235Y-118614982D01*
X148263896Y-118669617D01*
X148212768Y-118716517D01*
X148175629Y-118742687D01*
X148167146Y-118744331D01*
X148143249Y-118758978D01*
X148092699Y-118802803D01*
X148023955Y-118868201D01*
X147975749Y-118916407D01*
X147883141Y-119005522D01*
X147786026Y-119090622D01*
X147700687Y-119157697D01*
X147674240Y-119175862D01*
X147598151Y-119227683D01*
X147535725Y-119275079D01*
X147508975Y-119299187D01*
X147469955Y-119333002D01*
X147401947Y-119384280D01*
X147318607Y-119442788D01*
X147305571Y-119451594D01*
X147208896Y-119518706D01*
X147113826Y-119588256D01*
X147040821Y-119645270D01*
X147040384Y-119645633D01*
X146979999Y-119693058D01*
X146935395Y-119723107D01*
X146922178Y-119728646D01*
X146893425Y-119741873D01*
X146835161Y-119776640D01*
X146759707Y-119825574D01*
X146755695Y-119828267D01*
X146679784Y-119875955D01*
X146619989Y-119907368D01*
X146588592Y-119916102D01*
X146587865Y-119915755D01*
X146568805Y-119921066D01*
X146568234Y-119926084D01*
X146547951Y-119945236D01*
X146496317Y-119976376D01*
X146427157Y-120012731D01*
X146354295Y-120047529D01*
X146291554Y-120074000D01*
X146252757Y-120085370D01*
X146246729Y-120083580D01*
X146227634Y-120088669D01*
X146195878Y-120112117D01*
X146115535Y-120163346D01*
X145997822Y-120216402D01*
X145855841Y-120266932D01*
X145702697Y-120310583D01*
X145551494Y-120343004D01*
X145462228Y-120355802D01*
X145379716Y-120370773D01*
X145314392Y-120393085D01*
X145294961Y-120405101D01*
X145250185Y-120434284D01*
X145227761Y-120440558D01*
X145194929Y-120460308D01*
X145185733Y-120502831D01*
X144057962Y-120502831D01*
X144038676Y-120425724D01*
X143867392Y-119943968D01*
X143651778Y-119481550D01*
X143394250Y-119041648D01*
X143097226Y-118627439D01*
X142763124Y-118242101D01*
X142394360Y-117888811D01*
X141993352Y-117570748D01*
X141562517Y-117291088D01*
X141284908Y-117140111D01*
X141160598Y-117078483D01*
X141040657Y-117021222D01*
X140938563Y-116974632D01*
X140867797Y-116945012D01*
X140866582Y-116944556D01*
X140745811Y-116899515D01*
X140745811Y-115195803D01*
X148451156Y-115195803D01*
X148464943Y-115306885D01*
X148502629Y-115397284D01*
X148642661Y-115624894D01*
X148782543Y-115809804D01*
X148833824Y-115866641D01*
X148899561Y-115926765D01*
X148972159Y-115972580D01*
X149058105Y-116004990D01*
X149163883Y-116024899D01*
X149295982Y-116033211D01*
X149460886Y-116030829D01*
X149665083Y-116018658D01*
X149829045Y-116005307D01*
X149899270Y-116002542D01*
X149942825Y-116007314D01*
X149949815Y-116012708D01*
X149927082Y-116047453D01*
X149858920Y-116104878D01*
X149771837Y-116167035D01*
X149709800Y-116212094D01*
X149664671Y-116249606D01*
X149657423Y-116257020D01*
X149623285Y-116286859D01*
X149562199Y-116332882D01*
X149511227Y-116368714D01*
X149446076Y-116414944D01*
X149402227Y-116449366D01*
X149390456Y-116462071D01*
X149410355Y-116461869D01*
X149457249Y-116447288D01*
X149511938Y-116425198D01*
X149553028Y-116403897D01*
X149587847Y-116385602D01*
X149593859Y-116383777D01*
X149637350Y-116367815D01*
X149705103Y-116335099D01*
X149777994Y-116295396D01*
X149830312Y-116263037D01*
X149895282Y-116232778D01*
X149952281Y-116227953D01*
X149952871Y-116228103D01*
X150007107Y-116224411D01*
X150076447Y-116198306D01*
X150092023Y-116189746D01*
X150185257Y-116152701D01*
X150248687Y-116151122D01*
X150324463Y-116149346D01*
X150381591Y-116131257D01*
X150440320Y-116112469D01*
X150535045Y-116094247D01*
X150650929Y-116078417D01*
X150773133Y-116066801D01*
X150886818Y-116061225D01*
X150947822Y-116061651D01*
X151031062Y-116072752D01*
X151129648Y-116096728D01*
X151224306Y-116127756D01*
X151295763Y-116160014D01*
X151313868Y-116172234D01*
X151363157Y-116184705D01*
X151434681Y-116173212D01*
X151509655Y-116143847D01*
X151569297Y-116102705D01*
X151584591Y-116084410D01*
X151627176Y-115974380D01*
X151626437Y-115845434D01*
X151583273Y-115703759D01*
X151510154Y-115572344D01*
X151464331Y-115499512D01*
X151433246Y-115440940D01*
X151424490Y-115414473D01*
X151408716Y-115361925D01*
X151369838Y-115292388D01*
X151320523Y-115225017D01*
X151273438Y-115178964D01*
X151265495Y-115174046D01*
X151173579Y-115135832D01*
X151050780Y-115099207D01*
X150915387Y-115068206D01*
X150785688Y-115046861D01*
X150679973Y-115039206D01*
X150657795Y-115040019D01*
X150600682Y-115043438D01*
X150505332Y-115048358D01*
X150384313Y-115054160D01*
X150250194Y-115060224D01*
X150229495Y-115061127D01*
X150077620Y-115068133D01*
X149920582Y-115076064D01*
X149777286Y-115083928D01*
X149670136Y-115090496D01*
X149478412Y-115101274D01*
X149286059Y-115108385D01*
X149101172Y-115111864D01*
X148931847Y-115111747D01*
X148786179Y-115108071D01*
X148672263Y-115100870D01*
X148598195Y-115090181D01*
X148583362Y-115085693D01*
X148525797Y-115066823D01*
X148495000Y-115073040D01*
X148475304Y-115100913D01*
X148451156Y-115195803D01*
X140745811Y-115195803D01*
X140745811Y-114765175D01*
X140803019Y-114779479D01*
X141043079Y-114822267D01*
X141308366Y-114840130D01*
X141579839Y-114833175D01*
X141838461Y-114801508D01*
X141970692Y-114772991D01*
X142310904Y-114660323D01*
X142627275Y-114504201D01*
X142916283Y-114307134D01*
X143174408Y-114071627D01*
X143398128Y-113800187D01*
X143455579Y-113715858D01*
X143544480Y-113567145D01*
X143628428Y-113404313D01*
X143701031Y-113241568D01*
X143755900Y-113093115D01*
X143784696Y-112984226D01*
X143799003Y-112923320D01*
X143812243Y-112890856D01*
X143814836Y-112889206D01*
X143841703Y-112902512D01*
X143891622Y-112935179D01*
X143900688Y-112941569D01*
X143959688Y-112977726D01*
X144047627Y-113024885D01*
X144146861Y-113073647D01*
X144160577Y-113080033D01*
X144487008Y-113203653D01*
X144822841Y-113279262D01*
X145163089Y-113307617D01*
X145502764Y-113289480D01*
X145836880Y-113225611D01*
X146160448Y-113116769D01*
X146468483Y-112963715D01*
X146755997Y-112767208D01*
X146859889Y-112679620D01*
X147298530Y-112679620D01*
X147321996Y-112723580D01*
X147336261Y-112744046D01*
X147375779Y-112821055D01*
X147395813Y-112901622D01*
X147396231Y-112908650D01*
X147422201Y-112989677D01*
X147485538Y-113054996D01*
X147573365Y-113096742D01*
X147672805Y-113107049D01*
X147711197Y-113101030D01*
X147774256Y-113080652D01*
X147857303Y-113046924D01*
X147946247Y-113006493D01*
X148026997Y-112966008D01*
X148055802Y-112949310D01*
X148477833Y-112949310D01*
X148499514Y-113024212D01*
X148525629Y-113066676D01*
X148559983Y-113133510D01*
X148590908Y-113224263D01*
X148602734Y-113274004D01*
X148629195Y-113396208D01*
X148656118Y-113497426D01*
X148680701Y-113568502D01*
X148700137Y-113600278D01*
X148702931Y-113601118D01*
X148721347Y-113622466D01*
X148745748Y-113675027D01*
X148750210Y-113686931D01*
X148800098Y-113780144D01*
X148873180Y-113862224D01*
X148959926Y-113928158D01*
X149050805Y-113972934D01*
X149136288Y-113991539D01*
X149206846Y-113978960D01*
X149243871Y-113946592D01*
X149258271Y-113901563D01*
X149262940Y-113851764D01*
X149269186Y-113781723D01*
X149285343Y-113679514D01*
X149308394Y-113559180D01*
X149335322Y-113434762D01*
X149363110Y-113320301D01*
X149388741Y-113229838D01*
X149406930Y-113181599D01*
X149438335Y-113107209D01*
X149457392Y-113041759D01*
X149475960Y-112978244D01*
X149507537Y-112898540D01*
X149517637Y-112876494D01*
X149553513Y-112789674D01*
X149581003Y-112702098D01*
X149597327Y-112626203D01*
X149599706Y-112574429D01*
X149588685Y-112558676D01*
X149561929Y-112575070D01*
X149508499Y-112618440D01*
X149437940Y-112680071D01*
X149359795Y-112751244D01*
X149283609Y-112823242D01*
X149218927Y-112887349D01*
X149175292Y-112934847D01*
X149171108Y-112940057D01*
X149071851Y-113053302D01*
X148981152Y-113126892D01*
X148933674Y-113153475D01*
X148903450Y-113147599D01*
X148867776Y-113104547D01*
X148866737Y-113103117D01*
X148799415Y-113012809D01*
X148750038Y-112954946D01*
X148708218Y-112919750D01*
X148663565Y-112897441D01*
X148639024Y-112888750D01*
X148551681Y-112875156D01*
X148496586Y-112897483D01*
X148477833Y-112949310D01*
X148055802Y-112949310D01*
X148085464Y-112932116D01*
X148106549Y-112914507D01*
X148137998Y-112900172D01*
X148147969Y-112903995D01*
X148184505Y-112901591D01*
X148216132Y-112881578D01*
X148277984Y-112840993D01*
X148379261Y-112791247D01*
X148510382Y-112736749D01*
X148614981Y-112698068D01*
X148692056Y-112668896D01*
X148750110Y-112643335D01*
X148768323Y-112632886D01*
X148812337Y-112611915D01*
X148857312Y-112598939D01*
X148907596Y-112584717D01*
X148991903Y-112557499D01*
X149096518Y-112521801D01*
X149164329Y-112497834D01*
X149276142Y-112458951D01*
X149377593Y-112425767D01*
X149454281Y-112402894D01*
X149482147Y-112396089D01*
X149551634Y-112381906D01*
X149642257Y-112362513D01*
X149682848Y-112353581D01*
X149856195Y-112317878D01*
X149982709Y-112298312D01*
X150013379Y-112295431D01*
X150035232Y-112296847D01*
X150049807Y-112310560D01*
X150058644Y-112345061D01*
X150063284Y-112408838D01*
X150065268Y-112510380D01*
X150065778Y-112584101D01*
X150070796Y-112758941D01*
X150084629Y-112895484D01*
X150108588Y-113005728D01*
X150113693Y-113022498D01*
X150167884Y-113150423D01*
X150236030Y-113245738D01*
X150312439Y-113303852D01*
X150391422Y-113320177D01*
X150455624Y-113298220D01*
X150488157Y-113257520D01*
X150521266Y-113186163D01*
X150547528Y-113103706D01*
X150559518Y-113029710D01*
X150559643Y-113024190D01*
X150569880Y-112973217D01*
X150584341Y-112953456D01*
X150598131Y-112920396D01*
X150594209Y-112900781D01*
X150595076Y-112849070D01*
X150604266Y-112831675D01*
X150626336Y-112787300D01*
X150656946Y-112704218D01*
X150692793Y-112593177D01*
X150730577Y-112464924D01*
X150766997Y-112330205D01*
X150798749Y-112199767D01*
X150799769Y-112195263D01*
X150837856Y-112128414D01*
X150905552Y-112093491D01*
X150973878Y-112095494D01*
X151029128Y-112129511D01*
X151070299Y-112187557D01*
X151085169Y-112249289D01*
X151080202Y-112272443D01*
X151068719Y-112299809D01*
X151059881Y-112326569D01*
X151050557Y-112365683D01*
X151037618Y-112430109D01*
X151020276Y-112520538D01*
X151006106Y-112590263D01*
X150989177Y-112662868D01*
X150967031Y-112747294D01*
X150937208Y-112852483D01*
X150897246Y-112987377D01*
X150844686Y-113160918D01*
X150838574Y-113180966D01*
X150813346Y-113276283D01*
X150792624Y-113377786D01*
X150777570Y-113475324D01*
X150769342Y-113558741D01*
X150769100Y-113617887D01*
X150778004Y-113642608D01*
X150786280Y-113638852D01*
X150810604Y-113604125D01*
X150848802Y-113539360D01*
X150884395Y-113473991D01*
X150946965Y-113357816D01*
X150992358Y-113281173D01*
X151024957Y-113237540D01*
X151049149Y-113220397D01*
X151055581Y-113219442D01*
X151083068Y-113202234D01*
X151137174Y-113155966D01*
X151209323Y-113088283D01*
X151269393Y-113028802D01*
X151366420Y-112934852D01*
X151434418Y-112879086D01*
X151475760Y-112859691D01*
X151486798Y-112862739D01*
X151507921Y-112892996D01*
X151546814Y-112960356D01*
X151598802Y-113056294D01*
X151659210Y-113172282D01*
X151692408Y-113237713D01*
X151754284Y-113359511D01*
X151808868Y-113464619D01*
X151851836Y-113544888D01*
X151878861Y-113592168D01*
X151885309Y-113601118D01*
X151903982Y-113629674D01*
X151930338Y-113684125D01*
X151956307Y-113745623D01*
X151973816Y-113795317D01*
X151976389Y-113813788D01*
X151985744Y-113837338D01*
X152001412Y-113858611D01*
X152030370Y-113912152D01*
X152044326Y-113957864D01*
X152096985Y-114120930D01*
X152180852Y-114254608D01*
X152200145Y-114275977D01*
X152291943Y-114355317D01*
X152369580Y-114386800D01*
X152434653Y-114370920D01*
X152454571Y-114354450D01*
X152492330Y-114304898D01*
X152538075Y-114228873D01*
X152583752Y-114142072D01*
X152621308Y-114060194D01*
X152642689Y-113998936D01*
X152644910Y-113983427D01*
X152655118Y-113936084D01*
X152667052Y-113920966D01*
X152689647Y-113883283D01*
X152711254Y-113804044D01*
X152729649Y-113692528D01*
X152736671Y-113630411D01*
X152749861Y-113532253D01*
X152769123Y-113426095D01*
X152774442Y-113401582D01*
X152834825Y-113074702D01*
X152862730Y-112800217D01*
X152873598Y-112663123D01*
X152887414Y-112524600D01*
X152902826Y-112395094D01*
X152918479Y-112285052D01*
X152933020Y-112204922D01*
X152945000Y-112165300D01*
X152960354Y-112121131D01*
X152968248Y-112075593D01*
X152976082Y-112009801D01*
X152989245Y-111906869D01*
X153005981Y-111780012D01*
X153024537Y-111642445D01*
X153043157Y-111507384D01*
X153052647Y-111439957D01*
X153068307Y-111317486D01*
X153082963Y-111183002D01*
X153089741Y-111109427D01*
X153104355Y-110936550D01*
X153116846Y-110802313D01*
X153128714Y-110694636D01*
X153141457Y-110601436D01*
X153156574Y-110510633D01*
X153175563Y-110410145D01*
X153178044Y-110397515D01*
X153201997Y-110263571D01*
X153223629Y-110120936D01*
X153239170Y-109995081D01*
X153242006Y-109965282D01*
X153263825Y-109771646D01*
X153296263Y-109561693D01*
X153336194Y-109351656D01*
X153380495Y-109157765D01*
X153426040Y-108996254D01*
X153432105Y-108977840D01*
X153469450Y-108859087D01*
X153487502Y-108775594D01*
X153486897Y-108715837D01*
X153468268Y-108668294D01*
X153450558Y-108643160D01*
X153402868Y-108594976D01*
X153333464Y-108538332D01*
X153256288Y-108483037D01*
X153185283Y-108438899D01*
X153134389Y-108415729D01*
X153125322Y-108414331D01*
X153079064Y-108402615D01*
X153065587Y-108390778D01*
X153034759Y-108380526D01*
X152967554Y-108375921D01*
X152878228Y-108377901D01*
X152873904Y-108378161D01*
X152655460Y-108417000D01*
X152445045Y-108505939D01*
X152316501Y-108587850D01*
X152208133Y-108666352D01*
X152272557Y-108730776D01*
X152326673Y-108772092D01*
X152379781Y-108777545D01*
X152444342Y-108745715D01*
X152497380Y-108705161D01*
X152551485Y-108672021D01*
X152626362Y-108649491D01*
X152735373Y-108633909D01*
X152769081Y-108630709D01*
X152868095Y-108624409D01*
X152948733Y-108623806D01*
X152996644Y-108628886D01*
X153001689Y-108630956D01*
X153019399Y-108667325D01*
X153017605Y-108716091D01*
X152988848Y-108859507D01*
X152959865Y-109006953D01*
X152932925Y-109146602D01*
X152910296Y-109266625D01*
X152894249Y-109355193D01*
X152889023Y-109386383D01*
X152873364Y-109476025D01*
X152854009Y-109574151D01*
X152850678Y-109589786D01*
X152835123Y-109677019D01*
X152820117Y-109785865D01*
X152812318Y-109857744D01*
X152799966Y-109964503D01*
X152784019Y-110069452D01*
X152773220Y-110125273D01*
X152757003Y-110213878D01*
X152741976Y-110322485D01*
X152735315Y-110385365D01*
X152725638Y-110479599D01*
X152715139Y-110562036D01*
X152708725Y-110600918D01*
X152694018Y-110682044D01*
X152677365Y-110785987D01*
X152663104Y-110885106D01*
X152658860Y-110918736D01*
X152640569Y-111059247D01*
X152623552Y-111154873D01*
X152606356Y-111211508D01*
X152587528Y-111235044D01*
X152580462Y-111236554D01*
X152538190Y-111220042D01*
X152530496Y-111211128D01*
X152495326Y-111191196D01*
X152454799Y-111185703D01*
X152376296Y-111179412D01*
X152340537Y-111155462D01*
X152340418Y-111106236D01*
X152350185Y-111073556D01*
X152385462Y-110996382D01*
X152434826Y-110915345D01*
X152443518Y-110903322D01*
X152533835Y-110771027D01*
X152602055Y-110647652D01*
X152644103Y-110541938D01*
X152655902Y-110462621D01*
X152654389Y-110451262D01*
X152620547Y-110361586D01*
X152557193Y-110301367D01*
X152458191Y-110266858D01*
X152332580Y-110254655D01*
X152211571Y-110256610D01*
X152133499Y-110270162D01*
X152110977Y-110281914D01*
X152070438Y-110305563D01*
X152014999Y-110326938D01*
X151963429Y-110340263D01*
X151934497Y-110339765D01*
X151932999Y-110336672D01*
X151937450Y-110308286D01*
X151949267Y-110242688D01*
X151966145Y-110152587D01*
X151971132Y-110126428D01*
X151995661Y-109985854D01*
X152006658Y-109886376D01*
X152004244Y-109820107D01*
X151988542Y-109779159D01*
X151976657Y-109766460D01*
X151952004Y-109723616D01*
X151937832Y-109657861D01*
X151937707Y-109656288D01*
X151920500Y-109585929D01*
X151888093Y-109543218D01*
X151850549Y-109534507D01*
X151817928Y-109566150D01*
X151813005Y-109577545D01*
X151782354Y-109629844D01*
X151765630Y-109647465D01*
X151748016Y-109682375D01*
X151726148Y-109755003D01*
X151703514Y-109852811D01*
X151692320Y-109911016D01*
X151669708Y-110025479D01*
X151645381Y-110129680D01*
X151623306Y-110207259D01*
X151615288Y-110228834D01*
X151587516Y-110303832D01*
X151558917Y-110396836D01*
X151550155Y-110429580D01*
X151532535Y-110490563D01*
X151509831Y-110533218D01*
X151471144Y-110568220D01*
X151405576Y-110606243D01*
X151331955Y-110643286D01*
X151240934Y-110690630D01*
X151166373Y-110733740D01*
X151121357Y-110764926D01*
X151116109Y-110770130D01*
X151075442Y-110800052D01*
X151057140Y-110804321D01*
X151020220Y-110821444D01*
X150971372Y-110863143D01*
X150966832Y-110867885D01*
X150916954Y-110911265D01*
X150875934Y-110931291D01*
X150873411Y-110931449D01*
X150850450Y-110910197D01*
X150840061Y-110860726D01*
X150843807Y-110804462D01*
X150861263Y-110764912D01*
X150875675Y-110729523D01*
X150893954Y-110658215D01*
X150912492Y-110565367D01*
X150915141Y-110550067D01*
X150933537Y-110452246D01*
X150952122Y-110370860D01*
X150967208Y-110321844D01*
X150968650Y-110318815D01*
X150993589Y-110251573D01*
X151015993Y-110159082D01*
X151028441Y-110078413D01*
X151039704Y-110023845D01*
X151048710Y-110002137D01*
X151060752Y-109964482D01*
X151074846Y-109895467D01*
X151081978Y-109850868D01*
X151096201Y-109772368D01*
X151111881Y-109714402D01*
X151119385Y-109698315D01*
X151133832Y-109659822D01*
X151149396Y-109590179D01*
X151156695Y-109545763D01*
X151172122Y-109465885D01*
X151190830Y-109405344D01*
X151200230Y-109387968D01*
X151213993Y-109346582D01*
X151209524Y-109331507D01*
X151208608Y-109286217D01*
X151239370Y-109222333D01*
X151292138Y-109150863D01*
X151357239Y-109082809D01*
X151425002Y-109029179D01*
X151485756Y-109000976D01*
X151501651Y-108999116D01*
X151542557Y-108990981D01*
X151551690Y-108980047D01*
X151570895Y-108954793D01*
X151618067Y-108917247D01*
X151628549Y-108910127D01*
X151699482Y-108836532D01*
X151735199Y-108760604D01*
X151751678Y-108694762D01*
X151746017Y-108655195D01*
X151713757Y-108620497D01*
X151704408Y-108612815D01*
X151633542Y-108570827D01*
X151570074Y-108548964D01*
X151512766Y-108527623D01*
X151483148Y-108499705D01*
X151450527Y-108473857D01*
X151402701Y-108465100D01*
X151377229Y-108463986D01*
X151356878Y-108456243D01*
X151338861Y-108435160D01*
X151320394Y-108394028D01*
X151298693Y-108326136D01*
X151270972Y-108224774D01*
X151234446Y-108083231D01*
X151218848Y-108022098D01*
X151174887Y-107921347D01*
X151106452Y-107846123D01*
X151024606Y-107807186D01*
X150994699Y-107804121D01*
X150956347Y-107806349D01*
X150934799Y-107820723D01*
X150924865Y-107858777D01*
X150921358Y-107932048D01*
X150920679Y-107968711D01*
X150913968Y-108092159D01*
X150899070Y-108226128D01*
X150877951Y-108361450D01*
X150852579Y-108488956D01*
X150824919Y-108599481D01*
X150796940Y-108683856D01*
X150770606Y-108732915D01*
X150754898Y-108741467D01*
X150706294Y-108746699D01*
X150687153Y-108753269D01*
X150629130Y-108771082D01*
X150598164Y-108777083D01*
X150542050Y-108791471D01*
X150519748Y-108801699D01*
X150476008Y-108818386D01*
X150416605Y-108832242D01*
X150338814Y-108853723D01*
X150260160Y-108885899D01*
X150190626Y-108911786D01*
X150149589Y-108900708D01*
X150130891Y-108848021D01*
X150127793Y-108786029D01*
X150112800Y-108655144D01*
X150071939Y-108532722D01*
X150011384Y-108428614D01*
X149937312Y-108352668D01*
X149855899Y-108314737D01*
X149830741Y-108312240D01*
X149769367Y-108299060D01*
X149747265Y-108288269D01*
X149700405Y-108280471D01*
X149665240Y-108306095D01*
X149660979Y-108350813D01*
X149661505Y-108352238D01*
X149686191Y-108391689D01*
X149732624Y-108449827D01*
X149757056Y-108477410D01*
X149800967Y-108529347D01*
X149824983Y-108575685D01*
X149834428Y-108634421D01*
X149834625Y-108723553D01*
X149834246Y-108738409D01*
X149827601Y-108871217D01*
X149813466Y-108963344D01*
X149787991Y-109024830D01*
X149747327Y-109065715D01*
X149698934Y-109091345D01*
X149633336Y-109118258D01*
X149587021Y-109135155D01*
X149581147Y-109136795D01*
X149543481Y-109149918D01*
X149479715Y-109175713D01*
X149454767Y-109186358D01*
X149297054Y-109244488D01*
X149170774Y-109269273D01*
X149078719Y-109260209D01*
X149068214Y-109255981D01*
X148987017Y-109234232D01*
X148932607Y-109255345D01*
X148904854Y-109319506D01*
X148903627Y-109426901D01*
X148910449Y-109481456D01*
X148937722Y-109545188D01*
X148995753Y-109624046D01*
X149072756Y-109705302D01*
X149156946Y-109776226D01*
X149220704Y-109816539D01*
X149316485Y-109849886D01*
X149428013Y-109865793D01*
X149534561Y-109862995D01*
X149614766Y-109840574D01*
X149670387Y-109815976D01*
X149702021Y-109820525D01*
X149714362Y-109860663D01*
X149712102Y-109942830D01*
X149709782Y-109970973D01*
X149697556Y-110086487D01*
X149681535Y-110208380D01*
X149671981Y-110269722D01*
X149652726Y-110387797D01*
X149632218Y-110521528D01*
X149612478Y-110656835D01*
X149595523Y-110779636D01*
X149583373Y-110875853D01*
X149578901Y-110918736D01*
X149564088Y-111080039D01*
X149549623Y-111200249D01*
X149533751Y-111289081D01*
X149514718Y-111356249D01*
X149490770Y-111411469D01*
X149489489Y-111413943D01*
X149460770Y-111479664D01*
X149449745Y-111527579D01*
X149451730Y-111537954D01*
X149442115Y-111566747D01*
X149400344Y-111616776D01*
X149335263Y-111679197D01*
X149255714Y-111745167D01*
X149212250Y-111777451D01*
X149148914Y-111822552D01*
X149237903Y-111806297D01*
X149304816Y-111790275D01*
X149349724Y-111772799D01*
X149352318Y-111771058D01*
X149394210Y-111751628D01*
X149451472Y-111734415D01*
X149501017Y-111729327D01*
X149546181Y-111746313D01*
X149603061Y-111792719D01*
X149624884Y-111813542D01*
X149724566Y-111910327D01*
X149773627Y-111850304D01*
X149809656Y-111788926D01*
X149823035Y-111735889D01*
X149828984Y-111659113D01*
X149852167Y-111606426D01*
X149902357Y-111567490D01*
X149989326Y-111531968D01*
X150027901Y-111519189D01*
X150113569Y-111488554D01*
X150176228Y-111460345D01*
X150203713Y-111440134D01*
X150204070Y-111438491D01*
X150224685Y-111417228D01*
X150242208Y-111414532D01*
X150276066Y-111402378D01*
X150280346Y-111392072D01*
X150301450Y-111368143D01*
X150329555Y-111356743D01*
X150376572Y-111364146D01*
X150400013Y-111402212D01*
X150390207Y-111447324D01*
X150373895Y-111495170D01*
X150369238Y-111527662D01*
X150363527Y-111582837D01*
X150352981Y-111664551D01*
X150346444Y-111710503D01*
X150334162Y-111776880D01*
X150314222Y-111821449D01*
X150276966Y-111850075D01*
X150212735Y-111868627D01*
X150111871Y-111882971D01*
X150051517Y-111889664D01*
X149954262Y-111904698D01*
X149846151Y-111927790D01*
X149809976Y-111937158D01*
X149715401Y-111961183D01*
X149624539Y-111980920D01*
X149593859Y-111986400D01*
X149512353Y-112003519D01*
X149441325Y-112024925D01*
X149441307Y-112024932D01*
X149395682Y-112040341D01*
X149311214Y-112066916D01*
X149197881Y-112101589D01*
X149065657Y-112141296D01*
X148983649Y-112165599D01*
X148828446Y-112211973D01*
X148670418Y-112260248D01*
X148524882Y-112305674D01*
X148407159Y-112343505D01*
X148373439Y-112354721D01*
X148215128Y-112406727D01*
X148096693Y-112442193D01*
X148010700Y-112463225D01*
X147963733Y-112470717D01*
X147909169Y-112485304D01*
X147893909Y-112492916D01*
X147868062Y-112505559D01*
X147826613Y-112518201D01*
X147756670Y-112534333D01*
X147687742Y-112548773D01*
X147627547Y-112568029D01*
X147596038Y-112585700D01*
X147555005Y-112602684D01*
X147483827Y-112618456D01*
X147443529Y-112624244D01*
X147352949Y-112637041D01*
X147306731Y-112653137D01*
X147298530Y-112679620D01*
X146859889Y-112679620D01*
X146875741Y-112666256D01*
X147082150Y-112451796D01*
X147269719Y-112199417D01*
X147431222Y-111920707D01*
X147559434Y-111627253D01*
X147601753Y-111501954D01*
X147627481Y-111414777D01*
X147646040Y-111338908D01*
X147658613Y-111263118D01*
X147666384Y-111176178D01*
X147670535Y-111066857D01*
X147672250Y-110923928D01*
X147672578Y-110829747D01*
X147669660Y-110606783D01*
X147657919Y-110421008D01*
X147634395Y-110259098D01*
X147596128Y-110107730D01*
X147540159Y-109953580D01*
X147463528Y-109783325D01*
X147420888Y-109696655D01*
X147289027Y-109433604D01*
X147468920Y-109379457D01*
X147786683Y-109257778D01*
X148087689Y-109090592D01*
X148364808Y-108882325D01*
X148540932Y-108714282D01*
X148673801Y-108568191D01*
X148778568Y-108436043D01*
X148867177Y-108300447D01*
X148951574Y-108144010D01*
X148997033Y-108050194D01*
X149125680Y-107719385D01*
X149205153Y-107378561D01*
X149235193Y-107031617D01*
X149215538Y-106682444D01*
X149145928Y-106334938D01*
X149118269Y-106241059D01*
X149075025Y-106128755D01*
X150153642Y-106128755D01*
X150177075Y-106238088D01*
X150192342Y-106272932D01*
X150223460Y-106352798D01*
X150241117Y-106427612D01*
X150279379Y-106540671D01*
X150357014Y-106638995D01*
X150462818Y-106713148D01*
X150585588Y-106753690D01*
X150633651Y-106758301D01*
X150710476Y-106766556D01*
X150768379Y-106783258D01*
X150779847Y-106790180D01*
X150808591Y-106806742D01*
X150814280Y-106802589D01*
X150834647Y-106800490D01*
X150884855Y-106816052D01*
X150896912Y-106820911D01*
X150979857Y-106849054D01*
X151072153Y-106871771D01*
X151081247Y-106873459D01*
X151180369Y-106891983D01*
X151236707Y-106906965D01*
X151257665Y-106923026D01*
X151250651Y-106944790D01*
X151231715Y-106967385D01*
X151185804Y-107004562D01*
X151153582Y-107015933D01*
X151122358Y-107031019D01*
X151119385Y-107041359D01*
X151099220Y-107064822D01*
X151086643Y-107066784D01*
X151049104Y-107082552D01*
X150992403Y-107122358D01*
X150965872Y-107144598D01*
X150877843Y-107222412D01*
X150954120Y-107206061D01*
X151033127Y-107191829D01*
X151093960Y-107184000D01*
X151152479Y-107173073D01*
X151237616Y-107150772D01*
X151306403Y-107129760D01*
X151389112Y-107104040D01*
X151437541Y-107094724D01*
X151465420Y-107101461D01*
X151486481Y-107123902D01*
X151487393Y-107125145D01*
X151512956Y-107148801D01*
X151553293Y-107158870D01*
X151622020Y-107157191D01*
X151681757Y-107151397D01*
X151775190Y-107142664D01*
X151854068Y-107137814D01*
X151894860Y-107137665D01*
X151941856Y-107140507D01*
X152025310Y-107144839D01*
X152130877Y-107149932D01*
X152187253Y-107152527D01*
X152291907Y-107157482D01*
X152375130Y-107161835D01*
X152425505Y-107164968D01*
X152435151Y-107165972D01*
X152460576Y-107172981D01*
X152493547Y-107182636D01*
X152558883Y-107202904D01*
X152619485Y-107222090D01*
X152705273Y-107244419D01*
X152778007Y-107254645D01*
X152810176Y-107252858D01*
X152880956Y-107240793D01*
X152913780Y-107238920D01*
X152964253Y-107215731D01*
X153001130Y-107152649D01*
X153023181Y-107059108D01*
X153029173Y-106944541D01*
X153017875Y-106818380D01*
X152988056Y-106690057D01*
X152986197Y-106684188D01*
X152961645Y-106610961D01*
X152937261Y-106552520D01*
X152906254Y-106499283D01*
X152861832Y-106441672D01*
X152797203Y-106370104D01*
X152705576Y-106275002D01*
X152671114Y-106239741D01*
X152464631Y-106028715D01*
X152256022Y-106012695D01*
X152032256Y-105998124D01*
X151762389Y-105985123D01*
X151451151Y-105973880D01*
X151103272Y-105964582D01*
X150979545Y-105961939D01*
X150749246Y-105955687D01*
X150562819Y-105947137D01*
X150421970Y-105936421D01*
X150328404Y-105923671D01*
X150283825Y-105909019D01*
X150282498Y-105907841D01*
X150258662Y-105915466D01*
X150215806Y-105949019D01*
X150212312Y-105952265D01*
X150165687Y-106028673D01*
X150153642Y-106128755D01*
X149075025Y-106128755D01*
X148999427Y-105932435D01*
X148844560Y-105651913D01*
X148648076Y-105390341D01*
X148502498Y-105233261D01*
X148243025Y-105005381D01*
X147959130Y-104819929D01*
X147646683Y-104674555D01*
X147356714Y-104581045D01*
X147246930Y-104553916D01*
X147148318Y-104535503D01*
X147045868Y-104524224D01*
X146924568Y-104518499D01*
X146769407Y-104516746D01*
X146746212Y-104516727D01*
X146586432Y-104518043D01*
X146462535Y-104523051D01*
X146359594Y-104533337D01*
X146262684Y-104550492D01*
X146156880Y-104576102D01*
X146136002Y-104581662D01*
X146027804Y-104611296D01*
X145935156Y-104637673D01*
X145871138Y-104657019D01*
X145852456Y-104663460D01*
X145824239Y-104661063D01*
X145786610Y-104629795D01*
X145734128Y-104564046D01*
X145678762Y-104484293D01*
X145611519Y-104378398D01*
X145576702Y-104308774D01*
X145573330Y-104273354D01*
X145576870Y-104269846D01*
X145616128Y-104257086D01*
X145696289Y-104239208D01*
X145807852Y-104217820D01*
X145941318Y-104194529D01*
X146087185Y-104170942D01*
X146235952Y-104148667D01*
X146378119Y-104129312D01*
X146479245Y-104117173D01*
X146556825Y-104111434D01*
X146678258Y-104106602D01*
X146844386Y-104102669D01*
X147056053Y-104099628D01*
X147314101Y-104097475D01*
X147619372Y-104096202D01*
X147972709Y-104095802D01*
X148374954Y-104096270D01*
X148374954Y-104096270D01*
G37*
X148374954Y-104096270D02*
X148826950Y-104097598D01*
X148970937Y-104098158D01*
X149360604Y-104099785D01*
X149703016Y-104101342D01*
X150001768Y-104102918D01*
X150260457Y-104104604D01*
X150482677Y-104106491D01*
X150672024Y-104108669D01*
X150832094Y-104111228D01*
X150966483Y-104114260D01*
X151078785Y-104117854D01*
X151172596Y-104122102D01*
X151251513Y-104127093D01*
X151319130Y-104132918D01*
X151379042Y-104139668D01*
X151434847Y-104147433D01*
X151490138Y-104156304D01*
X151526192Y-104162478D01*
X151952079Y-104246814D01*
X152342581Y-104347172D01*
X152711851Y-104468083D01*
X153074037Y-104614077D01*
X153369535Y-104752641D01*
X153862865Y-105022740D01*
X154317790Y-105325045D01*
X154736672Y-105661369D01*
X155121874Y-106033525D01*
X155308490Y-106240458D01*
X155663221Y-106688183D01*
X155971164Y-107153581D01*
X156233296Y-107638803D01*
X156450593Y-108145999D01*
X156624035Y-108677317D01*
X156754597Y-109234907D01*
X156805433Y-109533050D01*
X156811645Y-109577934D01*
X156817273Y-109627537D01*
X156822355Y-109684536D01*
X156826928Y-109751613D01*
X156831029Y-109831446D01*
X156834695Y-109926714D01*
X156837964Y-110040099D01*
X156840873Y-110174278D01*
X156843459Y-110331932D01*
X156845759Y-110515740D01*
X156847811Y-110728381D01*
X156849652Y-110972536D01*
X156851319Y-111250883D01*
X156852850Y-111566102D01*
X156854281Y-111920873D01*
X156855650Y-112317874D01*
X156856994Y-112759786D01*
X156858350Y-113249289D01*
X156858649Y-113362010D01*
X156867986Y-116898578D01*
X156745988Y-116944088D01*
X156620592Y-116996606D01*
X156465605Y-117070292D01*
X156293890Y-117158321D01*
X156118307Y-117253869D01*
X155951717Y-117350110D01*
X155806984Y-117440219D01*
X155790338Y-117451198D01*
X155370366Y-117759699D01*
X154985072Y-118102407D01*
X154636139Y-118476227D01*
X154325252Y-118878064D01*
X154054093Y-119304822D01*
X153824348Y-119753407D01*
X153637699Y-120220724D01*
X153495831Y-120703676D01*
X153400427Y-121199170D01*
X153353171Y-121704109D01*
X153348067Y-121940658D01*
X153349396Y-122111533D01*
X153353584Y-122243493D01*
X153361698Y-122348444D01*
X153374805Y-122438290D01*
X153393973Y-122524936D01*
X153403806Y-122562208D01*
X153466632Y-122751654D01*
X153551071Y-122948504D01*
X153648207Y-123134188D01*
X153749123Y-123290136D01*
X153760749Y-123305561D01*
X153816567Y-123384119D01*
X153839596Y-123433642D01*
X153832989Y-123461070D01*
X153831862Y-123462047D01*
X153781969Y-123494826D01*
X153695334Y-123543479D01*
X153581661Y-123603175D01*
X153450652Y-123669085D01*
X153312012Y-123736377D01*
X153175444Y-123800221D01*
X153050650Y-123855788D01*
X152988154Y-123882049D01*
X152559854Y-124041423D01*
X152138461Y-124165457D01*
X151703456Y-124259705D01*
X151429625Y-124303946D01*
X151365122Y-124312929D01*
X151302501Y-124320810D01*
X151238150Y-124327655D01*
X151168459Y-124333530D01*
X151089816Y-124338502D01*
X150998609Y-124342637D01*
X150891228Y-124346002D01*
X150764059Y-124348663D01*
X150613492Y-124350686D01*
X150435916Y-124352139D01*
X150227719Y-124353087D01*
X149985289Y-124353597D01*
X149705015Y-124353736D01*
X149383285Y-124353570D01*
X149016488Y-124353164D01*
X148772668Y-124352833D01*
X148431505Y-124352097D01*
X148102038Y-124350892D01*
X147788205Y-124349261D01*
X147493941Y-124347247D01*
X147223184Y-124344893D01*
X146979869Y-124342240D01*
X146767934Y-124339333D01*
X146591314Y-124336214D01*
X146453947Y-124332924D01*
X146359769Y-124329507D01*
X146313980Y-124326195D01*
X145797032Y-124236997D01*
X145314653Y-124119526D01*
X144857240Y-123970696D01*
X144415187Y-123787425D01*
X144021780Y-123590074D01*
X143923730Y-123536621D01*
X143843835Y-123492541D01*
X143791690Y-123463161D01*
X143776475Y-123453897D01*
X143786495Y-123431244D01*
X143819689Y-123376248D01*
X143870215Y-123298328D01*
X143906570Y-123244267D01*
X144048496Y-123002401D01*
X144155889Y-122742491D01*
X144229123Y-122461156D01*
X144242105Y-122360408D01*
X146850923Y-122360408D01*
X146854109Y-122446378D01*
X146863536Y-122512043D01*
X146877378Y-122540652D01*
X146893514Y-122573403D01*
X146898764Y-122619801D01*
X146916661Y-122678628D01*
X146972564Y-122755515D01*
X147032248Y-122818913D01*
X147165731Y-122952093D01*
X147318284Y-122945000D01*
X147425923Y-122937891D01*
X147533805Y-122927495D01*
X147585251Y-122920896D01*
X147671205Y-122907895D01*
X147746357Y-122896170D01*
X147763229Y-122893442D01*
X147826690Y-122884244D01*
X147913695Y-122873055D01*
X147953919Y-122868252D01*
X148114540Y-122846148D01*
X148237734Y-122818876D01*
X148336922Y-122781026D01*
X148425530Y-122727187D01*
X148516978Y-122651950D01*
X148537820Y-122632906D01*
X148614748Y-122563157D01*
X148686631Y-122500362D01*
X148733211Y-122461879D01*
X148796457Y-122389632D01*
X148851990Y-122285557D01*
X148891671Y-122168675D01*
X148907358Y-122058006D01*
X148907373Y-122054953D01*
X148916897Y-121971389D01*
X148942271Y-121918215D01*
X148945511Y-121915232D01*
X148972693Y-121878697D01*
X148984913Y-121837866D01*
X148976531Y-121814284D01*
X148972133Y-121813531D01*
X148935482Y-121824322D01*
X148885441Y-121848848D01*
X148843777Y-121875335D01*
X148831097Y-121889807D01*
X148810734Y-121911777D01*
X148761713Y-121940536D01*
X148761177Y-121940795D01*
X148708075Y-121965460D01*
X148664388Y-121981316D01*
X148604873Y-121996979D01*
X148576842Y-122003721D01*
X148514284Y-122013747D01*
X148432646Y-122020520D01*
X148345506Y-122023837D01*
X148266438Y-122023494D01*
X148209018Y-122019288D01*
X148186821Y-122011017D01*
X148187281Y-122009547D01*
X148222511Y-121975879D01*
X148290644Y-121926962D01*
X148379143Y-121870238D01*
X148475476Y-121813148D01*
X148567106Y-121763134D01*
X148641499Y-121727636D01*
X148684900Y-121714132D01*
X148722701Y-121701055D01*
X148729395Y-121688375D01*
X148744403Y-121673306D01*
X149263329Y-121673306D01*
X149275671Y-121714061D01*
X149307158Y-121781586D01*
X149349479Y-121859853D01*
X149394323Y-121932828D01*
X149408514Y-121953371D01*
X149524191Y-122150635D01*
X149598544Y-122366674D01*
X149628779Y-122539852D01*
X149630840Y-122633651D01*
X149608062Y-122688934D01*
X149557170Y-122713236D01*
X149553176Y-122713869D01*
X149509160Y-122739889D01*
X149496190Y-122785913D01*
X149518697Y-122829371D01*
X149529093Y-122836484D01*
X149573159Y-122878254D01*
X149595585Y-122915233D01*
X149624945Y-122973293D01*
X149666137Y-123045732D01*
X149674387Y-123059377D01*
X149717534Y-123131609D01*
X149753740Y-123195049D01*
X149758469Y-123203767D01*
X149837423Y-123313905D01*
X149945717Y-123416649D01*
X150063263Y-123493698D01*
X150090587Y-123506319D01*
X150175870Y-123537720D01*
X150238268Y-123544787D01*
X150299576Y-123527466D01*
X150344251Y-123505686D01*
X150448575Y-123424520D01*
X150513161Y-123314386D01*
X150534114Y-123182383D01*
X150533249Y-123161078D01*
X150528827Y-123086122D01*
X150525485Y-123021238D01*
X150512395Y-122957750D01*
X150488311Y-122918565D01*
X150462684Y-122883031D01*
X150461864Y-122867714D01*
X150455377Y-122819393D01*
X150421941Y-122740018D01*
X150366873Y-122637841D01*
X150295489Y-122521110D01*
X150213109Y-122398074D01*
X150125048Y-122276983D01*
X150036625Y-122166087D01*
X149953156Y-122073635D01*
X149944269Y-122064712D01*
X149850114Y-121972179D01*
X149781314Y-121907956D01*
X149727667Y-121864005D01*
X149678967Y-121832286D01*
X149625012Y-121804759D01*
X149599396Y-121792997D01*
X149513253Y-121748386D01*
X149430786Y-121697297D01*
X149424221Y-121692672D01*
X149361319Y-121658520D01*
X149310259Y-121649246D01*
X149303775Y-121650898D01*
X149268976Y-121667639D01*
X149263329Y-121673306D01*
X148744403Y-121673306D01*
X148751181Y-121666501D01*
X148805407Y-121641005D01*
X148824740Y-121634310D01*
X148896986Y-121606644D01*
X148952008Y-121577973D01*
X148958224Y-121573482D01*
X148997800Y-121549282D01*
X149070411Y-121510836D01*
X149162845Y-121465039D01*
X149199765Y-121447450D01*
X149307017Y-121396346D01*
X149410078Y-121346253D01*
X149490349Y-121306235D01*
X149504870Y-121298766D01*
X149590001Y-121255135D01*
X149689520Y-121204980D01*
X149733699Y-121182996D01*
X149819940Y-121137678D01*
X149898384Y-121092117D01*
X149929733Y-121071708D01*
X149975576Y-121032329D01*
X149984336Y-120993795D01*
X149973190Y-120956385D01*
X149958284Y-120896434D01*
X149959721Y-120858225D01*
X149947808Y-120826834D01*
X149904925Y-120772552D01*
X149840001Y-120704013D01*
X149761964Y-120629852D01*
X149679744Y-120558702D01*
X149602271Y-120499196D01*
X149559692Y-120471439D01*
X149475382Y-120432767D01*
X149396851Y-120426939D01*
X149302975Y-120453165D01*
X149283135Y-120461098D01*
X149227035Y-120475266D01*
X149136086Y-120488844D01*
X149026266Y-120499645D01*
X148978030Y-120502847D01*
X148764692Y-120515317D01*
X148596383Y-120526344D01*
X148467318Y-120536432D01*
X148371713Y-120546088D01*
X148303781Y-120555819D01*
X148259025Y-120565760D01*
X148199920Y-120574581D01*
X148106216Y-120579784D01*
X147994080Y-120580670D01*
X147941207Y-120579451D01*
X147805276Y-120571604D01*
X147706210Y-120557076D01*
X147630198Y-120533416D01*
X147598944Y-120518672D01*
X147514164Y-120479136D01*
X147462113Y-120469031D01*
X147434340Y-120487953D01*
X147426376Y-120510478D01*
X147433677Y-120580896D01*
X147477163Y-120668633D01*
X147549326Y-120764996D01*
X147642657Y-120861293D01*
X147749647Y-120948832D01*
X147862786Y-121018922D01*
X147867860Y-121021505D01*
X147943900Y-121054352D01*
X148026301Y-121076518D01*
X148128049Y-121090183D01*
X148262133Y-121097530D01*
X148330809Y-121099248D01*
X148405472Y-121103894D01*
X148440143Y-121116803D01*
X148445515Y-121142132D01*
X148445223Y-121143711D01*
X148416293Y-121182216D01*
X148388697Y-121192872D01*
X148340590Y-121208976D01*
X148325133Y-121221440D01*
X148294526Y-121250067D01*
X148237202Y-121293986D01*
X148167010Y-121343655D01*
X148097799Y-121389535D01*
X148043416Y-121422086D01*
X148019270Y-121432149D01*
X147987672Y-121449961D01*
X147948914Y-121489357D01*
X147884408Y-121549196D01*
X147802958Y-121600647D01*
X147725168Y-121631776D01*
X147695742Y-121635992D01*
X147646241Y-121653823D01*
X147592157Y-121696203D01*
X147591210Y-121697195D01*
X147525247Y-121752498D01*
X147440472Y-121805377D01*
X147355238Y-121845907D01*
X147287902Y-121864159D01*
X147282083Y-121864382D01*
X147235051Y-121882351D01*
X147220100Y-121902520D01*
X147183888Y-121931302D01*
X147120435Y-121940658D01*
X147030019Y-121965940D01*
X146944214Y-122041558D01*
X146878408Y-122139422D01*
X146863113Y-122191054D01*
X146853938Y-122270008D01*
X146850923Y-122360408D01*
X144242105Y-122360408D01*
X144268572Y-122155011D01*
X144274610Y-121820674D01*
X144247612Y-121454761D01*
X144187951Y-121053888D01*
X144163211Y-120923641D01*
X144057962Y-120502831D01*
X145185733Y-120502831D01*
X145202333Y-120539161D01*
X145246819Y-120559938D01*
X145308404Y-120568392D01*
X145383849Y-120586489D01*
X145469745Y-120633058D01*
X145485826Y-120644668D01*
X145547549Y-120688587D01*
X145592938Y-120715844D01*
X145605322Y-120720237D01*
X145635561Y-120733444D01*
X145693241Y-120767563D01*
X145745855Y-120801839D01*
X145889953Y-120870304D01*
X146044464Y-120891896D01*
X146192213Y-120867335D01*
X146394745Y-120793976D01*
X146594938Y-120708037D01*
X146772980Y-120618299D01*
X146835201Y-120582311D01*
X146935673Y-120522671D01*
X147034876Y-120466095D01*
X147112940Y-120423888D01*
X147119276Y-120420662D01*
X147271682Y-120327960D01*
X147378418Y-120230798D01*
X147421709Y-120195683D01*
X147448498Y-120186303D01*
X147479981Y-120170323D01*
X147538136Y-120127696D01*
X147612389Y-120066399D01*
X147642360Y-120040107D01*
X147742479Y-119952117D01*
X147851598Y-119858211D01*
X147947186Y-119777767D01*
X147952788Y-119773140D01*
X148018048Y-119716060D01*
X148059094Y-119673532D01*
X148068824Y-119653135D01*
X148066008Y-119652370D01*
X148046289Y-119644470D01*
X148062171Y-119622937D01*
X148102316Y-119610234D01*
X148143708Y-119638962D01*
X148176150Y-119701005D01*
X148180847Y-119717410D01*
X148208564Y-119786141D01*
X148257212Y-119872479D01*
X148316194Y-119960616D01*
X148374915Y-120034747D01*
X148422776Y-120079066D01*
X148423678Y-120079617D01*
X148475196Y-120097108D01*
X148557406Y-120102774D01*
X148679630Y-120097224D01*
X148685972Y-120096740D01*
X148784413Y-120087922D01*
X148862750Y-120078673D01*
X148907580Y-120070646D01*
X148912355Y-120068810D01*
X148958333Y-120054963D01*
X149054329Y-120039103D01*
X149199554Y-120021357D01*
X149220287Y-120019103D01*
X149308246Y-120006007D01*
X149385076Y-119988591D01*
X149406276Y-119981719D01*
X149479497Y-119962624D01*
X149529691Y-119957475D01*
X149589861Y-119936397D01*
X149653873Y-119880728D01*
X149656909Y-119877173D01*
X149704938Y-119794849D01*
X149704042Y-119715952D01*
X149653753Y-119634702D01*
X149635673Y-119615595D01*
X149577100Y-119550944D01*
X149526806Y-119487700D01*
X149483893Y-119441802D01*
X149430871Y-119421830D01*
X149363188Y-119418330D01*
X149272915Y-119421921D01*
X149190041Y-119429943D01*
X149174340Y-119432374D01*
X149107285Y-119442513D01*
X149013330Y-119454846D01*
X148939155Y-119463673D01*
X148856924Y-119476354D01*
X148799508Y-119491675D01*
X148780246Y-119504940D01*
X148763822Y-119515317D01*
X148749147Y-119509023D01*
X148710020Y-119500595D01*
X148635168Y-119495958D01*
X148539629Y-119495952D01*
X148523660Y-119496429D01*
X148419457Y-119497788D01*
X148355989Y-119492169D01*
X148323440Y-119478104D01*
X148314728Y-119465157D01*
X148319501Y-119419019D01*
X148336812Y-119396861D01*
X148368314Y-119352664D01*
X148373439Y-119329725D01*
X148390794Y-119304338D01*
X148420538Y-119307935D01*
X148458790Y-119303508D01*
X148517282Y-119268897D01*
X148601399Y-119200604D01*
X148643010Y-119163453D01*
X148780491Y-119036132D01*
X148904442Y-118916853D01*
X149010300Y-118810386D01*
X149093500Y-118721503D01*
X149149480Y-118654975D01*
X149173675Y-118615574D01*
X149173595Y-118608722D01*
X149169819Y-118586243D01*
X149195917Y-118589874D01*
X149240191Y-118616446D01*
X149259439Y-118631978D01*
X149299535Y-118675998D01*
X149314180Y-118708255D01*
X149331632Y-118735595D01*
X149339605Y-118737054D01*
X149364022Y-118756625D01*
X149365031Y-118764176D01*
X149381909Y-118806334D01*
X149426540Y-118872151D01*
X149489915Y-118950149D01*
X149563026Y-119028851D01*
X149602670Y-119066950D01*
X149657042Y-119124164D01*
X149729908Y-119210977D01*
X149811163Y-119314940D01*
X149880394Y-119409062D01*
X149963909Y-119523561D01*
X150050359Y-119637574D01*
X150128349Y-119736300D01*
X150176689Y-119793980D01*
X150314962Y-119965388D01*
X150459376Y-120169639D01*
X150599510Y-120391495D01*
X150674660Y-120522125D01*
X150735012Y-120626507D01*
X150794647Y-120721843D01*
X150844404Y-120793799D01*
X150862976Y-120816820D01*
X150909630Y-120871473D01*
X150975089Y-120951441D01*
X151047138Y-121041744D01*
X151066003Y-121065784D01*
X151148344Y-121163415D01*
X151239728Y-121259942D01*
X151322264Y-121336630D01*
X151332970Y-121345419D01*
X151404714Y-121394829D01*
X151511705Y-121458452D01*
X151642490Y-121530373D01*
X151785617Y-121604678D01*
X151929635Y-121675453D01*
X152063092Y-121736785D01*
X152174534Y-121782760D01*
X152192935Y-121789507D01*
X152276952Y-121828347D01*
X152353402Y-121877209D01*
X152358201Y-121881044D01*
X152426448Y-121916867D01*
X152515905Y-121938151D01*
X152610994Y-121944425D01*
X152696139Y-121935215D01*
X152755763Y-121910050D01*
X152770040Y-121893540D01*
X152781071Y-121843715D01*
X152784532Y-121762213D01*
X152781402Y-121666106D01*
X152772660Y-121572465D01*
X152759287Y-121498361D01*
X152745379Y-121463931D01*
X152734882Y-121438506D01*
X152722011Y-121399556D01*
X152715437Y-121381298D01*
X152698748Y-121335240D01*
X152672946Y-121263228D01*
X152660656Y-121228746D01*
X152627233Y-121156623D01*
X152576747Y-121093342D01*
X152497256Y-121025105D01*
X152460807Y-120997817D01*
X152350677Y-120924084D01*
X152223738Y-120849098D01*
X152123689Y-120797091D01*
X151856675Y-120661834D01*
X151623689Y-120525410D01*
X151429459Y-120390915D01*
X151278712Y-120261446D01*
X151234073Y-120214503D01*
X151177264Y-120151174D01*
X151102350Y-120068508D01*
X151026712Y-119985674D01*
X150945424Y-119894397D01*
X150851340Y-119784817D01*
X150763052Y-119678636D01*
X150752055Y-119665082D01*
X150680734Y-119580645D01*
X150580819Y-119467672D01*
X150459434Y-119333821D01*
X150323705Y-119186750D01*
X150180757Y-119034117D01*
X150037715Y-118883579D01*
X149901703Y-118742795D01*
X149779846Y-118619422D01*
X149770621Y-118610233D01*
X149673957Y-118514056D01*
X149609179Y-118445668D01*
X149573047Y-118396092D01*
X149562318Y-118356350D01*
X149573753Y-118317462D01*
X149604111Y-118270452D01*
X149633376Y-118230006D01*
X149684785Y-118154352D01*
X149710394Y-118098905D01*
X149716139Y-118044138D01*
X149709342Y-117980070D01*
X149668503Y-117778779D01*
X149606503Y-117613302D01*
X149517968Y-117471116D01*
X149463014Y-117405872D01*
X149416524Y-117373814D01*
X149384569Y-117387547D01*
X149373382Y-117442691D01*
X149375117Y-117467603D01*
X149371832Y-117527043D01*
X149344220Y-117589083D01*
X149286880Y-117661712D01*
X149194415Y-117752922D01*
X149162997Y-117781527D01*
X149105622Y-117834807D01*
X149021180Y-117915357D01*
X148918617Y-118014543D01*
X148806877Y-118123733D01*
X148732771Y-118196764D01*
X148629014Y-118298186D01*
X148537065Y-118385795D01*
X148463207Y-118453786D01*
X148413721Y-118496356D01*
X148395657Y-118508225D01*
X148374181Y-118527776D01*
X148373439Y-118534498D01*
X148357008Y-118565611D01*
X148316235Y-118614982D01*
X148263896Y-118669617D01*
X148212768Y-118716517D01*
X148175629Y-118742687D01*
X148167146Y-118744331D01*
X148143249Y-118758978D01*
X148092699Y-118802803D01*
X148023955Y-118868201D01*
X147975749Y-118916407D01*
X147883141Y-119005522D01*
X147786026Y-119090622D01*
X147700687Y-119157697D01*
X147674240Y-119175862D01*
X147598151Y-119227683D01*
X147535725Y-119275079D01*
X147508975Y-119299187D01*
X147469955Y-119333002D01*
X147401947Y-119384280D01*
X147318607Y-119442788D01*
X147305571Y-119451594D01*
X147208896Y-119518706D01*
X147113826Y-119588256D01*
X147040821Y-119645270D01*
X147040384Y-119645633D01*
X146979999Y-119693058D01*
X146935395Y-119723107D01*
X146922178Y-119728646D01*
X146893425Y-119741873D01*
X146835161Y-119776640D01*
X146759707Y-119825574D01*
X146755695Y-119828267D01*
X146679784Y-119875955D01*
X146619989Y-119907368D01*
X146588592Y-119916102D01*
X146587865Y-119915755D01*
X146568805Y-119921066D01*
X146568234Y-119926084D01*
X146547951Y-119945236D01*
X146496317Y-119976376D01*
X146427157Y-120012731D01*
X146354295Y-120047529D01*
X146291554Y-120074000D01*
X146252757Y-120085370D01*
X146246729Y-120083580D01*
X146227634Y-120088669D01*
X146195878Y-120112117D01*
X146115535Y-120163346D01*
X145997822Y-120216402D01*
X145855841Y-120266932D01*
X145702697Y-120310583D01*
X145551494Y-120343004D01*
X145462228Y-120355802D01*
X145379716Y-120370773D01*
X145314392Y-120393085D01*
X145294961Y-120405101D01*
X145250185Y-120434284D01*
X145227761Y-120440558D01*
X145194929Y-120460308D01*
X145185733Y-120502831D01*
X144057962Y-120502831D01*
X144038676Y-120425724D01*
X143867392Y-119943968D01*
X143651778Y-119481550D01*
X143394250Y-119041648D01*
X143097226Y-118627439D01*
X142763124Y-118242101D01*
X142394360Y-117888811D01*
X141993352Y-117570748D01*
X141562517Y-117291088D01*
X141284908Y-117140111D01*
X141160598Y-117078483D01*
X141040657Y-117021222D01*
X140938563Y-116974632D01*
X140867797Y-116945012D01*
X140866582Y-116944556D01*
X140745811Y-116899515D01*
X140745811Y-115195803D01*
X148451156Y-115195803D01*
X148464943Y-115306885D01*
X148502629Y-115397284D01*
X148642661Y-115624894D01*
X148782543Y-115809804D01*
X148833824Y-115866641D01*
X148899561Y-115926765D01*
X148972159Y-115972580D01*
X149058105Y-116004990D01*
X149163883Y-116024899D01*
X149295982Y-116033211D01*
X149460886Y-116030829D01*
X149665083Y-116018658D01*
X149829045Y-116005307D01*
X149899270Y-116002542D01*
X149942825Y-116007314D01*
X149949815Y-116012708D01*
X149927082Y-116047453D01*
X149858920Y-116104878D01*
X149771837Y-116167035D01*
X149709800Y-116212094D01*
X149664671Y-116249606D01*
X149657423Y-116257020D01*
X149623285Y-116286859D01*
X149562199Y-116332882D01*
X149511227Y-116368714D01*
X149446076Y-116414944D01*
X149402227Y-116449366D01*
X149390456Y-116462071D01*
X149410355Y-116461869D01*
X149457249Y-116447288D01*
X149511938Y-116425198D01*
X149553028Y-116403897D01*
X149587847Y-116385602D01*
X149593859Y-116383777D01*
X149637350Y-116367815D01*
X149705103Y-116335099D01*
X149777994Y-116295396D01*
X149830312Y-116263037D01*
X149895282Y-116232778D01*
X149952281Y-116227953D01*
X149952871Y-116228103D01*
X150007107Y-116224411D01*
X150076447Y-116198306D01*
X150092023Y-116189746D01*
X150185257Y-116152701D01*
X150248687Y-116151122D01*
X150324463Y-116149346D01*
X150381591Y-116131257D01*
X150440320Y-116112469D01*
X150535045Y-116094247D01*
X150650929Y-116078417D01*
X150773133Y-116066801D01*
X150886818Y-116061225D01*
X150947822Y-116061651D01*
X151031062Y-116072752D01*
X151129648Y-116096728D01*
X151224306Y-116127756D01*
X151295763Y-116160014D01*
X151313868Y-116172234D01*
X151363157Y-116184705D01*
X151434681Y-116173212D01*
X151509655Y-116143847D01*
X151569297Y-116102705D01*
X151584591Y-116084410D01*
X151627176Y-115974380D01*
X151626437Y-115845434D01*
X151583273Y-115703759D01*
X151510154Y-115572344D01*
X151464331Y-115499512D01*
X151433246Y-115440940D01*
X151424490Y-115414473D01*
X151408716Y-115361925D01*
X151369838Y-115292388D01*
X151320523Y-115225017D01*
X151273438Y-115178964D01*
X151265495Y-115174046D01*
X151173579Y-115135832D01*
X151050780Y-115099207D01*
X150915387Y-115068206D01*
X150785688Y-115046861D01*
X150679973Y-115039206D01*
X150657795Y-115040019D01*
X150600682Y-115043438D01*
X150505332Y-115048358D01*
X150384313Y-115054160D01*
X150250194Y-115060224D01*
X150229495Y-115061127D01*
X150077620Y-115068133D01*
X149920582Y-115076064D01*
X149777286Y-115083928D01*
X149670136Y-115090496D01*
X149478412Y-115101274D01*
X149286059Y-115108385D01*
X149101172Y-115111864D01*
X148931847Y-115111747D01*
X148786179Y-115108071D01*
X148672263Y-115100870D01*
X148598195Y-115090181D01*
X148583362Y-115085693D01*
X148525797Y-115066823D01*
X148495000Y-115073040D01*
X148475304Y-115100913D01*
X148451156Y-115195803D01*
X140745811Y-115195803D01*
X140745811Y-114765175D01*
X140803019Y-114779479D01*
X141043079Y-114822267D01*
X141308366Y-114840130D01*
X141579839Y-114833175D01*
X141838461Y-114801508D01*
X141970692Y-114772991D01*
X142310904Y-114660323D01*
X142627275Y-114504201D01*
X142916283Y-114307134D01*
X143174408Y-114071627D01*
X143398128Y-113800187D01*
X143455579Y-113715858D01*
X143544480Y-113567145D01*
X143628428Y-113404313D01*
X143701031Y-113241568D01*
X143755900Y-113093115D01*
X143784696Y-112984226D01*
X143799003Y-112923320D01*
X143812243Y-112890856D01*
X143814836Y-112889206D01*
X143841703Y-112902512D01*
X143891622Y-112935179D01*
X143900688Y-112941569D01*
X143959688Y-112977726D01*
X144047627Y-113024885D01*
X144146861Y-113073647D01*
X144160577Y-113080033D01*
X144487008Y-113203653D01*
X144822841Y-113279262D01*
X145163089Y-113307617D01*
X145502764Y-113289480D01*
X145836880Y-113225611D01*
X146160448Y-113116769D01*
X146468483Y-112963715D01*
X146755997Y-112767208D01*
X146859889Y-112679620D01*
X147298530Y-112679620D01*
X147321996Y-112723580D01*
X147336261Y-112744046D01*
X147375779Y-112821055D01*
X147395813Y-112901622D01*
X147396231Y-112908650D01*
X147422201Y-112989677D01*
X147485538Y-113054996D01*
X147573365Y-113096742D01*
X147672805Y-113107049D01*
X147711197Y-113101030D01*
X147774256Y-113080652D01*
X147857303Y-113046924D01*
X147946247Y-113006493D01*
X148026997Y-112966008D01*
X148055802Y-112949310D01*
X148477833Y-112949310D01*
X148499514Y-113024212D01*
X148525629Y-113066676D01*
X148559983Y-113133510D01*
X148590908Y-113224263D01*
X148602734Y-113274004D01*
X148629195Y-113396208D01*
X148656118Y-113497426D01*
X148680701Y-113568502D01*
X148700137Y-113600278D01*
X148702931Y-113601118D01*
X148721347Y-113622466D01*
X148745748Y-113675027D01*
X148750210Y-113686931D01*
X148800098Y-113780144D01*
X148873180Y-113862224D01*
X148959926Y-113928158D01*
X149050805Y-113972934D01*
X149136288Y-113991539D01*
X149206846Y-113978960D01*
X149243871Y-113946592D01*
X149258271Y-113901563D01*
X149262940Y-113851764D01*
X149269186Y-113781723D01*
X149285343Y-113679514D01*
X149308394Y-113559180D01*
X149335322Y-113434762D01*
X149363110Y-113320301D01*
X149388741Y-113229838D01*
X149406930Y-113181599D01*
X149438335Y-113107209D01*
X149457392Y-113041759D01*
X149475960Y-112978244D01*
X149507537Y-112898540D01*
X149517637Y-112876494D01*
X149553513Y-112789674D01*
X149581003Y-112702098D01*
X149597327Y-112626203D01*
X149599706Y-112574429D01*
X149588685Y-112558676D01*
X149561929Y-112575070D01*
X149508499Y-112618440D01*
X149437940Y-112680071D01*
X149359795Y-112751244D01*
X149283609Y-112823242D01*
X149218927Y-112887349D01*
X149175292Y-112934847D01*
X149171108Y-112940057D01*
X149071851Y-113053302D01*
X148981152Y-113126892D01*
X148933674Y-113153475D01*
X148903450Y-113147599D01*
X148867776Y-113104547D01*
X148866737Y-113103117D01*
X148799415Y-113012809D01*
X148750038Y-112954946D01*
X148708218Y-112919750D01*
X148663565Y-112897441D01*
X148639024Y-112888750D01*
X148551681Y-112875156D01*
X148496586Y-112897483D01*
X148477833Y-112949310D01*
X148055802Y-112949310D01*
X148085464Y-112932116D01*
X148106549Y-112914507D01*
X148137998Y-112900172D01*
X148147969Y-112903995D01*
X148184505Y-112901591D01*
X148216132Y-112881578D01*
X148277984Y-112840993D01*
X148379261Y-112791247D01*
X148510382Y-112736749D01*
X148614981Y-112698068D01*
X148692056Y-112668896D01*
X148750110Y-112643335D01*
X148768323Y-112632886D01*
X148812337Y-112611915D01*
X148857312Y-112598939D01*
X148907596Y-112584717D01*
X148991903Y-112557499D01*
X149096518Y-112521801D01*
X149164329Y-112497834D01*
X149276142Y-112458951D01*
X149377593Y-112425767D01*
X149454281Y-112402894D01*
X149482147Y-112396089D01*
X149551634Y-112381906D01*
X149642257Y-112362513D01*
X149682848Y-112353581D01*
X149856195Y-112317878D01*
X149982709Y-112298312D01*
X150013379Y-112295431D01*
X150035232Y-112296847D01*
X150049807Y-112310560D01*
X150058644Y-112345061D01*
X150063284Y-112408838D01*
X150065268Y-112510380D01*
X150065778Y-112584101D01*
X150070796Y-112758941D01*
X150084629Y-112895484D01*
X150108588Y-113005728D01*
X150113693Y-113022498D01*
X150167884Y-113150423D01*
X150236030Y-113245738D01*
X150312439Y-113303852D01*
X150391422Y-113320177D01*
X150455624Y-113298220D01*
X150488157Y-113257520D01*
X150521266Y-113186163D01*
X150547528Y-113103706D01*
X150559518Y-113029710D01*
X150559643Y-113024190D01*
X150569880Y-112973217D01*
X150584341Y-112953456D01*
X150598131Y-112920396D01*
X150594209Y-112900781D01*
X150595076Y-112849070D01*
X150604266Y-112831675D01*
X150626336Y-112787300D01*
X150656946Y-112704218D01*
X150692793Y-112593177D01*
X150730577Y-112464924D01*
X150766997Y-112330205D01*
X150798749Y-112199767D01*
X150799769Y-112195263D01*
X150837856Y-112128414D01*
X150905552Y-112093491D01*
X150973878Y-112095494D01*
X151029128Y-112129511D01*
X151070299Y-112187557D01*
X151085169Y-112249289D01*
X151080202Y-112272443D01*
X151068719Y-112299809D01*
X151059881Y-112326569D01*
X151050557Y-112365683D01*
X151037618Y-112430109D01*
X151020276Y-112520538D01*
X151006106Y-112590263D01*
X150989177Y-112662868D01*
X150967031Y-112747294D01*
X150937208Y-112852483D01*
X150897246Y-112987377D01*
X150844686Y-113160918D01*
X150838574Y-113180966D01*
X150813346Y-113276283D01*
X150792624Y-113377786D01*
X150777570Y-113475324D01*
X150769342Y-113558741D01*
X150769100Y-113617887D01*
X150778004Y-113642608D01*
X150786280Y-113638852D01*
X150810604Y-113604125D01*
X150848802Y-113539360D01*
X150884395Y-113473991D01*
X150946965Y-113357816D01*
X150992358Y-113281173D01*
X151024957Y-113237540D01*
X151049149Y-113220397D01*
X151055581Y-113219442D01*
X151083068Y-113202234D01*
X151137174Y-113155966D01*
X151209323Y-113088283D01*
X151269393Y-113028802D01*
X151366420Y-112934852D01*
X151434418Y-112879086D01*
X151475760Y-112859691D01*
X151486798Y-112862739D01*
X151507921Y-112892996D01*
X151546814Y-112960356D01*
X151598802Y-113056294D01*
X151659210Y-113172282D01*
X151692408Y-113237713D01*
X151754284Y-113359511D01*
X151808868Y-113464619D01*
X151851836Y-113544888D01*
X151878861Y-113592168D01*
X151885309Y-113601118D01*
X151903982Y-113629674D01*
X151930338Y-113684125D01*
X151956307Y-113745623D01*
X151973816Y-113795317D01*
X151976389Y-113813788D01*
X151985744Y-113837338D01*
X152001412Y-113858611D01*
X152030370Y-113912152D01*
X152044326Y-113957864D01*
X152096985Y-114120930D01*
X152180852Y-114254608D01*
X152200145Y-114275977D01*
X152291943Y-114355317D01*
X152369580Y-114386800D01*
X152434653Y-114370920D01*
X152454571Y-114354450D01*
X152492330Y-114304898D01*
X152538075Y-114228873D01*
X152583752Y-114142072D01*
X152621308Y-114060194D01*
X152642689Y-113998936D01*
X152644910Y-113983427D01*
X152655118Y-113936084D01*
X152667052Y-113920966D01*
X152689647Y-113883283D01*
X152711254Y-113804044D01*
X152729649Y-113692528D01*
X152736671Y-113630411D01*
X152749861Y-113532253D01*
X152769123Y-113426095D01*
X152774442Y-113401582D01*
X152834825Y-113074702D01*
X152862730Y-112800217D01*
X152873598Y-112663123D01*
X152887414Y-112524600D01*
X152902826Y-112395094D01*
X152918479Y-112285052D01*
X152933020Y-112204922D01*
X152945000Y-112165300D01*
X152960354Y-112121131D01*
X152968248Y-112075593D01*
X152976082Y-112009801D01*
X152989245Y-111906869D01*
X153005981Y-111780012D01*
X153024537Y-111642445D01*
X153043157Y-111507384D01*
X153052647Y-111439957D01*
X153068307Y-111317486D01*
X153082963Y-111183002D01*
X153089741Y-111109427D01*
X153104355Y-110936550D01*
X153116846Y-110802313D01*
X153128714Y-110694636D01*
X153141457Y-110601436D01*
X153156574Y-110510633D01*
X153175563Y-110410145D01*
X153178044Y-110397515D01*
X153201997Y-110263571D01*
X153223629Y-110120936D01*
X153239170Y-109995081D01*
X153242006Y-109965282D01*
X153263825Y-109771646D01*
X153296263Y-109561693D01*
X153336194Y-109351656D01*
X153380495Y-109157765D01*
X153426040Y-108996254D01*
X153432105Y-108977840D01*
X153469450Y-108859087D01*
X153487502Y-108775594D01*
X153486897Y-108715837D01*
X153468268Y-108668294D01*
X153450558Y-108643160D01*
X153402868Y-108594976D01*
X153333464Y-108538332D01*
X153256288Y-108483037D01*
X153185283Y-108438899D01*
X153134389Y-108415729D01*
X153125322Y-108414331D01*
X153079064Y-108402615D01*
X153065587Y-108390778D01*
X153034759Y-108380526D01*
X152967554Y-108375921D01*
X152878228Y-108377901D01*
X152873904Y-108378161D01*
X152655460Y-108417000D01*
X152445045Y-108505939D01*
X152316501Y-108587850D01*
X152208133Y-108666352D01*
X152272557Y-108730776D01*
X152326673Y-108772092D01*
X152379781Y-108777545D01*
X152444342Y-108745715D01*
X152497380Y-108705161D01*
X152551485Y-108672021D01*
X152626362Y-108649491D01*
X152735373Y-108633909D01*
X152769081Y-108630709D01*
X152868095Y-108624409D01*
X152948733Y-108623806D01*
X152996644Y-108628886D01*
X153001689Y-108630956D01*
X153019399Y-108667325D01*
X153017605Y-108716091D01*
X152988848Y-108859507D01*
X152959865Y-109006953D01*
X152932925Y-109146602D01*
X152910296Y-109266625D01*
X152894249Y-109355193D01*
X152889023Y-109386383D01*
X152873364Y-109476025D01*
X152854009Y-109574151D01*
X152850678Y-109589786D01*
X152835123Y-109677019D01*
X152820117Y-109785865D01*
X152812318Y-109857744D01*
X152799966Y-109964503D01*
X152784019Y-110069452D01*
X152773220Y-110125273D01*
X152757003Y-110213878D01*
X152741976Y-110322485D01*
X152735315Y-110385365D01*
X152725638Y-110479599D01*
X152715139Y-110562036D01*
X152708725Y-110600918D01*
X152694018Y-110682044D01*
X152677365Y-110785987D01*
X152663104Y-110885106D01*
X152658860Y-110918736D01*
X152640569Y-111059247D01*
X152623552Y-111154873D01*
X152606356Y-111211508D01*
X152587528Y-111235044D01*
X152580462Y-111236554D01*
X152538190Y-111220042D01*
X152530496Y-111211128D01*
X152495326Y-111191196D01*
X152454799Y-111185703D01*
X152376296Y-111179412D01*
X152340537Y-111155462D01*
X152340418Y-111106236D01*
X152350185Y-111073556D01*
X152385462Y-110996382D01*
X152434826Y-110915345D01*
X152443518Y-110903322D01*
X152533835Y-110771027D01*
X152602055Y-110647652D01*
X152644103Y-110541938D01*
X152655902Y-110462621D01*
X152654389Y-110451262D01*
X152620547Y-110361586D01*
X152557193Y-110301367D01*
X152458191Y-110266858D01*
X152332580Y-110254655D01*
X152211571Y-110256610D01*
X152133499Y-110270162D01*
X152110977Y-110281914D01*
X152070438Y-110305563D01*
X152014999Y-110326938D01*
X151963429Y-110340263D01*
X151934497Y-110339765D01*
X151932999Y-110336672D01*
X151937450Y-110308286D01*
X151949267Y-110242688D01*
X151966145Y-110152587D01*
X151971132Y-110126428D01*
X151995661Y-109985854D01*
X152006658Y-109886376D01*
X152004244Y-109820107D01*
X151988542Y-109779159D01*
X151976657Y-109766460D01*
X151952004Y-109723616D01*
X151937832Y-109657861D01*
X151937707Y-109656288D01*
X151920500Y-109585929D01*
X151888093Y-109543218D01*
X151850549Y-109534507D01*
X151817928Y-109566150D01*
X151813005Y-109577545D01*
X151782354Y-109629844D01*
X151765630Y-109647465D01*
X151748016Y-109682375D01*
X151726148Y-109755003D01*
X151703514Y-109852811D01*
X151692320Y-109911016D01*
X151669708Y-110025479D01*
X151645381Y-110129680D01*
X151623306Y-110207259D01*
X151615288Y-110228834D01*
X151587516Y-110303832D01*
X151558917Y-110396836D01*
X151550155Y-110429580D01*
X151532535Y-110490563D01*
X151509831Y-110533218D01*
X151471144Y-110568220D01*
X151405576Y-110606243D01*
X151331955Y-110643286D01*
X151240934Y-110690630D01*
X151166373Y-110733740D01*
X151121357Y-110764926D01*
X151116109Y-110770130D01*
X151075442Y-110800052D01*
X151057140Y-110804321D01*
X151020220Y-110821444D01*
X150971372Y-110863143D01*
X150966832Y-110867885D01*
X150916954Y-110911265D01*
X150875934Y-110931291D01*
X150873411Y-110931449D01*
X150850450Y-110910197D01*
X150840061Y-110860726D01*
X150843807Y-110804462D01*
X150861263Y-110764912D01*
X150875675Y-110729523D01*
X150893954Y-110658215D01*
X150912492Y-110565367D01*
X150915141Y-110550067D01*
X150933537Y-110452246D01*
X150952122Y-110370860D01*
X150967208Y-110321844D01*
X150968650Y-110318815D01*
X150993589Y-110251573D01*
X151015993Y-110159082D01*
X151028441Y-110078413D01*
X151039704Y-110023845D01*
X151048710Y-110002137D01*
X151060752Y-109964482D01*
X151074846Y-109895467D01*
X151081978Y-109850868D01*
X151096201Y-109772368D01*
X151111881Y-109714402D01*
X151119385Y-109698315D01*
X151133832Y-109659822D01*
X151149396Y-109590179D01*
X151156695Y-109545763D01*
X151172122Y-109465885D01*
X151190830Y-109405344D01*
X151200230Y-109387968D01*
X151213993Y-109346582D01*
X151209524Y-109331507D01*
X151208608Y-109286217D01*
X151239370Y-109222333D01*
X151292138Y-109150863D01*
X151357239Y-109082809D01*
X151425002Y-109029179D01*
X151485756Y-109000976D01*
X151501651Y-108999116D01*
X151542557Y-108990981D01*
X151551690Y-108980047D01*
X151570895Y-108954793D01*
X151618067Y-108917247D01*
X151628549Y-108910127D01*
X151699482Y-108836532D01*
X151735199Y-108760604D01*
X151751678Y-108694762D01*
X151746017Y-108655195D01*
X151713757Y-108620497D01*
X151704408Y-108612815D01*
X151633542Y-108570827D01*
X151570074Y-108548964D01*
X151512766Y-108527623D01*
X151483148Y-108499705D01*
X151450527Y-108473857D01*
X151402701Y-108465100D01*
X151377229Y-108463986D01*
X151356878Y-108456243D01*
X151338861Y-108435160D01*
X151320394Y-108394028D01*
X151298693Y-108326136D01*
X151270972Y-108224774D01*
X151234446Y-108083231D01*
X151218848Y-108022098D01*
X151174887Y-107921347D01*
X151106452Y-107846123D01*
X151024606Y-107807186D01*
X150994699Y-107804121D01*
X150956347Y-107806349D01*
X150934799Y-107820723D01*
X150924865Y-107858777D01*
X150921358Y-107932048D01*
X150920679Y-107968711D01*
X150913968Y-108092159D01*
X150899070Y-108226128D01*
X150877951Y-108361450D01*
X150852579Y-108488956D01*
X150824919Y-108599481D01*
X150796940Y-108683856D01*
X150770606Y-108732915D01*
X150754898Y-108741467D01*
X150706294Y-108746699D01*
X150687153Y-108753269D01*
X150629130Y-108771082D01*
X150598164Y-108777083D01*
X150542050Y-108791471D01*
X150519748Y-108801699D01*
X150476008Y-108818386D01*
X150416605Y-108832242D01*
X150338814Y-108853723D01*
X150260160Y-108885899D01*
X150190626Y-108911786D01*
X150149589Y-108900708D01*
X150130891Y-108848021D01*
X150127793Y-108786029D01*
X150112800Y-108655144D01*
X150071939Y-108532722D01*
X150011384Y-108428614D01*
X149937312Y-108352668D01*
X149855899Y-108314737D01*
X149830741Y-108312240D01*
X149769367Y-108299060D01*
X149747265Y-108288269D01*
X149700405Y-108280471D01*
X149665240Y-108306095D01*
X149660979Y-108350813D01*
X149661505Y-108352238D01*
X149686191Y-108391689D01*
X149732624Y-108449827D01*
X149757056Y-108477410D01*
X149800967Y-108529347D01*
X149824983Y-108575685D01*
X149834428Y-108634421D01*
X149834625Y-108723553D01*
X149834246Y-108738409D01*
X149827601Y-108871217D01*
X149813466Y-108963344D01*
X149787991Y-109024830D01*
X149747327Y-109065715D01*
X149698934Y-109091345D01*
X149633336Y-109118258D01*
X149587021Y-109135155D01*
X149581147Y-109136795D01*
X149543481Y-109149918D01*
X149479715Y-109175713D01*
X149454767Y-109186358D01*
X149297054Y-109244488D01*
X149170774Y-109269273D01*
X149078719Y-109260209D01*
X149068214Y-109255981D01*
X148987017Y-109234232D01*
X148932607Y-109255345D01*
X148904854Y-109319506D01*
X148903627Y-109426901D01*
X148910449Y-109481456D01*
X148937722Y-109545188D01*
X148995753Y-109624046D01*
X149072756Y-109705302D01*
X149156946Y-109776226D01*
X149220704Y-109816539D01*
X149316485Y-109849886D01*
X149428013Y-109865793D01*
X149534561Y-109862995D01*
X149614766Y-109840574D01*
X149670387Y-109815976D01*
X149702021Y-109820525D01*
X149714362Y-109860663D01*
X149712102Y-109942830D01*
X149709782Y-109970973D01*
X149697556Y-110086487D01*
X149681535Y-110208380D01*
X149671981Y-110269722D01*
X149652726Y-110387797D01*
X149632218Y-110521528D01*
X149612478Y-110656835D01*
X149595523Y-110779636D01*
X149583373Y-110875853D01*
X149578901Y-110918736D01*
X149564088Y-111080039D01*
X149549623Y-111200249D01*
X149533751Y-111289081D01*
X149514718Y-111356249D01*
X149490770Y-111411469D01*
X149489489Y-111413943D01*
X149460770Y-111479664D01*
X149449745Y-111527579D01*
X149451730Y-111537954D01*
X149442115Y-111566747D01*
X149400344Y-111616776D01*
X149335263Y-111679197D01*
X149255714Y-111745167D01*
X149212250Y-111777451D01*
X149148914Y-111822552D01*
X149237903Y-111806297D01*
X149304816Y-111790275D01*
X149349724Y-111772799D01*
X149352318Y-111771058D01*
X149394210Y-111751628D01*
X149451472Y-111734415D01*
X149501017Y-111729327D01*
X149546181Y-111746313D01*
X149603061Y-111792719D01*
X149624884Y-111813542D01*
X149724566Y-111910327D01*
X149773627Y-111850304D01*
X149809656Y-111788926D01*
X149823035Y-111735889D01*
X149828984Y-111659113D01*
X149852167Y-111606426D01*
X149902357Y-111567490D01*
X149989326Y-111531968D01*
X150027901Y-111519189D01*
X150113569Y-111488554D01*
X150176228Y-111460345D01*
X150203713Y-111440134D01*
X150204070Y-111438491D01*
X150224685Y-111417228D01*
X150242208Y-111414532D01*
X150276066Y-111402378D01*
X150280346Y-111392072D01*
X150301450Y-111368143D01*
X150329555Y-111356743D01*
X150376572Y-111364146D01*
X150400013Y-111402212D01*
X150390207Y-111447324D01*
X150373895Y-111495170D01*
X150369238Y-111527662D01*
X150363527Y-111582837D01*
X150352981Y-111664551D01*
X150346444Y-111710503D01*
X150334162Y-111776880D01*
X150314222Y-111821449D01*
X150276966Y-111850075D01*
X150212735Y-111868627D01*
X150111871Y-111882971D01*
X150051517Y-111889664D01*
X149954262Y-111904698D01*
X149846151Y-111927790D01*
X149809976Y-111937158D01*
X149715401Y-111961183D01*
X149624539Y-111980920D01*
X149593859Y-111986400D01*
X149512353Y-112003519D01*
X149441325Y-112024925D01*
X149441307Y-112024932D01*
X149395682Y-112040341D01*
X149311214Y-112066916D01*
X149197881Y-112101589D01*
X149065657Y-112141296D01*
X148983649Y-112165599D01*
X148828446Y-112211973D01*
X148670418Y-112260248D01*
X148524882Y-112305674D01*
X148407159Y-112343505D01*
X148373439Y-112354721D01*
X148215128Y-112406727D01*
X148096693Y-112442193D01*
X148010700Y-112463225D01*
X147963733Y-112470717D01*
X147909169Y-112485304D01*
X147893909Y-112492916D01*
X147868062Y-112505559D01*
X147826613Y-112518201D01*
X147756670Y-112534333D01*
X147687742Y-112548773D01*
X147627547Y-112568029D01*
X147596038Y-112585700D01*
X147555005Y-112602684D01*
X147483827Y-112618456D01*
X147443529Y-112624244D01*
X147352949Y-112637041D01*
X147306731Y-112653137D01*
X147298530Y-112679620D01*
X146859889Y-112679620D01*
X146875741Y-112666256D01*
X147082150Y-112451796D01*
X147269719Y-112199417D01*
X147431222Y-111920707D01*
X147559434Y-111627253D01*
X147601753Y-111501954D01*
X147627481Y-111414777D01*
X147646040Y-111338908D01*
X147658613Y-111263118D01*
X147666384Y-111176178D01*
X147670535Y-111066857D01*
X147672250Y-110923928D01*
X147672578Y-110829747D01*
X147669660Y-110606783D01*
X147657919Y-110421008D01*
X147634395Y-110259098D01*
X147596128Y-110107730D01*
X147540159Y-109953580D01*
X147463528Y-109783325D01*
X147420888Y-109696655D01*
X147289027Y-109433604D01*
X147468920Y-109379457D01*
X147786683Y-109257778D01*
X148087689Y-109090592D01*
X148364808Y-108882325D01*
X148540932Y-108714282D01*
X148673801Y-108568191D01*
X148778568Y-108436043D01*
X148867177Y-108300447D01*
X148951574Y-108144010D01*
X148997033Y-108050194D01*
X149125680Y-107719385D01*
X149205153Y-107378561D01*
X149235193Y-107031617D01*
X149215538Y-106682444D01*
X149145928Y-106334938D01*
X149118269Y-106241059D01*
X149075025Y-106128755D01*
X150153642Y-106128755D01*
X150177075Y-106238088D01*
X150192342Y-106272932D01*
X150223460Y-106352798D01*
X150241117Y-106427612D01*
X150279379Y-106540671D01*
X150357014Y-106638995D01*
X150462818Y-106713148D01*
X150585588Y-106753690D01*
X150633651Y-106758301D01*
X150710476Y-106766556D01*
X150768379Y-106783258D01*
X150779847Y-106790180D01*
X150808591Y-106806742D01*
X150814280Y-106802589D01*
X150834647Y-106800490D01*
X150884855Y-106816052D01*
X150896912Y-106820911D01*
X150979857Y-106849054D01*
X151072153Y-106871771D01*
X151081247Y-106873459D01*
X151180369Y-106891983D01*
X151236707Y-106906965D01*
X151257665Y-106923026D01*
X151250651Y-106944790D01*
X151231715Y-106967385D01*
X151185804Y-107004562D01*
X151153582Y-107015933D01*
X151122358Y-107031019D01*
X151119385Y-107041359D01*
X151099220Y-107064822D01*
X151086643Y-107066784D01*
X151049104Y-107082552D01*
X150992403Y-107122358D01*
X150965872Y-107144598D01*
X150877843Y-107222412D01*
X150954120Y-107206061D01*
X151033127Y-107191829D01*
X151093960Y-107184000D01*
X151152479Y-107173073D01*
X151237616Y-107150772D01*
X151306403Y-107129760D01*
X151389112Y-107104040D01*
X151437541Y-107094724D01*
X151465420Y-107101461D01*
X151486481Y-107123902D01*
X151487393Y-107125145D01*
X151512956Y-107148801D01*
X151553293Y-107158870D01*
X151622020Y-107157191D01*
X151681757Y-107151397D01*
X151775190Y-107142664D01*
X151854068Y-107137814D01*
X151894860Y-107137665D01*
X151941856Y-107140507D01*
X152025310Y-107144839D01*
X152130877Y-107149932D01*
X152187253Y-107152527D01*
X152291907Y-107157482D01*
X152375130Y-107161835D01*
X152425505Y-107164968D01*
X152435151Y-107165972D01*
X152460576Y-107172981D01*
X152493547Y-107182636D01*
X152558883Y-107202904D01*
X152619485Y-107222090D01*
X152705273Y-107244419D01*
X152778007Y-107254645D01*
X152810176Y-107252858D01*
X152880956Y-107240793D01*
X152913780Y-107238920D01*
X152964253Y-107215731D01*
X153001130Y-107152649D01*
X153023181Y-107059108D01*
X153029173Y-106944541D01*
X153017875Y-106818380D01*
X152988056Y-106690057D01*
X152986197Y-106684188D01*
X152961645Y-106610961D01*
X152937261Y-106552520D01*
X152906254Y-106499283D01*
X152861832Y-106441672D01*
X152797203Y-106370104D01*
X152705576Y-106275002D01*
X152671114Y-106239741D01*
X152464631Y-106028715D01*
X152256022Y-106012695D01*
X152032256Y-105998124D01*
X151762389Y-105985123D01*
X151451151Y-105973880D01*
X151103272Y-105964582D01*
X150979545Y-105961939D01*
X150749246Y-105955687D01*
X150562819Y-105947137D01*
X150421970Y-105936421D01*
X150328404Y-105923671D01*
X150283825Y-105909019D01*
X150282498Y-105907841D01*
X150258662Y-105915466D01*
X150215806Y-105949019D01*
X150212312Y-105952265D01*
X150165687Y-106028673D01*
X150153642Y-106128755D01*
X149075025Y-106128755D01*
X148999427Y-105932435D01*
X148844560Y-105651913D01*
X148648076Y-105390341D01*
X148502498Y-105233261D01*
X148243025Y-105005381D01*
X147959130Y-104819929D01*
X147646683Y-104674555D01*
X147356714Y-104581045D01*
X147246930Y-104553916D01*
X147148318Y-104535503D01*
X147045868Y-104524224D01*
X146924568Y-104518499D01*
X146769407Y-104516746D01*
X146746212Y-104516727D01*
X146586432Y-104518043D01*
X146462535Y-104523051D01*
X146359594Y-104533337D01*
X146262684Y-104550492D01*
X146156880Y-104576102D01*
X146136002Y-104581662D01*
X146027804Y-104611296D01*
X145935156Y-104637673D01*
X145871138Y-104657019D01*
X145852456Y-104663460D01*
X145824239Y-104661063D01*
X145786610Y-104629795D01*
X145734128Y-104564046D01*
X145678762Y-104484293D01*
X145611519Y-104378398D01*
X145576702Y-104308774D01*
X145573330Y-104273354D01*
X145576870Y-104269846D01*
X145616128Y-104257086D01*
X145696289Y-104239208D01*
X145807852Y-104217820D01*
X145941318Y-104194529D01*
X146087185Y-104170942D01*
X146235952Y-104148667D01*
X146378119Y-104129312D01*
X146479245Y-104117173D01*
X146556825Y-104111434D01*
X146678258Y-104106602D01*
X146844386Y-104102669D01*
X147056053Y-104099628D01*
X147314101Y-104097475D01*
X147619372Y-104096202D01*
X147972709Y-104095802D01*
X148374954Y-104096270D01*
G36*
X148008844Y-119693460D02*
X148004770Y-119703220D01*
X147971089Y-119727697D01*
X147963631Y-119728646D01*
X147949846Y-119712980D01*
X147953919Y-119703220D01*
X147987601Y-119678744D01*
X147995059Y-119677795D01*
X148008844Y-119693460D01*
X148008844Y-119693460D01*
G37*
X148008844Y-119693460D02*
X148004770Y-119703220D01*
X147971089Y-119727697D01*
X147963631Y-119728646D01*
X147949846Y-119712980D01*
X147953919Y-119703220D01*
X147987601Y-119678744D01*
X147995059Y-119677795D01*
X148008844Y-119693460D01*
G36*
X152460913Y-112073795D02*
X152461618Y-112138592D01*
X152456443Y-112235429D01*
X152446182Y-112355177D01*
X152431632Y-112488704D01*
X152413587Y-112626882D01*
X152392844Y-112760582D01*
X152390402Y-112774792D01*
X152368163Y-112908637D01*
X152347519Y-113043149D01*
X152331350Y-113159065D01*
X152324750Y-113213949D01*
X152312601Y-113299061D01*
X152297945Y-113361992D01*
X152285606Y-113387072D01*
X152269734Y-113419811D01*
X152263529Y-113475492D01*
X152251405Y-113533768D01*
X152219555Y-113548381D01*
X152174767Y-113519059D01*
X152144490Y-113480238D01*
X152083758Y-113384228D01*
X152015187Y-113269365D01*
X151943519Y-113144378D01*
X151873492Y-113017994D01*
X151809849Y-112898944D01*
X151757328Y-112795956D01*
X151720670Y-112717759D01*
X151704616Y-112673081D01*
X151704276Y-112669634D01*
X151721515Y-112636926D01*
X151764293Y-112585643D01*
X151818995Y-112529544D01*
X151872009Y-112482389D01*
X151909718Y-112457940D01*
X151914682Y-112456974D01*
X151943413Y-112440843D01*
X151995662Y-112399123D01*
X152043606Y-112356104D01*
X152109160Y-112298489D01*
X152189878Y-112232963D01*
X152275134Y-112167455D01*
X152354304Y-112109896D01*
X152416762Y-112068214D01*
X152451884Y-112050340D01*
X152453532Y-112050167D01*
X152460913Y-112073795D01*
X152460913Y-112073795D01*
G37*
X152460913Y-112073795D02*
X152461618Y-112138592D01*
X152456443Y-112235429D01*
X152446182Y-112355177D01*
X152431632Y-112488704D01*
X152413587Y-112626882D01*
X152392844Y-112760582D01*
X152390402Y-112774792D01*
X152368163Y-112908637D01*
X152347519Y-113043149D01*
X152331350Y-113159065D01*
X152324750Y-113213949D01*
X152312601Y-113299061D01*
X152297945Y-113361992D01*
X152285606Y-113387072D01*
X152269734Y-113419811D01*
X152263529Y-113475492D01*
X152251405Y-113533768D01*
X152219555Y-113548381D01*
X152174767Y-113519059D01*
X152144490Y-113480238D01*
X152083758Y-113384228D01*
X152015187Y-113269365D01*
X151943519Y-113144378D01*
X151873492Y-113017994D01*
X151809849Y-112898944D01*
X151757328Y-112795956D01*
X151720670Y-112717759D01*
X151704616Y-112673081D01*
X151704276Y-112669634D01*
X151721515Y-112636926D01*
X151764293Y-112585643D01*
X151818995Y-112529544D01*
X151872009Y-112482389D01*
X151909718Y-112457940D01*
X151914682Y-112456974D01*
X151943413Y-112440843D01*
X151995662Y-112399123D01*
X152043606Y-112356104D01*
X152109160Y-112298489D01*
X152189878Y-112232963D01*
X152275134Y-112167455D01*
X152354304Y-112109896D01*
X152416762Y-112068214D01*
X152451884Y-112050340D01*
X152453532Y-112050167D01*
X152460913Y-112073795D01*
G36*
X151345831Y-112616232D02*
X151341627Y-112646699D01*
X151332781Y-112671011D01*
X151307661Y-112707899D01*
X151288600Y-112701587D01*
X151289996Y-112660378D01*
X151310121Y-112619160D01*
X151325754Y-112609527D01*
X151345831Y-112616232D01*
X151345831Y-112616232D01*
G37*
X151345831Y-112616232D02*
X151341627Y-112646699D01*
X151332781Y-112671011D01*
X151307661Y-112707899D01*
X151288600Y-112701587D01*
X151289996Y-112660378D01*
X151310121Y-112619160D01*
X151325754Y-112609527D01*
X151345831Y-112616232D01*
G36*
X150424098Y-112395120D02*
X150431718Y-112432172D01*
X150410684Y-112480531D01*
X150396576Y-112496928D01*
X150357010Y-112529052D01*
X150339928Y-112518001D01*
X150339599Y-112463578D01*
X150359117Y-112404889D01*
X150388926Y-112385438D01*
X150424098Y-112395120D01*
X150424098Y-112395120D01*
G37*
X150424098Y-112395120D02*
X150431718Y-112432172D01*
X150410684Y-112480531D01*
X150396576Y-112496928D01*
X150357010Y-112529052D01*
X150339928Y-112518001D01*
X150339599Y-112463578D01*
X150359117Y-112404889D01*
X150388926Y-112385438D01*
X150424098Y-112395120D01*
G36*
X151535401Y-112057232D02*
X151572044Y-112089369D01*
X151629852Y-112132514D01*
X151689429Y-112143132D01*
X151735952Y-112137755D01*
X151796616Y-112132616D01*
X151829137Y-112139419D01*
X151830900Y-112143278D01*
X151813630Y-112176178D01*
X151770787Y-112229645D01*
X151714805Y-112290458D01*
X151658115Y-112345399D01*
X151613152Y-112381249D01*
X151601486Y-112387199D01*
X151559384Y-112375520D01*
X151508770Y-112318530D01*
X151504569Y-112312233D01*
X151465345Y-112234637D01*
X151460481Y-112163573D01*
X151464046Y-112143471D01*
X151482503Y-112071071D01*
X151502999Y-112043972D01*
X151535401Y-112057232D01*
X151535401Y-112057232D01*
G37*
X151535401Y-112057232D02*
X151572044Y-112089369D01*
X151629852Y-112132514D01*
X151689429Y-112143132D01*
X151735952Y-112137755D01*
X151796616Y-112132616D01*
X151829137Y-112139419D01*
X151830900Y-112143278D01*
X151813630Y-112176178D01*
X151770787Y-112229645D01*
X151714805Y-112290458D01*
X151658115Y-112345399D01*
X151613152Y-112381249D01*
X151601486Y-112387199D01*
X151559384Y-112375520D01*
X151508770Y-112318530D01*
X151504569Y-112312233D01*
X151465345Y-112234637D01*
X151460481Y-112163573D01*
X151464046Y-112143471D01*
X151482503Y-112071071D01*
X151502999Y-112043972D01*
X151535401Y-112057232D01*
G36*
X150681068Y-112148018D02*
X150693816Y-112171809D01*
X150667314Y-112210324D01*
X150651969Y-112225370D01*
X150602967Y-112261452D01*
X150574507Y-112256037D01*
X150572335Y-112252918D01*
X150573482Y-112214533D01*
X150604189Y-112173487D01*
X150647041Y-112146585D01*
X150681068Y-112148018D01*
X150681068Y-112148018D01*
G37*
X150681068Y-112148018D02*
X150693816Y-112171809D01*
X150667314Y-112210324D01*
X150651969Y-112225370D01*
X150602967Y-112261452D01*
X150574507Y-112256037D01*
X150572335Y-112252918D01*
X150573482Y-112214533D01*
X150604189Y-112173487D01*
X150647041Y-112146585D01*
X150681068Y-112148018D01*
G36*
X152031061Y-110588804D02*
X152030581Y-110618387D01*
X152015096Y-110681808D01*
X151987940Y-110765476D01*
X151987226Y-110767469D01*
X151947792Y-110936984D01*
X151954458Y-111091602D01*
X152005758Y-111227210D01*
X152100223Y-111339695D01*
X152218776Y-111416715D01*
X152337888Y-111474584D01*
X152282432Y-111578041D01*
X152187559Y-111727438D01*
X152049681Y-111901677D01*
X151975065Y-111986604D01*
X151922374Y-112042280D01*
X151894379Y-112062270D01*
X151883781Y-112050414D01*
X151882738Y-112035192D01*
X151862753Y-111969477D01*
X151813746Y-111895056D01*
X151750290Y-111829404D01*
X151686957Y-111789993D01*
X151675599Y-111786800D01*
X151620398Y-111763382D01*
X151594267Y-111734938D01*
X151594159Y-111694325D01*
X151605953Y-111614336D01*
X151627365Y-111504426D01*
X151656111Y-111374053D01*
X151689908Y-111232670D01*
X151726472Y-111089735D01*
X151763519Y-110954703D01*
X151798765Y-110837030D01*
X151829927Y-110746172D01*
X151837929Y-110726058D01*
X151870887Y-110678174D01*
X151922261Y-110631409D01*
X151976932Y-110596507D01*
X152019780Y-110584213D01*
X152031061Y-110588804D01*
X152031061Y-110588804D01*
G37*
X152031061Y-110588804D02*
X152030581Y-110618387D01*
X152015096Y-110681808D01*
X151987940Y-110765476D01*
X151987226Y-110767469D01*
X151947792Y-110936984D01*
X151954458Y-111091602D01*
X152005758Y-111227210D01*
X152100223Y-111339695D01*
X152218776Y-111416715D01*
X152337888Y-111474584D01*
X152282432Y-111578041D01*
X152187559Y-111727438D01*
X152049681Y-111901677D01*
X151975065Y-111986604D01*
X151922374Y-112042280D01*
X151894379Y-112062270D01*
X151883781Y-112050414D01*
X151882738Y-112035192D01*
X151862753Y-111969477D01*
X151813746Y-111895056D01*
X151750290Y-111829404D01*
X151686957Y-111789993D01*
X151675599Y-111786800D01*
X151620398Y-111763382D01*
X151594267Y-111734938D01*
X151594159Y-111694325D01*
X151605953Y-111614336D01*
X151627365Y-111504426D01*
X151656111Y-111374053D01*
X151689908Y-111232670D01*
X151726472Y-111089735D01*
X151763519Y-110954703D01*
X151798765Y-110837030D01*
X151829927Y-110746172D01*
X151837929Y-110726058D01*
X151870887Y-110678174D01*
X151922261Y-110631409D01*
X151976932Y-110596507D01*
X152019780Y-110584213D01*
X152031061Y-110588804D01*
G36*
X150791713Y-111500135D02*
X150804112Y-111527243D01*
X150817052Y-111584344D01*
X150824609Y-111662853D01*
X150825142Y-111679795D01*
X150822944Y-111746408D01*
X150806670Y-111777952D01*
X150766599Y-111790021D01*
X150755577Y-111791390D01*
X150710015Y-111793657D01*
X150693198Y-111777222D01*
X150697073Y-111728778D01*
X150701718Y-111702401D01*
X150722367Y-111619589D01*
X150749296Y-111547315D01*
X150752104Y-111541659D01*
X150776699Y-111499523D01*
X150791713Y-111500135D01*
X150791713Y-111500135D01*
G37*
X150791713Y-111500135D02*
X150804112Y-111527243D01*
X150817052Y-111584344D01*
X150824609Y-111662853D01*
X150825142Y-111679795D01*
X150822944Y-111746408D01*
X150806670Y-111777952D01*
X150766599Y-111790021D01*
X150755577Y-111791390D01*
X150710015Y-111793657D01*
X150693198Y-111777222D01*
X150697073Y-111728778D01*
X150701718Y-111702401D01*
X150722367Y-111619589D01*
X150749296Y-111547315D01*
X150752104Y-111541659D01*
X150776699Y-111499523D01*
X150791713Y-111500135D01*
G36*
X151430692Y-110847429D02*
X151428117Y-110911338D01*
X151406859Y-111016860D01*
X151399655Y-111046407D01*
X151370563Y-111165208D01*
X151337588Y-111302861D01*
X151309286Y-111423480D01*
X151271887Y-111559155D01*
X151233754Y-111648014D01*
X151195842Y-111689111D01*
X151159109Y-111681495D01*
X151124510Y-111624220D01*
X151119669Y-111611579D01*
X151098156Y-111544305D01*
X151071159Y-111448661D01*
X151045594Y-111349615D01*
X151023087Y-111248348D01*
X151015170Y-111177465D01*
X151021166Y-111118849D01*
X151035143Y-111069760D01*
X151059960Y-111015429D01*
X151099848Y-110969182D01*
X151163374Y-110924903D01*
X151259105Y-110876477D01*
X151377889Y-110825121D01*
X151414108Y-110820301D01*
X151430692Y-110847429D01*
X151430692Y-110847429D01*
G37*
X151430692Y-110847429D02*
X151428117Y-110911338D01*
X151406859Y-111016860D01*
X151399655Y-111046407D01*
X151370563Y-111165208D01*
X151337588Y-111302861D01*
X151309286Y-111423480D01*
X151271887Y-111559155D01*
X151233754Y-111648014D01*
X151195842Y-111689111D01*
X151159109Y-111681495D01*
X151124510Y-111624220D01*
X151119669Y-111611579D01*
X151098156Y-111544305D01*
X151071159Y-111448661D01*
X151045594Y-111349615D01*
X151023087Y-111248348D01*
X151015170Y-111177465D01*
X151021166Y-111118849D01*
X151035143Y-111069760D01*
X151059960Y-111015429D01*
X151099848Y-110969182D01*
X151163374Y-110924903D01*
X151259105Y-110876477D01*
X151377889Y-110825121D01*
X151414108Y-110820301D01*
X151430692Y-110847429D01*
G36*
X150525760Y-110394974D02*
X150523493Y-110444645D01*
X150521446Y-110464817D01*
X150500850Y-110657820D01*
X150483779Y-110806474D01*
X150469244Y-110917082D01*
X150456258Y-110995945D01*
X150443831Y-111049364D01*
X150430974Y-111083642D01*
X150422019Y-111098506D01*
X150399031Y-111120813D01*
X150373538Y-111113273D01*
X150332772Y-111070835D01*
X150323036Y-111059348D01*
X150274134Y-111009631D01*
X150222592Y-110984403D01*
X150147112Y-110974597D01*
X150121354Y-110973468D01*
X150042192Y-110968001D01*
X150000557Y-110955004D01*
X149983156Y-110928693D01*
X149979818Y-110911870D01*
X149989380Y-110853447D01*
X150023647Y-110789037D01*
X150026553Y-110785248D01*
X150071376Y-110736027D01*
X150137499Y-110672378D01*
X150214446Y-110603300D01*
X150291743Y-110537796D01*
X150358915Y-110484865D01*
X150405488Y-110453510D01*
X150418184Y-110448718D01*
X150453642Y-110432954D01*
X150486641Y-110407610D01*
X150515147Y-110385375D01*
X150525760Y-110394974D01*
X150525760Y-110394974D01*
G37*
X150525760Y-110394974D02*
X150523493Y-110444645D01*
X150521446Y-110464817D01*
X150500850Y-110657820D01*
X150483779Y-110806474D01*
X150469244Y-110917082D01*
X150456258Y-110995945D01*
X150443831Y-111049364D01*
X150430974Y-111083642D01*
X150422019Y-111098506D01*
X150399031Y-111120813D01*
X150373538Y-111113273D01*
X150332772Y-111070835D01*
X150323036Y-111059348D01*
X150274134Y-111009631D01*
X150222592Y-110984403D01*
X150147112Y-110974597D01*
X150121354Y-110973468D01*
X150042192Y-110968001D01*
X150000557Y-110955004D01*
X149983156Y-110928693D01*
X149979818Y-110911870D01*
X149989380Y-110853447D01*
X150023647Y-110789037D01*
X150026553Y-110785248D01*
X150071376Y-110736027D01*
X150137499Y-110672378D01*
X150214446Y-110603300D01*
X150291743Y-110537796D01*
X150358915Y-110484865D01*
X150405488Y-110453510D01*
X150418184Y-110448718D01*
X150453642Y-110432954D01*
X150486641Y-110407610D01*
X150515147Y-110385375D01*
X150525760Y-110394974D01*
G36*
X150657813Y-109518478D02*
X150656723Y-109591997D01*
X150654478Y-109615683D01*
X150644252Y-109702944D01*
X150633336Y-109776109D01*
X150628261Y-109801718D01*
X150619737Y-109852401D01*
X150609245Y-109936247D01*
X150598961Y-110035738D01*
X150598323Y-110042646D01*
X150585691Y-110143818D01*
X150568813Y-110231637D01*
X150551227Y-110287890D01*
X150550327Y-110289673D01*
X150519597Y-110348323D01*
X150461024Y-110285974D01*
X150395162Y-110230995D01*
X150328685Y-110193071D01*
X150269172Y-110148584D01*
X150256333Y-110084103D01*
X150277868Y-110022145D01*
X150298422Y-109971063D01*
X150322909Y-109894949D01*
X150331781Y-109863581D01*
X150368757Y-109735470D01*
X150401348Y-109647199D01*
X150434961Y-109588708D01*
X150475002Y-109549938D01*
X150512175Y-109527915D01*
X150593343Y-109491249D01*
X150639288Y-109486499D01*
X150657813Y-109518478D01*
X150657813Y-109518478D01*
G37*
X150657813Y-109518478D02*
X150656723Y-109591997D01*
X150654478Y-109615683D01*
X150644252Y-109702944D01*
X150633336Y-109776109D01*
X150628261Y-109801718D01*
X150619737Y-109852401D01*
X150609245Y-109936247D01*
X150598961Y-110035738D01*
X150598323Y-110042646D01*
X150585691Y-110143818D01*
X150568813Y-110231637D01*
X150551227Y-110287890D01*
X150550327Y-110289673D01*
X150519597Y-110348323D01*
X150461024Y-110285974D01*
X150395162Y-110230995D01*
X150328685Y-110193071D01*
X150269172Y-110148584D01*
X150256333Y-110084103D01*
X150277868Y-110022145D01*
X150298422Y-109971063D01*
X150322909Y-109894949D01*
X150331781Y-109863581D01*
X150368757Y-109735470D01*
X150401348Y-109647199D01*
X150434961Y-109588708D01*
X150475002Y-109549938D01*
X150512175Y-109527915D01*
X150593343Y-109491249D01*
X150639288Y-109486499D01*
X150657813Y-109518478D01*
G36*
X150294133Y-109618933D02*
X150315177Y-109635600D01*
X150308755Y-109669593D01*
X150292303Y-109703524D01*
X150265686Y-109766459D01*
X150255077Y-109814001D01*
X150241574Y-109864495D01*
X150232567Y-109877565D01*
X150210495Y-109916423D01*
X150185120Y-109980758D01*
X150181043Y-109993128D01*
X150135032Y-110076761D01*
X150082626Y-110119056D01*
X150025901Y-110147321D01*
X149990880Y-110164751D01*
X149981251Y-110149224D01*
X149982493Y-110095371D01*
X149988226Y-110051535D01*
X150001371Y-109959944D01*
X150011085Y-109875919D01*
X150013189Y-109850868D01*
X150023087Y-109774698D01*
X150039418Y-109710903D01*
X150057793Y-109673258D01*
X150070568Y-109670753D01*
X150099168Y-109669486D01*
X150119098Y-109656844D01*
X150147644Y-109640742D01*
X150153219Y-109645246D01*
X150171854Y-109647992D01*
X150206056Y-109633689D01*
X150261852Y-109616566D01*
X150294133Y-109618933D01*
X150294133Y-109618933D01*
G37*
X150294133Y-109618933D02*
X150315177Y-109635600D01*
X150308755Y-109669593D01*
X150292303Y-109703524D01*
X150265686Y-109766459D01*
X150255077Y-109814001D01*
X150241574Y-109864495D01*
X150232567Y-109877565D01*
X150210495Y-109916423D01*
X150185120Y-109980758D01*
X150181043Y-109993128D01*
X150135032Y-110076761D01*
X150082626Y-110119056D01*
X150025901Y-110147321D01*
X149990880Y-110164751D01*
X149981251Y-110149224D01*
X149982493Y-110095371D01*
X149988226Y-110051535D01*
X150001371Y-109959944D01*
X150011085Y-109875919D01*
X150013189Y-109850868D01*
X150023087Y-109774698D01*
X150039418Y-109710903D01*
X150057793Y-109673258D01*
X150070568Y-109670753D01*
X150099168Y-109669486D01*
X150119098Y-109656844D01*
X150147644Y-109640742D01*
X150153219Y-109645246D01*
X150171854Y-109647992D01*
X150206056Y-109633689D01*
X150261852Y-109616566D01*
X150294133Y-109618933D01*
D12*
X156464000Y-80772000D03*
D13*
X159004000Y-80772000D03*
D12*
X140716000Y-80772000D03*
D13*
X138176000Y-80772000D03*
D14*
X134112000Y-120904000D03*
D15*
X141732000Y-120904000D03*
D16*
X143319500Y-110299500D03*
D17*
X143319500Y-112839500D03*
X145859500Y-110299500D03*
X145859500Y-112839500D03*
D14*
X163576000Y-120904000D03*
D15*
X155956000Y-120904000D03*
M02*
