G04 #@! TF.FileFunction,Legend,Top*
%FSLAX46Y46*%
G04 Gerber Fmt 4.6, Leading zero omitted, Abs format (unit mm)*
G04 Created by KiCad (PCBNEW 4.0.7) date Friday, August 17, 2018 'PMt' 06:16:06 PM*
%MOMM*%
%LPD*%
G01*
G04 APERTURE LIST*
%ADD10C,0.100000*%
%ADD11C,0.010000*%
G04 APERTURE END LIST*
D10*
D11*
G36*
X125114684Y-105489505D02*
X125197857Y-105190617D01*
X125259637Y-105038651D01*
X125302134Y-104950663D01*
X125349891Y-104865002D01*
X125406583Y-104777248D01*
X125475884Y-104682977D01*
X125561467Y-104577768D01*
X125667008Y-104457199D01*
X125796180Y-104316849D01*
X125952656Y-104152295D01*
X126140113Y-103959116D01*
X126248882Y-103848092D01*
X126346205Y-103748952D01*
X126476576Y-103616091D01*
X126637486Y-103452068D01*
X126826426Y-103259442D01*
X127040886Y-103040772D01*
X127278358Y-102798619D01*
X127536331Y-102535540D01*
X127812296Y-102254096D01*
X128103743Y-101956844D01*
X128408164Y-101646345D01*
X128723049Y-101325158D01*
X129045889Y-100995842D01*
X129374173Y-100660956D01*
X129705393Y-100323060D01*
X129855057Y-100170373D01*
X130173690Y-99845356D01*
X130482657Y-99530304D01*
X130780090Y-99227117D01*
X131064120Y-98937697D01*
X131332879Y-98663943D01*
X131584498Y-98407757D01*
X131817108Y-98171038D01*
X132028842Y-97955689D01*
X132217829Y-97763608D01*
X132382203Y-97596696D01*
X132520094Y-97456855D01*
X132629633Y-97345984D01*
X132708953Y-97265985D01*
X132756184Y-97218758D01*
X132769707Y-97205800D01*
X132771590Y-97230321D01*
X132773335Y-97300366D01*
X132774898Y-97410658D01*
X132776235Y-97555921D01*
X132777302Y-97730880D01*
X132778055Y-97930259D01*
X132778450Y-98148781D01*
X132778499Y-98260938D01*
X132778499Y-99316075D01*
X130817862Y-101315288D01*
X130542159Y-101596400D01*
X130266564Y-101877378D01*
X129994364Y-102154868D01*
X129728852Y-102425517D01*
X129473315Y-102685973D01*
X129231044Y-102932883D01*
X129005330Y-103162895D01*
X128799461Y-103372655D01*
X128616728Y-103558810D01*
X128460420Y-103718009D01*
X128333828Y-103846898D01*
X128257962Y-103924100D01*
X128088183Y-104097515D01*
X127950498Y-104240032D01*
X127840776Y-104356363D01*
X127754884Y-104451221D01*
X127688687Y-104529318D01*
X127638053Y-104595367D01*
X127598848Y-104654080D01*
X127566940Y-104710170D01*
X127564592Y-104714659D01*
X127457989Y-104971328D01*
X127398970Y-105235051D01*
X127386706Y-105500188D01*
X127420369Y-105761102D01*
X127499133Y-106012154D01*
X127622168Y-106247707D01*
X127788646Y-106462120D01*
X127827065Y-106501953D01*
X128036891Y-106677244D01*
X128273897Y-106810049D01*
X128539582Y-106901192D01*
X128565294Y-106907460D01*
X128619451Y-106919621D01*
X128718042Y-106941083D01*
X128857683Y-106971133D01*
X129034989Y-107009059D01*
X129246576Y-107054148D01*
X129489059Y-107105688D01*
X129759053Y-107162965D01*
X130053175Y-107225268D01*
X130368038Y-107291884D01*
X130700259Y-107362100D01*
X131046452Y-107435203D01*
X131403234Y-107510481D01*
X131767219Y-107587221D01*
X132135023Y-107664711D01*
X132503262Y-107742237D01*
X132868549Y-107819088D01*
X133227502Y-107894551D01*
X133576736Y-107967912D01*
X133912865Y-108038460D01*
X134232504Y-108105482D01*
X134532271Y-108168265D01*
X134808779Y-108226096D01*
X135058644Y-108278264D01*
X135278481Y-108324054D01*
X135464907Y-108362755D01*
X135614535Y-108393655D01*
X135723982Y-108416039D01*
X135789863Y-108429196D01*
X135808974Y-108432601D01*
X135803958Y-108415904D01*
X135768695Y-108370469D01*
X135709058Y-108303276D01*
X135632635Y-108223051D01*
X135165032Y-107711083D01*
X134734551Y-107168028D01*
X134342931Y-106597277D01*
X133991910Y-106002222D01*
X133683226Y-105386253D01*
X133418619Y-104752763D01*
X133199826Y-104105143D01*
X133028586Y-103446784D01*
X132934202Y-102958900D01*
X132899572Y-102739175D01*
X132870232Y-102528271D01*
X132845792Y-102319595D01*
X132825857Y-102106553D01*
X132810035Y-101882551D01*
X132797934Y-101640995D01*
X132789158Y-101375292D01*
X132783317Y-101078847D01*
X132780017Y-100745066D01*
X132778865Y-100367356D01*
X132778858Y-100352282D01*
X132778500Y-99345863D01*
X133432550Y-99332261D01*
X133704849Y-99324924D01*
X133937461Y-99314359D01*
X134141460Y-99299276D01*
X134327920Y-99278387D01*
X134507917Y-99250401D01*
X134692525Y-99214030D01*
X134892820Y-99167984D01*
X134937500Y-99157066D01*
X135450219Y-99004880D01*
X135952159Y-98804228D01*
X136439411Y-98556981D01*
X136908067Y-98265005D01*
X137119619Y-98113738D01*
X137258267Y-98002512D01*
X137419013Y-97860801D01*
X137592476Y-97697995D01*
X137769278Y-97523482D01*
X137940038Y-97346649D01*
X138095375Y-97176885D01*
X138225911Y-97023577D01*
X138286909Y-96945433D01*
X138604504Y-96479457D01*
X138874904Y-95995645D01*
X139098841Y-95492273D01*
X139277044Y-94967618D01*
X139410242Y-94419955D01*
X139450783Y-94195900D01*
X139471230Y-94030975D01*
X139486108Y-93827462D01*
X139495418Y-93597264D01*
X139499162Y-93352287D01*
X139497343Y-93104437D01*
X139489963Y-92865617D01*
X139477024Y-92647733D01*
X139458528Y-92462689D01*
X139450462Y-92406106D01*
X139340006Y-91863364D01*
X139183918Y-91339556D01*
X138984270Y-90836926D01*
X138743130Y-90357716D01*
X138462569Y-89904171D01*
X138144657Y-89478533D01*
X137791463Y-89083047D01*
X137405057Y-88719955D01*
X136987509Y-88391500D01*
X136540888Y-88099927D01*
X136067266Y-87847478D01*
X135568710Y-87636397D01*
X135047292Y-87468928D01*
X134848600Y-87418375D01*
X134611619Y-87367785D01*
X134369290Y-87327815D01*
X134111364Y-87297343D01*
X133827595Y-87275249D01*
X133507733Y-87260412D01*
X133365875Y-87256219D01*
X132772150Y-87241095D01*
X132785716Y-85981398D01*
X132790062Y-85633357D01*
X132795155Y-85332258D01*
X132801124Y-85074247D01*
X132808098Y-84855468D01*
X132816205Y-84672069D01*
X132825573Y-84520193D01*
X132836331Y-84395988D01*
X132839559Y-84366100D01*
X132945237Y-83643324D01*
X133096039Y-82943750D01*
X133292213Y-82266852D01*
X133534007Y-81612103D01*
X133821669Y-80978973D01*
X134155446Y-80366937D01*
X134535588Y-79775465D01*
X134962341Y-79204030D01*
X135435954Y-78652105D01*
X135612944Y-78463329D01*
X135707726Y-78362482D01*
X135784566Y-78276818D01*
X135838896Y-78211773D01*
X135866150Y-78172780D01*
X135864267Y-78164282D01*
X135833969Y-78171251D01*
X135756747Y-78188084D01*
X135635390Y-78214189D01*
X135472688Y-78248975D01*
X135271429Y-78291851D01*
X135034402Y-78342226D01*
X134764395Y-78399509D01*
X134464199Y-78463108D01*
X134136602Y-78532432D01*
X133784392Y-78606890D01*
X133410359Y-78685890D01*
X133017292Y-78768842D01*
X132607979Y-78855155D01*
X132185210Y-78944236D01*
X132143338Y-78953055D01*
X131717671Y-79042862D01*
X131304149Y-79130412D01*
X130905649Y-79215079D01*
X130525050Y-79296242D01*
X130165228Y-79373276D01*
X129829062Y-79445557D01*
X129519429Y-79512462D01*
X129239207Y-79573367D01*
X128991274Y-79627649D01*
X128778507Y-79674684D01*
X128603783Y-79713848D01*
X128469981Y-79744518D01*
X128379978Y-79766070D01*
X128336651Y-79777881D01*
X128335618Y-79778259D01*
X128101556Y-79893532D01*
X127894035Y-80048600D01*
X127716873Y-80237827D01*
X127573886Y-80455575D01*
X127468890Y-80696205D01*
X127405703Y-80954079D01*
X127387736Y-81178400D01*
X127396807Y-81382302D01*
X127429902Y-81564413D01*
X127491923Y-81744585D01*
X127566506Y-81902300D01*
X127602716Y-81966218D01*
X127648032Y-82033238D01*
X127707254Y-82108967D01*
X127785179Y-82199014D01*
X127886606Y-82308984D01*
X128016331Y-82444486D01*
X128131613Y-82562700D01*
X128212534Y-82645258D01*
X128326100Y-82761125D01*
X128469398Y-82907331D01*
X128639517Y-83080905D01*
X128833544Y-83278876D01*
X129048567Y-83498271D01*
X129281675Y-83736120D01*
X129529955Y-83989451D01*
X129790495Y-84255293D01*
X130060383Y-84530676D01*
X130336706Y-84812626D01*
X130616553Y-85098174D01*
X130691585Y-85174734D01*
X132778500Y-87304167D01*
X132778500Y-88356084D01*
X132778262Y-88581685D01*
X132777585Y-88790713D01*
X132776518Y-88977883D01*
X132775114Y-89137913D01*
X132773422Y-89265517D01*
X132771495Y-89355411D01*
X132769383Y-89402311D01*
X132768324Y-89408000D01*
X132749277Y-89389844D01*
X132694716Y-89335383D01*
X132604650Y-89244624D01*
X132479089Y-89117579D01*
X132318042Y-88954255D01*
X132121518Y-88754662D01*
X131889526Y-88518810D01*
X131622075Y-88246708D01*
X131319174Y-87938365D01*
X130980833Y-87593790D01*
X130607060Y-87212993D01*
X130197864Y-86795982D01*
X129753255Y-86342768D01*
X129273241Y-85853359D01*
X128757833Y-85327764D01*
X128207038Y-84765993D01*
X127620866Y-84168056D01*
X126999326Y-83533961D01*
X126342427Y-82863718D01*
X126097209Y-82613500D01*
X125954456Y-82466194D01*
X125818136Y-82322453D01*
X125693847Y-82188415D01*
X125587185Y-82070215D01*
X125503750Y-81973990D01*
X125449137Y-81905876D01*
X125440049Y-81893085D01*
X125279491Y-81619236D01*
X125167218Y-81339852D01*
X125100771Y-81046985D01*
X125077694Y-80732687D01*
X125077641Y-80721200D01*
X125097178Y-80394511D01*
X125158692Y-80093764D01*
X125264107Y-79814357D01*
X125415348Y-79551686D01*
X125614336Y-79301148D01*
X125714700Y-79196356D01*
X125909839Y-79019844D01*
X126104254Y-78882282D01*
X126313054Y-78774353D01*
X126530100Y-78693457D01*
X126568792Y-78683769D01*
X126655128Y-78664083D01*
X126787034Y-78634841D01*
X126962439Y-78596486D01*
X127179269Y-78549458D01*
X127435453Y-78494200D01*
X127728917Y-78431154D01*
X128057590Y-78360761D01*
X128419398Y-78283463D01*
X128812269Y-78199702D01*
X129234131Y-78109920D01*
X129682911Y-78014557D01*
X130156536Y-77914057D01*
X130652935Y-77808861D01*
X131170034Y-77699411D01*
X131705761Y-77586148D01*
X132258043Y-77469515D01*
X132824809Y-77349952D01*
X133403984Y-77227903D01*
X133527800Y-77201828D01*
X134266468Y-77046284D01*
X134957061Y-76900858D01*
X135601218Y-76765210D01*
X136200576Y-76639000D01*
X136756771Y-76521886D01*
X137271441Y-76413528D01*
X137746223Y-76313585D01*
X138182755Y-76221717D01*
X138582674Y-76137581D01*
X138947618Y-76060839D01*
X139279223Y-75991149D01*
X139579126Y-75928169D01*
X139848967Y-75871561D01*
X140090380Y-75820982D01*
X140305004Y-75776092D01*
X140494477Y-75736550D01*
X140660435Y-75702015D01*
X140804516Y-75672148D01*
X140928357Y-75646606D01*
X141033595Y-75625049D01*
X141121868Y-75607137D01*
X141194813Y-75592529D01*
X141254067Y-75580883D01*
X141301268Y-75571859D01*
X141338053Y-75565117D01*
X141366060Y-75560316D01*
X141386925Y-75557114D01*
X141402285Y-75555171D01*
X141413779Y-75554147D01*
X141423044Y-75553700D01*
X141431716Y-75553490D01*
X141441434Y-75553176D01*
X141452600Y-75552511D01*
X141492995Y-75547326D01*
X141580436Y-75534438D01*
X141711834Y-75514340D01*
X141884100Y-75487524D01*
X142094144Y-75454483D01*
X142338878Y-75415707D01*
X142615212Y-75371691D01*
X142920058Y-75322926D01*
X143250326Y-75269904D01*
X143602928Y-75213118D01*
X143974775Y-75153059D01*
X144362777Y-75090222D01*
X144763845Y-75025096D01*
X144856200Y-75010076D01*
X145261732Y-74944159D01*
X145656133Y-74880163D01*
X146036201Y-74818602D01*
X146398734Y-74759991D01*
X146740533Y-74704843D01*
X147058395Y-74653671D01*
X147349121Y-74606991D01*
X147609509Y-74565315D01*
X147836358Y-74529157D01*
X148026467Y-74499031D01*
X148176636Y-74475452D01*
X148283663Y-74458932D01*
X148344347Y-74449986D01*
X148350246Y-74449201D01*
X148697185Y-74414628D01*
X149078299Y-74393993D01*
X149478932Y-74387223D01*
X149884430Y-74394242D01*
X150280139Y-74414976D01*
X150651404Y-74449350D01*
X150749000Y-74461411D01*
X151444360Y-74577900D01*
X152127730Y-74742760D01*
X152796244Y-74954837D01*
X153447035Y-75212976D01*
X154077239Y-75516021D01*
X154683989Y-75862817D01*
X155264421Y-76252209D01*
X155353807Y-76317758D01*
X155576719Y-76486584D01*
X155776930Y-76646325D01*
X155966287Y-76807273D01*
X156156639Y-76979720D01*
X156359833Y-77173959D01*
X156508553Y-77320913D01*
X156908707Y-77720366D01*
X157245153Y-77560880D01*
X157862884Y-77288459D01*
X158478638Y-77057135D01*
X158573760Y-77025069D01*
X158726052Y-76976744D01*
X158902011Y-76924493D01*
X159090829Y-76871187D01*
X159281699Y-76819695D01*
X159463816Y-76772889D01*
X159626372Y-76733638D01*
X159758562Y-76704812D01*
X159825133Y-76692702D01*
X159893310Y-76675113D01*
X159939409Y-76642163D01*
X159966636Y-76585828D01*
X159978196Y-76498086D01*
X159977293Y-76370916D01*
X159974765Y-76318156D01*
X159965643Y-76197687D01*
X159949788Y-76105911D01*
X159921366Y-76020734D01*
X159874544Y-75920056D01*
X159864296Y-75899734D01*
X159777780Y-75758284D01*
X159656191Y-75600597D01*
X159508267Y-75436147D01*
X159342747Y-75274410D01*
X159168369Y-75124860D01*
X159102767Y-75074072D01*
X158706037Y-74801162D01*
X158261111Y-74541322D01*
X157768963Y-74294845D01*
X157230564Y-74062021D01*
X156646887Y-73843143D01*
X156018902Y-73638502D01*
X155347583Y-73448389D01*
X154633901Y-73273097D01*
X153878828Y-73112918D01*
X153083335Y-72968142D01*
X152248396Y-72839062D01*
X151374981Y-72725969D01*
X151218900Y-72707917D01*
X150672800Y-72645849D01*
X150571200Y-72722508D01*
X150166134Y-73004493D01*
X149746994Y-73251045D01*
X149320977Y-73458585D01*
X148895281Y-73623534D01*
X148822797Y-73644897D01*
X148822797Y-71471821D01*
X149100501Y-71438837D01*
X149370278Y-71362972D01*
X149629567Y-71246190D01*
X149875807Y-71090458D01*
X150106434Y-70897742D01*
X150318887Y-70670009D01*
X150510604Y-70409223D01*
X150679023Y-70117353D01*
X150821582Y-69796363D01*
X150935719Y-69448219D01*
X151018872Y-69074889D01*
X151040605Y-68935600D01*
X151052702Y-68800069D01*
X151058046Y-68627767D01*
X151057147Y-68432205D01*
X151050517Y-68226890D01*
X151038665Y-68025332D01*
X151022104Y-67841037D01*
X151001343Y-67687516D01*
X150991427Y-67635146D01*
X150893340Y-67264619D01*
X150763700Y-66919871D01*
X150605116Y-66603401D01*
X150420200Y-66317708D01*
X150211561Y-66065293D01*
X149981808Y-65848653D01*
X149733553Y-65670290D01*
X149469405Y-65532701D01*
X149191974Y-65438386D01*
X148903870Y-65389846D01*
X148643704Y-65386971D01*
X148343933Y-65430415D01*
X148057150Y-65520994D01*
X147785647Y-65656183D01*
X147531714Y-65833457D01*
X147297641Y-66050290D01*
X147085719Y-66304158D01*
X146898238Y-66592535D01*
X146737490Y-66912896D01*
X146605764Y-67262715D01*
X146505351Y-67639467D01*
X146478630Y-67773912D01*
X146456347Y-67940392D01*
X146441991Y-68141394D01*
X146435576Y-68361710D01*
X146437112Y-68586133D01*
X146446611Y-68799455D01*
X146464087Y-68986469D01*
X146477592Y-69075300D01*
X146569524Y-69471690D01*
X146694936Y-69840983D01*
X146851896Y-70180302D01*
X147038470Y-70486772D01*
X147252727Y-70757513D01*
X147492734Y-70989651D01*
X147756558Y-71180307D01*
X147967749Y-71293815D01*
X148253859Y-71401275D01*
X148539729Y-71459955D01*
X148822797Y-71471821D01*
X148822797Y-73644897D01*
X148559549Y-73722487D01*
X148029930Y-73830627D01*
X147502507Y-73888406D01*
X146978863Y-73895998D01*
X146460579Y-73853580D01*
X145949239Y-73761327D01*
X145446426Y-73619415D01*
X145288000Y-73557873D01*
X145288000Y-72885300D01*
X146659600Y-72885300D01*
X146802348Y-72818367D01*
X146985610Y-72707251D01*
X147134780Y-72565371D01*
X147247249Y-72399388D01*
X147320413Y-72215961D01*
X147351665Y-72021749D01*
X147338398Y-71823412D01*
X147278006Y-71627609D01*
X147272867Y-71616175D01*
X147176838Y-71455102D01*
X147049139Y-71311989D01*
X146903811Y-71202167D01*
X146882825Y-71190304D01*
X146803909Y-71152054D01*
X146720438Y-71122300D01*
X146625266Y-71100214D01*
X146511247Y-71084970D01*
X146371232Y-71075742D01*
X146198075Y-71071704D01*
X145984629Y-71072029D01*
X145871737Y-71073404D01*
X145684812Y-71076262D01*
X145540895Y-71079265D01*
X145432198Y-71083266D01*
X145350934Y-71089123D01*
X145289316Y-71097690D01*
X145239556Y-71109824D01*
X145193868Y-71126380D01*
X145144463Y-71148213D01*
X145129951Y-71154904D01*
X144981873Y-71244200D01*
X144842501Y-71366042D01*
X144726610Y-71505768D01*
X144660711Y-71620615D01*
X144631849Y-71697677D01*
X144614433Y-71782480D01*
X144605949Y-71891133D01*
X144604020Y-71983600D01*
X144604848Y-72104191D01*
X144611448Y-72190749D01*
X144626753Y-72259965D01*
X144653696Y-72328527D01*
X144671041Y-72364919D01*
X144786991Y-72544359D01*
X144941718Y-72694563D01*
X145122900Y-72806345D01*
X145288000Y-72885300D01*
X145288000Y-73557873D01*
X144953722Y-73428019D01*
X144665317Y-73290376D01*
X144348200Y-73107982D01*
X144348200Y-70573900D01*
X145059400Y-70573900D01*
X145200259Y-70507832D01*
X145389707Y-70394306D01*
X145537792Y-70251568D01*
X145643610Y-70081125D01*
X145706259Y-69884485D01*
X145724835Y-69663153D01*
X145724023Y-69634100D01*
X145714483Y-69507508D01*
X145693980Y-69408084D01*
X145657125Y-69312506D01*
X145642840Y-69282646D01*
X145547318Y-69134004D01*
X145419399Y-68999119D01*
X145273419Y-68891256D01*
X145159962Y-68835794D01*
X145113008Y-68819569D01*
X145064862Y-68807052D01*
X145008363Y-68797772D01*
X144936352Y-68791254D01*
X144841670Y-68787026D01*
X144717158Y-68784614D01*
X144646509Y-68784147D01*
X144646509Y-68045339D01*
X144766701Y-68044189D01*
X144859090Y-68040667D01*
X144931336Y-68034348D01*
X144991101Y-68024806D01*
X145046047Y-68011617D01*
X145092807Y-67997806D01*
X145294763Y-67911211D01*
X145460904Y-67789757D01*
X145588875Y-67636809D01*
X145676319Y-67455733D01*
X145720882Y-67249894D01*
X145725351Y-67094100D01*
X145717073Y-66976948D01*
X145699867Y-66887537D01*
X145667798Y-66802900D01*
X145631394Y-66730561D01*
X145515473Y-66559819D01*
X145367908Y-66416060D01*
X145261531Y-66348675D01*
X145261531Y-65722500D01*
X146685000Y-65722500D01*
X146830296Y-65654401D01*
X147008624Y-65543658D01*
X147154072Y-65395308D01*
X147264057Y-65212520D01*
X147323204Y-65049400D01*
X147351060Y-64908112D01*
X147350954Y-64772411D01*
X147322659Y-64619481D01*
X147318734Y-64604138D01*
X147241684Y-64403448D01*
X147124148Y-64232419D01*
X146968949Y-64094159D01*
X146778910Y-63991777D01*
X146753868Y-63982039D01*
X146708542Y-63966126D01*
X146663442Y-63953861D01*
X146611667Y-63944866D01*
X146546314Y-63938764D01*
X146460480Y-63935177D01*
X146347262Y-63933727D01*
X146199759Y-63934038D01*
X146011068Y-63935732D01*
X145924494Y-63936690D01*
X145237200Y-63944500D01*
X145077984Y-64030838D01*
X144901143Y-64150981D01*
X144763273Y-64300689D01*
X144669133Y-64462152D01*
X144634965Y-64543302D01*
X144614638Y-64619064D01*
X144604826Y-64707896D01*
X144602202Y-64828258D01*
X144602200Y-64833500D01*
X144604568Y-64954826D01*
X144613867Y-65043667D01*
X144633390Y-65118209D01*
X144666430Y-65196637D01*
X144668884Y-65201800D01*
X144777093Y-65382968D01*
X144912158Y-65524515D01*
X145080918Y-65633511D01*
X145091682Y-65638884D01*
X145261531Y-65722500D01*
X145261531Y-66348675D01*
X145199894Y-66309630D01*
X145153421Y-66289016D01*
X145107093Y-66271199D01*
X145062402Y-66257420D01*
X145012245Y-66247163D01*
X144949520Y-66239916D01*
X144867122Y-66235163D01*
X144757949Y-66232391D01*
X144614899Y-66231085D01*
X144430867Y-66230733D01*
X144348200Y-66230742D01*
X144146735Y-66231007D01*
X143988943Y-66231987D01*
X143867694Y-66234210D01*
X143775861Y-66238202D01*
X143706316Y-66244489D01*
X143651931Y-66253598D01*
X143605578Y-66266055D01*
X143560128Y-66282387D01*
X143539778Y-66290454D01*
X143386217Y-66374523D01*
X143243159Y-66493849D01*
X143123850Y-66635214D01*
X143041531Y-66785399D01*
X143040004Y-66789300D01*
X142991069Y-66977272D01*
X142980225Y-67177957D01*
X143007544Y-67373106D01*
X143037317Y-67467522D01*
X143131225Y-67641811D01*
X143265909Y-67795268D01*
X143432692Y-67918671D01*
X143491965Y-67950574D01*
X143661118Y-68033900D01*
X144292066Y-68042221D01*
X144490851Y-68044541D01*
X144646509Y-68045339D01*
X144646509Y-68784147D01*
X144555655Y-68783545D01*
X144366297Y-68783342D01*
X144184126Y-68784331D01*
X144014421Y-68787038D01*
X143865166Y-68791195D01*
X143744343Y-68796534D01*
X143659935Y-68802787D01*
X143623951Y-68808279D01*
X143454327Y-68879663D01*
X143296052Y-68991563D01*
X143159959Y-69133698D01*
X143056880Y-69295789D01*
X143021454Y-69380100D01*
X142982326Y-69560190D01*
X142980323Y-69754617D01*
X143014566Y-69944015D01*
X143051718Y-70046235D01*
X143141813Y-70197525D01*
X143266791Y-70339869D01*
X143411482Y-70457855D01*
X143515314Y-70517209D01*
X143553164Y-70533887D01*
X143591044Y-70546929D01*
X143635502Y-70556783D01*
X143693084Y-70563894D01*
X143770336Y-70568707D01*
X143873804Y-70571669D01*
X144010035Y-70573224D01*
X144185574Y-70573818D01*
X144348200Y-70573900D01*
X144348200Y-73107982D01*
X144221256Y-73034968D01*
X143802700Y-72737113D01*
X143412954Y-72400055D01*
X143055322Y-72027038D01*
X142733108Y-71621308D01*
X142449616Y-71186109D01*
X142359537Y-71026290D01*
X142132196Y-70553995D01*
X141952263Y-70065853D01*
X141820154Y-69565248D01*
X141736284Y-69055566D01*
X141701069Y-68540192D01*
X141714924Y-68022510D01*
X141778266Y-67505907D01*
X141873053Y-67063449D01*
X142027719Y-66564069D01*
X142228237Y-66084777D01*
X142472781Y-65628135D01*
X142759522Y-65196704D01*
X143086635Y-64793045D01*
X143452291Y-64419720D01*
X143854662Y-64079288D01*
X144157700Y-63861588D01*
X144442717Y-63687508D01*
X144763306Y-63521020D01*
X145104251Y-63368684D01*
X145450333Y-63237060D01*
X145786335Y-63132707D01*
X145935700Y-63095120D01*
X146294659Y-63027797D01*
X146679691Y-62983247D01*
X147074422Y-62962214D01*
X147462479Y-62965440D01*
X147827490Y-62993669D01*
X147916638Y-63005201D01*
X148437736Y-63104251D01*
X148943245Y-63251410D01*
X149431205Y-63445848D01*
X149899659Y-63686738D01*
X150346647Y-63973252D01*
X150535059Y-64112816D01*
X150727518Y-64261555D01*
X151208159Y-64230812D01*
X151352839Y-64223556D01*
X151541373Y-64217233D01*
X151767757Y-64211843D01*
X152025989Y-64207384D01*
X152310064Y-64203854D01*
X152613978Y-64201254D01*
X152931728Y-64199580D01*
X153257309Y-64198833D01*
X153584719Y-64199011D01*
X153907954Y-64200112D01*
X154221009Y-64202135D01*
X154517881Y-64205079D01*
X154792566Y-64208944D01*
X155039061Y-64213726D01*
X155251362Y-64219426D01*
X155423465Y-64226042D01*
X155524200Y-64231717D01*
X155998767Y-64266048D01*
X156426616Y-64300551D01*
X156811830Y-64335585D01*
X157158491Y-64371512D01*
X157327600Y-64390992D01*
X158320018Y-64528021D01*
X159280134Y-64697710D01*
X160207017Y-64899729D01*
X161099736Y-65133747D01*
X161957359Y-65399431D01*
X162778957Y-65696451D01*
X163563599Y-66024476D01*
X164310354Y-66383173D01*
X165018291Y-66772213D01*
X165686479Y-67191264D01*
X166186320Y-67543827D01*
X166822955Y-68046564D01*
X167417287Y-68577375D01*
X167969451Y-69136409D01*
X168479580Y-69723813D01*
X168947808Y-70339737D01*
X169374268Y-70984327D01*
X169546020Y-71272400D01*
X169850594Y-71840194D01*
X170131701Y-72445304D01*
X170386008Y-73078406D01*
X170610176Y-73730174D01*
X170800872Y-74391283D01*
X170954757Y-75052408D01*
X171018097Y-75387200D01*
X171042765Y-75526321D01*
X171065704Y-75650772D01*
X171085003Y-75750547D01*
X171098752Y-75815636D01*
X171103189Y-75832819D01*
X171106338Y-75840978D01*
X171112131Y-75848043D01*
X171123406Y-75853892D01*
X171143001Y-75858402D01*
X171173753Y-75861451D01*
X171218501Y-75862917D01*
X171280082Y-75862676D01*
X171361334Y-75860607D01*
X171465094Y-75856587D01*
X171594201Y-75850494D01*
X171751491Y-75842205D01*
X171939803Y-75831597D01*
X172161975Y-75818548D01*
X172420843Y-75802937D01*
X172719247Y-75784639D01*
X173060023Y-75763533D01*
X173446009Y-75739497D01*
X173850300Y-75714264D01*
X174228626Y-75690739D01*
X174599808Y-75667839D01*
X174959826Y-75645804D01*
X175304664Y-75624871D01*
X175630302Y-75605280D01*
X175932721Y-75587267D01*
X176207905Y-75571072D01*
X176451833Y-75556931D01*
X176660488Y-75545085D01*
X176829852Y-75535771D01*
X176955905Y-75529226D01*
X177025300Y-75526047D01*
X177492369Y-75520855D01*
X177988535Y-75540259D01*
X178499097Y-75583123D01*
X179009351Y-75648310D01*
X179355994Y-75706158D01*
X179931962Y-75829589D01*
X180512729Y-75987505D01*
X181087728Y-76176128D01*
X181646390Y-76391680D01*
X182178148Y-76630382D01*
X182672434Y-76888459D01*
X182687868Y-76897196D01*
X182851337Y-76989976D01*
X182929168Y-76931588D01*
X183333254Y-76656786D01*
X183765778Y-76415489D01*
X184217489Y-76211882D01*
X184679137Y-76050148D01*
X185127900Y-75937187D01*
X185504232Y-75873056D01*
X185860650Y-75835817D01*
X186191872Y-75825560D01*
X186492618Y-75842377D01*
X186757605Y-75886358D01*
X186839200Y-75907685D01*
X187153632Y-76023713D01*
X187437857Y-76180232D01*
X187690685Y-76376034D01*
X187910927Y-76609914D01*
X188097393Y-76880667D01*
X188248896Y-77187085D01*
X188333959Y-77423611D01*
X188391672Y-77609700D01*
X188402474Y-90081100D01*
X188315199Y-89782615D01*
X188176692Y-89369287D01*
X188002315Y-88949041D01*
X187842163Y-88620600D01*
X187783515Y-88509535D01*
X187732293Y-88414788D01*
X187693533Y-88345515D01*
X187672271Y-88310873D01*
X187670912Y-88309240D01*
X187642928Y-88313598D01*
X187587286Y-88343414D01*
X187515890Y-88392281D01*
X187514019Y-88393681D01*
X187328939Y-88513317D01*
X187112771Y-88621603D01*
X186885176Y-88709449D01*
X186740800Y-88751189D01*
X186654565Y-88770480D01*
X186654565Y-85572600D01*
X186888705Y-85572424D01*
X187077645Y-85571706D01*
X187226984Y-85570167D01*
X187342321Y-85567524D01*
X187429255Y-85563496D01*
X187493385Y-85557802D01*
X187540310Y-85550160D01*
X187575629Y-85540289D01*
X187604941Y-85527908D01*
X187611761Y-85524503D01*
X187736821Y-85435445D01*
X187822198Y-85320417D01*
X187864900Y-85187302D01*
X187861935Y-85043986D01*
X187832031Y-84944064D01*
X187773516Y-84834499D01*
X187697194Y-84758267D01*
X187604400Y-84705971D01*
X187572865Y-84693233D01*
X187535871Y-84683020D01*
X187487752Y-84675052D01*
X187422844Y-84669051D01*
X187335481Y-84664736D01*
X187220000Y-84661829D01*
X187070735Y-84660050D01*
X186882023Y-84659120D01*
X186648197Y-84658759D01*
X186647203Y-84658758D01*
X186387673Y-84659433D01*
X186287279Y-84660495D01*
X186287279Y-82547146D01*
X186501563Y-82546555D01*
X186712026Y-82544916D01*
X187557422Y-82537300D01*
X187665455Y-82465771D01*
X187769528Y-82368537D01*
X187839011Y-82244201D01*
X187869710Y-82105515D01*
X187857427Y-81965227D01*
X187844084Y-81923004D01*
X187807832Y-81855463D01*
X187755181Y-81785488D01*
X187748834Y-81778522D01*
X187713475Y-81742185D01*
X187678494Y-81712592D01*
X187638501Y-81689053D01*
X187588108Y-81670875D01*
X187521926Y-81657367D01*
X187434564Y-81647835D01*
X187320633Y-81641588D01*
X187174744Y-81637934D01*
X186991509Y-81636181D01*
X186765536Y-81635636D01*
X186650650Y-81635605D01*
X186650650Y-79502000D01*
X186896791Y-79501905D01*
X187097567Y-79501143D01*
X187258411Y-79499004D01*
X187384758Y-79494776D01*
X187482041Y-79487747D01*
X187555694Y-79477208D01*
X187611153Y-79462446D01*
X187653850Y-79442749D01*
X187689220Y-79417407D01*
X187722697Y-79385707D01*
X187748993Y-79358218D01*
X187821211Y-79264692D01*
X187857153Y-79166436D01*
X187863456Y-79044109D01*
X187862559Y-79027279D01*
X187832138Y-78880248D01*
X187788853Y-78796299D01*
X187755344Y-78747411D01*
X187722310Y-78707412D01*
X187684521Y-78675411D01*
X187636747Y-78650515D01*
X187573758Y-78631833D01*
X187490323Y-78618474D01*
X187381212Y-78609545D01*
X187241196Y-78604155D01*
X187065043Y-78601412D01*
X186847524Y-78600425D01*
X186639200Y-78600300D01*
X186390103Y-78600398D01*
X186186440Y-78601269D01*
X186022846Y-78603785D01*
X185893953Y-78608818D01*
X185794396Y-78617236D01*
X185718810Y-78629912D01*
X185661827Y-78647715D01*
X185618083Y-78671516D01*
X185582210Y-78702186D01*
X185548844Y-78740595D01*
X185516563Y-78782447D01*
X185478115Y-78839202D01*
X185456570Y-78894480D01*
X185447237Y-78966412D01*
X185445400Y-79057500D01*
X185447975Y-79159487D01*
X185458710Y-79228707D01*
X185482117Y-79283064D01*
X185513816Y-79328953D01*
X185547969Y-79372393D01*
X185581209Y-79407877D01*
X185618821Y-79436212D01*
X185666089Y-79458200D01*
X185728299Y-79474646D01*
X185810735Y-79486356D01*
X185918681Y-79494132D01*
X186057423Y-79498780D01*
X186232245Y-79501105D01*
X186448431Y-79501910D01*
X186650650Y-79502000D01*
X186650650Y-81635605D01*
X186635897Y-81635600D01*
X185754663Y-81635600D01*
X185644438Y-81700196D01*
X185533078Y-81792830D01*
X185462239Y-81915260D01*
X185433340Y-82064856D01*
X185432700Y-82093050D01*
X185449554Y-82233161D01*
X185503917Y-82346320D01*
X185585342Y-82432007D01*
X185625584Y-82463157D01*
X185668486Y-82488425D01*
X185719503Y-82508359D01*
X185784092Y-82523505D01*
X185867708Y-82534410D01*
X185975808Y-82541621D01*
X186113846Y-82545684D01*
X186287279Y-82547146D01*
X186287279Y-84660495D01*
X186166611Y-84661773D01*
X185986544Y-84665705D01*
X185849997Y-84671158D01*
X185759499Y-84678058D01*
X185720103Y-84685216D01*
X185628365Y-84738329D01*
X185538660Y-84820238D01*
X185471195Y-84912303D01*
X185468532Y-84917289D01*
X185447172Y-84983877D01*
X185434351Y-85073450D01*
X185432700Y-85115400D01*
X185439810Y-85206221D01*
X185457801Y-85287002D01*
X185468532Y-85313512D01*
X185534189Y-85405595D01*
X185623196Y-85488547D01*
X185715347Y-85543727D01*
X185720103Y-85545585D01*
X185768111Y-85553653D01*
X185864322Y-85560394D01*
X186006156Y-85565733D01*
X186191032Y-85569596D01*
X186416369Y-85571908D01*
X186654565Y-85572600D01*
X186654565Y-88770480D01*
X186634607Y-88774945D01*
X186534369Y-88790902D01*
X186425836Y-88800304D01*
X186294758Y-88804398D01*
X186131200Y-88804464D01*
X185615348Y-88775308D01*
X185108863Y-88696950D01*
X184614490Y-88570552D01*
X184134974Y-88397277D01*
X183673058Y-88178290D01*
X183231487Y-87914754D01*
X182813006Y-87607831D01*
X182420360Y-87258686D01*
X182372000Y-87210900D01*
X182017748Y-86822657D01*
X181706195Y-86409640D01*
X181439085Y-85974362D01*
X181254346Y-85602364D01*
X181121965Y-85305900D01*
X177606782Y-85305900D01*
X177094665Y-85305876D01*
X176630511Y-85305881D01*
X176211485Y-85306036D01*
X175834751Y-85306458D01*
X175497473Y-85307268D01*
X175196814Y-85308585D01*
X174929938Y-85310526D01*
X174694010Y-85313212D01*
X174486193Y-85316762D01*
X174303651Y-85321294D01*
X174143549Y-85326928D01*
X174003049Y-85333783D01*
X173879316Y-85341977D01*
X173769515Y-85351630D01*
X173670808Y-85362861D01*
X173580359Y-85375789D01*
X173495334Y-85390533D01*
X173412895Y-85407213D01*
X173330206Y-85425946D01*
X173244432Y-85446853D01*
X173152736Y-85470052D01*
X173052282Y-85495662D01*
X173045443Y-85497397D01*
X172518240Y-85656702D01*
X172011285Y-85860824D01*
X171526982Y-86107309D01*
X171067736Y-86393702D01*
X170635952Y-86717547D01*
X170234034Y-87076388D01*
X169864387Y-87467770D01*
X169529417Y-87889238D01*
X169231527Y-88338337D01*
X168973124Y-88812610D01*
X168756610Y-89309603D01*
X168584392Y-89826860D01*
X168506496Y-90131900D01*
X168481025Y-90244243D01*
X168458504Y-90346438D01*
X168438750Y-90442225D01*
X168421583Y-90535344D01*
X168406821Y-90629535D01*
X168394282Y-90728539D01*
X168383786Y-90836095D01*
X168375149Y-90955944D01*
X168368192Y-91091824D01*
X168362732Y-91247477D01*
X168358589Y-91426642D01*
X168355579Y-91633060D01*
X168353523Y-91870470D01*
X168352239Y-92142612D01*
X168351544Y-92453227D01*
X168351259Y-92806054D01*
X168351200Y-93204833D01*
X168351200Y-93332300D01*
X168351385Y-93761646D01*
X168351963Y-94142847D01*
X168352970Y-94478559D01*
X168354437Y-94771437D01*
X168356401Y-95024135D01*
X168358894Y-95239309D01*
X168361951Y-95419613D01*
X168365606Y-95567702D01*
X168369894Y-95686231D01*
X168374847Y-95777855D01*
X168380501Y-95845229D01*
X168383835Y-95872300D01*
X168405426Y-96015086D01*
X168429400Y-96159779D01*
X168453877Y-96296383D01*
X168476974Y-96414901D01*
X168496811Y-96505335D01*
X168511505Y-96557690D01*
X168513838Y-96563061D01*
X168541654Y-96566887D01*
X168605753Y-96538954D01*
X168707273Y-96478746D01*
X168726082Y-96466717D01*
X168812197Y-96409076D01*
X168879148Y-96360178D01*
X168917360Y-96327221D01*
X168922700Y-96318900D01*
X168914794Y-96284029D01*
X168894809Y-96220266D01*
X168883190Y-96186644D01*
X168813491Y-95932697D01*
X168772103Y-95652038D01*
X168759651Y-95360551D01*
X168776763Y-95074118D01*
X168824065Y-94808623D01*
X168828189Y-94792509D01*
X168942307Y-94452843D01*
X169099133Y-94138222D01*
X169295562Y-93851769D01*
X169528487Y-93596612D01*
X169794804Y-93375873D01*
X170091407Y-93192681D01*
X170415192Y-93050158D01*
X170624500Y-92984586D01*
X170776805Y-92954601D01*
X170962763Y-92934621D01*
X171167121Y-92924812D01*
X171374627Y-92925341D01*
X171570029Y-92936377D01*
X171738073Y-92958086D01*
X171801877Y-92971675D01*
X172135755Y-93080026D01*
X172449321Y-93230997D01*
X172737819Y-93420852D01*
X172996494Y-93645857D01*
X173220589Y-93902277D01*
X173405350Y-94186378D01*
X173445348Y-94262306D01*
X173500601Y-94381006D01*
X173554180Y-94510756D01*
X173595005Y-94624627D01*
X173596881Y-94630606D01*
X173625048Y-94721373D01*
X173647828Y-94794792D01*
X173660518Y-94835710D01*
X173660842Y-94836754D01*
X173686909Y-94843480D01*
X173751050Y-94817456D01*
X173821046Y-94778343D01*
X173959726Y-94706647D01*
X174130631Y-94634740D01*
X174315638Y-94569155D01*
X174496622Y-94516425D01*
X174627495Y-94487680D01*
X174800906Y-94468078D01*
X175004490Y-94462553D01*
X175221192Y-94470168D01*
X175433959Y-94489985D01*
X175625735Y-94521065D01*
X175737408Y-94548736D01*
X176077246Y-94675529D01*
X176388580Y-94843597D01*
X176669164Y-95051013D01*
X176916752Y-95295849D01*
X177129097Y-95576178D01*
X177303955Y-95890074D01*
X177306119Y-95894682D01*
X177385393Y-96076110D01*
X177443324Y-96241705D01*
X177482724Y-96405461D01*
X177506406Y-96581370D01*
X177517180Y-96783427D01*
X177518529Y-96951800D01*
X177516996Y-97114251D01*
X177513350Y-97238001D01*
X177506270Y-97335143D01*
X177494432Y-97417772D01*
X177476515Y-97497980D01*
X177451197Y-97587861D01*
X177447710Y-97599500D01*
X177403225Y-97730666D01*
X177344865Y-97880128D01*
X177283088Y-98021590D01*
X177263705Y-98062095D01*
X177216422Y-98161322D01*
X177180236Y-98243510D01*
X177159573Y-98298217D01*
X177156724Y-98314591D01*
X177182850Y-98330317D01*
X177246260Y-98357400D01*
X177335978Y-98391345D01*
X177394800Y-98412081D01*
X177717305Y-98548576D01*
X178010632Y-98724286D01*
X178272626Y-98935409D01*
X178501130Y-99178144D01*
X178693990Y-99448689D01*
X178849048Y-99743242D01*
X178964150Y-100058001D01*
X179037138Y-100389164D01*
X179065858Y-100732929D01*
X179048153Y-101085496D01*
X179018920Y-101276150D01*
X179000846Y-101371400D01*
X181133198Y-101371400D01*
X181178532Y-101250750D01*
X181239350Y-101106055D01*
X181322039Y-100933684D01*
X181419250Y-100747517D01*
X181523632Y-100561432D01*
X181627836Y-100389309D01*
X181666154Y-100330000D01*
X181977953Y-99902621D01*
X182324075Y-99511820D01*
X182702209Y-99158981D01*
X183110047Y-98845486D01*
X183545279Y-98572718D01*
X184005595Y-98342061D01*
X184488686Y-98154896D01*
X184992243Y-98012607D01*
X185513956Y-97916576D01*
X185741120Y-97890060D01*
X186123011Y-97869297D01*
X186471281Y-97884829D01*
X186788381Y-97937184D01*
X187076762Y-98026889D01*
X187338874Y-98154469D01*
X187514019Y-98271058D01*
X187585706Y-98320261D01*
X187641966Y-98350577D01*
X187670863Y-98355602D01*
X187671119Y-98355361D01*
X187689123Y-98326872D01*
X187725551Y-98261924D01*
X187775634Y-98169254D01*
X187834603Y-98057600D01*
X187854928Y-98018600D01*
X188072139Y-97559841D01*
X188246916Y-97099206D01*
X188316793Y-96875600D01*
X188402109Y-96583500D01*
X188400317Y-102743000D01*
X188400071Y-103300419D01*
X188399665Y-103845275D01*
X188399107Y-104375326D01*
X188398406Y-104888329D01*
X188397569Y-105382043D01*
X188396605Y-105854225D01*
X188395520Y-106302633D01*
X188394325Y-106725025D01*
X188393025Y-107119158D01*
X188391631Y-107482792D01*
X188390148Y-107813682D01*
X188388586Y-108109587D01*
X188386952Y-108368265D01*
X188385255Y-108587474D01*
X188383502Y-108764971D01*
X188381702Y-108898515D01*
X188379862Y-108985862D01*
X188377990Y-109024771D01*
X188377890Y-109025443D01*
X188299613Y-109344564D01*
X188177304Y-109643421D01*
X188014600Y-109918200D01*
X187815138Y-110165090D01*
X187582554Y-110380279D01*
X187320484Y-110559955D01*
X187032565Y-110700305D01*
X186722434Y-110797518D01*
X186678053Y-110807342D01*
X186654565Y-110810710D01*
X186654565Y-107797600D01*
X186888705Y-107797424D01*
X187077645Y-107796706D01*
X187226984Y-107795167D01*
X187342321Y-107792524D01*
X187429255Y-107788496D01*
X187493385Y-107782802D01*
X187540310Y-107775160D01*
X187575629Y-107765289D01*
X187604941Y-107752908D01*
X187611761Y-107749503D01*
X187736821Y-107660445D01*
X187822198Y-107545417D01*
X187864900Y-107412302D01*
X187861935Y-107268986D01*
X187832031Y-107169064D01*
X187773516Y-107059499D01*
X187697194Y-106983267D01*
X187604400Y-106930971D01*
X187572865Y-106918233D01*
X187535871Y-106908020D01*
X187487752Y-106900052D01*
X187422844Y-106894051D01*
X187335481Y-106889736D01*
X187220000Y-106886829D01*
X187070735Y-106885050D01*
X186882023Y-106884120D01*
X186648197Y-106883759D01*
X186647203Y-106883758D01*
X186387673Y-106884433D01*
X186280032Y-106885572D01*
X186280032Y-104772150D01*
X186492488Y-104771614D01*
X186712026Y-104769916D01*
X187557422Y-104762300D01*
X187665455Y-104690771D01*
X187769528Y-104593537D01*
X187839011Y-104469201D01*
X187869710Y-104330515D01*
X187857427Y-104190227D01*
X187844084Y-104148004D01*
X187807832Y-104080463D01*
X187755181Y-104010488D01*
X187748834Y-104003522D01*
X187713513Y-103967212D01*
X187678589Y-103937637D01*
X187638680Y-103914110D01*
X187588405Y-103895943D01*
X187522381Y-103882448D01*
X187435228Y-103872939D01*
X187321564Y-103866726D01*
X187176006Y-103863122D01*
X186993174Y-103861441D01*
X186767685Y-103860993D01*
X186650650Y-103861014D01*
X186650650Y-101727000D01*
X186896791Y-101726905D01*
X187097567Y-101726143D01*
X187258411Y-101724004D01*
X187384758Y-101719776D01*
X187482041Y-101712747D01*
X187555694Y-101702208D01*
X187611153Y-101687446D01*
X187653850Y-101667749D01*
X187689220Y-101642407D01*
X187722697Y-101610707D01*
X187748993Y-101583218D01*
X187821211Y-101489692D01*
X187857153Y-101391436D01*
X187863456Y-101269109D01*
X187862559Y-101252279D01*
X187832138Y-101105248D01*
X187788853Y-101021299D01*
X187755344Y-100972411D01*
X187722310Y-100932412D01*
X187684521Y-100900411D01*
X187636747Y-100875515D01*
X187573758Y-100856833D01*
X187490323Y-100843474D01*
X187381212Y-100834545D01*
X187241196Y-100829155D01*
X187065043Y-100826412D01*
X186847524Y-100825425D01*
X186639200Y-100825300D01*
X186390103Y-100825398D01*
X186186440Y-100826269D01*
X186022846Y-100828785D01*
X185893953Y-100833818D01*
X185794396Y-100842236D01*
X185718810Y-100854912D01*
X185661827Y-100872715D01*
X185618083Y-100896516D01*
X185582210Y-100927186D01*
X185548844Y-100965595D01*
X185516563Y-101007447D01*
X185478115Y-101064202D01*
X185456570Y-101119480D01*
X185447237Y-101191412D01*
X185445400Y-101282500D01*
X185447975Y-101384487D01*
X185458710Y-101453707D01*
X185482117Y-101508064D01*
X185513816Y-101553953D01*
X185547969Y-101597393D01*
X185581209Y-101632877D01*
X185618821Y-101661212D01*
X185666089Y-101683200D01*
X185728299Y-101699646D01*
X185810735Y-101711356D01*
X185918681Y-101719132D01*
X186057423Y-101723780D01*
X186232245Y-101726105D01*
X186448431Y-101726910D01*
X186650650Y-101727000D01*
X186650650Y-103861014D01*
X186633665Y-103861018D01*
X186398401Y-103861210D01*
X186208380Y-103861758D01*
X186058049Y-103862986D01*
X185941851Y-103865221D01*
X185854231Y-103868787D01*
X185789634Y-103874011D01*
X185742504Y-103881216D01*
X185707285Y-103890730D01*
X185678423Y-103902877D01*
X185650360Y-103917982D01*
X185649117Y-103918686D01*
X185543089Y-104005559D01*
X185471680Y-104119509D01*
X185435881Y-104249540D01*
X185436684Y-104384654D01*
X185475078Y-104513853D01*
X185552055Y-104626141D01*
X185582801Y-104654868D01*
X185623558Y-104686550D01*
X185666631Y-104712253D01*
X185717488Y-104732536D01*
X185781602Y-104747956D01*
X185864442Y-104759070D01*
X185971480Y-104766435D01*
X186108186Y-104770609D01*
X186280032Y-104772150D01*
X186280032Y-106885572D01*
X186166611Y-106886773D01*
X185986544Y-106890705D01*
X185849997Y-106896158D01*
X185759499Y-106903058D01*
X185720103Y-106910216D01*
X185628365Y-106963329D01*
X185538660Y-107045238D01*
X185471195Y-107137303D01*
X185468532Y-107142289D01*
X185447172Y-107208877D01*
X185434351Y-107298450D01*
X185432700Y-107340400D01*
X185439810Y-107431221D01*
X185457801Y-107512002D01*
X185468532Y-107538512D01*
X185534189Y-107630595D01*
X185623196Y-107713547D01*
X185715347Y-107768727D01*
X185720103Y-107770585D01*
X185768111Y-107778653D01*
X185864322Y-107785394D01*
X186006156Y-107790733D01*
X186191032Y-107794596D01*
X186416369Y-107796908D01*
X186654565Y-107797600D01*
X186654565Y-110810710D01*
X186486181Y-110834862D01*
X186256576Y-110846564D01*
X185999537Y-110843176D01*
X185725362Y-110825423D01*
X185444348Y-110794033D01*
X185166794Y-110749731D01*
X184902998Y-110693244D01*
X184842472Y-110677847D01*
X184435365Y-110551391D01*
X184025455Y-110387525D01*
X183627988Y-110193279D01*
X183258207Y-109975687D01*
X183122860Y-109884666D01*
X182856765Y-109698431D01*
X182436582Y-109914396D01*
X181763553Y-110234591D01*
X181084050Y-110505979D01*
X180393099Y-110730091D01*
X179685726Y-110908461D01*
X178956954Y-111042619D01*
X178625500Y-111088379D01*
X178503989Y-111100467D01*
X178341846Y-111112036D01*
X178149238Y-111122570D01*
X177936334Y-111131550D01*
X177713301Y-111138461D01*
X177584100Y-111141303D01*
X177514619Y-111142564D01*
X177447953Y-111143632D01*
X177382276Y-111144408D01*
X177315765Y-111144789D01*
X177246595Y-111144677D01*
X177172941Y-111143969D01*
X177092980Y-111142564D01*
X177004886Y-111140363D01*
X176906836Y-111137264D01*
X176797005Y-111133167D01*
X176673569Y-111127971D01*
X176534703Y-111121574D01*
X176378583Y-111113877D01*
X176203384Y-111104777D01*
X176007283Y-111094176D01*
X175788455Y-111081971D01*
X175545075Y-111068063D01*
X175275319Y-111052349D01*
X174977363Y-111034730D01*
X174649382Y-111015105D01*
X174289552Y-110993372D01*
X173896048Y-110969432D01*
X173467047Y-110943183D01*
X173000723Y-110914524D01*
X172495253Y-110883356D01*
X171948812Y-110849576D01*
X171359575Y-110813084D01*
X170725719Y-110773780D01*
X170045419Y-110731562D01*
X169316850Y-110686330D01*
X169062400Y-110670531D01*
X168432480Y-110631365D01*
X167813587Y-110592779D01*
X167207779Y-110554904D01*
X166617114Y-110517873D01*
X166043653Y-110481818D01*
X165489454Y-110446871D01*
X164956575Y-110413163D01*
X164447077Y-110380828D01*
X163963018Y-110349996D01*
X163506458Y-110320800D01*
X163079454Y-110293372D01*
X162684067Y-110267844D01*
X162322355Y-110244348D01*
X161996377Y-110223017D01*
X161708193Y-110203981D01*
X161459862Y-110187373D01*
X161253442Y-110173326D01*
X161090992Y-110161971D01*
X160974572Y-110153440D01*
X160906241Y-110147865D01*
X160896300Y-110146884D01*
X160157861Y-110043479D01*
X159436204Y-109893008D01*
X158728287Y-109694607D01*
X158723420Y-109692882D01*
X158723420Y-105943939D01*
X158747015Y-105937911D01*
X158796130Y-105910095D01*
X158873641Y-105858579D01*
X158982421Y-105781451D01*
X159125346Y-105676796D01*
X159305292Y-105542704D01*
X159308800Y-105540076D01*
X159641445Y-105280254D01*
X159991325Y-104987782D01*
X160347802Y-104672483D01*
X160700243Y-104344180D01*
X161038011Y-104012696D01*
X161350471Y-103687854D01*
X161539539Y-103479751D01*
X162112225Y-102795204D01*
X162639948Y-102087135D01*
X163122476Y-101356098D01*
X163559579Y-100602645D01*
X163951025Y-99827332D01*
X164296583Y-99030712D01*
X164596023Y-98213339D01*
X164849113Y-97375766D01*
X165055622Y-96518547D01*
X165215319Y-95642236D01*
X165327974Y-94747387D01*
X165365360Y-94310200D01*
X165373082Y-94161377D01*
X165378184Y-93971048D01*
X165380801Y-93748434D01*
X165381072Y-93502754D01*
X165379133Y-93243229D01*
X165375121Y-92979079D01*
X165369174Y-92719523D01*
X165361427Y-92473782D01*
X165352020Y-92251075D01*
X165341087Y-92060623D01*
X165329878Y-91922600D01*
X165216528Y-91030738D01*
X165055652Y-90155825D01*
X164847891Y-89299041D01*
X164593885Y-88461567D01*
X164294277Y-87644580D01*
X163949706Y-86849262D01*
X163560814Y-86076790D01*
X163128241Y-85328345D01*
X162652629Y-84605106D01*
X162134618Y-83908253D01*
X161574849Y-83238964D01*
X160973964Y-82598419D01*
X160332602Y-81987798D01*
X159651406Y-81408279D01*
X159589084Y-81358419D01*
X159446201Y-81246172D01*
X159302580Y-81136031D01*
X159163992Y-81032155D01*
X159036209Y-80938704D01*
X158925005Y-80859836D01*
X158836150Y-80799711D01*
X158775418Y-80762488D01*
X158748580Y-80752326D01*
X158748261Y-80752572D01*
X158751003Y-80780225D01*
X158768723Y-80843851D01*
X158798062Y-80932048D01*
X158814632Y-80977991D01*
X158913688Y-81270686D01*
X159009524Y-81600337D01*
X159098756Y-81953101D01*
X159177999Y-82315135D01*
X159243867Y-82672594D01*
X159269999Y-82840270D01*
X159294823Y-83021288D01*
X159315511Y-83198079D01*
X159332393Y-83377408D01*
X159345800Y-83566041D01*
X159356063Y-83770743D01*
X159363513Y-83998277D01*
X159368480Y-84255411D01*
X159371294Y-84548908D01*
X159372287Y-84885533D01*
X159372300Y-84933160D01*
X159372300Y-86010765D01*
X159565659Y-86267933D01*
X160005271Y-86894651D01*
X160401664Y-87547416D01*
X160754154Y-88224501D01*
X161062059Y-88924179D01*
X161324694Y-89644724D01*
X161541377Y-90384408D01*
X161711423Y-91141505D01*
X161834149Y-91914288D01*
X161849071Y-92036900D01*
X161866483Y-92220840D01*
X161881131Y-92444389D01*
X161892809Y-92696423D01*
X161901311Y-92965816D01*
X161906429Y-93241443D01*
X161907957Y-93512177D01*
X161905688Y-93766894D01*
X161899415Y-93994468D01*
X161888975Y-94183200D01*
X161804804Y-94965883D01*
X161672401Y-95733084D01*
X161492075Y-96483976D01*
X161264132Y-97217731D01*
X160988882Y-97933522D01*
X160666631Y-98630520D01*
X160297688Y-99307898D01*
X159882360Y-99964827D01*
X159581278Y-100389096D01*
X159377280Y-100664091D01*
X159365206Y-101951196D01*
X159361777Y-102277750D01*
X159357760Y-102559890D01*
X159352687Y-102804002D01*
X159346087Y-103016470D01*
X159337491Y-103203681D01*
X159326431Y-103372020D01*
X159312438Y-103527872D01*
X159295041Y-103677624D01*
X159273773Y-103827661D01*
X159248164Y-103984367D01*
X159217744Y-104154130D01*
X159194095Y-104280161D01*
X159150121Y-104489554D01*
X159093410Y-104725847D01*
X159027455Y-104976828D01*
X158955744Y-105230283D01*
X158881771Y-105474001D01*
X158809025Y-105695768D01*
X158740998Y-105883371D01*
X158722469Y-105930091D01*
X158723420Y-105943939D01*
X158723420Y-109692882D01*
X158031065Y-109447411D01*
X157341496Y-109150554D01*
X157266993Y-109115314D01*
X156901587Y-108940956D01*
X156543093Y-109304915D01*
X156078837Y-109750719D01*
X155606229Y-110152233D01*
X155116336Y-110515963D01*
X154600224Y-110848416D01*
X154048956Y-111156097D01*
X153985830Y-111188315D01*
X153985830Y-107314443D01*
X154116682Y-107291578D01*
X154239729Y-107227646D01*
X154342259Y-107132140D01*
X154411563Y-107014555D01*
X154420049Y-106990100D01*
X154424131Y-106951660D01*
X154427772Y-106867584D01*
X154430908Y-106743035D01*
X154433474Y-106583173D01*
X154435406Y-106393163D01*
X154436641Y-106178166D01*
X154437115Y-105943345D01*
X154436764Y-105693862D01*
X154436621Y-105651300D01*
X154435448Y-105362261D01*
X154434106Y-105119636D01*
X154432437Y-104919042D01*
X154430280Y-104756092D01*
X154427477Y-104626403D01*
X154423869Y-104525588D01*
X154419296Y-104449264D01*
X154413599Y-104393044D01*
X154406619Y-104352545D01*
X154398198Y-104323381D01*
X154388175Y-104301167D01*
X154387576Y-104300064D01*
X154299583Y-104188183D01*
X154182862Y-104110032D01*
X154048849Y-104068825D01*
X153908981Y-104067774D01*
X153774692Y-104110093D01*
X153753248Y-104121827D01*
X153665345Y-104190073D01*
X153594827Y-104274251D01*
X153587177Y-104287018D01*
X153574415Y-104310439D01*
X153563721Y-104334359D01*
X153554911Y-104363230D01*
X153547805Y-104401502D01*
X153542217Y-104453626D01*
X153537967Y-104524054D01*
X153534870Y-104617235D01*
X153532745Y-104737622D01*
X153531408Y-104889664D01*
X153530677Y-105077813D01*
X153530369Y-105306520D01*
X153530300Y-105580236D01*
X153530300Y-105672155D01*
X153530864Y-106012295D01*
X153532550Y-106304371D01*
X153535349Y-106547927D01*
X153539252Y-106742509D01*
X153544249Y-106887662D01*
X153550332Y-106982930D01*
X153557391Y-107027597D01*
X153623492Y-107136322D01*
X153725362Y-107226723D01*
X153848734Y-107289247D01*
X153979340Y-107314342D01*
X153985830Y-107314443D01*
X153985830Y-111188315D01*
X153888895Y-111237789D01*
X153305623Y-111507915D01*
X152717118Y-111735636D01*
X152181444Y-111902773D01*
X152181444Y-107313295D01*
X152324990Y-107303479D01*
X152394862Y-107280684D01*
X152476122Y-107230122D01*
X152556754Y-107153518D01*
X152621794Y-107067504D01*
X152655854Y-106990685D01*
X152670262Y-106930403D01*
X152680091Y-106895900D01*
X152681776Y-106866146D01*
X152683163Y-106790610D01*
X152684234Y-106674311D01*
X152684974Y-106522267D01*
X152685366Y-106339495D01*
X152685394Y-106131013D01*
X152685041Y-105901840D01*
X152684290Y-105656994D01*
X152684219Y-105638600D01*
X152683009Y-105355204D01*
X152681669Y-105118062D01*
X152680018Y-104922629D01*
X152677874Y-104764359D01*
X152675059Y-104638707D01*
X152671390Y-104541128D01*
X152666686Y-104467075D01*
X152660768Y-104412004D01*
X152653453Y-104371369D01*
X152644563Y-104340624D01*
X152633914Y-104315224D01*
X152631375Y-104310017D01*
X152546366Y-104189296D01*
X152431606Y-104109717D01*
X152286885Y-104071142D01*
X152262171Y-104068854D01*
X152103909Y-104078401D01*
X151972593Y-104130623D01*
X151870495Y-104223791D01*
X151799888Y-104356175D01*
X151776679Y-104438495D01*
X151769445Y-104500924D01*
X151763713Y-104613128D01*
X151759497Y-104774099D01*
X151756811Y-104982835D01*
X151755672Y-105238329D01*
X151756092Y-105539577D01*
X151757267Y-105768582D01*
X151759097Y-106055425D01*
X151760938Y-106296054D01*
X151763317Y-106495052D01*
X151766764Y-106657004D01*
X151771806Y-106786492D01*
X151778973Y-106888101D01*
X151788792Y-106966413D01*
X151801793Y-107026011D01*
X151818504Y-107071481D01*
X151839453Y-107107405D01*
X151865169Y-107138366D01*
X151896181Y-107168948D01*
X151921482Y-107192735D01*
X152043691Y-107275777D01*
X152181444Y-107313295D01*
X152181444Y-111902773D01*
X152115250Y-111923427D01*
X151491886Y-112073763D01*
X150838893Y-112189120D01*
X150697404Y-112209110D01*
X150543934Y-112225149D01*
X150518475Y-112226833D01*
X150518475Y-107303123D01*
X150653774Y-107264276D01*
X150765711Y-107193427D01*
X150797372Y-107166438D01*
X150824104Y-107140261D01*
X150846329Y-107110586D01*
X150864465Y-107073101D01*
X150878934Y-107023495D01*
X150890156Y-106957458D01*
X150898552Y-106870678D01*
X150904541Y-106758844D01*
X150908545Y-106617646D01*
X150910984Y-106442772D01*
X150912277Y-106229912D01*
X150912847Y-105974754D01*
X150913105Y-105682039D01*
X150913260Y-105392413D01*
X150913133Y-105149145D01*
X150912565Y-104947791D01*
X150911397Y-104783907D01*
X150909470Y-104653052D01*
X150906626Y-104550781D01*
X150902704Y-104472653D01*
X150897546Y-104414224D01*
X150890992Y-104371051D01*
X150882884Y-104338691D01*
X150873063Y-104312702D01*
X150863342Y-104292484D01*
X150782376Y-104184092D01*
X150736326Y-104152738D01*
X150736326Y-100739823D01*
X150910662Y-100734354D01*
X150949502Y-100732133D01*
X151379039Y-100681149D01*
X151798397Y-100581459D01*
X152203749Y-100434759D01*
X152591267Y-100242743D01*
X152957122Y-100007108D01*
X153297487Y-99729548D01*
X153373049Y-99658721D01*
X153683890Y-99328533D01*
X153947931Y-98980296D01*
X154166642Y-98611201D01*
X154341491Y-98218440D01*
X154473948Y-97799206D01*
X154558890Y-97392277D01*
X154577423Y-97228207D01*
X154587184Y-97028773D01*
X154588556Y-96808577D01*
X154581927Y-96582222D01*
X154567679Y-96364310D01*
X154546200Y-96169446D01*
X154523106Y-96035444D01*
X154403440Y-95593160D01*
X154240202Y-95176884D01*
X154033727Y-94787069D01*
X153784348Y-94424167D01*
X153492399Y-94088633D01*
X153158212Y-93780917D01*
X152782121Y-93501474D01*
X152550677Y-93355933D01*
X152534744Y-93340335D01*
X152541581Y-93319960D01*
X152577008Y-93289371D01*
X152646847Y-93243136D01*
X152719086Y-93198697D01*
X153081804Y-92949335D01*
X153411069Y-92662820D01*
X153705066Y-92341737D01*
X153961985Y-91988676D01*
X154180013Y-91606224D01*
X154357336Y-91196968D01*
X154492142Y-90763498D01*
X154526407Y-90618254D01*
X154546475Y-90519233D01*
X154561185Y-90425962D01*
X154571295Y-90327718D01*
X154577567Y-90213777D01*
X154580759Y-90073417D01*
X154581631Y-89895914D01*
X154581567Y-89839800D01*
X154578473Y-89598594D01*
X154568941Y-89394852D01*
X154550990Y-89215434D01*
X154522640Y-89047201D01*
X154481914Y-88877012D01*
X154426830Y-88691729D01*
X154393108Y-88588789D01*
X154230962Y-88183207D01*
X154025427Y-87800565D01*
X153977792Y-87731448D01*
X153977792Y-81955079D01*
X154109511Y-81934739D01*
X154231433Y-81875397D01*
X154334525Y-81778161D01*
X154396956Y-81674751D01*
X154407639Y-81648335D01*
X154416562Y-81617202D01*
X154423882Y-81576816D01*
X154429756Y-81522642D01*
X154434342Y-81450143D01*
X154437796Y-81354785D01*
X154440275Y-81232030D01*
X154441936Y-81077342D01*
X154442936Y-80886187D01*
X154443432Y-80654028D01*
X154443582Y-80376328D01*
X154443584Y-80327500D01*
X154443475Y-80042115D01*
X154443045Y-79802993D01*
X154442136Y-79605598D01*
X154440590Y-79445396D01*
X154438253Y-79317850D01*
X154434965Y-79218424D01*
X154430570Y-79142582D01*
X154424912Y-79085788D01*
X154417833Y-79043506D01*
X154409177Y-79011200D01*
X154398785Y-78984335D01*
X154396956Y-78980250D01*
X154320253Y-78863453D01*
X154214023Y-78772657D01*
X154090276Y-78714607D01*
X153961019Y-78696049D01*
X153902824Y-78702672D01*
X153780357Y-78749426D01*
X153669108Y-78830181D01*
X153587675Y-78931018D01*
X153580940Y-78943513D01*
X153569405Y-78967491D01*
X153559748Y-78993277D01*
X153551829Y-79025268D01*
X153545508Y-79067863D01*
X153540646Y-79125461D01*
X153537105Y-79202460D01*
X153534743Y-79303259D01*
X153533422Y-79432256D01*
X153533003Y-79593850D01*
X153533345Y-79792440D01*
X153534310Y-80032424D01*
X153535758Y-80318200D01*
X153535988Y-80361533D01*
X153543000Y-81677696D01*
X153614163Y-81770975D01*
X153721085Y-81874307D01*
X153845306Y-81935305D01*
X153977792Y-81955079D01*
X153977792Y-87731448D01*
X153779778Y-87444135D01*
X153497288Y-87117187D01*
X153181230Y-86822994D01*
X152834880Y-86564826D01*
X152461510Y-86345954D01*
X152278464Y-86264689D01*
X152278464Y-81954517D01*
X152299383Y-81951240D01*
X152430841Y-81903045D01*
X152544758Y-81816995D01*
X152629281Y-81704202D01*
X152666647Y-81607081D01*
X152671619Y-81560330D01*
X152675954Y-81469103D01*
X152679649Y-81339719D01*
X152682700Y-81178500D01*
X152685106Y-80991765D01*
X152686863Y-80785833D01*
X152687969Y-80567026D01*
X152688420Y-80341662D01*
X152688215Y-80116063D01*
X152687349Y-79896548D01*
X152685820Y-79689436D01*
X152683626Y-79501049D01*
X152680764Y-79337706D01*
X152677231Y-79205727D01*
X152673023Y-79111431D01*
X152668139Y-79061140D01*
X152667780Y-79059466D01*
X152613179Y-78923354D01*
X152524960Y-78816843D01*
X152412214Y-78743043D01*
X152284034Y-78705066D01*
X152149513Y-78706021D01*
X152017742Y-78749019D01*
X151930342Y-78807194D01*
X151894500Y-78837135D01*
X151864245Y-78864570D01*
X151839105Y-78893846D01*
X151818606Y-78929310D01*
X151802277Y-78975311D01*
X151789644Y-79036194D01*
X151780234Y-79116306D01*
X151773575Y-79219996D01*
X151769194Y-79351609D01*
X151766618Y-79515493D01*
X151765375Y-79715996D01*
X151764991Y-79957464D01*
X151764994Y-80244244D01*
X151765000Y-80327500D01*
X151765120Y-80619755D01*
X151765573Y-80865535D01*
X151766495Y-81069166D01*
X151768023Y-81234975D01*
X151770294Y-81367286D01*
X151773445Y-81470425D01*
X151777614Y-81548717D01*
X151782936Y-81606488D01*
X151789550Y-81648063D01*
X151797591Y-81677769D01*
X151807198Y-81699930D01*
X151808537Y-81702425D01*
X151895832Y-81815608D01*
X152011715Y-81899641D01*
X152143490Y-81948089D01*
X152278464Y-81954517D01*
X152278464Y-86264689D01*
X152064395Y-86169650D01*
X151921064Y-86118825D01*
X151726480Y-86060591D01*
X151519586Y-86009877D01*
X151309579Y-85967996D01*
X151105653Y-85936256D01*
X150917007Y-85915970D01*
X150752835Y-85908447D01*
X150622335Y-85915000D01*
X150566004Y-85925681D01*
X150500464Y-85955362D01*
X150500464Y-81954517D01*
X150521383Y-81951240D01*
X150652841Y-81903045D01*
X150766758Y-81816995D01*
X150851281Y-81704202D01*
X150888647Y-81607081D01*
X150893619Y-81560330D01*
X150897954Y-81469103D01*
X150901649Y-81339719D01*
X150904700Y-81178500D01*
X150907106Y-80991765D01*
X150908863Y-80785833D01*
X150909969Y-80567026D01*
X150910420Y-80341662D01*
X150910215Y-80116063D01*
X150909349Y-79896548D01*
X150907820Y-79689436D01*
X150905626Y-79501049D01*
X150902764Y-79337706D01*
X150899231Y-79205727D01*
X150895023Y-79111431D01*
X150890139Y-79061140D01*
X150889780Y-79059466D01*
X150835179Y-78923354D01*
X150746960Y-78816843D01*
X150634214Y-78743043D01*
X150506034Y-78705066D01*
X150371513Y-78706021D01*
X150239742Y-78749019D01*
X150152342Y-78807194D01*
X150116500Y-78837135D01*
X150086245Y-78864570D01*
X150061105Y-78893846D01*
X150040606Y-78929310D01*
X150024277Y-78975311D01*
X150011644Y-79036194D01*
X150002234Y-79116306D01*
X149995575Y-79219996D01*
X149991194Y-79351609D01*
X149988618Y-79515493D01*
X149987375Y-79715996D01*
X149986991Y-79957464D01*
X149986994Y-80244244D01*
X149987000Y-80327500D01*
X149987120Y-80619755D01*
X149987573Y-80865535D01*
X149988495Y-81069166D01*
X149990023Y-81234975D01*
X149992294Y-81367286D01*
X149995445Y-81470425D01*
X149999614Y-81548717D01*
X150004936Y-81606488D01*
X150011550Y-81648063D01*
X150019591Y-81677769D01*
X150029198Y-81699930D01*
X150030537Y-81702425D01*
X150117832Y-81815608D01*
X150233715Y-81899641D01*
X150365490Y-81948089D01*
X150500464Y-81954517D01*
X150500464Y-85955362D01*
X150438187Y-85983567D01*
X150329852Y-86076006D01*
X150250138Y-86191714D01*
X150208182Y-86319407D01*
X150204015Y-86372700D01*
X150221161Y-86469819D01*
X150265474Y-86577629D01*
X150326272Y-86672941D01*
X150358299Y-86707559D01*
X150409267Y-86747967D01*
X150467571Y-86778262D01*
X150542858Y-86800965D01*
X150644773Y-86818594D01*
X150782962Y-86833671D01*
X150869474Y-86841105D01*
X151241659Y-86890482D01*
X151585061Y-86976770D01*
X151907922Y-87102096D01*
X151941971Y-87118086D01*
X152152701Y-87225508D01*
X152333359Y-87334516D01*
X152500532Y-87456687D01*
X152670807Y-87603598D01*
X152764741Y-87692315D01*
X153028070Y-87981441D01*
X153249210Y-88298681D01*
X153427527Y-88642924D01*
X153562385Y-89013059D01*
X153599856Y-89151155D01*
X153626675Y-89265997D01*
X153645416Y-89367418D01*
X153657508Y-89469585D01*
X153664381Y-89586669D01*
X153667464Y-89732837D01*
X153668050Y-89827100D01*
X153666493Y-90021246D01*
X153659810Y-90177319D01*
X153647077Y-90307873D01*
X153627372Y-90425462D01*
X153622324Y-90449400D01*
X153514732Y-90829568D01*
X153364554Y-91185211D01*
X153174775Y-91513759D01*
X152948382Y-91812643D01*
X152688359Y-92079294D01*
X152397692Y-92311143D01*
X152079366Y-92505618D01*
X151736367Y-92660152D01*
X151371680Y-92772174D01*
X150988290Y-92839115D01*
X150830018Y-92852714D01*
X150654753Y-92869157D01*
X150520947Y-92896538D01*
X150419817Y-92938293D01*
X150342578Y-92997856D01*
X150289857Y-93063980D01*
X150227148Y-93199723D01*
X150208183Y-93342474D01*
X150231071Y-93481805D01*
X150293919Y-93607287D01*
X150394838Y-93708491D01*
X150408424Y-93717854D01*
X150456669Y-93746074D01*
X150509424Y-93766494D01*
X150577936Y-93781494D01*
X150673449Y-93793455D01*
X150807208Y-93804758D01*
X150825211Y-93806098D01*
X151228846Y-93859412D01*
X151610798Y-93957335D01*
X151968866Y-94098434D01*
X152300845Y-94281277D01*
X152604533Y-94504432D01*
X152877728Y-94766466D01*
X153118227Y-95065947D01*
X153323827Y-95401444D01*
X153346792Y-95445509D01*
X153502895Y-95804491D01*
X153610103Y-96172991D01*
X153668618Y-96547474D01*
X153678641Y-96924409D01*
X153640373Y-97300263D01*
X153554015Y-97671503D01*
X153419769Y-98034597D01*
X153237835Y-98386012D01*
X153173483Y-98489407D01*
X153063769Y-98638721D01*
X152921882Y-98802110D01*
X152759575Y-98968129D01*
X152588600Y-99125335D01*
X152420708Y-99262282D01*
X152278688Y-99360782D01*
X151938104Y-99545348D01*
X151588690Y-99681931D01*
X151223463Y-99772773D01*
X150850544Y-99819093D01*
X150688230Y-99833343D01*
X150566545Y-99852502D01*
X150475337Y-99880039D01*
X150404455Y-99919421D01*
X150343748Y-99974116D01*
X150320902Y-100000033D01*
X150242419Y-100128516D01*
X150210488Y-100266773D01*
X150225674Y-100406145D01*
X150286068Y-100534376D01*
X150348836Y-100615121D01*
X150416575Y-100673452D01*
X150497955Y-100711957D01*
X150601648Y-100733219D01*
X150736326Y-100739823D01*
X150736326Y-104152738D01*
X150674537Y-104110667D01*
X150549712Y-104072117D01*
X150417790Y-104068350D01*
X150288657Y-104099272D01*
X150172202Y-104164790D01*
X150078312Y-104264811D01*
X150056823Y-104300064D01*
X150046820Y-104321647D01*
X150038431Y-104349589D01*
X150031515Y-104388232D01*
X150025932Y-104441918D01*
X150021542Y-104514987D01*
X150018205Y-104611784D01*
X150015780Y-104736648D01*
X150014128Y-104893924D01*
X150013108Y-105087951D01*
X150012580Y-105323073D01*
X150012405Y-105603631D01*
X150012400Y-105676700D01*
X150012485Y-105967514D01*
X150012844Y-106211950D01*
X150013630Y-106414431D01*
X150014998Y-106579379D01*
X150017100Y-106711216D01*
X150020090Y-106814365D01*
X150024122Y-106893248D01*
X150029351Y-106952287D01*
X150035929Y-106995905D01*
X150044010Y-107028524D01*
X150053748Y-107054566D01*
X150060819Y-107069617D01*
X150142916Y-107182852D01*
X150253153Y-107260674D01*
X150381637Y-107301343D01*
X150518475Y-107303123D01*
X150518475Y-112226833D01*
X150350217Y-112237969D01*
X150125460Y-112247566D01*
X149878868Y-112253936D01*
X149619646Y-112257076D01*
X149357000Y-112256982D01*
X149100137Y-112253651D01*
X148858261Y-112247078D01*
X148640579Y-112237262D01*
X148456295Y-112224197D01*
X148329196Y-112210029D01*
X148269382Y-112201019D01*
X148163080Y-112184428D01*
X148013938Y-112160849D01*
X147825608Y-112130871D01*
X147601738Y-112095086D01*
X147345979Y-112054085D01*
X147061980Y-112008458D01*
X146753392Y-111958796D01*
X146423863Y-111905690D01*
X146077045Y-111849732D01*
X145716587Y-111791511D01*
X145346138Y-111731620D01*
X144969348Y-111670648D01*
X144786722Y-111641070D01*
X144786722Y-107487668D01*
X145013813Y-107485480D01*
X145235180Y-107477334D01*
X145437765Y-107463432D01*
X145608508Y-107443973D01*
X145669000Y-107433926D01*
X146094118Y-107338229D01*
X146487889Y-107215706D01*
X146864764Y-107061513D01*
X147053300Y-106970048D01*
X147393598Y-106780770D01*
X147704771Y-106572952D01*
X147999478Y-106337115D01*
X148290372Y-106063780D01*
X148364281Y-105988167D01*
X148689104Y-105614656D01*
X148971603Y-105213732D01*
X149210806Y-104787487D01*
X149405744Y-104338013D01*
X149555446Y-103867403D01*
X149658941Y-103377747D01*
X149693327Y-103124000D01*
X149704352Y-102970887D01*
X149708824Y-102782413D01*
X149707183Y-102573536D01*
X149699867Y-102359211D01*
X149687318Y-102154396D01*
X149669975Y-101974047D01*
X149656733Y-101879400D01*
X149551940Y-101392916D01*
X149402479Y-100927076D01*
X149210738Y-100484136D01*
X148979105Y-100066352D01*
X148709970Y-99675982D01*
X148405718Y-99315281D01*
X148068740Y-98986506D01*
X147701422Y-98691912D01*
X147306154Y-98433757D01*
X146885323Y-98214296D01*
X146441317Y-98035786D01*
X145976525Y-97900483D01*
X145493334Y-97810643D01*
X145329758Y-97791308D01*
X145019733Y-97775331D01*
X145019733Y-88905499D01*
X145513276Y-88864088D01*
X145995479Y-88773952D01*
X146463972Y-88635817D01*
X146916386Y-88450411D01*
X147350350Y-88218461D01*
X147763495Y-87940694D01*
X147849584Y-87874896D01*
X148214280Y-87558503D01*
X148543534Y-87208688D01*
X148835678Y-86829327D01*
X149089044Y-86424302D01*
X149301962Y-85997489D01*
X149472765Y-85552769D01*
X149599784Y-85094019D01*
X149681351Y-84625118D01*
X149715796Y-84149945D01*
X149701453Y-83672379D01*
X149693690Y-83587742D01*
X149619411Y-83096697D01*
X149498836Y-82622305D01*
X149334084Y-82167216D01*
X149127272Y-81734079D01*
X148880516Y-81325545D01*
X148595935Y-80944261D01*
X148275644Y-80592879D01*
X147921762Y-80274048D01*
X147536406Y-79990416D01*
X147121692Y-79744634D01*
X146679738Y-79539352D01*
X146367500Y-79425152D01*
X145891992Y-79295116D01*
X145409817Y-79213427D01*
X144924971Y-79179806D01*
X144441451Y-79193974D01*
X143963253Y-79255653D01*
X143494373Y-79364563D01*
X143038808Y-79520427D01*
X142679534Y-79682297D01*
X142247129Y-79927500D01*
X141846285Y-80211273D01*
X141478938Y-80530921D01*
X141147021Y-80883749D01*
X140852468Y-81267062D01*
X140597213Y-81678166D01*
X140383190Y-82114364D01*
X140212332Y-82572963D01*
X140086573Y-83051267D01*
X140029350Y-83375500D01*
X140010158Y-83557865D01*
X139998285Y-83774707D01*
X139993708Y-84010238D01*
X139996403Y-84248669D01*
X140006347Y-84474211D01*
X140023516Y-84671076D01*
X140031353Y-84731141D01*
X140126104Y-85212952D01*
X140266035Y-85675805D01*
X140448624Y-86117361D01*
X140671354Y-86535279D01*
X140931704Y-86927220D01*
X141227155Y-87290843D01*
X141555187Y-87623809D01*
X141913282Y-87923777D01*
X142298919Y-88188409D01*
X142709580Y-88415362D01*
X143142744Y-88602299D01*
X143595892Y-88746878D01*
X144066506Y-88846759D01*
X144517220Y-88897457D01*
X145019733Y-88905499D01*
X145019733Y-97775331D01*
X144839980Y-97766066D01*
X144359216Y-97789190D01*
X143890042Y-97858652D01*
X143435035Y-97972428D01*
X142996769Y-98128492D01*
X142577822Y-98324818D01*
X142180769Y-98559380D01*
X141808185Y-98830153D01*
X141462647Y-99135112D01*
X141146731Y-99472231D01*
X140863011Y-99839483D01*
X140614065Y-100234844D01*
X140402468Y-100656288D01*
X140230795Y-101101789D01*
X140101624Y-101569322D01*
X140030515Y-101958571D01*
X140010700Y-102146684D01*
X139998444Y-102368411D01*
X139993736Y-102607901D01*
X139996567Y-102849302D01*
X140006925Y-103076762D01*
X140024801Y-103274431D01*
X140031393Y-103323941D01*
X140127626Y-103811085D01*
X140271500Y-104282344D01*
X140461530Y-104734763D01*
X140696229Y-105165381D01*
X140974110Y-105571243D01*
X141293688Y-105949390D01*
X141412315Y-106071855D01*
X141786130Y-106410373D01*
X142183455Y-106703866D01*
X142604006Y-106952194D01*
X143047497Y-107155215D01*
X143513642Y-107312788D01*
X144002157Y-107424771D01*
X144201687Y-107456478D01*
X144367600Y-107473367D01*
X144566965Y-107483697D01*
X144786722Y-107487668D01*
X144786722Y-111641070D01*
X144589868Y-111609187D01*
X144211347Y-111547827D01*
X143837435Y-111487160D01*
X143471782Y-111427776D01*
X143118038Y-111370266D01*
X142779852Y-111315222D01*
X142460874Y-111263233D01*
X142164755Y-111214891D01*
X141895143Y-111170788D01*
X141655690Y-111131512D01*
X141450044Y-111097657D01*
X141281855Y-111069812D01*
X141154774Y-111048568D01*
X141147800Y-111047392D01*
X140969005Y-111015162D01*
X140759631Y-110974123D01*
X140538292Y-110928122D01*
X140323607Y-110881008D01*
X140169900Y-110845278D01*
X140099257Y-110829030D01*
X139981195Y-110802773D01*
X139818000Y-110766995D01*
X139611956Y-110722186D01*
X139365349Y-110668834D01*
X139080463Y-110607427D01*
X138759583Y-110538455D01*
X138404994Y-110462404D01*
X138018982Y-110379765D01*
X137603831Y-110291026D01*
X137161825Y-110196674D01*
X136695251Y-110097200D01*
X136206393Y-109993091D01*
X135697537Y-109884835D01*
X135170966Y-109772922D01*
X134628966Y-109657840D01*
X134073822Y-109540078D01*
X133507819Y-109420124D01*
X133159500Y-109346359D01*
X132592244Y-109226160D01*
X132036656Y-109108231D01*
X131494884Y-108993036D01*
X130969077Y-108881037D01*
X130461382Y-108772698D01*
X129973948Y-108668483D01*
X129508923Y-108568855D01*
X129068455Y-108474278D01*
X128654692Y-108385215D01*
X128269782Y-108302130D01*
X127915874Y-108225486D01*
X127595116Y-108155747D01*
X127309655Y-108093376D01*
X127061641Y-108038836D01*
X126853220Y-107992592D01*
X126686542Y-107955106D01*
X126563754Y-107926842D01*
X126487005Y-107908264D01*
X126461674Y-107901220D01*
X126178760Y-107778817D01*
X125923441Y-107617302D01*
X125697720Y-107421445D01*
X125503602Y-107196014D01*
X125343088Y-106945780D01*
X125218181Y-106675513D01*
X125130884Y-106389982D01*
X125083200Y-106093958D01*
X125077133Y-105792209D01*
X125114684Y-105489505D01*
X125114684Y-105489505D01*
G37*
X125114684Y-105489505D02*
X125197857Y-105190617D01*
X125259637Y-105038651D01*
X125302134Y-104950663D01*
X125349891Y-104865002D01*
X125406583Y-104777248D01*
X125475884Y-104682977D01*
X125561467Y-104577768D01*
X125667008Y-104457199D01*
X125796180Y-104316849D01*
X125952656Y-104152295D01*
X126140113Y-103959116D01*
X126248882Y-103848092D01*
X126346205Y-103748952D01*
X126476576Y-103616091D01*
X126637486Y-103452068D01*
X126826426Y-103259442D01*
X127040886Y-103040772D01*
X127278358Y-102798619D01*
X127536331Y-102535540D01*
X127812296Y-102254096D01*
X128103743Y-101956844D01*
X128408164Y-101646345D01*
X128723049Y-101325158D01*
X129045889Y-100995842D01*
X129374173Y-100660956D01*
X129705393Y-100323060D01*
X129855057Y-100170373D01*
X130173690Y-99845356D01*
X130482657Y-99530304D01*
X130780090Y-99227117D01*
X131064120Y-98937697D01*
X131332879Y-98663943D01*
X131584498Y-98407757D01*
X131817108Y-98171038D01*
X132028842Y-97955689D01*
X132217829Y-97763608D01*
X132382203Y-97596696D01*
X132520094Y-97456855D01*
X132629633Y-97345984D01*
X132708953Y-97265985D01*
X132756184Y-97218758D01*
X132769707Y-97205800D01*
X132771590Y-97230321D01*
X132773335Y-97300366D01*
X132774898Y-97410658D01*
X132776235Y-97555921D01*
X132777302Y-97730880D01*
X132778055Y-97930259D01*
X132778450Y-98148781D01*
X132778499Y-98260938D01*
X132778499Y-99316075D01*
X130817862Y-101315288D01*
X130542159Y-101596400D01*
X130266564Y-101877378D01*
X129994364Y-102154868D01*
X129728852Y-102425517D01*
X129473315Y-102685973D01*
X129231044Y-102932883D01*
X129005330Y-103162895D01*
X128799461Y-103372655D01*
X128616728Y-103558810D01*
X128460420Y-103718009D01*
X128333828Y-103846898D01*
X128257962Y-103924100D01*
X128088183Y-104097515D01*
X127950498Y-104240032D01*
X127840776Y-104356363D01*
X127754884Y-104451221D01*
X127688687Y-104529318D01*
X127638053Y-104595367D01*
X127598848Y-104654080D01*
X127566940Y-104710170D01*
X127564592Y-104714659D01*
X127457989Y-104971328D01*
X127398970Y-105235051D01*
X127386706Y-105500188D01*
X127420369Y-105761102D01*
X127499133Y-106012154D01*
X127622168Y-106247707D01*
X127788646Y-106462120D01*
X127827065Y-106501953D01*
X128036891Y-106677244D01*
X128273897Y-106810049D01*
X128539582Y-106901192D01*
X128565294Y-106907460D01*
X128619451Y-106919621D01*
X128718042Y-106941083D01*
X128857683Y-106971133D01*
X129034989Y-107009059D01*
X129246576Y-107054148D01*
X129489059Y-107105688D01*
X129759053Y-107162965D01*
X130053175Y-107225268D01*
X130368038Y-107291884D01*
X130700259Y-107362100D01*
X131046452Y-107435203D01*
X131403234Y-107510481D01*
X131767219Y-107587221D01*
X132135023Y-107664711D01*
X132503262Y-107742237D01*
X132868549Y-107819088D01*
X133227502Y-107894551D01*
X133576736Y-107967912D01*
X133912865Y-108038460D01*
X134232504Y-108105482D01*
X134532271Y-108168265D01*
X134808779Y-108226096D01*
X135058644Y-108278264D01*
X135278481Y-108324054D01*
X135464907Y-108362755D01*
X135614535Y-108393655D01*
X135723982Y-108416039D01*
X135789863Y-108429196D01*
X135808974Y-108432601D01*
X135803958Y-108415904D01*
X135768695Y-108370469D01*
X135709058Y-108303276D01*
X135632635Y-108223051D01*
X135165032Y-107711083D01*
X134734551Y-107168028D01*
X134342931Y-106597277D01*
X133991910Y-106002222D01*
X133683226Y-105386253D01*
X133418619Y-104752763D01*
X133199826Y-104105143D01*
X133028586Y-103446784D01*
X132934202Y-102958900D01*
X132899572Y-102739175D01*
X132870232Y-102528271D01*
X132845792Y-102319595D01*
X132825857Y-102106553D01*
X132810035Y-101882551D01*
X132797934Y-101640995D01*
X132789158Y-101375292D01*
X132783317Y-101078847D01*
X132780017Y-100745066D01*
X132778865Y-100367356D01*
X132778858Y-100352282D01*
X132778500Y-99345863D01*
X133432550Y-99332261D01*
X133704849Y-99324924D01*
X133937461Y-99314359D01*
X134141460Y-99299276D01*
X134327920Y-99278387D01*
X134507917Y-99250401D01*
X134692525Y-99214030D01*
X134892820Y-99167984D01*
X134937500Y-99157066D01*
X135450219Y-99004880D01*
X135952159Y-98804228D01*
X136439411Y-98556981D01*
X136908067Y-98265005D01*
X137119619Y-98113738D01*
X137258267Y-98002512D01*
X137419013Y-97860801D01*
X137592476Y-97697995D01*
X137769278Y-97523482D01*
X137940038Y-97346649D01*
X138095375Y-97176885D01*
X138225911Y-97023577D01*
X138286909Y-96945433D01*
X138604504Y-96479457D01*
X138874904Y-95995645D01*
X139098841Y-95492273D01*
X139277044Y-94967618D01*
X139410242Y-94419955D01*
X139450783Y-94195900D01*
X139471230Y-94030975D01*
X139486108Y-93827462D01*
X139495418Y-93597264D01*
X139499162Y-93352287D01*
X139497343Y-93104437D01*
X139489963Y-92865617D01*
X139477024Y-92647733D01*
X139458528Y-92462689D01*
X139450462Y-92406106D01*
X139340006Y-91863364D01*
X139183918Y-91339556D01*
X138984270Y-90836926D01*
X138743130Y-90357716D01*
X138462569Y-89904171D01*
X138144657Y-89478533D01*
X137791463Y-89083047D01*
X137405057Y-88719955D01*
X136987509Y-88391500D01*
X136540888Y-88099927D01*
X136067266Y-87847478D01*
X135568710Y-87636397D01*
X135047292Y-87468928D01*
X134848600Y-87418375D01*
X134611619Y-87367785D01*
X134369290Y-87327815D01*
X134111364Y-87297343D01*
X133827595Y-87275249D01*
X133507733Y-87260412D01*
X133365875Y-87256219D01*
X132772150Y-87241095D01*
X132785716Y-85981398D01*
X132790062Y-85633357D01*
X132795155Y-85332258D01*
X132801124Y-85074247D01*
X132808098Y-84855468D01*
X132816205Y-84672069D01*
X132825573Y-84520193D01*
X132836331Y-84395988D01*
X132839559Y-84366100D01*
X132945237Y-83643324D01*
X133096039Y-82943750D01*
X133292213Y-82266852D01*
X133534007Y-81612103D01*
X133821669Y-80978973D01*
X134155446Y-80366937D01*
X134535588Y-79775465D01*
X134962341Y-79204030D01*
X135435954Y-78652105D01*
X135612944Y-78463329D01*
X135707726Y-78362482D01*
X135784566Y-78276818D01*
X135838896Y-78211773D01*
X135866150Y-78172780D01*
X135864267Y-78164282D01*
X135833969Y-78171251D01*
X135756747Y-78188084D01*
X135635390Y-78214189D01*
X135472688Y-78248975D01*
X135271429Y-78291851D01*
X135034402Y-78342226D01*
X134764395Y-78399509D01*
X134464199Y-78463108D01*
X134136602Y-78532432D01*
X133784392Y-78606890D01*
X133410359Y-78685890D01*
X133017292Y-78768842D01*
X132607979Y-78855155D01*
X132185210Y-78944236D01*
X132143338Y-78953055D01*
X131717671Y-79042862D01*
X131304149Y-79130412D01*
X130905649Y-79215079D01*
X130525050Y-79296242D01*
X130165228Y-79373276D01*
X129829062Y-79445557D01*
X129519429Y-79512462D01*
X129239207Y-79573367D01*
X128991274Y-79627649D01*
X128778507Y-79674684D01*
X128603783Y-79713848D01*
X128469981Y-79744518D01*
X128379978Y-79766070D01*
X128336651Y-79777881D01*
X128335618Y-79778259D01*
X128101556Y-79893532D01*
X127894035Y-80048600D01*
X127716873Y-80237827D01*
X127573886Y-80455575D01*
X127468890Y-80696205D01*
X127405703Y-80954079D01*
X127387736Y-81178400D01*
X127396807Y-81382302D01*
X127429902Y-81564413D01*
X127491923Y-81744585D01*
X127566506Y-81902300D01*
X127602716Y-81966218D01*
X127648032Y-82033238D01*
X127707254Y-82108967D01*
X127785179Y-82199014D01*
X127886606Y-82308984D01*
X128016331Y-82444486D01*
X128131613Y-82562700D01*
X128212534Y-82645258D01*
X128326100Y-82761125D01*
X128469398Y-82907331D01*
X128639517Y-83080905D01*
X128833544Y-83278876D01*
X129048567Y-83498271D01*
X129281675Y-83736120D01*
X129529955Y-83989451D01*
X129790495Y-84255293D01*
X130060383Y-84530676D01*
X130336706Y-84812626D01*
X130616553Y-85098174D01*
X130691585Y-85174734D01*
X132778500Y-87304167D01*
X132778500Y-88356084D01*
X132778262Y-88581685D01*
X132777585Y-88790713D01*
X132776518Y-88977883D01*
X132775114Y-89137913D01*
X132773422Y-89265517D01*
X132771495Y-89355411D01*
X132769383Y-89402311D01*
X132768324Y-89408000D01*
X132749277Y-89389844D01*
X132694716Y-89335383D01*
X132604650Y-89244624D01*
X132479089Y-89117579D01*
X132318042Y-88954255D01*
X132121518Y-88754662D01*
X131889526Y-88518810D01*
X131622075Y-88246708D01*
X131319174Y-87938365D01*
X130980833Y-87593790D01*
X130607060Y-87212993D01*
X130197864Y-86795982D01*
X129753255Y-86342768D01*
X129273241Y-85853359D01*
X128757833Y-85327764D01*
X128207038Y-84765993D01*
X127620866Y-84168056D01*
X126999326Y-83533961D01*
X126342427Y-82863718D01*
X126097209Y-82613500D01*
X125954456Y-82466194D01*
X125818136Y-82322453D01*
X125693847Y-82188415D01*
X125587185Y-82070215D01*
X125503750Y-81973990D01*
X125449137Y-81905876D01*
X125440049Y-81893085D01*
X125279491Y-81619236D01*
X125167218Y-81339852D01*
X125100771Y-81046985D01*
X125077694Y-80732687D01*
X125077641Y-80721200D01*
X125097178Y-80394511D01*
X125158692Y-80093764D01*
X125264107Y-79814357D01*
X125415348Y-79551686D01*
X125614336Y-79301148D01*
X125714700Y-79196356D01*
X125909839Y-79019844D01*
X126104254Y-78882282D01*
X126313054Y-78774353D01*
X126530100Y-78693457D01*
X126568792Y-78683769D01*
X126655128Y-78664083D01*
X126787034Y-78634841D01*
X126962439Y-78596486D01*
X127179269Y-78549458D01*
X127435453Y-78494200D01*
X127728917Y-78431154D01*
X128057590Y-78360761D01*
X128419398Y-78283463D01*
X128812269Y-78199702D01*
X129234131Y-78109920D01*
X129682911Y-78014557D01*
X130156536Y-77914057D01*
X130652935Y-77808861D01*
X131170034Y-77699411D01*
X131705761Y-77586148D01*
X132258043Y-77469515D01*
X132824809Y-77349952D01*
X133403984Y-77227903D01*
X133527800Y-77201828D01*
X134266468Y-77046284D01*
X134957061Y-76900858D01*
X135601218Y-76765210D01*
X136200576Y-76639000D01*
X136756771Y-76521886D01*
X137271441Y-76413528D01*
X137746223Y-76313585D01*
X138182755Y-76221717D01*
X138582674Y-76137581D01*
X138947618Y-76060839D01*
X139279223Y-75991149D01*
X139579126Y-75928169D01*
X139848967Y-75871561D01*
X140090380Y-75820982D01*
X140305004Y-75776092D01*
X140494477Y-75736550D01*
X140660435Y-75702015D01*
X140804516Y-75672148D01*
X140928357Y-75646606D01*
X141033595Y-75625049D01*
X141121868Y-75607137D01*
X141194813Y-75592529D01*
X141254067Y-75580883D01*
X141301268Y-75571859D01*
X141338053Y-75565117D01*
X141366060Y-75560316D01*
X141386925Y-75557114D01*
X141402285Y-75555171D01*
X141413779Y-75554147D01*
X141423044Y-75553700D01*
X141431716Y-75553490D01*
X141441434Y-75553176D01*
X141452600Y-75552511D01*
X141492995Y-75547326D01*
X141580436Y-75534438D01*
X141711834Y-75514340D01*
X141884100Y-75487524D01*
X142094144Y-75454483D01*
X142338878Y-75415707D01*
X142615212Y-75371691D01*
X142920058Y-75322926D01*
X143250326Y-75269904D01*
X143602928Y-75213118D01*
X143974775Y-75153059D01*
X144362777Y-75090222D01*
X144763845Y-75025096D01*
X144856200Y-75010076D01*
X145261732Y-74944159D01*
X145656133Y-74880163D01*
X146036201Y-74818602D01*
X146398734Y-74759991D01*
X146740533Y-74704843D01*
X147058395Y-74653671D01*
X147349121Y-74606991D01*
X147609509Y-74565315D01*
X147836358Y-74529157D01*
X148026467Y-74499031D01*
X148176636Y-74475452D01*
X148283663Y-74458932D01*
X148344347Y-74449986D01*
X148350246Y-74449201D01*
X148697185Y-74414628D01*
X149078299Y-74393993D01*
X149478932Y-74387223D01*
X149884430Y-74394242D01*
X150280139Y-74414976D01*
X150651404Y-74449350D01*
X150749000Y-74461411D01*
X151444360Y-74577900D01*
X152127730Y-74742760D01*
X152796244Y-74954837D01*
X153447035Y-75212976D01*
X154077239Y-75516021D01*
X154683989Y-75862817D01*
X155264421Y-76252209D01*
X155353807Y-76317758D01*
X155576719Y-76486584D01*
X155776930Y-76646325D01*
X155966287Y-76807273D01*
X156156639Y-76979720D01*
X156359833Y-77173959D01*
X156508553Y-77320913D01*
X156908707Y-77720366D01*
X157245153Y-77560880D01*
X157862884Y-77288459D01*
X158478638Y-77057135D01*
X158573760Y-77025069D01*
X158726052Y-76976744D01*
X158902011Y-76924493D01*
X159090829Y-76871187D01*
X159281699Y-76819695D01*
X159463816Y-76772889D01*
X159626372Y-76733638D01*
X159758562Y-76704812D01*
X159825133Y-76692702D01*
X159893310Y-76675113D01*
X159939409Y-76642163D01*
X159966636Y-76585828D01*
X159978196Y-76498086D01*
X159977293Y-76370916D01*
X159974765Y-76318156D01*
X159965643Y-76197687D01*
X159949788Y-76105911D01*
X159921366Y-76020734D01*
X159874544Y-75920056D01*
X159864296Y-75899734D01*
X159777780Y-75758284D01*
X159656191Y-75600597D01*
X159508267Y-75436147D01*
X159342747Y-75274410D01*
X159168369Y-75124860D01*
X159102767Y-75074072D01*
X158706037Y-74801162D01*
X158261111Y-74541322D01*
X157768963Y-74294845D01*
X157230564Y-74062021D01*
X156646887Y-73843143D01*
X156018902Y-73638502D01*
X155347583Y-73448389D01*
X154633901Y-73273097D01*
X153878828Y-73112918D01*
X153083335Y-72968142D01*
X152248396Y-72839062D01*
X151374981Y-72725969D01*
X151218900Y-72707917D01*
X150672800Y-72645849D01*
X150571200Y-72722508D01*
X150166134Y-73004493D01*
X149746994Y-73251045D01*
X149320977Y-73458585D01*
X148895281Y-73623534D01*
X148822797Y-73644897D01*
X148822797Y-71471821D01*
X149100501Y-71438837D01*
X149370278Y-71362972D01*
X149629567Y-71246190D01*
X149875807Y-71090458D01*
X150106434Y-70897742D01*
X150318887Y-70670009D01*
X150510604Y-70409223D01*
X150679023Y-70117353D01*
X150821582Y-69796363D01*
X150935719Y-69448219D01*
X151018872Y-69074889D01*
X151040605Y-68935600D01*
X151052702Y-68800069D01*
X151058046Y-68627767D01*
X151057147Y-68432205D01*
X151050517Y-68226890D01*
X151038665Y-68025332D01*
X151022104Y-67841037D01*
X151001343Y-67687516D01*
X150991427Y-67635146D01*
X150893340Y-67264619D01*
X150763700Y-66919871D01*
X150605116Y-66603401D01*
X150420200Y-66317708D01*
X150211561Y-66065293D01*
X149981808Y-65848653D01*
X149733553Y-65670290D01*
X149469405Y-65532701D01*
X149191974Y-65438386D01*
X148903870Y-65389846D01*
X148643704Y-65386971D01*
X148343933Y-65430415D01*
X148057150Y-65520994D01*
X147785647Y-65656183D01*
X147531714Y-65833457D01*
X147297641Y-66050290D01*
X147085719Y-66304158D01*
X146898238Y-66592535D01*
X146737490Y-66912896D01*
X146605764Y-67262715D01*
X146505351Y-67639467D01*
X146478630Y-67773912D01*
X146456347Y-67940392D01*
X146441991Y-68141394D01*
X146435576Y-68361710D01*
X146437112Y-68586133D01*
X146446611Y-68799455D01*
X146464087Y-68986469D01*
X146477592Y-69075300D01*
X146569524Y-69471690D01*
X146694936Y-69840983D01*
X146851896Y-70180302D01*
X147038470Y-70486772D01*
X147252727Y-70757513D01*
X147492734Y-70989651D01*
X147756558Y-71180307D01*
X147967749Y-71293815D01*
X148253859Y-71401275D01*
X148539729Y-71459955D01*
X148822797Y-71471821D01*
X148822797Y-73644897D01*
X148559549Y-73722487D01*
X148029930Y-73830627D01*
X147502507Y-73888406D01*
X146978863Y-73895998D01*
X146460579Y-73853580D01*
X145949239Y-73761327D01*
X145446426Y-73619415D01*
X145288000Y-73557873D01*
X145288000Y-72885300D01*
X146659600Y-72885300D01*
X146802348Y-72818367D01*
X146985610Y-72707251D01*
X147134780Y-72565371D01*
X147247249Y-72399388D01*
X147320413Y-72215961D01*
X147351665Y-72021749D01*
X147338398Y-71823412D01*
X147278006Y-71627609D01*
X147272867Y-71616175D01*
X147176838Y-71455102D01*
X147049139Y-71311989D01*
X146903811Y-71202167D01*
X146882825Y-71190304D01*
X146803909Y-71152054D01*
X146720438Y-71122300D01*
X146625266Y-71100214D01*
X146511247Y-71084970D01*
X146371232Y-71075742D01*
X146198075Y-71071704D01*
X145984629Y-71072029D01*
X145871737Y-71073404D01*
X145684812Y-71076262D01*
X145540895Y-71079265D01*
X145432198Y-71083266D01*
X145350934Y-71089123D01*
X145289316Y-71097690D01*
X145239556Y-71109824D01*
X145193868Y-71126380D01*
X145144463Y-71148213D01*
X145129951Y-71154904D01*
X144981873Y-71244200D01*
X144842501Y-71366042D01*
X144726610Y-71505768D01*
X144660711Y-71620615D01*
X144631849Y-71697677D01*
X144614433Y-71782480D01*
X144605949Y-71891133D01*
X144604020Y-71983600D01*
X144604848Y-72104191D01*
X144611448Y-72190749D01*
X144626753Y-72259965D01*
X144653696Y-72328527D01*
X144671041Y-72364919D01*
X144786991Y-72544359D01*
X144941718Y-72694563D01*
X145122900Y-72806345D01*
X145288000Y-72885300D01*
X145288000Y-73557873D01*
X144953722Y-73428019D01*
X144665317Y-73290376D01*
X144348200Y-73107982D01*
X144348200Y-70573900D01*
X145059400Y-70573900D01*
X145200259Y-70507832D01*
X145389707Y-70394306D01*
X145537792Y-70251568D01*
X145643610Y-70081125D01*
X145706259Y-69884485D01*
X145724835Y-69663153D01*
X145724023Y-69634100D01*
X145714483Y-69507508D01*
X145693980Y-69408084D01*
X145657125Y-69312506D01*
X145642840Y-69282646D01*
X145547318Y-69134004D01*
X145419399Y-68999119D01*
X145273419Y-68891256D01*
X145159962Y-68835794D01*
X145113008Y-68819569D01*
X145064862Y-68807052D01*
X145008363Y-68797772D01*
X144936352Y-68791254D01*
X144841670Y-68787026D01*
X144717158Y-68784614D01*
X144646509Y-68784147D01*
X144646509Y-68045339D01*
X144766701Y-68044189D01*
X144859090Y-68040667D01*
X144931336Y-68034348D01*
X144991101Y-68024806D01*
X145046047Y-68011617D01*
X145092807Y-67997806D01*
X145294763Y-67911211D01*
X145460904Y-67789757D01*
X145588875Y-67636809D01*
X145676319Y-67455733D01*
X145720882Y-67249894D01*
X145725351Y-67094100D01*
X145717073Y-66976948D01*
X145699867Y-66887537D01*
X145667798Y-66802900D01*
X145631394Y-66730561D01*
X145515473Y-66559819D01*
X145367908Y-66416060D01*
X145261531Y-66348675D01*
X145261531Y-65722500D01*
X146685000Y-65722500D01*
X146830296Y-65654401D01*
X147008624Y-65543658D01*
X147154072Y-65395308D01*
X147264057Y-65212520D01*
X147323204Y-65049400D01*
X147351060Y-64908112D01*
X147350954Y-64772411D01*
X147322659Y-64619481D01*
X147318734Y-64604138D01*
X147241684Y-64403448D01*
X147124148Y-64232419D01*
X146968949Y-64094159D01*
X146778910Y-63991777D01*
X146753868Y-63982039D01*
X146708542Y-63966126D01*
X146663442Y-63953861D01*
X146611667Y-63944866D01*
X146546314Y-63938764D01*
X146460480Y-63935177D01*
X146347262Y-63933727D01*
X146199759Y-63934038D01*
X146011068Y-63935732D01*
X145924494Y-63936690D01*
X145237200Y-63944500D01*
X145077984Y-64030838D01*
X144901143Y-64150981D01*
X144763273Y-64300689D01*
X144669133Y-64462152D01*
X144634965Y-64543302D01*
X144614638Y-64619064D01*
X144604826Y-64707896D01*
X144602202Y-64828258D01*
X144602200Y-64833500D01*
X144604568Y-64954826D01*
X144613867Y-65043667D01*
X144633390Y-65118209D01*
X144666430Y-65196637D01*
X144668884Y-65201800D01*
X144777093Y-65382968D01*
X144912158Y-65524515D01*
X145080918Y-65633511D01*
X145091682Y-65638884D01*
X145261531Y-65722500D01*
X145261531Y-66348675D01*
X145199894Y-66309630D01*
X145153421Y-66289016D01*
X145107093Y-66271199D01*
X145062402Y-66257420D01*
X145012245Y-66247163D01*
X144949520Y-66239916D01*
X144867122Y-66235163D01*
X144757949Y-66232391D01*
X144614899Y-66231085D01*
X144430867Y-66230733D01*
X144348200Y-66230742D01*
X144146735Y-66231007D01*
X143988943Y-66231987D01*
X143867694Y-66234210D01*
X143775861Y-66238202D01*
X143706316Y-66244489D01*
X143651931Y-66253598D01*
X143605578Y-66266055D01*
X143560128Y-66282387D01*
X143539778Y-66290454D01*
X143386217Y-66374523D01*
X143243159Y-66493849D01*
X143123850Y-66635214D01*
X143041531Y-66785399D01*
X143040004Y-66789300D01*
X142991069Y-66977272D01*
X142980225Y-67177957D01*
X143007544Y-67373106D01*
X143037317Y-67467522D01*
X143131225Y-67641811D01*
X143265909Y-67795268D01*
X143432692Y-67918671D01*
X143491965Y-67950574D01*
X143661118Y-68033900D01*
X144292066Y-68042221D01*
X144490851Y-68044541D01*
X144646509Y-68045339D01*
X144646509Y-68784147D01*
X144555655Y-68783545D01*
X144366297Y-68783342D01*
X144184126Y-68784331D01*
X144014421Y-68787038D01*
X143865166Y-68791195D01*
X143744343Y-68796534D01*
X143659935Y-68802787D01*
X143623951Y-68808279D01*
X143454327Y-68879663D01*
X143296052Y-68991563D01*
X143159959Y-69133698D01*
X143056880Y-69295789D01*
X143021454Y-69380100D01*
X142982326Y-69560190D01*
X142980323Y-69754617D01*
X143014566Y-69944015D01*
X143051718Y-70046235D01*
X143141813Y-70197525D01*
X143266791Y-70339869D01*
X143411482Y-70457855D01*
X143515314Y-70517209D01*
X143553164Y-70533887D01*
X143591044Y-70546929D01*
X143635502Y-70556783D01*
X143693084Y-70563894D01*
X143770336Y-70568707D01*
X143873804Y-70571669D01*
X144010035Y-70573224D01*
X144185574Y-70573818D01*
X144348200Y-70573900D01*
X144348200Y-73107982D01*
X144221256Y-73034968D01*
X143802700Y-72737113D01*
X143412954Y-72400055D01*
X143055322Y-72027038D01*
X142733108Y-71621308D01*
X142449616Y-71186109D01*
X142359537Y-71026290D01*
X142132196Y-70553995D01*
X141952263Y-70065853D01*
X141820154Y-69565248D01*
X141736284Y-69055566D01*
X141701069Y-68540192D01*
X141714924Y-68022510D01*
X141778266Y-67505907D01*
X141873053Y-67063449D01*
X142027719Y-66564069D01*
X142228237Y-66084777D01*
X142472781Y-65628135D01*
X142759522Y-65196704D01*
X143086635Y-64793045D01*
X143452291Y-64419720D01*
X143854662Y-64079288D01*
X144157700Y-63861588D01*
X144442717Y-63687508D01*
X144763306Y-63521020D01*
X145104251Y-63368684D01*
X145450333Y-63237060D01*
X145786335Y-63132707D01*
X145935700Y-63095120D01*
X146294659Y-63027797D01*
X146679691Y-62983247D01*
X147074422Y-62962214D01*
X147462479Y-62965440D01*
X147827490Y-62993669D01*
X147916638Y-63005201D01*
X148437736Y-63104251D01*
X148943245Y-63251410D01*
X149431205Y-63445848D01*
X149899659Y-63686738D01*
X150346647Y-63973252D01*
X150535059Y-64112816D01*
X150727518Y-64261555D01*
X151208159Y-64230812D01*
X151352839Y-64223556D01*
X151541373Y-64217233D01*
X151767757Y-64211843D01*
X152025989Y-64207384D01*
X152310064Y-64203854D01*
X152613978Y-64201254D01*
X152931728Y-64199580D01*
X153257309Y-64198833D01*
X153584719Y-64199011D01*
X153907954Y-64200112D01*
X154221009Y-64202135D01*
X154517881Y-64205079D01*
X154792566Y-64208944D01*
X155039061Y-64213726D01*
X155251362Y-64219426D01*
X155423465Y-64226042D01*
X155524200Y-64231717D01*
X155998767Y-64266048D01*
X156426616Y-64300551D01*
X156811830Y-64335585D01*
X157158491Y-64371512D01*
X157327600Y-64390992D01*
X158320018Y-64528021D01*
X159280134Y-64697710D01*
X160207017Y-64899729D01*
X161099736Y-65133747D01*
X161957359Y-65399431D01*
X162778957Y-65696451D01*
X163563599Y-66024476D01*
X164310354Y-66383173D01*
X165018291Y-66772213D01*
X165686479Y-67191264D01*
X166186320Y-67543827D01*
X166822955Y-68046564D01*
X167417287Y-68577375D01*
X167969451Y-69136409D01*
X168479580Y-69723813D01*
X168947808Y-70339737D01*
X169374268Y-70984327D01*
X169546020Y-71272400D01*
X169850594Y-71840194D01*
X170131701Y-72445304D01*
X170386008Y-73078406D01*
X170610176Y-73730174D01*
X170800872Y-74391283D01*
X170954757Y-75052408D01*
X171018097Y-75387200D01*
X171042765Y-75526321D01*
X171065704Y-75650772D01*
X171085003Y-75750547D01*
X171098752Y-75815636D01*
X171103189Y-75832819D01*
X171106338Y-75840978D01*
X171112131Y-75848043D01*
X171123406Y-75853892D01*
X171143001Y-75858402D01*
X171173753Y-75861451D01*
X171218501Y-75862917D01*
X171280082Y-75862676D01*
X171361334Y-75860607D01*
X171465094Y-75856587D01*
X171594201Y-75850494D01*
X171751491Y-75842205D01*
X171939803Y-75831597D01*
X172161975Y-75818548D01*
X172420843Y-75802937D01*
X172719247Y-75784639D01*
X173060023Y-75763533D01*
X173446009Y-75739497D01*
X173850300Y-75714264D01*
X174228626Y-75690739D01*
X174599808Y-75667839D01*
X174959826Y-75645804D01*
X175304664Y-75624871D01*
X175630302Y-75605280D01*
X175932721Y-75587267D01*
X176207905Y-75571072D01*
X176451833Y-75556931D01*
X176660488Y-75545085D01*
X176829852Y-75535771D01*
X176955905Y-75529226D01*
X177025300Y-75526047D01*
X177492369Y-75520855D01*
X177988535Y-75540259D01*
X178499097Y-75583123D01*
X179009351Y-75648310D01*
X179355994Y-75706158D01*
X179931962Y-75829589D01*
X180512729Y-75987505D01*
X181087728Y-76176128D01*
X181646390Y-76391680D01*
X182178148Y-76630382D01*
X182672434Y-76888459D01*
X182687868Y-76897196D01*
X182851337Y-76989976D01*
X182929168Y-76931588D01*
X183333254Y-76656786D01*
X183765778Y-76415489D01*
X184217489Y-76211882D01*
X184679137Y-76050148D01*
X185127900Y-75937187D01*
X185504232Y-75873056D01*
X185860650Y-75835817D01*
X186191872Y-75825560D01*
X186492618Y-75842377D01*
X186757605Y-75886358D01*
X186839200Y-75907685D01*
X187153632Y-76023713D01*
X187437857Y-76180232D01*
X187690685Y-76376034D01*
X187910927Y-76609914D01*
X188097393Y-76880667D01*
X188248896Y-77187085D01*
X188333959Y-77423611D01*
X188391672Y-77609700D01*
X188402474Y-90081100D01*
X188315199Y-89782615D01*
X188176692Y-89369287D01*
X188002315Y-88949041D01*
X187842163Y-88620600D01*
X187783515Y-88509535D01*
X187732293Y-88414788D01*
X187693533Y-88345515D01*
X187672271Y-88310873D01*
X187670912Y-88309240D01*
X187642928Y-88313598D01*
X187587286Y-88343414D01*
X187515890Y-88392281D01*
X187514019Y-88393681D01*
X187328939Y-88513317D01*
X187112771Y-88621603D01*
X186885176Y-88709449D01*
X186740800Y-88751189D01*
X186654565Y-88770480D01*
X186654565Y-85572600D01*
X186888705Y-85572424D01*
X187077645Y-85571706D01*
X187226984Y-85570167D01*
X187342321Y-85567524D01*
X187429255Y-85563496D01*
X187493385Y-85557802D01*
X187540310Y-85550160D01*
X187575629Y-85540289D01*
X187604941Y-85527908D01*
X187611761Y-85524503D01*
X187736821Y-85435445D01*
X187822198Y-85320417D01*
X187864900Y-85187302D01*
X187861935Y-85043986D01*
X187832031Y-84944064D01*
X187773516Y-84834499D01*
X187697194Y-84758267D01*
X187604400Y-84705971D01*
X187572865Y-84693233D01*
X187535871Y-84683020D01*
X187487752Y-84675052D01*
X187422844Y-84669051D01*
X187335481Y-84664736D01*
X187220000Y-84661829D01*
X187070735Y-84660050D01*
X186882023Y-84659120D01*
X186648197Y-84658759D01*
X186647203Y-84658758D01*
X186387673Y-84659433D01*
X186287279Y-84660495D01*
X186287279Y-82547146D01*
X186501563Y-82546555D01*
X186712026Y-82544916D01*
X187557422Y-82537300D01*
X187665455Y-82465771D01*
X187769528Y-82368537D01*
X187839011Y-82244201D01*
X187869710Y-82105515D01*
X187857427Y-81965227D01*
X187844084Y-81923004D01*
X187807832Y-81855463D01*
X187755181Y-81785488D01*
X187748834Y-81778522D01*
X187713475Y-81742185D01*
X187678494Y-81712592D01*
X187638501Y-81689053D01*
X187588108Y-81670875D01*
X187521926Y-81657367D01*
X187434564Y-81647835D01*
X187320633Y-81641588D01*
X187174744Y-81637934D01*
X186991509Y-81636181D01*
X186765536Y-81635636D01*
X186650650Y-81635605D01*
X186650650Y-79502000D01*
X186896791Y-79501905D01*
X187097567Y-79501143D01*
X187258411Y-79499004D01*
X187384758Y-79494776D01*
X187482041Y-79487747D01*
X187555694Y-79477208D01*
X187611153Y-79462446D01*
X187653850Y-79442749D01*
X187689220Y-79417407D01*
X187722697Y-79385707D01*
X187748993Y-79358218D01*
X187821211Y-79264692D01*
X187857153Y-79166436D01*
X187863456Y-79044109D01*
X187862559Y-79027279D01*
X187832138Y-78880248D01*
X187788853Y-78796299D01*
X187755344Y-78747411D01*
X187722310Y-78707412D01*
X187684521Y-78675411D01*
X187636747Y-78650515D01*
X187573758Y-78631833D01*
X187490323Y-78618474D01*
X187381212Y-78609545D01*
X187241196Y-78604155D01*
X187065043Y-78601412D01*
X186847524Y-78600425D01*
X186639200Y-78600300D01*
X186390103Y-78600398D01*
X186186440Y-78601269D01*
X186022846Y-78603785D01*
X185893953Y-78608818D01*
X185794396Y-78617236D01*
X185718810Y-78629912D01*
X185661827Y-78647715D01*
X185618083Y-78671516D01*
X185582210Y-78702186D01*
X185548844Y-78740595D01*
X185516563Y-78782447D01*
X185478115Y-78839202D01*
X185456570Y-78894480D01*
X185447237Y-78966412D01*
X185445400Y-79057500D01*
X185447975Y-79159487D01*
X185458710Y-79228707D01*
X185482117Y-79283064D01*
X185513816Y-79328953D01*
X185547969Y-79372393D01*
X185581209Y-79407877D01*
X185618821Y-79436212D01*
X185666089Y-79458200D01*
X185728299Y-79474646D01*
X185810735Y-79486356D01*
X185918681Y-79494132D01*
X186057423Y-79498780D01*
X186232245Y-79501105D01*
X186448431Y-79501910D01*
X186650650Y-79502000D01*
X186650650Y-81635605D01*
X186635897Y-81635600D01*
X185754663Y-81635600D01*
X185644438Y-81700196D01*
X185533078Y-81792830D01*
X185462239Y-81915260D01*
X185433340Y-82064856D01*
X185432700Y-82093050D01*
X185449554Y-82233161D01*
X185503917Y-82346320D01*
X185585342Y-82432007D01*
X185625584Y-82463157D01*
X185668486Y-82488425D01*
X185719503Y-82508359D01*
X185784092Y-82523505D01*
X185867708Y-82534410D01*
X185975808Y-82541621D01*
X186113846Y-82545684D01*
X186287279Y-82547146D01*
X186287279Y-84660495D01*
X186166611Y-84661773D01*
X185986544Y-84665705D01*
X185849997Y-84671158D01*
X185759499Y-84678058D01*
X185720103Y-84685216D01*
X185628365Y-84738329D01*
X185538660Y-84820238D01*
X185471195Y-84912303D01*
X185468532Y-84917289D01*
X185447172Y-84983877D01*
X185434351Y-85073450D01*
X185432700Y-85115400D01*
X185439810Y-85206221D01*
X185457801Y-85287002D01*
X185468532Y-85313512D01*
X185534189Y-85405595D01*
X185623196Y-85488547D01*
X185715347Y-85543727D01*
X185720103Y-85545585D01*
X185768111Y-85553653D01*
X185864322Y-85560394D01*
X186006156Y-85565733D01*
X186191032Y-85569596D01*
X186416369Y-85571908D01*
X186654565Y-85572600D01*
X186654565Y-88770480D01*
X186634607Y-88774945D01*
X186534369Y-88790902D01*
X186425836Y-88800304D01*
X186294758Y-88804398D01*
X186131200Y-88804464D01*
X185615348Y-88775308D01*
X185108863Y-88696950D01*
X184614490Y-88570552D01*
X184134974Y-88397277D01*
X183673058Y-88178290D01*
X183231487Y-87914754D01*
X182813006Y-87607831D01*
X182420360Y-87258686D01*
X182372000Y-87210900D01*
X182017748Y-86822657D01*
X181706195Y-86409640D01*
X181439085Y-85974362D01*
X181254346Y-85602364D01*
X181121965Y-85305900D01*
X177606782Y-85305900D01*
X177094665Y-85305876D01*
X176630511Y-85305881D01*
X176211485Y-85306036D01*
X175834751Y-85306458D01*
X175497473Y-85307268D01*
X175196814Y-85308585D01*
X174929938Y-85310526D01*
X174694010Y-85313212D01*
X174486193Y-85316762D01*
X174303651Y-85321294D01*
X174143549Y-85326928D01*
X174003049Y-85333783D01*
X173879316Y-85341977D01*
X173769515Y-85351630D01*
X173670808Y-85362861D01*
X173580359Y-85375789D01*
X173495334Y-85390533D01*
X173412895Y-85407213D01*
X173330206Y-85425946D01*
X173244432Y-85446853D01*
X173152736Y-85470052D01*
X173052282Y-85495662D01*
X173045443Y-85497397D01*
X172518240Y-85656702D01*
X172011285Y-85860824D01*
X171526982Y-86107309D01*
X171067736Y-86393702D01*
X170635952Y-86717547D01*
X170234034Y-87076388D01*
X169864387Y-87467770D01*
X169529417Y-87889238D01*
X169231527Y-88338337D01*
X168973124Y-88812610D01*
X168756610Y-89309603D01*
X168584392Y-89826860D01*
X168506496Y-90131900D01*
X168481025Y-90244243D01*
X168458504Y-90346438D01*
X168438750Y-90442225D01*
X168421583Y-90535344D01*
X168406821Y-90629535D01*
X168394282Y-90728539D01*
X168383786Y-90836095D01*
X168375149Y-90955944D01*
X168368192Y-91091824D01*
X168362732Y-91247477D01*
X168358589Y-91426642D01*
X168355579Y-91633060D01*
X168353523Y-91870470D01*
X168352239Y-92142612D01*
X168351544Y-92453227D01*
X168351259Y-92806054D01*
X168351200Y-93204833D01*
X168351200Y-93332300D01*
X168351385Y-93761646D01*
X168351963Y-94142847D01*
X168352970Y-94478559D01*
X168354437Y-94771437D01*
X168356401Y-95024135D01*
X168358894Y-95239309D01*
X168361951Y-95419613D01*
X168365606Y-95567702D01*
X168369894Y-95686231D01*
X168374847Y-95777855D01*
X168380501Y-95845229D01*
X168383835Y-95872300D01*
X168405426Y-96015086D01*
X168429400Y-96159779D01*
X168453877Y-96296383D01*
X168476974Y-96414901D01*
X168496811Y-96505335D01*
X168511505Y-96557690D01*
X168513838Y-96563061D01*
X168541654Y-96566887D01*
X168605753Y-96538954D01*
X168707273Y-96478746D01*
X168726082Y-96466717D01*
X168812197Y-96409076D01*
X168879148Y-96360178D01*
X168917360Y-96327221D01*
X168922700Y-96318900D01*
X168914794Y-96284029D01*
X168894809Y-96220266D01*
X168883190Y-96186644D01*
X168813491Y-95932697D01*
X168772103Y-95652038D01*
X168759651Y-95360551D01*
X168776763Y-95074118D01*
X168824065Y-94808623D01*
X168828189Y-94792509D01*
X168942307Y-94452843D01*
X169099133Y-94138222D01*
X169295562Y-93851769D01*
X169528487Y-93596612D01*
X169794804Y-93375873D01*
X170091407Y-93192681D01*
X170415192Y-93050158D01*
X170624500Y-92984586D01*
X170776805Y-92954601D01*
X170962763Y-92934621D01*
X171167121Y-92924812D01*
X171374627Y-92925341D01*
X171570029Y-92936377D01*
X171738073Y-92958086D01*
X171801877Y-92971675D01*
X172135755Y-93080026D01*
X172449321Y-93230997D01*
X172737819Y-93420852D01*
X172996494Y-93645857D01*
X173220589Y-93902277D01*
X173405350Y-94186378D01*
X173445348Y-94262306D01*
X173500601Y-94381006D01*
X173554180Y-94510756D01*
X173595005Y-94624627D01*
X173596881Y-94630606D01*
X173625048Y-94721373D01*
X173647828Y-94794792D01*
X173660518Y-94835710D01*
X173660842Y-94836754D01*
X173686909Y-94843480D01*
X173751050Y-94817456D01*
X173821046Y-94778343D01*
X173959726Y-94706647D01*
X174130631Y-94634740D01*
X174315638Y-94569155D01*
X174496622Y-94516425D01*
X174627495Y-94487680D01*
X174800906Y-94468078D01*
X175004490Y-94462553D01*
X175221192Y-94470168D01*
X175433959Y-94489985D01*
X175625735Y-94521065D01*
X175737408Y-94548736D01*
X176077246Y-94675529D01*
X176388580Y-94843597D01*
X176669164Y-95051013D01*
X176916752Y-95295849D01*
X177129097Y-95576178D01*
X177303955Y-95890074D01*
X177306119Y-95894682D01*
X177385393Y-96076110D01*
X177443324Y-96241705D01*
X177482724Y-96405461D01*
X177506406Y-96581370D01*
X177517180Y-96783427D01*
X177518529Y-96951800D01*
X177516996Y-97114251D01*
X177513350Y-97238001D01*
X177506270Y-97335143D01*
X177494432Y-97417772D01*
X177476515Y-97497980D01*
X177451197Y-97587861D01*
X177447710Y-97599500D01*
X177403225Y-97730666D01*
X177344865Y-97880128D01*
X177283088Y-98021590D01*
X177263705Y-98062095D01*
X177216422Y-98161322D01*
X177180236Y-98243510D01*
X177159573Y-98298217D01*
X177156724Y-98314591D01*
X177182850Y-98330317D01*
X177246260Y-98357400D01*
X177335978Y-98391345D01*
X177394800Y-98412081D01*
X177717305Y-98548576D01*
X178010632Y-98724286D01*
X178272626Y-98935409D01*
X178501130Y-99178144D01*
X178693990Y-99448689D01*
X178849048Y-99743242D01*
X178964150Y-100058001D01*
X179037138Y-100389164D01*
X179065858Y-100732929D01*
X179048153Y-101085496D01*
X179018920Y-101276150D01*
X179000846Y-101371400D01*
X181133198Y-101371400D01*
X181178532Y-101250750D01*
X181239350Y-101106055D01*
X181322039Y-100933684D01*
X181419250Y-100747517D01*
X181523632Y-100561432D01*
X181627836Y-100389309D01*
X181666154Y-100330000D01*
X181977953Y-99902621D01*
X182324075Y-99511820D01*
X182702209Y-99158981D01*
X183110047Y-98845486D01*
X183545279Y-98572718D01*
X184005595Y-98342061D01*
X184488686Y-98154896D01*
X184992243Y-98012607D01*
X185513956Y-97916576D01*
X185741120Y-97890060D01*
X186123011Y-97869297D01*
X186471281Y-97884829D01*
X186788381Y-97937184D01*
X187076762Y-98026889D01*
X187338874Y-98154469D01*
X187514019Y-98271058D01*
X187585706Y-98320261D01*
X187641966Y-98350577D01*
X187670863Y-98355602D01*
X187671119Y-98355361D01*
X187689123Y-98326872D01*
X187725551Y-98261924D01*
X187775634Y-98169254D01*
X187834603Y-98057600D01*
X187854928Y-98018600D01*
X188072139Y-97559841D01*
X188246916Y-97099206D01*
X188316793Y-96875600D01*
X188402109Y-96583500D01*
X188400317Y-102743000D01*
X188400071Y-103300419D01*
X188399665Y-103845275D01*
X188399107Y-104375326D01*
X188398406Y-104888329D01*
X188397569Y-105382043D01*
X188396605Y-105854225D01*
X188395520Y-106302633D01*
X188394325Y-106725025D01*
X188393025Y-107119158D01*
X188391631Y-107482792D01*
X188390148Y-107813682D01*
X188388586Y-108109587D01*
X188386952Y-108368265D01*
X188385255Y-108587474D01*
X188383502Y-108764971D01*
X188381702Y-108898515D01*
X188379862Y-108985862D01*
X188377990Y-109024771D01*
X188377890Y-109025443D01*
X188299613Y-109344564D01*
X188177304Y-109643421D01*
X188014600Y-109918200D01*
X187815138Y-110165090D01*
X187582554Y-110380279D01*
X187320484Y-110559955D01*
X187032565Y-110700305D01*
X186722434Y-110797518D01*
X186678053Y-110807342D01*
X186654565Y-110810710D01*
X186654565Y-107797600D01*
X186888705Y-107797424D01*
X187077645Y-107796706D01*
X187226984Y-107795167D01*
X187342321Y-107792524D01*
X187429255Y-107788496D01*
X187493385Y-107782802D01*
X187540310Y-107775160D01*
X187575629Y-107765289D01*
X187604941Y-107752908D01*
X187611761Y-107749503D01*
X187736821Y-107660445D01*
X187822198Y-107545417D01*
X187864900Y-107412302D01*
X187861935Y-107268986D01*
X187832031Y-107169064D01*
X187773516Y-107059499D01*
X187697194Y-106983267D01*
X187604400Y-106930971D01*
X187572865Y-106918233D01*
X187535871Y-106908020D01*
X187487752Y-106900052D01*
X187422844Y-106894051D01*
X187335481Y-106889736D01*
X187220000Y-106886829D01*
X187070735Y-106885050D01*
X186882023Y-106884120D01*
X186648197Y-106883759D01*
X186647203Y-106883758D01*
X186387673Y-106884433D01*
X186280032Y-106885572D01*
X186280032Y-104772150D01*
X186492488Y-104771614D01*
X186712026Y-104769916D01*
X187557422Y-104762300D01*
X187665455Y-104690771D01*
X187769528Y-104593537D01*
X187839011Y-104469201D01*
X187869710Y-104330515D01*
X187857427Y-104190227D01*
X187844084Y-104148004D01*
X187807832Y-104080463D01*
X187755181Y-104010488D01*
X187748834Y-104003522D01*
X187713513Y-103967212D01*
X187678589Y-103937637D01*
X187638680Y-103914110D01*
X187588405Y-103895943D01*
X187522381Y-103882448D01*
X187435228Y-103872939D01*
X187321564Y-103866726D01*
X187176006Y-103863122D01*
X186993174Y-103861441D01*
X186767685Y-103860993D01*
X186650650Y-103861014D01*
X186650650Y-101727000D01*
X186896791Y-101726905D01*
X187097567Y-101726143D01*
X187258411Y-101724004D01*
X187384758Y-101719776D01*
X187482041Y-101712747D01*
X187555694Y-101702208D01*
X187611153Y-101687446D01*
X187653850Y-101667749D01*
X187689220Y-101642407D01*
X187722697Y-101610707D01*
X187748993Y-101583218D01*
X187821211Y-101489692D01*
X187857153Y-101391436D01*
X187863456Y-101269109D01*
X187862559Y-101252279D01*
X187832138Y-101105248D01*
X187788853Y-101021299D01*
X187755344Y-100972411D01*
X187722310Y-100932412D01*
X187684521Y-100900411D01*
X187636747Y-100875515D01*
X187573758Y-100856833D01*
X187490323Y-100843474D01*
X187381212Y-100834545D01*
X187241196Y-100829155D01*
X187065043Y-100826412D01*
X186847524Y-100825425D01*
X186639200Y-100825300D01*
X186390103Y-100825398D01*
X186186440Y-100826269D01*
X186022846Y-100828785D01*
X185893953Y-100833818D01*
X185794396Y-100842236D01*
X185718810Y-100854912D01*
X185661827Y-100872715D01*
X185618083Y-100896516D01*
X185582210Y-100927186D01*
X185548844Y-100965595D01*
X185516563Y-101007447D01*
X185478115Y-101064202D01*
X185456570Y-101119480D01*
X185447237Y-101191412D01*
X185445400Y-101282500D01*
X185447975Y-101384487D01*
X185458710Y-101453707D01*
X185482117Y-101508064D01*
X185513816Y-101553953D01*
X185547969Y-101597393D01*
X185581209Y-101632877D01*
X185618821Y-101661212D01*
X185666089Y-101683200D01*
X185728299Y-101699646D01*
X185810735Y-101711356D01*
X185918681Y-101719132D01*
X186057423Y-101723780D01*
X186232245Y-101726105D01*
X186448431Y-101726910D01*
X186650650Y-101727000D01*
X186650650Y-103861014D01*
X186633665Y-103861018D01*
X186398401Y-103861210D01*
X186208380Y-103861758D01*
X186058049Y-103862986D01*
X185941851Y-103865221D01*
X185854231Y-103868787D01*
X185789634Y-103874011D01*
X185742504Y-103881216D01*
X185707285Y-103890730D01*
X185678423Y-103902877D01*
X185650360Y-103917982D01*
X185649117Y-103918686D01*
X185543089Y-104005559D01*
X185471680Y-104119509D01*
X185435881Y-104249540D01*
X185436684Y-104384654D01*
X185475078Y-104513853D01*
X185552055Y-104626141D01*
X185582801Y-104654868D01*
X185623558Y-104686550D01*
X185666631Y-104712253D01*
X185717488Y-104732536D01*
X185781602Y-104747956D01*
X185864442Y-104759070D01*
X185971480Y-104766435D01*
X186108186Y-104770609D01*
X186280032Y-104772150D01*
X186280032Y-106885572D01*
X186166611Y-106886773D01*
X185986544Y-106890705D01*
X185849997Y-106896158D01*
X185759499Y-106903058D01*
X185720103Y-106910216D01*
X185628365Y-106963329D01*
X185538660Y-107045238D01*
X185471195Y-107137303D01*
X185468532Y-107142289D01*
X185447172Y-107208877D01*
X185434351Y-107298450D01*
X185432700Y-107340400D01*
X185439810Y-107431221D01*
X185457801Y-107512002D01*
X185468532Y-107538512D01*
X185534189Y-107630595D01*
X185623196Y-107713547D01*
X185715347Y-107768727D01*
X185720103Y-107770585D01*
X185768111Y-107778653D01*
X185864322Y-107785394D01*
X186006156Y-107790733D01*
X186191032Y-107794596D01*
X186416369Y-107796908D01*
X186654565Y-107797600D01*
X186654565Y-110810710D01*
X186486181Y-110834862D01*
X186256576Y-110846564D01*
X185999537Y-110843176D01*
X185725362Y-110825423D01*
X185444348Y-110794033D01*
X185166794Y-110749731D01*
X184902998Y-110693244D01*
X184842472Y-110677847D01*
X184435365Y-110551391D01*
X184025455Y-110387525D01*
X183627988Y-110193279D01*
X183258207Y-109975687D01*
X183122860Y-109884666D01*
X182856765Y-109698431D01*
X182436582Y-109914396D01*
X181763553Y-110234591D01*
X181084050Y-110505979D01*
X180393099Y-110730091D01*
X179685726Y-110908461D01*
X178956954Y-111042619D01*
X178625500Y-111088379D01*
X178503989Y-111100467D01*
X178341846Y-111112036D01*
X178149238Y-111122570D01*
X177936334Y-111131550D01*
X177713301Y-111138461D01*
X177584100Y-111141303D01*
X177514619Y-111142564D01*
X177447953Y-111143632D01*
X177382276Y-111144408D01*
X177315765Y-111144789D01*
X177246595Y-111144677D01*
X177172941Y-111143969D01*
X177092980Y-111142564D01*
X177004886Y-111140363D01*
X176906836Y-111137264D01*
X176797005Y-111133167D01*
X176673569Y-111127971D01*
X176534703Y-111121574D01*
X176378583Y-111113877D01*
X176203384Y-111104777D01*
X176007283Y-111094176D01*
X175788455Y-111081971D01*
X175545075Y-111068063D01*
X175275319Y-111052349D01*
X174977363Y-111034730D01*
X174649382Y-111015105D01*
X174289552Y-110993372D01*
X173896048Y-110969432D01*
X173467047Y-110943183D01*
X173000723Y-110914524D01*
X172495253Y-110883356D01*
X171948812Y-110849576D01*
X171359575Y-110813084D01*
X170725719Y-110773780D01*
X170045419Y-110731562D01*
X169316850Y-110686330D01*
X169062400Y-110670531D01*
X168432480Y-110631365D01*
X167813587Y-110592779D01*
X167207779Y-110554904D01*
X166617114Y-110517873D01*
X166043653Y-110481818D01*
X165489454Y-110446871D01*
X164956575Y-110413163D01*
X164447077Y-110380828D01*
X163963018Y-110349996D01*
X163506458Y-110320800D01*
X163079454Y-110293372D01*
X162684067Y-110267844D01*
X162322355Y-110244348D01*
X161996377Y-110223017D01*
X161708193Y-110203981D01*
X161459862Y-110187373D01*
X161253442Y-110173326D01*
X161090992Y-110161971D01*
X160974572Y-110153440D01*
X160906241Y-110147865D01*
X160896300Y-110146884D01*
X160157861Y-110043479D01*
X159436204Y-109893008D01*
X158728287Y-109694607D01*
X158723420Y-109692882D01*
X158723420Y-105943939D01*
X158747015Y-105937911D01*
X158796130Y-105910095D01*
X158873641Y-105858579D01*
X158982421Y-105781451D01*
X159125346Y-105676796D01*
X159305292Y-105542704D01*
X159308800Y-105540076D01*
X159641445Y-105280254D01*
X159991325Y-104987782D01*
X160347802Y-104672483D01*
X160700243Y-104344180D01*
X161038011Y-104012696D01*
X161350471Y-103687854D01*
X161539539Y-103479751D01*
X162112225Y-102795204D01*
X162639948Y-102087135D01*
X163122476Y-101356098D01*
X163559579Y-100602645D01*
X163951025Y-99827332D01*
X164296583Y-99030712D01*
X164596023Y-98213339D01*
X164849113Y-97375766D01*
X165055622Y-96518547D01*
X165215319Y-95642236D01*
X165327974Y-94747387D01*
X165365360Y-94310200D01*
X165373082Y-94161377D01*
X165378184Y-93971048D01*
X165380801Y-93748434D01*
X165381072Y-93502754D01*
X165379133Y-93243229D01*
X165375121Y-92979079D01*
X165369174Y-92719523D01*
X165361427Y-92473782D01*
X165352020Y-92251075D01*
X165341087Y-92060623D01*
X165329878Y-91922600D01*
X165216528Y-91030738D01*
X165055652Y-90155825D01*
X164847891Y-89299041D01*
X164593885Y-88461567D01*
X164294277Y-87644580D01*
X163949706Y-86849262D01*
X163560814Y-86076790D01*
X163128241Y-85328345D01*
X162652629Y-84605106D01*
X162134618Y-83908253D01*
X161574849Y-83238964D01*
X160973964Y-82598419D01*
X160332602Y-81987798D01*
X159651406Y-81408279D01*
X159589084Y-81358419D01*
X159446201Y-81246172D01*
X159302580Y-81136031D01*
X159163992Y-81032155D01*
X159036209Y-80938704D01*
X158925005Y-80859836D01*
X158836150Y-80799711D01*
X158775418Y-80762488D01*
X158748580Y-80752326D01*
X158748261Y-80752572D01*
X158751003Y-80780225D01*
X158768723Y-80843851D01*
X158798062Y-80932048D01*
X158814632Y-80977991D01*
X158913688Y-81270686D01*
X159009524Y-81600337D01*
X159098756Y-81953101D01*
X159177999Y-82315135D01*
X159243867Y-82672594D01*
X159269999Y-82840270D01*
X159294823Y-83021288D01*
X159315511Y-83198079D01*
X159332393Y-83377408D01*
X159345800Y-83566041D01*
X159356063Y-83770743D01*
X159363513Y-83998277D01*
X159368480Y-84255411D01*
X159371294Y-84548908D01*
X159372287Y-84885533D01*
X159372300Y-84933160D01*
X159372300Y-86010765D01*
X159565659Y-86267933D01*
X160005271Y-86894651D01*
X160401664Y-87547416D01*
X160754154Y-88224501D01*
X161062059Y-88924179D01*
X161324694Y-89644724D01*
X161541377Y-90384408D01*
X161711423Y-91141505D01*
X161834149Y-91914288D01*
X161849071Y-92036900D01*
X161866483Y-92220840D01*
X161881131Y-92444389D01*
X161892809Y-92696423D01*
X161901311Y-92965816D01*
X161906429Y-93241443D01*
X161907957Y-93512177D01*
X161905688Y-93766894D01*
X161899415Y-93994468D01*
X161888975Y-94183200D01*
X161804804Y-94965883D01*
X161672401Y-95733084D01*
X161492075Y-96483976D01*
X161264132Y-97217731D01*
X160988882Y-97933522D01*
X160666631Y-98630520D01*
X160297688Y-99307898D01*
X159882360Y-99964827D01*
X159581278Y-100389096D01*
X159377280Y-100664091D01*
X159365206Y-101951196D01*
X159361777Y-102277750D01*
X159357760Y-102559890D01*
X159352687Y-102804002D01*
X159346087Y-103016470D01*
X159337491Y-103203681D01*
X159326431Y-103372020D01*
X159312438Y-103527872D01*
X159295041Y-103677624D01*
X159273773Y-103827661D01*
X159248164Y-103984367D01*
X159217744Y-104154130D01*
X159194095Y-104280161D01*
X159150121Y-104489554D01*
X159093410Y-104725847D01*
X159027455Y-104976828D01*
X158955744Y-105230283D01*
X158881771Y-105474001D01*
X158809025Y-105695768D01*
X158740998Y-105883371D01*
X158722469Y-105930091D01*
X158723420Y-105943939D01*
X158723420Y-109692882D01*
X158031065Y-109447411D01*
X157341496Y-109150554D01*
X157266993Y-109115314D01*
X156901587Y-108940956D01*
X156543093Y-109304915D01*
X156078837Y-109750719D01*
X155606229Y-110152233D01*
X155116336Y-110515963D01*
X154600224Y-110848416D01*
X154048956Y-111156097D01*
X153985830Y-111188315D01*
X153985830Y-107314443D01*
X154116682Y-107291578D01*
X154239729Y-107227646D01*
X154342259Y-107132140D01*
X154411563Y-107014555D01*
X154420049Y-106990100D01*
X154424131Y-106951660D01*
X154427772Y-106867584D01*
X154430908Y-106743035D01*
X154433474Y-106583173D01*
X154435406Y-106393163D01*
X154436641Y-106178166D01*
X154437115Y-105943345D01*
X154436764Y-105693862D01*
X154436621Y-105651300D01*
X154435448Y-105362261D01*
X154434106Y-105119636D01*
X154432437Y-104919042D01*
X154430280Y-104756092D01*
X154427477Y-104626403D01*
X154423869Y-104525588D01*
X154419296Y-104449264D01*
X154413599Y-104393044D01*
X154406619Y-104352545D01*
X154398198Y-104323381D01*
X154388175Y-104301167D01*
X154387576Y-104300064D01*
X154299583Y-104188183D01*
X154182862Y-104110032D01*
X154048849Y-104068825D01*
X153908981Y-104067774D01*
X153774692Y-104110093D01*
X153753248Y-104121827D01*
X153665345Y-104190073D01*
X153594827Y-104274251D01*
X153587177Y-104287018D01*
X153574415Y-104310439D01*
X153563721Y-104334359D01*
X153554911Y-104363230D01*
X153547805Y-104401502D01*
X153542217Y-104453626D01*
X153537967Y-104524054D01*
X153534870Y-104617235D01*
X153532745Y-104737622D01*
X153531408Y-104889664D01*
X153530677Y-105077813D01*
X153530369Y-105306520D01*
X153530300Y-105580236D01*
X153530300Y-105672155D01*
X153530864Y-106012295D01*
X153532550Y-106304371D01*
X153535349Y-106547927D01*
X153539252Y-106742509D01*
X153544249Y-106887662D01*
X153550332Y-106982930D01*
X153557391Y-107027597D01*
X153623492Y-107136322D01*
X153725362Y-107226723D01*
X153848734Y-107289247D01*
X153979340Y-107314342D01*
X153985830Y-107314443D01*
X153985830Y-111188315D01*
X153888895Y-111237789D01*
X153305623Y-111507915D01*
X152717118Y-111735636D01*
X152181444Y-111902773D01*
X152181444Y-107313295D01*
X152324990Y-107303479D01*
X152394862Y-107280684D01*
X152476122Y-107230122D01*
X152556754Y-107153518D01*
X152621794Y-107067504D01*
X152655854Y-106990685D01*
X152670262Y-106930403D01*
X152680091Y-106895900D01*
X152681776Y-106866146D01*
X152683163Y-106790610D01*
X152684234Y-106674311D01*
X152684974Y-106522267D01*
X152685366Y-106339495D01*
X152685394Y-106131013D01*
X152685041Y-105901840D01*
X152684290Y-105656994D01*
X152684219Y-105638600D01*
X152683009Y-105355204D01*
X152681669Y-105118062D01*
X152680018Y-104922629D01*
X152677874Y-104764359D01*
X152675059Y-104638707D01*
X152671390Y-104541128D01*
X152666686Y-104467075D01*
X152660768Y-104412004D01*
X152653453Y-104371369D01*
X152644563Y-104340624D01*
X152633914Y-104315224D01*
X152631375Y-104310017D01*
X152546366Y-104189296D01*
X152431606Y-104109717D01*
X152286885Y-104071142D01*
X152262171Y-104068854D01*
X152103909Y-104078401D01*
X151972593Y-104130623D01*
X151870495Y-104223791D01*
X151799888Y-104356175D01*
X151776679Y-104438495D01*
X151769445Y-104500924D01*
X151763713Y-104613128D01*
X151759497Y-104774099D01*
X151756811Y-104982835D01*
X151755672Y-105238329D01*
X151756092Y-105539577D01*
X151757267Y-105768582D01*
X151759097Y-106055425D01*
X151760938Y-106296054D01*
X151763317Y-106495052D01*
X151766764Y-106657004D01*
X151771806Y-106786492D01*
X151778973Y-106888101D01*
X151788792Y-106966413D01*
X151801793Y-107026011D01*
X151818504Y-107071481D01*
X151839453Y-107107405D01*
X151865169Y-107138366D01*
X151896181Y-107168948D01*
X151921482Y-107192735D01*
X152043691Y-107275777D01*
X152181444Y-107313295D01*
X152181444Y-111902773D01*
X152115250Y-111923427D01*
X151491886Y-112073763D01*
X150838893Y-112189120D01*
X150697404Y-112209110D01*
X150543934Y-112225149D01*
X150518475Y-112226833D01*
X150518475Y-107303123D01*
X150653774Y-107264276D01*
X150765711Y-107193427D01*
X150797372Y-107166438D01*
X150824104Y-107140261D01*
X150846329Y-107110586D01*
X150864465Y-107073101D01*
X150878934Y-107023495D01*
X150890156Y-106957458D01*
X150898552Y-106870678D01*
X150904541Y-106758844D01*
X150908545Y-106617646D01*
X150910984Y-106442772D01*
X150912277Y-106229912D01*
X150912847Y-105974754D01*
X150913105Y-105682039D01*
X150913260Y-105392413D01*
X150913133Y-105149145D01*
X150912565Y-104947791D01*
X150911397Y-104783907D01*
X150909470Y-104653052D01*
X150906626Y-104550781D01*
X150902704Y-104472653D01*
X150897546Y-104414224D01*
X150890992Y-104371051D01*
X150882884Y-104338691D01*
X150873063Y-104312702D01*
X150863342Y-104292484D01*
X150782376Y-104184092D01*
X150736326Y-104152738D01*
X150736326Y-100739823D01*
X150910662Y-100734354D01*
X150949502Y-100732133D01*
X151379039Y-100681149D01*
X151798397Y-100581459D01*
X152203749Y-100434759D01*
X152591267Y-100242743D01*
X152957122Y-100007108D01*
X153297487Y-99729548D01*
X153373049Y-99658721D01*
X153683890Y-99328533D01*
X153947931Y-98980296D01*
X154166642Y-98611201D01*
X154341491Y-98218440D01*
X154473948Y-97799206D01*
X154558890Y-97392277D01*
X154577423Y-97228207D01*
X154587184Y-97028773D01*
X154588556Y-96808577D01*
X154581927Y-96582222D01*
X154567679Y-96364310D01*
X154546200Y-96169446D01*
X154523106Y-96035444D01*
X154403440Y-95593160D01*
X154240202Y-95176884D01*
X154033727Y-94787069D01*
X153784348Y-94424167D01*
X153492399Y-94088633D01*
X153158212Y-93780917D01*
X152782121Y-93501474D01*
X152550677Y-93355933D01*
X152534744Y-93340335D01*
X152541581Y-93319960D01*
X152577008Y-93289371D01*
X152646847Y-93243136D01*
X152719086Y-93198697D01*
X153081804Y-92949335D01*
X153411069Y-92662820D01*
X153705066Y-92341737D01*
X153961985Y-91988676D01*
X154180013Y-91606224D01*
X154357336Y-91196968D01*
X154492142Y-90763498D01*
X154526407Y-90618254D01*
X154546475Y-90519233D01*
X154561185Y-90425962D01*
X154571295Y-90327718D01*
X154577567Y-90213777D01*
X154580759Y-90073417D01*
X154581631Y-89895914D01*
X154581567Y-89839800D01*
X154578473Y-89598594D01*
X154568941Y-89394852D01*
X154550990Y-89215434D01*
X154522640Y-89047201D01*
X154481914Y-88877012D01*
X154426830Y-88691729D01*
X154393108Y-88588789D01*
X154230962Y-88183207D01*
X154025427Y-87800565D01*
X153977792Y-87731448D01*
X153977792Y-81955079D01*
X154109511Y-81934739D01*
X154231433Y-81875397D01*
X154334525Y-81778161D01*
X154396956Y-81674751D01*
X154407639Y-81648335D01*
X154416562Y-81617202D01*
X154423882Y-81576816D01*
X154429756Y-81522642D01*
X154434342Y-81450143D01*
X154437796Y-81354785D01*
X154440275Y-81232030D01*
X154441936Y-81077342D01*
X154442936Y-80886187D01*
X154443432Y-80654028D01*
X154443582Y-80376328D01*
X154443584Y-80327500D01*
X154443475Y-80042115D01*
X154443045Y-79802993D01*
X154442136Y-79605598D01*
X154440590Y-79445396D01*
X154438253Y-79317850D01*
X154434965Y-79218424D01*
X154430570Y-79142582D01*
X154424912Y-79085788D01*
X154417833Y-79043506D01*
X154409177Y-79011200D01*
X154398785Y-78984335D01*
X154396956Y-78980250D01*
X154320253Y-78863453D01*
X154214023Y-78772657D01*
X154090276Y-78714607D01*
X153961019Y-78696049D01*
X153902824Y-78702672D01*
X153780357Y-78749426D01*
X153669108Y-78830181D01*
X153587675Y-78931018D01*
X153580940Y-78943513D01*
X153569405Y-78967491D01*
X153559748Y-78993277D01*
X153551829Y-79025268D01*
X153545508Y-79067863D01*
X153540646Y-79125461D01*
X153537105Y-79202460D01*
X153534743Y-79303259D01*
X153533422Y-79432256D01*
X153533003Y-79593850D01*
X153533345Y-79792440D01*
X153534310Y-80032424D01*
X153535758Y-80318200D01*
X153535988Y-80361533D01*
X153543000Y-81677696D01*
X153614163Y-81770975D01*
X153721085Y-81874307D01*
X153845306Y-81935305D01*
X153977792Y-81955079D01*
X153977792Y-87731448D01*
X153779778Y-87444135D01*
X153497288Y-87117187D01*
X153181230Y-86822994D01*
X152834880Y-86564826D01*
X152461510Y-86345954D01*
X152278464Y-86264689D01*
X152278464Y-81954517D01*
X152299383Y-81951240D01*
X152430841Y-81903045D01*
X152544758Y-81816995D01*
X152629281Y-81704202D01*
X152666647Y-81607081D01*
X152671619Y-81560330D01*
X152675954Y-81469103D01*
X152679649Y-81339719D01*
X152682700Y-81178500D01*
X152685106Y-80991765D01*
X152686863Y-80785833D01*
X152687969Y-80567026D01*
X152688420Y-80341662D01*
X152688215Y-80116063D01*
X152687349Y-79896548D01*
X152685820Y-79689436D01*
X152683626Y-79501049D01*
X152680764Y-79337706D01*
X152677231Y-79205727D01*
X152673023Y-79111431D01*
X152668139Y-79061140D01*
X152667780Y-79059466D01*
X152613179Y-78923354D01*
X152524960Y-78816843D01*
X152412214Y-78743043D01*
X152284034Y-78705066D01*
X152149513Y-78706021D01*
X152017742Y-78749019D01*
X151930342Y-78807194D01*
X151894500Y-78837135D01*
X151864245Y-78864570D01*
X151839105Y-78893846D01*
X151818606Y-78929310D01*
X151802277Y-78975311D01*
X151789644Y-79036194D01*
X151780234Y-79116306D01*
X151773575Y-79219996D01*
X151769194Y-79351609D01*
X151766618Y-79515493D01*
X151765375Y-79715996D01*
X151764991Y-79957464D01*
X151764994Y-80244244D01*
X151765000Y-80327500D01*
X151765120Y-80619755D01*
X151765573Y-80865535D01*
X151766495Y-81069166D01*
X151768023Y-81234975D01*
X151770294Y-81367286D01*
X151773445Y-81470425D01*
X151777614Y-81548717D01*
X151782936Y-81606488D01*
X151789550Y-81648063D01*
X151797591Y-81677769D01*
X151807198Y-81699930D01*
X151808537Y-81702425D01*
X151895832Y-81815608D01*
X152011715Y-81899641D01*
X152143490Y-81948089D01*
X152278464Y-81954517D01*
X152278464Y-86264689D01*
X152064395Y-86169650D01*
X151921064Y-86118825D01*
X151726480Y-86060591D01*
X151519586Y-86009877D01*
X151309579Y-85967996D01*
X151105653Y-85936256D01*
X150917007Y-85915970D01*
X150752835Y-85908447D01*
X150622335Y-85915000D01*
X150566004Y-85925681D01*
X150500464Y-85955362D01*
X150500464Y-81954517D01*
X150521383Y-81951240D01*
X150652841Y-81903045D01*
X150766758Y-81816995D01*
X150851281Y-81704202D01*
X150888647Y-81607081D01*
X150893619Y-81560330D01*
X150897954Y-81469103D01*
X150901649Y-81339719D01*
X150904700Y-81178500D01*
X150907106Y-80991765D01*
X150908863Y-80785833D01*
X150909969Y-80567026D01*
X150910420Y-80341662D01*
X150910215Y-80116063D01*
X150909349Y-79896548D01*
X150907820Y-79689436D01*
X150905626Y-79501049D01*
X150902764Y-79337706D01*
X150899231Y-79205727D01*
X150895023Y-79111431D01*
X150890139Y-79061140D01*
X150889780Y-79059466D01*
X150835179Y-78923354D01*
X150746960Y-78816843D01*
X150634214Y-78743043D01*
X150506034Y-78705066D01*
X150371513Y-78706021D01*
X150239742Y-78749019D01*
X150152342Y-78807194D01*
X150116500Y-78837135D01*
X150086245Y-78864570D01*
X150061105Y-78893846D01*
X150040606Y-78929310D01*
X150024277Y-78975311D01*
X150011644Y-79036194D01*
X150002234Y-79116306D01*
X149995575Y-79219996D01*
X149991194Y-79351609D01*
X149988618Y-79515493D01*
X149987375Y-79715996D01*
X149986991Y-79957464D01*
X149986994Y-80244244D01*
X149987000Y-80327500D01*
X149987120Y-80619755D01*
X149987573Y-80865535D01*
X149988495Y-81069166D01*
X149990023Y-81234975D01*
X149992294Y-81367286D01*
X149995445Y-81470425D01*
X149999614Y-81548717D01*
X150004936Y-81606488D01*
X150011550Y-81648063D01*
X150019591Y-81677769D01*
X150029198Y-81699930D01*
X150030537Y-81702425D01*
X150117832Y-81815608D01*
X150233715Y-81899641D01*
X150365490Y-81948089D01*
X150500464Y-81954517D01*
X150500464Y-85955362D01*
X150438187Y-85983567D01*
X150329852Y-86076006D01*
X150250138Y-86191714D01*
X150208182Y-86319407D01*
X150204015Y-86372700D01*
X150221161Y-86469819D01*
X150265474Y-86577629D01*
X150326272Y-86672941D01*
X150358299Y-86707559D01*
X150409267Y-86747967D01*
X150467571Y-86778262D01*
X150542858Y-86800965D01*
X150644773Y-86818594D01*
X150782962Y-86833671D01*
X150869474Y-86841105D01*
X151241659Y-86890482D01*
X151585061Y-86976770D01*
X151907922Y-87102096D01*
X151941971Y-87118086D01*
X152152701Y-87225508D01*
X152333359Y-87334516D01*
X152500532Y-87456687D01*
X152670807Y-87603598D01*
X152764741Y-87692315D01*
X153028070Y-87981441D01*
X153249210Y-88298681D01*
X153427527Y-88642924D01*
X153562385Y-89013059D01*
X153599856Y-89151155D01*
X153626675Y-89265997D01*
X153645416Y-89367418D01*
X153657508Y-89469585D01*
X153664381Y-89586669D01*
X153667464Y-89732837D01*
X153668050Y-89827100D01*
X153666493Y-90021246D01*
X153659810Y-90177319D01*
X153647077Y-90307873D01*
X153627372Y-90425462D01*
X153622324Y-90449400D01*
X153514732Y-90829568D01*
X153364554Y-91185211D01*
X153174775Y-91513759D01*
X152948382Y-91812643D01*
X152688359Y-92079294D01*
X152397692Y-92311143D01*
X152079366Y-92505618D01*
X151736367Y-92660152D01*
X151371680Y-92772174D01*
X150988290Y-92839115D01*
X150830018Y-92852714D01*
X150654753Y-92869157D01*
X150520947Y-92896538D01*
X150419817Y-92938293D01*
X150342578Y-92997856D01*
X150289857Y-93063980D01*
X150227148Y-93199723D01*
X150208183Y-93342474D01*
X150231071Y-93481805D01*
X150293919Y-93607287D01*
X150394838Y-93708491D01*
X150408424Y-93717854D01*
X150456669Y-93746074D01*
X150509424Y-93766494D01*
X150577936Y-93781494D01*
X150673449Y-93793455D01*
X150807208Y-93804758D01*
X150825211Y-93806098D01*
X151228846Y-93859412D01*
X151610798Y-93957335D01*
X151968866Y-94098434D01*
X152300845Y-94281277D01*
X152604533Y-94504432D01*
X152877728Y-94766466D01*
X153118227Y-95065947D01*
X153323827Y-95401444D01*
X153346792Y-95445509D01*
X153502895Y-95804491D01*
X153610103Y-96172991D01*
X153668618Y-96547474D01*
X153678641Y-96924409D01*
X153640373Y-97300263D01*
X153554015Y-97671503D01*
X153419769Y-98034597D01*
X153237835Y-98386012D01*
X153173483Y-98489407D01*
X153063769Y-98638721D01*
X152921882Y-98802110D01*
X152759575Y-98968129D01*
X152588600Y-99125335D01*
X152420708Y-99262282D01*
X152278688Y-99360782D01*
X151938104Y-99545348D01*
X151588690Y-99681931D01*
X151223463Y-99772773D01*
X150850544Y-99819093D01*
X150688230Y-99833343D01*
X150566545Y-99852502D01*
X150475337Y-99880039D01*
X150404455Y-99919421D01*
X150343748Y-99974116D01*
X150320902Y-100000033D01*
X150242419Y-100128516D01*
X150210488Y-100266773D01*
X150225674Y-100406145D01*
X150286068Y-100534376D01*
X150348836Y-100615121D01*
X150416575Y-100673452D01*
X150497955Y-100711957D01*
X150601648Y-100733219D01*
X150736326Y-100739823D01*
X150736326Y-104152738D01*
X150674537Y-104110667D01*
X150549712Y-104072117D01*
X150417790Y-104068350D01*
X150288657Y-104099272D01*
X150172202Y-104164790D01*
X150078312Y-104264811D01*
X150056823Y-104300064D01*
X150046820Y-104321647D01*
X150038431Y-104349589D01*
X150031515Y-104388232D01*
X150025932Y-104441918D01*
X150021542Y-104514987D01*
X150018205Y-104611784D01*
X150015780Y-104736648D01*
X150014128Y-104893924D01*
X150013108Y-105087951D01*
X150012580Y-105323073D01*
X150012405Y-105603631D01*
X150012400Y-105676700D01*
X150012485Y-105967514D01*
X150012844Y-106211950D01*
X150013630Y-106414431D01*
X150014998Y-106579379D01*
X150017100Y-106711216D01*
X150020090Y-106814365D01*
X150024122Y-106893248D01*
X150029351Y-106952287D01*
X150035929Y-106995905D01*
X150044010Y-107028524D01*
X150053748Y-107054566D01*
X150060819Y-107069617D01*
X150142916Y-107182852D01*
X150253153Y-107260674D01*
X150381637Y-107301343D01*
X150518475Y-107303123D01*
X150518475Y-112226833D01*
X150350217Y-112237969D01*
X150125460Y-112247566D01*
X149878868Y-112253936D01*
X149619646Y-112257076D01*
X149357000Y-112256982D01*
X149100137Y-112253651D01*
X148858261Y-112247078D01*
X148640579Y-112237262D01*
X148456295Y-112224197D01*
X148329196Y-112210029D01*
X148269382Y-112201019D01*
X148163080Y-112184428D01*
X148013938Y-112160849D01*
X147825608Y-112130871D01*
X147601738Y-112095086D01*
X147345979Y-112054085D01*
X147061980Y-112008458D01*
X146753392Y-111958796D01*
X146423863Y-111905690D01*
X146077045Y-111849732D01*
X145716587Y-111791511D01*
X145346138Y-111731620D01*
X144969348Y-111670648D01*
X144786722Y-111641070D01*
X144786722Y-107487668D01*
X145013813Y-107485480D01*
X145235180Y-107477334D01*
X145437765Y-107463432D01*
X145608508Y-107443973D01*
X145669000Y-107433926D01*
X146094118Y-107338229D01*
X146487889Y-107215706D01*
X146864764Y-107061513D01*
X147053300Y-106970048D01*
X147393598Y-106780770D01*
X147704771Y-106572952D01*
X147999478Y-106337115D01*
X148290372Y-106063780D01*
X148364281Y-105988167D01*
X148689104Y-105614656D01*
X148971603Y-105213732D01*
X149210806Y-104787487D01*
X149405744Y-104338013D01*
X149555446Y-103867403D01*
X149658941Y-103377747D01*
X149693327Y-103124000D01*
X149704352Y-102970887D01*
X149708824Y-102782413D01*
X149707183Y-102573536D01*
X149699867Y-102359211D01*
X149687318Y-102154396D01*
X149669975Y-101974047D01*
X149656733Y-101879400D01*
X149551940Y-101392916D01*
X149402479Y-100927076D01*
X149210738Y-100484136D01*
X148979105Y-100066352D01*
X148709970Y-99675982D01*
X148405718Y-99315281D01*
X148068740Y-98986506D01*
X147701422Y-98691912D01*
X147306154Y-98433757D01*
X146885323Y-98214296D01*
X146441317Y-98035786D01*
X145976525Y-97900483D01*
X145493334Y-97810643D01*
X145329758Y-97791308D01*
X145019733Y-97775331D01*
X145019733Y-88905499D01*
X145513276Y-88864088D01*
X145995479Y-88773952D01*
X146463972Y-88635817D01*
X146916386Y-88450411D01*
X147350350Y-88218461D01*
X147763495Y-87940694D01*
X147849584Y-87874896D01*
X148214280Y-87558503D01*
X148543534Y-87208688D01*
X148835678Y-86829327D01*
X149089044Y-86424302D01*
X149301962Y-85997489D01*
X149472765Y-85552769D01*
X149599784Y-85094019D01*
X149681351Y-84625118D01*
X149715796Y-84149945D01*
X149701453Y-83672379D01*
X149693690Y-83587742D01*
X149619411Y-83096697D01*
X149498836Y-82622305D01*
X149334084Y-82167216D01*
X149127272Y-81734079D01*
X148880516Y-81325545D01*
X148595935Y-80944261D01*
X148275644Y-80592879D01*
X147921762Y-80274048D01*
X147536406Y-79990416D01*
X147121692Y-79744634D01*
X146679738Y-79539352D01*
X146367500Y-79425152D01*
X145891992Y-79295116D01*
X145409817Y-79213427D01*
X144924971Y-79179806D01*
X144441451Y-79193974D01*
X143963253Y-79255653D01*
X143494373Y-79364563D01*
X143038808Y-79520427D01*
X142679534Y-79682297D01*
X142247129Y-79927500D01*
X141846285Y-80211273D01*
X141478938Y-80530921D01*
X141147021Y-80883749D01*
X140852468Y-81267062D01*
X140597213Y-81678166D01*
X140383190Y-82114364D01*
X140212332Y-82572963D01*
X140086573Y-83051267D01*
X140029350Y-83375500D01*
X140010158Y-83557865D01*
X139998285Y-83774707D01*
X139993708Y-84010238D01*
X139996403Y-84248669D01*
X140006347Y-84474211D01*
X140023516Y-84671076D01*
X140031353Y-84731141D01*
X140126104Y-85212952D01*
X140266035Y-85675805D01*
X140448624Y-86117361D01*
X140671354Y-86535279D01*
X140931704Y-86927220D01*
X141227155Y-87290843D01*
X141555187Y-87623809D01*
X141913282Y-87923777D01*
X142298919Y-88188409D01*
X142709580Y-88415362D01*
X143142744Y-88602299D01*
X143595892Y-88746878D01*
X144066506Y-88846759D01*
X144517220Y-88897457D01*
X145019733Y-88905499D01*
X145019733Y-97775331D01*
X144839980Y-97766066D01*
X144359216Y-97789190D01*
X143890042Y-97858652D01*
X143435035Y-97972428D01*
X142996769Y-98128492D01*
X142577822Y-98324818D01*
X142180769Y-98559380D01*
X141808185Y-98830153D01*
X141462647Y-99135112D01*
X141146731Y-99472231D01*
X140863011Y-99839483D01*
X140614065Y-100234844D01*
X140402468Y-100656288D01*
X140230795Y-101101789D01*
X140101624Y-101569322D01*
X140030515Y-101958571D01*
X140010700Y-102146684D01*
X139998444Y-102368411D01*
X139993736Y-102607901D01*
X139996567Y-102849302D01*
X140006925Y-103076762D01*
X140024801Y-103274431D01*
X140031393Y-103323941D01*
X140127626Y-103811085D01*
X140271500Y-104282344D01*
X140461530Y-104734763D01*
X140696229Y-105165381D01*
X140974110Y-105571243D01*
X141293688Y-105949390D01*
X141412315Y-106071855D01*
X141786130Y-106410373D01*
X142183455Y-106703866D01*
X142604006Y-106952194D01*
X143047497Y-107155215D01*
X143513642Y-107312788D01*
X144002157Y-107424771D01*
X144201687Y-107456478D01*
X144367600Y-107473367D01*
X144566965Y-107483697D01*
X144786722Y-107487668D01*
X144786722Y-111641070D01*
X144589868Y-111609187D01*
X144211347Y-111547827D01*
X143837435Y-111487160D01*
X143471782Y-111427776D01*
X143118038Y-111370266D01*
X142779852Y-111315222D01*
X142460874Y-111263233D01*
X142164755Y-111214891D01*
X141895143Y-111170788D01*
X141655690Y-111131512D01*
X141450044Y-111097657D01*
X141281855Y-111069812D01*
X141154774Y-111048568D01*
X141147800Y-111047392D01*
X140969005Y-111015162D01*
X140759631Y-110974123D01*
X140538292Y-110928122D01*
X140323607Y-110881008D01*
X140169900Y-110845278D01*
X140099257Y-110829030D01*
X139981195Y-110802773D01*
X139818000Y-110766995D01*
X139611956Y-110722186D01*
X139365349Y-110668834D01*
X139080463Y-110607427D01*
X138759583Y-110538455D01*
X138404994Y-110462404D01*
X138018982Y-110379765D01*
X137603831Y-110291026D01*
X137161825Y-110196674D01*
X136695251Y-110097200D01*
X136206393Y-109993091D01*
X135697537Y-109884835D01*
X135170966Y-109772922D01*
X134628966Y-109657840D01*
X134073822Y-109540078D01*
X133507819Y-109420124D01*
X133159500Y-109346359D01*
X132592244Y-109226160D01*
X132036656Y-109108231D01*
X131494884Y-108993036D01*
X130969077Y-108881037D01*
X130461382Y-108772698D01*
X129973948Y-108668483D01*
X129508923Y-108568855D01*
X129068455Y-108474278D01*
X128654692Y-108385215D01*
X128269782Y-108302130D01*
X127915874Y-108225486D01*
X127595116Y-108155747D01*
X127309655Y-108093376D01*
X127061641Y-108038836D01*
X126853220Y-107992592D01*
X126686542Y-107955106D01*
X126563754Y-107926842D01*
X126487005Y-107908264D01*
X126461674Y-107901220D01*
X126178760Y-107778817D01*
X125923441Y-107617302D01*
X125697720Y-107421445D01*
X125503602Y-107196014D01*
X125343088Y-106945780D01*
X125218181Y-106675513D01*
X125130884Y-106389982D01*
X125083200Y-106093958D01*
X125077133Y-105792209D01*
X125114684Y-105489505D01*
G36*
X140403362Y-102287415D02*
X140461399Y-101835044D01*
X140564973Y-101392116D01*
X140713239Y-100962104D01*
X140905346Y-100548480D01*
X141140447Y-100154716D01*
X141417694Y-99784286D01*
X141736239Y-99440661D01*
X141802057Y-99378040D01*
X142050679Y-99160840D01*
X142302256Y-98972664D01*
X142572742Y-98802557D01*
X142875000Y-98641096D01*
X143206235Y-98488488D01*
X143521810Y-98370427D01*
X143834430Y-98283968D01*
X144156801Y-98226165D01*
X144501628Y-98194073D01*
X144843500Y-98184735D01*
X145061684Y-98185931D01*
X145243099Y-98191651D01*
X145401697Y-98203579D01*
X145551428Y-98223399D01*
X145706244Y-98252796D01*
X145880097Y-98293454D01*
X146001723Y-98324575D01*
X146445319Y-98466069D01*
X146866257Y-98651396D01*
X147262132Y-98877805D01*
X147630542Y-99142541D01*
X147969082Y-99442851D01*
X148275348Y-99775983D01*
X148546939Y-100139182D01*
X148781448Y-100529697D01*
X148976474Y-100944773D01*
X149129612Y-101381657D01*
X149238459Y-101837596D01*
X149275935Y-102074992D01*
X149291653Y-102228648D01*
X149302734Y-102405812D01*
X149308820Y-102590836D01*
X149309556Y-102768073D01*
X149304586Y-102921875D01*
X149297228Y-103009700D01*
X149245567Y-103374310D01*
X149180520Y-103700590D01*
X149098739Y-104000008D01*
X148996872Y-104284036D01*
X148871570Y-104564141D01*
X148804828Y-104695420D01*
X148559381Y-105108807D01*
X148276800Y-105488325D01*
X147959139Y-105832431D01*
X147608457Y-106139579D01*
X147226807Y-106408224D01*
X146816248Y-106636820D01*
X146378834Y-106823822D01*
X145916622Y-106967686D01*
X145719800Y-107013975D01*
X145623089Y-107033600D01*
X145534662Y-107048427D01*
X145444952Y-107059101D01*
X145344397Y-107066269D01*
X145223433Y-107070577D01*
X145072494Y-107072670D01*
X144978236Y-107072930D01*
X144978236Y-106336955D01*
X145205949Y-106327528D01*
X145408389Y-106308170D01*
X145516600Y-106290736D01*
X145948434Y-106181349D01*
X146355203Y-106028317D01*
X146735813Y-105832195D01*
X147089174Y-105593539D01*
X147387365Y-105338691D01*
X147688255Y-105021324D01*
X147942993Y-104684898D01*
X148153775Y-104325956D01*
X148322795Y-103941039D01*
X148381566Y-103771700D01*
X148484646Y-103389716D01*
X148544640Y-103012730D01*
X148562292Y-102630584D01*
X148538346Y-102233122D01*
X148510025Y-102019100D01*
X148433629Y-101665602D01*
X148315179Y-101306587D01*
X148159977Y-100954919D01*
X147973327Y-100623463D01*
X147872741Y-100473373D01*
X147753112Y-100320080D01*
X147603557Y-100151498D01*
X147436636Y-99980187D01*
X147264910Y-99818709D01*
X147100939Y-99679622D01*
X147011527Y-99612159D01*
X146647700Y-99383820D01*
X146266071Y-99201106D01*
X145870652Y-99064020D01*
X145465451Y-98972563D01*
X145054480Y-98926738D01*
X144641747Y-98926545D01*
X144231263Y-98971987D01*
X143827038Y-99063064D01*
X143433081Y-99199779D01*
X143053403Y-99382134D01*
X142692012Y-99610130D01*
X142691672Y-99610374D01*
X142354884Y-99881895D01*
X142054243Y-100187981D01*
X141791715Y-100525616D01*
X141569270Y-100891782D01*
X141388875Y-101283460D01*
X141252497Y-101697633D01*
X141206707Y-101887315D01*
X141175542Y-102079650D01*
X141155408Y-102306025D01*
X141146312Y-102551590D01*
X141148259Y-102801491D01*
X141161254Y-103040878D01*
X141185304Y-103254899D01*
X141206148Y-103370086D01*
X141324112Y-103798193D01*
X141485241Y-104201614D01*
X141687232Y-104578047D01*
X141927783Y-104925189D01*
X142204591Y-105240739D01*
X142515354Y-105522394D01*
X142857768Y-105767853D01*
X143229532Y-105974814D01*
X143628343Y-106140974D01*
X144051898Y-106264032D01*
X144114814Y-106278071D01*
X144293539Y-106307010D01*
X144507023Y-106326560D01*
X144740258Y-106336587D01*
X144978236Y-106336955D01*
X144978236Y-107072930D01*
X144882016Y-107073196D01*
X144843500Y-107073175D01*
X144597980Y-107071113D01*
X144391392Y-107064218D01*
X144211961Y-107050717D01*
X144047910Y-107028837D01*
X143887465Y-106996805D01*
X143718849Y-106952846D01*
X143530287Y-106895187D01*
X143418578Y-106858581D01*
X142993386Y-106690673D01*
X142588394Y-106478290D01*
X142207134Y-106224916D01*
X141853135Y-105934031D01*
X141529928Y-105609117D01*
X141241044Y-105253656D01*
X140990013Y-104871130D01*
X140780365Y-104465021D01*
X140643556Y-104121878D01*
X140510960Y-103666461D01*
X140427294Y-103206596D01*
X140391711Y-102745757D01*
X140403362Y-102287415D01*
X140403362Y-102287415D01*
G37*
X140403362Y-102287415D02*
X140461399Y-101835044D01*
X140564973Y-101392116D01*
X140713239Y-100962104D01*
X140905346Y-100548480D01*
X141140447Y-100154716D01*
X141417694Y-99784286D01*
X141736239Y-99440661D01*
X141802057Y-99378040D01*
X142050679Y-99160840D01*
X142302256Y-98972664D01*
X142572742Y-98802557D01*
X142875000Y-98641096D01*
X143206235Y-98488488D01*
X143521810Y-98370427D01*
X143834430Y-98283968D01*
X144156801Y-98226165D01*
X144501628Y-98194073D01*
X144843500Y-98184735D01*
X145061684Y-98185931D01*
X145243099Y-98191651D01*
X145401697Y-98203579D01*
X145551428Y-98223399D01*
X145706244Y-98252796D01*
X145880097Y-98293454D01*
X146001723Y-98324575D01*
X146445319Y-98466069D01*
X146866257Y-98651396D01*
X147262132Y-98877805D01*
X147630542Y-99142541D01*
X147969082Y-99442851D01*
X148275348Y-99775983D01*
X148546939Y-100139182D01*
X148781448Y-100529697D01*
X148976474Y-100944773D01*
X149129612Y-101381657D01*
X149238459Y-101837596D01*
X149275935Y-102074992D01*
X149291653Y-102228648D01*
X149302734Y-102405812D01*
X149308820Y-102590836D01*
X149309556Y-102768073D01*
X149304586Y-102921875D01*
X149297228Y-103009700D01*
X149245567Y-103374310D01*
X149180520Y-103700590D01*
X149098739Y-104000008D01*
X148996872Y-104284036D01*
X148871570Y-104564141D01*
X148804828Y-104695420D01*
X148559381Y-105108807D01*
X148276800Y-105488325D01*
X147959139Y-105832431D01*
X147608457Y-106139579D01*
X147226807Y-106408224D01*
X146816248Y-106636820D01*
X146378834Y-106823822D01*
X145916622Y-106967686D01*
X145719800Y-107013975D01*
X145623089Y-107033600D01*
X145534662Y-107048427D01*
X145444952Y-107059101D01*
X145344397Y-107066269D01*
X145223433Y-107070577D01*
X145072494Y-107072670D01*
X144978236Y-107072930D01*
X144978236Y-106336955D01*
X145205949Y-106327528D01*
X145408389Y-106308170D01*
X145516600Y-106290736D01*
X145948434Y-106181349D01*
X146355203Y-106028317D01*
X146735813Y-105832195D01*
X147089174Y-105593539D01*
X147387365Y-105338691D01*
X147688255Y-105021324D01*
X147942993Y-104684898D01*
X148153775Y-104325956D01*
X148322795Y-103941039D01*
X148381566Y-103771700D01*
X148484646Y-103389716D01*
X148544640Y-103012730D01*
X148562292Y-102630584D01*
X148538346Y-102233122D01*
X148510025Y-102019100D01*
X148433629Y-101665602D01*
X148315179Y-101306587D01*
X148159977Y-100954919D01*
X147973327Y-100623463D01*
X147872741Y-100473373D01*
X147753112Y-100320080D01*
X147603557Y-100151498D01*
X147436636Y-99980187D01*
X147264910Y-99818709D01*
X147100939Y-99679622D01*
X147011527Y-99612159D01*
X146647700Y-99383820D01*
X146266071Y-99201106D01*
X145870652Y-99064020D01*
X145465451Y-98972563D01*
X145054480Y-98926738D01*
X144641747Y-98926545D01*
X144231263Y-98971987D01*
X143827038Y-99063064D01*
X143433081Y-99199779D01*
X143053403Y-99382134D01*
X142692012Y-99610130D01*
X142691672Y-99610374D01*
X142354884Y-99881895D01*
X142054243Y-100187981D01*
X141791715Y-100525616D01*
X141569270Y-100891782D01*
X141388875Y-101283460D01*
X141252497Y-101697633D01*
X141206707Y-101887315D01*
X141175542Y-102079650D01*
X141155408Y-102306025D01*
X141146312Y-102551590D01*
X141148259Y-102801491D01*
X141161254Y-103040878D01*
X141185304Y-103254899D01*
X141206148Y-103370086D01*
X141324112Y-103798193D01*
X141485241Y-104201614D01*
X141687232Y-104578047D01*
X141927783Y-104925189D01*
X142204591Y-105240739D01*
X142515354Y-105522394D01*
X142857768Y-105767853D01*
X143229532Y-105974814D01*
X143628343Y-106140974D01*
X144051898Y-106264032D01*
X144114814Y-106278071D01*
X144293539Y-106307010D01*
X144507023Y-106326560D01*
X144740258Y-106336587D01*
X144978236Y-106336955D01*
X144978236Y-107072930D01*
X144882016Y-107073196D01*
X144843500Y-107073175D01*
X144597980Y-107071113D01*
X144391392Y-107064218D01*
X144211961Y-107050717D01*
X144047910Y-107028837D01*
X143887465Y-106996805D01*
X143718849Y-106952846D01*
X143530287Y-106895187D01*
X143418578Y-106858581D01*
X142993386Y-106690673D01*
X142588394Y-106478290D01*
X142207134Y-106224916D01*
X141853135Y-105934031D01*
X141529928Y-105609117D01*
X141241044Y-105253656D01*
X140990013Y-104871130D01*
X140780365Y-104465021D01*
X140643556Y-104121878D01*
X140510960Y-103666461D01*
X140427294Y-103206596D01*
X140391711Y-102745757D01*
X140403362Y-102287415D01*
G36*
X140397534Y-83846170D02*
X140424372Y-83482093D01*
X140474295Y-83161586D01*
X140592666Y-82704531D01*
X140755928Y-82268333D01*
X140961593Y-81855533D01*
X141207167Y-81468671D01*
X141490162Y-81110286D01*
X141808086Y-80782919D01*
X142158449Y-80489111D01*
X142538760Y-80231400D01*
X142946528Y-80012328D01*
X143379264Y-79834434D01*
X143834475Y-79700258D01*
X143878300Y-79689992D01*
X144326514Y-79612953D01*
X144783253Y-79583889D01*
X145242585Y-79602077D01*
X145698581Y-79666790D01*
X146145309Y-79777305D01*
X146576839Y-79932897D01*
X146832788Y-80050997D01*
X147243234Y-80284663D01*
X147621805Y-80555207D01*
X147966793Y-80859433D01*
X148276492Y-81194148D01*
X148549194Y-81556156D01*
X148783193Y-81942263D01*
X148976782Y-82349275D01*
X149128252Y-82773997D01*
X149235898Y-83213234D01*
X149298013Y-83663792D01*
X149312888Y-84122477D01*
X149278818Y-84586093D01*
X149274360Y-84620100D01*
X149185436Y-85090805D01*
X149048305Y-85547957D01*
X148864487Y-85987684D01*
X148635505Y-86406113D01*
X148481270Y-86639400D01*
X148362736Y-86793005D01*
X148213282Y-86964994D01*
X148043625Y-87144648D01*
X147864481Y-87321243D01*
X147686565Y-87484059D01*
X147520592Y-87622374D01*
X147434300Y-87686950D01*
X147261199Y-87799952D01*
X147056272Y-87918139D01*
X146834215Y-88034154D01*
X146609728Y-88140641D01*
X146397506Y-88230245D01*
X146227800Y-88290795D01*
X145755525Y-88414224D01*
X145284734Y-88486907D01*
X144815028Y-88508863D01*
X144800241Y-88507957D01*
X144800241Y-87754732D01*
X145096734Y-87747306D01*
X145382588Y-87720880D01*
X145639985Y-87675941D01*
X145656300Y-87672157D01*
X146080064Y-87548898D01*
X146473198Y-87385928D01*
X146838808Y-87181514D01*
X147180002Y-86933923D01*
X147493966Y-86647431D01*
X147781570Y-86321083D01*
X148025362Y-85970306D01*
X148224484Y-85597792D01*
X148378078Y-85206236D01*
X148485285Y-84798331D01*
X148545247Y-84376770D01*
X148557106Y-83944246D01*
X148520004Y-83503454D01*
X148512414Y-83451398D01*
X148424827Y-83040262D01*
X148291679Y-82647151D01*
X148115892Y-82274923D01*
X147900390Y-81926435D01*
X147648093Y-81604545D01*
X147361924Y-81312110D01*
X147044805Y-81051988D01*
X146699659Y-80827036D01*
X146329406Y-80640112D01*
X145936971Y-80494073D01*
X145525274Y-80391776D01*
X145354714Y-80363584D01*
X145206501Y-80349623D01*
X145024165Y-80343280D01*
X144821387Y-80344035D01*
X144611850Y-80351369D01*
X144409236Y-80364764D01*
X144227227Y-80383701D01*
X144079504Y-80407661D01*
X144056100Y-80412818D01*
X143629641Y-80536508D01*
X143230816Y-80702667D01*
X142858084Y-80912175D01*
X142509908Y-81165911D01*
X142184750Y-81464755D01*
X142146209Y-81504735D01*
X141871636Y-81829791D01*
X141636231Y-82185475D01*
X141442125Y-82567643D01*
X141291449Y-82972155D01*
X141193919Y-83355945D01*
X141167595Y-83534986D01*
X141151344Y-83748634D01*
X141145026Y-83982195D01*
X141148500Y-84220975D01*
X141161627Y-84450278D01*
X141184267Y-84655411D01*
X141207547Y-84785200D01*
X141328125Y-85221422D01*
X141489328Y-85627235D01*
X141691515Y-86003204D01*
X141935045Y-86349892D01*
X142220277Y-86667863D01*
X142547570Y-86957680D01*
X142632590Y-87023237D01*
X142987776Y-87258359D01*
X143369309Y-87450776D01*
X143774052Y-87599154D01*
X144198868Y-87702155D01*
X144246600Y-87710642D01*
X144510923Y-87742673D01*
X144800241Y-87754732D01*
X144800241Y-88507957D01*
X144346004Y-88480110D01*
X143880297Y-88401345D01*
X143427398Y-88275075D01*
X142995573Y-88104199D01*
X142587446Y-87891393D01*
X142205641Y-87639332D01*
X141852782Y-87350691D01*
X141531491Y-87028143D01*
X141244394Y-86674364D01*
X140994113Y-86292028D01*
X140783273Y-85883811D01*
X140614496Y-85452386D01*
X140490408Y-85000429D01*
X140475733Y-84930645D01*
X140423228Y-84587515D01*
X140397157Y-84220334D01*
X140397534Y-83846170D01*
X140397534Y-83846170D01*
G37*
X140397534Y-83846170D02*
X140424372Y-83482093D01*
X140474295Y-83161586D01*
X140592666Y-82704531D01*
X140755928Y-82268333D01*
X140961593Y-81855533D01*
X141207167Y-81468671D01*
X141490162Y-81110286D01*
X141808086Y-80782919D01*
X142158449Y-80489111D01*
X142538760Y-80231400D01*
X142946528Y-80012328D01*
X143379264Y-79834434D01*
X143834475Y-79700258D01*
X143878300Y-79689992D01*
X144326514Y-79612953D01*
X144783253Y-79583889D01*
X145242585Y-79602077D01*
X145698581Y-79666790D01*
X146145309Y-79777305D01*
X146576839Y-79932897D01*
X146832788Y-80050997D01*
X147243234Y-80284663D01*
X147621805Y-80555207D01*
X147966793Y-80859433D01*
X148276492Y-81194148D01*
X148549194Y-81556156D01*
X148783193Y-81942263D01*
X148976782Y-82349275D01*
X149128252Y-82773997D01*
X149235898Y-83213234D01*
X149298013Y-83663792D01*
X149312888Y-84122477D01*
X149278818Y-84586093D01*
X149274360Y-84620100D01*
X149185436Y-85090805D01*
X149048305Y-85547957D01*
X148864487Y-85987684D01*
X148635505Y-86406113D01*
X148481270Y-86639400D01*
X148362736Y-86793005D01*
X148213282Y-86964994D01*
X148043625Y-87144648D01*
X147864481Y-87321243D01*
X147686565Y-87484059D01*
X147520592Y-87622374D01*
X147434300Y-87686950D01*
X147261199Y-87799952D01*
X147056272Y-87918139D01*
X146834215Y-88034154D01*
X146609728Y-88140641D01*
X146397506Y-88230245D01*
X146227800Y-88290795D01*
X145755525Y-88414224D01*
X145284734Y-88486907D01*
X144815028Y-88508863D01*
X144800241Y-88507957D01*
X144800241Y-87754732D01*
X145096734Y-87747306D01*
X145382588Y-87720880D01*
X145639985Y-87675941D01*
X145656300Y-87672157D01*
X146080064Y-87548898D01*
X146473198Y-87385928D01*
X146838808Y-87181514D01*
X147180002Y-86933923D01*
X147493966Y-86647431D01*
X147781570Y-86321083D01*
X148025362Y-85970306D01*
X148224484Y-85597792D01*
X148378078Y-85206236D01*
X148485285Y-84798331D01*
X148545247Y-84376770D01*
X148557106Y-83944246D01*
X148520004Y-83503454D01*
X148512414Y-83451398D01*
X148424827Y-83040262D01*
X148291679Y-82647151D01*
X148115892Y-82274923D01*
X147900390Y-81926435D01*
X147648093Y-81604545D01*
X147361924Y-81312110D01*
X147044805Y-81051988D01*
X146699659Y-80827036D01*
X146329406Y-80640112D01*
X145936971Y-80494073D01*
X145525274Y-80391776D01*
X145354714Y-80363584D01*
X145206501Y-80349623D01*
X145024165Y-80343280D01*
X144821387Y-80344035D01*
X144611850Y-80351369D01*
X144409236Y-80364764D01*
X144227227Y-80383701D01*
X144079504Y-80407661D01*
X144056100Y-80412818D01*
X143629641Y-80536508D01*
X143230816Y-80702667D01*
X142858084Y-80912175D01*
X142509908Y-81165911D01*
X142184750Y-81464755D01*
X142146209Y-81504735D01*
X141871636Y-81829791D01*
X141636231Y-82185475D01*
X141442125Y-82567643D01*
X141291449Y-82972155D01*
X141193919Y-83355945D01*
X141167595Y-83534986D01*
X141151344Y-83748634D01*
X141145026Y-83982195D01*
X141148500Y-84220975D01*
X141161627Y-84450278D01*
X141184267Y-84655411D01*
X141207547Y-84785200D01*
X141328125Y-85221422D01*
X141489328Y-85627235D01*
X141691515Y-86003204D01*
X141935045Y-86349892D01*
X142220277Y-86667863D01*
X142547570Y-86957680D01*
X142632590Y-87023237D01*
X142987776Y-87258359D01*
X143369309Y-87450776D01*
X143774052Y-87599154D01*
X144198868Y-87702155D01*
X144246600Y-87710642D01*
X144510923Y-87742673D01*
X144800241Y-87754732D01*
X144800241Y-88507957D01*
X144346004Y-88480110D01*
X143880297Y-88401345D01*
X143427398Y-88275075D01*
X142995573Y-88104199D01*
X142587446Y-87891393D01*
X142205641Y-87639332D01*
X141852782Y-87350691D01*
X141531491Y-87028143D01*
X141244394Y-86674364D01*
X140994113Y-86292028D01*
X140783273Y-85883811D01*
X140614496Y-85452386D01*
X140490408Y-85000429D01*
X140475733Y-84930645D01*
X140423228Y-84587515D01*
X140397157Y-84220334D01*
X140397534Y-83846170D01*
M02*
