  0
SECTION
  2
HEADER
  9
$ACADVER
  1
AC1014
  9
$HANDSEED
  5
FFFF
  9
$MEASUREMENT
 70
     1
  0
ENDSEC
  0
SECTION
  2
TABLES
  0
TABLE
  2
VPORT
  5
8
330
0
100
AcDbSymbolTable
 70
     4
  0
VPORT
  5
2E
330
8
100
AcDbSymbolTableRecord
100
AcDbViewportTableRecord
  2
*ACTIVE
 70
     0
 10
0.0
 20
0.0
 11
1.0
 21
1.0
 12
210.0
 22
148.5
 13
0.0
 23
0.0
 14
10.0
 24
10.0
 15
10.0
 25
10.0
 16
0.0
 26
0.0
 36
1.0
 17
0.0
 27
0.0
 37
0.0
 40
341.0
 41
1.24
 42
50.0
 43
0.0
 44
0.0
 50
0.0
 51
0.0
 71
     0
 72
   100
 73
     1
 74
     3
 75
     0
 76
     0
 77
     0
 78
     0
  0
ENDTAB
  0
TABLE
  2
LTYPE
  5
5
330
0
100
AcDbSymbolTable
 70
     1
  0
LTYPE
  5
14
330
5
100
AcDbSymbolTableRecord
100
AcDbLinetypeTableRecord
  2
BYBLOCK
 70
     0
  3

 72
    65
 73
     0
 40
0.0
  0
LTYPE
  5
15
330
5
100
AcDbSymbolTableRecord
100
AcDbLinetypeTableRecord
  2
BYLAYER
 70
     0
  3

 72
    65
 73
     0
 40
0.0
  0
LTYPE
  5
16
330
5
100
AcDbSymbolTableRecord
100
AcDbLinetypeTableRecord
  2
CONTINUOUS
 70
     0
  3
Solid line
 72
    65
 73
     0
 40
0.0
  0
ENDTAB
  0
TABLE
  2
LAYER
  5
2
100
AcDbSymbolTable
 70
1
  0
LAYER
  5
50
100
AcDbSymbolTableRecord
100
AcDbLayerTableRecord
  2
0
 70
0
  6
CONTINUOUS
  0
ENDTAB
  0
TABLE
  2
STYLE
  5
3
330
0
100
AcDbSymbolTable
 70
     1
  0
STYLE
  5
11
330
3
100
AcDbSymbolTableRecord
100
AcDbTextStyleTableRecord
  2
STANDARD
 70
     0
 40
0.0
 41
1.0
 50
0.0
 71
     0
 42
2.5
  3
txt
  4

  0
ENDTAB
  0
TABLE
  2
VIEW
  5
6
330
0
100
AcDbSymbolTable
 70
     0
  0
ENDTAB
  0
TABLE
  2
UCS
  5
7
330
0
100
AcDbSymbolTable
 70
     0
  0
ENDTAB
  0
TABLE
  2
APPID
  5
9
330
0
100
AcDbSymbolTable
 70
     2
  0
APPID
  5
12
330
9
100
AcDbSymbolTableRecord
100
AcDbRegAppTableRecord
  2
ACAD
 70
     0
  0
ENDTAB
  0
TABLE
  2
DIMSTYLE
  5
A
330
0
100
AcDbSymbolTable
 70
     1
  0
DIMSTYLE
105
27
330
A
100
AcDbSymbolTableRecord
100
AcDbDimStyleTableRecord
  2
ISO-25
 70
     0
  3

  4

  5

  6

  7

 40
1.0
 41
2.5
 42
0.625
 43
3.75
 44
1.25
 45
0.0
 46
0.0
 47
0.0
 48
0.0
140
2.5
141
2.5
142
0.0
143
0.03937007874016
144
1.0
145
0.0
146
1.0
147
0.625
 71
     0
 72
     0
 73
     0
 74
     0
 75
     0
 76
     0
 77
     1
 78
     8
170
     0
171
     3
172
     1
173
     0
174
     0
175
     0
176
     0
177
     0
178
     0
270
     2
271
     2
272
     2
273
     2
274
     3
340
11
275
     0
280
     0
281
     0
282
     0
283
     0
284
     8
285
     0
286
     0
287
     3
288
     0
  0
ENDTAB
  0
TABLE
  2
BLOCK_RECORD
  5
1
330
0
100
AcDbSymbolTable
 70
     1
  0
BLOCK_RECORD
  5
1F
330
1
100
AcDbSymbolTableRecord
100
AcDbBlockTableRecord
  2
*MODEL_SPACE
  0
BLOCK_RECORD
  5
1B
330
1
100
AcDbSymbolTableRecord
100
AcDbBlockTableRecord
  2
*PAPER_SPACE
  0
ENDTAB
  0
ENDSEC
  0
SECTION
  2
BLOCKS
  0
BLOCK
  5
20
330
1F
100
AcDbEntity
  8
0
100
AcDbBlockBegin
  2
*MODEL_SPACE
 70
     0
 10
0.0
 20
0.0
 30
0.0
  3
*MODEL_SPACE
  1

  0
ENDBLK
  5
21
330
1F
100
AcDbEntity
  8
0
100
AcDbBlockEnd
  0
BLOCK
  5
1C
330
1B
100
AcDbEntity
 67
     1
  8
0
100
AcDbBlockBegin
  2
*PAPER_SPACE
  1

  0
ENDBLK
  5
1D
330
1B
100
AcDbEntity
 67
     1
  8
0
100
AcDbBlockEnd
  0
ENDSEC
  0
SECTION
  2
ENTITIES
  0
LWPOLYLINE
  5
100
100
AcDbEntity
  8
0
 62
7
100
AcDbPolyline
 90
170
 70
1
 10
98.197272
 20
114.763190
 30
0.0
 10
96.332085
 20
114.709898
 30
0.0
 10
94.472641
 20
114.549642
 30
0.0
 10
92.625971
 20
114.282566
 30
0.0
 10
90.797293
 20
113.909336
 30
0.0
 10
88.993654
 20
113.431647
 30
0.0
 10
89.708101
 20
112.372094
 30
0.0
 10
90.373541
 20
111.279792
 30
0.0
 10
92.337087
 20
111.921370
 30
0.0
 10
94.374202
 20
112.268683
 30
0.0
 10
96.438754
 20
112.313781
 30
0.0
 10
98.488407
 20
112.056576
 30
0.0
 10
100.478543
 20
111.502886
 30
0.0
 10
102.366466
 20
110.664186
 30
0.0
 10
104.111386
 20
109.557771
 30
0.0
 10
105.675297
 20
108.208010
 30
0.0
 10
107.112451
 20
106.528305
 30
0.0
 10
108.269003
 20
104.644201
 30
0.0
 10
109.114193
 20
102.601651
 30
0.0
 10
109.628421
 20
100.451458
 30
0.0
 10
109.800951
 20
98.246779
 30
0.0
 10
109.628433
 20
96.042759
 30
0.0
 10
109.114083
 20
93.892154
 30
0.0
 10
108.269062
 20
91.850057
 30
0.0
 10
107.112455
 20
89.965844
 30
0.0
 10
105.675297
 20
88.286134
 30
0.0
 10
104.142157
 20
86.965465
 30
0.0
 10
102.435451
 20
85.877997
 30
0.0
 10
100.591477
 20
85.046613
 30
0.0
 10
98.646979
 20
84.487796
 30
0.0
 10
99.715432
 20
82.613573
 30
0.0
 10
100.484586
 20
80.598819
 30
0.0
 10
100.935924
 20
78.489948
 30
0.0
 10
101.059868
 20
76.336589
 30
0.0
 10
100.854551
 20
74.189456
 30
0.0
 10
100.324669
 20
72.098342
 30
0.0
 10
99.481445
 20
70.112541
 30
0.0
 10
98.344179
 20
68.280035
 30
0.0
 10
96.940437
 20
66.643068
 30
0.0
 10
95.300181
 20
65.237658
 30
0.0
 10
93.464966
 20
64.100281
 30
0.0
 10
91.476995
 20
63.257928
 30
0.0
 10
89.383339
 20
62.729407
 30
0.0
 10
87.233596
 20
62.526136
 30
0.0
 10
85.077701
 20
62.652903
 30
0.0
 10
82.966330
 20
63.107977
 30
0.0
 10
80.950382
 20
63.881428
 30
0.0
 10
79.076666
 20
64.954105
 30
0.0
 10
78.512246
 20
63.017260
 30
0.0
 10
77.676826
 20
61.180685
 30
0.0
 10
76.588219
 20
59.483070
 30
0.0
 10
75.268068
 20
57.958007
 30
0.0
 10
73.680708
 20
56.595390
 30
0.0
 10
71.909618
 20
55.483246
 30
0.0
 10
69.994311
 20
54.645836
 30
0.0
 10
67.975515
 20
54.100903
 30
0.0
 10
65.897463
 20
53.860840
 30
0.0
 10
65.897463
 20
51.965983
 30
0.0
 10
65.897463
 20
50.071662
 30
0.0
 10
65.897463
 20
48.177485
 30
0.0
 10
65.897463
 20
46.282448
 30
0.0
 10
65.897463
 20
44.387238
 30
0.0
 10
65.897463
 20
42.492189
 30
0.0
 10
65.922142
 20
41.346758
 30
0.0
 10
65.986819
 20
40.202642
 30
0.0
 10
67.885716
 20
39.034282
 30
0.0
 10
69.696096
 20
37.732431
 30
0.0
 10
71.408227
 20
36.304605
 30
0.0
 10
73.014504
 20
34.757389
 30
0.0
 10
74.505613
 20
33.099741
 30
0.0
 10
75.873766
 20
31.340246
 30
0.0
 10
77.112637
 20
29.486383
 30
0.0
 10
78.214608
 20
27.548503
 30
0.0
 10
79.173773
 20
25.535842
 30
0.0
 10
79.984662
 20
23.458430
 30
0.0
 10
80.642256
 20
21.328155
 30
0.0
 10
81.143189
 20
19.156122
 30
0.0
 10
81.485520
 20
16.952029
 30
0.0
 10
81.667968
 20
14.730466
 30
0.0
 10
83.566816
 20
13.684011
 30
0.0
 10
85.532465
 20
12.767188
 30
0.0
 10
87.554283
 20
11.985402
 30
0.0
 10
89.625344
 20
11.341611
 30
0.0
 10
91.735051
 20
10.839220
 30
0.0
 10
93.873614
 20
10.480150
 30
0.0
 10
96.030458
 20
10.265222
 30
0.0
 10
98.197272
 20
10.193850
 30
0.0
 10
100.258197
 20
10.193850
 30
0.0
 10
102.320295
 20
10.193850
 30
0.0
 10
104.381857
 20
10.193850
 30
0.0
 10
106.444055
 20
10.193850
 30
0.0
 10
108.505727
 20
10.193850
 30
0.0
 10
110.567397
 20
10.193850
 30
0.0
 10
112.628687
 20
10.193850
 30
0.0
 10
114.689607
 20
10.193850
 30
0.0
 10
116.750982
 20
10.193850
 30
0.0
 10
118.886721
 20
10.264121
 30
0.0
 10
121.013397
 20
10.475671
 30
0.0
 10
123.120342
 20
10.828456
 30
0.0
 10
125.199897
 20
11.321743
 30
0.0
 10
127.240720
 20
11.952914
 30
0.0
 10
129.235833
 20
12.719514
 30
0.0
 10
131.175043
 20
13.617108
 30
0.0
 10
133.050298
 20
14.641111
 30
0.0
 10
133.212249
 20
16.739174
 30
0.0
 10
133.516419
 20
18.821865
 30
0.0
 10
133.962304
 20
20.879093
 30
0.0
 10
134.547977
 20
22.900217
 30
0.0
 10
135.270853
 20
24.876404
 30
0.0
 10
136.127119
 20
26.798028
 30
0.0
 10
137.112589
 20
28.656766
 30
0.0
 10
138.222219
 20
30.444099
 30
0.0
 10
139.451257
 20
32.153011
 30
0.0
 10
140.793014
 20
33.774665
 30
0.0
 10
142.241275
 20
35.301961
 30
0.0
 10
143.789056
 20
36.727704
 30
0.0
 10
145.429037
 20
38.045186
 30
0.0
 10
147.155046
 20
39.249120
 30
0.0
 10
148.958504
 20
40.333007
 30
0.0
 10
149.050791
 20
42.492189
 30
0.0
 10
149.050791
 20
44.712567
 30
0.0
 10
149.050791
 20
46.933063
 30
0.0
 10
149.050791
 20
49.153739
 30
0.0
 10
149.050791
 20
51.374124
 30
0.0
 10
149.050791
 20
53.594887
 30
0.0
 10
149.050791
 20
55.816277
 30
0.0
 10
149.050791
 20
58.036969
 30
0.0
 10
149.050791
 20
60.257948
 30
0.0
 10
149.050791
 20
62.478907
 30
0.0
 10
149.050791
 20
64.699830
 30
0.0
 10
149.050791
 20
66.920281
 30
0.0
 10
149.050791
 20
69.140380
 30
0.0
 10
149.050791
 20
71.360517
 30
0.0
 10
149.050791
 20
73.580755
 30
0.0
 10
149.050791
 20
75.802467
 30
0.0
 10
149.050791
 20
78.023564
 30
0.0
 10
149.050791
 20
80.244100
 30
0.0
 10
149.050791
 20
82.464843
 30
0.0
 10
148.977103
 20
84.669392
 30
0.0
 10
148.755051
 20
86.864293
 30
0.0
 10
148.384019
 20
89.039783
 30
0.0
 10
147.864853
 20
91.184751
 30
0.0
 10
147.199772
 20
93.288252
 30
0.0
 10
146.391407
 20
95.341591
 30
0.0
 10
145.444031
 20
97.334213
 30
0.0
 10
144.362389
 20
99.256968
 30
0.0
 10
143.151760
 20
101.101263
 30
0.0
 10
141.818295
 20
102.858414
 30
0.0
 10
140.368413
 20
104.520500
 30
0.0
 10
138.807856
 20
106.080995
 30
0.0
 10
137.145281
 20
107.531163
 30
0.0
 10
135.388228
 20
108.864414
 30
0.0
 10
133.543856
 20
110.074977
 30
0.0
 10
131.620276
 20
111.156949
 30
0.0
 10
129.627351
 20
112.104313
 30
0.0
 10
127.573695
 20
112.912647
 30
0.0
 10
125.469938
 20
113.577659
 30
0.0
 10
123.325435
 20
114.096595
 30
0.0
 10
121.150456
 20
114.467479
 30
0.0
 10
118.956058
 20
114.689474
 30
0.0
 10
116.750982
 20
114.763190
 30
0.0
 10
114.690057
 20
114.763190
 30
0.0
 10
112.627959
 20
114.763190
 30
0.0
 10
110.566397
 20
114.763190
 30
0.0
 10
108.504199
 20
114.763190
 30
0.0
 10
106.442527
 20
114.763190
 30
0.0
 10
104.380857
 20
114.763190
 30
0.0
 10
102.319567
 20
114.763190
 30
0.0
 10
100.258647
 20
114.763190
 30
0.0
 10
98.197272
 20
114.763190
 30
0.0
  0
ENDSEC
  0
SECTION
  2
OBJECTS
  0
DICTIONARY
  5
C
330
0
100
AcDbDictionary
  3
ACAD_GROUP
350
D
  3
ACAD_MLINESTYLE
350
17
  0
DICTIONARY
  5
D
330
C
100
AcDbDictionary
  0
DICTIONARY
  5
1A
330
C
100
AcDbDictionary
  0
DICTIONARY
  5
17
330
C
100
AcDbDictionary
  3
STANDARD
350
18
  0
DICTIONARY
  5
19
330
C
100
AcDbDictionary
  0
ENDSEC
  0
EOF
