  0
SECTION
  2
HEADER
  9
$ACADVER
  1
AC1014
  9
$HANDSEED
  5
FFFF
  9
$MEASUREMENT
 70
     1
  0
ENDSEC
  0
SECTION
  2
TABLES
  0
TABLE
  2
VPORT
  5
8
330
0
100
AcDbSymbolTable
 70
     4
  0
VPORT
  5
2E
330
8
100
AcDbSymbolTableRecord
100
AcDbViewportTableRecord
  2
*ACTIVE
 70
     0
 10
0.0
 20
0.0
 11
1.0
 21
1.0
 12
210.0
 22
148.5
 13
0.0
 23
0.0
 14
10.0
 24
10.0
 15
10.0
 25
10.0
 16
0.0
 26
0.0
 36
1.0
 17
0.0
 27
0.0
 37
0.0
 40
341.0
 41
1.24
 42
50.0
 43
0.0
 44
0.0
 50
0.0
 51
0.0
 71
     0
 72
   100
 73
     1
 74
     3
 75
     0
 76
     0
 77
     0
 78
     0
  0
ENDTAB
  0
TABLE
  2
LTYPE
  5
5
330
0
100
AcDbSymbolTable
 70
     1
  0
LTYPE
  5
14
330
5
100
AcDbSymbolTableRecord
100
AcDbLinetypeTableRecord
  2
BYBLOCK
 70
     0
  3

 72
    65
 73
     0
 40
0.0
  0
LTYPE
  5
15
330
5
100
AcDbSymbolTableRecord
100
AcDbLinetypeTableRecord
  2
BYLAYER
 70
     0
  3

 72
    65
 73
     0
 40
0.0
  0
LTYPE
  5
16
330
5
100
AcDbSymbolTableRecord
100
AcDbLinetypeTableRecord
  2
CONTINUOUS
 70
     0
  3
Solid line
 72
    65
 73
     0
 40
0.0
  0
ENDTAB
  0
TABLE
  2
LAYER
  5
2
100
AcDbSymbolTable
 70
1
  0
LAYER
  5
50
100
AcDbSymbolTableRecord
100
AcDbLayerTableRecord
  2
0
 70
0
  6
CONTINUOUS
  0
ENDTAB
  0
TABLE
  2
STYLE
  5
3
330
0
100
AcDbSymbolTable
 70
     1
  0
STYLE
  5
11
330
3
100
AcDbSymbolTableRecord
100
AcDbTextStyleTableRecord
  2
STANDARD
 70
     0
 40
0.0
 41
1.0
 50
0.0
 71
     0
 42
2.5
  3
txt
  4

  0
ENDTAB
  0
TABLE
  2
VIEW
  5
6
330
0
100
AcDbSymbolTable
 70
     0
  0
ENDTAB
  0
TABLE
  2
UCS
  5
7
330
0
100
AcDbSymbolTable
 70
     0
  0
ENDTAB
  0
TABLE
  2
APPID
  5
9
330
0
100
AcDbSymbolTable
 70
     2
  0
APPID
  5
12
330
9
100
AcDbSymbolTableRecord
100
AcDbRegAppTableRecord
  2
ACAD
 70
     0
  0
ENDTAB
  0
TABLE
  2
DIMSTYLE
  5
A
330
0
100
AcDbSymbolTable
 70
     1
  0
DIMSTYLE
105
27
330
A
100
AcDbSymbolTableRecord
100
AcDbDimStyleTableRecord
  2
ISO-25
 70
     0
  3

  4

  5

  6

  7

 40
1.0
 41
2.5
 42
0.625
 43
3.75
 44
1.25
 45
0.0
 46
0.0
 47
0.0
 48
0.0
140
2.5
141
2.5
142
0.0
143
0.03937007874016
144
1.0
145
0.0
146
1.0
147
0.625
 71
     0
 72
     0
 73
     0
 74
     0
 75
     0
 76
     0
 77
     1
 78
     8
170
     0
171
     3
172
     1
173
     0
174
     0
175
     0
176
     0
177
     0
178
     0
270
     2
271
     2
272
     2
273
     2
274
     3
340
11
275
     0
280
     0
281
     0
282
     0
283
     0
284
     8
285
     0
286
     0
287
     3
288
     0
  0
ENDTAB
  0
TABLE
  2
BLOCK_RECORD
  5
1
330
0
100
AcDbSymbolTable
 70
     1
  0
BLOCK_RECORD
  5
1F
330
1
100
AcDbSymbolTableRecord
100
AcDbBlockTableRecord
  2
*MODEL_SPACE
  0
BLOCK_RECORD
  5
1B
330
1
100
AcDbSymbolTableRecord
100
AcDbBlockTableRecord
  2
*PAPER_SPACE
  0
ENDTAB
  0
ENDSEC
  0
SECTION
  2
BLOCKS
  0
BLOCK
  5
20
330
1F
100
AcDbEntity
  8
0
100
AcDbBlockBegin
  2
*MODEL_SPACE
 70
     0
 10
0.0
 20
0.0
 30
0.0
  3
*MODEL_SPACE
  1

  0
ENDBLK
  5
21
330
1F
100
AcDbEntity
  8
0
100
AcDbBlockEnd
  0
BLOCK
  5
1C
330
1B
100
AcDbEntity
 67
     1
  8
0
100
AcDbBlockBegin
  2
*PAPER_SPACE
  1

  0
ENDBLK
  5
1D
330
1B
100
AcDbEntity
 67
     1
  8
0
100
AcDbBlockEnd
  0
ENDSEC
  0
SECTION
  2
ENTITIES
  0
LWPOLYLINE
  5
100
100
AcDbEntity
  8
0
 62
7
100
AcDbPolyline
 90
518
 70
1
 10
0.505880
 20
4.999939
 30
0.0
 10
0.476936
 20
4.998184
 30
0.0
 10
0.448700
 20
4.991521
 30
0.0
 10
0.422022
 20
4.980172
 30
0.0
 10
0.397684
 20
4.964422
 30
0.0
 10
0.376458
 20
4.944654
 30
0.0
 10
0.359084
 20
4.921435
 30
0.0
 10
0.346114
 20
4.895506
 30
0.0
 10
0.337809
 20
4.867717
 30
0.0
 10
0.331510
 20
4.837978
 30
0.0
 10
0.325210
 20
4.808236
 30
0.0
 10
0.318909
 20
4.778492
 30
0.0
 10
0.312608
 20
4.748747
 30
0.0
 10
0.306306
 20
4.718996
 30
0.0
 10
0.300006
 20
4.689255
 30
0.0
 10
0.293706
 20
4.659513
 30
0.0
 10
0.287406
 20
4.629770
 30
0.0
 10
0.281104
 20
4.600023
 30
0.0
 10
0.274806
 20
4.570288
 30
0.0
 10
0.268504
 20
4.540537
 30
0.0
 10
0.262203
 20
4.510793
 30
0.0
 10
0.255904
 20
4.481057
 30
0.0
 10
0.249603
 20
4.451311
 30
0.0
 10
0.243303
 20
4.421567
 30
0.0
 10
0.237003
 20
4.391830
 30
0.0
 10
0.230701
 20
4.362076
 30
0.0
 10
0.224401
 20
4.332335
 30
0.0
 10
0.218100
 20
4.302592
 30
0.0
 10
0.211800
 20
4.272847
 30
0.0
 10
0.205498
 20
4.243098
 30
0.0
 10
0.199196
 20
4.213349
 30
0.0
 10
0.192897
 20
4.183611
 30
0.0
 10
0.186595
 20
4.153863
 30
0.0
 10
0.180294
 20
4.124113
 30
0.0
 10
0.173994
 20
4.094374
 30
0.0
 10
0.167694
 20
4.064631
 30
0.0
 10
0.161393
 20
4.034889
 30
0.0
 10
0.155093
 20
4.005145
 30
0.0
 10
0.148791
 20
3.975393
 30
0.0
 10
0.142491
 20
3.945653
 30
0.0
 10
0.136190
 20
3.915909
 30
0.0
 10
0.129891
 20
3.886169
 30
0.0
 10
0.123589
 20
3.856420
 30
0.0
 10
0.117289
 20
3.826681
 30
0.0
 10
0.109594
 20
3.797463
 30
0.0
 10
0.102999
 20
3.767987
 30
0.0
 10
0.097595
 20
3.738281
 30
0.0
 10
0.094401
 20
3.718608
 30
0.0
 10
0.092834
 20
3.711243
 30
0.0
 10
0.093241
 20
3.711487
 30
0.0
 10
0.088352
 20
3.681436
 30
0.0
 10
0.083462
 20
3.651385
 30
0.0
 10
0.078571
 20
3.621330
 30
0.0
 10
0.073682
 20
3.591284
 30
0.0
 10
0.068794
 20
3.561241
 30
0.0
 10
0.063904
 20
3.531188
 30
0.0
 10
0.059015
 20
3.501142
 30
0.0
 10
0.054124
 20
3.471088
 30
0.0
 10
0.049235
 20
3.441038
 30
0.0
 10
0.044343
 20
3.410974
 30
0.0
 10
0.039451
 20
3.380913
 30
0.0
 10
0.034561
 20
3.350862
 30
0.0
 10
0.029671
 20
3.320807
 30
0.0
 10
0.024780
 20
3.290748
 30
0.0
 10
0.019891
 20
3.260706
 30
0.0
 10
0.015000
 20
3.230648
 30
0.0
 10
0.010111
 20
3.200602
 30
0.0
 10
0.005865
 20
3.170750
 30
0.0
 10
0.002759
 20
3.140766
 30
0.0
 10
0.000807
 20
3.110682
 30
0.0
 10
0.000020
 20
3.080536
 30
0.0
 10
0.000407
 20
3.050378
 30
0.0
 10
0.001970
 20
3.020276
 30
0.0
 10
0.004711
 20
2.990252
 30
0.0
 10
0.008629
 20
2.960355
 30
0.0
 10
0.013717
 20
2.930637
 30
0.0
 10
0.019966
 20
2.901145
 30
0.0
 10
0.027370
 20
2.871912
 30
0.0
 10
0.035911
 20
2.842995
 30
0.0
 10
0.045573
 20
2.814440
 30
0.0
 10
0.056344
 20
2.786276
 30
0.0
 10
0.068205
 20
2.758544
 30
0.0
 10
0.081127
 20
2.731306
 30
0.0
 10
0.095098
 20
2.704576
 30
0.0
 10
0.110086
 20
2.678413
 30
0.0
 10
0.126071
 20
2.652843
 30
0.0
 10
0.143028
 20
2.627906
 30
0.0
 10
0.160920
 20
2.603649
 30
0.0
 10
0.179735
 20
2.580087
 30
0.0
 10
0.199439
 20
2.557264
 30
0.0
 10
0.220002
 20
2.535212
 30
0.0
 10
0.241389
 20
2.513970
 30
0.0
 10
0.263591
 20
2.493551
 30
0.0
 10
0.249693
 20
2.466143
 30
0.0
 10
0.236771
 20
2.438257
 30
0.0
 10
0.224841
 20
2.409923
 30
0.0
 10
0.213928
 20
2.381196
 30
0.0
 10
0.204037
 20
2.352086
 30
0.0
 10
0.195187
 20
2.322642
 30
0.0
 10
0.187392
 20
2.292918
 30
0.0
 10
0.180654
 20
2.262920
 30
0.0
 10
0.174984
 20
2.232711
 30
0.0
 10
0.170385
 20
2.202314
 30
0.0
 10
0.166861
 20
2.171791
 30
0.0
 10
0.164408
 20
2.141154
 30
0.0
 10
0.162491
 20
2.110272
 30
0.0
 10
0.160574
 20
2.079393
 30
0.0
 10
0.158657
 20
2.048519
 30
0.0
 10
0.156740
 20
2.017641
 30
0.0
 10
0.154823
 20
1.986768
 30
0.0
 10
0.152906
 20
1.955900
 30
0.0
 10
0.150989
 20
1.925017
 30
0.0
 10
0.149071
 20
1.894137
 30
0.0
 10
0.147154
 20
1.863259
 30
0.0
 10
0.145237
 20
1.832376
 30
0.0
 10
0.143320
 20
1.801508
 30
0.0
 10
0.141403
 20
1.770633
 30
0.0
 10
0.139485
 20
1.739749
 30
0.0
 10
0.137569
 20
1.708879
 30
0.0
 10
0.135652
 20
1.678008
 30
0.0
 10
0.133734
 20
1.647121
 30
0.0
 10
0.131817
 20
1.616240
 30
0.0
 10
0.129899
 20
1.585358
 30
0.0
 10
0.127982
 20
1.554479
 30
0.0
 10
0.126065
 20
1.523604
 30
0.0
 10
0.124148
 20
1.492733
 30
0.0
 10
0.122231
 20
1.461858
 30
0.0
 10
0.120314
 20
1.430981
 30
0.0
 10
0.118397
 20
1.400107
 30
0.0
 10
0.116480
 20
1.369226
 30
0.0
 10
0.114563
 20
1.338359
 30
0.0
 10
0.112646
 20
1.307472
 30
0.0
 10
0.110729
 20
1.276601
 30
0.0
 10
0.108812
 20
1.245729
 30
0.0
 10
0.106895
 20
1.214850
 30
0.0
 10
0.104978
 20
1.183980
 30
0.0
 10
0.103060
 20
1.153092
 30
0.0
 10
0.101143
 20
1.122212
 30
0.0
 10
0.099226
 20
1.091338
 30
0.0
 10
0.097309
 20
1.060458
 30
0.0
 10
0.095391
 20
1.029576
 30
0.0
 10
0.093475
 20
0.998709
 30
0.0
 10
0.091557
 20
0.967828
 30
0.0
 10
0.089640
 20
0.936951
 30
0.0
 10
0.088342
 20
0.907123
 30
0.0
 10
0.088048
 20
0.877271
 30
0.0
 10
0.088765
 20
0.847428
 30
0.0
 10
0.090499
 20
0.817621
 30
0.0
 10
0.093252
 20
0.787885
 30
0.0
 10
0.097024
 20
0.758268
 30
0.0
 10
0.101812
 20
0.728804
 30
0.0
 10
0.107612
 20
0.699523
 30
0.0
 10
0.114420
 20
0.670461
 30
0.0
 10
0.122228
 20
0.641644
 30
0.0
 10
0.131024
 20
0.613121
 30
0.0
 10
0.140798
 20
0.584916
 30
0.0
 10
0.151538
 20
0.557064
 30
0.0
 10
0.163234
 20
0.529590
 30
0.0
 10
0.175871
 20
0.502522
 30
0.0
 10
0.189422
 20
0.475917
 30
0.0
 10
0.203878
 20
0.449788
 30
0.0
 10
0.186942
 20
0.426751
 30
0.0
 10
0.171560
 20
0.402634
 30
0.0
 10
0.157820
 20
0.377561
 30
0.0
 10
0.145780
 20
0.351626
 30
0.0
 10
0.135499
 20
0.324934
 30
0.0
 10
0.127034
 20
0.297617
 30
0.0
 10
0.120423
 20
0.269791
 30
0.0
 10
0.115694
 20
0.241582
 30
0.0
 10
0.112859
 20
0.213115
 30
0.0
 10
0.111918
 20
0.184530
 30
0.0
 10
0.114461
 20
0.154669
 30
0.0
 10
0.122113
 20
0.125694
 30
0.0
 10
0.134717
 20
0.098485
 30
0.0
 10
0.151887
 20
0.073908
 30
0.0
 10
0.173087
 20
0.052707
 30
0.0
 10
0.197660
 20
0.035539
 30
0.0
 10
0.224850
 20
0.022940
 30
0.0
 10
0.253833
 20
0.015282
 30
0.0
 10
0.283712
 20
0.012736
 30
0.0
 10
0.314363
 20
0.012736
 30
0.0
 10
0.345018
 20
0.012736
 30
0.0
 10
0.375674
 20
0.012736
 30
0.0
 10
0.406335
 20
0.012736
 30
0.0
 10
0.437002
 20
0.012736
 30
0.0
 10
0.467658
 20
0.012736
 30
0.0
 10
0.498320
 20
0.012736
 30
0.0
 10
0.528975
 20
0.012736
 30
0.0
 10
0.559631
 20
0.012736
 30
0.0
 10
0.590296
 20
0.012736
 30
0.0
 10
0.620962
 20
0.012736
 30
0.0
 10
0.651615
 20
0.012736
 30
0.0
 10
0.682265
 20
0.012736
 30
0.0
 10
0.712922
 20
0.012736
 30
0.0
 10
0.743582
 20
0.012736
 30
0.0
 10
0.774250
 20
0.012736
 30
0.0
 10
0.804917
 20
0.012736
 30
0.0
 10
0.835578
 20
0.012736
 30
0.0
 10
0.866238
 20
0.012736
 30
0.0
 10
0.896895
 20
0.012736
 30
0.0
 10
0.927557
 20
0.012736
 30
0.0
 10
0.958211
 20
0.012736
 30
0.0
 10
0.964559
 20
0.012736
 30
0.0
 10
0.995588
 20
0.012736
 30
0.0
 10
1.026617
 20
0.012736
 30
0.0
 10
1.057641
 20
0.012736
 30
0.0
 10
1.088659
 20
0.012736
 30
0.0
 10
1.119681
 20
0.012736
 30
0.0
 10
1.150690
 20
0.012736
 30
0.0
 10
1.181719
 20
0.012736
 30
0.0
 10
1.212729
 20
0.012736
 30
0.0
 10
1.243745
 20
0.012736
 30
0.0
 10
1.274756
 20
0.012736
 30
0.0
 10
1.305783
 20
0.012736
 30
0.0
 10
1.336805
 20
0.012736
 30
0.0
 10
1.367828
 20
0.012736
 30
0.0
 10
1.398840
 20
0.012736
 30
0.0
 10
1.429858
 20
0.012736
 30
0.0
 10
1.460887
 20
0.012736
 30
0.0
 10
1.491903
 20
0.012736
 30
0.0
 10
1.522931
 20
0.012736
 30
0.0
 10
1.553944
 20
0.012736
 30
0.0
 10
1.584954
 20
0.012736
 30
0.0
 10
1.615978
 20
0.012736
 30
0.0
 10
1.647001
 20
0.012736
 30
0.0
 10
1.678022
 20
0.012736
 30
0.0
 10
1.709036
 20
0.012736
 30
0.0
 10
1.740062
 20
0.012736
 30
0.0
 10
1.771079
 20
0.012736
 30
0.0
 10
1.802100
 20
0.012736
 30
0.0
 10
1.833124
 20
0.012736
 30
0.0
 10
1.864147
 20
0.012736
 30
0.0
 10
1.895176
 20
0.012736
 30
0.0
 10
1.926193
 20
0.012736
 30
0.0
 10
1.957215
 20
0.012736
 30
0.0
 10
1.988239
 20
0.012736
 30
0.0
 10
2.019247
 20
0.012736
 30
0.0
 10
2.024007
 20
0.012736
 30
0.0
 10
2.054730
 20
0.012736
 30
0.0
 10
2.085456
 20
0.012736
 30
0.0
 10
2.116183
 20
0.012736
 30
0.0
 10
2.146916
 20
0.012736
 30
0.0
 10
2.177654
 20
0.012736
 30
0.0
 10
2.208381
 20
0.012736
 30
0.0
 10
2.239114
 20
0.012736
 30
0.0
 10
2.269840
 20
0.012736
 30
0.0
 10
2.300568
 20
0.012736
 30
0.0
 10
2.331304
 20
0.012736
 30
0.0
 10
2.362040
 20
0.012736
 30
0.0
 10
2.392765
 20
0.012736
 30
0.0
 10
2.423486
 20
0.012736
 30
0.0
 10
2.454214
 20
0.012736
 30
0.0
 10
2.484946
 20
0.012736
 30
0.0
 10
2.515685
 20
0.012736
 30
0.0
 10
2.546423
 20
0.012736
 30
0.0
 10
2.577155
 20
0.012736
 30
0.0
 10
2.607887
 20
0.012736
 30
0.0
 10
2.638614
 20
0.012736
 30
0.0
 10
2.669348
 20
0.012736
 30
0.0
 10
2.700073
 20
0.012736
 30
0.0
 10
2.729838
 20
0.015334
 30
0.0
 10
2.758681
 20
0.023083
 30
0.0
 10
2.785732
 20
0.035750
 30
0.0
 10
2.810182
 20
0.052933
 30
0.0
 10
2.831271
 20
0.074094
 30
0.0
 10
2.848339
 20
0.098625
 30
0.0
 10
2.860783
 20
0.125775
 30
0.0
 10
2.868174
 20
0.154722
 30
0.0
 10
2.870300
 20
0.184530
 30
0.0
 10
2.869359
 20
0.213116
 30
0.0
 10
2.866526
 20
0.241571
 30
0.0
 10
2.861797
 20
0.269781
 30
0.0
 10
2.855186
 20
0.297608
 30
0.0
 10
2.846718
 20
0.324935
 30
0.0
 10
2.836438
 20
0.351623
 30
0.0
 10
2.824393
 20
0.377568
 30
0.0
 10
2.810649
 20
0.402644
 30
0.0
 10
2.795262
 20
0.426765
 30
0.0
 10
2.778320
 20
0.449809
 30
0.0
 10
2.792772
 20
0.475930
 30
0.0
 10
2.806322
 20
0.502534
 30
0.0
 10
2.818954
 20
0.529587
 30
0.0
 10
2.830651
 20
0.557064
 30
0.0
 10
2.841390
 20
0.584910
 30
0.0
 10
2.851166
 20
0.613114
 30
0.0
 10
2.859965
 20
0.641643
 30
0.0
 10
2.867775
 20
0.670464
 30
0.0
 10
2.874583
 20
0.699527
 30
0.0
 10
2.880384
 20
0.728808
 30
0.0
 10
2.885173
 20
0.758275
 30
0.0
 10
2.888946
 20
0.787901
 30
0.0
 10
2.891699
 20
0.817632
 30
0.0
 10
2.893433
 20
0.847436
 30
0.0
 10
2.894150
 20
0.877268
 30
0.0
 10
2.893856
 20
0.907124
 30
0.0
 10
2.892558
 20
0.936951
 30
0.0
 10
2.890641
 20
0.967833
 30
0.0
 10
2.888723
 20
0.998711
 30
0.0
 10
2.886806
 20
1.029586
 30
0.0
 10
2.884889
 20
1.060464
 30
0.0
 10
2.882972
 20
1.091337
 30
0.0
 10
2.881056
 20
1.122205
 30
0.0
 10
2.879138
 20
1.153088
 30
0.0
 10
2.877221
 20
1.183968
 30
0.0
 10
2.875304
 20
1.214845
 30
0.0
 10
2.873386
 20
1.245728
 30
0.0
 10
2.871470
 20
1.276597
 30
0.0
 10
2.869553
 20
1.307472
 30
0.0
 10
2.867635
 20
1.338356
 30
0.0
 10
2.865718
 20
1.369226
 30
0.0
 10
2.863802
 20
1.400097
 30
0.0
 10
2.861884
 20
1.430983
 30
0.0
 10
2.859966
 20
1.461865
 30
0.0
 10
2.858049
 20
1.492747
 30
0.0
 10
2.856132
 20
1.523626
 30
0.0
 10
2.854215
 20
1.554501
 30
0.0
 10
2.852298
 20
1.585372
 30
0.0
 10
2.850381
 20
1.616247
 30
0.0
 10
2.848464
 20
1.647124
 30
0.0
 10
2.846547
 20
1.677998
 30
0.0
 10
2.844629
 20
1.708879
 30
0.0
 10
2.842713
 20
1.739746
 30
0.0
 10
2.840795
 20
1.770632
 30
0.0
 10
2.838878
 20
1.801504
 30
0.0
 10
2.836962
 20
1.832376
 30
0.0
 10
2.835044
 20
1.863255
 30
0.0
 10
2.833128
 20
1.894125
 30
0.0
 10
2.831210
 20
1.925013
 30
0.0
 10
2.829293
 20
1.955893
 30
0.0
 10
2.827376
 20
1.986767
 30
0.0
 10
2.825458
 20
2.017647
 30
0.0
 10
2.823541
 20
2.048529
 30
0.0
 10
2.821624
 20
2.079396
 30
0.0
 10
2.819707
 20
2.110276
 30
0.0
 10
2.817790
 20
2.141154
 30
0.0
 10
2.815446
 20
2.171747
 30
0.0
 10
2.812029
 20
2.202233
 30
0.0
 10
2.807537
 20
2.232589
 30
0.0
 10
2.801974
 20
2.262755
 30
0.0
 10
2.795340
 20
2.292719
 30
0.0
 10
2.787643
 20
2.322424
 30
0.0
 10
2.778895
 20
2.351827
 30
0.0
 10
2.769101
 20
2.380912
 30
0.0
 10
2.758278
 20
2.409626
 30
0.0
 10
2.746442
 20
2.437932
 30
0.0
 10
2.733606
 20
2.465803
 30
0.0
 10
2.719788
 20
2.493205
 30
0.0
 10
2.742005
 20
2.513610
 30
0.0
 10
2.763430
 20
2.534860
 30
0.0
 10
2.784027
 20
2.556919
 30
0.0
 10
2.803754
 20
2.579741
 30
0.0
 10
2.822591
 20
2.603300
 30
0.0
 10
2.840518
 20
2.627574
 30
0.0
 10
2.857503
 20
2.652523
 30
0.0
 10
2.873516
 20
2.678107
 30
0.0
 10
2.888526
 20
2.704277
 30
0.0
 10
2.902513
 20
2.731007
 30
0.0
 10
2.915458
 20
2.758262
 30
0.0
 10
2.927337
 20
2.786001
 30
0.0
 10
2.938125
 20
2.814174
 30
0.0
 10
2.947805
 20
2.842742
 30
0.0
 10
2.956365
 20
2.871680
 30
0.0
 10
2.963781
 20
2.900923
 30
0.0
 10
2.970048
 20
2.930449
 30
0.0
 10
2.975148
 20
2.960192
 30
0.0
 10
2.979075
 20
2.990103
 30
0.0
 10
2.981825
 20
3.020154
 30
0.0
 10
2.983395
 20
3.050294
 30
0.0
 10
2.983785
 20
3.080463
 30
0.0
 10
2.983000
 20
3.110620
 30
0.0
 10
2.981049
 20
3.140726
 30
0.0
 10
2.977942
 20
3.170741
 30
0.0
 10
2.973694
 20
3.200602
 30
0.0
 10
2.968793
 20
3.230718
 30
0.0
 10
2.963893
 20
3.260834
 30
0.0
 10
2.958992
 20
3.290953
 30
0.0
 10
2.954092
 20
3.321064
 30
0.0
 10
2.949193
 20
3.351171
 30
0.0
 10
2.944292
 20
3.381289
 30
0.0
 10
2.939392
 20
3.411400
 30
0.0
 10
2.934491
 20
3.441518
 30
0.0
 10
2.929590
 20
3.471633
 30
0.0
 10
2.924687
 20
3.501762
 30
0.0
 10
2.919785
 20
3.531887
 30
0.0
 10
2.914885
 20
3.562003
 30
0.0
 10
2.909983
 20
3.592123
 30
0.0
 10
2.905082
 20
3.622246
 30
0.0
 10
2.900182
 20
3.652353
 30
0.0
 10
2.895281
 20
3.682476
 30
0.0
 10
2.890381
 20
3.712586
 30
0.0
 10
2.892558
 20
3.711243
 30
0.0
 10
2.886627
 20
3.739421
 30
0.0
 10
2.880697
 20
3.767599
 30
0.0
 10
2.878377
 20
3.778646
 30
0.0
 10
2.872012
 20
3.808893
 30
0.0
 10
2.865644
 20
3.839150
 30
0.0
 10
2.859278
 20
3.869396
 30
0.0
 10
2.852912
 20
3.899645
 30
0.0
 10
2.846544
 20
3.929901
 30
0.0
 10
2.840176
 20
3.960157
 30
0.0
 10
2.833810
 20
3.990408
 30
0.0
 10
2.827443
 20
4.020660
 30
0.0
 10
2.821076
 20
4.050910
 30
0.0
 10
2.814709
 20
4.081163
 30
0.0
 10
2.808343
 20
4.111411
 30
0.0
 10
2.801975
 20
4.141669
 30
0.0
 10
2.795609
 20
4.171916
 30
0.0
 10
2.789243
 20
4.202166
 30
0.0
 10
2.782875
 20
4.232421
 30
0.0
 10
2.776508
 20
4.262675
 30
0.0
 10
2.770141
 20
4.292929
 30
0.0
 10
2.763773
 20
4.323186
 30
0.0
 10
2.757407
 20
4.353433
 30
0.0
 10
2.751042
 20
4.383676
 30
0.0
 10
2.744675
 20
4.413929
 30
0.0
 10
2.738307
 20
4.444184
 30
0.0
 10
2.731942
 20
4.474430
 30
0.0
 10
2.725576
 20
4.504676
 30
0.0
 10
2.719210
 20
4.534925
 30
0.0
 10
2.712840
 20
4.565189
 30
0.0
 10
2.706471
 20
4.595452
 30
0.0
 10
2.700106
 20
4.625698
 30
0.0
 10
2.693740
 20
4.655943
 30
0.0
 10
2.687375
 20
4.686188
 30
0.0
 10
2.681005
 20
4.716453
 30
0.0
 10
2.674639
 20
4.746704
 30
0.0
 10
2.668271
 20
4.776959
 30
0.0
 10
2.661903
 20
4.807217
 30
0.0
 10
2.655536
 20
4.837467
 30
0.0
 10
2.649170
 20
4.867717
 30
0.0
 10
2.640602
 20
4.896169
 30
0.0
 10
2.627139
 20
4.922648
 30
0.0
 10
2.609076
 20
4.946240
 30
0.0
 10
2.587037
 20
4.966148
 30
0.0
 10
2.561801
 20
4.981803
 30
0.0
 10
2.534204
 20
4.992801
 30
0.0
 10
2.505109
 20
4.998839
 30
0.0
 10
2.475410
 20
4.999697
 30
0.0
 10
2.446036
 20
4.995258
 30
0.0
 10
2.417947
 20
4.985577
 30
0.0
 10
2.392091
 20
4.970973
 30
0.0
 10
2.369202
 20
4.952027
 30
0.0
 10
2.347230
 20
4.930484
 30
0.0
 10
2.325268
 20
4.908951
 30
0.0
 10
2.303311
 20
4.887422
 30
0.0
 10
2.281340
 20
4.865880
 30
0.0
 10
2.259371
 20
4.844340
 30
0.0
 10
2.237399
 20
4.822797
 30
0.0
 10
2.215430
 20
4.801257
 30
0.0
 10
2.193471
 20
4.779726
 30
0.0
 10
2.171513
 20
4.758198
 30
0.0
 10
2.149544
 20
4.736657
 30
0.0
 10
2.127576
 20
4.715118
 30
0.0
 10
2.105612
 20
4.693583
 30
0.0
 10
2.083645
 20
4.672044
 30
0.0
 10
2.061679
 20
4.650508
 30
0.0
 10
2.039719
 20
4.628977
 30
0.0
 10
2.017759
 20
4.607445
 30
0.0
 10
1.995797
 20
4.585912
 30
0.0
 10
1.973833
 20
4.564376
 30
0.0
 10
1.951868
 20
4.542840
 30
0.0
 10
1.929899
 20
4.521300
 30
0.0
 10
1.907940
 20
4.499770
 30
0.0
 10
1.885975
 20
4.478234
 30
0.0
 10
1.864011
 20
4.456698
 30
0.0
 10
1.842053
 20
4.435169
 30
0.0
 10
1.820082
 20
4.413627
 30
0.0
 10
1.798116
 20
4.392090
 30
0.0
 10
1.767656
 20
4.392090
 30
0.0
 10
1.737192
 20
4.392090
 30
0.0
 10
1.706735
 20
4.392090
 30
0.0
 10
1.676263
 20
4.392090
 30
0.0
 10
1.645808
 20
4.392090
 30
0.0
 10
1.615348
 20
4.392090
 30
0.0
 10
1.584891
 20
4.392090
 30
0.0
 10
1.554428
 20
4.392090
 30
0.0
 10
1.523974
 20
4.392090
 30
0.0
 10
1.493508
 20
4.392090
 30
0.0
 10
1.463041
 20
4.392090
 30
0.0
 10
1.432572
 20
4.392090
 30
0.0
 10
1.402105
 20
4.392090
 30
0.0
 10
1.371644
 20
4.392090
 30
0.0
 10
1.341190
 20
4.392090
 30
0.0
 10
1.310733
 20
4.392090
 30
0.0
 10
1.280273
 20
4.392090
 30
0.0
 10
1.249805
 20
4.392090
 30
0.0
 10
1.219325
 20
4.392090
 30
0.0
 10
1.188863
 20
4.392090
 30
0.0
 10
1.166891
 20
4.413633
 30
0.0
 10
1.144930
 20
4.435166
 30
0.0
 10
1.122973
 20
4.456694
 30
0.0
 10
1.101001
 20
4.478237
 30
0.0
 10
1.079032
 20
4.499777
 30
0.0
 10
1.057060
 20
4.521320
 30
0.0
 10
1.035091
 20
4.542860
 30
0.0
 10
1.013132
 20
4.564390
 30
0.0
 10
0.991175
 20
4.585919
 30
0.0
 10
0.969205
 20
4.607459
 30
0.0
 10
0.947237
 20
4.628999
 30
0.0
 10
0.925274
 20
4.650534
 30
0.0
 10
0.903306
 20
4.672072
 30
0.0
 10
0.881341
 20
4.693609
 30
0.0
 10
0.859381
 20
4.715140
 30
0.0
 10
0.837421
 20
4.736671
 30
0.0
 10
0.815458
 20
4.758205
 30
0.0
 10
0.793494
 20
4.779740
 30
0.0
 10
0.771529
 20
4.801277
 30
0.0
 10
0.749560
 20
4.822817
 30
0.0
 10
0.727602
 20
4.844347
 30
0.0
 10
0.705636
 20
4.865883
 30
0.0
 10
0.683672
 20
4.887418
 30
0.0
 10
0.661715
 20
4.908947
 30
0.0
 10
0.639743
 20
4.930490
 30
0.0
 10
0.617778
 20
4.952027
 30
0.0
 10
0.593718
 20
4.971772
 30
0.0
 10
0.566422
 20
4.986724
 30
0.0
 10
0.536784
 20
4.996219
 30
0.0
 10
0.505880
 20
4.999939
 30
0.0
  0
ENDSEC
  0
SECTION
  2
OBJECTS
  0
DICTIONARY
  5
C
330
0
100
AcDbDictionary
  3
ACAD_GROUP
350
D
  3
ACAD_MLINESTYLE
350
17
  0
DICTIONARY
  5
D
330
C
100
AcDbDictionary
  0
DICTIONARY
  5
1A
330
C
100
AcDbDictionary
  0
DICTIONARY
  5
17
330
C
100
AcDbDictionary
  3
STANDARD
350
18
  0
DICTIONARY
  5
19
330
C
100
AcDbDictionary
  0
ENDSEC
  0
EOF
