  0
SECTION
  2
HEADER
  9
$ACADVER
  1
AC1014
  9
$HANDSEED
  5
FFFF
  9
$MEASUREMENT
 70
     1
  0
ENDSEC
  0
SECTION
  2
TABLES
  0
TABLE
  2
VPORT
  5
8
330
0
100
AcDbSymbolTable
 70
     4
  0
VPORT
  5
2E
330
8
100
AcDbSymbolTableRecord
100
AcDbViewportTableRecord
  2
*ACTIVE
 70
     0
 10
0.0
 20
0.0
 11
1.0
 21
1.0
 12
210.0
 22
148.5
 13
0.0
 23
0.0
 14
10.0
 24
10.0
 15
10.0
 25
10.0
 16
0.0
 26
0.0
 36
1.0
 17
0.0
 27
0.0
 37
0.0
 40
341.0
 41
1.24
 42
50.0
 43
0.0
 44
0.0
 50
0.0
 51
0.0
 71
     0
 72
   100
 73
     1
 74
     3
 75
     0
 76
     0
 77
     0
 78
     0
  0
ENDTAB
  0
TABLE
  2
LTYPE
  5
5
330
0
100
AcDbSymbolTable
 70
     1
  0
LTYPE
  5
14
330
5
100
AcDbSymbolTableRecord
100
AcDbLinetypeTableRecord
  2
BYBLOCK
 70
     0
  3

 72
    65
 73
     0
 40
0.0
  0
LTYPE
  5
15
330
5
100
AcDbSymbolTableRecord
100
AcDbLinetypeTableRecord
  2
BYLAYER
 70
     0
  3

 72
    65
 73
     0
 40
0.0
  0
LTYPE
  5
16
330
5
100
AcDbSymbolTableRecord
100
AcDbLinetypeTableRecord
  2
CONTINUOUS
 70
     0
  3
Solid line
 72
    65
 73
     0
 40
0.0
  0
ENDTAB
  0
TABLE
  2
LAYER
  5
2
100
AcDbSymbolTable
 70
1
  0
LAYER
  5
50
100
AcDbSymbolTableRecord
100
AcDbLayerTableRecord
  2
0
 70
0
  6
CONTINUOUS
  0
ENDTAB
  0
TABLE
  2
STYLE
  5
3
330
0
100
AcDbSymbolTable
 70
     1
  0
STYLE
  5
11
330
3
100
AcDbSymbolTableRecord
100
AcDbTextStyleTableRecord
  2
STANDARD
 70
     0
 40
0.0
 41
1.0
 50
0.0
 71
     0
 42
2.5
  3
txt
  4

  0
ENDTAB
  0
TABLE
  2
VIEW
  5
6
330
0
100
AcDbSymbolTable
 70
     0
  0
ENDTAB
  0
TABLE
  2
UCS
  5
7
330
0
100
AcDbSymbolTable
 70
     0
  0
ENDTAB
  0
TABLE
  2
APPID
  5
9
330
0
100
AcDbSymbolTable
 70
     2
  0
APPID
  5
12
330
9
100
AcDbSymbolTableRecord
100
AcDbRegAppTableRecord
  2
ACAD
 70
     0
  0
ENDTAB
  0
TABLE
  2
DIMSTYLE
  5
A
330
0
100
AcDbSymbolTable
 70
     1
  0
DIMSTYLE
105
27
330
A
100
AcDbSymbolTableRecord
100
AcDbDimStyleTableRecord
  2
ISO-25
 70
     0
  3

  4

  5

  6

  7

 40
1.0
 41
2.5
 42
0.625
 43
3.75
 44
1.25
 45
0.0
 46
0.0
 47
0.0
 48
0.0
140
2.5
141
2.5
142
0.0
143
0.03937007874016
144
1.0
145
0.0
146
1.0
147
0.625
 71
     0
 72
     0
 73
     0
 74
     0
 75
     0
 76
     0
 77
     1
 78
     8
170
     0
171
     3
172
     1
173
     0
174
     0
175
     0
176
     0
177
     0
178
     0
270
     2
271
     2
272
     2
273
     2
274
     3
340
11
275
     0
280
     0
281
     0
282
     0
283
     0
284
     8
285
     0
286
     0
287
     3
288
     0
  0
ENDTAB
  0
TABLE
  2
BLOCK_RECORD
  5
1
330
0
100
AcDbSymbolTable
 70
     1
  0
BLOCK_RECORD
  5
1F
330
1
100
AcDbSymbolTableRecord
100
AcDbBlockTableRecord
  2
*MODEL_SPACE
  0
BLOCK_RECORD
  5
1B
330
1
100
AcDbSymbolTableRecord
100
AcDbBlockTableRecord
  2
*PAPER_SPACE
  0
ENDTAB
  0
ENDSEC
  0
SECTION
  2
BLOCKS
  0
BLOCK
  5
20
330
1F
100
AcDbEntity
  8
0
100
AcDbBlockBegin
  2
*MODEL_SPACE
 70
     0
 10
0.0
 20
0.0
 30
0.0
  3
*MODEL_SPACE
  1

  0
ENDBLK
  5
21
330
1F
100
AcDbEntity
  8
0
100
AcDbBlockEnd
  0
BLOCK
  5
1C
330
1B
100
AcDbEntity
 67
     1
  8
0
100
AcDbBlockBegin
  2
*PAPER_SPACE
  1

  0
ENDBLK
  5
1D
330
1B
100
AcDbEntity
 67
     1
  8
0
100
AcDbBlockEnd
  0
ENDSEC
  0
SECTION
  2
ENTITIES
  0
LWPOLYLINE
  5
100
100
AcDbEntity
  8
0
 62
7
100
AcDbPolyline
 90
86
 70
1
 10
0.247134
 20
3.892586
 30
0.0
 10
0.253384
 20
3.922246
 30
0.0
 10
0.259632
 20
3.951896
 30
0.0
 10
0.265883
 20
3.981562
 30
0.0
 10
0.272134
 20
4.011224
 30
0.0
 10
0.278383
 20
4.040879
 30
0.0
 10
0.284631
 20
4.070529
 30
0.0
 10
0.290882
 20
4.100189
 30
0.0
 10
0.297129
 20
4.129838
 30
0.0
 10
0.303380
 20
4.159502
 30
0.0
 10
0.309628
 20
4.189151
 30
0.0
 10
0.315878
 20
4.218807
 30
0.0
 10
0.322126
 20
4.248457
 30
0.0
 10
0.328376
 20
4.278115
 30
0.0
 10
0.334627
 20
4.307781
 30
0.0
 10
0.340878
 20
4.337445
 30
0.0
 10
0.347126
 20
4.367097
 30
0.0
 10
0.353374
 20
4.396742
 30
0.0
 10
0.359623
 20
4.426397
 30
0.0
 10
0.365872
 20
4.456053
 30
0.0
 10
0.372123
 20
4.485715
 30
0.0
 10
0.378372
 20
4.515371
 30
0.0
 10
0.384620
 20
4.545019
 30
0.0
 10
0.390867
 20
4.574667
 30
0.0
 10
0.397119
 20
4.604333
 30
0.0
 10
0.403369
 20
4.633992
 30
0.0
 10
0.409620
 20
4.663656
 30
0.0
 10
0.415867
 20
4.693301
 30
0.0
 10
0.422117
 20
4.722962
 30
0.0
 10
0.431037
 20
4.749899
 30
0.0
 10
0.446122
 20
4.773940
 30
0.0
 10
0.466560
 20
4.793624
 30
0.0
 10
0.491071
 20
4.807922
 30
0.0
 10
0.518226
 20
4.816157
 30
0.0
 10
0.546553
 20
4.817861
 30
0.0
 10
0.574457
 20
4.812768
 30
0.0
 10
0.600293
 20
4.801019
 30
0.0
 10
0.622553
 20
4.783410
 30
0.0
 10
0.644148
 20
4.762233
 30
0.0
 10
0.665753
 20
4.741048
 30
0.0
 10
0.687360
 20
4.719859
 30
0.0
 10
0.708962
 20
4.698676
 30
0.0
 10
0.730558
 20
4.677498
 30
0.0
 10
0.752156
 20
4.656319
 30
0.0
 10
0.773762
 20
4.635132
 30
0.0
 10
0.795363
 20
4.613949
 30
0.0
 10
0.816963
 20
4.592767
 30
0.0
 10
0.838560
 20
4.571590
 30
0.0
 10
0.860160
 20
4.550407
 30
0.0
 10
0.881755
 20
4.529232
 30
0.0
 10
0.903351
 20
4.508054
 30
0.0
 10
0.924957
 20
4.486867
 30
0.0
 10
0.946560
 20
4.465682
 30
0.0
 10
0.968159
 20
4.444502
 30
0.0
 10
0.989766
 20
4.423313
 30
0.0
 10
1.011371
 20
4.402127
 30
0.0
 10
1.032968
 20
4.380949
 30
0.0
 10
1.006766
 20
4.364665
 30
0.0
 10
0.980566
 20
4.348383
 30
0.0
 10
0.954365
 20
4.332100
 30
0.0
 10
0.928166
 20
4.315819
 30
0.0
 10
0.901976
 20
4.299543
 30
0.0
 10
0.875783
 20
4.283265
 30
0.0
 10
0.849590
 20
4.266986
 30
0.0
 10
0.823392
 20
4.250706
 30
0.0
 10
0.797196
 20
4.234426
 30
0.0
 10
0.771001
 20
4.218147
 30
0.0
 10
0.744808
 20
4.201869
 30
0.0
 10
0.718611
 20
4.185589
 30
0.0
 10
0.692418
 20
4.169311
 30
0.0
 10
0.666232
 20
4.153038
 30
0.0
 10
0.640043
 20
4.136762
 30
0.0
 10
0.613855
 20
4.120487
 30
0.0
 10
0.587664
 20
4.104211
 30
0.0
 10
0.561475
 20
4.087935
 30
0.0
 10
0.535276
 20
4.071654
 30
0.0
 10
0.509081
 20
4.055375
 30
0.0
 10
0.482878
 20
4.039091
 30
0.0
 10
0.456687
 20
4.022814
 30
0.0
 10
0.430500
 20
4.006540
 30
0.0
 10
0.404298
 20
3.990257
 30
0.0
 10
0.378107
 20
3.973980
 30
0.0
 10
0.351918
 20
3.957705
 30
0.0
 10
0.325721
 20
3.941425
 30
0.0
 10
0.299528
 20
3.925147
 30
0.0
 10
0.273335
 20
3.908869
 30
0.0
  0
LWPOLYLINE
  5
101
100
AcDbEntity
  8
0
 62
7
100
AcDbPolyline
 90
86
 70
1
 10
2.739852
 20
3.892586
 30
0.0
 10
2.733602
 20
3.922246
 30
0.0
 10
2.727354
 20
3.951896
 30
0.0
 10
2.721102
 20
3.981562
 30
0.0
 10
2.714852
 20
4.011224
 30
0.0
 10
2.708603
 20
4.040879
 30
0.0
 10
2.702354
 20
4.070529
 30
0.0
 10
2.696104
 20
4.100189
 30
0.0
 10
2.689856
 20
4.129838
 30
0.0
 10
2.683605
 20
4.159502
 30
0.0
 10
2.677357
 20
4.189151
 30
0.0
 10
2.671108
 20
4.218807
 30
0.0
 10
2.664860
 20
4.248457
 30
0.0
 10
2.658610
 20
4.278115
 30
0.0
 10
2.652359
 20
4.307781
 30
0.0
 10
2.646108
 20
4.337445
 30
0.0
 10
2.639859
 20
4.367097
 30
0.0
 10
2.633612
 20
4.396742
 30
0.0
 10
2.627363
 20
4.426397
 30
0.0
 10
2.621114
 20
4.456053
 30
0.0
 10
2.614863
 20
4.485715
 30
0.0
 10
2.608614
 20
4.515371
 30
0.0
 10
2.602366
 20
4.545019
 30
0.0
 10
2.596119
 20
4.574667
 30
0.0
 10
2.589867
 20
4.604333
 30
0.0
 10
2.583617
 20
4.633992
 30
0.0
 10
2.577366
 20
4.663656
 30
0.0
 10
2.571119
 20
4.693301
 30
0.0
 10
2.564869
 20
4.722962
 30
0.0
 10
2.555949
 20
4.749899
 30
0.0
 10
2.540864
 20
4.773940
 30
0.0
 10
2.520426
 20
4.793624
 30
0.0
 10
2.495914
 20
4.807922
 30
0.0
 10
2.468760
 20
4.816157
 30
0.0
 10
2.440433
 20
4.817861
 30
0.0
 10
2.412529
 20
4.812768
 30
0.0
 10
2.386693
 20
4.801019
 30
0.0
 10
2.364433
 20
4.783410
 30
0.0
 10
2.342837
 20
4.762233
 30
0.0
 10
2.321233
 20
4.741048
 30
0.0
 10
2.299625
 20
4.719859
 30
0.0
 10
2.278024
 20
4.698676
 30
0.0
 10
2.256428
 20
4.677498
 30
0.0
 10
2.234830
 20
4.656319
 30
0.0
 10
2.213224
 20
4.635132
 30
0.0
 10
2.191623
 20
4.613949
 30
0.0
 10
2.170022
 20
4.592767
 30
0.0
 10
2.148426
 20
4.571590
 30
0.0
 10
2.126825
 20
4.550407
 30
0.0
 10
2.105231
 20
4.529232
 30
0.0
 10
2.083635
 20
4.508054
 30
0.0
 10
2.062029
 20
4.486867
 30
0.0
 10
2.040426
 20
4.465682
 30
0.0
 10
2.018827
 20
4.444502
 30
0.0
 10
1.997220
 20
4.423313
 30
0.0
 10
1.975614
 20
4.402127
 30
0.0
 10
1.954017
 20
4.380949
 30
0.0
 10
1.980220
 20
4.364665
 30
0.0
 10
2.006420
 20
4.348383
 30
0.0
 10
2.032620
 20
4.332100
 30
0.0
 10
2.058819
 20
4.315819
 30
0.0
 10
2.085009
 20
4.299543
 30
0.0
 10
2.111203
 20
4.283265
 30
0.0
 10
2.137396
 20
4.266986
 30
0.0
 10
2.163593
 20
4.250706
 30
0.0
 10
2.189790
 20
4.234426
 30
0.0
 10
2.215985
 20
4.218147
 30
0.0
 10
2.242178
 20
4.201869
 30
0.0
 10
2.268374
 20
4.185589
 30
0.0
 10
2.294568
 20
4.169311
 30
0.0
 10
2.320753
 20
4.153038
 30
0.0
 10
2.346942
 20
4.136762
 30
0.0
 10
2.373131
 20
4.120487
 30
0.0
 10
2.399321
 20
4.104211
 30
0.0
 10
2.425511
 20
4.087935
 30
0.0
 10
2.451710
 20
4.071654
 30
0.0
 10
2.477905
 20
4.055375
 30
0.0
 10
2.504107
 20
4.039091
 30
0.0
 10
2.530298
 20
4.022814
 30
0.0
 10
2.556486
 20
4.006540
 30
0.0
 10
2.582687
 20
3.990257
 30
0.0
 10
2.608879
 20
3.973980
 30
0.0
 10
2.635068
 20
3.957705
 30
0.0
 10
2.661265
 20
3.941425
 30
0.0
 10
2.687458
 20
3.925147
 30
0.0
 10
2.713651
 20
3.908869
 30
0.0
  0
LWPOLYLINE
  5
102
100
AcDbEntity
  8
0
 62
7
100
AcDbPolyline
 90
81
 70
1
 10
0.759358
 20
3.825774
 30
0.0
 10
0.729274
 20
3.824608
 30
0.0
 10
0.699377
 20
3.821099
 30
0.0
 10
0.669847
 20
3.815247
 30
0.0
 10
0.640874
 20
3.807080
 30
0.0
 10
0.612630
 20
3.796643
 30
0.0
 10
0.585306
 20
3.784012
 30
0.0
 10
0.559053
 20
3.769267
 30
0.0
 10
0.534046
 20
3.752515
 30
0.0
 10
0.510429
 20
3.733865
 30
0.0
 10
0.488328
 20
3.713422
 30
0.0
 10
0.467892
 20
3.691327
 30
0.0
 10
0.449236
 20
3.667702
 30
0.0
 10
0.432487
 20
3.642697
 30
0.0
 10
0.417745
 20
3.616451
 30
0.0
 10
0.405111
 20
3.589116
 30
0.0
 10
0.394676
 20
3.560876
 30
0.0
 10
0.386509
 20
3.531899
 30
0.0
 10
0.380659
 20
3.502376
 30
0.0
 10
0.377150
 20
3.472476
 30
0.0
 10
0.375985
 20
3.442401
 30
0.0
 10
0.377151
 20
3.412317
 30
0.0
 10
0.380660
 20
3.382420
 30
0.0
 10
0.386512
 20
3.352891
 30
0.0
 10
0.394679
 20
3.323917
 30
0.0
 10
0.405116
 20
3.295673
 30
0.0
 10
0.417747
 20
3.268349
 30
0.0
 10
0.432492
 20
3.242096
 30
0.0
 10
0.449244
 20
3.217089
 30
0.0
 10
0.467894
 20
3.193472
 30
0.0
 10
0.488336
 20
3.171371
 30
0.0
 10
0.510432
 20
3.150935
 30
0.0
 10
0.534057
 20
3.132279
 30
0.0
 10
0.559062
 20
3.115530
 30
0.0
 10
0.585308
 20
3.100788
 30
0.0
 10
0.612643
 20
3.088154
 30
0.0
 10
0.640883
 20
3.077720
 30
0.0
 10
0.669860
 20
3.069552
 30
0.0
 10
0.699383
 20
3.063702
 30
0.0
 10
0.729283
 20
3.060193
 30
0.0
 10
0.759358
 20
3.059028
 30
0.0
 10
0.789442
 20
3.060194
 30
0.0
 10
0.819339
 20
3.063703
 30
0.0
 10
0.848868
 20
3.069555
 30
0.0
 10
0.877842
 20
3.077722
 30
0.0
 10
0.906086
 20
3.088159
 30
0.0
 10
0.933410
 20
3.100790
 30
0.0
 10
0.959663
 20
3.115535
 30
0.0
 10
0.984670
 20
3.132287
 30
0.0
 10
1.008286
 20
3.150937
 30
0.0
 10
1.030387
 20
3.171380
 30
0.0
 10
1.050824
 20
3.193475
 30
0.0
 10
1.069480
 20
3.217101
 30
0.0
 10
1.086229
 20
3.242105
 30
0.0
 10
1.100971
 20
3.268351
 30
0.0
 10
1.113605
 20
3.295686
 30
0.0
 10
1.124039
 20
3.323926
 30
0.0
 10
1.132207
 20
3.352904
 30
0.0
 10
1.138057
 20
3.382426
 30
0.0
 10
1.141566
 20
3.412326
 30
0.0
 10
1.142731
 20
3.442401
 30
0.0
 10
1.141770
 20
3.472504
 30
0.0
 10
1.138423
 20
3.502435
 30
0.0
 10
1.132688
 20
3.532009
 30
0.0
 10
1.124592
 20
3.561034
 30
0.0
 10
1.114188
 20
3.589318
 30
0.0
 10
1.101558
 20
3.616671
 30
0.0
 10
1.086791
 20
3.642931
 30
0.0
 10
1.069989
 20
3.667947
 30
0.0
 10
1.051271
 20
3.691563
 30
0.0
 10
1.030763
 20
3.713642
 30
0.0
 10
1.008595
 20
3.734053
 30
0.0
 10
0.984906
 20
3.752672
 30
0.0
 10
0.959838
 20
3.769389
 30
0.0
 10
0.933554
 20
3.784089
 30
0.0
 10
0.906192
 20
3.796689
 30
0.0
 10
0.877933
 20
3.807098
 30
0.0
 10
0.848934
 20
3.815252
 30
0.0
 10
0.819389
 20
3.821097
 30
0.0
 10
0.789466
 20
3.824607
 30
0.0
 10
0.759357
 20
3.825774
 30
0.0
  0
LWPOLYLINE
  5
103
100
AcDbEntity
  8
0
 62
7
100
AcDbPolyline
 90
81
 70
1
 10
2.222856
 20
3.825774
 30
0.0
 10
2.192771
 20
3.824608
 30
0.0
 10
2.162875
 20
3.821099
 30
0.0
 10
2.133345
 20
3.815247
 30
0.0
 10
2.104372
 20
3.807080
 30
0.0
 10
2.076127
 20
3.796643
 30
0.0
 10
2.048803
 20
3.784012
 30
0.0
 10
2.022551
 20
3.769267
 30
0.0
 10
1.997544
 20
3.752515
 30
0.0
 10
1.973927
 20
3.733865
 30
0.0
 10
1.951826
 20
3.713422
 30
0.0
 10
1.931390
 20
3.691327
 30
0.0
 10
1.912734
 20
3.667702
 30
0.0
 10
1.895984
 20
3.642697
 30
0.0
 10
1.881243
 20
3.616451
 30
0.0
 10
1.868608
 20
3.589116
 30
0.0
 10
1.858174
 20
3.560876
 30
0.0
 10
1.850006
 20
3.531899
 30
0.0
 10
1.844157
 20
3.502376
 30
0.0
 10
1.840648
 20
3.472476
 30
0.0
 10
1.839483
 20
3.442401
 30
0.0
 10
1.840649
 20
3.412317
 30
0.0
 10
1.844158
 20
3.382420
 30
0.0
 10
1.850009
 20
3.352891
 30
0.0
 10
1.858177
 20
3.323917
 30
0.0
 10
1.868614
 20
3.295673
 30
0.0
 10
1.881244
 20
3.268349
 30
0.0
 10
1.895990
 20
3.242096
 30
0.0
 10
1.912742
 20
3.217089
 30
0.0
 10
1.931392
 20
3.193472
 30
0.0
 10
1.951834
 20
3.171371
 30
0.0
 10
1.973930
 20
3.150935
 30
0.0
 10
1.997555
 20
3.132279
 30
0.0
 10
2.022560
 20
3.115530
 30
0.0
 10
2.048806
 20
3.100788
 30
0.0
 10
2.076141
 20
3.088154
 30
0.0
 10
2.104381
 20
3.077720
 30
0.0
 10
2.133358
 20
3.069552
 30
0.0
 10
2.162881
 20
3.063702
 30
0.0
 10
2.192781
 20
3.060193
 30
0.0
 10
2.222856
 20
3.059028
 30
0.0
 10
2.252940
 20
3.060194
 30
0.0
 10
2.282836
 20
3.063703
 30
0.0
 10
2.312366
 20
3.069555
 30
0.0
 10
2.341339
 20
3.077722
 30
0.0
 10
2.369584
 20
3.088159
 30
0.0
 10
2.396908
 20
3.100790
 30
0.0
 10
2.423161
 20
3.115535
 30
0.0
 10
2.448167
 20
3.132287
 30
0.0
 10
2.471784
 20
3.150937
 30
0.0
 10
2.493885
 20
3.171380
 30
0.0
 10
2.514322
 20
3.193475
 30
0.0
 10
2.532977
 20
3.217101
 30
0.0
 10
2.549727
 20
3.242105
 30
0.0
 10
2.564468
 20
3.268351
 30
0.0
 10
2.577103
 20
3.295686
 30
0.0
 10
2.587537
 20
3.323926
 30
0.0
 10
2.595705
 20
3.352904
 30
0.0
 10
2.601554
 20
3.382426
 30
0.0
 10
2.605063
 20
3.412326
 30
0.0
 10
2.606228
 20
3.442401
 30
0.0
 10
2.605268
 20
3.472504
 30
0.0
 10
2.601921
 20
3.502435
 30
0.0
 10
2.596186
 20
3.532009
 30
0.0
 10
2.588089
 20
3.561034
 30
0.0
 10
2.577686
 20
3.589318
 30
0.0
 10
2.565056
 20
3.616671
 30
0.0
 10
2.550289
 20
3.642931
 30
0.0
 10
2.533486
 20
3.667947
 30
0.0
 10
2.514769
 20
3.691563
 30
0.0
 10
2.494261
 20
3.713642
 30
0.0
 10
2.472092
 20
3.734053
 30
0.0
 10
2.448404
 20
3.752672
 30
0.0
 10
2.423336
 20
3.769389
 30
0.0
 10
2.397051
 20
3.784089
 30
0.0
 10
2.369690
 20
3.796689
 30
0.0
 10
2.341431
 20
3.807098
 30
0.0
 10
2.312432
 20
3.815252
 30
0.0
 10
2.282887
 20
3.821097
 30
0.0
 10
2.252963
 20
3.824607
 30
0.0
 10
2.222855
 20
3.825774
 30
0.0
  0
LWPOLYLINE
  5
104
100
AcDbEntity
  8
0
 62
7
100
AcDbPolyline
 90
85
 70
1
 10
1.494288
 20
3.862361
 30
0.0
 10
1.494288
 20
3.862361
 30
0.0
 10
1.463174
 20
3.863365
 30
0.0
 10
1.432192
 20
3.866387
 30
0.0
 10
1.401474
 20
3.871432
 30
0.0
 10
1.371164
 20
3.878485
 30
0.0
 10
1.341384
 20
3.887521
 30
0.0
 10
1.312258
 20
3.898503
 30
0.0
 10
1.283912
 20
3.911381
 30
0.0
 10
1.256481
 20
3.926088
 30
0.0
 10
1.230065
 20
3.942561
 30
0.0
 10
1.204786
 20
3.960717
 30
0.0
 10
1.180741
 20
3.980480
 30
0.0
 10
1.158030
 20
4.001763
 30
0.0
 10
1.136751
 20
4.024473
 30
0.0
 10
1.116989
 20
4.048520
 30
0.0
 10
1.098832
 20
4.073803
 30
0.0
 10
1.082364
 20
4.100213
 30
0.0
 10
1.067658
 20
4.127648
 30
0.0
 10
1.054788
 20
4.155979
 30
0.0
 10
1.043806
 20
4.185108
 30
0.0
 10
1.034770
 20
4.214894
 30
0.0
 10
1.027717
 20
4.245212
 30
0.0
 10
1.022674
 20
4.275927
 30
0.0
 10
1.019654
 20
4.306905
 30
0.0
 10
1.018652
 20
4.337998
 30
0.0
 10
1.018652
 20
4.365836
 30
0.0
 10
1.018652
 20
4.393675
 30
0.0
 10
1.049342
 20
4.393675
 30
0.0
 10
1.080023
 20
4.393675
 30
0.0
 10
1.110706
 20
4.393675
 30
0.0
 10
1.141397
 20
4.393675
 30
0.0
 10
1.172090
 20
4.393675
 30
0.0
 10
1.202777
 20
4.393675
 30
0.0
 10
1.233455
 20
4.393675
 30
0.0
 10
1.264151
 20
4.393675
 30
0.0
 10
1.294834
 20
4.393675
 30
0.0
 10
1.325516
 20
4.393675
 30
0.0
 10
1.356210
 20
4.393675
 30
0.0
 10
1.386889
 20
4.393675
 30
0.0
 10
1.417577
 20
4.393675
 30
0.0
 10
1.448268
 20
4.393675
 30
0.0
 10
1.478954
 20
4.393675
 30
0.0
 10
1.509641
 20
4.393675
 30
0.0
 10
1.540322
 20
4.393675
 30
0.0
 10
1.571003
 20
4.393675
 30
0.0
 10
1.601684
 20
4.393675
 30
0.0
 10
1.632379
 20
4.393675
 30
0.0
 10
1.663075
 20
4.393675
 30
0.0
 10
1.693769
 20
4.393675
 30
0.0
 10
1.724442
 20
4.393675
 30
0.0
 10
1.755132
 20
4.393675
 30
0.0
 10
1.785811
 20
4.393675
 30
0.0
 10
1.816497
 20
4.393675
 30
0.0
 10
1.847178
 20
4.393675
 30
0.0
 10
1.877866
 20
4.393675
 30
0.0
 10
1.908549
 20
4.393675
 30
0.0
 10
1.939232
 20
4.393675
 30
0.0
 10
1.969925
 20
4.393675
 30
0.0
 10
1.969925
 20
4.365836
 30
0.0
 10
1.969925
 20
4.337998
 30
0.0
 10
1.968921
 20
4.306883
 30
0.0
 10
1.965899
 20
4.275902
 30
0.0
 10
1.960854
 20
4.245184
 30
0.0
 10
1.953801
 20
4.214874
 30
0.0
 10
1.944765
 20
4.185094
 30
0.0
 10
1.933783
 20
4.155967
 30
0.0
 10
1.920905
 20
4.127622
 30
0.0
 10
1.906199
 20
4.100191
 30
0.0
 10
1.889726
 20
4.073775
 30
0.0
 10
1.871569
 20
4.048496
 30
0.0
 10
1.851806
 20
4.024450
 30
0.0
 10
1.830523
 20
4.001740
 30
0.0
 10
1.807813
 20
3.980460
 30
0.0
 10
1.783767
 20
3.960699
 30
0.0
 10
1.758484
 20
3.942542
 30
0.0
 10
1.732073
 20
3.926074
 30
0.0
 10
1.704638
 20
3.911368
 30
0.0
 10
1.676307
 20
3.898498
 30
0.0
 10
1.647178
 20
3.887516
 30
0.0
 10
1.617393
 20
3.878480
 30
0.0
 10
1.587074
 20
3.871427
 30
0.0
 10
1.556360
 20
3.866384
 30
0.0
 10
1.525381
 20
3.863364
 30
0.0
 10
1.494288
 20
3.862361
 30
0.0
  0
ENDSEC
  0
SECTION
  2
OBJECTS
  0
DICTIONARY
  5
C
330
0
100
AcDbDictionary
  3
ACAD_GROUP
350
D
  3
ACAD_MLINESTYLE
350
17
  0
DICTIONARY
  5
D
330
C
100
AcDbDictionary
  0
DICTIONARY
  5
1A
330
C
100
AcDbDictionary
  0
DICTIONARY
  5
17
330
C
100
AcDbDictionary
  3
STANDARD
350
18
  0
DICTIONARY
  5
19
330
C
100
AcDbDictionary
  0
ENDSEC
  0
EOF
