  0
SECTION
  2
HEADER
  9
$ACADVER
  1
AC1014
  9
$HANDSEED
  5
FFFF
  9
$MEASUREMENT
 70
     1
  0
ENDSEC
  0
SECTION
  2
TABLES
  0
TABLE
  2
VPORT
  5
8
330
0
100
AcDbSymbolTable
 70
     4
  0
VPORT
  5
2E
330
8
100
AcDbSymbolTableRecord
100
AcDbViewportTableRecord
  2
*ACTIVE
 70
     0
 10
0.0
 20
0.0
 11
1.0
 21
1.0
 12
210.0
 22
148.5
 13
0.0
 23
0.0
 14
10.0
 24
10.0
 15
10.0
 25
10.0
 16
0.0
 26
0.0
 36
1.0
 17
0.0
 27
0.0
 37
0.0
 40
341.0
 41
1.24
 42
50.0
 43
0.0
 44
0.0
 50
0.0
 51
0.0
 71
     0
 72
   100
 73
     1
 74
     3
 75
     0
 76
     0
 77
     0
 78
     0
  0
ENDTAB
  0
TABLE
  2
LTYPE
  5
5
330
0
100
AcDbSymbolTable
 70
     1
  0
LTYPE
  5
14
330
5
100
AcDbSymbolTableRecord
100
AcDbLinetypeTableRecord
  2
BYBLOCK
 70
     0
  3

 72
    65
 73
     0
 40
0.0
  0
LTYPE
  5
15
330
5
100
AcDbSymbolTableRecord
100
AcDbLinetypeTableRecord
  2
BYLAYER
 70
     0
  3

 72
    65
 73
     0
 40
0.0
  0
LTYPE
  5
16
330
5
100
AcDbSymbolTableRecord
100
AcDbLinetypeTableRecord
  2
CONTINUOUS
 70
     0
  3
Solid line
 72
    65
 73
     0
 40
0.0
  0
ENDTAB
  0
TABLE
  2
LAYER
  5
2
100
AcDbSymbolTable
 70
1
  0
LAYER
  5
50
100
AcDbSymbolTableRecord
100
AcDbLayerTableRecord
  2
0
 70
0
  6
CONTINUOUS
  0
ENDTAB
  0
TABLE
  2
STYLE
  5
3
330
0
100
AcDbSymbolTable
 70
     1
  0
STYLE
  5
11
330
3
100
AcDbSymbolTableRecord
100
AcDbTextStyleTableRecord
  2
STANDARD
 70
     0
 40
0.0
 41
1.0
 50
0.0
 71
     0
 42
2.5
  3
txt
  4

  0
ENDTAB
  0
TABLE
  2
VIEW
  5
6
330
0
100
AcDbSymbolTable
 70
     0
  0
ENDTAB
  0
TABLE
  2
UCS
  5
7
330
0
100
AcDbSymbolTable
 70
     0
  0
ENDTAB
  0
TABLE
  2
APPID
  5
9
330
0
100
AcDbSymbolTable
 70
     2
  0
APPID
  5
12
330
9
100
AcDbSymbolTableRecord
100
AcDbRegAppTableRecord
  2
ACAD
 70
     0
  0
ENDTAB
  0
TABLE
  2
DIMSTYLE
  5
A
330
0
100
AcDbSymbolTable
 70
     1
  0
DIMSTYLE
105
27
330
A
100
AcDbSymbolTableRecord
100
AcDbDimStyleTableRecord
  2
ISO-25
 70
     0
  3

  4

  5

  6

  7

 40
1.0
 41
2.5
 42
0.625
 43
3.75
 44
1.25
 45
0.0
 46
0.0
 47
0.0
 48
0.0
140
2.5
141
2.5
142
0.0
143
0.03937007874016
144
1.0
145
0.0
146
1.0
147
0.625
 71
     0
 72
     0
 73
     0
 74
     0
 75
     0
 76
     0
 77
     1
 78
     8
170
     0
171
     3
172
     1
173
     0
174
     0
175
     0
176
     0
177
     0
178
     0
270
     2
271
     2
272
     2
273
     2
274
     3
340
11
275
     0
280
     0
281
     0
282
     0
283
     0
284
     8
285
     0
286
     0
287
     3
288
     0
  0
ENDTAB
  0
TABLE
  2
BLOCK_RECORD
  5
1
330
0
100
AcDbSymbolTable
 70
     1
  0
BLOCK_RECORD
  5
1F
330
1
100
AcDbSymbolTableRecord
100
AcDbBlockTableRecord
  2
*MODEL_SPACE
  0
BLOCK_RECORD
  5
1B
330
1
100
AcDbSymbolTableRecord
100
AcDbBlockTableRecord
  2
*PAPER_SPACE
  0
ENDTAB
  0
ENDSEC
  0
SECTION
  2
BLOCKS
  0
BLOCK
  5
20
330
1F
100
AcDbEntity
  8
0
100
AcDbBlockBegin
  2
*MODEL_SPACE
 70
     0
 10
0.0
 20
0.0
 30
0.0
  3
*MODEL_SPACE
  1

  0
ENDBLK
  5
21
330
1F
100
AcDbEntity
  8
0
100
AcDbBlockEnd
  0
BLOCK
  5
1C
330
1B
100
AcDbEntity
 67
     1
  8
0
100
AcDbBlockBegin
  2
*PAPER_SPACE
  1

  0
ENDBLK
  5
1D
330
1B
100
AcDbEntity
 67
     1
  8
0
100
AcDbBlockEnd
  0
ENDSEC
  0
SECTION
  2
ENTITIES
  0
LWPOLYLINE
  5
100
100
AcDbEntity
  8
0
 62
7
100
AcDbPolyline
 90
81
 70
1
 10
38.164081
 20
58.385585
 30
0.0
 10
38.164081
 20
55.706679
 30
0.0
 10
38.729422
 20
55.673090
 30
0.0
 10
39.492681
 20
55.534081
 30
0.0
 10
40.233721
 20
55.303086
 30
0.0
 10
40.941172
 20
54.984242
 30
0.0
 10
41.604696
 20
54.582200
 30
0.0
 10
42.215513
 20
54.103161
 30
0.0
 10
42.763799
 20
53.554873
 30
0.0
 10
43.242840
 20
52.944059
 30
0.0
 10
43.644883
 20
52.280531
 30
0.0
 10
43.963211
 20
51.573083
 30
0.0
 10
44.194203
 20
50.832559
 30
0.0
 10
44.333212
 20
50.069297
 30
0.0
 10
44.379205
 20
49.294668
 30
0.0
 10
44.349749
 20
48.696255
 30
0.0
 10
44.264484
 20
48.103009
 30
0.0
 10
44.124440
 20
47.520616
 30
0.0
 10
43.930654
 20
46.953209
 30
0.0
 10
44.700115
 20
47.119090
 30
0.0
 10
45.465444
 20
47.305126
 30
0.0
 10
46.225605
 20
47.510797
 30
0.0
 10
46.980080
 20
47.736106
 30
0.0
 10
47.728354
 20
47.980536
 30
0.0
 10
48.470428
 20
48.244085
 30
0.0
 10
49.205268
 20
48.526755
 30
0.0
 10
49.932873
 20
48.828031
 30
0.0
 10
50.651690
 20
49.148423
 30
0.0
 10
51.362758
 20
49.486904
 30
0.0
 10
52.064525
 20
49.843988
 30
0.0
 10
52.756988
 20
50.218641
 30
0.0
 10
53.439634
 20
50.611383
 30
0.0
 10
54.111945
 20
51.021694
 30
0.0
 10
54.773404
 20
51.448541
 30
0.0
 10
55.423493
 20
51.892959
 30
0.0
 10
56.062213
 20
52.353395
 30
0.0
 10
56.688532
 20
52.830370
 30
0.0
 10
57.302447
 20
53.323363
 30
0.0
 10
57.903446
 20
53.831857
 30
0.0
 10
58.491006
 20
54.355857
 30
0.0
 10
59.065131
 20
54.894842
 30
0.0
 10
59.624788
 20
55.448298
 30
0.0
 10
60.170491
 20
56.016220
 30
0.0
 10
60.701208
 20
56.598097
 30
0.0
 10
61.216421
 20
57.192894
 30
0.0
 10
61.716131
 20
57.801126
 30
0.0
 10
62.200340
 20
58.421759
 30
0.0
 10
62.668012
 20
59.054796
 30
0.0
 10
63.119664
 20
59.700234
 30
0.0
 10
62.437018
 20
59.451671
 30
0.0
 10
61.746103
 20
59.228429
 30
0.0
 10
61.046923
 20
59.031026
 30
0.0
 10
60.340504
 20
58.859459
 30
0.0
 10
59.628405
 20
58.714248
 30
0.0
 10
58.911651
 20
58.595908
 30
0.0
 10
58.191283
 20
58.503407
 30
0.0
 10
57.467812
 20
58.437780
 30
0.0
 10
56.742793
 20
58.398505
 30
0.0
 10
56.016220
 20
58.385593
 30
0.0
 10
55.228156
 20
58.385593
 30
0.0
 10
54.440089
 20
58.385593
 30
0.0
 10
53.652541
 20
58.385593
 30
0.0
 10
52.864475
 20
58.385593
 30
0.0
 10
52.076410
 20
58.385593
 30
0.0
 10
51.288862
 20
58.385593
 30
0.0
 10
50.500795
 20
58.385593
 30
0.0
 10
49.712729
 20
58.385593
 30
0.0
 10
48.925180
 20
58.385593
 30
0.0
 10
48.137632
 20
58.385593
 30
0.0
 10
47.349565
 20
58.385593
 30
0.0
 10
46.561501
 20
58.385593
 30
0.0
 10
45.773953
 20
58.385593
 30
0.0
 10
44.985886
 20
58.385593
 30
0.0
 10
44.197822
 20
58.385593
 30
0.0
 10
43.409755
 20
58.385593
 30
0.0
 10
42.621689
 20
58.385593
 30
0.0
 10
41.833624
 20
58.385593
 30
0.0
 10
41.046076
 20
58.385593
 30
0.0
 10
40.258009
 20
58.385593
 30
0.0
 10
39.469943
 20
58.385593
 30
0.0
 10
38.682395
 20
58.385593
 30
0.0
  0
LWPOLYLINE
  5
101
100
AcDbEntity
  8
0
 62
7
100
AcDbPolyline
 90
4
 70
1
 10
38.020936
 20
58.385585
 30
0.0
 10
38.020936
 20
55.714947
 30
0.0
 10
38.164081
 20
55.706692
 30
0.0
 10
38.164081
 20
58.385599
 30
0.0
  0
LWPOLYLINE
  5
102
100
AcDbEntity
  8
0
 62
7
100
AcDbPolyline
 90
83
 70
1
 10
12.658659
 20
59.703851
 30
0.0
 10
13.112895
 20
59.056347
 30
0.0
 10
13.584184
 20
58.420209
 30
0.0
 10
14.071493
 20
57.796991
 30
0.0
 10
14.574822
 20
57.186692
 30
0.0
 10
15.093653
 20
56.589313
 30
0.0
 10
15.627471
 20
56.006402
 30
0.0
 10
16.176791
 20
55.436412
 30
0.0
 10
16.740581
 20
54.881407
 30
0.0
 10
17.318323
 20
54.341389
 30
0.0
 10
17.910019
 20
53.815839
 30
0.0
 10
18.515667
 20
53.306310
 30
0.0
 10
19.133717
 20
52.812283
 30
0.0
 10
19.764686
 20
52.334792
 30
0.0
 10
20.407541
 20
51.873321
 30
0.0
 10
21.061764
 20
51.428903
 30
0.0
 10
21.727874
 20
51.002056
 30
0.0
 10
22.404835
 20
50.591746
 30
0.0
 10
23.091615
 20
50.199522
 30
0.0
 10
23.788730
 20
49.825386
 30
0.0
 10
24.494630
 20
49.469333
 30
0.0
 10
25.210349
 20
49.131886
 30
0.0
 10
25.934335
 20
48.812526
 30
0.0
 10
26.666075
 20
48.512803
 30
0.0
 10
27.405564
 20
48.231684
 30
0.0
 10
28.152287
 20
47.969683
 30
0.0
 10
28.905214
 20
47.727322
 30
0.0
 10
29.663823
 20
47.504595
 30
0.0
 10
30.428635
 20
47.301507
 30
0.0
 10
31.198096
 20
47.118055
 30
0.0
 10
31.972209
 20
46.954759
 30
0.0
 10
31.780489
 20
47.521650
 30
0.0
 10
31.641998
 20
48.104043
 30
0.0
 10
31.558282
 20
48.696771
 30
0.0
 10
31.530376
 20
49.294668
 30
0.0
 10
31.576369
 20
50.069297
 30
0.0
 10
31.715378
 20
50.832559
 30
0.0
 10
31.946372
 20
51.573599
 30
0.0
 10
32.265217
 20
52.281050
 30
0.0
 10
32.667259
 20
52.944574
 30
0.0
 10
33.146298
 20
53.555389
 30
0.0
 10
33.694586
 20
54.103677
 30
0.0
 10
34.305400
 20
54.582718
 30
0.0
 10
34.968928
 20
54.984761
 30
0.0
 10
35.676376
 20
55.303086
 30
0.0
 10
36.416900
 20
55.534081
 30
0.0
 10
37.180162
 20
55.673090
 30
0.0
 10
37.954790
 20
55.719083
 30
0.0
 10
38.020936
 20
55.714955
 30
0.0
 10
38.020936
 20
58.385593
 30
0.0
 10
37.894330
 20
58.385593
 30
0.0
 10
37.106780
 20
58.385593
 30
0.0
 10
36.318715
 20
58.385593
 30
0.0
 10
35.530649
 20
58.385593
 30
0.0
 10
34.742584
 20
58.385593
 30
0.0
 10
33.954518
 20
58.385593
 30
0.0
 10
33.166454
 20
58.385593
 30
0.0
 10
32.378903
 20
58.385593
 30
0.0
 10
31.590839
 20
58.385593
 30
0.0
 10
30.802772
 20
58.385593
 30
0.0
 10
30.015224
 20
58.385593
 30
0.0
 10
29.227157
 20
58.385593
 30
0.0
 10
28.438577
 20
58.385593
 30
0.0
 10
27.651026
 20
58.385593
 30
0.0
 10
26.862962
 20
58.385593
 30
0.0
 10
26.075412
 20
58.385593
 30
0.0
 10
25.287346
 20
58.385593
 30
0.0
 10
24.499798
 20
58.385593
 30
0.0
 10
23.711732
 20
58.385593
 30
0.0
 10
22.923666
 20
58.385593
 30
0.0
 10
22.136117
 20
58.385593
 30
0.0
 10
21.348052
 20
58.385593
 30
0.0
 10
20.559986
 20
58.385593
 30
0.0
 10
19.772437
 20
58.385593
 30
0.0
 10
19.044833
 20
58.398505
 30
0.0
 10
18.318262
 20
58.438296
 30
0.0
 10
17.593759
 20
58.503926
 30
0.0
 10
16.871839
 20
58.596427
 30
0.0
 10
16.154570
 20
58.715283
 30
0.0
 10
15.441435
 20
58.861010
 30
0.0
 10
14.734502
 20
59.032574
 30
0.0
 10
14.034286
 20
59.230495
 30
0.0
 10
13.341822
 20
59.454772
 30
0.0
  0
LWPOLYLINE
  5
103
100
AcDbEntity
  8
0
 62
7
100
AcDbPolyline
 90
45
 70
1
 10
13.080339
 20
103.099654
 30
0.0
 10
13.596070
 20
103.420048
 30
0.0
 10
14.261662
 20
103.833460
 30
0.0
 10
14.926738
 20
104.246871
 30
0.0
 10
15.591814
 20
104.660283
 30
0.0
 10
16.256889
 20
105.073694
 30
0.0
 10
16.922482
 20
105.487106
 30
0.0
 10
17.587558
 20
105.900517
 30
0.0
 10
18.252633
 20
106.313929
 30
0.0
 10
18.918226
 20
106.727340
 30
0.0
 10
19.583302
 20
107.140751
 30
0.0
 10
20.248894
 20
107.554680
 30
0.0
 10
20.913970
 20
107.968091
 30
0.0
 10
21.579562
 20
108.381503
 30
0.0
 10
22.244638
 20
108.794914
 30
0.0
 10
22.910231
 20
109.208326
 30
0.0
 10
23.575306
 20
109.621737
 30
0.0
 10
24.240899
 20
110.035149
 30
0.0
 10
24.906491
 20
110.449077
 30
0.0
 10
25.572084
 20
110.862488
 30
0.0
 10
26.237159
 20
111.275900
 30
0.0
 10
25.688872
 20
111.813852
 30
0.0
 10
25.140069
 20
112.352320
 30
0.0
 10
24.591265
 20
112.890272
 30
0.0
 10
24.042461
 20
113.428223
 30
0.0
 10
23.493657
 20
113.966175
 30
0.0
 10
22.945370
 20
114.504644
 30
0.0
 10
22.396567
 20
115.042595
 30
0.0
 10
21.848280
 20
115.580547
 30
0.0
 10
21.299476
 20
116.118499
 30
0.0
 10
20.750672
 20
116.656450
 30
0.0
 10
20.202385
 20
117.194402
 30
0.0
 10
19.653582
 20
117.732353
 30
0.0
 10
19.104778
 20
118.270305
 30
0.0
 10
18.555974
 20
118.808257
 30
0.0
 10
18.007687
 20
119.346209
 30
0.0
 10
17.458883
 20
119.884160
 30
0.0
 10
16.910080
 20
120.422629
 30
0.0
 10
16.361276
 20
120.960580
 30
0.0
 10
15.812989
 20
121.498532
 30
0.0
 10
15.247649
 20
121.946050
 30
0.0
 10
14.591358
 20
122.244223
 30
0.0
 10
13.882357
 20
122.373414
 30
0.0
 10
13.163021
 20
122.330523
 30
0.0
 10
13.080339
 20
122.305202
 30
0.0
  0
LWPOLYLINE
  5
104
100
AcDbEntity
  8
0
 62
7
100
AcDbPolyline
 90
49
 70
1
 10
13.012643
 20
122.285048
 30
0.0
 10
12.473141
 20
122.121233
 30
0.0
 10
11.850440
 20
121.757948
 30
0.0
 10
11.331609
 20
121.258237
 30
0.0
 10
10.948169
 20
120.647421
 30
0.0
 10
10.721827
 20
119.963225
 30
0.0
 10
10.563180
 20
119.209783
 30
0.0
 10
10.404533
 20
118.456857
 30
0.0
 10
10.245370
 20
117.703415
 30
0.0
 10
10.086723
 20
116.949972
 30
0.0
 10
9.928077
 20
116.196530
 30
0.0
 10
9.769430
 20
115.443604
 30
0.0
 10
9.610783
 20
114.690162
 30
0.0
 10
9.452137
 20
113.937236
 30
0.0
 10
9.292973
 20
113.183794
 30
0.0
 10
9.134327
 20
112.430351
 30
0.0
 10
8.975680
 20
111.677426
 30
0.0
 10
8.817033
 20
110.924500
 30
0.0
 10
8.658386
 20
110.171058
 30
0.0
 10
8.499740
 20
109.417615
 30
0.0
 10
8.340577
 20
108.664173
 30
0.0
 10
8.181930
 20
107.910730
 30
0.0
 10
8.023283
 20
107.157805
 30
0.0
 10
7.864636
 20
106.404362
 30
0.0
 10
7.705990
 20
105.651437
 30
0.0
 10
7.547343
 20
104.897994
 30
0.0
 10
7.388180
 20
104.145069
 30
0.0
 10
7.229533
 20
103.391626
 30
0.0
 10
7.070886
 20
102.638184
 30
0.0
 10
6.912240
 20
101.885258
 30
0.0
 10
6.753593
 20
101.131816
 30
0.0
 10
6.594430
 20
100.378373
 30
0.0
 10
6.435783
 20
99.624932
 30
0.0
 10
6.277136
 20
98.871488
 30
0.0
 10
6.942729
 20
99.285416
 30
0.0
 10
7.607805
 20
99.698827
 30
0.0
 10
8.273397
 20
100.112239
 30
0.0
 10
8.938473
 20
100.525650
 30
0.0
 10
9.604065
 20
100.939063
 30
0.0
 10
10.269141
 20
101.352474
 30
0.0
 10
10.934734
 20
101.765886
 30
0.0
 10
11.599809
 20
102.179297
 30
0.0
 10
12.264885
 20
102.592709
 30
0.0
 10
12.930477
 20
103.006637
 30
0.0
 10
13.012643
 20
103.057797
 30
0.0
 10
13.012643
 20
122.285048
 30
0.0
 10
13.012643
 20
103.057797
 30
0.0
 10
13.080339
 20
103.099654
 30
0.0
 10
13.080339
 20
122.305201
 30
0.0
  0
LWPOLYLINE
  5
105
100
AcDbEntity
  8
0
 62
7
100
AcDbPolyline
 90
49
 70
1
 10
61.422611
 20
103.948698
 30
0.0
 10
61.608129
 20
103.833460
 30
0.0
 10
62.273204
 20
103.420048
 30
0.0
 10
62.938798
 20
103.006637
 30
0.0
 10
63.604389
 20
102.592709
 30
0.0
 10
64.269464
 20
102.179297
 30
0.0
 10
64.934542
 20
101.765886
 30
0.0
 10
65.600133
 20
101.352474
 30
0.0
 10
66.265724
 20
100.939063
 30
0.0
 10
66.930802
 20
100.525650
 30
0.0
 10
67.595877
 20
100.112239
 30
0.0
 10
68.261468
 20
99.698827
 30
0.0
 10
68.926546
 20
99.285416
 30
0.0
 10
69.592137
 20
98.871488
 30
0.0
 10
69.433491
 20
99.624932
 30
0.0
 10
69.274844
 20
100.378373
 30
0.0
 10
69.116197
 20
101.131816
 30
0.0
 10
68.957034
 20
101.885258
 30
0.0
 10
68.798387
 20
102.638184
 30
0.0
 10
68.639740
 20
103.391626
 30
0.0
 10
68.481094
 20
104.145069
 30
0.0
 10
68.322447
 20
104.897994
 30
0.0
 10
68.163800
 20
105.651437
 30
0.0
 10
68.004637
 20
106.404362
 30
0.0
 10
67.845990
 20
107.157805
 30
0.0
 10
67.687344
 20
107.910730
 30
0.0
 10
67.528697
 20
108.664173
 30
0.0
 10
67.370050
 20
109.417615
 30
0.0
 10
67.210887
 20
110.171058
 30
0.0
 10
67.052240
 20
110.924500
 30
0.0
 10
66.893594
 20
111.677426
 30
0.0
 10
66.734947
 20
112.430351
 30
0.0
 10
66.576300
 20
113.183794
 30
0.0
 10
66.417653
 20
113.937236
 30
0.0
 10
66.259006
 20
114.690162
 30
0.0
 10
66.099844
 20
115.443604
 30
0.0
 10
65.941197
 20
116.196530
 30
0.0
 10
65.782550
 20
116.949972
 30
0.0
 10
65.623903
 20
117.703415
 30
0.0
 10
65.465256
 20
118.456857
 30
0.0
 10
65.306609
 20
119.209783
 30
0.0
 10
65.147447
 20
119.963225
 30
0.0
 10
64.921104
 20
120.647421
 30
0.0
 10
64.538183
 20
121.258237
 30
0.0
 10
64.018835
 20
121.757948
 30
0.0
 10
63.396133
 20
122.121233
 30
0.0
 10
62.706253
 20
122.330523
 30
0.0
 10
61.986917
 20
122.373414
 30
0.0
 10
61.422611
 20
122.270578
 30
0.0
  0
LWPOLYLINE
  5
106
100
AcDbEntity
  8
0
 62
7
100
AcDbPolyline
 90
45
 70
1
 10
61.152860
 20
122.187379
 30
0.0
 10
60.622143
 20
121.946050
 30
0.0
 10
60.056802
 20
121.498532
 30
0.0
 10
59.507998
 20
120.960580
 30
0.0
 10
58.959194
 20
120.422629
 30
0.0
 10
58.410390
 20
119.884160
 30
0.0
 10
57.861586
 20
119.346209
 30
0.0
 10
57.313301
 20
118.808257
 30
0.0
 10
56.764497
 20
118.270305
 30
0.0
 10
56.215692
 20
117.732353
 30
0.0
 10
55.667404
 20
117.194402
 30
0.0
 10
55.118603
 20
116.656450
 30
0.0
 10
54.569799
 20
116.118499
 30
0.0
 10
54.021511
 20
115.580547
 30
0.0
 10
53.472707
 20
115.042595
 30
0.0
 10
52.924421
 20
114.504644
 30
0.0
 10
52.375617
 20
113.966175
 30
0.0
 10
51.826813
 20
113.428223
 30
0.0
 10
51.278009
 20
112.890272
 30
0.0
 10
50.729205
 20
112.352320
 30
0.0
 10
50.180401
 20
111.813852
 30
0.0
 10
49.632115
 20
111.275900
 30
0.0
 10
50.297707
 20
110.862488
 30
0.0
 10
50.963300
 20
110.449077
 30
0.0
 10
51.628376
 20
110.035149
 30
0.0
 10
52.293967
 20
109.621737
 30
0.0
 10
52.959045
 20
109.208326
 30
0.0
 10
53.624636
 20
108.794914
 30
0.0
 10
54.289711
 20
108.381503
 30
0.0
 10
54.955305
 20
107.968091
 30
0.0
 10
55.620896
 20
107.554680
 30
0.0
 10
56.285974
 20
107.140751
 30
0.0
 10
56.951565
 20
106.727340
 30
0.0
 10
57.616640
 20
106.313929
 30
0.0
 10
58.282234
 20
105.900517
 30
0.0
 10
58.947309
 20
105.487106
 30
0.0
 10
59.612384
 20
105.073694
 30
0.0
 10
60.277460
 20
104.660283
 30
0.0
 10
60.942535
 20
104.246871
 30
0.0
 10
61.152860
 20
104.116130
 30
0.0
 10
61.152860
 20
122.187379
 30
0.0
 10
61.152860
 20
104.116130
 30
0.0
 10
61.422611
 20
103.948698
 30
0.0
 10
61.422611
 20
122.270578
 30
0.0
 10
61.278434
 20
122.244223
 30
0.0
  0
LWPOLYLINE
  5
107
100
AcDbEntity
  8
0
 62
7
100
AcDbPolyline
 90
2
 70
0
 10
15.530002
 20
69.173808
 30
0.0
 10
10.842991
 20
69.173808
 30
0.0
  0
LWPOLYLINE
  5
108
100
AcDbEntity
  8
0
 62
7
100
AcDbPolyline
 90
2
 70
0
 10
15.530002
 20
72.689062
 30
0.0
 10
10.842991
 20
72.689062
 30
0.0
  0
LWPOLYLINE
  5
109
100
AcDbEntity
  8
0
 62
7
100
AcDbPolyline
 90
2
 70
0
 10
15.530002
 20
76.204328
 30
0.0
 10
10.842991
 20
76.204328
 30
0.0
  0
LWPOLYLINE
  5
10a
100
AcDbEntity
  8
0
 62
7
100
AcDbPolyline
 90
2
 70
0
 10
66.238606
 20
69.173808
 30
0.0
 10
61.551596
 20
69.173808
 30
0.0
  0
LWPOLYLINE
  5
10b
100
AcDbEntity
  8
0
 62
7
100
AcDbPolyline
 90
2
 70
0
 10
66.238606
 20
72.689062
 30
0.0
 10
61.551596
 20
72.689062
 30
0.0
  0
LWPOLYLINE
  5
10c
100
AcDbEntity
  8
0
 62
7
100
AcDbPolyline
 90
2
 70
0
 10
66.238606
 20
76.244729
 30
0.0
 10
61.551596
 20
76.244729
 30
0.0
  0
LWPOLYLINE
  5
10d
100
AcDbEntity
  8
0
 62
7
100
AcDbPolyline
 90
29
 70
0
 10
37.874111
 20
75.800271
 30
0.0
 10
37.831029
 20
75.021988
 30
0.0
 10
37.701338
 20
74.253270
 30
0.0
 10
37.485962
 20
73.504272
 30
0.0
 10
37.187470
 20
72.784314
 30
0.0
 10
36.809798
 20
72.102303
 30
0.0
 10
36.358395
 20
71.467165
 30
0.0
 10
35.838983
 20
70.886267
 30
0.0
 10
35.257884
 20
70.366581
 30
0.0
 10
34.622699
 20
69.915082
 30
0.0
 10
33.940675
 20
69.537358
 30
0.0
 10
33.220606
 20
69.238784
 30
0.0
 10
32.471602
 20
69.023384
 30
0.0
 10
31.702911
 20
68.893672
 30
0.0
 10
30.924406
 20
68.850566
 30
0.0
 10
30.146124
 20
68.893648
 30
0.0
 10
29.377406
 20
69.023339
 30
0.0
 10
28.628407
 20
69.238715
 30
0.0
 10
27.908450
 20
69.537207
 30
0.0
 10
27.226438
 20
69.914879
 30
0.0
 10
26.591301
 20
70.366282
 30
0.0
 10
26.010404
 20
70.885693
 30
0.0
 10
25.490715
 20
71.466792
 30
0.0
 10
25.039218
 20
72.101978
 30
0.0
 10
24.661493
 20
72.784002
 30
0.0
 10
24.362920
 20
73.504071
 30
0.0
 10
24.147518
 20
74.253075
 30
0.0
 10
24.017808
 20
75.021766
 30
0.0
 10
23.974701
 20
75.800271
 30
0.0
  0
LWPOLYLINE
  5
10e
100
AcDbEntity
  8
0
 62
7
100
AcDbPolyline
 90
29
 70
0
 10
51.813928
 20
75.800271
 30
0.0
 10
51.770846
 20
75.021988
 30
0.0
 10
51.641155
 20
74.253270
 30
0.0
 10
51.425779
 20
73.504272
 30
0.0
 10
51.127286
 20
72.784314
 30
0.0
 10
50.749615
 20
72.102303
 30
0.0
 10
50.298212
 20
71.467165
 30
0.0
 10
49.778800
 20
70.886267
 30
0.0
 10
49.197701
 20
70.366581
 30
0.0
 10
48.562516
 20
69.915082
 30
0.0
 10
47.880492
 20
69.537358
 30
0.0
 10
47.160420
 20
69.238784
 30
0.0
 10
46.411419
 20
69.023384
 30
0.0
 10
45.642728
 20
68.893672
 30
0.0
 10
44.864223
 20
68.850566
 30
0.0
 10
44.085940
 20
68.893648
 30
0.0
 10
43.317223
 20
69.023339
 30
0.0
 10
42.568224
 20
69.238715
 30
0.0
 10
41.848267
 20
69.537207
 30
0.0
 10
41.166255
 20
69.914879
 30
0.0
 10
40.531118
 20
70.366282
 30
0.0
 10
39.950220
 20
70.885693
 30
0.0
 10
39.430530
 20
71.466792
 30
0.0
 10
38.979032
 20
72.101978
 30
0.0
 10
38.601308
 20
72.784002
 30
0.0
 10
38.302736
 20
73.504071
 30
0.0
 10
38.087333
 20
74.253075
 30
0.0
 10
37.957621
 20
75.021766
 30
0.0
 10
37.914515
 20
75.800271
 30
0.0
  0
LWPOLYLINE
  5
10f
100
AcDbEntity
  8
0
 62
7
100
AcDbPolyline
 90
44
 70
1
 10
37.756869
 20
98.110295
 30
0.0
 10
37.954790
 20
98.104104
 30
0.0
 10
38.744923
 20
98.129425
 30
0.0
 10
39.531440
 20
98.206424
 30
0.0
 10
40.311754
 20
98.334064
 30
0.0
 10
41.081732
 20
98.513380
 30
0.0
 10
41.838276
 20
98.742824
 30
0.0
 10
42.578281
 20
99.021878
 30
0.0
 10
43.297617
 20
99.348990
 30
0.0
 10
43.994733
 20
99.722092
 30
0.0
 10
44.665492
 20
100.140674
 30
0.0
 10
45.307831
 20
100.601626
 30
0.0
 10
45.918646
 20
101.103921
 30
0.0
 10
46.495355
 20
101.644457
 30
0.0
 10
47.035891
 20
102.221165
 30
0.0
 10
47.537668
 20
102.831981
 30
0.0
 10
47.999139
 20
103.473802
 30
0.0
 10
48.417202
 20
104.145079
 30
0.0
 10
48.790822
 20
104.841678
 30
0.0
 10
49.117935
 20
105.561530
 30
0.0
 10
49.396988
 20
106.301537
 30
0.0
 10
49.626429
 20
107.057563
 30
0.0
 10
49.805748
 20
107.827542
 30
0.0
 10
49.933904
 20
108.607856
 30
0.0
 10
50.010385
 20
109.394888
 30
0.0
 10
50.036235
 20
110.185021
 30
0.0
 10
50.036235
 20
110.892471
 30
0.0
 10
50.036235
 20
111.599405
 30
0.0
 10
49.256439
 20
111.599405
 30
0.0
 10
48.477156
 20
111.599405
 30
0.0
 10
47.697876
 20
111.599405
 30
0.0
 10
46.918078
 20
111.599405
 30
0.0
 10
46.138798
 20
111.599405
 30
0.0
 10
45.359518
 20
111.599405
 30
0.0
 10
44.580238
 20
111.599405
 30
0.0
 10
43.800958
 20
111.599405
 30
0.0
 10
43.021675
 20
111.599405
 30
0.0
 10
42.241879
 20
111.599405
 30
0.0
 10
41.462597
 20
111.599405
 30
0.0
 10
40.682801
 20
111.599405
 30
0.0
 10
39.903521
 20
111.599405
 30
0.0
 10
39.124238
 20
111.599405
 30
0.0
 10
38.344958
 20
111.599405
 30
0.0
 10
37.756879
 20
111.599405
 30
0.0
  0
LWPOLYLINE
  5
110
100
AcDbEntity
  8
0
 62
7
100
AcDbPolyline
 90
47
 70
1
 10
37.487118
 20
111.599394
 30
0.0
 10
36.785869
 20
111.599394
 30
0.0
 10
36.006589
 20
111.599394
 30
0.0
 10
35.226791
 20
111.599394
 30
0.0
 10
34.447511
 20
111.599394
 30
0.0
 10
33.668231
 20
111.599394
 30
0.0
 10
32.888951
 20
111.599394
 30
0.0
 10
32.109671
 20
111.599394
 30
0.0
 10
31.329872
 20
111.599394
 30
0.0
 10
30.550592
 20
111.599394
 30
0.0
 10
29.771309
 20
111.599394
 30
0.0
 10
28.991514
 20
111.599394
 30
0.0
 10
28.211715
 20
111.599394
 30
0.0
 10
27.432435
 20
111.599394
 30
0.0
 10
26.653155
 20
111.599394
 30
0.0
 10
25.873874
 20
111.599394
 30
0.0
 10
25.873874
 20
110.892461
 30
0.0
 10
25.873874
 20
110.185010
 30
0.0
 10
25.899195
 20
109.395394
 30
0.0
 10
25.975676
 20
108.608362
 30
0.0
 10
26.103833
 20
107.828565
 30
0.0
 10
26.283151
 20
107.058069
 30
0.0
 10
26.512594
 20
106.301526
 30
0.0
 10
26.791648
 20
105.562036
 30
0.0
 10
27.118757
 20
104.842184
 30
0.0
 10
27.491862
 20
104.145585
 30
0.0
 10
27.910441
 20
103.474825
 30
0.0
 10
28.371396
 20
102.832487
 30
0.0
 10
28.873691
 20
102.221672
 30
0.0
 10
29.413708
 20
101.644963
 30
0.0
 10
29.990934
 20
101.104427
 30
0.0
 10
30.601751
 20
100.602132
 30
0.0
 10
31.243572
 20
100.141179
 30
0.0
 10
31.914849
 20
99.722600
 30
0.0
 10
32.611447
 20
99.348979
 30
0.0
 10
33.331299
 20
99.021867
 30
0.0
 10
34.071307
 20
98.742814
 30
0.0
 10
34.827332
 20
98.513370
 30
0.0
 10
35.597312
 20
98.334570
 30
0.0
 10
36.377624
 20
98.206413
 30
0.0
 10
37.164656
 20
98.129414
 30
0.0
 10
37.487117
 20
98.119069
 30
0.0
 10
37.487118
 20
111.599394
 30
0.0
 10
37.487118
 20
98.119080
 30
0.0
 10
37.756869
 20
98.110295
 30
0.0
 10
37.756869
 20
111.599394
 30
0.0
 10
37.565668
 20
111.599394
 30
0.0
  0
LWPOLYLINE
  5
111
100
AcDbEntity
  8
0
 62
7
100
AcDbPolyline
 90
142
 70
1
 10
38.140308
 20
3.596164
 30
0.0
 10
38.140308
 20
0.000000
 30
0.0
 10
38.594029
 20
0.000000
 30
0.0
 10
39.312846
 20
0.000000
 30
0.0
 10
40.031666
 20
0.000000
 30
0.0
 10
40.751002
 20
0.000000
 30
0.0
 10
41.470338
 20
0.000000
 30
0.0
 10
42.255304
 20
0.024289
 30
0.0
 10
43.036651
 20
0.096634
 30
0.0
 10
43.812832
 20
0.218075
 30
0.0
 10
44.579709
 20
0.387572
 30
0.0
 10
45.333668
 20
0.605131
 30
0.0
 10
46.073160
 20
0.869715
 30
0.0
 10
46.794046
 20
1.180290
 30
0.0
 10
47.494261
 20
1.535824
 30
0.0
 10
48.170705
 20
1.934766
 30
0.0
 10
48.820794
 20
2.375048
 30
0.0
 10
49.441946
 20
2.855124
 30
0.0
 10
50.031573
 20
3.373954
 30
0.0
 10
50.587613
 20
3.927925
 30
0.0
 10
51.107993
 20
4.516004
 30
0.0
 10
51.590135
 20
5.135605
 30
0.0
 10
52.032484
 20
5.784660
 30
0.0
 10
52.432460
 20
6.460072
 30
0.0
 10
52.788510
 20
7.159771
 30
0.0
 10
53.099604
 20
7.880657
 30
0.0
 10
53.364188
 20
8.620147
 30
0.0
 10
53.580194
 20
9.375138
 30
0.0
 10
53.748143
 20
10.141501
 30
0.0
 10
53.866481
 20
10.917680
 30
0.0
 10
53.935727
 20
11.700061
 30
0.0
 10
53.955360
 20
12.485027
 30
0.0
 10
53.955360
 20
13.258623
 30
0.0
 10
53.955360
 20
14.032736
 30
0.0
 10
53.955360
 20
14.806333
 30
0.0
 10
53.955360
 20
15.580445
 30
0.0
 10
53.955360
 20
16.354042
 30
0.0
 10
53.955360
 20
17.127639
 30
0.0
 10
53.955360
 20
17.901233
 30
0.0
 10
53.955360
 20
18.674830
 30
0.0
 10
53.955360
 20
19.448426
 30
0.0
 10
53.955360
 20
20.222539
 30
0.0
 10
53.955360
 20
20.996136
 30
0.0
 10
53.955360
 20
21.770248
 30
0.0
 10
53.955360
 20
22.543845
 30
0.0
 10
53.955360
 20
23.317958
 30
0.0
 10
53.955360
 20
24.091554
 30
0.0
 10
53.955360
 20
24.865151
 30
0.0
 10
53.955360
 20
25.638745
 30
0.0
 10
53.955360
 20
26.412342
 30
0.0
 10
53.955360
 20
27.186973
 30
0.0
 10
53.955360
 20
27.960567
 30
0.0
 10
53.932103
 20
28.726414
 30
0.0
 10
53.862340
 20
29.490190
 30
0.0
 10
53.745550
 20
30.247769
 30
0.0
 10
53.582252
 20
30.996558
 30
0.0
 10
53.372964
 20
31.733981
 30
0.0
 10
53.118715
 20
32.456936
 30
0.0
 10
52.820027
 20
33.162834
 30
0.0
 10
52.478445
 20
33.849097
 30
0.0
 10
52.095521
 20
34.512625
 30
0.0
 10
51.672294
 20
35.152379
 30
0.0
 10
51.211339
 20
35.764228
 30
0.0
 10
50.713695
 20
36.347137
 30
0.0
 10
50.180911
 20
36.899042
 30
0.0
 10
49.616087
 20
37.417355
 30
0.0
 10
49.020774
 20
37.900014
 30
0.0
 10
48.397040
 20
38.345463
 30
0.0
 10
47.746951
 20
38.751641
 30
0.0
 10
47.073089
 20
39.117510
 30
0.0
 10
46.378042
 20
39.441005
 30
0.0
 10
45.664389
 20
39.721091
 30
0.0
 10
44.935234
 20
39.956218
 30
0.0
 10
44.192644
 20
40.145871
 30
0.0
 10
43.439719
 20
40.289532
 30
0.0
 10
42.679042
 20
40.386166
 30
0.0
 10
43.449538
 20
40.259044
 30
0.0
 10
44.209699
 20
40.079209
 30
0.0
 10
44.955390
 20
39.847183
 30
0.0
 10
45.683511
 20
39.564513
 30
0.0
 10
46.390443
 20
39.232233
 30
0.0
 10
47.073089
 20
38.851895
 30
0.0
 10
47.727830
 20
38.426079
 30
0.0
 10
48.351564
 20
37.956341
 30
0.0
 10
48.942228
 20
37.444745
 30
0.0
 10
49.496199
 20
36.893875
 30
0.0
 10
50.011411
 20
36.306830
 30
0.0
 10
50.485286
 20
35.686195
 30
0.0
 10
50.915233
 20
35.034555
 30
0.0
 10
51.299705
 20
34.354494
 30
0.0
 10
51.636636
 20
33.649628
 30
0.0
 10
51.923957
 20
32.923055
 30
0.0
 10
52.160117
 20
32.178399
 30
0.0
 10
52.344603
 20
31.419272
 30
0.0
 10
52.476894
 20
30.649292
 30
0.0
 10
52.555444
 20
29.872597
 30
0.0
 10
52.581796
 20
29.091764
 30
0.0
 10
52.581796
 20
28.308351
 30
0.0
 10
52.581796
 20
27.524936
 30
0.0
 10
52.581796
 20
26.741521
 30
0.0
 10
52.581796
 20
25.958624
 30
0.0
 10
52.581796
 20
25.175208
 30
0.0
 10
52.581796
 20
24.391277
 30
0.0
 10
52.581796
 20
23.607862
 30
0.0
 10
52.581796
 20
22.824446
 30
0.0
 10
52.581796
 20
22.041033
 30
0.0
 10
52.581796
 20
21.257618
 30
0.0
 10
52.581796
 20
20.474203
 30
0.0
 10
52.581796
 20
19.690790
 30
0.0
 10
52.581796
 20
18.907890
 30
0.0
 10
52.581796
 20
18.124475
 30
0.0
 10
52.581796
 20
17.340544
 30
0.0
 10
52.581796
 20
16.557128
 30
0.0
 10
52.581796
 20
15.773716
 30
0.0
 10
52.581796
 20
14.990300
 30
0.0
 10
52.551306
 20
14.213602
 30
0.0
 10
52.468623
 20
13.440524
 30
0.0
 10
52.334265
 20
12.675196
 30
0.0
 10
52.148229
 20
11.920202
 30
0.0
 10
51.911551
 20
11.179681
 30
0.0
 10
51.624748
 20
10.457244
 30
0.0
 10
51.289368
 20
9.755476
 30
0.0
 10
50.907479
 20
9.078516
 30
0.0
 10
50.481147
 20
8.428427
 30
0.0
 10
50.011409
 20
7.809341
 30
0.0
 10
49.500845
 20
7.222816
 30
0.0
 10
48.952559
 20
6.672461
 30
0.0
 10
48.367582
 20
6.159831
 30
0.0
 10
47.749015
 20
5.688542
 30
0.0
 10
47.099958
 20
5.260144
 30
0.0
 10
46.423513
 20
4.876705
 30
0.0
 10
45.722264
 20
4.540808
 30
0.0
 10
44.999311
 20
4.254003
 30
0.0
 10
44.258787
 20
4.017844
 30
0.0
 10
43.503796
 20
3.833358
 30
0.0
 10
42.737433
 20
3.701582
 30
0.0
 10
41.964355
 20
3.622519
 30
0.0
 10
41.187142
 20
3.596167
 30
0.0
 10
40.460053
 20
3.596167
 30
0.0
 10
39.732449
 20
3.596167
 30
0.0
 10
39.005363
 20
3.596167
 30
0.0
 10
38.277759
 20
3.596167
 30
0.0
  0
LWPOLYLINE
  5
112
100
AcDbEntity
  8
0
 62
7
100
AcDbPolyline
 90
4
 70
1
 10
38.092768
 20
3.596164
 30
0.0
 10
38.092768
 20
0.000000
 30
0.0
 10
38.140308
 20
0.000000
 30
0.0
 10
38.140308
 20
3.596164
 30
0.0
  0
LWPOLYLINE
  5
113
100
AcDbEntity
  8
0
 62
7
100
AcDbPolyline
 90
143
 70
1
 10
33.271356
 20
40.401670
 30
0.0
 10
32.501376
 20
40.315887
 30
0.0
 10
31.738116
 20
40.182045
 30
0.0
 10
30.984673
 20
40.001178
 30
0.0
 10
30.244149
 20
39.773801
 30
0.0
 10
29.519130
 20
39.500433
 30
0.0
 10
28.812713
 20
39.182105
 30
0.0
 10
28.126966
 20
38.820888
 30
0.0
 10
27.464992
 20
38.417295
 30
0.0
 10
26.829370
 20
37.973912
 30
0.0
 10
26.222690
 20
37.492285
 30
0.0
 10
25.646498
 20
36.973972
 30
0.0
 10
25.103378
 20
36.421551
 30
0.0
 10
24.595399
 20
35.836057
 30
0.0
 10
24.124627
 20
35.221107
 30
0.0
 10
23.692095
 20
34.577736
 30
0.0
 10
23.300904
 20
33.909044
 30
0.0
 10
22.952088
 20
33.217095
 30
0.0
 10
22.647197
 20
32.504477
 30
0.0
 10
22.387265
 20
31.774290
 30
0.0
 10
22.173325
 20
31.029631
 30
0.0
 10
22.006926
 20
30.272573
 30
0.0
 10
21.888070
 20
29.506726
 30
0.0
 10
21.816757
 20
28.735198
 30
0.0
 10
21.792987
 20
27.960567
 30
0.0
 10
21.792987
 20
27.186973
 30
0.0
 10
21.792987
 20
26.412858
 30
0.0
 10
21.792987
 20
25.639264
 30
0.0
 10
21.792987
 20
24.865151
 30
0.0
 10
21.792987
 20
24.091554
 30
0.0
 10
21.792987
 20
23.317958
 30
0.0
 10
21.792987
 20
22.544361
 30
0.0
 10
21.792987
 20
21.770764
 30
0.0
 10
21.792987
 20
20.997170
 30
0.0
 10
21.792987
 20
20.223055
 30
0.0
 10
21.792987
 20
19.449461
 30
0.0
 10
21.792987
 20
18.675345
 30
0.0
 10
21.792987
 20
17.901751
 30
0.0
 10
21.792987
 20
17.127639
 30
0.0
 10
21.792987
 20
16.354042
 30
0.0
 10
21.792987
 20
15.580445
 30
0.0
 10
21.792987
 20
14.806849
 30
0.0
 10
21.792987
 20
14.033252
 30
0.0
 10
21.792987
 20
13.258623
 30
0.0
 10
21.792987
 20
12.485027
 30
0.0
 10
21.817276
 20
11.701095
 30
0.0
 10
21.890656
 20
10.920265
 30
0.0
 10
22.012613
 20
10.145634
 30
0.0
 10
22.183662
 20
9.379789
 30
0.0
 10
22.402770
 20
8.626864
 30
0.0
 10
22.668903
 20
7.888925
 30
0.0
 10
22.981029
 20
7.169590
 30
0.0
 10
23.337596
 20
6.470923
 30
0.0
 10
23.738089
 20
5.796545
 30
0.0
 10
24.179406
 20
5.148006
 30
0.0
 10
24.660513
 20
4.528923
 30
0.0
 10
25.179345
 20
3.940329
 30
0.0
 10
25.733833
 20
3.385841
 30
0.0
 10
26.321911
 20
2.866491
 30
0.0
 10
26.940995
 20
2.385383
 30
0.0
 10
27.589017
 20
1.943550
 30
0.0
 10
28.263911
 20
1.543574
 30
0.0
 10
28.962059
 20
1.186492
 30
0.0
 10
29.681911
 20
0.874366
 30
0.0
 10
30.419334
 20
0.608232
 30
0.0
 10
31.172778
 20
0.389641
 30
0.0
 10
31.938622
 20
0.219107
 30
0.0
 10
32.713251
 20
0.097152
 30
0.0
 10
33.494600
 20
0.024289
 30
0.0
 10
34.278015
 20
0.000000
 30
0.0
 10
34.997351
 20
0.000000
 30
0.0
 10
35.716687
 20
0.000000
 30
0.0
 10
36.436023
 20
0.000000
 30
0.0
 10
37.155359
 20
0.000000
 30
0.0
 10
37.874695
 20
0.000000
 30
0.0
 10
38.092770
 20
0.000000
 30
0.0
 10
38.092770
 20
3.596164
 30
0.0
 10
37.550683
 20
3.596164
 30
0.0
 10
36.823079
 20
3.596164
 30
0.0
 10
36.095991
 20
3.596164
 30
0.0
 10
35.368903
 20
3.596164
 30
0.0
 10
34.641817
 20
3.596164
 30
0.0
 10
33.864085
 20
3.622014
 30
0.0
 10
33.089972
 20
3.700563
 30
0.0
 10
32.322061
 20
3.831304
 30
0.0
 10
31.565517
 20
4.014756
 30
0.0
 10
30.823446
 20
4.249367
 30
0.0
 10
30.098942
 20
4.534104
 30
0.0
 10
29.396143
 20
4.868450
 30
0.0
 10
28.717629
 20
5.249823
 30
0.0
 10
28.067024
 20
5.677186
 30
0.0
 10
27.447423
 20
6.147443
 30
0.0
 10
26.860895
 20
6.659039
 30
0.0
 10
26.310542
 20
7.209393
 30
0.0
 10
25.798428
 20
7.795919
 30
0.0
 10
25.328173
 20
8.415520
 30
0.0
 10
24.901325
 20
9.066126
 30
0.0
 10
24.519436
 20
9.744639
 30
0.0
 10
24.185090
 20
10.447954
 30
0.0
 10
23.899836
 20
11.172458
 30
0.0
 10
23.665225
 20
11.914532
 30
0.0
 10
23.482290
 20
12.671074
 30
0.0
 10
23.351549
 20
13.438471
 30
0.0
 10
23.273001
 20
14.212584
 30
0.0
 10
23.247162
 20
14.990313
 30
0.0
 10
23.247162
 20
15.773729
 30
0.0
 10
23.247162
 20
16.557142
 30
0.0
 10
23.247162
 20
17.340557
 30
0.0
 10
23.247162
 20
18.123456
 30
0.0
 10
23.247162
 20
18.906869
 30
0.0
 10
23.247162
 20
19.690803
 30
0.0
 10
23.247162
 20
20.474216
 30
0.0
 10
23.247162
 20
21.257631
 30
0.0
 10
23.247162
 20
22.041047
 30
0.0
 10
23.247162
 20
22.824459
 30
0.0
 10
23.247162
 20
23.607875
 30
0.0
 10
23.247162
 20
24.391290
 30
0.0
 10
23.247162
 20
25.174187
 30
0.0
 10
23.247162
 20
25.957603
 30
0.0
 10
23.247162
 20
26.741534
 30
0.0
 10
23.247162
 20
27.524949
 30
0.0
 10
23.247162
 20
28.308365
 30
0.0
 10
23.247162
 20
29.091777
 30
0.0
 10
23.273517
 20
29.878294
 30
0.0
 10
23.354132
 20
30.661193
 30
0.0
 10
23.487457
 20
31.436338
 30
0.0
 10
23.675043
 20
32.200632
 30
0.0
 10
23.914821
 20
32.950458
 30
0.0
 10
24.206276
 20
33.681163
 30
0.0
 10
24.547858
 20
34.390681
 30
0.0
 10
24.937498
 20
35.073843
 30
0.0
 10
25.373647
 20
35.728583
 30
0.0
 10
25.854238
 20
36.351802
 30
0.0
 10
26.376687
 20
36.940912
 30
0.0
 10
26.937893
 20
37.492299
 30
0.0
 10
27.535790
 20
38.003897
 30
0.0
 10
28.167793
 20
38.472601
 30
0.0
 10
28.830801
 20
38.896866
 30
0.0
 10
29.520681
 20
39.274619
 30
0.0
 10
30.235882
 20
39.603282
 30
0.0
 10
30.972273
 20
39.881301
 30
0.0
 10
31.726232
 20
40.108160
 30
0.0
 10
32.493627
 20
40.281277
 30
0.0
  0
LWPOLYLINE
  5
114
100
AcDbEntity
  8
0
 62
7
100
AcDbPolyline
 90
2
 70
0
 10
21.994844
 20
5.373893
 30
0.0
 10
21.994844
 20
2.303101
 30
0.0
  0
LWPOLYLINE
  5
115
100
AcDbEntity
  8
0
 62
7
100
AcDbPolyline
 90
2
 70
0
 10
15.934055
 20
5.373893
 30
0.0
 10
15.934055
 20
2.303101
 30
0.0
  0
LWPOLYLINE
  5
116
100
AcDbEntity
  8
0
 62
7
100
AcDbPolyline
 90
2
 70
0
 10
9.873263
 20
5.373893
 30
0.0
 10
9.873263
 20
2.303101
 30
0.0
  0
LWPOLYLINE
  5
117
100
AcDbEntity
  8
0
 62
7
100
AcDbPolyline
 90
2
 70
0
 10
66.440633
 20
5.373893
 30
0.0
 10
66.440633
 20
2.303101
 30
0.0
  0
LWPOLYLINE
  5
118
100
AcDbEntity
  8
0
 62
7
100
AcDbPolyline
 90
2
 70
0
 10
60.379843
 20
5.373893
 30
0.0
 10
60.379843
 20
2.303101
 30
0.0
  0
LWPOLYLINE
  5
119
100
AcDbEntity
  8
0
 62
7
100
AcDbPolyline
 90
2
 70
0
 10
54.319054
 20
5.373893
 30
0.0
 10
54.319054
 20
2.303101
 30
0.0
  0
ENDSEC
  0
SECTION
  2
OBJECTS
  0
DICTIONARY
  5
C
330
0
100
AcDbDictionary
  3
ACAD_GROUP
350
D
  3
ACAD_MLINESTYLE
350
17
  0
DICTIONARY
  5
D
330
C
100
AcDbDictionary
  0
DICTIONARY
  5
1A
330
C
100
AcDbDictionary
  0
DICTIONARY
  5
17
330
C
100
AcDbDictionary
  3
STANDARD
350
18
  0
DICTIONARY
  5
19
330
C
100
AcDbDictionary
  0
ENDSEC
  0
EOF
