  0
SECTION
  2
HEADER
  9
$ACADVER
  1
AC1014
  9
$HANDSEED
  5
FFFF
  9
$MEASUREMENT
 70
     1
  0
ENDSEC
  0
SECTION
  2
TABLES
  0
TABLE
  2
VPORT
  5
8
330
0
100
AcDbSymbolTable
 70
     4
  0
VPORT
  5
2E
330
8
100
AcDbSymbolTableRecord
100
AcDbViewportTableRecord
  2
*ACTIVE
 70
     0
 10
0.0
 20
0.0
 11
1.0
 21
1.0
 12
210.0
 22
148.5
 13
0.0
 23
0.0
 14
10.0
 24
10.0
 15
10.0
 25
10.0
 16
0.0
 26
0.0
 36
1.0
 17
0.0
 27
0.0
 37
0.0
 40
341.0
 41
1.24
 42
50.0
 43
0.0
 44
0.0
 50
0.0
 51
0.0
 71
     0
 72
   100
 73
     1
 74
     3
 75
     0
 76
     0
 77
     0
 78
     0
  0
ENDTAB
  0
TABLE
  2
LTYPE
  5
5
330
0
100
AcDbSymbolTable
 70
     1
  0
LTYPE
  5
14
330
5
100
AcDbSymbolTableRecord
100
AcDbLinetypeTableRecord
  2
BYBLOCK
 70
     0
  3

 72
    65
 73
     0
 40
0.0
  0
LTYPE
  5
15
330
5
100
AcDbSymbolTableRecord
100
AcDbLinetypeTableRecord
  2
BYLAYER
 70
     0
  3

 72
    65
 73
     0
 40
0.0
  0
LTYPE
  5
16
330
5
100
AcDbSymbolTableRecord
100
AcDbLinetypeTableRecord
  2
CONTINUOUS
 70
     0
  3
Solid line
 72
    65
 73
     0
 40
0.0
  0
ENDTAB
  0
TABLE
  2
LAYER
  5
2
100
AcDbSymbolTable
 70
1
  0
LAYER
  5
50
100
AcDbSymbolTableRecord
100
AcDbLayerTableRecord
  2
0
 70
0
  6
CONTINUOUS
  0
ENDTAB
  0
TABLE
  2
STYLE
  5
3
330
0
100
AcDbSymbolTable
 70
     1
  0
STYLE
  5
11
330
3
100
AcDbSymbolTableRecord
100
AcDbTextStyleTableRecord
  2
STANDARD
 70
     0
 40
0.0
 41
1.0
 50
0.0
 71
     0
 42
2.5
  3
txt
  4

  0
ENDTAB
  0
TABLE
  2
VIEW
  5
6
330
0
100
AcDbSymbolTable
 70
     0
  0
ENDTAB
  0
TABLE
  2
UCS
  5
7
330
0
100
AcDbSymbolTable
 70
     0
  0
ENDTAB
  0
TABLE
  2
APPID
  5
9
330
0
100
AcDbSymbolTable
 70
     2
  0
APPID
  5
12
330
9
100
AcDbSymbolTableRecord
100
AcDbRegAppTableRecord
  2
ACAD
 70
     0
  0
ENDTAB
  0
TABLE
  2
DIMSTYLE
  5
A
330
0
100
AcDbSymbolTable
 70
     1
  0
DIMSTYLE
105
27
330
A
100
AcDbSymbolTableRecord
100
AcDbDimStyleTableRecord
  2
ISO-25
 70
     0
  3

  4

  5

  6

  7

 40
1.0
 41
2.5
 42
0.625
 43
3.75
 44
1.25
 45
0.0
 46
0.0
 47
0.0
 48
0.0
140
2.5
141
2.5
142
0.0
143
0.03937007874016
144
1.0
145
0.0
146
1.0
147
0.625
 71
     0
 72
     0
 73
     0
 74
     0
 75
     0
 76
     0
 77
     1
 78
     8
170
     0
171
     3
172
     1
173
     0
174
     0
175
     0
176
     0
177
     0
178
     0
270
     2
271
     2
272
     2
273
     2
274
     3
340
11
275
     0
280
     0
281
     0
282
     0
283
     0
284
     8
285
     0
286
     0
287
     3
288
     0
  0
ENDTAB
  0
TABLE
  2
BLOCK_RECORD
  5
1
330
0
100
AcDbSymbolTable
 70
     1
  0
BLOCK_RECORD
  5
1F
330
1
100
AcDbSymbolTableRecord
100
AcDbBlockTableRecord
  2
*MODEL_SPACE
  0
BLOCK_RECORD
  5
1B
330
1
100
AcDbSymbolTableRecord
100
AcDbBlockTableRecord
  2
*PAPER_SPACE
  0
ENDTAB
  0
ENDSEC
  0
SECTION
  2
BLOCKS
  0
BLOCK
  5
20
330
1F
100
AcDbEntity
  8
0
100
AcDbBlockBegin
  2
*MODEL_SPACE
 70
     0
 10
0.0
 20
0.0
 30
0.0
  3
*MODEL_SPACE
  1

  0
ENDBLK
  5
21
330
1F
100
AcDbEntity
  8
0
100
AcDbBlockEnd
  0
BLOCK
  5
1C
330
1B
100
AcDbEntity
 67
     1
  8
0
100
AcDbBlockBegin
  2
*PAPER_SPACE
  1

  0
ENDBLK
  5
1D
330
1B
100
AcDbEntity
 67
     1
  8
0
100
AcDbBlockEnd
  0
ENDSEC
  0
SECTION
  2
ENTITIES
  0
LWPOLYLINE
  5
100
100
AcDbEntity
  8
0
 62
7
100
AcDbPolyline
 90
81
 70
1
 10
0.759358
 20
3.825774
 30
0.0
 10
0.729274
 20
3.824608
 30
0.0
 10
0.699377
 20
3.821099
 30
0.0
 10
0.669847
 20
3.815247
 30
0.0
 10
0.640874
 20
3.807080
 30
0.0
 10
0.612630
 20
3.796643
 30
0.0
 10
0.585306
 20
3.784012
 30
0.0
 10
0.559053
 20
3.769267
 30
0.0
 10
0.534046
 20
3.752515
 30
0.0
 10
0.510429
 20
3.733865
 30
0.0
 10
0.488328
 20
3.713422
 30
0.0
 10
0.467892
 20
3.691327
 30
0.0
 10
0.449236
 20
3.667702
 30
0.0
 10
0.432487
 20
3.642697
 30
0.0
 10
0.417745
 20
3.616451
 30
0.0
 10
0.405111
 20
3.589116
 30
0.0
 10
0.394676
 20
3.560876
 30
0.0
 10
0.386509
 20
3.531899
 30
0.0
 10
0.380659
 20
3.502376
 30
0.0
 10
0.377150
 20
3.472476
 30
0.0
 10
0.375985
 20
3.442401
 30
0.0
 10
0.377151
 20
3.412317
 30
0.0
 10
0.380660
 20
3.382420
 30
0.0
 10
0.386512
 20
3.352891
 30
0.0
 10
0.394679
 20
3.323917
 30
0.0
 10
0.405116
 20
3.295673
 30
0.0
 10
0.417747
 20
3.268349
 30
0.0
 10
0.432492
 20
3.242096
 30
0.0
 10
0.449244
 20
3.217089
 30
0.0
 10
0.467894
 20
3.193472
 30
0.0
 10
0.488336
 20
3.171371
 30
0.0
 10
0.510432
 20
3.150935
 30
0.0
 10
0.534057
 20
3.132279
 30
0.0
 10
0.559062
 20
3.115530
 30
0.0
 10
0.585308
 20
3.100788
 30
0.0
 10
0.612643
 20
3.088154
 30
0.0
 10
0.640883
 20
3.077720
 30
0.0
 10
0.669860
 20
3.069552
 30
0.0
 10
0.699383
 20
3.063702
 30
0.0
 10
0.729283
 20
3.060193
 30
0.0
 10
0.759358
 20
3.059028
 30
0.0
 10
0.789442
 20
3.060194
 30
0.0
 10
0.819339
 20
3.063703
 30
0.0
 10
0.848868
 20
3.069555
 30
0.0
 10
0.877842
 20
3.077722
 30
0.0
 10
0.906086
 20
3.088159
 30
0.0
 10
0.933410
 20
3.100790
 30
0.0
 10
0.959663
 20
3.115535
 30
0.0
 10
0.984670
 20
3.132287
 30
0.0
 10
1.008286
 20
3.150937
 30
0.0
 10
1.030387
 20
3.171380
 30
0.0
 10
1.050824
 20
3.193475
 30
0.0
 10
1.069480
 20
3.217101
 30
0.0
 10
1.086229
 20
3.242105
 30
0.0
 10
1.100971
 20
3.268351
 30
0.0
 10
1.113605
 20
3.295686
 30
0.0
 10
1.124039
 20
3.323926
 30
0.0
 10
1.132207
 20
3.352904
 30
0.0
 10
1.138057
 20
3.382426
 30
0.0
 10
1.141566
 20
3.412326
 30
0.0
 10
1.142731
 20
3.442401
 30
0.0
 10
1.141770
 20
3.472504
 30
0.0
 10
1.138423
 20
3.502435
 30
0.0
 10
1.132688
 20
3.532009
 30
0.0
 10
1.124592
 20
3.561034
 30
0.0
 10
1.114188
 20
3.589318
 30
0.0
 10
1.101558
 20
3.616671
 30
0.0
 10
1.086791
 20
3.642931
 30
0.0
 10
1.069989
 20
3.667947
 30
0.0
 10
1.051271
 20
3.691563
 30
0.0
 10
1.030763
 20
3.713642
 30
0.0
 10
1.008595
 20
3.734053
 30
0.0
 10
0.984906
 20
3.752672
 30
0.0
 10
0.959838
 20
3.769389
 30
0.0
 10
0.933554
 20
3.784089
 30
0.0
 10
0.906192
 20
3.796689
 30
0.0
 10
0.877933
 20
3.807098
 30
0.0
 10
0.848934
 20
3.815252
 30
0.0
 10
0.819389
 20
3.821097
 30
0.0
 10
0.789466
 20
3.824607
 30
0.0
 10
0.759357
 20
3.825774
 30
0.0
  0
LWPOLYLINE
  5
101
100
AcDbEntity
  8
0
 62
7
100
AcDbPolyline
 90
81
 70
1
 10
2.222856
 20
3.825774
 30
0.0
 10
2.192771
 20
3.824608
 30
0.0
 10
2.162875
 20
3.821099
 30
0.0
 10
2.133345
 20
3.815247
 30
0.0
 10
2.104372
 20
3.807080
 30
0.0
 10
2.076127
 20
3.796643
 30
0.0
 10
2.048803
 20
3.784012
 30
0.0
 10
2.022551
 20
3.769267
 30
0.0
 10
1.997544
 20
3.752515
 30
0.0
 10
1.973927
 20
3.733865
 30
0.0
 10
1.951826
 20
3.713422
 30
0.0
 10
1.931390
 20
3.691327
 30
0.0
 10
1.912734
 20
3.667702
 30
0.0
 10
1.895984
 20
3.642697
 30
0.0
 10
1.881243
 20
3.616451
 30
0.0
 10
1.868608
 20
3.589116
 30
0.0
 10
1.858174
 20
3.560876
 30
0.0
 10
1.850006
 20
3.531899
 30
0.0
 10
1.844157
 20
3.502376
 30
0.0
 10
1.840648
 20
3.472476
 30
0.0
 10
1.839483
 20
3.442401
 30
0.0
 10
1.840649
 20
3.412317
 30
0.0
 10
1.844158
 20
3.382420
 30
0.0
 10
1.850009
 20
3.352891
 30
0.0
 10
1.858177
 20
3.323917
 30
0.0
 10
1.868614
 20
3.295673
 30
0.0
 10
1.881244
 20
3.268349
 30
0.0
 10
1.895990
 20
3.242096
 30
0.0
 10
1.912742
 20
3.217089
 30
0.0
 10
1.931392
 20
3.193472
 30
0.0
 10
1.951834
 20
3.171371
 30
0.0
 10
1.973930
 20
3.150935
 30
0.0
 10
1.997555
 20
3.132279
 30
0.0
 10
2.022560
 20
3.115530
 30
0.0
 10
2.048806
 20
3.100788
 30
0.0
 10
2.076141
 20
3.088154
 30
0.0
 10
2.104381
 20
3.077720
 30
0.0
 10
2.133358
 20
3.069552
 30
0.0
 10
2.162881
 20
3.063702
 30
0.0
 10
2.192781
 20
3.060193
 30
0.0
 10
2.222856
 20
3.059028
 30
0.0
 10
2.252940
 20
3.060194
 30
0.0
 10
2.282836
 20
3.063703
 30
0.0
 10
2.312366
 20
3.069555
 30
0.0
 10
2.341339
 20
3.077722
 30
0.0
 10
2.369584
 20
3.088159
 30
0.0
 10
2.396908
 20
3.100790
 30
0.0
 10
2.423161
 20
3.115535
 30
0.0
 10
2.448167
 20
3.132287
 30
0.0
 10
2.471784
 20
3.150937
 30
0.0
 10
2.493885
 20
3.171380
 30
0.0
 10
2.514322
 20
3.193475
 30
0.0
 10
2.532977
 20
3.217101
 30
0.0
 10
2.549727
 20
3.242105
 30
0.0
 10
2.564468
 20
3.268351
 30
0.0
 10
2.577103
 20
3.295686
 30
0.0
 10
2.587537
 20
3.323926
 30
0.0
 10
2.595705
 20
3.352904
 30
0.0
 10
2.601554
 20
3.382426
 30
0.0
 10
2.605063
 20
3.412326
 30
0.0
 10
2.606228
 20
3.442401
 30
0.0
 10
2.605268
 20
3.472504
 30
0.0
 10
2.601921
 20
3.502435
 30
0.0
 10
2.596186
 20
3.532009
 30
0.0
 10
2.588089
 20
3.561034
 30
0.0
 10
2.577686
 20
3.589318
 30
0.0
 10
2.565056
 20
3.616671
 30
0.0
 10
2.550289
 20
3.642931
 30
0.0
 10
2.533486
 20
3.667947
 30
0.0
 10
2.514769
 20
3.691563
 30
0.0
 10
2.494261
 20
3.713642
 30
0.0
 10
2.472092
 20
3.734053
 30
0.0
 10
2.448404
 20
3.752672
 30
0.0
 10
2.423336
 20
3.769389
 30
0.0
 10
2.397051
 20
3.784089
 30
0.0
 10
2.369690
 20
3.796689
 30
0.0
 10
2.341431
 20
3.807098
 30
0.0
 10
2.312432
 20
3.815252
 30
0.0
 10
2.282887
 20
3.821097
 30
0.0
 10
2.252963
 20
3.824607
 30
0.0
 10
2.222855
 20
3.825774
 30
0.0
  0
ENDSEC
  0
SECTION
  2
OBJECTS
  0
DICTIONARY
  5
C
330
0
100
AcDbDictionary
  3
ACAD_GROUP
350
D
  3
ACAD_MLINESTYLE
350
17
  0
DICTIONARY
  5
D
330
C
100
AcDbDictionary
  0
DICTIONARY
  5
1A
330
C
100
AcDbDictionary
  0
DICTIONARY
  5
17
330
C
100
AcDbDictionary
  3
STANDARD
350
18
  0
DICTIONARY
  5
19
330
C
100
AcDbDictionary
  0
ENDSEC
  0
EOF
