<?xml version="1.0" encoding="UTF-8" standalone="no"?>
<!-- Generator: Adobe Illustrator 21.0.2, SVG Export Plug-In . SVG Version: 6.00 Build 0)  -->

<svg
   xmlns:dc="http://purl.org/dc/elements/1.1/"
   xmlns:cc="http://creativecommons.org/ns#"
   xmlns:rdf="http://www.w3.org/1999/02/22-rdf-syntax-ns#"
   xmlns:svg="http://www.w3.org/2000/svg"
   xmlns="http://www.w3.org/2000/svg"
   xmlns:sodipodi="http://sodipodi.sourceforge.net/DTD/sodipodi-0.dtd"
   xmlns:inkscape="http://www.inkscape.org/namespaces/inkscape"
   version="1.1"
   x="0px"
   y="0px"
   viewBox="0 0 286.44519 479.99998"
   xml:space="preserve"
   id="svg2236"
   sodipodi:docname="meow_v4_redfill2.svg"
   width="286.44519"
   height="480"
   inkscape:version="0.92.3 (2405546, 2018-03-11)"><sodipodi:namedview
   pagecolor="#ffffff"
   bordercolor="#666666"
   borderopacity="1"
   objecttolerance="10"
   gridtolerance="10"
   guidetolerance="10"
   inkscape:pageopacity="0"
   inkscape:pageshadow="2"
   inkscape:window-width="1920"
   inkscape:window-height="1003"
   id="namedview2238"
   showgrid="false"
   inkscape:pagecheckerboard="true"
   fit-margin-top="0"
   fit-margin-left="0"
   fit-margin-right="0"
   fit-margin-bottom="0"
   inkscape:zoom="1.3874191"
   inkscape:cx="-47.178471"
   inkscape:cy="185.22712"
   inkscape:window-x="-9"
   inkscape:window-y="-9"
   inkscape:window-maximized="1"
   inkscape:current-layer="svg2236"><inkscape:grid
     type="xygrid"
     id="grid2787"
     originx="-27.864413"
     originy="-1.1999882" /></sodipodi:namedview><metadata
   id="metadata2242"><rdf:RDF><cc:Work
       rdf:about=""><dc:format>image/svg+xml</dc:format><dc:type
         rdf:resource="http://purl.org/dc/dcmitype/StillImage" /><dc:title></dc:title></cc:Work></rdf:RDF></metadata><defs
   id="defs2240">
	
	
	
	
	
	
	
	
	
	
	
	
	
	
	
	
	
	
	
	
	
	
	
	
	
	
	
	
	
	

		
		
	</defs>
<style
   type="text/css"
   id="style2062">
	.st0{fill:#EFEFEF;}
	.st1{fill:#F16B6C;}
	.st2{fill:#FFFFFF;}
	.st3{fill:none;stroke:#F16B6C;stroke-width:4.5536;stroke-linecap:round;stroke-miterlimit:10;}
	.st4{fill:#FFCC00;}
</style>
<g
   id="svg8"
   inkscape:export-filename="C:\Users\dash\Documents\GitHub\defcon26-meow\art\meow_v1.png"
   inkscape:export-xdpi="96"
   inkscape:export-ydpi="96"
   inkscape:version="0.92.1 r15371"
   sodipodi:docname="meow_v3.svg"
   transform="translate(-27.864413,141)"
   style="fill:#000000;stroke:#000000;stroke-opacity:1;fill-opacity:1">
	
		<sodipodi:namedview
   bordercolor="#666666"
   borderopacity="1.0"
   id="base"
   inkscape:current-layer="layer12"
   inkscape:cx="62.544425"
   inkscape:cy="233.65003"
   inkscape:document-units="cm"
   inkscape:guide-bbox="true"
   inkscape:lockguides="false"
   inkscape:object-nodes="false"
   inkscape:object-paths="false"
   inkscape:pagecheckerboard="true"
   inkscape:pageopacity="0.0"
   inkscape:pageshadow="2"
   inkscape:snap-intersection-paths="false"
   inkscape:snap-nodes="false"
   inkscape:snap-smooth-nodes="false"
   inkscape:snap-to-guides="true"
   inkscape:window-height="1048"
   inkscape:window-maximized="1"
   inkscape:window-width="1735"
   inkscape:window-x="1921"
   inkscape:window-y="0"
   inkscape:zoom="1.4142136"
   objecttolerance="10000"
   pagecolor="#ffffff"
   showgrid="false"
   showguides="false"
   units="cm">
		<sodipodi:guide
   id="guide4491"
   inkscape:locked="false"
   orientation="1,0"
   position="70.114584,301.625" />
		<sodipodi:guide
   id="guide4493"
   inkscape:locked="false"
   orientation="1,0"
   position="129.81167,326.09462" />
		<inkscape:grid
   id="grid4495"
   type="xygrid" />
		<sodipodi:guide
   id="guide4499"
   inkscape:locked="false"
   orientation="0,1"
   position="-19.84375,260.04762" />
		<sodipodi:guide
   id="guide4501"
   inkscape:locked="false"
   orientation="0,1"
   position="-20.032738,179.91667" />
		<sodipodi:guide
   id="guide4503"
   inkscape:locked="false"
   orientation="0,1"
   position="-16.630952,270.06399" />
		<sodipodi:guide
   id="guide4512"
   inkscape:locked="false"
   orientation="0,1"
   position="-19.465774,219.98214" />
		<sodipodi:guide
   id="guide4514"
   inkscape:locked="false"
   orientation="-0.82575936,0.56402259"
   position="60.098215,179.91667">
			</sodipodi:guide>
		<sodipodi:guide
   id="guide4518"
   inkscape:locked="false"
   orientation="-0.82575936,-0.56402259"
   position="140.07024,179.91667">
			</sodipodi:guide>
		<sodipodi:guide
   id="guide4520"
   inkscape:locked="false"
   orientation="1,0"
   position="79.941963,226.97471" />
		<sodipodi:guide
   id="guide4522"
   inkscape:locked="false"
   orientation="1,0"
   position="119.93731,202.36411" />
		<sodipodi:guide
   id="guide4541"
   inkscape:locked="false"
   orientation="1,0"
   position="124.99885,314.20012" />
		<sodipodi:guide
   id="guide4543"
   inkscape:locked="false"
   orientation="1,0"
   position="74.835466,302.68275" />
		<sodipodi:guide
   id="guide4584"
   inkscape:locked="false"
   orientation="0,1"
   position="83.871844,297.00001" />
		<sodipodi:guide
   id="guide4586"
   inkscape:locked="false"
   orientation="0,1"
   position="44.675444,230.00027" />
		<sodipodi:guide
   id="guide4588"
   inkscape:locked="false"
   orientation="0,1"
   position="70.109929,209.50604" />
		<sodipodi:guide
   id="guide4590"
   inkscape:locked="false"
   orientation="0,1"
   position="63.219967,249.92962" />
		<sodipodi:guide
   id="guide4592"
   inkscape:locked="false"
   orientation="0,1"
   position="59.968654,242.10238" />
		<sodipodi:guide
   id="guide4594"
   inkscape:locked="false"
   orientation="1,0"
   position="88.033508,219.98214" />
		<sodipodi:guide
   id="guide4596"
   inkscape:locked="false"
   orientation="1,0"
   position="111.92945,245.11286" />
		<sodipodi:guide
   id="guide4598"
   inkscape:locked="false"
   orientation="1,0"
   position="93.926808,245.11286" />
		<sodipodi:guide
   id="guide4600"
   inkscape:locked="false"
   orientation="1,0"
   position="106.08913,212.41909" />
		<sodipodi:guide
   id="guide4612"
   inkscape:locked="false"
   orientation="0,1"
   position="88.026276,238.4296" />
		<sodipodi:guide
   id="guide4614"
   inkscape:locked="false"
   orientation="0,1"
   position="85.076013,233.9741" />
		<sodipodi:guide
   id="guide4669"
   inkscape:locked="false"
   orientation="0.59697004,0.80226353"
   position="91.879688,214.3759">
			</sodipodi:guide>
		<sodipodi:guide
   id="guide4692"
   inkscape:locked="false"
   orientation="1,0"
   position="100.00044,239.56605" />
		<sodipodi:guide
   id="guide4725"
   inkscape:locked="false"
   orientation="0,1"
   position="63.761852,190.02117" />
		<sodipodi:guide
   id="guide4727"
   inkscape:locked="false"
   orientation="0,1"
   position="84.297592,194.9914" />
	</sodipodi:namedview>
</g>
<path
   style="fill:#000000;stroke-width:1.52712798;stroke:#000000;stroke-opacity:1;fill-opacity:1"
   d="m 144.24219,259.33008 v 10.125 l 2.13672,0.12695 2.88476,0.52539 2.80078,0.87305 2.67383,1.20508 2.50781,1.51953 2.3086,1.81054 2.07226,2.07227 1.81055,2.30859 1.51953,2.50782 1.20313,2.67382 0.87304,2.79883 0.52539,2.88477 0.17383,2.92773 -0.11133,2.26172 -0.32226,2.24219 -0.5293,2.20117 -0.73242,2.14453 2.9082,-0.62695 2.89258,-0.70313 2.87305,-0.77734 2.85156,-0.85156 2.82812,-0.92383 2.80469,-0.99609 2.77735,-1.06836 2.75,-1.13868 2.71679,-1.21093 2.6875,-1.2793 2.65235,-1.34961 2.61718,-1.41601 2.58008,-1.48438 2.54102,-1.55078 2.5,-1.61328 2.45703,-1.67969 2.41406,-1.74023 2.36719,-1.80274 2.32031,-1.86328 2.27149,-1.92187 2.2207,-1.98047 2.16992,-2.03711 2.11524,-2.0918 2.0625,-2.14648 2.00586,-2.19922 1.94726,-2.24805 1.88867,-2.29883 1.83008,-2.3457 1.76758,-2.39258 1.70703,-2.43945 -2.58008,0.93945 -2.61133,0.84375 -2.64257,0.74609 -2.66993,0.64844 -2.6914,0.54883 -2.70899,0.44727 -2.72265,0.34961 -2.73438,0.24804 -2.74023,0.14844 -2.7461,0.0488 h -2.97851 -2.97852 -2.97656 -2.97852 -2.97851 -2.97656 -2.97852 -2.97852 -2.97656 -2.97656 -2.97852 -2.97851 -2.97656 -2.97852 -2.97851 -2.97852 -2.97852 -2.97851 -2.97656 -2.97852 -2.97852 -2.97656 z"
   id="path8810" /><path
   style="fill:#000000;stroke-width:1.52712798;stroke:#000000;stroke-opacity:1;fill-opacity:1"
   d="m 47.84375,254.34766 1.716797,2.44726 1.78125,2.4043 1.841797,2.35547 1.902344,2.30664 1.960937,2.25781 2.017578,2.20313 2.076172,2.15429 2.130859,2.09766 2.183594,2.04101 2.236328,1.98633 2.289063,1.92578 2.335937,1.86719 2.384766,1.80469 2.429687,1.74414 2.472657,1.67969 2.517578,1.61328 2.558594,1.55078 2.595703,1.48242 2.634765,1.41406 2.667969,1.34571 2.705078,1.27539 2.736328,1.20703 2.765629,1.13281 2.79492,1.0625 2.82226,0.99024 2.84571,0.91601 2.86718,0.8418 2.89063,0.76758 2.9082,0.69336 2.92578,0.61718 -0.72461,-2.14258 -0.52343,-2.20117 -0.31641,-2.24023 -0.10547,-2.25977 0.17383,-2.92773 0.52539,-2.88477 0.87305,-2.80078 1.20508,-2.67383 1.51953,-2.50781 1.81054,-2.30859 2.07227,-2.07227 2.30859,-1.81055 2.50782,-1.51953 2.67382,-1.20312 2.79883,-0.87305 2.88477,-0.52539 2.92773,-0.17383 0.25,0.0156 v -10.09375 h -0.47851 -2.97657 -2.97851 -2.97852 -2.97851 -2.97852 -2.97851 -2.97657 -2.97851 -2.97852 -2.97656 -2.97852 -2.98046 -2.97657 -2.97851 -2.976566 -2.978515 -2.976563 -2.978515 -2.978516 -2.976563 -2.978515 -2.978516 -2.976562 l -2.75,-0.0488 -2.746094,-0.15039 -2.738281,-0.24805 -2.728516,-0.34961 -2.710937,-0.44922 -2.695313,-0.55078 -2.671875,-0.64843 -2.646484,-0.74805 -2.617188,-0.84766 z"
   id="circle2096" /><path
   style="fill:#000000;stroke-width:1.52712798;stroke:#000000;stroke-opacity:1;fill-opacity:1"
   d="m 49.4375,90.332031 1.949219,-1.210937 2.515625,-1.5625 2.513672,-1.5625 2.513672,-1.5625 2.513671,-1.5625 2.515625,-1.5625 2.513672,-1.5625 2.513672,-1.5625 2.515625,-1.5625 2.513672,-1.5625 2.515625,-1.564453 2.513672,-1.5625 2.515625,-1.5625 2.513672,-1.5625 2.515625,-1.5625 2.513672,-1.5625 2.515625,-1.5625 2.515625,-1.564453 2.515625,-1.5625 2.513671,-1.5625 -2.072265,-2.033204 -2.074219,-2.035156 -2.074219,-2.033203 -2.074218,-2.033203 -2.074219,-2.033203 -2.072266,-2.035157 -2.074218,-2.033203 -2.072266,-2.033203 -2.074219,-2.033203 -2.074219,-2.033203 -2.072265,-2.033203 -2.074219,-2.033203 -2.074219,-2.033203 -2.074219,-2.033203 -2.072265,-2.033204 -2.074219,-2.033203 -2.074219,-2.035156 -2.074218,-2.033203 -2.072266,-2.033203 -2.136719,-1.691407 -2.480468,-1.126953 -2.679688,-0.488281 -2.71875,0.16211 -0.3125,0.0957 z"
   id="path8817" /><path
   style="fill:#000000;stroke-width:1.52712798;stroke:#000000;stroke-opacity:1;fill-opacity:1"
   d="m 49.181641,17.820312 -2.039063,0.619141 -2.353516,1.373047 -1.960937,1.888672 -1.449219,2.308594 -0.855468,2.585937 -0.59961,2.847656 -0.599609,2.845703 -0.601563,2.847657 -0.599609,2.847656 -0.599609,2.847656 -0.59961,2.845703 -0.599609,2.847657 -0.59961,2.845703 -0.601562,2.847656 -0.599609,2.847656 -0.59961,2.845703 -0.599609,2.845703 -0.59961,2.847657 -0.599609,2.847656 -0.601562,2.847656 -0.59961,2.847657 -0.599609,2.845703 -0.59961,2.847656 -0.599609,2.845703 -0.599609,2.847656 -0.601563,2.845703 -0.599609,2.847657 -0.59961,2.847656 -0.599609,2.845703 -0.599609,2.847656 -0.601563,2.847659 -0.599609,2.84765 -0.59961,2.84766 2.515625,-1.56445 2.513672,-1.5625 2.515625,-1.5625 2.513672,-1.5625 2.515625,-1.562503 2.513672,-1.5625 2.515625,-1.5625 2.513672,-1.5625 2.513672,-1.5625 2.515625,-1.564453 0.310547,-0.19336 z"
   id="path8815" /><path
   style="fill:#000000;stroke-width:1.52712798;stroke:#000000;stroke-opacity:1;fill-opacity:1"
   d="m 232.14844,87.123047 0.70117,0.435547 2.51367,1.5625 2.51563,1.5625 2.51562,1.564453 2.51367,1.5625 2.51368,1.5625 2.51562,1.5625 2.51562,1.5625 2.51368,1.562503 2.51367,1.5625 2.51562,1.5625 2.51368,1.5625 2.51562,1.56445 -0.59961,-2.84766 -0.59961,-2.84765 -0.59961,-2.847659 -0.60156,-2.847656 -0.59961,-2.845703 -0.59961,-2.847656 -0.59961,-2.847657 -0.59961,-2.845703 -0.59961,-2.847656 -0.60156,-2.845703 -0.59961,-2.847656 -0.59961,-2.845703 -0.59961,-2.847657 -0.59961,-2.847656 -0.60156,-2.847656 -0.59961,-2.847657 -0.59961,-2.845703 -0.59961,-2.845703 -0.59961,-2.847656 -0.59961,-2.847656 -0.59961,-2.845703 -0.60156,-2.847657 -0.59961,-2.845703 -0.59961,-2.847656 -0.59961,-2.847656 -0.59961,-2.847657 -0.59961,-2.845703 -0.60156,-2.847656 -0.85547,-2.585937 -1.44726,-2.308594 L 241.96094,19.8125 239.60742,18.439453 237,17.648438 234.28125,17.486328 232.14844,17.875 Z"
   id="path8831" /><path
   style="fill:#000000;stroke-width:1.52712798;stroke:#000000;stroke-opacity:1;fill-opacity:1"
   d="m 231.12891,18.189453 -2.00586,0.912109 -2.13672,1.691407 -2.07422,2.033203 -2.07422,2.033203 -2.07422,2.035156 -2.07422,2.033203 -2.07226,2.033204 -2.07422,2.033203 -2.07422,2.033203 -2.07227,2.033203 -2.07421,2.033203 -2.07422,2.033203 -2.07227,2.033203 -2.07422,2.033203 -2.07226,2.033203 -2.07422,2.035157 -2.07422,2.033203 -2.07422,2.033203 -2.07422,2.033203 -2.07422,2.035156 -2.07226,2.033204 2.51562,1.5625 2.51563,1.5625 2.51367,1.564453 2.51562,1.5625 2.51368,1.5625 2.51562,1.5625 2.51367,1.5625 2.51563,1.5625 2.51562,1.5625 2.51368,1.564453 2.51562,1.5625 2.51367,1.5625 2.51563,1.5625 2.51367,1.5625 2.51367,1.5625 2.51367,1.5625 2.51367,1.5625 0.79493,0.49414 z"
   id="path8829" /><path
   style="fill:none;stroke:#000000;stroke-width:6.9539299;stroke-linecap:round;stroke-miterlimit:10;stroke-opacity:1;fill-opacity:1"
   d="m 143.14624,193.5108 -0.16283,2.94154 -0.49017,2.90539 -0.81402,2.83086 -1.12816,2.7211 -1.42742,2.57768 -1.70609,2.40052 -1.96313,2.19552 -2.19628,1.96417 -2.4007,1.70645 -2.57773,1.42762 -2.72152,1.12847 -2.83088,0.81411 -2.90529,0.49025 -2.94238,0.16292 -2.94154,-0.16283 -2.90539,-0.49017 -2.83086,-0.81402 -2.7211,-1.12816 -2.57768,-1.42742 -2.40052,-1.70609 -2.195516,-1.96313 -1.964179,-2.19628 -1.706444,-2.4007 -1.427623,-2.57773 -1.128465,-2.72152 -0.814118,-2.83088 -0.490242,-2.90529 -0.162924,-2.94238"
   id="path2158" /><path
   style="fill:none;stroke:#000000;stroke-width:6.9539299;stroke-linecap:round;stroke-miterlimit:10;stroke-opacity:1;fill-opacity:1"
   d="m 195.83216,193.5108 -0.16283,2.94154 -0.49017,2.90539 -0.81402,2.83086 -1.12816,2.7211 -1.42742,2.57768 -1.70609,2.40052 -1.96313,2.19552 -2.19628,1.96417 -2.4007,1.70645 -2.57773,1.42762 -2.72153,1.12847 -2.83087,0.81411 -2.90529,0.49025 -2.94238,0.16292 -2.94154,-0.16283 -2.90539,-0.49017 -2.83086,-0.81402 -2.7211,-1.12816 -2.57768,-1.42742 -2.40052,-1.70609 -2.19552,-1.96313 -1.96418,-2.19628 -1.70645,-2.4007 -1.42762,-2.57773 -1.12846,-2.72152 -0.81412,-2.83088 -0.49025,-2.90529 -0.16292,-2.94238"
   id="path2160" /><path
   style="fill:#000000;stroke-width:1.52712798;stroke:#000000;stroke-opacity:1;fill-opacity:1"
   d="m 142.70312,109.18945 0.74805,0.0234 2.98633,-0.0957 2.97266,-0.29102 2.94922,-0.48242 2.91015,-0.67773 2.85938,-0.86719 2.79687,-1.05469 2.71875,-1.23633 2.63477,-1.41015 2.53515,-1.58204 2.42774,-1.742182 2.30859,-1.898438 2.17969,-2.042969 2.04297,-2.179687 1.89648,-2.308594 1.74414,-2.425781 1.58008,-2.53711 1.41211,-2.632812 1.23633,-2.720703 1.05469,-2.796875 0.86718,-2.857422 0.67774,-2.910156 0.48437,-2.949219 0.28906,-2.97461 0.0977,-2.986328 v -2.673828 -2.671875 h -2.94726 -2.94532 -2.94531 -2.94727 -2.94531 -2.94531 -2.94531 -2.94531 -2.94532 -2.94726 -2.94532 -2.94726 -2.94531 -2.94532 -2.94531 -2.22266 z"
   id="path8824" /><path
   style="fill:#000000;stroke-width:1.52712798;stroke:#000000;stroke-opacity:1;fill-opacity:1"
   d="m 141.68359,58.207031 h -2.65039 -2.94531 -2.94727 -2.94531 -2.94531 -2.94531 -2.94531 -2.94727 -2.94531 -2.94532 -2.94726 -2.94727 -2.94531 -2.94531 -2.945314 v 2.671875 2.673828 l 0.0957,2.984375 0.289062,2.97461 0.484375,2.947265 0.677735,2.91211 0.867189,2.859375 1.05469,2.794922 1.23632,2.720703 1.41016,2.632812 1.58203,2.535156 1.74219,2.427735 1.89844,2.308594 2.04101,2.179687 2.18164,2.042969 2.3086,1.898437 2.42578,1.742186 2.53711,1.58203 2.63281,1.41211 2.7207,1.23633 2.79688,1.05469 2.85742,0.86719 2.91016,0.67578 2.94921,0.48437 2.97461,0.29102 1.21875,0.0391 z"
   id="path8822" /><path
   style="fill:#000000;stroke-width:1.52712798;stroke:#000000;stroke-opacity:1;fill-opacity:1"
   d="M 144.15234,466.4082 V 480 h 1.71485 2.71679 2.7168 2.71875 2.71875 l 2.9668,-0.0918 2.95312,-0.27343 2.9336,-0.45899 2.89843,-0.64062 2.84961,-0.82227 2.79493,-1 2.72461,-1.17383 2.64648,-1.34375 2.55664,-1.50781 2.45703,-1.66406 2.34766,-1.81446 2.22851,-1.96093 2.10157,-2.09375 1.96679,-2.22266 1.82227,-2.3418 1.67187,-2.45312 1.51172,-2.55274 1.3457,-2.64453 1.17579,-2.72461 1,-2.79492 0.8164,-2.85351 0.63477,-2.89649 0.44726,-2.93359 0.26172,-2.95703 0.0742,-2.9668 v -2.92383 -2.92578 -2.92383 -2.92578 -2.92383 -2.92383 -2.92382 -2.92383 -2.92383 -2.92578 -2.92383 -2.92578 -2.92383 -2.92578 -2.92383 -2.92383 -2.92382 -2.92383 -2.92774 -2.92382 l -0.0879,-2.89454 -0.26367,-2.88671 -0.44141,-2.86329 -0.61719,-2.83007 -0.79101,-2.78711 -0.96094,-2.73243 -1.1289,-2.66796 -1.29102,-2.59375 -1.44727,-2.50782 -1.5996,-2.41797 -1.74219,-2.3125 -1.88086,-2.20312 -2.01367,-2.08594 -2.13477,-1.95898 -2.25,-1.82422 -2.35742,-1.68359 -2.45703,-1.53516 -2.54688,-1.38281 -2.62695,-1.22266 -2.69727,-1.05859 -2.75586,-0.88867 -2.80664,-0.7168 -2.8457,-0.54297 -2.875,-0.36523 2.91211,0.48046 2.87305,0.67969 2.81836,0.87695 2.75195,1.06836 2.67187,1.25586 2.58008,1.4375 2.47461,1.60938 2.35742,1.77539 2.23243,1.93359 2.09375,2.08203 1.94726,2.21875 1.79102,2.34571 1.625,2.46289 1.45312,2.57031 1.27344,2.66406 1.08594,2.7461 0.89257,2.81445 0.69727,2.86914 0.5,2.91016 0.29688,2.93554 0.0996,2.95118 v 2.96093 2.96094 2.96094 2.95898 2.96094 2.96289 2.96094 2.96094 2.96093 2.96094 2.96094 2.96093 2.95899 2.96094 2.96289 2.96094 2.96093 2.96094 l -0.11524,2.93555 -0.3125,2.92187 -0.50781,2.89258 -0.70313,2.85352 -0.89453,2.79882 -1.08398,2.73047 -1.26758,2.65235 -1.44336,2.55859 -1.61133,2.45703 -1.77539,2.33985 -1.92969,2.21679 -2.07226,2.08008 -2.21094,1.9375 -2.33789,1.78125 -2.45313,1.61914 -2.55664,1.44922 -2.65039,1.26953 -2.73242,1.08399 -2.79883,0.89257 -2.85351,0.69727 -2.89649,0.49805 -2.92187,0.29882 -2.9375,0.0996 h -2.74805 -2.75 -2.74804 -2.75 z"
   id="path8801" /><path
   style="fill:#000000;fill-opacity:1;stroke:#000000;stroke-width:1.52712798;stroke-opacity:1"
   d="m 125.92967,327.30078 -2.91016,0.32422 -2.88476,0.50586 -2.84766,0.68359 -2.79883,0.85938 -2.74023,1.0332 -2.66992,1.20313 -2.5918,1.36523 -2.50195,1.52539 -2.40235,1.67578 -2.292962,1.82032 -2.177734,1.95898 -2.052735,2.08789 -1.919922,2.21289 -1.779296,2.32422 -1.634766,2.43164 -1.478516,2.52734 -1.318359,2.61524 -1.152344,2.69336 -0.982422,2.75976 -0.808593,2.81446 -0.628907,2.86132 -0.449219,2.89454 -0.269531,2.91601 -0.08984,2.92774 v 2.92382 2.92579 2.92382 2.92578 2.92383 2.92383 2.92383 2.92383 2.92382 2.92579 2.92382 2.92579 2.92382 2.92578 2.92383 2.92383 2.92383 2.92383 2.92773 2.92383 l 0.0918,2.96289 0.277344,2.95117 0.460938,2.92774 0.646484,2.89453 0.828125,2.8457 1.005859,2.78906 1.179688,2.71875 1.347656,2.64063 1.513672,2.54883 1.667969,2.45117 1.818359,2.33984 1.960938,2.22461 2.095703,2.0957 2.222656,1.9629 2.339845,1.81836 2.44922,1.66992 2.55078,1.51172 2.63867,1.3496 2.7207,1.17969 2.78711,1.00586 2.84766,0.82617 2.89453,0.64454 2.92773,0.46093 2.95313,0.27539 2.96094,0.0918 h 2.71875 2.71875 2.71875 2.71875 2.71875 0.82422 v -13.5918 h -2.04883 -2.75 -2.74805 -2.74805 -2.74804 l -2.93946,-0.0977 -2.92578,-0.29688 -2.90234,-0.49414 -2.85938,-0.69336 -2.80468,-0.88672 -2.73828,-1.07617 -2.65625,-1.26367 -2.56446,-1.44141 -2.45898,-1.61523 -2.3418,-1.77735 -2.2168,-1.93359 -2.080074,-2.08008 -1.935547,-2.21679 -1.777343,-2.3418 -1.613282,-2.45898 -1.443359,-2.56446 -1.263672,-2.6582 -1.078125,-2.73828 -0.886719,-2.80469 -0.691406,-2.85937 -0.494141,-2.9004 -0.296874,-2.92578 -0.09766,-2.93945 v -2.96094 -2.96093 -2.96094 -2.95899 -2.96093 -2.9629 -2.96093 -2.96094 -2.96094 -2.96093 -2.96094 -2.96094 -2.95898 -2.96094 -2.96289 -2.96094 -2.96094 -2.96093 l 0.09961,-2.97266 0.304687,-2.95899 0.503906,-2.92968 0.708985,-2.88867 0.90625,-2.83399 1.101562,-2.76172 1.291016,-2.68164 1.472656,-2.58203 1.648438,-2.47461 1.816406,-2.35547 1.974609,-2.22656 2.121097,-2.08398 2.25977,-1.9336 2.38867,-1.77148 2.50586,-1.60352 2.60742,-1.42773 2.70312,-1.24219 2.78321,-1.05078 2.84961,-0.85742 2.90039,-0.6543 z"
   id="path2168"
   inkscape:connector-curvature="0" />
<g
   id="Layer_3"
   transform="translate(-27.864413,141)"
   style="fill:#000000;stroke:#000000;stroke-opacity:1;fill-opacity:1">
</g>
</svg>