<?xml version="1.0" encoding="UTF-8" standalone="no"?>
<svg
   xmlns:dc="http://purl.org/dc/elements/1.1/"
   xmlns:cc="http://creativecommons.org/ns#"
   xmlns:rdf="http://www.w3.org/1999/02/22-rdf-syntax-ns#"
   xmlns:svg="http://www.w3.org/2000/svg"
   xmlns="http://www.w3.org/2000/svg"
   height="480"
   width="286.44519"
   id="svg2236"
   xml:space="preserve"
   viewBox="0 0 286.44519 479.99998"
   y="0px"
   x="0px"
   version="1.1"><metadata
   id="metadata2242"><rdf:RDF><cc:Work
       rdf:about=""><dc:format>image/svg+xml</dc:format><dc:type
         rdf:resource="http://purl.org/dc/dcmitype/StillImage" /><dc:title></dc:title></cc:Work></rdf:RDF></metadata><defs
   id="defs2240">
	
	
	
	
	
	
	
	
	
	
	
	
	
	
	
	
	
	
	
	
	
	
	
	
	
	
	
	
	
	

		
		
	
		
		
	
			
			
		
			
			
		</defs>
<style
   id="style2062"
   type="text/css">
	.st0{fill:#EFEFEF;}
	.st1{fill:#F16B6C;}
	.st2{fill:#FFFFFF;}
	.st3{fill:none;stroke:#F16B6C;stroke-width:4.5536;stroke-linecap:round;stroke-miterlimit:10;}
	.st4{fill:#FFCC00;}
</style>
<g
   transform="translate(-27.864413,141)"
   id="svg8">
	
		
</g>
<path
   class="st1"
   d="m 72.898354,112.72573 -2.888096,0.11191 -2.870058,0.33687 -2.834854,0.56178 -2.781442,0.78408 -2.711456,1.00193 -2.623109,1.21254 -2.520268,1.41558 -2.400645,1.60819 -2.267216,1.79039 -2.121689,1.96246 -1.961909,2.12118 -1.790951,2.26803 -1.607952,2.40046 -1.415166,2.51963 -1.212921,2.6241 -1.001686,2.71104 -0.784107,2.78185 -0.561574,2.83417 -0.336851,2.87042 -0.111835,2.88717 0.111907,2.8881 0.336868,2.87006 0.561785,2.83485 0.784081,2.78144 1.001934,2.71146 1.212533,2.62311 1.415586,2.52027 1.608189,2.40064 1.790388,2.26722 1.96246,2.12169 2.121176,1.96191 2.268037,1.79095 2.400459,1.60795 2.519629,1.41517 2.624105,1.21292 2.71104,1.00168 2.781852,0.78411 2.834169,0.56157 2.870412,0.33686 2.887175,0.11183 2.888096,-0.11191 2.870057,-0.33687 2.834855,-0.56178 2.781442,-0.78408 2.711456,-1.00193 2.623109,-1.21254 2.520268,-1.41558 2.400645,-1.60819 2.267216,-1.79039 2.121689,-1.96246 1.961913,-2.12118 1.79095,-2.26803 1.60795,-2.40046 1.41517,-2.51963 1.21292,-2.62411 1.00168,-2.71104 0.78411,-2.78185 0.56157,-2.83417 0.33685,-2.87041 0.11184,-2.88718 -0.0922,-2.88992 -0.32132,-2.87332 -0.55058,-2.83914 -0.77724,-2.78635 -0.99874,-2.71529 -1.21252,-2.62587 -1.41762,-2.52096 -1.61301,-2.40154 -1.79688,-2.2672 -1.968751,-2.11952 -2.128184,-1.95949 -2.274083,-1.78745 -2.406562,-1.60476 -2.5233,-1.41122 -2.626739,-1.20959 -2.712865,-0.99924 -2.783883,-0.78283 -2.836318,-0.56115 -2.872641,-0.33693 -2.89039,-0.11201 v 0"
   id="path2112"
   style="fill:#f16b6c;stroke:none;stroke-width:1.52712798;stroke-opacity:1" /><path
   class="st1"
   d="m 213.39413,112.72573 -2.8881,0.11191 -2.87005,0.33687 -2.83486,0.56178 -2.78144,0.78408 -2.71146,1.00193 -2.6231,1.21254 -2.52027,1.41558 -2.40065,1.60819 -2.26722,1.79039 -2.12168,1.96246 -1.96191,2.12118 -1.79096,2.26803 -1.60795,2.40046 -1.41516,2.51963 -1.21293,2.6241 -1.00168,2.71104 -0.78411,2.78185 -0.56157,2.83417 -0.33685,2.87042 -0.11184,2.88717 0.11191,2.8881 0.33687,2.87006 0.56178,2.83485 0.78408,2.78144 1.00194,2.71146 1.21253,2.62311 1.41559,2.52027 1.60819,2.40064 1.79038,2.26722 1.96246,2.12169 2.12118,1.96191 2.26804,1.79095 2.40046,1.60795 2.51963,1.41517 2.6241,1.21292 2.71104,1.00168 2.78185,0.78411 2.83417,0.56157 2.87042,0.33686 2.88717,0.11183 2.8881,-0.11191 2.87005,-0.33687 2.83486,-0.56178 2.78144,-0.78408 2.71145,-1.00193 2.62311,-1.21254 2.52027,-1.41558 2.40064,-1.60819 2.26722,-1.79039 2.12169,-1.96246 1.96191,-2.12118 1.79095,-2.26803 1.60795,-2.40046 1.41517,-2.51963 1.21292,-2.62411 1.00168,-2.71104 0.78411,-2.78185 0.56157,-2.83417 0.33686,-2.87041 0.11183,-2.88718 -0.0922,-2.88992 -0.32132,-2.87332 -0.55058,-2.83914 -0.77723,-2.78635 -0.99874,-2.71529 -1.21252,-2.62587 -1.41762,-2.52096 -1.61301,-2.40154 -1.79688,-2.2672 -1.96875,-2.11952 -2.12819,-1.95949 -2.27408,-1.78745 -2.40656,-1.60476 -2.5233,-1.41122 -2.62674,-1.20959 -2.71287,-0.99924 -2.78388,-0.78283 -2.83632,-0.56115 -2.87264,-0.33693 -2.89039,-0.11201 v 0"
   id="path2122"
   style="fill:#f16b6c;stroke-width:1.52712798" />
<g
   transform="translate(-27.864413,141)"
   id="Layer_3">
</g>
</svg>