  0
SECTION
  2
HEADER
  9
$ACADVER
  1
AC1014
  9
$HANDSEED
  5
FFFF
  9
$MEASUREMENT
 70
     1
  0
ENDSEC
  0
SECTION
  2
TABLES
  0
TABLE
  2
VPORT
  5
8
330
0
100
AcDbSymbolTable
 70
     4
  0
VPORT
  5
2E
330
8
100
AcDbSymbolTableRecord
100
AcDbViewportTableRecord
  2
*ACTIVE
 70
     0
 10
0.0
 20
0.0
 11
1.0
 21
1.0
 12
210.0
 22
148.5
 13
0.0
 23
0.0
 14
10.0
 24
10.0
 15
10.0
 25
10.0
 16
0.0
 26
0.0
 36
1.0
 17
0.0
 27
0.0
 37
0.0
 40
341.0
 41
1.24
 42
50.0
 43
0.0
 44
0.0
 50
0.0
 51
0.0
 71
     0
 72
   100
 73
     1
 74
     3
 75
     0
 76
     0
 77
     0
 78
     0
  0
ENDTAB
  0
TABLE
  2
LTYPE
  5
5
330
0
100
AcDbSymbolTable
 70
     1
  0
LTYPE
  5
14
330
5
100
AcDbSymbolTableRecord
100
AcDbLinetypeTableRecord
  2
BYBLOCK
 70
     0
  3

 72
    65
 73
     0
 40
0.0
  0
LTYPE
  5
15
330
5
100
AcDbSymbolTableRecord
100
AcDbLinetypeTableRecord
  2
BYLAYER
 70
     0
  3

 72
    65
 73
     0
 40
0.0
  0
LTYPE
  5
16
330
5
100
AcDbSymbolTableRecord
100
AcDbLinetypeTableRecord
  2
CONTINUOUS
 70
     0
  3
Solid line
 72
    65
 73
     0
 40
0.0
  0
ENDTAB
  0
TABLE
  2
LAYER
  5
2
100
AcDbSymbolTable
 70
1
  0
LAYER
  5
50
100
AcDbSymbolTableRecord
100
AcDbLayerTableRecord
  2
0
 70
0
  6
CONTINUOUS
  0
ENDTAB
  0
TABLE
  2
STYLE
  5
3
330
0
100
AcDbSymbolTable
 70
     1
  0
STYLE
  5
11
330
3
100
AcDbSymbolTableRecord
100
AcDbTextStyleTableRecord
  2
STANDARD
 70
     0
 40
0.0
 41
1.0
 50
0.0
 71
     0
 42
2.5
  3
txt
  4

  0
ENDTAB
  0
TABLE
  2
VIEW
  5
6
330
0
100
AcDbSymbolTable
 70
     0
  0
ENDTAB
  0
TABLE
  2
UCS
  5
7
330
0
100
AcDbSymbolTable
 70
     0
  0
ENDTAB
  0
TABLE
  2
APPID
  5
9
330
0
100
AcDbSymbolTable
 70
     2
  0
APPID
  5
12
330
9
100
AcDbSymbolTableRecord
100
AcDbRegAppTableRecord
  2
ACAD
 70
     0
  0
ENDTAB
  0
TABLE
  2
DIMSTYLE
  5
A
330
0
100
AcDbSymbolTable
 70
     1
  0
DIMSTYLE
105
27
330
A
100
AcDbSymbolTableRecord
100
AcDbDimStyleTableRecord
  2
ISO-25
 70
     0
  3

  4

  5

  6

  7

 40
1.0
 41
2.5
 42
0.625
 43
3.75
 44
1.25
 45
0.0
 46
0.0
 47
0.0
 48
0.0
140
2.5
141
2.5
142
0.0
143
0.03937007874016
144
1.0
145
0.0
146
1.0
147
0.625
 71
     0
 72
     0
 73
     0
 74
     0
 75
     0
 76
     0
 77
     1
 78
     8
170
     0
171
     3
172
     1
173
     0
174
     0
175
     0
176
     0
177
     0
178
     0
270
     2
271
     2
272
     2
273
     2
274
     3
340
11
275
     0
280
     0
281
     0
282
     0
283
     0
284
     8
285
     0
286
     0
287
     3
288
     0
  0
ENDTAB
  0
TABLE
  2
BLOCK_RECORD
  5
1
330
0
100
AcDbSymbolTable
 70
     1
  0
BLOCK_RECORD
  5
1F
330
1
100
AcDbSymbolTableRecord
100
AcDbBlockTableRecord
  2
*MODEL_SPACE
  0
BLOCK_RECORD
  5
1B
330
1
100
AcDbSymbolTableRecord
100
AcDbBlockTableRecord
  2
*PAPER_SPACE
  0
ENDTAB
  0
ENDSEC
  0
SECTION
  2
BLOCKS
  0
BLOCK
  5
20
330
1F
100
AcDbEntity
  8
0
100
AcDbBlockBegin
  2
*MODEL_SPACE
 70
     0
 10
0.0
 20
0.0
 30
0.0
  3
*MODEL_SPACE
  1

  0
ENDBLK
  5
21
330
1F
100
AcDbEntity
  8
0
100
AcDbBlockEnd
  0
BLOCK
  5
1C
330
1B
100
AcDbEntity
 67
     1
  8
0
100
AcDbBlockBegin
  2
*PAPER_SPACE
  1

  0
ENDBLK
  5
1D
330
1B
100
AcDbEntity
 67
     1
  8
0
100
AcDbBlockEnd
  0
ENDSEC
  0
SECTION
  2
ENTITIES
  0
LWPOLYLINE
  5
100
100
AcDbEntity
  8
0
 62
7
100
AcDbPolyline
 90
81
 70
1
 10
19.287690
 20
97.174655
 30
0.0
 10
18.523548
 20
97.145045
 30
0.0
 10
17.764179
 20
97.055915
 30
0.0
 10
17.014124
 20
96.907277
 30
0.0
 10
16.278200
 20
96.699823
 30
0.0
 10
15.560794
 20
96.434729
 30
0.0
 10
14.866763
 20
96.113911
 30
0.0
 10
14.199942
 20
95.739372
 30
0.0
 10
13.564772
 20
95.313872
 30
0.0
 10
12.964904
 20
94.840164
 30
0.0
 10
12.403540
 20
94.320930
 30
0.0
 10
11.884452
 20
93.759701
 30
0.0
 10
11.410596
 20
93.159618
 30
0.0
 10
10.985159
 20
92.524497
 30
0.0
 10
10.610730
 20
91.857844
 30
0.0
 10
10.289811
 20
91.163551
 30
0.0
 10
10.024781
 20
90.446255
 30
0.0
 10
9.817320
 20
89.710224
 30
0.0
 10
9.668737
 20
88.960350
 30
0.0
 10
9.579611
 20
88.200885
 30
0.0
 10
9.550022
 20
87.436987
 30
0.0
 10
9.579631
 20
86.672844
 30
0.0
 10
9.668760
 20
85.913474
 30
0.0
 10
9.817399
 20
85.163420
 30
0.0
 10
10.024854
 20
84.427497
 30
0.0
 10
10.289949
 20
83.710090
 30
0.0
 10
10.610765
 20
83.016059
 30
0.0
 10
10.985305
 20
82.349238
 30
0.0
 10
11.410805
 20
81.714068
 30
0.0
 10
11.884512
 20
81.114200
 30
0.0
 10
12.403747
 20
80.552836
 30
0.0
 10
12.964974
 20
80.033747
 30
0.0
 10
13.565059
 20
79.559892
 30
0.0
 10
14.200181
 20
79.134455
 30
0.0
 10
14.866833
 20
78.760024
 30
0.0
 10
15.561127
 20
78.439106
 30
0.0
 10
16.278423
 20
78.174078
 30
0.0
 10
17.014455
 20
77.966616
 30
0.0
 10
17.764329
 20
77.818034
 30
0.0
 10
18.523792
 20
77.728906
 30
0.0
 10
19.287690
 20
77.699318
 30
0.0
 10
20.051832
 20
77.728927
 30
0.0
 10
20.811202
 20
77.818057
 30
0.0
 10
21.561257
 20
77.966695
 30
0.0
 10
22.297180
 20
78.174149
 30
0.0
 10
23.014586
 20
78.439243
 30
0.0
 10
23.708617
 20
78.760061
 30
0.0
 10
24.375438
 20
79.134600
 30
0.0
 10
25.010609
 20
79.560101
 30
0.0
 10
25.610477
 20
80.033808
 30
0.0
 10
26.171840
 20
80.553042
 30
0.0
 10
26.690930
 20
81.114271
 30
0.0
 10
27.164785
 20
81.714354
 30
0.0
 10
27.590222
 20
82.349476
 30
0.0
 10
27.964652
 20
83.016128
 30
0.0
 10
28.285571
 20
83.710424
 30
0.0
 10
28.550599
 20
84.427720
 30
0.0
 10
28.758061
 20
85.163751
 30
0.0
 10
28.906643
 20
85.913625
 30
0.0
 10
28.995768
 20
86.673088
 30
0.0
 10
29.025359
 20
87.436987
 30
0.0
 10
29.000965
 20
88.201612
 30
0.0
 10
28.915949
 20
88.961845
 30
0.0
 10
28.770274
 20
89.713034
 30
0.0
 10
28.564630
 20
90.450256
 30
0.0
 10
28.300380
 20
91.168676
 30
0.0
 10
27.979567
 20
91.863438
 30
0.0
 10
27.604488
 20
92.530442
 30
0.0
 10
27.177713
 20
93.165849
 30
0.0
 10
26.702288
 20
93.765713
 30
0.0
 10
26.181389
 20
94.326502
 30
0.0
 10
25.618307
 20
94.844951
 30
0.0
 10
25.016623
 20
95.317880
 30
0.0
 10
24.379887
 20
95.742473
 30
0.0
 10
23.712264
 20
96.115858
 30
0.0
 10
23.017272
 20
96.435896
 30
0.0
 10
22.299493
 20
96.700278
 30
0.0
 10
21.562924
 20
96.907402
 30
0.0
 10
20.812482
 20
97.055873
 30
0.0
 10
20.052429
 20
97.145019
 30
0.0
 10
19.287680
 20
97.174655
 30
0.0
  0
LWPOLYLINE
  5
101
100
AcDbEntity
  8
0
 62
7
100
AcDbPolyline
 90
81
 70
1
 10
56.460533
 20
97.174655
 30
0.0
 10
55.696389
 20
97.145045
 30
0.0
 10
54.937022
 20
97.055915
 30
0.0
 10
54.186965
 20
96.907277
 30
0.0
 10
53.451043
 20
96.699823
 30
0.0
 10
52.733635
 20
96.434729
 30
0.0
 10
52.039607
 20
96.113911
 30
0.0
 10
51.372785
 20
95.739372
 30
0.0
 10
50.737613
 20
95.313872
 30
0.0
 10
50.137745
 20
94.840164
 30
0.0
 10
49.576384
 20
94.320930
 30
0.0
 10
49.057295
 20
93.759701
 30
0.0
 10
48.583437
 20
93.159618
 30
0.0
 10
48.158000
 20
92.524497
 30
0.0
 10
47.783572
 20
91.857844
 30
0.0
 10
47.462651
 20
91.163551
 30
0.0
 10
47.197623
 20
90.446255
 30
0.0
 10
46.990161
 20
89.710224
 30
0.0
 10
46.841579
 20
88.960350
 30
0.0
 10
46.752454
 20
88.200885
 30
0.0
 10
46.722863
 20
87.436987
 30
0.0
 10
46.752472
 20
86.672844
 30
0.0
 10
46.841602
 20
85.913474
 30
0.0
 10
46.990240
 20
85.163420
 30
0.0
 10
47.197695
 20
84.427497
 30
0.0
 10
47.462791
 20
83.710090
 30
0.0
 10
47.783606
 20
83.016059
 30
0.0
 10
48.158148
 20
82.349238
 30
0.0
 10
48.583648
 20
81.714068
 30
0.0
 10
49.057353
 20
81.114200
 30
0.0
 10
49.576587
 20
80.552836
 30
0.0
 10
50.137816
 20
80.033747
 30
0.0
 10
50.737902
 20
79.559892
 30
0.0
 10
51.373023
 20
79.134455
 30
0.0
 10
52.039676
 20
78.760024
 30
0.0
 10
52.733969
 20
78.439106
 30
0.0
 10
53.451265
 20
78.174078
 30
0.0
 10
54.187296
 20
77.966616
 30
0.0
 10
54.937170
 20
77.818034
 30
0.0
 10
55.696635
 20
77.728906
 30
0.0
 10
56.460533
 20
77.699318
 30
0.0
 10
57.224676
 20
77.728927
 30
0.0
 10
57.984043
 20
77.818057
 30
0.0
 10
58.734100
 20
77.966695
 30
0.0
 10
59.470023
 20
78.174149
 30
0.0
 10
60.187427
 20
78.439243
 30
0.0
 10
60.881458
 20
78.760061
 30
0.0
 10
61.548280
 20
79.134600
 30
0.0
 10
62.183449
 20
79.560101
 30
0.0
 10
62.783318
 20
80.033808
 30
0.0
 10
63.344682
 20
80.553042
 30
0.0
 10
63.863770
 20
81.114271
 30
0.0
 10
64.337626
 20
81.714354
 30
0.0
 10
64.763063
 20
82.349476
 30
0.0
 10
65.137493
 20
83.016128
 30
0.0
 10
65.458412
 20
83.710424
 30
0.0
 10
65.723439
 20
84.427720
 30
0.0
 10
65.930902
 20
85.163751
 30
0.0
 10
66.079484
 20
85.913625
 30
0.0
 10
66.168611
 20
86.673088
 30
0.0
 10
66.198200
 20
87.436987
 30
0.0
 10
66.173805
 20
88.201612
 30
0.0
 10
66.088789
 20
88.961845
 30
0.0
 10
65.943115
 20
89.713034
 30
0.0
 10
65.737473
 20
90.450256
 30
0.0
 10
65.473223
 20
91.168676
 30
0.0
 10
65.152410
 20
91.863438
 30
0.0
 10
64.777332
 20
92.530442
 30
0.0
 10
64.350556
 20
93.165849
 30
0.0
 10
63.875132
 20
93.765713
 30
0.0
 10
63.354233
 20
94.326502
 30
0.0
 10
62.791149
 20
94.844951
 30
0.0
 10
62.189466
 20
95.317880
 30
0.0
 10
61.552730
 20
95.742473
 30
0.0
 10
60.885107
 20
96.115858
 30
0.0
 10
60.190115
 20
96.435896
 30
0.0
 10
59.472335
 20
96.700278
 30
0.0
 10
58.735767
 20
96.907402
 30
0.0
 10
57.985324
 20
97.055873
 30
0.0
 10
57.225271
 20
97.145019
 30
0.0
 10
56.460522
 20
97.174655
 30
0.0
  0
ENDSEC
  0
SECTION
  2
OBJECTS
  0
DICTIONARY
  5
C
330
0
100
AcDbDictionary
  3
ACAD_GROUP
350
D
  3
ACAD_MLINESTYLE
350
17
  0
DICTIONARY
  5
D
330
C
100
AcDbDictionary
  0
DICTIONARY
  5
1A
330
C
100
AcDbDictionary
  0
DICTIONARY
  5
17
330
C
100
AcDbDictionary
  3
STANDARD
350
18
  0
DICTIONARY
  5
19
330
C
100
AcDbDictionary
  0
ENDSEC
  0
EOF
