<?xml version="1.0" encoding="UTF-8" standalone="no"?>
<!-- Generator: Adobe Illustrator 21.0.2, SVG Export Plug-In . SVG Version: 6.00 Build 0)  -->

<svg
   xmlns:dc="http://purl.org/dc/elements/1.1/"
   xmlns:cc="http://creativecommons.org/ns#"
   xmlns:rdf="http://www.w3.org/1999/02/22-rdf-syntax-ns#"
   xmlns:svg="http://www.w3.org/2000/svg"
   xmlns="http://www.w3.org/2000/svg"
   xmlns:sodipodi="http://sodipodi.sourceforge.net/DTD/sodipodi-0.dtd"
   xmlns:inkscape="http://www.inkscape.org/namespaces/inkscape"
   version="1.1"
   x="0px"
   y="0px"
   viewBox="0 0 286.44519 479.99998"
   xml:space="preserve"
   id="svg2236"
   sodipodi:docname="meow_v4_stock.svg"
   width="286.44519"
   height="480"
   inkscape:version="0.92.3 (2405546, 2018-03-11)"><metadata
   id="metadata2242"><rdf:RDF><cc:Work
       rdf:about=""><dc:format>image/svg+xml</dc:format><dc:type
         rdf:resource="http://purl.org/dc/dcmitype/StillImage" /><dc:title></dc:title></cc:Work></rdf:RDF></metadata><defs
   id="defs2240">
	
	
	
	
	
	
	
	
	
	
	
	
	
	
	
	
	
	
	
	
	
	
	
	
	
	
	
	
	
	
</defs><sodipodi:namedview
   pagecolor="#ffffff"
   bordercolor="#666666"
   borderopacity="1"
   objecttolerance="10"
   gridtolerance="10"
   guidetolerance="10"
   inkscape:pageopacity="0"
   inkscape:pageshadow="2"
   inkscape:window-width="1920"
   inkscape:window-height="1003"
   id="namedview2238"
   showgrid="false"
   inkscape:pagecheckerboard="true"
   fit-margin-top="0"
   fit-margin-left="0"
   fit-margin-right="0"
   fit-margin-bottom="0"
   inkscape:zoom="1.3874191"
   inkscape:cx="70.758975"
   inkscape:cy="239.04597"
   inkscape:window-x="-9"
   inkscape:window-y="-9"
   inkscape:window-maximized="1"
   inkscape:current-layer="svg2236"><inkscape:grid
     type="xygrid"
     id="grid2787"
     originx="-27.864413"
     originy="-1.1999882" /></sodipodi:namedview>
<style
   type="text/css"
   id="style2062">
	.st0{fill:#EFEFEF;}
	.st1{fill:#F16B6C;}
	.st2{fill:#FFFFFF;}
	.st3{fill:none;stroke:#F16B6C;stroke-width:4.5536;stroke-linecap:round;stroke-miterlimit:10;}
	.st4{fill:#FFCC00;}
</style>
<g
   id="svg8"
   inkscape:export-filename="C:\Users\dash\Documents\GitHub\defcon26-meow\art\meow_v1.png"
   inkscape:export-xdpi="96"
   inkscape:export-ydpi="96"
   inkscape:version="0.92.1 r15371"
   sodipodi:docname="meow_v3.svg"
   transform="translate(-27.864413,141)">
	
		<sodipodi:namedview
   bordercolor="#666666"
   borderopacity="1.0"
   id="base"
   inkscape:current-layer="layer12"
   inkscape:cx="62.544425"
   inkscape:cy="233.65003"
   inkscape:document-units="cm"
   inkscape:guide-bbox="true"
   inkscape:lockguides="false"
   inkscape:object-nodes="false"
   inkscape:object-paths="false"
   inkscape:pagecheckerboard="true"
   inkscape:pageopacity="0.0"
   inkscape:pageshadow="2"
   inkscape:snap-intersection-paths="false"
   inkscape:snap-nodes="false"
   inkscape:snap-smooth-nodes="false"
   inkscape:snap-to-guides="true"
   inkscape:window-height="1048"
   inkscape:window-maximized="1"
   inkscape:window-width="1735"
   inkscape:window-x="1921"
   inkscape:window-y="0"
   inkscape:zoom="1.4142136"
   objecttolerance="10000"
   pagecolor="#ffffff"
   showgrid="false"
   showguides="false"
   units="cm">
		<sodipodi:guide
   id="guide4491"
   inkscape:locked="false"
   orientation="1,0"
   position="70.114584,301.625" />
		<sodipodi:guide
   id="guide4493"
   inkscape:locked="false"
   orientation="1,0"
   position="129.81167,326.09462" />
		<inkscape:grid
   id="grid4495"
   type="xygrid" />
		<sodipodi:guide
   id="guide4499"
   inkscape:locked="false"
   orientation="0,1"
   position="-19.84375,260.04762" />
		<sodipodi:guide
   id="guide4501"
   inkscape:locked="false"
   orientation="0,1"
   position="-20.032738,179.91667" />
		<sodipodi:guide
   id="guide4503"
   inkscape:locked="false"
   orientation="0,1"
   position="-16.630952,270.06399" />
		<sodipodi:guide
   id="guide4512"
   inkscape:locked="false"
   orientation="0,1"
   position="-19.465774,219.98214" />
		<sodipodi:guide
   id="guide4514"
   inkscape:locked="false"
   orientation="-0.82575936,0.56402259"
   position="60.098215,179.91667">
			</sodipodi:guide>
		<sodipodi:guide
   id="guide4518"
   inkscape:locked="false"
   orientation="-0.82575936,-0.56402259"
   position="140.07024,179.91667">
			</sodipodi:guide>
		<sodipodi:guide
   id="guide4520"
   inkscape:locked="false"
   orientation="1,0"
   position="79.941963,226.97471" />
		<sodipodi:guide
   id="guide4522"
   inkscape:locked="false"
   orientation="1,0"
   position="119.93731,202.36411" />
		<sodipodi:guide
   id="guide4541"
   inkscape:locked="false"
   orientation="1,0"
   position="124.99885,314.20012" />
		<sodipodi:guide
   id="guide4543"
   inkscape:locked="false"
   orientation="1,0"
   position="74.835466,302.68275" />
		<sodipodi:guide
   id="guide4584"
   inkscape:locked="false"
   orientation="0,1"
   position="83.871844,297.00001" />
		<sodipodi:guide
   id="guide4586"
   inkscape:locked="false"
   orientation="0,1"
   position="44.675444,230.00027" />
		<sodipodi:guide
   id="guide4588"
   inkscape:locked="false"
   orientation="0,1"
   position="70.109929,209.50604" />
		<sodipodi:guide
   id="guide4590"
   inkscape:locked="false"
   orientation="0,1"
   position="63.219967,249.92962" />
		<sodipodi:guide
   id="guide4592"
   inkscape:locked="false"
   orientation="0,1"
   position="59.968654,242.10238" />
		<sodipodi:guide
   id="guide4594"
   inkscape:locked="false"
   orientation="1,0"
   position="88.033508,219.98214" />
		<sodipodi:guide
   id="guide4596"
   inkscape:locked="false"
   orientation="1,0"
   position="111.92945,245.11286" />
		<sodipodi:guide
   id="guide4598"
   inkscape:locked="false"
   orientation="1,0"
   position="93.926808,245.11286" />
		<sodipodi:guide
   id="guide4600"
   inkscape:locked="false"
   orientation="1,0"
   position="106.08913,212.41909" />
		<sodipodi:guide
   id="guide4612"
   inkscape:locked="false"
   orientation="0,1"
   position="88.026276,238.4296" />
		<sodipodi:guide
   id="guide4614"
   inkscape:locked="false"
   orientation="0,1"
   position="85.076013,233.9741" />
		<sodipodi:guide
   id="guide4669"
   inkscape:locked="false"
   orientation="0.59697004,0.80226353"
   position="91.879688,214.3759">
			</sodipodi:guide>
		<sodipodi:guide
   id="guide4692"
   inkscape:locked="false"
   orientation="1,0"
   position="100.00044,239.56605" />
		<sodipodi:guide
   id="guide4725"
   inkscape:locked="false"
   orientation="0,1"
   position="63.761852,190.02117" />
		<sodipodi:guide
   id="guide4727"
   inkscape:locked="false"
   orientation="0,1"
   position="84.297592,194.9914" />
	</sodipodi:namedview>
</g>
<path
   style="fill:#efefef;stroke-width:1.52712798"
   inkscape:connector-curvature="0"
   id="path2094"
   d="M 187.28024,196.10692 H 99.164955 c -44.133999,0 -80.632358,34.36038 -83.381188,78.34166 L 8.6062649,390.05217 C 5.7047217,438.1567 43.882922,478.77831 91.987454,478.77831 H 194.30503 c 48.10453,0 86.28273,-40.62161 83.38119,-88.72614 l -7.1775,-115.60359 C 267.9126,230.4673 231.41424,196.10692 187.28024,196.10692 Z"
   class="st0" /><circle
   style="fill:#f16b6c;stroke-width:1.52712798"
   id="circle2096"
   r="115.45087"
   cy="189.38754"
   cx="143.14624"
   class="st1" /><circle
   style="fill:#efefef;stroke-width:1.52712798"
   id="circle2098"
   r="89.18428"
   cy="189.38754"
   cx="143.14624"
   class="st0" /><path
   style="fill:#ffffff;stroke-width:1.52712798"
   inkscape:connector-curvature="0"
   id="path2100"
   d="M 277.68622,123.72105 254.32116,12.698844 C 251.72504,0.32910733 236.45376,-4.2522767 227.44371,4.6050657 l -54.8239,53.7549053 z"
   class="st2" /><path
   style="fill:#ffffff;stroke-width:1.52712798"
   inkscape:connector-curvature="0"
   id="path2102"
   d="M 8.9116905,123.72105 32.429462,12.698844 C 35.025579,0.32910733 50.296859,-4.2522767 59.306915,4.6050657 L 114.13081,58.359971 Z"
   class="st2" /><path
   style="fill:#f16b6c;stroke-width:1.52712798"
   inkscape:connector-curvature="0"
   id="path2104"
   d="M 23.724832,106.31179 40.52324,26.595709 c 1.832554,-8.857343 12.827875,-12.217024 19.241813,-5.803087 l 39.399902,38.636339 z"
   class="st1" /><path
   style="fill:#f16b6c;stroke-width:1.52712798"
   inkscape:connector-curvature="0"
   id="path2106"
   d="M 263.02579,106.31179 246.22738,26.595709 c -1.83255,-8.857343 -12.82787,-12.217024 -19.24181,-5.803087 l -39.3999,38.636339 z"
   class="st1" /><path
   style="fill:#ffffff;stroke-width:1.52712798"
   inkscape:connector-curvature="0"
   id="path2108"
   d="M 211.71429,259.33002 H 74.730907 c -45.966552,0 -81.0904965,-41.23246 -73.76028208,-86.58816 L 9.3698289,121.12493 C 15.172915,84.931998 46.479039,58.359971 83.130111,58.359971 H 203.31508 c 36.65108,0 67.80449,26.572027 73.76029,62.764959 l 8.3992,51.61693 c 7.33022,45.3557 -27.79373,86.58816 -73.76028,86.58816 z"
   class="st2" /><g
   id="g2118"
   transform="matrix(1.527128,0,0,1.527128,-42.552523,-37.69638)">
		<g
   id="g2114">
			<path
   style="fill:#ffffff"
   inkscape:connector-curvature="0"
   id="path2110"
   d="m 75.6,145.7 c -6.2,0 -12,-2.4 -16.4,-6.8 -4.4,-4.4 -6.8,-10.2 -6.8,-16.4 0,-12.8 10.4,-23.1 23.1,-23.1 12.8,0 23.1,10.4 23.1,23.1 0,6.2 -2.4,12 -6.8,16.4 -4.2,4.4 -10,6.8 -16.2,6.8 0,0 0,0 0,0 z"
   class="st2" />
			<path
   style="fill:#f16b6c"
   inkscape:connector-curvature="0"
   id="path2112"
   d="m 75.6,100.5 c 12.2,0 22.1,9.9 22.1,22.1 0,12.2 -9.9,22.1 -22.1,22.1 -12.2,0 -22.1,-9.9 -22.1,-22.1 0,-12.2 9.9,-22.1 22.1,-22.1 m 0,-2 v 2 -2 0 c -13.3,0 -24.1,10.8 -24.1,24.1 0,13.3 10.8,24.1 24.1,24.1 13.3,0 24.1,-10.8 24.1,-24.1 C 99.8,109.3 88.9,98.5 75.6,98.5 Z"
   class="st1" />
		</g>
		<circle
   style="fill:#f16b6c"
   id="circle2116"
   r="18.4"
   cy="122.6"
   cx="75.599998"
   class="st1" />
	</g><g
   id="g2128"
   transform="matrix(1.527128,0,0,1.527128,-42.552523,-37.69638)">
		<g
   id="g2124">
			<path
   style="fill:#ffffff"
   inkscape:connector-curvature="0"
   id="path2120"
   d="m 167.6,145.7 c -6.2,0 -12,-2.4 -16.4,-6.8 -4.4,-4.4 -6.8,-10.2 -6.8,-16.4 0,-6.2 2.4,-12 6.8,-16.4 4.4,-4.4 10.2,-6.8 16.4,-6.8 12.8,0 23.1,10.4 23.1,23.1 0.1,12.9 -10.3,23.3 -23.1,23.3 0,0 0,0 0,0 z"
   class="st2" />
			<path
   style="fill:#f16b6c"
   inkscape:connector-curvature="0"
   id="path2122"
   d="m 167.6,100.5 c 12.2,0 22.1,9.9 22.1,22.1 0,12.2 -9.9,22.1 -22.1,22.1 -12.2,0 -22.1,-9.9 -22.1,-22.1 0,-12.2 9.9,-22.1 22.1,-22.1 m 0,-2 v 2 -2 0 c -13.3,0 -24.1,10.8 -24.1,24.1 0,13.3 10.8,24.1 24.1,24.1 13.3,0 24.1,-10.8 24.1,-24.1 0.1,-13.3 -10.8,-24.1 -24.1,-24.1 z"
   class="st1" />
		</g>
		<circle
   style="fill:#f16b6c"
   id="circle2126"
   r="18.4"
   cy="122.6"
   cx="167.60001"
   class="st1" />
	</g><g
   id="g2142"
   transform="matrix(1.527128,0,0,1.527128,-42.552523,-37.69638)">
		<g
   id="g2132">
			<line
   style="fill:none;stroke:#f16b6c;stroke-width:4.55359983;stroke-linecap:round;stroke-miterlimit:10"
   id="line2130"
   y2="167.8"
   x2="54.700001"
   y1="167.8"
   x1="66.300003"
   class="st3" />
		</g>
		<g
   id="g2136">
			<line
   style="fill:none;stroke:#f16b6c;stroke-width:4.55359983;stroke-linecap:round;stroke-miterlimit:10"
   id="line2134"
   y2="159.10001"
   x2="54.700001"
   y1="159.10001"
   x1="66.300003"
   class="st3" />
		</g>
		<g
   id="g2140">
			<line
   style="fill:none;stroke:#f16b6c;stroke-width:4.55359983;stroke-linecap:round;stroke-miterlimit:10"
   id="line2138"
   y2="150.39999"
   x2="54.700001"
   y1="150.39999"
   x1="66.300003"
   class="st3" />
		</g>
	</g><g
   id="g2156"
   transform="matrix(1.527128,0,0,1.527128,-42.552523,-37.69638)">
		<g
   id="g2146">
			<line
   style="fill:none;stroke:#f16b6c;stroke-width:4.55359983;stroke-linecap:round;stroke-miterlimit:10"
   id="line2144"
   y2="167.8"
   x2="180.2"
   y1="167.8"
   x1="191.8"
   class="st3" />
		</g>
		<g
   id="g2150">
			<line
   style="fill:none;stroke:#f16b6c;stroke-width:4.55359983;stroke-linecap:round;stroke-miterlimit:10"
   id="line2148"
   y2="159.10001"
   x2="180.2"
   y1="159.10001"
   x1="191.8"
   class="st3" />
		</g>
		<g
   id="g2154">
			<line
   style="fill:none;stroke:#f16b6c;stroke-width:4.55359983;stroke-linecap:round;stroke-miterlimit:10"
   id="line2152"
   y2="150.3"
   x2="180.2"
   y1="150.3"
   x1="191.8"
   class="st3" />
		</g>
	</g><path
   style="fill:none;stroke:#f16b6c;stroke-width:6.9539299;stroke-linecap:round;stroke-miterlimit:10"
   inkscape:connector-curvature="0"
   id="path2158"
   d="m 143.14624,193.5108 c 0,14.50772 -11.75888,26.2666 -26.2666,26.2666 -14.50772,0 -26.266601,-11.75888 -26.266601,-26.2666"
   class="st3" /><path
   style="fill:none;stroke:#f16b6c;stroke-width:6.9539299;stroke-linecap:round;stroke-miterlimit:10"
   inkscape:connector-curvature="0"
   id="path2160"
   d="m 195.83216,193.5108 c 0,14.50772 -11.75889,26.2666 -26.2666,26.2666 -14.50772,0 -26.26661,-11.75888 -26.26661,-26.2666"
   class="st3" /><path
   style="fill:#ffcc00;stroke-width:1.52712798"
   inkscape:connector-curvature="0"
   id="path2162"
   d="m 128.48581,181.14106 h 29.47357 c 2.59612,0 3.81782,3.20697 1.83256,4.88681 l -14.66043,12.52245 c -1.06899,0.91628 -2.59612,0.91628 -3.5124,0 l -14.66042,-12.52245 c -2.2907,-1.67984 -1.06899,-4.88681 1.52712,-4.88681 z"
   class="st4" /><path
   style="fill:#f16b6c;stroke-width:1.52712798"
   inkscape:connector-curvature="0"
   id="path2164"
   d="m 143.45167,109.21333 v 0 c -25.19761,0 -45.66113,-20.463512 -45.66113,-45.661124 v -5.344948 h 91.32225 v 5.344948 c 0,25.197612 -20.46351,45.661124 -45.66112,45.661124 z"
   class="st1" /><circle
   style="fill:#ffcc00;stroke-width:1.52712798"
   id="circle2166"
   r="24.281334"
   cy="293.6904"
   cx="143.45168"
   class="st4" /><g
   id="g2172"
   transform="matrix(1.527128,0,0,1.527128,-42.552523,-37.69638)">
		<path
   style="fill:#f16b6c"
   inkscape:connector-curvature="0"
   id="path2168"
   d="M 130.5,339 H 112.7 C 95.6,339 81.8,325.1 81.8,308.1 v -38.3 c 0,-17.1 13.9,-30.9 30.9,-30.9 h 17.8 c 17.1,0 30.9,13.9 30.9,30.9 v 38.3 c 0.1,17.1 -13.8,30.9 -30.9,30.9 z"
   class="st1" />
		<path
   style="fill:#ffcc00"
   inkscape:connector-curvature="0"
   id="path2170"
   d="M 129.8,330.1 H 113.6 C 98,330.1 85.4,317.5 85.4,301.9 V 267 c 0,-15.6 12.6,-28.2 28.2,-28.2 h 16.2 c 15.6,0 28.2,12.6 28.2,28.2 v 34.9 c -0.1,15.6 -12.7,28.2 -28.2,28.2 z"
   class="st4" />
	</g><path
   style="fill:#ffffff;stroke-width:1.52712798"
   inkscape:connector-curvature="0"
   id="path2174"
   d="M 92.598305,478.77831 H 27.237227 c -9.162768,0 -16.492983,-7.33021 -16.492983,-16.49298 v 0 c 0,-22.75421 18.478249,-41.23246 41.232456,-41.23246 h 15.729419 c 22.754207,0 41.232451,18.47825 41.232451,41.23246 v 0 c 0.15272,9.16277 -7.1775,16.49298 -16.340265,16.49298 z"
   class="st2" /><path
   style="fill:#ffffff;stroke-width:1.52712798"
   inkscape:connector-curvature="0"
   id="path2176"
   d="m 259.20797,478.77831 h -65.36108 c -9.16277,0 -16.49298,-7.33021 -16.49298,-16.49298 v 0 c 0,-22.75421 18.47825,-41.23246 41.23245,-41.23246 h 15.72942 c 22.75421,0 41.23246,18.47825 41.23246,41.23246 v 0 c 0.15271,9.16277 -7.33022,16.49298 -16.34027,16.49298 z"
   class="st2" /><g
   id="g2188"
   transform="matrix(1.527128,0,0,1.527128,-42.552523,-37.69638)">
		
			<circle
   style="fill:#ffffff"
   r="12.3"
   id="ellipse2178"
   cy="272.10001"
   cx="103.8"
   class="st2"
   transform="matrix(0.7071,-0.7071,0.7071,0.7071,-161.9937,153.1122)" />
		<g
   id="g2184">
			
				<circle
   style="fill:#ffffff"
   r="12.3"
   id="ellipse2180"
   cy="279.70001"
   cx="84.900002"
   class="st2"
   transform="matrix(0.7071,-0.7071,0.7071,0.7071,-172.9249,141.9569)" />
			
				<circle
   style="fill:#ffffff"
   r="12.3"
   id="ellipse2182"
   cy="253.2"
   cx="111.4"
   class="st2"
   transform="matrix(0.7071,-0.7071,0.7071,0.7071,-146.3762,152.9537)" />
		</g>
		<path
   style="fill:#ffffff"
   inkscape:connector-curvature="0"
   id="path2186"
   d="M 68.6,271.1 46.9,249.4 c -9.5,-9.5 -9.5,-24.8 0,-34.3 v 0 c 9.5,-9.5 24.8,-9.5 34.3,0 l 21.7,21.7 c 9.5,9.5 9.5,24.8 0,34.3 v 0 c -9.5,9.5 -24.8,9.5 -34.3,0 z"
   class="st2" />
	</g><g
   id="g2206"
   transform="matrix(1.527128,0,0,1.527128,-42.552523,-37.69638)">
		<g
   id="g2196">
			<line
   style="fill:none;stroke:#f16b6c;stroke-width:4.55359983;stroke-linecap:round;stroke-miterlimit:10"
   id="line2194"
   y2="333.29999"
   x2="82.300003"
   y1="325.70001"
   x1="82.300003"
   class="st3" />
		</g>
		<g
   id="g2200">
			<line
   style="fill:none;stroke:#f16b6c;stroke-width:4.55359983;stroke-linecap:round;stroke-miterlimit:10"
   id="line2198"
   y2="333.29999"
   x2="67.300003"
   y1="325.70001"
   x1="67.300003"
   class="st3" />
		</g>
		<g
   id="g2204">
			<line
   style="fill:none;stroke:#f16b6c;stroke-width:4.55359983;stroke-linecap:round;stroke-miterlimit:10"
   id="line2202"
   y2="333.29999"
   x2="52.299999"
   y1="325.70001"
   x1="52.299999"
   class="st3" />
		</g>
	</g><g
   id="g2220"
   transform="matrix(1.527128,0,0,1.527128,-42.552523,-37.69638)">
		<g
   id="g2210">
			<line
   style="fill:none;stroke:#f16b6c;stroke-width:4.55359983;stroke-linecap:round;stroke-miterlimit:10"
   id="line2208"
   y2="333.29999"
   x2="192.3"
   y1="325.70001"
   x1="192.3"
   class="st3" />
		</g>
		<g
   id="g2214">
			<line
   style="fill:none;stroke:#f16b6c;stroke-width:4.55359983;stroke-linecap:round;stroke-miterlimit:10"
   id="line2212"
   y2="333.29999"
   x2="177.3"
   y1="325.70001"
   x1="177.3"
   class="st3" />
		</g>
		<g
   id="g2218">
			<line
   style="fill:none;stroke:#f16b6c;stroke-width:4.55359983;stroke-linecap:round;stroke-miterlimit:10"
   id="line2216"
   y2="333.29999"
   x2="162.3"
   y1="325.70001"
   x1="162.3"
   class="st3" />
		</g>
	</g>
<g
   id="Layer_3"
   transform="translate(-27.864413,141)">
</g>
</svg>