<?xml version="1.0" encoding="UTF-8" standalone="no"?>
<!-- Generator: Adobe Illustrator 21.0.2, SVG Export Plug-In . SVG Version: 6.00 Build 0)  -->

<svg
   xmlns:dc="http://purl.org/dc/elements/1.1/"
   xmlns:cc="http://creativecommons.org/ns#"
   xmlns:rdf="http://www.w3.org/1999/02/22-rdf-syntax-ns#"
   xmlns:svg="http://www.w3.org/2000/svg"
   xmlns="http://www.w3.org/2000/svg"
   xmlns:sodipodi="http://sodipodi.sourceforge.net/DTD/sodipodi-0.dtd"
   xmlns:inkscape="http://www.inkscape.org/namespaces/inkscape"
   version="1.1"
   x="0px"
   y="0px"
   viewBox="0 0 286.44519 479.99998"
   xml:space="preserve"
   id="svg2236"
   sodipodi:docname="meow_v4_coin_fixed.svg"
   width="286.44519"
   height="480"
   inkscape:version="0.92.3 (2405546, 2018-03-11)"
   inkscape:export-filename="C:\Users\Daniel\Desktop\defcon26-meow\pcb\eagle\art prep\meow_v4_coin_fixed.png"
   inkscape:export-xdpi="300"
   inkscape:export-ydpi="300"><sodipodi:namedview
   pagecolor="#ffffff"
   bordercolor="#666666"
   borderopacity="1"
   objecttolerance="10"
   gridtolerance="10"
   guidetolerance="10"
   inkscape:pageopacity="0"
   inkscape:pageshadow="2"
   inkscape:window-width="1920"
   inkscape:window-height="1003"
   id="namedview2238"
   showgrid="false"
   inkscape:pagecheckerboard="true"
   fit-margin-top="0"
   fit-margin-left="0"
   fit-margin-right="0"
   fit-margin-bottom="0"
   inkscape:zoom="2.8284271"
   inkscape:cx="132.17752"
   inkscape:cy="106.19355"
   inkscape:window-x="-9"
   inkscape:window-y="-9"
   inkscape:window-maximized="1"
   inkscape:current-layer="svg2236"><inkscape:grid
     type="xygrid"
     id="grid2787"
     originx="-27.864413"
     originy="-1.1999882" /></sodipodi:namedview><metadata
   id="metadata2242"><rdf:RDF><cc:Work
       rdf:about=""><dc:format>image/svg+xml</dc:format><dc:type
         rdf:resource="http://purl.org/dc/dcmitype/StillImage" /><dc:title></dc:title></cc:Work></rdf:RDF></metadata><defs
   id="defs2240">
	
	
	
	
	
	
	
	
	
	
	
	
	
	
	
	
	
	
	
	
	
	
	
	
	
	
	
	
	
	

		
		
	
		
			
		
		
	
			
				
			
				
		</defs>
<style
   type="text/css"
   id="style2062">
	.st0{fill:#EFEFEF;}
	.st1{fill:#F16B6C;}
	.st2{fill:#FFFFFF;}
	.st3{fill:none;stroke:#F16B6C;stroke-width:4.5536;stroke-linecap:round;stroke-miterlimit:10;}
	.st4{fill:#FFCC00;}
</style>
<g
   id="svg8"
   inkscape:export-filename="C:\Users\dash\Documents\GitHub\defcon26-meow\art\meow_v1.png"
   inkscape:export-xdpi="96"
   inkscape:export-ydpi="96"
   inkscape:version="0.92.1 r15371"
   sodipodi:docname="meow_v3.svg"
   transform="translate(-27.864413,141)">
	
		<sodipodi:namedview
   bordercolor="#666666"
   borderopacity="1.0"
   id="base"
   inkscape:current-layer="layer12"
   inkscape:cx="62.544425"
   inkscape:cy="233.65003"
   inkscape:document-units="cm"
   inkscape:guide-bbox="true"
   inkscape:lockguides="false"
   inkscape:object-nodes="false"
   inkscape:object-paths="false"
   inkscape:pagecheckerboard="true"
   inkscape:pageopacity="0.0"
   inkscape:pageshadow="2"
   inkscape:snap-intersection-paths="false"
   inkscape:snap-nodes="false"
   inkscape:snap-smooth-nodes="false"
   inkscape:snap-to-guides="true"
   inkscape:window-height="1048"
   inkscape:window-maximized="1"
   inkscape:window-width="1735"
   inkscape:window-x="1921"
   inkscape:window-y="0"
   inkscape:zoom="1.4142136"
   objecttolerance="10000"
   pagecolor="#ffffff"
   showgrid="false"
   showguides="false"
   units="cm">
		<sodipodi:guide
   id="guide4491"
   inkscape:locked="false"
   orientation="1,0"
   position="70.114584,301.625" />
		<sodipodi:guide
   id="guide4493"
   inkscape:locked="false"
   orientation="1,0"
   position="129.81167,326.09462" />
		<inkscape:grid
   id="grid4495"
   type="xygrid" />
		<sodipodi:guide
   id="guide4499"
   inkscape:locked="false"
   orientation="0,1"
   position="-19.84375,260.04762" />
		<sodipodi:guide
   id="guide4501"
   inkscape:locked="false"
   orientation="0,1"
   position="-20.032738,179.91667" />
		<sodipodi:guide
   id="guide4503"
   inkscape:locked="false"
   orientation="0,1"
   position="-16.630952,270.06399" />
		<sodipodi:guide
   id="guide4512"
   inkscape:locked="false"
   orientation="0,1"
   position="-19.465774,219.98214" />
		<sodipodi:guide
   id="guide4514"
   inkscape:locked="false"
   orientation="-0.82575936,0.56402259"
   position="60.098215,179.91667">
			</sodipodi:guide>
		<sodipodi:guide
   id="guide4518"
   inkscape:locked="false"
   orientation="-0.82575936,-0.56402259"
   position="140.07024,179.91667">
			</sodipodi:guide>
		<sodipodi:guide
   id="guide4520"
   inkscape:locked="false"
   orientation="1,0"
   position="79.941963,226.97471" />
		<sodipodi:guide
   id="guide4522"
   inkscape:locked="false"
   orientation="1,0"
   position="119.93731,202.36411" />
		<sodipodi:guide
   id="guide4541"
   inkscape:locked="false"
   orientation="1,0"
   position="124.99885,314.20012" />
		<sodipodi:guide
   id="guide4543"
   inkscape:locked="false"
   orientation="1,0"
   position="74.835466,302.68275" />
		<sodipodi:guide
   id="guide4584"
   inkscape:locked="false"
   orientation="0,1"
   position="83.871844,297.00001" />
		<sodipodi:guide
   id="guide4586"
   inkscape:locked="false"
   orientation="0,1"
   position="44.675444,230.00027" />
		<sodipodi:guide
   id="guide4588"
   inkscape:locked="false"
   orientation="0,1"
   position="70.109929,209.50604" />
		<sodipodi:guide
   id="guide4590"
   inkscape:locked="false"
   orientation="0,1"
   position="63.219967,249.92962" />
		<sodipodi:guide
   id="guide4592"
   inkscape:locked="false"
   orientation="0,1"
   position="59.968654,242.10238" />
		<sodipodi:guide
   id="guide4594"
   inkscape:locked="false"
   orientation="1,0"
   position="88.033508,219.98214" />
		<sodipodi:guide
   id="guide4596"
   inkscape:locked="false"
   orientation="1,0"
   position="111.92945,245.11286" />
		<sodipodi:guide
   id="guide4598"
   inkscape:locked="false"
   orientation="1,0"
   position="93.926808,245.11286" />
		<sodipodi:guide
   id="guide4600"
   inkscape:locked="false"
   orientation="1,0"
   position="106.08913,212.41909" />
		<sodipodi:guide
   id="guide4612"
   inkscape:locked="false"
   orientation="0,1"
   position="88.026276,238.4296" />
		<sodipodi:guide
   id="guide4614"
   inkscape:locked="false"
   orientation="0,1"
   position="85.076013,233.9741" />
		<sodipodi:guide
   id="guide4669"
   inkscape:locked="false"
   orientation="0.59697004,0.80226353"
   position="91.879688,214.3759">
			</sodipodi:guide>
		<sodipodi:guide
   id="guide4692"
   inkscape:locked="false"
   orientation="1,0"
   position="100.00044,239.56605" />
		<sodipodi:guide
   id="guide4725"
   inkscape:locked="false"
   orientation="0,1"
   position="63.761852,190.02117" />
		<sodipodi:guide
   id="guide4727"
   inkscape:locked="false"
   orientation="0,1"
   position="84.297592,194.9914" />
	</sodipodi:namedview>
</g>
<path
   style="fill:#000000;stroke-width:1.52712798;fill-opacity:1"
   d="M130.92969 326.98242L128.442774176 327.053475103L125.963516437 327.267150807L123.501289874 327.623252143L121.063052221 328.12089149L118.6582 328.75781L119.610795941 330.170547206L120.49805 331.62695L123.116111192 330.771512356L125.832264658 330.308428418L128.584999481 330.248298424L131.317870144 330.591238598L133.971384594 331.32949142L136.488615936 332.447757676L138.815175936 333.92297802L140.90039 335.72266L142.816595873 337.962266389L144.358664794 340.474404136L145.485584543 343.197804734L146.171222399 346.064728099L146.401261654 349.004299738L146.171237961 351.942993141L145.485438191 354.810466873L144.358743101 357.533262246L142.81660112 360.045546407L140.90039 362.28516L138.856203999 364.046051394L136.580595606 365.496009139L134.121964357 366.604520939L131.5293 367.34961L132.953904403 369.848574528L133.979442334 372.534912053L134.581226704 375.346740249L134.746484772 378.217885378L134.472728418 381.080729116L133.766220042 383.868881537L132.641921609 386.516615478L131.125566371 388.959957702L129.25391 391.14258L127.066903224 393.016459378L124.61994912 394.532962636L121.969321338 395.656099499L119.177779817 396.360794702L116.31145643 396.631822102L113.436930526 396.462799991L110.621769174 395.85603475L107.933838262 394.824766657L105.43555 393.39453L104.682989885 395.97699007L103.569097675 398.425757043L102.117620698 400.689242742L100.35742 402.72266L98.2409398514 404.539482513L95.8794871405 406.022342408L93.3257435158 407.138888985L90.6340160926 407.865465781L87.863281 408.18555L87.863281 410.712025953L87.863281 413.237786968L87.863281 415.763356573L87.863281 418.290072239L87.863281 420.817018382L87.863281 423.34375L87.896185438 424.870991971L87.982422 426.39648L90.5142837186 427.95429257L92.928123698 429.690094276L95.2109650984 431.593862253L97.3526683098 433.656816786L99.3408138437 435.867014334L101.165017496 438.213007003L102.816845118 440.684824535L104.286139846 443.268664461L105.565025916 445.952211531L106.646211667 448.722094025L107.52300293 451.562461583L108.190914593 454.458505221L108.647355747 457.397295693L108.89062 460.35938L111.42241642 461.754653232L114.043281396 462.977083629L116.739038655 464.01946481L119.50045418 464.877852518L122.313396322 465.547707405L125.164813094 466.026466965L128.040604971 466.313038286L130.92969 466.4082L133.677590464 466.4082L136.42705396 466.4082L139.175803941 466.4082L141.925400458 466.4082L144.674296543 466.4082L147.423189955 466.4082L150.171576814 466.4082L152.919469412 466.4082L155.66797 466.4082L158.515621098 466.314505386L161.351189012 466.032438612L164.160448825 465.56205993L166.93318898 464.904343015L169.654285641 464.062782219L172.314436846 463.04064904L174.90005053 461.843856836L177.40039 460.47852L177.616324353 457.681102814L178.021884923 454.90418043L178.61639773 452.161210764L179.397295377 449.466378878L180.361130019 446.831462116L181.502817264 444.26929806L182.81677742 441.790979827L184.29628396 439.407869541L185.935001483 437.129320186L187.724010471 434.967114933L189.655025784 432.930721183L191.718733316 431.02972945L193.905374697 429.273087112L196.206720287 427.667842054L198.61133 426.22266L198.73438 423.34375L198.73438 420.383246145L198.73438 417.422584816L198.73438 414.46168459L198.73438 411.501171403L198.73438 408.540153058L198.73438 405.57830015L198.73438 402.61737734L198.73438 399.656072883L198.73438 396.69479471L198.73438 393.733562993L198.73438 390.77296254L198.73438 387.81283035L198.73438 384.852647305L198.73438 381.892331281L198.73438 378.930047634L198.73438 375.968585686L198.73438 373.007870723L198.73438 370.04688L198.636128629 367.107481482L198.340059883 364.180948102L197.845350353 361.28029375L197.153128591 358.420336472L196.266354561 355.615669198L195.188535187 352.877884493L193.925366184 350.221054625L192.483177567 347.657381194L190.869005917 345.19832172L189.091052777 342.855454042L187.157876207 340.639339001L185.0771336 338.558679679L182.86036719 336.625121471L180.517629157 334.847454113L178.058467551 333.233370339L175.493694547 331.790741377L172.836461187 330.527589427L170.098253072 329.449809672L167.293243754 328.563127861L164.433907011 327.87121331L161.533934727 327.376700883L158.608070875 327.080708075L155.66797 326.98242L152.920069536 326.98242L150.17060604 326.98242L147.421856059 326.98242L144.672259542 326.98242L141.923363457 326.98242L139.174470045 326.98242L136.426083186 326.98242L133.678190588 326.98242L130.92969 326.98242L130.92969 326.98242"
   id="path2170" />
<g
   id="Layer_3"
   transform="translate(-27.864413,141)">
</g>
</svg>