<?xml version="1.0" encoding="UTF-8" standalone="no"?>
<!-- Generator: Adobe Illustrator 21.0.2, SVG Export Plug-In . SVG Version: 6.00 Build 0)  -->

<svg
   xmlns:dc="http://purl.org/dc/elements/1.1/"
   xmlns:cc="http://creativecommons.org/ns#"
   xmlns:rdf="http://www.w3.org/1999/02/22-rdf-syntax-ns#"
   xmlns:svg="http://www.w3.org/2000/svg"
   xmlns="http://www.w3.org/2000/svg"
   xmlns:sodipodi="http://sodipodi.sourceforge.net/DTD/sodipodi-0.dtd"
   xmlns:inkscape="http://www.inkscape.org/namespaces/inkscape"
   version="1.1"
   x="0px"
   y="0px"
   viewBox="0 0 286.44519 479.99998"
   xml:space="preserve"
   id="svg2236"
   sodipodi:docname="meow_v4_whitesilk.svg"
   width="286.44519"
   height="480"
   inkscape:version="0.92.3 (2405546, 2018-03-11)"
   inkscape:export-filename="C:\Users\Daniel\Desktop\defcon26-meow\pcb\eagle\art prep\meow_v4_whitesilk_standalonepcb.png"
   inkscape:export-xdpi="300"
   inkscape:export-ydpi="300"><sodipodi:namedview
   pagecolor="#ffffff"
   bordercolor="#666666"
   borderopacity="1"
   objecttolerance="10"
   gridtolerance="10"
   guidetolerance="10"
   inkscape:pageopacity="0"
   inkscape:pageshadow="2"
   inkscape:window-width="1920"
   inkscape:window-height="1003"
   id="namedview2238"
   showgrid="false"
   inkscape:pagecheckerboard="true"
   fit-margin-top="0"
   fit-margin-left="0"
   fit-margin-right="0"
   fit-margin-bottom="0"
   inkscape:zoom="1.3874191"
   inkscape:cx="31.316386"
   inkscape:cy="214.67519"
   inkscape:window-x="-9"
   inkscape:window-y="-9"
   inkscape:window-maximized="1"
   inkscape:current-layer="svg2236"
   showguides="true"
   inkscape:guide-bbox="true"><inkscape:grid
     originy="-1.1999882"
     originx="-27.864413"
     id="grid2787"
     type="xygrid" /><sodipodi:guide
     position="143,261.63687"
     orientation="1,0"
     id="guide1632"
     inkscape:locked="false"
     inkscape:label=""
     inkscape:color="rgb(0,0,255)" /><sodipodi:guide
     position="-165.05467,338.75848"
     orientation="0,1"
     id="guide1634"
     inkscape:locked="false"
     inkscape:label=""
     inkscape:color="rgb(0,0,255)" /></sodipodi:namedview><metadata
   id="metadata2242"><rdf:RDF><cc:Work
       rdf:about=""><dc:format>image/svg+xml</dc:format><dc:type
         rdf:resource="http://purl.org/dc/dcmitype/StillImage" /><dc:title></dc:title></cc:Work></rdf:RDF></metadata><defs
   id="defs2240">
	
	
	
	
	
	
	
	
	
	
	
	
	
	
	
	
	
	
	
	
	
	
	
	
	
	
	
	
	
	

		
		
		
	
		
		
		
	
		
			
		
		
	
			
				
			
				
		
		
		
	</defs>
<style
   id="style2062"
   type="text/css">
	.st0{fill:#EFEFEF;}
	.st1{fill:#F16B6C;}
	.st2{fill:#FFFFFF;}
	.st3{fill:none;stroke:#F16B6C;stroke-width:4.5536;stroke-linecap:round;stroke-miterlimit:10;}
	.st4{fill:#FFCC00;}
</style>
<g
   transform="translate(-27.864413,141)"
   sodipodi:docname="meow_v3.svg"
   inkscape:version="0.92.1 r15371"
   inkscape:export-ydpi="96"
   inkscape:export-xdpi="96"
   inkscape:export-filename="C:\Users\dash\Documents\GitHub\defcon26-meow\art\meow_v1.png"
   id="svg8">
	
		<sodipodi:namedview
   units="cm"
   showguides="false"
   showgrid="false"
   pagecolor="#ffffff"
   objecttolerance="10000"
   inkscape:zoom="1.4142136"
   inkscape:window-y="0"
   inkscape:window-x="1921"
   inkscape:window-width="1735"
   inkscape:window-maximized="1"
   inkscape:window-height="1048"
   inkscape:snap-to-guides="true"
   inkscape:snap-smooth-nodes="false"
   inkscape:snap-nodes="false"
   inkscape:snap-intersection-paths="false"
   inkscape:pageshadow="2"
   inkscape:pageopacity="0.0"
   inkscape:pagecheckerboard="true"
   inkscape:object-paths="false"
   inkscape:object-nodes="false"
   inkscape:lockguides="false"
   inkscape:guide-bbox="true"
   inkscape:document-units="cm"
   inkscape:cy="233.65003"
   inkscape:cx="62.544425"
   inkscape:current-layer="layer12"
   id="base"
   borderopacity="1.0"
   bordercolor="#666666">
		<sodipodi:guide
   position="70.114584,301.625"
   orientation="1,0"
   inkscape:locked="false"
   id="guide4491" />
		<sodipodi:guide
   position="129.81167,326.09462"
   orientation="1,0"
   inkscape:locked="false"
   id="guide4493" />
		<inkscape:grid
   type="xygrid"
   id="grid4495" />
		<sodipodi:guide
   position="-19.84375,260.04762"
   orientation="0,1"
   inkscape:locked="false"
   id="guide4499" />
		<sodipodi:guide
   position="-20.032738,179.91667"
   orientation="0,1"
   inkscape:locked="false"
   id="guide4501" />
		<sodipodi:guide
   position="-16.630952,270.06399"
   orientation="0,1"
   inkscape:locked="false"
   id="guide4503" />
		<sodipodi:guide
   position="-19.465774,219.98214"
   orientation="0,1"
   inkscape:locked="false"
   id="guide4512" />
		<sodipodi:guide
   position="60.098215,179.91667"
   orientation="-0.82575936,0.56402259"
   inkscape:locked="false"
   id="guide4514">
			</sodipodi:guide>
		<sodipodi:guide
   position="140.07024,179.91667"
   orientation="-0.82575936,-0.56402259"
   inkscape:locked="false"
   id="guide4518">
			</sodipodi:guide>
		<sodipodi:guide
   position="79.941963,226.97471"
   orientation="1,0"
   inkscape:locked="false"
   id="guide4520" />
		<sodipodi:guide
   position="119.93731,202.36411"
   orientation="1,0"
   inkscape:locked="false"
   id="guide4522" />
		<sodipodi:guide
   position="124.99885,314.20012"
   orientation="1,0"
   inkscape:locked="false"
   id="guide4541" />
		<sodipodi:guide
   position="74.835466,302.68275"
   orientation="1,0"
   inkscape:locked="false"
   id="guide4543" />
		<sodipodi:guide
   position="83.871844,297.00001"
   orientation="0,1"
   inkscape:locked="false"
   id="guide4584" />
		<sodipodi:guide
   position="44.675444,230.00027"
   orientation="0,1"
   inkscape:locked="false"
   id="guide4586" />
		<sodipodi:guide
   position="70.109929,209.50604"
   orientation="0,1"
   inkscape:locked="false"
   id="guide4588" />
		<sodipodi:guide
   position="63.219967,249.92962"
   orientation="0,1"
   inkscape:locked="false"
   id="guide4590" />
		<sodipodi:guide
   position="59.968654,242.10238"
   orientation="0,1"
   inkscape:locked="false"
   id="guide4592" />
		<sodipodi:guide
   position="88.033508,219.98214"
   orientation="1,0"
   inkscape:locked="false"
   id="guide4594" />
		<sodipodi:guide
   position="111.92945,245.11286"
   orientation="1,0"
   inkscape:locked="false"
   id="guide4596" />
		<sodipodi:guide
   position="93.926808,245.11286"
   orientation="1,0"
   inkscape:locked="false"
   id="guide4598" />
		<sodipodi:guide
   position="106.08913,212.41909"
   orientation="1,0"
   inkscape:locked="false"
   id="guide4600" />
		<sodipodi:guide
   position="88.026276,238.4296"
   orientation="0,1"
   inkscape:locked="false"
   id="guide4612" />
		<sodipodi:guide
   position="85.076013,233.9741"
   orientation="0,1"
   inkscape:locked="false"
   id="guide4614" />
		<sodipodi:guide
   position="91.879688,214.3759"
   orientation="0.59697004,0.80226353"
   inkscape:locked="false"
   id="guide4669">
			</sodipodi:guide>
		<sodipodi:guide
   position="100.00044,239.56605"
   orientation="1,0"
   inkscape:locked="false"
   id="guide4692" />
		<sodipodi:guide
   position="63.761852,190.02117"
   orientation="0,1"
   inkscape:locked="false"
   id="guide4725" />
		<sodipodi:guide
   position="84.297592,194.9914"
   orientation="0,1"
   inkscape:locked="false"
   id="guide4727" />
	</sodipodi:namedview>
</g>
<path
   id="path9983"
   d="M 160.80273 276.71289 A 24.281334 24.281334 0 0 0 159.09375 275.11914 A 24.281334 24.281334 0 0 0 157.16211 273.65039 A 24.281334 24.281334 0 0 0 155.0918 272.38086 A 24.281334 24.281334 0 0 0 152.9082 271.32617 A 24.281334 24.281334 0 0 0 150.62695 270.49414 A 24.281334 24.281334 0 0 0 148.27539 269.89258 A 24.281334 24.281334 0 0 0 145.875 269.53125 A 24.281334 24.281334 0 0 0 143.45117 269.4082 A 24.281334 24.281334 0 0 0 141.73438 269.4707 A 24.281334 24.281334 0 0 0 139.32422 269.76172 A 24.281334 24.281334 0 0 0 136.95703 270.29297 A 24.281334 24.281334 0 0 0 134.65234 271.05859 A 24.281334 24.281334 0 0 0 132.4375 272.05078 A 24.281334 24.281334 0 0 0 130.33203 273.25781 A 24.281334 24.281334 0 0 0 128.35742 274.66992 A 24.281334 24.281334 0 0 0 126.53516 276.27148 A 24.281334 24.281334 0 0 0 125.9707 276.87695 A 89.18428 89.18428 0 0 0 126.00977 276.88281 A 24.281334 24.281334 0 0 1 126.55078 276.30273 A 24.281334 24.281334 0 0 1 128.375 274.70117 A 24.281334 24.281334 0 0 1 130.34961 273.28906 A 24.281334 24.281334 0 0 1 132.45508 272.08008 A 24.281334 24.281334 0 0 1 134.66992 271.08984 A 24.281334 24.281334 0 0 1 136.97266 270.32422 A 24.281334 24.281334 0 0 1 139.3418 269.79297 A 24.281334 24.281334 0 0 1 141.75 269.5 A 24.281334 24.281334 0 0 1 143.46875 269.43945 A 24.281334 24.281334 0 0 1 145.89258 269.56055 A 24.281334 24.281334 0 0 1 148.29297 269.92383 A 24.281334 24.281334 0 0 1 150.64453 270.52344 A 24.281334 24.281334 0 0 1 152.92383 271.35547 A 24.281334 24.281334 0 0 1 155.10938 272.41211 A 24.281334 24.281334 0 0 1 157.17773 273.67969 A 24.281334 24.281334 0 0 1 159.11133 275.14844 A 24.281334 24.281334 0 0 1 160.79297 276.71484 A 89.18428 89.18428 0 0 0 160.80273 276.71289 z "
   style="fill:#efefef;stroke-width:1.52712798" /><path
   style="fill:#000011;stroke-width:1.52712798;fill-opacity:1"
   d="M 47.527344 0.01171875 C 40.625441 0.27866788 34.052261 4.9681292 32.429688 12.699219 L 11.263672 112.62305 C 10.481117 115.39191 9.8343159 118.22378 9.3691406 121.125 L 9.0625 123.01367 L 8.9121094 123.7207 L 8.9511719 123.69727 L 0.97070312 172.74219 C -3.3165916 199.26982 6.9238331 224.38225 25.357422 240.66406 C 25.190898 240.97687 25.016115 241.2846 24.853516 241.59961 C 24.416696 242.44587 23.99453 243.30114 23.585938 244.16406 C 23.178424 245.02471 22.785013 245.89285 22.40625 246.76953 C 22.028811 247.64313 21.666582 248.52507 21.318359 249.41406 C 20.971261 250.30016 20.637725 251.19291 20.320312 252.09375 C 20.003978 252.99153 19.704169 253.8967 19.417969 254.80859 C 19.133007 255.71653 18.861867 256.63133 18.607422 257.55273 C 18.354301 258.46933 18.116816 259.39287 17.894531 260.32227 C 17.673285 261.24732 17.467417 262.17801 17.277344 263.11523 C 17.088393 264.04692 16.915344 264.98452 16.757812 265.92773 C 16.601212 266.86537 16.460885 267.80928 16.335938 268.75781 C 16.211823 269.70001 16.102059 270.64715 16.009766 271.59961 C 15.918186 272.54467 15.842871 273.49453 15.783203 274.44922 L 15.599609 277.41406 L 15.416016 280.37891 L 15.230469 283.3418 L 15.046875 286.30664 L 14.863281 289.26953 L 14.679688 292.23438 L 14.494141 295.19922 L 14.310547 298.16211 L 14.126953 301.12695 L 13.943359 304.0918 L 13.757812 307.05469 L 13.574219 310.01953 L 13.390625 312.98438 L 13.207031 315.94727 L 13.023438 318.91211 L 12.837891 321.87695 L 12.654297 324.8418 L 12.470703 327.80469 L 12.287109 330.76953 L 12.101562 333.73438 L 11.917969 336.69727 L 11.734375 339.66211 L 11.550781 342.625 L 11.365234 345.58984 L 11.181641 348.55469 L 10.998047 351.51758 L 10.814453 354.48242 L 10.630859 357.44727 L 10.445312 360.41016 L 10.261719 363.375 L 10.078125 366.33789 L 9.8945312 369.30273 L 9.7089844 372.26758 L 9.5253906 375.23242 L 9.3417969 378.19531 L 9.1582031 381.16016 L 8.9726562 384.12305 L 8.7890625 387.08789 L 8.6054688 390.05273 C 8.5456987 391.04365 8.5036934 392.03151 8.4785156 393.01562 C 8.4531436 394.00748 8.443926 394.99595 8.453125 395.98047 C 8.462395 396.97257 8.4893951 397.96126 8.5332031 398.94531 C 8.5773141 399.93616 8.6402033 400.92224 8.71875 401.9043 C 8.797775 402.89235 8.892568 403.87498 9.0058594 404.85352 C 9.1198922 405.83845 9.2522446 406.81831 9.4003906 407.79297 C 9.5493622 408.77305 9.7155845 409.74777 9.8984375 410.7168 C 10.082129 411.69028 10.282738 412.65943 10.5 413.62109 C 10.718293 414.58732 10.953525 415.54636 11.205078 416.5 C 11.457687 417.45764 11.726211 418.40927 12.011719 419.35352 C 12.298243 420.30113 12.60091 421.24233 12.919922 422.17578 C 13.240182 423.11288 13.577337 424.04271 13.929688 424.96484 C 14.28292 425.88928 14.652283 426.80614 15.037109 427.71484 C 15.422937 428.6259 15.823312 429.52719 16.240234 430.42188 C 16.658201 431.31865 17.092468 432.20845 17.541016 433.08789 C 17.817184 433.62936 18.11069 434.16064 18.398438 434.69531 C 26.321198 425.23813 38.209745 419.21094 51.482422 419.21094 L 67.210938 419.21094 C 72.542923 419.21094 77.648747 420.18846 82.367188 421.96484 L 82.367188 409.57031 C 78.725864 408.72568 75.266425 406.91108 72.435547 404.08008 L 72.433594 404.08008 C 66.886893 398.52499 65.1721 390.3658 67.601562 382.99805 C 65.217962 381.48433 62.93291 379.74737 60.851562 377.66602 L 27.712891 344.52734 C 12.476317 329.29078 12.476318 304.66821 27.712891 289.43164 C 35.331108 281.81342 45.301242 277.98828 55.259766 277.98828 C 65.218289 277.98828 75.190246 281.8133 82.808594 289.43164 L 115.94727 322.57031 C 117.65453 324.27758 119.12013 326.12408 120.42773 328.04688 C 123.38428 327.46177 126.43126 327.13477 129.55469 327.13477 L 156.73828 327.13477 C 182.85217 327.13477 203.92578 348.3611 203.92578 374.32227 L 203.92578 421.53125 C 208.50937 419.86837 213.45096 418.95703 218.60156 418.95703 L 234.33008 418.95703 C 247.81422 418.95703 259.86844 425.17803 267.78711 434.89648 C 268.11275 434.29533 268.44101 433.69562 268.75195 433.08594 C 269.20048 432.20646 269.63283 431.31868 270.05078 430.42188 C 270.46781 429.52704 270.86994 428.62428 271.25586 427.71289 C 271.64079 426.80384 272.00996 425.88575 272.36328 424.96094 C 272.71555 424.03886 273.05286 423.10893 273.37305 422.17188 C 273.69216 421.238 273.99466 420.29766 274.28125 419.34961 C 274.56662 418.4056 274.8354 417.45348 275.08789 416.49609 C 275.33937 415.54252 275.57475 414.58335 275.79297 413.61719 C 276.01018 412.65551 276.21088 411.68833 276.39453 410.71484 C 276.57726 409.74618 276.74175 408.77072 276.89062 407.79102 C 277.03868 406.8167 277.17119 405.83811 277.28516 404.85352 C 277.39844 403.87491 277.49327 402.89047 277.57227 401.90234 C 277.65077 400.92058 277.71372 399.9339 277.75781 398.94336 C 277.80161 397.95924 277.82869 396.97265 277.83789 395.98047 C 277.84689 394.996 277.8377 394.0075 277.8125 393.01562 C 277.7873 392.03154 277.74532 391.04346 277.68555 390.05273 L 277.50195 387.08789 L 277.31641 384.12305 L 277.13281 381.16016 L 276.94922 378.19531 L 276.76562 375.23242 L 276.58203 372.26758 L 276.39648 369.30273 L 276.21289 366.33984 L 276.0293 363.375 L 275.8457 360.41016 L 275.66016 357.44727 L 275.47656 354.48242 L 275.29297 351.51758 L 275.10938 348.55469 L 274.92578 345.58984 L 274.74023 342.625 L 274.55664 339.66016 L 274.37305 336.69531 L 274.18945 333.73242 L 274.00391 330.76758 L 273.82031 327.80469 L 273.63672 324.83984 L 273.45312 321.87695 L 273.26758 318.91211 L 273.08398 315.94727 L 272.90039 312.98438 L 272.7168 310.01953 L 272.5332 307.05469 L 272.34766 304.0918 L 272.16406 301.12695 L 271.98047 298.16406 L 271.79688 295.19922 L 271.61133 292.23438 L 271.42773 289.26953 L 271.24414 286.30664 L 271.06055 283.3418 L 270.875 280.37891 L 270.69141 277.41406 L 270.50781 274.44922 C 270.45131 273.49168 270.37781 272.53965 270.28906 271.5918 C 270.19966 270.63702 270.09418 269.68665 269.97266 268.74219 C 269.85033 267.79146 269.71285 266.84603 269.55859 265.90625 C 269.40338 264.96068 269.23184 264.01992 269.04492 263.08594 C 268.85697 262.14683 268.65297 261.21399 268.43359 260.28711 C 268.213 259.3551 267.97634 258.42889 267.72461 257.50977 C 267.47161 256.58601 267.20373 255.66999 266.91992 254.75977 C 266.63493 253.84577 266.33492 252.93888 266.01953 252.03906 C 265.70289 251.13572 265.37005 250.24006 265.02344 249.35156 C 264.67562 248.45997 264.31289 247.57531 263.93555 246.69922 C 263.55714 245.82062 263.16523 244.95036 262.75781 244.08789 C 262.34916 243.22282 261.92543 242.36586 261.48828 241.51758 C 261.34624 241.24194 261.19374 240.97297 261.04883 240.69922 C 279.50722 224.4184 289.76496 199.28871 285.47461 172.74219 L 277.47656 123.5918 L 277.68555 123.7207 L 276.5625 118.38086 C 276.48037 117.97524 276.39513 117.57097 276.30664 117.16797 L 254.32031 12.699219 C 252.69774 4.9681305 246.12456 0.27866788 239.22266 0.01171875 C 235.08152 -0.14845073 230.82213 1.2839653 227.44336 4.6054688 L 172.61914 58.359375 L 188.8457 68.455078 C 188.69002 69.906525 188.47209 71.34008 188.18359 72.748047 C 187.57483 75.719086 186.67757 78.585472 185.52148 81.316406 C 184.3654 84.04734 182.95055 86.64288 181.30859 89.072266 C 179.66663 91.501652 177.79686 93.765636 175.73047 95.832031 C 173.66407 97.898426 171.40204 99.768104 168.97266 101.41016 C 166.54327 103.05212 163.94773 104.46696 161.2168 105.62305 C 158.48586 106.77913 155.61948 107.67639 152.64844 108.28516 C 149.6774 108.89392 146.60087 109.21289 143.45117 109.21289 C 140.30147 109.21289 137.2269 108.89392 134.25586 108.28516 C 131.28482 107.67639 128.41843 106.77913 125.6875 105.62305 C 122.95657 104.46696 120.36103 103.05212 117.93164 101.41016 C 115.50225 99.768104 113.23825 97.898426 111.17188 95.832031 C 109.10545 93.765636 107.23571 91.501652 105.59375 89.072266 C 103.95179 86.64288 102.53694 84.04734 101.38086 81.316406 C 100.22478 78.585472 99.327513 75.719086 98.71875 72.748047 C 98.423356 71.30639 98.200517 69.838742 98.044922 68.351562 L 114.13086 58.359375 L 59.306641 4.6054688 C 55.92787 1.2839653 51.668485 -0.14845073 47.527344 0.01171875 z M 51.341797 17.474609 C 52.331447 17.435239 53.329844 17.523749 54.310547 17.748047 C 55.291249 17.972344 56.253809 18.333223 57.171875 18.837891 C 58.089941 19.342559 58.963883 19.991227 59.765625 20.792969 L 99.164062 59.429688 L 97.791016 60.283203 L 97.791016 58.359375 L 83.130859 58.359375 C 61.989877 58.359375 42.639791 67.213604 28.923828 81.642578 L 40.523438 26.595703 C 40.752507 25.488535 41.12472 24.46803 41.613281 23.541016 C 42.101843 22.614001 42.706025 21.780939 43.400391 21.050781 C 44.094757 20.320623 44.88008 19.69238 45.726562 19.175781 C 46.573045 18.659182 47.480871 18.253133 48.425781 17.966797 C 49.370692 17.68046 50.352146 17.513981 51.341797 17.474609 z M 235.41016 17.474609 C 236.39981 17.513979 237.37931 17.68046 238.32422 17.966797 C 239.26913 18.253133 240.17891 18.659182 241.02539 19.175781 C 241.87187 19.69238 242.65524 20.320623 243.34961 21.050781 C 244.04398 21.780939 244.64816 22.614001 245.13672 23.541016 C 245.62528 24.46803 245.99749 25.488535 246.22656 26.595703 L 257.93164 82.142578 C 244.20271 67.416801 224.69963 58.359375 203.31445 58.359375 L 189.11328 58.359375 L 189.11328 60.378906 L 187.58594 59.429688 L 226.98633 20.792969 C 227.78807 19.991227 228.66014 19.342559 229.57812 18.837891 C 230.4962 18.333223 231.45875 17.972344 232.43945 17.748047 C 233.42016 17.52375 234.42051 17.435238 235.41016 17.474609 z M 72.525391 110.54492 C 92.836193 110.54492 109.48279 127.03881 109.33008 147.34961 C 109.33008 167.66042 92.836193 184.15234 72.525391 184.15234 C 52.214585 184.15234 35.722656 167.66042 35.722656 147.34961 C 35.722656 127.03881 52.214585 110.54492 72.525391 110.54492 z M 213.02148 110.54492 C 233.33229 110.54492 249.97888 127.03881 249.82617 147.34961 C 249.82617 167.66042 233.33229 184.15234 213.02148 184.15234 C 192.71068 184.15234 176.21875 167.66042 176.21875 147.34961 C 176.21875 127.03881 192.71068 110.54492 213.02148 110.54492 z M 72.525391 113.59961 C 53.894425 113.59961 38.777344 128.71865 38.777344 147.34961 C 38.777344 165.98057 53.894425 181.09961 72.525391 181.09961 C 91.156352 181.09961 106.27539 165.98057 106.27539 147.34961 C 106.27539 128.71865 91.156352 113.59961 72.525391 113.59961 z M 213.02148 113.59961 C 194.39052 113.59961 179.27148 128.71865 179.27148 147.34961 C 179.27148 165.98057 194.39052 181.09961 213.02148 181.09961 C 231.65244 181.09961 246.77148 165.98057 246.77148 147.34961 C 246.77148 128.71865 231.65244 113.59961 213.02148 113.59961 z M 72.525391 119.25 A 28.099155 28.099155 0 0 1 100.625 147.34961 A 28.099155 28.099155 0 0 1 72.525391 175.44922 A 28.099155 28.099155 0 0 1 44.427734 147.34961 A 28.099155 28.099155 0 0 1 72.525391 119.25 z M 213.02148 119.25 A 28.099155 28.099155 0 0 1 241.12109 147.34961 A 28.099155 28.099155 0 0 1 213.02148 175.44922 A 28.099155 28.099155 0 0 1 184.92188 147.34961 A 28.099155 28.099155 0 0 1 213.02148 119.25 z M 128.48633 181.14062 L 157.95898 181.14062 C 160.5551 181.14062 161.77628 184.3475 159.79102 186.02734 L 147.03711 196.92188 C 147.12091 197.48344 147.21745 198.04089 147.3418 198.58789 C 147.53191 199.42425 147.76949 200.24264 148.04883 201.04102 C 148.33151 201.84895 148.6569 202.63658 149.02539 203.40039 C 149.39692 204.1705 149.81065 204.91727 150.26367 205.63672 C 150.71877 206.35945 151.21475 207.05336 151.74609 207.71875 C 152.2789 208.38597 152.84794 209.02379 153.45117 209.62695 C 154.05414 210.22986 154.69046 210.79951 155.35742 211.33203 C 156.02277 211.86327 156.71873 212.3575 157.44141 212.8125 C 158.16084 213.26546 158.90764 213.67931 159.67773 214.05078 C 160.44143 214.41917 161.22736 214.74669 162.03516 215.0293 C 162.83353 215.3086 163.65192 215.54426 164.48828 215.73438 C 165.31165 215.92149 166.15396 216.0629 167.00977 216.1582 C 167.84794 216.2516 168.70079 216.30078 169.56641 216.30078 C 170.43227 216.30078 171.28464 216.25158 172.12305 216.1582 C 172.97883 216.0628 173.81924 215.92153 174.64258 215.73438 C 175.47894 215.54425 176.29733 215.30668 177.0957 215.02734 C 177.90363 214.74466 178.69127 214.41928 179.45508 214.05078 C 180.22519 213.67925 180.97196 213.26553 181.69141 212.8125 C 182.41414 212.35741 183.11 211.86142 183.77539 211.33008 C 184.44261 210.79728 185.07848 210.22823 185.68164 209.625 C 186.28454 209.02203 186.85419 208.38572 187.38672 207.71875 C 187.91795 207.0534 188.41219 206.35744 188.86719 205.63477 C 189.32015 204.91533 189.73399 204.16853 190.10547 203.39844 C 190.47386 202.63474 190.80138 201.84881 191.08398 201.04102 C 191.36329 200.24264 191.59897 199.42425 191.78906 198.58789 C 191.9762 197.76452 192.11759 196.92221 192.21289 196.06641 C 192.30629 195.22823 192.35547 194.37734 192.35547 193.51172 A 3.4773126 3.4773126 0 1 1 199.30859 193.51172 C 199.30859 194.63489 199.24679 195.74473 199.125 196.83789 C 199.00065 197.95404 198.81497 199.05244 198.57031 200.12891 C 198.32179 201.22235 198.01178 202.29178 197.64648 203.33594 C 197.27688 204.39242 196.85051 205.42201 196.36914 206.41992 C 195.88374 207.42619 195.34305 208.40102 194.75195 209.33984 C 194.1582 210.28289 193.51279 211.18934 192.82031 212.05664 C 192.12615 212.92605 191.38518 213.75535 190.59961 214.54102 C 189.81369 215.32702 188.98302 216.06915 188.11328 216.76367 C 187.24592 217.45629 186.33961 218.10144 185.39648 218.69531 C 184.45765 219.28649 183.48285 219.82703 182.47656 220.3125 C 181.4785 220.79401 180.44924 221.22209 179.39258 221.5918 C 178.34842 221.95713 177.27704 222.2671 176.18359 222.51562 C 175.10717 222.76031 174.0087 222.94593 172.89258 223.07031 C 171.79912 223.19221 170.6899 223.25391 169.56641 223.25391 C 168.44323 223.25391 167.33144 223.19211 166.23828 223.07031 C 165.12213 222.94596 164.02373 222.76029 162.94727 222.51562 C 161.85382 222.26712 160.78439 221.95709 159.74023 221.5918 C 158.68375 221.22219 157.65416 220.79583 156.65625 220.31445 C 155.64998 219.82905 154.67515 219.28836 153.73633 218.69727 C 152.79328 218.10351 151.88683 217.4581 151.01953 216.76562 C 150.15012 216.07146 149.32082 215.3305 148.53516 214.54492 C 147.74915 213.75901 147.00702 212.92833 146.3125 212.05859 C 145.61988 211.19124 144.97473 210.28492 144.38086 209.3418 C 143.9662 208.68328 143.58596 208.00095 143.22266 207.30859 C 142.85969 208.00014 142.48054 208.68208 142.06641 209.33984 C 141.47265 210.28289 140.82724 211.18934 140.13477 212.05664 C 139.4406 212.92605 138.69964 213.75535 137.91406 214.54102 C 137.12815 215.32702 136.29747 216.06915 135.42773 216.76367 C 134.56038 217.45629 133.65406 218.10144 132.71094 218.69531 C 131.7721 219.28649 130.7973 219.82703 129.79102 220.3125 C 128.79295 220.79401 127.76369 221.22209 126.70703 221.5918 C 125.66287 221.95713 124.5915 222.26712 123.49805 222.51562 C 122.42162 222.76031 121.32315 222.94593 120.20703 223.07031 C 119.11357 223.19221 118.0024 223.25391 116.87891 223.25391 C 115.75573 223.25391 114.64589 223.19211 113.55273 223.07031 C 112.43658 222.94596 111.33818 222.7603 110.26172 222.51562 C 109.16828 222.26712 108.09689 221.95709 107.05273 221.5918 C 105.99625 221.22219 104.96862 220.79583 103.9707 220.31445 C 102.96444 219.82905 101.98961 219.28836 101.05078 218.69727 C 100.10773 218.10351 99.201286 217.4581 98.333984 216.76562 C 97.464576 216.07146 96.633322 215.3305 95.847656 214.54492 C 95.06165 213.75901 94.31952 212.92833 93.625 212.05859 C 92.932379 211.19124 92.287234 210.28492 91.693359 209.3418 C 91.102186 208.40296 90.5636 207.42813 90.078125 206.42188 C 89.596619 205.4238 89.168532 204.39455 88.798828 203.33789 C 88.433498 202.29373 88.123554 201.22235 87.875 200.12891 C 87.630315 199.05248 87.444699 197.95401 87.320312 196.83789 C 87.198453 195.74443 87.136719 194.63521 87.136719 193.51172 A 3.4773126 3.4773126 0 0 1 90.560547 189.98438 A 3.4773126 3.4773126 0 0 1 94.089844 193.51172 C 94.089844 194.37759 94.138984 195.22995 94.232422 196.06836 C 94.327792 196.92414 94.469095 197.76455 94.65625 198.58789 C 94.846365 199.42425 95.081993 200.24264 95.361328 201.04102 C 95.644007 201.84895 95.971349 202.63658 96.339844 203.40039 C 96.711375 204.1705 97.1251 204.91727 97.578125 205.63672 C 98.03322 206.35945 98.529202 207.05336 99.060547 207.71875 C 99.593348 208.38597 100.16242 209.02379 100.76562 209.62695 C 101.36863 210.22986 102.00488 210.79951 102.67188 211.33203 C 103.33723 211.86327 104.03319 212.3575 104.75586 212.8125 C 105.47529 213.26546 106.2221 213.67931 106.99219 214.05078 C 107.75588 214.41917 108.54181 214.74669 109.34961 215.0293 C 110.14798 215.3086 110.96638 215.54426 111.80273 215.73438 C 112.6261 215.92149 113.46646 216.0629 114.32227 216.1582 C 115.16044 216.2516 116.01329 216.30078 116.87891 216.30078 C 117.74478 216.30078 118.59909 216.25158 119.4375 216.1582 C 120.29328 216.0628 121.13369 215.92152 121.95703 215.73438 C 122.79339 215.54425 123.61178 215.30668 124.41016 215.02734 C 125.21809 214.74466 126.00572 214.41928 126.76953 214.05078 C 127.53964 213.67925 128.28446 213.26553 129.00391 212.8125 C 129.72664 212.35741 130.4225 211.86142 131.08789 211.33008 C 131.75511 210.79728 132.39293 210.22823 132.99609 209.625 C 133.599 209.02203 134.16865 208.38572 134.70117 207.71875 C 135.23241 207.0534 135.72664 206.35744 136.18164 205.63477 C 136.6346 204.91533 137.04845 204.16853 137.41992 203.39844 C 137.78831 202.63474 138.11388 201.84881 138.39648 201.04102 C 138.67579 200.24264 138.91343 199.42425 139.10352 198.58789 C 139.24486 197.96598 139.35045 197.33062 139.43945 196.68945 L 126.95898 186.02734 C 124.66828 184.3475 125.89022 181.14066 128.48633 181.14062 z M 232.63477 188.35352 L 250.35156 188.35352 A 3.4773126 3.4773126 0 0 1 250.66406 188.36133 A 3.4773126 3.4773126 0 0 1 251.00977 188.40039 A 3.4773126 3.4773126 0 0 1 251.34961 188.47461 A 3.4773126 3.4773126 0 0 1 251.67969 188.58398 A 3.4773126 3.4773126 0 0 1 251.99805 188.72461 A 3.4773126 3.4773126 0 0 1 252.29883 188.89453 A 3.4773126 3.4773126 0 0 1 252.58398 189.0957 A 3.4773126 3.4773126 0 0 1 252.8457 189.32422 A 3.4773126 3.4773126 0 0 1 253.08398 189.57617 A 3.4773126 3.4773126 0 0 1 253.29492 189.85352 A 3.4773126 3.4773126 0 0 1 253.47852 190.14844 A 3.4773126 3.4773126 0 0 1 253.63086 190.46094 A 3.4773126 3.4773126 0 0 1 253.75195 190.78711 A 3.4773126 3.4773126 0 0 1 253.83984 191.12305 A 3.4773126 3.4773126 0 0 1 253.89453 191.4668 A 3.4773126 3.4773126 0 0 1 253.91211 191.8125 A 3.4773126 3.4773126 0 0 1 253.89648 192.16016 A 3.4773126 3.4773126 0 0 1 253.84766 192.50391 A 3.4773126 3.4773126 0 0 1 253.76367 192.8418 A 3.4773126 3.4773126 0 0 1 253.64453 193.16797 A 3.4773126 3.4773126 0 0 1 253.49609 193.48242 A 3.4773126 3.4773126 0 0 1 253.31641 193.7793 A 3.4773126 3.4773126 0 0 1 253.10742 194.05664 A 3.4773126 3.4773126 0 0 1 252.87109 194.3125 A 3.4773126 3.4773126 0 0 1 252.61133 194.54297 A 3.4773126 3.4773126 0 0 1 252.33008 194.74805 A 3.4773126 3.4773126 0 0 1 252.0293 194.92188 A 3.4773126 3.4773126 0 0 1 251.71289 195.06445 A 3.4773126 3.4773126 0 0 1 251.38281 195.17578 A 3.4773126 3.4773126 0 0 1 251.04492 195.25391 A 3.4773126 3.4773126 0 0 1 250.69922 195.29883 A 3.4773126 3.4773126 0 0 1 250.35156 195.30664 L 232.63477 195.30664 A 3.4773126 3.4773126 0 0 1 232.32227 195.30078 A 3.4773126 3.4773126 0 0 1 231.97656 195.25977 A 3.4773126 3.4773126 0 0 1 231.63867 195.18555 A 3.4773126 3.4773126 0 0 1 231.30664 195.07812 A 3.4773126 3.4773126 0 0 1 230.99023 194.9375 A 3.4773126 3.4773126 0 0 1 230.6875 194.76562 A 3.4773126 3.4773126 0 0 1 230.40234 194.56641 A 3.4773126 3.4773126 0 0 1 230.14062 194.33789 A 3.4773126 3.4773126 0 0 1 229.90234 194.08398 A 3.4773126 3.4773126 0 0 1 229.69141 193.80859 A 3.4773126 3.4773126 0 0 1 229.50781 193.51367 A 3.4773126 3.4773126 0 0 1 229.35547 193.20117 A 3.4773126 3.4773126 0 0 1 229.23438 192.875 A 3.4773126 3.4773126 0 0 1 229.14648 192.53906 A 3.4773126 3.4773126 0 0 1 229.0918 192.19531 A 3.4773126 3.4773126 0 0 1 229.07422 191.84766 A 3.4773126 3.4773126 0 0 1 229.08984 191.50195 A 3.4773126 3.4773126 0 0 1 229.13867 191.15625 A 3.4773126 3.4773126 0 0 1 229.22461 190.82031 A 3.4773126 3.4773126 0 0 1 229.3418 190.49219 A 3.4773126 3.4773126 0 0 1 229.49023 190.17969 A 3.4773126 3.4773126 0 0 1 229.67188 189.88086 A 3.4773126 3.4773126 0 0 1 229.88086 189.60352 A 3.4773126 3.4773126 0 0 1 230.11523 189.34766 A 3.4773126 3.4773126 0 0 1 230.375 189.11719 A 3.4773126 3.4773126 0 0 1 230.6582 188.91406 A 3.4773126 3.4773126 0 0 1 230.95703 188.74023 A 3.4773126 3.4773126 0 0 1 231.27344 188.5957 A 3.4773126 3.4773126 0 0 1 231.60352 188.48438 A 3.4773126 3.4773126 0 0 1 231.94336 188.40625 A 3.4773126 3.4773126 0 0 1 232.28711 188.36328 A 3.4773126 3.4773126 0 0 1 232.63477 188.35352 z M 40.980469 188.50586 L 58.697266 188.50586 A 3.4777897 3.4777897 0 0 1 58.841797 188.50977 A 3.4777897 3.4777897 0 0 1 59.1875 188.54102 A 3.4777897 3.4777897 0 0 1 59.529297 188.60742 A 3.4777897 3.4777897 0 0 1 59.861328 188.70703 A 3.4777897 3.4777897 0 0 1 60.183594 188.83984 A 3.4777897 3.4777897 0 0 1 60.490234 189.00391 A 3.4777897 3.4777897 0 0 1 60.779297 189.19727 A 3.4777897 3.4777897 0 0 1 61.046875 189.41992 A 3.4777897 3.4777897 0 0 1 61.291016 189.66797 A 3.4777897 3.4777897 0 0 1 61.509766 189.9375 A 3.4777897 3.4777897 0 0 1 61.699219 190.22852 A 3.4777897 3.4777897 0 0 1 61.859375 190.53711 A 3.4777897 3.4777897 0 0 1 61.988281 190.85938 A 3.4777897 3.4777897 0 0 1 62.083984 191.19336 A 3.4777897 3.4777897 0 0 1 62.146484 191.53711 A 3.4777897 3.4777897 0 0 1 62.173828 191.88281 A 3.4777897 3.4777897 0 0 1 62.166016 192.23047 A 3.4777897 3.4777897 0 0 1 62.125 192.57617 A 3.4777897 3.4777897 0 0 1 62.048828 192.91406 A 3.4777897 3.4777897 0 0 1 61.939453 193.24414 A 3.4777897 3.4777897 0 0 1 61.796875 193.5625 A 3.4777897 3.4777897 0 0 1 61.623047 193.86328 A 3.4777897 3.4777897 0 0 1 61.421875 194.14648 A 3.4777897 3.4777897 0 0 1 61.191406 194.4082 A 3.4777897 3.4777897 0 0 1 60.9375 194.64453 A 3.4777897 3.4777897 0 0 1 60.660156 194.85547 A 3.4777897 3.4777897 0 0 1 60.365234 195.03711 A 3.4777897 3.4777897 0 0 1 60.050781 195.1875 A 3.4777897 3.4777897 0 0 1 59.724609 195.30664 A 3.4777897 3.4777897 0 0 1 59.388672 195.39258 A 3.4777897 3.4777897 0 0 1 59.044922 195.44531 A 3.4777897 3.4777897 0 0 1 58.697266 195.46289 L 40.980469 195.46289 A 3.4777897 3.4777897 0 0 1 40.835938 195.45898 A 3.4777897 3.4777897 0 0 1 40.490234 195.42773 A 3.4777897 3.4777897 0 0 1 40.148438 195.36133 A 3.4777897 3.4777897 0 0 1 39.814453 195.26172 A 3.4777897 3.4777897 0 0 1 39.494141 195.12891 A 3.4777897 3.4777897 0 0 1 39.1875 194.96484 A 3.4777897 3.4777897 0 0 1 38.898438 194.76953 A 3.4777897 3.4777897 0 0 1 38.630859 194.54883 A 3.4777897 3.4777897 0 0 1 38.386719 194.30078 A 3.4777897 3.4777897 0 0 1 38.167969 194.03125 A 3.4777897 3.4777897 0 0 1 37.978516 193.74023 A 3.4777897 3.4777897 0 0 1 37.818359 193.43164 A 3.4777897 3.4777897 0 0 1 37.689453 193.10938 A 3.4777897 3.4777897 0 0 1 37.59375 192.77539 A 3.4777897 3.4777897 0 0 1 37.53125 192.43164 A 3.4777897 3.4777897 0 0 1 37.503906 192.08594 A 3.4777897 3.4777897 0 0 1 37.511719 191.73828 A 3.4777897 3.4777897 0 0 1 37.552734 191.39258 A 3.4777897 3.4777897 0 0 1 37.628906 191.05469 A 3.4777897 3.4777897 0 0 1 37.738281 190.72461 A 3.4777897 3.4777897 0 0 1 37.880859 190.40625 A 3.4777897 3.4777897 0 0 1 38.054688 190.10547 A 3.4777897 3.4777897 0 0 1 38.255859 189.82227 A 3.4777897 3.4777897 0 0 1 38.486328 189.56055 A 3.4777897 3.4777897 0 0 1 38.740234 189.32422 A 3.4777897 3.4777897 0 0 1 39.015625 189.11328 A 3.4777897 3.4777897 0 0 1 39.3125 188.93164 A 3.4777897 3.4777897 0 0 1 39.625 188.78125 A 3.4777897 3.4777897 0 0 1 39.953125 188.66211 A 3.4777897 3.4777897 0 0 1 40.289062 188.57617 A 3.4777897 3.4777897 0 0 1 40.632812 188.52344 A 3.4777897 3.4777897 0 0 1 40.980469 188.50586 z M 40.980469 201.79102 L 58.697266 201.79102 A 3.4777897 3.4777897 0 0 1 58.841797 201.79492 A 3.4777897 3.4777897 0 0 1 59.1875 201.82617 A 3.4777897 3.4777897 0 0 1 59.529297 201.89258 A 3.4777897 3.4777897 0 0 1 59.861328 201.99219 A 3.4777897 3.4777897 0 0 1 60.183594 202.125 A 3.4777897 3.4777897 0 0 1 60.490234 202.28906 A 3.4777897 3.4777897 0 0 1 60.779297 202.48242 A 3.4777897 3.4777897 0 0 1 61.046875 202.70508 A 3.4777897 3.4777897 0 0 1 61.291016 202.95117 A 3.4777897 3.4777897 0 0 1 61.509766 203.22266 A 3.4777897 3.4777897 0 0 1 61.699219 203.51367 A 3.4777897 3.4777897 0 0 1 61.859375 203.82227 A 3.4777897 3.4777897 0 0 1 61.988281 204.14453 A 3.4777897 3.4777897 0 0 1 62.083984 204.47852 A 3.4777897 3.4777897 0 0 1 62.146484 204.82031 A 3.4777897 3.4777897 0 0 1 62.173828 205.16797 A 3.4777897 3.4777897 0 0 1 62.166016 205.51562 A 3.4777897 3.4777897 0 0 1 62.125 205.85938 A 3.4777897 3.4777897 0 0 1 62.048828 206.19922 A 3.4777897 3.4777897 0 0 1 61.939453 206.5293 A 3.4777897 3.4777897 0 0 1 61.796875 206.8457 A 3.4777897 3.4777897 0 0 1 61.623047 207.14844 A 3.4777897 3.4777897 0 0 1 61.421875 207.43164 A 3.4777897 3.4777897 0 0 1 61.191406 207.69141 A 3.4777897 3.4777897 0 0 1 60.9375 207.92969 A 3.4777897 3.4777897 0 0 1 60.660156 208.13867 A 3.4777897 3.4777897 0 0 1 60.365234 208.32031 A 3.4777897 3.4777897 0 0 1 60.050781 208.47266 A 3.4777897 3.4777897 0 0 1 59.724609 208.5918 A 3.4777897 3.4777897 0 0 1 59.388672 208.67773 A 3.4777897 3.4777897 0 0 1 59.044922 208.73047 A 3.4777897 3.4777897 0 0 1 58.697266 208.74609 L 40.980469 208.74609 A 3.4777897 3.4777897 0 0 1 40.835938 208.74414 A 3.4777897 3.4777897 0 0 1 40.490234 208.71289 A 3.4777897 3.4777897 0 0 1 40.148438 208.64648 A 3.4777897 3.4777897 0 0 1 39.814453 208.54688 A 3.4777897 3.4777897 0 0 1 39.494141 208.41406 A 3.4777897 3.4777897 0 0 1 39.1875 208.25 A 3.4777897 3.4777897 0 0 1 38.898438 208.05469 A 3.4777897 3.4777897 0 0 1 38.630859 207.83398 A 3.4777897 3.4777897 0 0 1 38.386719 207.58594 A 3.4777897 3.4777897 0 0 1 38.167969 207.31641 A 3.4777897 3.4777897 0 0 1 37.978516 207.02539 A 3.4777897 3.4777897 0 0 1 37.818359 206.7168 A 3.4777897 3.4777897 0 0 1 37.689453 206.39258 A 3.4777897 3.4777897 0 0 1 37.59375 206.05859 A 3.4777897 3.4777897 0 0 1 37.53125 205.7168 A 3.4777897 3.4777897 0 0 1 37.503906 205.37109 A 3.4777897 3.4777897 0 0 1 37.511719 205.02344 A 3.4777897 3.4777897 0 0 1 37.552734 204.67773 A 3.4777897 3.4777897 0 0 1 37.628906 204.33789 A 3.4777897 3.4777897 0 0 1 37.738281 204.00977 A 3.4777897 3.4777897 0 0 1 37.880859 203.69141 A 3.4777897 3.4777897 0 0 1 38.054688 203.39062 A 3.4777897 3.4777897 0 0 1 38.255859 203.10742 A 3.4777897 3.4777897 0 0 1 38.486328 202.8457 A 3.4777897 3.4777897 0 0 1 38.740234 202.60938 A 3.4777897 3.4777897 0 0 1 39.015625 202.39844 A 3.4777897 3.4777897 0 0 1 39.3125 202.2168 A 3.4777897 3.4777897 0 0 1 39.625 202.06641 A 3.4777897 3.4777897 0 0 1 39.953125 201.94727 A 3.4777897 3.4777897 0 0 1 40.289062 201.86133 A 3.4777897 3.4777897 0 0 1 40.632812 201.80859 A 3.4777897 3.4777897 0 0 1 40.980469 201.79102 z M 232.63477 201.79102 L 250.35156 201.79102 A 3.4777897 3.4777897 0 0 1 250.49609 201.79492 A 3.4777897 3.4777897 0 0 1 250.8418 201.82617 A 3.4777897 3.4777897 0 0 1 251.18359 201.89258 A 3.4777897 3.4777897 0 0 1 251.51758 201.99219 A 3.4777897 3.4777897 0 0 1 251.83789 202.125 A 3.4777897 3.4777897 0 0 1 252.14453 202.28906 A 3.4777897 3.4777897 0 0 1 252.43359 202.48242 A 3.4777897 3.4777897 0 0 1 252.70117 202.70508 A 3.4777897 3.4777897 0 0 1 252.94531 202.95117 A 3.4777897 3.4777897 0 0 1 253.16406 203.22266 A 3.4777897 3.4777897 0 0 1 253.35352 203.51367 A 3.4777897 3.4777897 0 0 1 253.51367 203.82227 A 3.4777897 3.4777897 0 0 1 253.64258 204.14453 A 3.4777897 3.4777897 0 0 1 253.73828 204.47852 A 3.4777897 3.4777897 0 0 1 253.80078 204.82031 A 3.4777897 3.4777897 0 0 1 253.82812 205.16797 A 3.4777897 3.4777897 0 0 1 253.82031 205.51562 A 3.4777897 3.4777897 0 0 1 253.7793 205.85938 A 3.4777897 3.4777897 0 0 1 253.70312 206.19922 A 3.4777897 3.4777897 0 0 1 253.59375 206.5293 A 3.4777897 3.4777897 0 0 1 253.45117 206.8457 A 3.4777897 3.4777897 0 0 1 253.27734 207.14844 A 3.4777897 3.4777897 0 0 1 253.07617 207.43164 A 3.4777897 3.4777897 0 0 1 252.8457 207.69141 A 3.4777897 3.4777897 0 0 1 252.5918 207.92969 A 3.4777897 3.4777897 0 0 1 252.31641 208.13867 A 3.4777897 3.4777897 0 0 1 252.01953 208.32031 A 3.4777897 3.4777897 0 0 1 251.70703 208.47266 A 3.4777897 3.4777897 0 0 1 251.37891 208.5918 A 3.4777897 3.4777897 0 0 1 251.04297 208.67773 A 3.4777897 3.4777897 0 0 1 250.69922 208.73047 A 3.4777897 3.4777897 0 0 1 250.35156 208.74609 L 232.63477 208.74609 A 3.4777897 3.4777897 0 0 1 232.49023 208.74414 A 3.4777897 3.4777897 0 0 1 232.14453 208.71289 A 3.4777897 3.4777897 0 0 1 231.80273 208.64648 A 3.4777897 3.4777897 0 0 1 231.4707 208.54688 A 3.4777897 3.4777897 0 0 1 231.14844 208.41406 A 3.4777897 3.4777897 0 0 1 230.8418 208.25 A 3.4777897 3.4777897 0 0 1 230.55273 208.05469 A 3.4777897 3.4777897 0 0 1 230.28516 207.83398 A 3.4777897 3.4777897 0 0 1 230.04102 207.58594 A 3.4777897 3.4777897 0 0 1 229.82227 207.31641 A 3.4777897 3.4777897 0 0 1 229.63281 207.02539 A 3.4777897 3.4777897 0 0 1 229.47266 206.7168 A 3.4777897 3.4777897 0 0 1 229.34375 206.39258 A 3.4777897 3.4777897 0 0 1 229.24805 206.05859 A 3.4777897 3.4777897 0 0 1 229.18555 205.7168 A 3.4777897 3.4777897 0 0 1 229.1582 205.37109 A 3.4777897 3.4777897 0 0 1 229.16602 205.02344 A 3.4777897 3.4777897 0 0 1 229.20703 204.67773 A 3.4777897 3.4777897 0 0 1 229.2832 204.33789 A 3.4777897 3.4777897 0 0 1 229.39258 204.00977 A 3.4777897 3.4777897 0 0 1 229.53516 203.69141 A 3.4777897 3.4777897 0 0 1 229.70898 203.39062 A 3.4777897 3.4777897 0 0 1 229.91016 203.10742 A 3.4777897 3.4777897 0 0 1 230.14062 202.8457 A 3.4777897 3.4777897 0 0 1 230.39453 202.60938 A 3.4777897 3.4777897 0 0 1 230.67188 202.39844 A 3.4777897 3.4777897 0 0 1 230.9668 202.2168 A 3.4777897 3.4777897 0 0 1 231.28125 202.06641 A 3.4777897 3.4777897 0 0 1 231.60742 201.94727 A 3.4777897 3.4777897 0 0 1 231.94336 201.86133 A 3.4777897 3.4777897 0 0 1 232.28711 201.80859 A 3.4777897 3.4777897 0 0 1 232.63477 201.79102 z M 40.980469 215.07812 L 58.697266 215.07812 A 3.4773126 3.4773126 0 0 1 59.009766 215.08594 A 3.4773126 3.4773126 0 0 1 59.355469 215.125 A 3.4773126 3.4773126 0 0 1 59.693359 215.19922 A 3.4773126 3.4773126 0 0 1 60.025391 215.30859 A 3.4773126 3.4773126 0 0 1 60.341797 215.44922 A 3.4773126 3.4773126 0 0 1 60.644531 215.61914 A 3.4773126 3.4773126 0 0 1 60.929688 215.82031 A 3.4773126 3.4773126 0 0 1 61.191406 216.04883 A 3.4773126 3.4773126 0 0 1 61.429688 216.30273 A 3.4773126 3.4773126 0 0 1 61.640625 216.57812 A 3.4773126 3.4773126 0 0 1 61.824219 216.87305 A 3.4773126 3.4773126 0 0 1 61.976562 217.18555 A 3.4773126 3.4773126 0 0 1 62.097656 217.51172 A 3.4773126 3.4773126 0 0 1 62.185547 217.84766 A 3.4773126 3.4773126 0 0 1 62.240234 218.19141 A 3.4773126 3.4773126 0 0 1 62.257812 218.53711 A 3.4773126 3.4773126 0 0 1 62.242188 218.88477 A 3.4773126 3.4773126 0 0 1 62.193359 219.22852 A 3.4773126 3.4773126 0 0 1 62.107422 219.56641 A 3.4773126 3.4773126 0 0 1 61.990234 219.89258 A 3.4773126 3.4773126 0 0 1 61.841797 220.20703 A 3.4773126 3.4773126 0 0 1 61.660156 220.50391 A 3.4773126 3.4773126 0 0 1 61.451172 220.78125 A 3.4773126 3.4773126 0 0 1 61.216797 221.03711 A 3.4773126 3.4773126 0 0 1 60.957031 221.26758 A 3.4773126 3.4773126 0 0 1 60.673828 221.47266 A 3.4773126 3.4773126 0 0 1 60.375 221.64648 A 3.4773126 3.4773126 0 0 1 60.056641 221.78906 A 3.4773126 3.4773126 0 0 1 59.728516 221.90039 A 3.4773126 3.4773126 0 0 1 59.388672 221.97852 A 3.4773126 3.4773126 0 0 1 59.044922 222.02344 A 3.4773126 3.4773126 0 0 1 58.697266 222.03125 L 40.980469 222.03125 A 3.4773126 3.4773126 0 0 1 40.667969 222.02539 A 3.4773126 3.4773126 0 0 1 40.322266 221.98438 A 3.4773126 3.4773126 0 0 1 39.982422 221.91016 A 3.4773126 3.4773126 0 0 1 39.652344 221.80273 A 3.4773126 3.4773126 0 0 1 39.333984 221.66211 A 3.4773126 3.4773126 0 0 1 39.033203 221.49023 A 3.4773126 3.4773126 0 0 1 38.748047 221.29102 A 3.4773126 3.4773126 0 0 1 38.486328 221.0625 A 3.4773126 3.4773126 0 0 1 38.248047 220.80859 A 3.4773126 3.4773126 0 0 1 38.037109 220.5332 A 3.4773126 3.4773126 0 0 1 37.853516 220.23828 A 3.4773126 3.4773126 0 0 1 37.701172 219.92578 A 3.4773126 3.4773126 0 0 1 37.580078 219.59961 A 3.4773126 3.4773126 0 0 1 37.492188 219.26367 A 3.4773126 3.4773126 0 0 1 37.4375 218.91992 A 3.4773126 3.4773126 0 0 1 37.419922 218.57227 A 3.4773126 3.4773126 0 0 1 37.435547 218.22656 A 3.4773126 3.4773126 0 0 1 37.484375 217.88281 A 3.4773126 3.4773126 0 0 1 37.568359 217.54492 A 3.4773126 3.4773126 0 0 1 37.6875 217.2168 A 3.4773126 3.4773126 0 0 1 37.835938 216.9043 A 3.4773126 3.4773126 0 0 1 38.015625 216.60742 A 3.4773126 3.4773126 0 0 1 38.224609 216.32812 A 3.4773126 3.4773126 0 0 1 38.460938 216.07422 A 3.4773126 3.4773126 0 0 1 38.720703 215.8418 A 3.4773126 3.4773126 0 0 1 39.001953 215.63867 A 3.4773126 3.4773126 0 0 1 39.302734 215.46484 A 3.4773126 3.4773126 0 0 1 39.619141 215.32031 A 3.4773126 3.4773126 0 0 1 39.949219 215.20898 A 3.4773126 3.4773126 0 0 1 40.287109 215.13086 A 3.4773126 3.4773126 0 0 1 40.632812 215.08789 A 3.4773126 3.4773126 0 0 1 40.980469 215.07812 z M 232.63477 215.07812 L 250.35156 215.07812 A 3.4773126 3.4773126 0 0 1 250.66406 215.08594 A 3.4773126 3.4773126 0 0 1 251.00977 215.125 A 3.4773126 3.4773126 0 0 1 251.34961 215.19922 A 3.4773126 3.4773126 0 0 1 251.67969 215.30859 A 3.4773126 3.4773126 0 0 1 251.99805 215.44922 A 3.4773126 3.4773126 0 0 1 252.29883 215.61914 A 3.4773126 3.4773126 0 0 1 252.58398 215.82031 A 3.4773126 3.4773126 0 0 1 252.8457 216.04883 A 3.4773126 3.4773126 0 0 1 253.08398 216.30273 A 3.4773126 3.4773126 0 0 1 253.29492 216.57812 A 3.4773126 3.4773126 0 0 1 253.47852 216.87305 A 3.4773126 3.4773126 0 0 1 253.63086 217.18555 A 3.4773126 3.4773126 0 0 1 253.75195 217.51172 A 3.4773126 3.4773126 0 0 1 253.83984 217.84766 A 3.4773126 3.4773126 0 0 1 253.89453 218.19141 A 3.4773126 3.4773126 0 0 1 253.91211 218.53711 A 3.4773126 3.4773126 0 0 1 253.89648 218.88477 A 3.4773126 3.4773126 0 0 1 253.84766 219.22852 A 3.4773126 3.4773126 0 0 1 253.76367 219.56641 A 3.4773126 3.4773126 0 0 1 253.64453 219.89258 A 3.4773126 3.4773126 0 0 1 253.49609 220.20703 A 3.4773126 3.4773126 0 0 1 253.31641 220.50391 A 3.4773126 3.4773126 0 0 1 253.10742 220.78125 A 3.4773126 3.4773126 0 0 1 252.87109 221.03711 A 3.4773126 3.4773126 0 0 1 252.61133 221.26758 A 3.4773126 3.4773126 0 0 1 252.33008 221.47266 A 3.4773126 3.4773126 0 0 1 252.0293 221.64648 A 3.4773126 3.4773126 0 0 1 251.71289 221.78906 A 3.4773126 3.4773126 0 0 1 251.38281 221.90039 A 3.4773126 3.4773126 0 0 1 251.04492 221.97852 A 3.4773126 3.4773126 0 0 1 250.69922 222.02344 A 3.4773126 3.4773126 0 0 1 250.35156 222.03125 L 232.63477 222.03125 A 3.4773126 3.4773126 0 0 1 232.32227 222.02539 A 3.4773126 3.4773126 0 0 1 231.97656 221.98438 A 3.4773126 3.4773126 0 0 1 231.63867 221.91016 A 3.4773126 3.4773126 0 0 1 231.30664 221.80273 A 3.4773126 3.4773126 0 0 1 230.99023 221.66211 A 3.4773126 3.4773126 0 0 1 230.6875 221.49023 A 3.4773126 3.4773126 0 0 1 230.40234 221.29102 A 3.4773126 3.4773126 0 0 1 230.14062 221.0625 A 3.4773126 3.4773126 0 0 1 229.90234 220.80859 A 3.4773126 3.4773126 0 0 1 229.69141 220.5332 A 3.4773126 3.4773126 0 0 1 229.50781 220.23828 A 3.4773126 3.4773126 0 0 1 229.35547 219.92578 A 3.4773126 3.4773126 0 0 1 229.23438 219.59961 A 3.4773126 3.4773126 0 0 1 229.14648 219.26367 A 3.4773126 3.4773126 0 0 1 229.0918 218.91992 A 3.4773126 3.4773126 0 0 1 229.07422 218.57227 A 3.4773126 3.4773126 0 0 1 229.08984 218.22656 A 3.4773126 3.4773126 0 0 1 229.13867 217.88281 A 3.4773126 3.4773126 0 0 1 229.22461 217.54492 A 3.4773126 3.4773126 0 0 1 229.3418 217.2168 A 3.4773126 3.4773126 0 0 1 229.49023 216.9043 A 3.4773126 3.4773126 0 0 1 229.67188 216.60742 A 3.4773126 3.4773126 0 0 1 229.88086 216.32812 A 3.4773126 3.4773126 0 0 1 230.11523 216.07422 A 3.4773126 3.4773126 0 0 1 230.375 215.8418 A 3.4773126 3.4773126 0 0 1 230.6582 215.63867 A 3.4773126 3.4773126 0 0 1 230.95703 215.46484 A 3.4773126 3.4773126 0 0 1 231.27344 215.32031 A 3.4773126 3.4773126 0 0 1 231.60352 215.20898 A 3.4773126 3.4773126 0 0 1 231.94336 215.13086 A 3.4773126 3.4773126 0 0 1 232.28711 215.08789 A 3.4773126 3.4773126 0 0 1 232.63477 215.07812 z M 47.658203 254.27344 C 56.019466 257.52786 65.137327 259.33008 74.730469 259.33008 L 87.822266 259.33008 C 89.435961 260.60657 91.0905 261.832 92.789062 262.99414 C 95.242998 264.67324 97.779394 266.22857 100.38867 267.6543 C 102.99815 269.07962 105.67728 270.37356 108.41602 271.53125 C 111.15498 272.68912 113.95014 273.70927 116.79102 274.58789 C 119.63133 275.46707 122.51384 276.20367 125.42773 276.79492 C 125.60864 276.82282 125.78963 276.85015 125.9707 276.87695 C 126.1554 276.67193 126.34358 276.47008 126.53516 276.27148 C 127.11551 275.7076 127.72369 275.17308 128.35742 274.66992 C 128.99167 274.16659 129.65069 273.6953 130.33203 273.25781 C 131.01329 272.82062 131.716 272.41778 132.4375 272.05078 C 133.15878 271.68334 133.89798 271.35219 134.65234 271.05859 C 135.40732 270.7651 136.17651 270.50958 136.95703 270.29297 C 137.73675 270.07655 138.5268 269.89925 139.32422 269.76172 C 140.12225 269.62459 140.92664 269.52746 141.73438 269.4707 C 142.30572 269.4296 142.87835 269.4088 143.45117 269.4082 C 144.26066 269.40879 145.06961 269.4499 145.875 269.53125 C 146.68065 269.61165 147.48178 269.73219 148.27539 269.89258 C 149.06878 270.05377 149.85362 270.25454 150.62695 270.49414 C 151.40077 270.73326 152.16214 271.01095 152.9082 271.32617 C 153.65318 271.64115 154.38195 271.99315 155.0918 272.38086 C 155.80265 272.76924 156.49361 273.19295 157.16211 273.65039 C 157.83007 274.10747 158.47475 274.59767 159.09375 275.11914 C 159.68866 275.62265 160.25898 276.15452 160.80273 276.71289 C 162.88565 276.32317 164.95403 275.85933 167.00391 275.32227 C 169.86865 274.527 172.69184 273.58898 175.46289 272.51172 C 178.23416 271.43393 180.94979 270.21822 183.59961 268.86914 C 186.25007 267.5205 188.83142 266.04013 191.33398 264.43359 C 193.79809 262.85108 196.18201 261.14719 198.47852 259.33008 L 211.71484 259.33008 C 221.22789 259.33008 230.27413 257.55855 238.57812 254.35547 C 238.07846 255.08966 237.57313 255.82075 237.05664 256.54297 C 236.497 257.32554 235.92674 258.10075 235.34766 258.86914 C 234.76858 259.63754 234.18028 260.39849 233.58203 261.15234 C 232.98395 261.90612 232.37636 262.6522 231.75977 263.39062 C 231.14333 264.12885 230.51745 264.85948 229.88281 265.58203 C 229.24794 266.30484 228.60397 267.01979 227.95117 267.72656 C 227.29838 268.43333 226.63722 269.13188 225.9668 269.82227 C 225.29625 270.51266 224.61712 271.19394 223.92969 271.86719 C 223.24242 272.54027 222.54757 273.20569 221.84375 273.86133 C 221.13967 274.51722 220.42734 275.1646 219.70703 275.80273 C 218.98672 276.44085 218.2577 277.06939 217.52148 277.68945 C 216.7856 278.3094 216.04199 278.92026 215.29102 279.52148 C 214.54023 280.12255 213.78113 280.71479 213.01562 281.29688 C 212.24983 281.87917 211.47744 282.45066 210.69727 283.01367 C 209.9171 283.57668 209.13013 284.13037 208.33594 284.67383 C 207.5416 285.21713 206.74108 285.75029 205.93359 286.27344 C 205.12631 286.79647 204.31223 287.30986 203.49219 287.8125 C 202.67185 288.31533 201.84444 288.80686 201.01172 289.28906 C 200.179 289.77126 199.34081 290.24374 198.49609 290.70508 C 197.65166 291.16641 196.8008 291.61667 195.94531 292.05664 C 195.09002 292.49651 194.22922 292.92542 193.36328 293.34375 C 192.49702 293.76223 191.62652 294.16968 190.75 294.56641 C 189.87348 294.96314 188.99184 295.34983 188.10547 295.72461 C 187.21904 296.09934 186.3289 296.46208 185.43359 296.81445 C 184.5385 297.16673 183.63792 297.50811 182.73438 297.83789 C 181.8305 298.16779 180.92363 298.4877 180.01172 298.79492 C 179.09981 299.10215 178.18319 299.39725 177.26367 299.68164 C 176.34451 299.96603 175.42186 300.23873 174.49609 300.5 C 173.57056 300.7612 172.64265 301.01007 171.71094 301.24805 C 170.7789 301.48611 169.84403 301.71302 168.90625 301.92773 C 167.96848 302.14244 167.02705 302.34586 166.08398 302.53711 L 166.06445 302.53906 C 165.98995 302.75237 165.91246 302.96463 165.83203 303.17578 C 165.51711 303.92142 165.16511 304.65085 164.77734 305.36133 C 164.38896 306.07218 163.96525 306.76314 163.50781 307.43164 C 163.05073 308.0996 162.56053 308.74428 162.03906 309.36328 C 161.51757 309.98228 160.96545 310.57482 160.38477 311.13867 C 159.80441 311.70255 159.19623 312.23707 158.5625 312.74023 C 157.92825 313.24356 157.26923 313.71485 156.58789 314.15234 C 155.90663 314.58953 155.20392 314.99238 154.48242 315.35938 C 153.76114 315.72681 153.02194 316.05796 152.26758 316.35156 C 151.5126 316.64505 150.74341 316.90058 149.96289 317.11719 C 149.18317 317.33361 148.39312 317.51091 147.5957 317.64844 C 146.7977 317.78623 145.99332 317.884 145.18555 317.94141 C 144.61418 317.98181 144.04155 318.00205 143.46875 318.00195 C 142.65929 318.00201 141.85034 317.96155 141.04492 317.88086 C 140.23923 317.79986 139.4381 317.67862 138.64453 317.51758 C 137.85117 317.35703 137.06634 317.15691 136.29297 316.91797 C 135.51915 316.67885 134.75778 316.40116 134.01172 316.08594 C 133.26604 315.77039 132.53661 315.41773 131.82617 315.0293 C 131.11603 314.6415 130.42571 314.21844 129.75781 313.76172 C 129.08985 313.30464 128.44517 312.81444 127.82617 312.29297 C 127.20712 311.77084 126.61459 311.21806 126.05078 310.63672 C 125.48623 310.05641 124.95106 309.44823 124.44727 308.81445 C 123.9446 308.18016 123.47396 307.52113 123.03711 306.83984 C 122.59926 306.15862 122.19577 305.45592 121.82812 304.73438 C 121.46851 304.02546 121.14388 303.29934 120.85547 302.55859 C 119.89324 302.38094 118.93381 302.1903 117.97656 301.98828 C 117.01896 301.78618 116.06348 301.57209 115.11133 301.3457 C 114.15917 301.11932 113.20991 300.88142 112.26367 300.63086 C 111.33631 300.37348 110.4126 300.10464 109.49219 299.82422 C 108.572 299.54386 107.65501 299.25245 106.74219 298.94922 C 105.82903 298.64587 104.91903 298.33002 104.01367 298.00391 C 103.10831 297.6778 102.20768 297.34092 101.31055 296.99219 C 100.41368 296.64343 99.520472 296.2831 98.632812 295.91211 C 97.745368 295.54122 96.864158 295.1605 95.986328 294.76758 C 95.108177 294.37451 94.233352 293.96962 93.365234 293.55469 C 92.497116 293.13976 91.635018 292.71395 90.777344 292.27734 C 89.919789 291.84084 89.06688 291.39324 88.220703 290.93555 C 87.374732 290.47797 86.535379 290.0098 85.701172 289.53125 C 84.866659 289.05254 84.039146 288.56392 83.216797 288.06445 C 82.394447 287.56498 81.577373 287.05515 80.767578 286.53516 C 79.957865 286.01522 79.155651 285.4852 78.359375 284.94531 C 77.563294 284.40555 76.772518 283.85625 75.990234 283.29688 C 75.207664 282.73723 74.432474 282.16697 73.664062 281.58789 C 72.895668 281.00881 72.134713 280.42052 71.380859 279.82227 C 70.627083 279.22419 69.880995 278.61659 69.142578 278 C 68.404341 277.38356 67.673719 276.7577 66.951172 276.12305 C 66.228361 275.48818 65.513412 274.84421 64.806641 274.19141 C 64.09987 273.53862 63.401314 272.87745 62.710938 272.20703 C 62.020547 271.53649 61.339267 270.85735 60.666016 270.16992 C 59.992929 269.48265 59.327523 268.78781 58.671875 268.08398 C 58.015987 267.37991 57.368599 266.66758 56.730469 265.94727 C 56.092339 265.22695 55.463814 264.49794 54.84375 263.76172 C 54.223805 263.02584 53.612935 262.28222 53.011719 261.53125 C 52.41065 260.78046 51.818404 260.02137 51.236328 259.25586 C 50.654039 258.49007 50.08254 257.71767 49.519531 256.9375 C 48.956522 256.15733 48.402831 255.37036 47.859375 254.57617 C 47.790952 254.47613 47.726304 254.37367 47.658203 254.27344 z M 55.259766 281.82812 C 46.281909 281.82812 37.317217 285.257 30.427734 292.14648 C 16.648867 305.92535 16.648868 328.03364 30.427734 341.8125 L 63.566406 374.95117 C 65.76918 377.15396 68.184738 378.99757 70.746094 380.49414 L 72.201172 381.3457 L 71.546875 382.89844 C 68.881102 389.22009 70.304741 396.5103 75.152344 401.36523 C 81.754172 407.96617 92.398618 407.9669 99 401.36523 C 101.2938 399.0703 102.87617 396.16239 103.55859 392.99023 L 104.1582 390.20703 L 106.51367 391.80664 C 113.21452 396.35307 122.16646 395.50493 127.89648 389.7832 C 133.609 384.06389 134.46447 375.13146 129.94141 368.43164 L 128.34766 366.07031 L 131.13477 365.47852 C 134.31795 364.80408 137.2381 363.22444 139.54297 360.92773 C 146.14383 354.32619 146.14383 343.68162 139.54297 337.08008 C 134.73378 332.27173 127.52394 330.82341 121.23047 333.40039 L 119.67969 334.03516 L 118.83984 332.58594 C 117.33024 329.97878 115.46815 327.52088 113.23242 325.28516 L 80.09375 292.14648 C 73.204378 285.25712 64.237622 281.82812 55.259766 281.82812 z M 218.60156 422.79688 C 196.88683 422.79688 179.28906 440.39461 179.28906 462.10938 C 179.28906 470.24815 185.72256 476.68164 193.86133 476.68164 L 259.22266 476.68164 C 267.19135 476.68164 273.77759 470.24145 273.64258 462.14062 L 273.64258 462.125 L 273.64258 462.10938 C 273.64258 440.39461 256.04483 422.79688 234.33008 422.79688 L 218.60156 422.79688 z M 51.482422 423.05078 C 29.767685 423.05078 12.169922 440.64853 12.169922 462.36328 C 12.169922 470.50205 18.603417 476.93555 26.742188 476.93555 L 92.103516 476.93555 C 100.24227 476.93555 106.65881 470.51667 106.52344 462.39453 L 106.52344 462.37891 L 106.52344 462.36328 C 106.52344 440.64853 88.925684 423.05078 67.210938 423.05078 L 51.482422 423.05078 z M 37.263672 456.16211 A 3.4773126 3.4773126 0 0 1 40.792969 459.6875 L 40.792969 471.29688 A 3.4773126 3.4773126 0 1 1 33.839844 471.29688 L 33.839844 459.6875 A 3.4773126 3.4773126 0 0 1 37.263672 456.16211 z M 60.169922 456.16211 A 3.4773126 3.4773126 0 0 1 63.699219 459.6875 L 63.699219 471.29688 A 3.4773126 3.4773126 0 1 1 56.746094 471.29688 L 56.746094 459.6875 A 3.4773126 3.4773126 0 0 1 60.169922 456.16211 z M 83.078125 456.16211 A 3.4773126 3.4773126 0 0 1 86.605469 459.6875 L 86.605469 471.29688 A 3.4773126 3.4773126 0 1 1 79.654297 471.29688 L 79.654297 459.6875 A 3.4773126 3.4773126 0 0 1 83.078125 456.16211 z M 205.24805 456.16211 A 3.4773126 3.4773126 0 0 1 208.77539 459.6875 L 208.77539 471.29688 A 3.4773126 3.4773126 0 1 1 201.82422 471.29688 L 201.82422 459.6875 A 3.4773126 3.4773126 0 0 1 205.24805 456.16211 z M 228.1543 456.16211 A 3.4773126 3.4773126 0 0 1 231.68359 459.6875 L 231.68359 471.29688 A 3.4773126 3.4773126 0 1 1 224.73047 471.29688 L 224.73047 459.6875 A 3.4773126 3.4773126 0 0 1 228.1543 456.16211 z M 251.0625 456.16211 A 3.4773126 3.4773126 0 0 1 254.58984 459.6875 L 254.58984 471.29688 A 3.4773126 3.4773126 0 1 1 247.63672 471.29688 L 247.63672 459.6875 A 3.4773126 3.4773126 0 0 1 251.0625 456.16211 z M 106.41211 473.91211 C 104.79724 475.93303 102.75509 477.59222 100.42383 478.77734 L 100.75781 478.77734 L 103.68164 478.77734 L 106.60547 478.77734 L 109.52734 478.77734 L 112.45117 478.77734 L 115.375 478.77734 L 118.29883 478.77734 L 118.9082 478.77734 C 114.4666 477.7513 110.2728 476.09176 106.41211 473.91211 z M 179.80273 473.99805 C 175.97396 476.13554 171.82125 477.76637 167.42773 478.77734 L 167.99414 478.77734 L 170.91797 478.77734 L 173.8418 478.77734 L 176.76367 478.77734 L 179.68945 478.77734 L 182.61133 478.77734 L 185.53516 478.77734 L 186.06445 478.77734 C 183.6433 477.64547 181.50837 476.0141 179.80273 473.99805 z "
   id="path9976" /><g
   transform="matrix(1.527128,0,0,1.527128,-42.552523,-37.69638)"
   id="g2132">
			
		</g><g
   transform="matrix(1.527128,0,0,1.527128,-42.552523,-37.69638)"
   id="g2136">
			
		</g><g
   transform="matrix(1.527128,0,0,1.527128,-42.552523,-37.69638)"
   id="g2140">
			
		</g><g
   transform="matrix(1.527128,0,0,1.527128,-42.552523,-37.69638)"
   id="g2146">
			
		</g><g
   transform="matrix(1.527128,0,0,1.527128,-42.552523,-37.69638)"
   id="g2150">
			
		</g><g
   transform="matrix(1.527128,0,0,1.527128,-42.552523,-37.69638)"
   id="g2154">
			
		</g><g
   transform="matrix(1.527128,0,0,1.527128,-42.552523,-37.69638)"
   id="g2206">
		<g
   id="g2196">
			
		</g>
		<g
   id="g2200">
			
		</g>
		<g
   id="g2204">
			
		</g>
	</g><g
   transform="matrix(1.527128,0,0,1.527128,-42.552523,-37.69638)"
   id="g2220">
		<g
   id="g2210">
			
		</g>
		<g
   id="g2214">
			
		</g>
		<g
   id="g2218">
			
		</g>
	</g>
<g
   transform="translate(-27.864413,141)"
   id="Layer_3">
</g>
</svg>