G04 EAGLE Gerber X2 export*
%TF.Part,Single*%
%TF.FileFunction,Copper,L2,Inr,Mixed*%
%TF.FilePolarity,Positive*%
%TF.GenerationSoftware,Autodesk,EAGLE,9.1.3*%
%TF.CreationDate,2018-09-17T05:52:35Z*%
G75*
%MOMM*%
%FSLAX34Y34*%
%LPD*%
%AMOC8*
5,1,8,0,0,1.08239X$1,22.5*%
G01*
%ADD10C,1.508000*%
%ADD11C,0.756400*%
%ADD12C,0.508000*%
%ADD13C,0.254000*%

G36*
X393290Y505219D02*
X393290Y505219D01*
X393389Y505222D01*
X393447Y505239D01*
X393508Y505247D01*
X393600Y505283D01*
X393695Y505311D01*
X393747Y505341D01*
X393803Y505364D01*
X393883Y505422D01*
X393969Y505472D01*
X394044Y505538D01*
X394061Y505550D01*
X394068Y505560D01*
X394090Y505579D01*
X404758Y516247D01*
X404818Y516325D01*
X404886Y516397D01*
X404915Y516450D01*
X404952Y516498D01*
X404992Y516589D01*
X405040Y516675D01*
X405055Y516734D01*
X405079Y516790D01*
X405094Y516888D01*
X405119Y516983D01*
X405125Y517083D01*
X405129Y517104D01*
X405127Y517116D01*
X405129Y517144D01*
X405129Y564634D01*
X406221Y645397D01*
X406206Y645524D01*
X406198Y645651D01*
X406189Y645681D01*
X406185Y645713D01*
X406140Y645832D01*
X406100Y645953D01*
X406083Y645980D01*
X406072Y646010D01*
X405999Y646114D01*
X405930Y646222D01*
X405907Y646244D01*
X405889Y646270D01*
X405792Y646353D01*
X405699Y646440D01*
X405671Y646455D01*
X405646Y646476D01*
X405532Y646532D01*
X405420Y646594D01*
X405389Y646602D01*
X405361Y646616D01*
X405236Y646641D01*
X405112Y646673D01*
X405066Y646676D01*
X405049Y646680D01*
X405027Y646678D01*
X404952Y646683D01*
X311168Y646683D01*
X304799Y653052D01*
X304799Y658556D01*
X304784Y658674D01*
X304777Y658793D01*
X304764Y658831D01*
X304759Y658871D01*
X304716Y658982D01*
X304679Y659095D01*
X304657Y659129D01*
X304642Y659167D01*
X304573Y659263D01*
X304509Y659364D01*
X304479Y659392D01*
X304456Y659424D01*
X304364Y659500D01*
X304277Y659582D01*
X304242Y659601D01*
X304211Y659627D01*
X304103Y659678D01*
X303999Y659735D01*
X303959Y659745D01*
X303923Y659763D01*
X303806Y659785D01*
X303691Y659815D01*
X303631Y659819D01*
X303611Y659822D01*
X303590Y659821D01*
X303530Y659825D01*
X272015Y659825D01*
X272006Y659824D01*
X271997Y659825D01*
X271848Y659804D01*
X271700Y659785D01*
X271691Y659782D01*
X271682Y659780D01*
X271529Y659728D01*
X271216Y659599D01*
X268903Y659599D01*
X266766Y660484D01*
X265130Y662120D01*
X264245Y664257D01*
X264245Y666570D01*
X265130Y668707D01*
X266766Y670343D01*
X268903Y671228D01*
X271216Y671228D01*
X273353Y670343D01*
X274989Y668707D01*
X275818Y666706D01*
X275833Y666680D01*
X275842Y666652D01*
X275911Y666543D01*
X275976Y666430D01*
X275996Y666409D01*
X276012Y666384D01*
X276106Y666295D01*
X276197Y666201D01*
X276222Y666186D01*
X276244Y666166D01*
X276357Y666103D01*
X276468Y666035D01*
X276496Y666026D01*
X276522Y666012D01*
X276648Y665980D01*
X276772Y665941D01*
X276801Y665940D01*
X276830Y665933D01*
X276991Y665922D01*
X303530Y665922D01*
X303648Y665937D01*
X303767Y665945D01*
X303805Y665957D01*
X303846Y665962D01*
X303956Y666006D01*
X304069Y666043D01*
X304104Y666064D01*
X304141Y666079D01*
X304237Y666149D01*
X304338Y666213D01*
X304366Y666242D01*
X304399Y666266D01*
X304475Y666358D01*
X304556Y666445D01*
X304576Y666480D01*
X304601Y666511D01*
X304652Y666619D01*
X304710Y666723D01*
X304720Y666762D01*
X304737Y666799D01*
X304759Y666916D01*
X304789Y667031D01*
X304793Y667091D01*
X304797Y667111D01*
X304795Y667132D01*
X304799Y667192D01*
X304799Y696468D01*
X304787Y696566D01*
X304784Y696665D01*
X304767Y696723D01*
X304759Y696784D01*
X304723Y696876D01*
X304695Y696971D01*
X304665Y697023D01*
X304642Y697079D01*
X304584Y697159D01*
X304534Y697245D01*
X304468Y697320D01*
X304456Y697337D01*
X304446Y697344D01*
X304428Y697366D01*
X295538Y706256D01*
X295459Y706316D01*
X295387Y706384D01*
X295334Y706413D01*
X295286Y706450D01*
X295195Y706490D01*
X295109Y706538D01*
X295050Y706553D01*
X294994Y706577D01*
X294896Y706592D01*
X294801Y706617D01*
X294701Y706623D01*
X294680Y706627D01*
X294668Y706625D01*
X294640Y706627D01*
X271290Y706627D01*
X260485Y717432D01*
X260407Y717492D01*
X260335Y717560D01*
X260282Y717589D01*
X260234Y717626D01*
X260143Y717666D01*
X260057Y717714D01*
X259998Y717729D01*
X259942Y717753D01*
X259844Y717768D01*
X259749Y717793D01*
X259649Y717799D01*
X259628Y717803D01*
X259616Y717801D01*
X259588Y717803D01*
X201419Y717803D01*
X177660Y741562D01*
X177582Y741622D01*
X177510Y741690D01*
X177457Y741719D01*
X177409Y741756D01*
X177318Y741796D01*
X177231Y741844D01*
X177173Y741859D01*
X177117Y741883D01*
X177019Y741898D01*
X176924Y741923D01*
X176823Y741929D01*
X176803Y741933D01*
X176791Y741931D01*
X176763Y741933D01*
X107947Y741933D01*
X105789Y744091D01*
X74039Y775841D01*
X71881Y777999D01*
X71881Y1037583D01*
X128277Y1093979D01*
X162411Y1093979D01*
X171423Y1084967D01*
X171423Y1076573D01*
X168459Y1073610D01*
X168441Y1073586D01*
X168419Y1073567D01*
X168344Y1073461D01*
X168264Y1073358D01*
X168253Y1073331D01*
X168236Y1073307D01*
X168190Y1073186D01*
X168138Y1073066D01*
X168134Y1073037D01*
X168123Y1073010D01*
X168109Y1072881D01*
X168088Y1072752D01*
X168091Y1072723D01*
X168088Y1072694D01*
X168106Y1072565D01*
X168118Y1072436D01*
X168128Y1072408D01*
X168132Y1072379D01*
X168184Y1072226D01*
X168375Y1071767D01*
X168375Y1069453D01*
X167490Y1067316D01*
X165854Y1065680D01*
X163717Y1064795D01*
X161403Y1064795D01*
X159266Y1065680D01*
X157630Y1067316D01*
X156752Y1069438D01*
X156727Y1069481D01*
X156710Y1069528D01*
X156648Y1069619D01*
X156594Y1069714D01*
X156559Y1069750D01*
X156532Y1069791D01*
X156449Y1069864D01*
X156373Y1069943D01*
X156330Y1069969D01*
X156293Y1070002D01*
X156195Y1070052D01*
X156102Y1070109D01*
X156054Y1070124D01*
X156010Y1070146D01*
X155903Y1070170D01*
X155798Y1070203D01*
X155748Y1070205D01*
X155700Y1070216D01*
X155590Y1070213D01*
X155480Y1070218D01*
X155431Y1070208D01*
X155382Y1070206D01*
X155276Y1070176D01*
X155169Y1070154D01*
X155124Y1070132D01*
X155076Y1070118D01*
X154982Y1070062D01*
X154883Y1070014D01*
X154845Y1069982D01*
X154802Y1069956D01*
X154681Y1069850D01*
X82668Y997837D01*
X82608Y997759D01*
X82540Y997687D01*
X82511Y997634D01*
X82474Y997586D01*
X82434Y997495D01*
X82386Y997408D01*
X82371Y997349D01*
X82347Y997294D01*
X82332Y997196D01*
X82307Y997100D01*
X82301Y997000D01*
X82297Y996980D01*
X82299Y996967D01*
X82297Y996939D01*
X82297Y782839D01*
X82309Y782740D01*
X82312Y782641D01*
X82329Y782583D01*
X82337Y782523D01*
X82373Y782431D01*
X82401Y782336D01*
X82431Y782284D01*
X82454Y782227D01*
X82512Y782147D01*
X82562Y782062D01*
X82628Y781987D01*
X82640Y781970D01*
X82650Y781962D01*
X82668Y781941D01*
X111889Y752720D01*
X111967Y752660D01*
X112039Y752592D01*
X112092Y752563D01*
X112140Y752526D01*
X112231Y752486D01*
X112318Y752438D01*
X112377Y752423D01*
X112432Y752399D01*
X112530Y752384D01*
X112626Y752359D01*
X112726Y752353D01*
X112746Y752349D01*
X112759Y752351D01*
X112787Y752349D01*
X123240Y752349D01*
X123289Y752355D01*
X123339Y752353D01*
X123446Y752375D01*
X123556Y752389D01*
X123602Y752407D01*
X123650Y752417D01*
X123749Y752465D01*
X123851Y752506D01*
X123892Y752535D01*
X123936Y752557D01*
X124020Y752628D01*
X124109Y752692D01*
X124140Y752731D01*
X124178Y752763D01*
X124241Y752853D01*
X124311Y752937D01*
X124333Y752982D01*
X124361Y753023D01*
X124400Y753126D01*
X124447Y753225D01*
X124456Y753274D01*
X124474Y753320D01*
X124486Y753430D01*
X124507Y753537D01*
X124504Y753587D01*
X124509Y753636D01*
X124494Y753745D01*
X124487Y753855D01*
X124472Y753902D01*
X124465Y753951D01*
X124413Y754104D01*
X123725Y755763D01*
X123725Y758077D01*
X124610Y760214D01*
X126246Y761850D01*
X128383Y762735D01*
X130697Y762735D01*
X132834Y761850D01*
X134470Y760214D01*
X135355Y758077D01*
X135355Y755763D01*
X134667Y754104D01*
X134654Y754056D01*
X134633Y754011D01*
X134612Y753903D01*
X134583Y753797D01*
X134583Y753747D01*
X134573Y753698D01*
X134580Y753589D01*
X134578Y753479D01*
X134590Y753431D01*
X134593Y753381D01*
X134627Y753277D01*
X134652Y753170D01*
X134676Y753126D01*
X134691Y753079D01*
X134750Y752986D01*
X134801Y752889D01*
X134835Y752852D01*
X134861Y752810D01*
X134941Y752735D01*
X135015Y752653D01*
X135057Y752626D01*
X135093Y752592D01*
X135189Y752539D01*
X135281Y752479D01*
X135328Y752462D01*
X135371Y752438D01*
X135478Y752411D01*
X135582Y752375D01*
X135631Y752371D01*
X135679Y752359D01*
X135840Y752349D01*
X181603Y752349D01*
X205361Y728590D01*
X205439Y728530D01*
X205511Y728462D01*
X205564Y728433D01*
X205612Y728396D01*
X205703Y728356D01*
X205790Y728308D01*
X205849Y728293D01*
X205904Y728269D01*
X206002Y728254D01*
X206098Y728229D01*
X206198Y728223D01*
X206218Y728219D01*
X206231Y728221D01*
X206259Y728219D01*
X254000Y728219D01*
X254118Y728234D01*
X254237Y728241D01*
X254275Y728254D01*
X254316Y728259D01*
X254426Y728302D01*
X254539Y728339D01*
X254574Y728361D01*
X254611Y728376D01*
X254707Y728445D01*
X254808Y728509D01*
X254836Y728539D01*
X254869Y728562D01*
X254945Y728654D01*
X255026Y728741D01*
X255046Y728776D01*
X255071Y728807D01*
X255122Y728915D01*
X255180Y729019D01*
X255190Y729059D01*
X255207Y729095D01*
X255229Y729212D01*
X255259Y729327D01*
X255263Y729387D01*
X255267Y729407D01*
X255265Y729428D01*
X255269Y729488D01*
X255269Y889601D01*
X255257Y889700D01*
X255254Y889799D01*
X255237Y889857D01*
X255229Y889917D01*
X255193Y890009D01*
X255165Y890104D01*
X255135Y890156D01*
X255112Y890213D01*
X255054Y890293D01*
X255004Y890378D01*
X254938Y890453D01*
X254926Y890470D01*
X254916Y890478D01*
X254898Y890499D01*
X252801Y892595D01*
X252801Y906971D01*
X252789Y907065D01*
X252787Y907159D01*
X252770Y907222D01*
X252761Y907287D01*
X252727Y907374D01*
X252701Y907465D01*
X252669Y907522D01*
X252644Y907583D01*
X252589Y907659D01*
X252542Y907740D01*
X252468Y907825D01*
X252458Y907840D01*
X252450Y907846D01*
X252437Y907862D01*
X178348Y983136D01*
X178267Y983201D01*
X178191Y983272D01*
X178142Y983299D01*
X178099Y983333D01*
X178003Y983375D01*
X177912Y983426D01*
X177859Y983439D01*
X177808Y983462D01*
X177705Y983479D01*
X177604Y983505D01*
X177515Y983511D01*
X177494Y983514D01*
X177479Y983513D01*
X177444Y983515D01*
X175373Y983515D01*
X173236Y984400D01*
X171600Y986036D01*
X170715Y988173D01*
X170715Y990487D01*
X171600Y992624D01*
X173236Y994260D01*
X175373Y995145D01*
X177687Y995145D01*
X179824Y994260D01*
X181460Y992624D01*
X182345Y990487D01*
X182345Y988288D01*
X182357Y988195D01*
X182359Y988101D01*
X182376Y988038D01*
X182385Y987973D01*
X182419Y987885D01*
X182445Y987795D01*
X182477Y987738D01*
X182502Y987677D01*
X182557Y987601D01*
X182604Y987520D01*
X182678Y987434D01*
X182688Y987420D01*
X182696Y987414D01*
X182709Y987398D01*
X253095Y915885D01*
X253208Y915796D01*
X253319Y915704D01*
X253333Y915697D01*
X253345Y915688D01*
X253477Y915630D01*
X253607Y915568D01*
X253622Y915565D01*
X253636Y915559D01*
X253779Y915535D01*
X253920Y915509D01*
X253935Y915509D01*
X253950Y915507D01*
X254094Y915519D01*
X254237Y915528D01*
X254251Y915533D01*
X254267Y915534D01*
X254403Y915582D01*
X254539Y915626D01*
X254552Y915634D01*
X254567Y915639D01*
X254687Y915720D01*
X254808Y915796D01*
X254819Y915808D01*
X254831Y915816D01*
X254927Y915923D01*
X255026Y916028D01*
X255033Y916041D01*
X255044Y916053D01*
X255110Y916180D01*
X255180Y916307D01*
X255183Y916321D01*
X255190Y916335D01*
X255223Y916475D01*
X255259Y916615D01*
X255260Y916635D01*
X255263Y916645D01*
X255262Y916663D01*
X255269Y916775D01*
X255269Y987339D01*
X261895Y987553D01*
X495046Y987553D01*
X495156Y987567D01*
X495267Y987572D01*
X495313Y987587D01*
X495362Y987593D01*
X495465Y987633D01*
X495571Y987666D01*
X495612Y987692D01*
X495657Y987710D01*
X495747Y987775D01*
X495842Y987833D01*
X495897Y987884D01*
X495915Y987896D01*
X495926Y987910D01*
X495960Y987942D01*
X637050Y1134522D01*
X637114Y1134608D01*
X637185Y1134688D01*
X637209Y1134734D01*
X637240Y1134777D01*
X637281Y1134876D01*
X637330Y1134971D01*
X637341Y1135022D01*
X637361Y1135071D01*
X637376Y1135177D01*
X637399Y1135281D01*
X637398Y1135334D01*
X637405Y1135386D01*
X637393Y1135492D01*
X637390Y1135599D01*
X637375Y1135649D01*
X637369Y1135702D01*
X637331Y1135802D01*
X637301Y1135905D01*
X637275Y1135950D01*
X637256Y1135999D01*
X637194Y1136086D01*
X637140Y1136178D01*
X637085Y1136241D01*
X637072Y1136259D01*
X637060Y1136269D01*
X637033Y1136299D01*
X635404Y1137928D01*
X634519Y1140065D01*
X634519Y1142379D01*
X635404Y1144516D01*
X637040Y1146152D01*
X639177Y1147037D01*
X641491Y1147037D01*
X643628Y1146152D01*
X645066Y1144714D01*
X645169Y1144633D01*
X645269Y1144549D01*
X645294Y1144536D01*
X645317Y1144519D01*
X645437Y1144467D01*
X645555Y1144409D01*
X645583Y1144404D01*
X645609Y1144392D01*
X645739Y1144372D01*
X645866Y1144346D01*
X645895Y1144347D01*
X645923Y1144343D01*
X646054Y1144355D01*
X646184Y1144361D01*
X646211Y1144370D01*
X646239Y1144372D01*
X646363Y1144417D01*
X646488Y1144456D01*
X646512Y1144470D01*
X646539Y1144480D01*
X646647Y1144554D01*
X646759Y1144622D01*
X646788Y1144650D01*
X646802Y1144659D01*
X646816Y1144675D01*
X646877Y1144731D01*
X679220Y1178333D01*
X679256Y1178380D01*
X679298Y1178421D01*
X679351Y1178507D01*
X679411Y1178588D01*
X679433Y1178642D01*
X679464Y1178693D01*
X679493Y1178789D01*
X679531Y1178882D01*
X679539Y1178940D01*
X679557Y1178997D01*
X679561Y1179097D01*
X679575Y1179197D01*
X679568Y1179256D01*
X679571Y1179315D01*
X679548Y1179474D01*
X679379Y1180276D01*
X679353Y1180400D01*
X678849Y1182797D01*
X678849Y1182798D01*
X677232Y1190480D01*
X675614Y1198167D01*
X674279Y1204509D01*
X672910Y1211014D01*
X672910Y1211015D01*
X672531Y1212813D01*
X672531Y1212814D01*
X672379Y1213535D01*
X672379Y1213536D01*
X671003Y1220074D01*
X669675Y1226383D01*
X669675Y1226384D01*
X669325Y1228050D01*
X669145Y1228904D01*
X669145Y1228905D01*
X667850Y1235058D01*
X667843Y1235078D01*
X667823Y1235163D01*
X665893Y1241572D01*
X665880Y1241602D01*
X665873Y1241634D01*
X665809Y1241781D01*
X662921Y1247462D01*
X662900Y1247492D01*
X662886Y1247525D01*
X662797Y1247659D01*
X658931Y1252708D01*
X658906Y1252733D01*
X658886Y1252763D01*
X658774Y1252878D01*
X654049Y1257147D01*
X654021Y1257166D01*
X653998Y1257190D01*
X653867Y1257283D01*
X648438Y1260651D01*
X648409Y1260664D01*
X648384Y1260683D01*
X648239Y1260752D01*
X642287Y1263124D01*
X642257Y1263132D01*
X642230Y1263145D01*
X642075Y1263188D01*
X635798Y1264490D01*
X635767Y1264493D01*
X635737Y1264501D01*
X635577Y1264516D01*
X629184Y1264701D01*
X629151Y1264697D01*
X629118Y1264701D01*
X628958Y1264687D01*
X622655Y1263735D01*
X622622Y1263725D01*
X622587Y1263722D01*
X622431Y1263679D01*
X616415Y1261606D01*
X616383Y1261590D01*
X616349Y1261581D01*
X616204Y1261511D01*
X610653Y1258376D01*
X610628Y1258357D01*
X610599Y1258343D01*
X610468Y1258248D01*
X605308Y1253977D01*
X605293Y1253961D01*
X605229Y1253906D01*
X600762Y1249526D01*
X599360Y1248151D01*
X598923Y1247723D01*
X598922Y1247722D01*
X593745Y1242646D01*
X589607Y1238589D01*
X589607Y1238588D01*
X587934Y1236948D01*
X587767Y1236785D01*
X584026Y1233117D01*
X583264Y1232369D01*
X583263Y1232369D01*
X582187Y1231314D01*
X582186Y1231313D01*
X577579Y1226795D01*
X572865Y1222174D01*
X572241Y1221561D01*
X571026Y1220371D01*
X571025Y1220370D01*
X565989Y1215432D01*
X561707Y1211234D01*
X561707Y1211233D01*
X561009Y1210549D01*
X559869Y1209431D01*
X559868Y1209430D01*
X555498Y1205146D01*
X550550Y1200294D01*
X549254Y1199024D01*
X548711Y1198491D01*
X548710Y1198490D01*
X544970Y1194823D01*
X544054Y1193926D01*
X543131Y1193020D01*
X543130Y1193019D01*
X538120Y1188107D01*
X533812Y1183883D01*
X533811Y1183882D01*
X532562Y1182658D01*
X532562Y1182657D01*
X531972Y1182079D01*
X526393Y1176609D01*
X526392Y1176608D01*
X522095Y1172396D01*
X522095Y1172395D01*
X517077Y1167474D01*
X517076Y1167474D01*
X516274Y1166688D01*
X515238Y1165671D01*
X515237Y1165671D01*
X510176Y1160708D01*
X505919Y1156535D01*
X505294Y1155922D01*
X504080Y1154732D01*
X504080Y1154731D01*
X499415Y1150158D01*
X494760Y1145594D01*
X489183Y1140125D01*
X488356Y1139314D01*
X487343Y1138321D01*
X482729Y1133798D01*
X478025Y1129185D01*
X478024Y1129185D01*
X476668Y1127854D01*
X476185Y1127381D01*
X472447Y1123716D01*
X470808Y1122109D01*
X470608Y1121913D01*
X470607Y1121912D01*
X465874Y1117272D01*
X460389Y1111894D01*
X460387Y1111891D01*
X460380Y1111885D01*
X459653Y1111157D01*
X458696Y1110772D01*
X458693Y1110770D01*
X458685Y1110767D01*
X457733Y1110373D01*
X456702Y1110383D01*
X456698Y1110383D01*
X456689Y1110383D01*
X302002Y1110383D01*
X301998Y1110383D01*
X301989Y1110383D01*
X300960Y1110373D01*
X300008Y1110767D01*
X300004Y1110769D01*
X299996Y1110772D01*
X299040Y1111157D01*
X298312Y1111886D01*
X298308Y1111888D01*
X298303Y1111895D01*
X293664Y1116442D01*
X293012Y1117082D01*
X291825Y1118246D01*
X291824Y1118246D01*
X287280Y1122702D01*
X282509Y1127380D01*
X282089Y1127792D01*
X280670Y1129183D01*
X280669Y1129184D01*
X275605Y1134149D01*
X275554Y1134188D01*
X275510Y1134233D01*
X275428Y1134284D01*
X275352Y1134342D01*
X275293Y1134366D01*
X275239Y1134400D01*
X275147Y1134428D01*
X275059Y1134465D01*
X274996Y1134475D01*
X274935Y1134493D01*
X274839Y1134498D01*
X274744Y1134512D01*
X274681Y1134505D01*
X274617Y1134508D01*
X274523Y1134489D01*
X274428Y1134479D01*
X274368Y1134457D01*
X274306Y1134444D01*
X274220Y1134402D01*
X274129Y1134369D01*
X274077Y1134332D01*
X274020Y1134304D01*
X273947Y1134242D01*
X273868Y1134187D01*
X273826Y1134139D01*
X273778Y1134098D01*
X273723Y1134019D01*
X273660Y1133947D01*
X273632Y1133890D01*
X273595Y1133838D01*
X273561Y1133748D01*
X273518Y1133662D01*
X273505Y1133600D01*
X273482Y1133541D01*
X273472Y1133445D01*
X273452Y1133351D01*
X273454Y1133288D01*
X273447Y1133225D01*
X273460Y1133129D01*
X273464Y1133033D01*
X273483Y1132973D01*
X273491Y1132910D01*
X273544Y1132757D01*
X274293Y1130949D01*
X274293Y1128635D01*
X273408Y1126498D01*
X271772Y1124862D01*
X269635Y1123977D01*
X267321Y1123977D01*
X265184Y1124862D01*
X263548Y1126498D01*
X262663Y1128635D01*
X262663Y1130949D01*
X263548Y1133086D01*
X265184Y1134722D01*
X267321Y1135607D01*
X269635Y1135607D01*
X271347Y1134897D01*
X271420Y1134877D01*
X271491Y1134848D01*
X271573Y1134835D01*
X271654Y1134813D01*
X271730Y1134812D01*
X271805Y1134801D01*
X271888Y1134810D01*
X271972Y1134808D01*
X272046Y1134826D01*
X272121Y1134834D01*
X272200Y1134863D01*
X272281Y1134883D01*
X272348Y1134918D01*
X272420Y1134944D01*
X272488Y1134992D01*
X272562Y1135031D01*
X272618Y1135082D01*
X272681Y1135126D01*
X272736Y1135189D01*
X272798Y1135245D01*
X272839Y1135309D01*
X272889Y1135366D01*
X272926Y1135441D01*
X272972Y1135511D01*
X272997Y1135583D01*
X273031Y1135651D01*
X273048Y1135733D01*
X273076Y1135812D01*
X273082Y1135888D01*
X273098Y1135962D01*
X273094Y1136045D01*
X273101Y1136129D01*
X273088Y1136204D01*
X273085Y1136280D01*
X273061Y1136360D01*
X273046Y1136442D01*
X273015Y1136511D01*
X272993Y1136584D01*
X272950Y1136656D01*
X272916Y1136732D01*
X272868Y1136791D01*
X272829Y1136857D01*
X272722Y1136976D01*
X271348Y1138323D01*
X269824Y1139817D01*
X269824Y1139818D01*
X269508Y1140127D01*
X263928Y1145599D01*
X263927Y1145599D01*
X260187Y1149266D01*
X259239Y1150196D01*
X258347Y1151070D01*
X254609Y1154735D01*
X254531Y1154811D01*
X252770Y1156538D01*
X252770Y1156539D01*
X248450Y1160774D01*
X243452Y1165674D01*
X242497Y1166611D01*
X242496Y1166611D01*
X241613Y1167477D01*
X241612Y1167478D01*
X237872Y1171145D01*
X237703Y1171311D01*
X237702Y1171312D01*
X236033Y1172948D01*
X236032Y1172949D01*
X230990Y1177893D01*
X226714Y1182086D01*
X226713Y1182086D01*
X225605Y1183173D01*
X224875Y1183889D01*
X224874Y1183890D01*
X221135Y1187556D01*
X221134Y1187556D01*
X214806Y1193761D01*
X209979Y1198494D01*
X208785Y1199664D01*
X208140Y1200297D01*
X208139Y1200298D01*
X204400Y1203964D01*
X198821Y1209434D01*
X197735Y1210499D01*
X196982Y1211237D01*
X192041Y1216082D01*
X187662Y1220375D01*
X187662Y1220376D01*
X186290Y1221720D01*
X186290Y1221721D01*
X185823Y1222178D01*
X185822Y1222179D01*
X181421Y1226494D01*
X176506Y1231314D01*
X176505Y1231314D01*
X175662Y1232141D01*
X174666Y1233117D01*
X174666Y1233118D01*
X170927Y1236784D01*
X170926Y1236784D01*
X170011Y1237682D01*
X169087Y1238587D01*
X169087Y1238588D01*
X163914Y1243659D01*
X163914Y1243660D01*
X159769Y1247724D01*
X159639Y1247852D01*
X159638Y1247852D01*
X157929Y1249527D01*
X157929Y1249528D01*
X153474Y1253896D01*
X153457Y1253909D01*
X153391Y1253971D01*
X147968Y1258421D01*
X147936Y1258441D01*
X147908Y1258467D01*
X147772Y1258553D01*
X141914Y1261762D01*
X141876Y1261777D01*
X141841Y1261799D01*
X141691Y1261858D01*
X135343Y1263892D01*
X135303Y1263899D01*
X135266Y1263914D01*
X135107Y1263943D01*
X128453Y1264744D01*
X128419Y1264744D01*
X128385Y1264750D01*
X128224Y1264751D01*
X122012Y1264374D01*
X121984Y1264369D01*
X121956Y1264370D01*
X121797Y1264343D01*
X115704Y1262905D01*
X115679Y1262895D01*
X115651Y1262891D01*
X115499Y1262838D01*
X109747Y1260390D01*
X109722Y1260376D01*
X109694Y1260367D01*
X109554Y1260288D01*
X104319Y1256901D01*
X104296Y1256881D01*
X104268Y1256866D01*
X104144Y1256764D01*
X103602Y1256259D01*
X102239Y1254990D01*
X100876Y1253721D01*
X100876Y1253720D01*
X99594Y1252526D01*
X99573Y1252501D01*
X99547Y1252480D01*
X99443Y1252358D01*
X95724Y1247389D01*
X95708Y1247360D01*
X95686Y1247335D01*
X95605Y1247196D01*
X92822Y1241632D01*
X92813Y1241604D01*
X92797Y1241579D01*
X92741Y1241428D01*
X90869Y1235162D01*
X90865Y1235141D01*
X90843Y1235062D01*
X89565Y1229028D01*
X89553Y1228968D01*
X89552Y1228968D01*
X89031Y1226507D01*
X87965Y1221473D01*
X87743Y1220427D01*
X87431Y1218953D01*
X87431Y1218952D01*
X85831Y1211398D01*
X85831Y1211397D01*
X84230Y1203843D01*
X84230Y1203842D01*
X83163Y1198806D01*
X81355Y1190267D01*
X79429Y1181177D01*
X78363Y1176143D01*
X78363Y1176142D01*
X78086Y1174837D01*
X78086Y1174836D01*
X77829Y1173623D01*
X77829Y1173622D01*
X76405Y1166900D01*
X74628Y1158514D01*
X73562Y1153478D01*
X73452Y1152959D01*
X73028Y1150958D01*
X73028Y1150957D01*
X71427Y1143402D01*
X70150Y1137374D01*
X68311Y1128692D01*
X67161Y1123259D01*
X66910Y1122077D01*
X66627Y1120739D01*
X66627Y1120738D01*
X65273Y1114348D01*
X63960Y1108149D01*
X63960Y1108148D01*
X63713Y1106982D01*
X63426Y1105629D01*
X63426Y1105628D01*
X62360Y1100594D01*
X62067Y1099212D01*
X61826Y1098074D01*
X61826Y1098073D01*
X60467Y1091662D01*
X59159Y1085484D01*
X58820Y1083884D01*
X58625Y1082964D01*
X57024Y1075408D01*
X57024Y1075407D01*
X55517Y1068293D01*
X54357Y1062818D01*
X54239Y1062257D01*
X53824Y1060298D01*
X53823Y1060298D01*
X52434Y1053739D01*
X51156Y1047706D01*
X51156Y1047705D01*
X50897Y1046481D01*
X50623Y1045186D01*
X50622Y1045185D01*
X49254Y1038728D01*
X47956Y1032597D01*
X47669Y1031245D01*
X47422Y1030078D01*
X47422Y1030077D01*
X46035Y1023530D01*
X44222Y1014968D01*
X44221Y1014967D01*
X43155Y1009931D01*
X42890Y1008681D01*
X42621Y1007411D01*
X42621Y1007410D01*
X41376Y1001536D01*
X39649Y993384D01*
X38354Y987268D01*
X38143Y986271D01*
X37820Y984748D01*
X37820Y984747D01*
X36753Y979712D01*
X36220Y977193D01*
X36220Y977192D01*
X36219Y977191D01*
X35119Y971998D01*
X35108Y971862D01*
X35092Y971725D01*
X35094Y971694D01*
X35093Y971681D01*
X35095Y971667D01*
X34868Y970804D01*
X34865Y970786D01*
X34853Y970743D01*
X34663Y969843D01*
X34659Y969835D01*
X34592Y969716D01*
X34582Y969687D01*
X34576Y969675D01*
X34571Y969655D01*
X34541Y969563D01*
X32904Y963347D01*
X32902Y963333D01*
X32893Y963301D01*
X31272Y956058D01*
X31271Y956043D01*
X31262Y956008D01*
X29924Y948652D01*
X29923Y948644D01*
X29920Y948628D01*
X29299Y944802D01*
X29294Y944665D01*
X29284Y944528D01*
X29288Y944498D01*
X29287Y944485D01*
X29290Y944471D01*
X29104Y943597D01*
X29103Y943580D01*
X29093Y943536D01*
X28986Y942874D01*
X28981Y942759D01*
X28969Y942644D01*
X28975Y942577D01*
X28974Y942556D01*
X28978Y942537D01*
X28983Y942484D01*
X28987Y942459D01*
X28801Y941717D01*
X28799Y941696D01*
X28780Y941613D01*
X27788Y935520D01*
X27788Y935519D01*
X27521Y933876D01*
X27375Y932978D01*
X27375Y932977D01*
X26546Y927887D01*
X25108Y919047D01*
X23993Y912193D01*
X22821Y904990D01*
X22601Y903642D01*
X22407Y902448D01*
X22407Y902447D01*
X21579Y897357D01*
X20337Y889725D01*
X20074Y888111D01*
X19923Y887183D01*
X19923Y887182D01*
X18975Y881359D01*
X17853Y874459D01*
X17641Y873158D01*
X17439Y871917D01*
X17439Y871916D01*
X16610Y866823D01*
X16492Y866100D01*
X16492Y866099D01*
X16196Y864280D01*
X16196Y864279D01*
X15368Y859187D01*
X14087Y851319D01*
X12883Y843920D01*
X12632Y842376D01*
X12470Y841377D01*
X11641Y836285D01*
X11322Y834321D01*
X11227Y833743D01*
X11227Y833742D01*
X10231Y827622D01*
X9157Y821020D01*
X7719Y812180D01*
X7718Y812172D01*
X7715Y812155D01*
X6663Y804760D01*
X6663Y804745D01*
X6657Y804712D01*
X5894Y797342D01*
X5894Y797327D01*
X5890Y797293D01*
X5410Y789901D01*
X5411Y789886D01*
X5408Y789852D01*
X5214Y782447D01*
X5216Y782432D01*
X5214Y782397D01*
X5309Y774989D01*
X5311Y774974D01*
X5311Y774939D01*
X5695Y767547D01*
X5697Y767533D01*
X5698Y767497D01*
X6371Y760123D01*
X6374Y760109D01*
X6377Y760074D01*
X7339Y752733D01*
X7343Y752719D01*
X7346Y752684D01*
X8596Y745386D01*
X8600Y745372D01*
X8605Y745337D01*
X10140Y738095D01*
X10144Y738081D01*
X10151Y738046D01*
X11969Y730867D01*
X11974Y730854D01*
X11982Y730819D01*
X14080Y723717D01*
X14086Y723704D01*
X14095Y723670D01*
X16468Y716657D01*
X16474Y716644D01*
X16485Y716610D01*
X19131Y709692D01*
X19137Y709679D01*
X19149Y709646D01*
X22063Y702834D01*
X22070Y702822D01*
X22083Y702789D01*
X25258Y696096D01*
X25266Y696084D01*
X25280Y696052D01*
X28712Y689485D01*
X28721Y689473D01*
X28736Y689442D01*
X32419Y683013D01*
X32428Y683002D01*
X32444Y682971D01*
X36372Y676688D01*
X36381Y676677D01*
X36399Y676647D01*
X40566Y670519D01*
X40575Y670508D01*
X40594Y670479D01*
X44991Y664517D01*
X45001Y664507D01*
X45021Y664479D01*
X49645Y658689D01*
X49655Y658679D01*
X49676Y658651D01*
X54519Y653042D01*
X54529Y653032D01*
X54551Y653006D01*
X59605Y647586D01*
X59616Y647577D01*
X59639Y647551D01*
X64894Y642331D01*
X64906Y642322D01*
X64930Y642297D01*
X69819Y637800D01*
X69896Y637746D01*
X69966Y637684D01*
X70064Y637627D01*
X70079Y637616D01*
X70087Y637613D01*
X70105Y637602D01*
X70231Y637538D01*
X70656Y637043D01*
X70662Y637037D01*
X70760Y636935D01*
X71240Y636494D01*
X71300Y636365D01*
X71349Y636286D01*
X71391Y636202D01*
X71459Y636111D01*
X71469Y636096D01*
X71475Y636089D01*
X71487Y636073D01*
X71580Y635966D01*
X71782Y635346D01*
X71786Y635338D01*
X71837Y635206D01*
X72112Y634615D01*
X72118Y634473D01*
X72134Y634380D01*
X72139Y634287D01*
X72168Y634177D01*
X72171Y634159D01*
X72175Y634151D01*
X72180Y634131D01*
X72224Y633996D01*
X72174Y633346D01*
X72174Y633337D01*
X72171Y633196D01*
X72199Y632545D01*
X72150Y632411D01*
X72129Y632320D01*
X72099Y632232D01*
X72083Y632119D01*
X72079Y632101D01*
X72079Y632092D01*
X72076Y632072D01*
X72065Y631931D01*
X71770Y631349D01*
X71767Y631341D01*
X71711Y631211D01*
X71486Y630599D01*
X71390Y630495D01*
X71336Y630419D01*
X71274Y630348D01*
X71216Y630250D01*
X71206Y630236D01*
X71203Y630227D01*
X71193Y630210D01*
X68118Y624147D01*
X68114Y624135D01*
X68099Y624107D01*
X64913Y617232D01*
X64909Y617219D01*
X64895Y617191D01*
X61954Y610206D01*
X61950Y610193D01*
X61937Y610164D01*
X59247Y603082D01*
X59244Y603069D01*
X59232Y603040D01*
X56793Y595864D01*
X56791Y595851D01*
X56780Y595821D01*
X54598Y588563D01*
X54596Y588549D01*
X54586Y588519D01*
X52664Y581192D01*
X52662Y581178D01*
X52654Y581148D01*
X50992Y573752D01*
X50991Y573739D01*
X50983Y573708D01*
X49585Y566260D01*
X49585Y566247D01*
X49578Y566216D01*
X48444Y558722D01*
X48444Y558708D01*
X48438Y558677D01*
X47569Y551150D01*
X47569Y551136D01*
X47565Y551106D01*
X46955Y543496D01*
X46956Y543489D01*
X46954Y543473D01*
X46789Y540826D01*
X46391Y534401D01*
X46238Y531942D01*
X46238Y531941D01*
X46159Y530672D01*
X45904Y526558D01*
X45904Y526557D01*
X45686Y523057D01*
X45450Y519249D01*
X45417Y518715D01*
X45090Y513444D01*
X44981Y511700D01*
X44930Y510872D01*
X44898Y510364D01*
X44662Y506555D01*
X44672Y506393D01*
X44682Y506239D01*
X44682Y506238D01*
X44682Y506237D01*
X44732Y506083D01*
X44780Y505937D01*
X44780Y505936D01*
X44780Y505935D01*
X44861Y505808D01*
X44950Y505668D01*
X44951Y505667D01*
X44951Y505666D01*
X45061Y505563D01*
X45181Y505450D01*
X45182Y505450D01*
X45183Y505449D01*
X45320Y505373D01*
X45460Y505296D01*
X45461Y505296D01*
X45462Y505296D01*
X45622Y505255D01*
X45768Y505217D01*
X45769Y505217D01*
X45770Y505217D01*
X45772Y505217D01*
X45929Y505207D01*
X393192Y505207D01*
X393290Y505219D01*
G37*
%LPC*%
G36*
X132385Y1165351D02*
X132385Y1165351D01*
X124633Y1167428D01*
X117682Y1171441D01*
X112007Y1177116D01*
X107994Y1184067D01*
X105917Y1191819D01*
X105917Y1199845D01*
X107994Y1207597D01*
X112007Y1214548D01*
X117682Y1220223D01*
X124633Y1224236D01*
X132385Y1226313D01*
X140411Y1226313D01*
X148163Y1224236D01*
X155114Y1220223D01*
X160789Y1214548D01*
X164802Y1207597D01*
X166879Y1199845D01*
X166879Y1191819D01*
X164802Y1184067D01*
X160789Y1177116D01*
X155114Y1171441D01*
X148163Y1167428D01*
X140411Y1165351D01*
X132385Y1165351D01*
G37*
%LPD*%
%LPC*%
G36*
X619975Y1171574D02*
X619975Y1171574D01*
X613030Y1173435D01*
X606804Y1177030D01*
X601720Y1182114D01*
X598125Y1188340D01*
X596264Y1195285D01*
X596264Y1202475D01*
X598125Y1209420D01*
X601720Y1215646D01*
X606804Y1220730D01*
X613030Y1224325D01*
X619975Y1226186D01*
X627165Y1226186D01*
X634110Y1224325D01*
X640336Y1220730D01*
X645420Y1215646D01*
X649015Y1209420D01*
X650876Y1202475D01*
X650876Y1195285D01*
X649015Y1188340D01*
X645420Y1182114D01*
X640336Y1177030D01*
X634110Y1173435D01*
X627165Y1171574D01*
X619975Y1171574D01*
G37*
%LPD*%
%LPC*%
G36*
X481443Y994945D02*
X481443Y994945D01*
X479306Y995830D01*
X477670Y997466D01*
X476785Y999603D01*
X476785Y1001737D01*
X476773Y1001836D01*
X476770Y1001935D01*
X476753Y1001993D01*
X476745Y1002053D01*
X476709Y1002145D01*
X476681Y1002240D01*
X476651Y1002292D01*
X476628Y1002349D01*
X476570Y1002429D01*
X476520Y1002514D01*
X476454Y1002589D01*
X476442Y1002606D01*
X476432Y1002614D01*
X476414Y1002635D01*
X455039Y1024010D01*
X454961Y1024070D01*
X454889Y1024138D01*
X454836Y1024167D01*
X454788Y1024204D01*
X454697Y1024244D01*
X454610Y1024292D01*
X454551Y1024307D01*
X454496Y1024331D01*
X454398Y1024346D01*
X454302Y1024371D01*
X454202Y1024377D01*
X454182Y1024381D01*
X454169Y1024379D01*
X454141Y1024381D01*
X233538Y1024381D01*
X233400Y1024364D01*
X233262Y1024351D01*
X233243Y1024344D01*
X233223Y1024341D01*
X233093Y1024290D01*
X232963Y1024243D01*
X232946Y1024232D01*
X232927Y1024224D01*
X232815Y1024143D01*
X232699Y1024065D01*
X232686Y1024049D01*
X232670Y1024038D01*
X232581Y1023930D01*
X232489Y1023826D01*
X232480Y1023808D01*
X232467Y1023793D01*
X232408Y1023667D01*
X232344Y1023543D01*
X232340Y1023523D01*
X232331Y1023505D01*
X232305Y1023368D01*
X232275Y1023233D01*
X232275Y1023212D01*
X232272Y1023193D01*
X232280Y1023054D01*
X232284Y1022915D01*
X232290Y1022895D01*
X232291Y1022875D01*
X232334Y1022743D01*
X232373Y1022609D01*
X232383Y1022592D01*
X232389Y1022573D01*
X232464Y1022455D01*
X232534Y1022335D01*
X232553Y1022314D01*
X232559Y1022304D01*
X232574Y1022290D01*
X232641Y1022215D01*
X234038Y1020818D01*
X234923Y1018681D01*
X234923Y1016367D01*
X234038Y1014230D01*
X232402Y1012594D01*
X230265Y1011709D01*
X227951Y1011709D01*
X225814Y1012594D01*
X224178Y1014230D01*
X223293Y1016367D01*
X223293Y1018681D01*
X224178Y1020818D01*
X225814Y1022454D01*
X227951Y1023339D01*
X230395Y1023339D01*
X230533Y1023356D01*
X230672Y1023369D01*
X230691Y1023376D01*
X230711Y1023379D01*
X230840Y1023430D01*
X230971Y1023477D01*
X230988Y1023488D01*
X231007Y1023496D01*
X231119Y1023577D01*
X231234Y1023655D01*
X231248Y1023671D01*
X231264Y1023682D01*
X231353Y1023790D01*
X231445Y1023894D01*
X231454Y1023912D01*
X231467Y1023927D01*
X231526Y1024053D01*
X231589Y1024177D01*
X231594Y1024197D01*
X231602Y1024215D01*
X231628Y1024352D01*
X231659Y1024487D01*
X231658Y1024508D01*
X231662Y1024527D01*
X231654Y1024666D01*
X231649Y1024805D01*
X231644Y1024825D01*
X231642Y1024845D01*
X231600Y1024977D01*
X231561Y1025111D01*
X231551Y1025128D01*
X231544Y1025147D01*
X231470Y1025265D01*
X231399Y1025385D01*
X231381Y1025406D01*
X231374Y1025416D01*
X231359Y1025430D01*
X231293Y1025505D01*
X230260Y1026539D01*
X205075Y1051724D01*
X204997Y1051784D01*
X204925Y1051852D01*
X204872Y1051881D01*
X204824Y1051918D01*
X204733Y1051958D01*
X204646Y1052006D01*
X204587Y1052021D01*
X204532Y1052045D01*
X204434Y1052060D01*
X204338Y1052085D01*
X204238Y1052091D01*
X204218Y1052095D01*
X204205Y1052093D01*
X204177Y1052095D01*
X202043Y1052095D01*
X199906Y1052980D01*
X198270Y1054616D01*
X197385Y1056753D01*
X197385Y1059067D01*
X198270Y1061204D01*
X199906Y1062840D01*
X202043Y1063725D01*
X204357Y1063725D01*
X206494Y1062840D01*
X208130Y1061204D01*
X209015Y1059067D01*
X209015Y1056933D01*
X209027Y1056834D01*
X209030Y1056735D01*
X209047Y1056677D01*
X209055Y1056617D01*
X209091Y1056525D01*
X209119Y1056430D01*
X209149Y1056378D01*
X209172Y1056321D01*
X209230Y1056241D01*
X209280Y1056156D01*
X209346Y1056081D01*
X209358Y1056064D01*
X209368Y1056056D01*
X209386Y1056035D01*
X234571Y1030850D01*
X234649Y1030790D01*
X234721Y1030722D01*
X234774Y1030693D01*
X234822Y1030656D01*
X234913Y1030616D01*
X235000Y1030568D01*
X235059Y1030553D01*
X235114Y1030529D01*
X235212Y1030514D01*
X235308Y1030489D01*
X235408Y1030483D01*
X235428Y1030479D01*
X235441Y1030481D01*
X235469Y1030479D01*
X457193Y1030479D01*
X480725Y1006946D01*
X480803Y1006886D01*
X480875Y1006818D01*
X480928Y1006789D01*
X480976Y1006752D01*
X481067Y1006712D01*
X481154Y1006664D01*
X481213Y1006649D01*
X481268Y1006625D01*
X481366Y1006610D01*
X481462Y1006585D01*
X481562Y1006579D01*
X481582Y1006575D01*
X481595Y1006577D01*
X481623Y1006575D01*
X483757Y1006575D01*
X485894Y1005690D01*
X487530Y1004054D01*
X488415Y1001917D01*
X488415Y999603D01*
X487530Y997466D01*
X485894Y995830D01*
X483757Y994945D01*
X481443Y994945D01*
G37*
%LPD*%
%LPC*%
G36*
X247001Y1055905D02*
X247001Y1055905D01*
X244864Y1056790D01*
X243355Y1058300D01*
X243277Y1058360D01*
X243205Y1058428D01*
X243152Y1058457D01*
X243104Y1058494D01*
X243013Y1058534D01*
X242926Y1058582D01*
X242868Y1058597D01*
X242812Y1058621D01*
X242714Y1058636D01*
X242618Y1058661D01*
X242518Y1058667D01*
X242498Y1058671D01*
X242486Y1058669D01*
X242458Y1058671D01*
X220225Y1058671D01*
X206243Y1072654D01*
X206165Y1072714D01*
X206093Y1072782D01*
X206040Y1072811D01*
X205992Y1072848D01*
X205901Y1072888D01*
X205814Y1072936D01*
X205755Y1072951D01*
X205700Y1072975D01*
X205602Y1072990D01*
X205506Y1073015D01*
X205406Y1073021D01*
X205386Y1073025D01*
X205373Y1073023D01*
X205345Y1073025D01*
X203211Y1073025D01*
X201074Y1073910D01*
X199438Y1075546D01*
X198553Y1077683D01*
X198553Y1079997D01*
X199438Y1082134D01*
X201074Y1083770D01*
X203211Y1084655D01*
X205525Y1084655D01*
X207662Y1083770D01*
X209298Y1082134D01*
X210183Y1079997D01*
X210183Y1077863D01*
X210195Y1077764D01*
X210198Y1077665D01*
X210215Y1077607D01*
X210223Y1077547D01*
X210259Y1077455D01*
X210287Y1077360D01*
X210317Y1077308D01*
X210340Y1077251D01*
X210398Y1077171D01*
X210448Y1077086D01*
X210514Y1077011D01*
X210526Y1076994D01*
X210536Y1076986D01*
X210554Y1076965D01*
X222379Y1065140D01*
X222457Y1065080D01*
X222529Y1065012D01*
X222582Y1064983D01*
X222630Y1064946D01*
X222721Y1064906D01*
X222808Y1064858D01*
X222867Y1064843D01*
X222922Y1064819D01*
X223020Y1064804D01*
X223116Y1064779D01*
X223216Y1064773D01*
X223236Y1064769D01*
X223249Y1064771D01*
X223277Y1064769D01*
X242458Y1064769D01*
X242556Y1064781D01*
X242655Y1064784D01*
X242713Y1064801D01*
X242773Y1064809D01*
X242865Y1064845D01*
X242960Y1064873D01*
X243013Y1064903D01*
X243069Y1064926D01*
X243149Y1064984D01*
X243234Y1065034D01*
X243310Y1065100D01*
X243326Y1065112D01*
X243334Y1065122D01*
X243355Y1065140D01*
X244864Y1066650D01*
X247001Y1067535D01*
X249315Y1067535D01*
X251452Y1066650D01*
X253088Y1065014D01*
X253973Y1062877D01*
X253973Y1060563D01*
X253088Y1058426D01*
X251452Y1056790D01*
X249315Y1055905D01*
X247001Y1055905D01*
G37*
%LPD*%
%LPC*%
G36*
X498715Y1030505D02*
X498715Y1030505D01*
X496578Y1031390D01*
X494942Y1033026D01*
X494057Y1035163D01*
X494057Y1037477D01*
X494942Y1039614D01*
X496578Y1041250D01*
X498715Y1042135D01*
X500849Y1042135D01*
X500948Y1042147D01*
X501047Y1042150D01*
X501105Y1042167D01*
X501165Y1042175D01*
X501257Y1042211D01*
X501352Y1042239D01*
X501404Y1042269D01*
X501461Y1042292D01*
X501541Y1042350D01*
X501626Y1042400D01*
X501701Y1042466D01*
X501718Y1042478D01*
X501726Y1042488D01*
X501747Y1042506D01*
X527722Y1068481D01*
X527782Y1068559D01*
X527850Y1068631D01*
X527879Y1068684D01*
X527916Y1068732D01*
X527956Y1068823D01*
X528004Y1068910D01*
X528019Y1068969D01*
X528043Y1069024D01*
X528058Y1069122D01*
X528083Y1069218D01*
X528089Y1069318D01*
X528093Y1069338D01*
X528091Y1069351D01*
X528093Y1069379D01*
X528093Y1071259D01*
X528978Y1073396D01*
X530614Y1075032D01*
X532751Y1075917D01*
X535065Y1075917D01*
X537202Y1075032D01*
X538838Y1073396D01*
X539723Y1071259D01*
X539723Y1068945D01*
X538838Y1066808D01*
X537202Y1065172D01*
X535065Y1064287D01*
X532677Y1064287D01*
X532578Y1064275D01*
X532479Y1064272D01*
X532421Y1064255D01*
X532361Y1064247D01*
X532269Y1064211D01*
X532174Y1064183D01*
X532122Y1064153D01*
X532065Y1064130D01*
X531985Y1064072D01*
X531900Y1064022D01*
X531825Y1063956D01*
X531808Y1063944D01*
X531800Y1063934D01*
X531779Y1063916D01*
X506058Y1038195D01*
X505998Y1038117D01*
X505930Y1038045D01*
X505901Y1037992D01*
X505864Y1037944D01*
X505824Y1037853D01*
X505776Y1037766D01*
X505761Y1037707D01*
X505737Y1037652D01*
X505722Y1037554D01*
X505697Y1037458D01*
X505691Y1037358D01*
X505687Y1037338D01*
X505689Y1037325D01*
X505687Y1037297D01*
X505687Y1035163D01*
X504802Y1033026D01*
X503166Y1031390D01*
X501029Y1030505D01*
X498715Y1030505D01*
G37*
%LPD*%
%LPC*%
G36*
X137273Y519711D02*
X137273Y519711D01*
X135136Y520596D01*
X133500Y522232D01*
X132615Y524369D01*
X132615Y526683D01*
X133500Y528820D01*
X134135Y529455D01*
X134208Y529549D01*
X134287Y529638D01*
X134305Y529674D01*
X134330Y529706D01*
X134378Y529815D01*
X134432Y529921D01*
X134440Y529960D01*
X134457Y529998D01*
X134475Y530115D01*
X134501Y530231D01*
X134500Y530272D01*
X134506Y530312D01*
X134495Y530430D01*
X134492Y530549D01*
X134480Y530588D01*
X134477Y530628D01*
X134436Y530740D01*
X134403Y530855D01*
X134383Y530890D01*
X134369Y530928D01*
X134302Y531026D01*
X134242Y531129D01*
X134202Y531174D01*
X134190Y531191D01*
X134175Y531204D01*
X134135Y531250D01*
X133500Y531884D01*
X132615Y534021D01*
X132615Y536335D01*
X133500Y538472D01*
X135136Y540108D01*
X137273Y540993D01*
X139587Y540993D01*
X141724Y540108D01*
X142358Y539473D01*
X142452Y539400D01*
X142542Y539321D01*
X142578Y539303D01*
X142610Y539278D01*
X142719Y539231D01*
X142825Y539176D01*
X142864Y539168D01*
X142902Y539151D01*
X143019Y539133D01*
X143135Y539107D01*
X143176Y539108D01*
X143216Y539102D01*
X143334Y539113D01*
X143453Y539116D01*
X143492Y539128D01*
X143532Y539131D01*
X143644Y539172D01*
X143759Y539205D01*
X143794Y539225D01*
X143832Y539239D01*
X143930Y539306D01*
X144033Y539366D01*
X144078Y539406D01*
X144095Y539418D01*
X144108Y539433D01*
X144153Y539473D01*
X144788Y540108D01*
X146925Y540993D01*
X149239Y540993D01*
X151376Y540108D01*
X153012Y538472D01*
X153897Y536335D01*
X153897Y534021D01*
X153012Y531884D01*
X152377Y531250D01*
X152304Y531156D01*
X152225Y531066D01*
X152207Y531030D01*
X152182Y530998D01*
X152135Y530889D01*
X152080Y530783D01*
X152072Y530744D01*
X152055Y530706D01*
X152037Y530589D01*
X152011Y530473D01*
X152012Y530432D01*
X152006Y530392D01*
X152017Y530274D01*
X152020Y530155D01*
X152032Y530116D01*
X152035Y530076D01*
X152076Y529964D01*
X152109Y529849D01*
X152129Y529814D01*
X152143Y529776D01*
X152210Y529678D01*
X152270Y529575D01*
X152310Y529530D01*
X152322Y529513D01*
X152337Y529500D01*
X152377Y529455D01*
X153012Y528820D01*
X153897Y526683D01*
X153897Y524369D01*
X153012Y522232D01*
X151376Y520596D01*
X149239Y519711D01*
X146925Y519711D01*
X144788Y520596D01*
X144154Y521231D01*
X144060Y521304D01*
X143970Y521383D01*
X143934Y521401D01*
X143902Y521426D01*
X143793Y521473D01*
X143687Y521528D01*
X143648Y521536D01*
X143610Y521553D01*
X143493Y521571D01*
X143377Y521597D01*
X143336Y521596D01*
X143296Y521602D01*
X143178Y521591D01*
X143059Y521588D01*
X143020Y521576D01*
X142980Y521573D01*
X142868Y521532D01*
X142753Y521499D01*
X142718Y521479D01*
X142680Y521465D01*
X142582Y521398D01*
X142479Y521338D01*
X142434Y521298D01*
X142417Y521286D01*
X142404Y521271D01*
X142359Y521231D01*
X141724Y520596D01*
X139587Y519711D01*
X137273Y519711D01*
G37*
%LPD*%
%LPC*%
G36*
X208393Y1103177D02*
X208393Y1103177D01*
X206256Y1104062D01*
X204620Y1105698D01*
X203735Y1107835D01*
X203735Y1110149D01*
X204620Y1112286D01*
X206256Y1113922D01*
X208393Y1114807D01*
X210707Y1114807D01*
X212844Y1113922D01*
X214353Y1112412D01*
X214431Y1112352D01*
X214503Y1112284D01*
X214556Y1112255D01*
X214604Y1112218D01*
X214695Y1112178D01*
X214782Y1112130D01*
X214840Y1112115D01*
X214896Y1112091D01*
X214994Y1112076D01*
X215090Y1112051D01*
X215190Y1112045D01*
X215210Y1112041D01*
X215222Y1112043D01*
X215250Y1112041D01*
X225061Y1112041D01*
X225160Y1112053D01*
X225259Y1112056D01*
X225317Y1112073D01*
X225377Y1112081D01*
X225469Y1112117D01*
X225564Y1112145D01*
X225616Y1112175D01*
X225673Y1112198D01*
X225753Y1112256D01*
X225838Y1112306D01*
X225913Y1112372D01*
X225930Y1112384D01*
X225938Y1112394D01*
X225959Y1112412D01*
X232320Y1118773D01*
X232380Y1118851D01*
X232448Y1118923D01*
X232477Y1118976D01*
X232514Y1119024D01*
X232554Y1119115D01*
X232602Y1119202D01*
X232617Y1119261D01*
X232641Y1119316D01*
X232656Y1119414D01*
X232681Y1119510D01*
X232687Y1119610D01*
X232691Y1119630D01*
X232689Y1119643D01*
X232691Y1119671D01*
X232691Y1122081D01*
X233576Y1124218D01*
X235212Y1125854D01*
X237349Y1126739D01*
X239663Y1126739D01*
X241800Y1125854D01*
X243436Y1124218D01*
X244321Y1122081D01*
X244321Y1119767D01*
X243436Y1117630D01*
X241800Y1115994D01*
X239663Y1115109D01*
X237805Y1115109D01*
X237706Y1115097D01*
X237607Y1115094D01*
X237549Y1115077D01*
X237489Y1115069D01*
X237397Y1115033D01*
X237302Y1115005D01*
X237250Y1114975D01*
X237193Y1114952D01*
X237113Y1114894D01*
X237028Y1114844D01*
X236953Y1114778D01*
X236936Y1114766D01*
X236928Y1114756D01*
X236907Y1114738D01*
X228113Y1105943D01*
X215250Y1105943D01*
X215152Y1105931D01*
X215053Y1105928D01*
X214995Y1105911D01*
X214935Y1105903D01*
X214843Y1105867D01*
X214748Y1105839D01*
X214695Y1105809D01*
X214639Y1105786D01*
X214559Y1105728D01*
X214474Y1105678D01*
X214398Y1105612D01*
X214382Y1105600D01*
X214374Y1105590D01*
X214353Y1105572D01*
X212844Y1104062D01*
X210707Y1103177D01*
X208393Y1103177D01*
G37*
%LPD*%
%LPC*%
G36*
X130923Y995199D02*
X130923Y995199D01*
X128786Y996084D01*
X127150Y997720D01*
X126265Y999857D01*
X126265Y1002171D01*
X126333Y1002334D01*
X126346Y1002382D01*
X126367Y1002427D01*
X126388Y1002535D01*
X126417Y1002641D01*
X126418Y1002691D01*
X126427Y1002740D01*
X126420Y1002849D01*
X126422Y1002959D01*
X126410Y1003007D01*
X126407Y1003057D01*
X126374Y1003161D01*
X126348Y1003268D01*
X126325Y1003312D01*
X126309Y1003359D01*
X126251Y1003452D01*
X126199Y1003549D01*
X126166Y1003586D01*
X126139Y1003628D01*
X126059Y1003703D01*
X125985Y1003785D01*
X125944Y1003812D01*
X125908Y1003846D01*
X125811Y1003899D01*
X125720Y1003959D01*
X125673Y1003976D01*
X125629Y1004000D01*
X125523Y1004027D01*
X125419Y1004063D01*
X125369Y1004067D01*
X125321Y1004079D01*
X125160Y1004089D01*
X124573Y1004089D01*
X122436Y1004974D01*
X120800Y1006610D01*
X119915Y1008747D01*
X119915Y1011061D01*
X120800Y1013198D01*
X122436Y1014834D01*
X124573Y1015719D01*
X126887Y1015719D01*
X129024Y1014834D01*
X130660Y1013198D01*
X131545Y1011061D01*
X131545Y1008747D01*
X131477Y1008584D01*
X131464Y1008536D01*
X131443Y1008491D01*
X131422Y1008383D01*
X131393Y1008277D01*
X131392Y1008227D01*
X131383Y1008178D01*
X131390Y1008069D01*
X131388Y1007959D01*
X131400Y1007911D01*
X131403Y1007861D01*
X131436Y1007757D01*
X131462Y1007650D01*
X131485Y1007606D01*
X131501Y1007559D01*
X131559Y1007466D01*
X131611Y1007369D01*
X131644Y1007332D01*
X131671Y1007290D01*
X131751Y1007215D01*
X131825Y1007133D01*
X131866Y1007106D01*
X131902Y1007072D01*
X131999Y1007019D01*
X132090Y1006959D01*
X132137Y1006942D01*
X132181Y1006918D01*
X132287Y1006891D01*
X132391Y1006855D01*
X132441Y1006851D01*
X132489Y1006839D01*
X132650Y1006829D01*
X133124Y1006829D01*
X133242Y1006844D01*
X133361Y1006851D01*
X133399Y1006864D01*
X133440Y1006869D01*
X133550Y1006912D01*
X133663Y1006949D01*
X133698Y1006971D01*
X133735Y1006986D01*
X133831Y1007055D01*
X133932Y1007119D01*
X133960Y1007149D01*
X133993Y1007172D01*
X134069Y1007264D01*
X134150Y1007351D01*
X134170Y1007386D01*
X134195Y1007417D01*
X134246Y1007525D01*
X134304Y1007629D01*
X134314Y1007669D01*
X134331Y1007705D01*
X134353Y1007822D01*
X134383Y1007937D01*
X134387Y1007997D01*
X134391Y1008017D01*
X134389Y1008038D01*
X134393Y1008098D01*
X134393Y1009029D01*
X135278Y1011166D01*
X136914Y1012802D01*
X139051Y1013687D01*
X141365Y1013687D01*
X143502Y1012802D01*
X145138Y1011166D01*
X146023Y1009029D01*
X146023Y1006715D01*
X145138Y1004578D01*
X143502Y1002942D01*
X141365Y1002057D01*
X139164Y1002057D01*
X139046Y1002042D01*
X138927Y1002035D01*
X138889Y1002022D01*
X138848Y1002017D01*
X138738Y1001974D01*
X138625Y1001937D01*
X138590Y1001915D01*
X138553Y1001900D01*
X138457Y1001831D01*
X138356Y1001767D01*
X138328Y1001737D01*
X138295Y1001714D01*
X138219Y1001622D01*
X138138Y1001535D01*
X138118Y1001500D01*
X138093Y1001469D01*
X138042Y1001361D01*
X137984Y1001257D01*
X137974Y1001217D01*
X137957Y1001181D01*
X137935Y1001064D01*
X137905Y1000949D01*
X137901Y1000889D01*
X137897Y1000869D01*
X137899Y1000848D01*
X137895Y1000788D01*
X137895Y999857D01*
X137010Y997720D01*
X135374Y996084D01*
X133237Y995199D01*
X130923Y995199D01*
G37*
%LPD*%
%LPC*%
G36*
X114928Y966827D02*
X114928Y966827D01*
X111410Y968285D01*
X108717Y970978D01*
X107259Y974496D01*
X107259Y978304D01*
X108717Y981822D01*
X111410Y984515D01*
X114928Y985973D01*
X118736Y985973D01*
X122254Y984515D01*
X124947Y981822D01*
X126405Y978304D01*
X126405Y974496D01*
X124947Y970978D01*
X122254Y968285D01*
X118736Y966827D01*
X114928Y966827D01*
G37*
%LPD*%
%LPC*%
G36*
X114928Y941427D02*
X114928Y941427D01*
X111410Y942885D01*
X108717Y945578D01*
X107259Y949096D01*
X107259Y952904D01*
X108717Y956422D01*
X111410Y959115D01*
X114928Y960573D01*
X118736Y960573D01*
X122254Y959115D01*
X124947Y956422D01*
X126405Y952904D01*
X126405Y949096D01*
X124947Y945578D01*
X122254Y942885D01*
X118736Y941427D01*
X114928Y941427D01*
G37*
%LPD*%
%LPC*%
G36*
X114928Y916027D02*
X114928Y916027D01*
X111410Y917485D01*
X108717Y920178D01*
X107259Y923696D01*
X107259Y927504D01*
X108717Y931022D01*
X111410Y933715D01*
X114928Y935173D01*
X118736Y935173D01*
X122254Y933715D01*
X124947Y931022D01*
X126405Y927504D01*
X126405Y923696D01*
X124947Y920178D01*
X122254Y917485D01*
X118736Y916027D01*
X114928Y916027D01*
G37*
%LPD*%
%LPC*%
G36*
X114928Y890627D02*
X114928Y890627D01*
X111410Y892085D01*
X108717Y894778D01*
X107259Y898296D01*
X107259Y902104D01*
X108717Y905622D01*
X111410Y908315D01*
X114928Y909773D01*
X118736Y909773D01*
X122254Y908315D01*
X124947Y905622D01*
X126405Y902104D01*
X126405Y898296D01*
X124947Y894778D01*
X122254Y892085D01*
X118736Y890627D01*
X114928Y890627D01*
G37*
%LPD*%
%LPC*%
G36*
X114928Y865227D02*
X114928Y865227D01*
X111410Y866685D01*
X108717Y869378D01*
X107259Y872896D01*
X107259Y876704D01*
X108717Y880222D01*
X111410Y882915D01*
X114928Y884373D01*
X118736Y884373D01*
X122254Y882915D01*
X124947Y880222D01*
X126405Y876704D01*
X126405Y872896D01*
X124947Y869378D01*
X122254Y866685D01*
X118736Y865227D01*
X114928Y865227D01*
G37*
%LPD*%
%LPC*%
G36*
X114928Y839827D02*
X114928Y839827D01*
X111410Y841285D01*
X108717Y843978D01*
X107259Y847496D01*
X107259Y851304D01*
X108717Y854822D01*
X111410Y857515D01*
X114928Y858973D01*
X118736Y858973D01*
X122254Y857515D01*
X124947Y854822D01*
X126405Y851304D01*
X126405Y847496D01*
X124947Y843978D01*
X122254Y841285D01*
X118736Y839827D01*
X114928Y839827D01*
G37*
%LPD*%
%LPC*%
G36*
X114928Y814427D02*
X114928Y814427D01*
X111410Y815885D01*
X108717Y818578D01*
X107259Y822096D01*
X107259Y825904D01*
X108717Y829422D01*
X111410Y832115D01*
X114928Y833573D01*
X118736Y833573D01*
X122254Y832115D01*
X124947Y829422D01*
X126405Y825904D01*
X126405Y822096D01*
X124947Y818578D01*
X122254Y815885D01*
X118736Y814427D01*
X114928Y814427D01*
G37*
%LPD*%
%LPC*%
G36*
X114928Y789027D02*
X114928Y789027D01*
X111410Y790485D01*
X108717Y793178D01*
X107259Y796696D01*
X107259Y800504D01*
X108717Y804022D01*
X111410Y806715D01*
X114928Y808173D01*
X118736Y808173D01*
X122254Y806715D01*
X124947Y804022D01*
X126405Y800504D01*
X126405Y796696D01*
X124947Y793178D01*
X122254Y790485D01*
X118736Y789027D01*
X114928Y789027D01*
G37*
%LPD*%
%LPC*%
G36*
X114928Y763627D02*
X114928Y763627D01*
X111410Y765085D01*
X108717Y767778D01*
X107259Y771296D01*
X107259Y775104D01*
X108717Y778622D01*
X111410Y781315D01*
X114928Y782773D01*
X118736Y782773D01*
X122254Y781315D01*
X124947Y778622D01*
X126405Y775104D01*
X126405Y771296D01*
X124947Y767778D01*
X122254Y765085D01*
X118736Y763627D01*
X114928Y763627D01*
G37*
%LPD*%
%LPC*%
G36*
X202043Y1171475D02*
X202043Y1171475D01*
X199906Y1172360D01*
X198270Y1173996D01*
X197385Y1176133D01*
X197385Y1178447D01*
X198270Y1180584D01*
X199906Y1182220D01*
X202043Y1183105D01*
X204357Y1183105D01*
X206494Y1182220D01*
X208130Y1180584D01*
X209015Y1178447D01*
X209015Y1176133D01*
X208130Y1173996D01*
X206494Y1172360D01*
X204357Y1171475D01*
X202043Y1171475D01*
G37*
%LPD*%
%LPC*%
G36*
X144385Y1121183D02*
X144385Y1121183D01*
X142248Y1122068D01*
X140612Y1123704D01*
X139727Y1125841D01*
X139727Y1128155D01*
X140612Y1130292D01*
X142248Y1131928D01*
X144385Y1132813D01*
X146699Y1132813D01*
X148836Y1131928D01*
X150472Y1130292D01*
X151357Y1128155D01*
X151357Y1125841D01*
X150472Y1123704D01*
X148836Y1122068D01*
X146699Y1121183D01*
X144385Y1121183D01*
G37*
%LPD*%
%LPC*%
G36*
X212843Y1019185D02*
X212843Y1019185D01*
X210706Y1020070D01*
X209070Y1021706D01*
X208185Y1023843D01*
X208185Y1026157D01*
X209070Y1028294D01*
X210706Y1029930D01*
X212843Y1030815D01*
X215157Y1030815D01*
X217294Y1029930D01*
X218930Y1028294D01*
X219815Y1026157D01*
X219815Y1023843D01*
X218930Y1021706D01*
X217294Y1020070D01*
X215157Y1019185D01*
X212843Y1019185D01*
G37*
%LPD*%
%LPC*%
G36*
X341064Y1004851D02*
X341064Y1004851D01*
X338927Y1005736D01*
X337292Y1007372D01*
X336406Y1009509D01*
X336406Y1011823D01*
X337292Y1013960D01*
X338927Y1015596D01*
X341064Y1016481D01*
X343378Y1016481D01*
X345515Y1015596D01*
X347151Y1013960D01*
X348036Y1011823D01*
X348036Y1009509D01*
X347151Y1007372D01*
X345515Y1005736D01*
X343378Y1004851D01*
X341064Y1004851D01*
G37*
%LPD*%
%LPC*%
G36*
X165213Y1000025D02*
X165213Y1000025D01*
X163076Y1000910D01*
X161440Y1002546D01*
X160555Y1004683D01*
X160555Y1006997D01*
X161440Y1009134D01*
X163076Y1010770D01*
X165213Y1011655D01*
X167527Y1011655D01*
X169664Y1010770D01*
X171300Y1009134D01*
X172185Y1006997D01*
X172185Y1004683D01*
X171300Y1002546D01*
X169664Y1000910D01*
X167527Y1000025D01*
X165213Y1000025D01*
G37*
%LPD*%
%LPC*%
G36*
X243699Y748565D02*
X243699Y748565D01*
X241562Y749450D01*
X239926Y751086D01*
X239041Y753223D01*
X239041Y755537D01*
X239926Y757674D01*
X241562Y759310D01*
X243699Y760195D01*
X246013Y760195D01*
X248150Y759310D01*
X249786Y757674D01*
X250671Y755537D01*
X250671Y753223D01*
X249786Y751086D01*
X248150Y749450D01*
X246013Y748565D01*
X243699Y748565D01*
G37*
%LPD*%
%LPC*%
G36*
X354443Y604547D02*
X354443Y604547D01*
X352306Y605432D01*
X350670Y607068D01*
X349785Y609205D01*
X349785Y611519D01*
X350670Y613656D01*
X352306Y615292D01*
X354443Y616177D01*
X356757Y616177D01*
X358894Y615292D01*
X360530Y613656D01*
X361415Y611519D01*
X361415Y609205D01*
X360530Y607068D01*
X358894Y605432D01*
X356757Y604547D01*
X354443Y604547D01*
G37*
%LPD*%
%LPC*%
G36*
X298309Y592355D02*
X298309Y592355D01*
X296172Y593240D01*
X294536Y594876D01*
X293651Y597013D01*
X293651Y599327D01*
X294536Y601464D01*
X296172Y603100D01*
X298309Y603985D01*
X300623Y603985D01*
X302760Y603100D01*
X304396Y601464D01*
X305281Y599327D01*
X305281Y597013D01*
X304396Y594876D01*
X302760Y593240D01*
X300623Y592355D01*
X298309Y592355D01*
G37*
%LPD*%
D10*
X116832Y976400D03*
X116832Y951000D03*
X116832Y925600D03*
X116832Y900200D03*
X116832Y874800D03*
X116832Y849400D03*
X116832Y824000D03*
X116832Y798600D03*
X116832Y773200D03*
X269232Y773200D03*
X269232Y798600D03*
X269232Y824000D03*
X269232Y849400D03*
X269232Y874800D03*
X269232Y900200D03*
X269232Y925600D03*
X269232Y951000D03*
X269232Y976400D03*
X488348Y975990D03*
X488348Y950590D03*
X488348Y925190D03*
X488348Y899790D03*
X488348Y874390D03*
X488348Y848990D03*
X488348Y823590D03*
X488348Y798190D03*
X488348Y772790D03*
X640748Y772790D03*
X640748Y798190D03*
X640748Y823590D03*
X640748Y848990D03*
X640748Y874390D03*
X640748Y899790D03*
X640748Y925190D03*
X640748Y950590D03*
X640748Y975990D03*
D11*
X259080Y561340D03*
X259080Y585470D03*
X162560Y538480D03*
X288290Y695960D03*
X99060Y617220D03*
X73660Y737870D03*
X104140Y1116330D03*
X119380Y1111250D03*
X191770Y1008380D03*
X260350Y1038860D03*
X291675Y1010920D03*
X594360Y1141730D03*
X386080Y636270D03*
X156464Y1108710D03*
X245110Y977900D03*
X384810Y1012190D03*
X210820Y1097280D03*
D12*
X368300Y213360D02*
X368300Y193040D01*
D11*
X368300Y193040D03*
D12*
X340360Y241300D02*
X340360Y508000D01*
X340360Y241300D02*
X368300Y213360D01*
D11*
X138430Y535178D03*
X148082Y535178D03*
X148082Y525526D03*
X138430Y525526D03*
X640334Y1141222D03*
X342221Y1010666D03*
X229108Y1017524D03*
X268478Y1129792D03*
X145542Y1126998D03*
X166370Y1005840D03*
X299466Y598170D03*
X355600Y610362D03*
X351790Y210058D03*
X203200Y1177290D03*
D13*
X640748Y798190D02*
X565539Y722981D01*
X529114Y722981D01*
D11*
X529114Y722981D03*
X209550Y1108992D03*
D13*
X226850Y1108992D01*
X238760Y1120902D02*
X239014Y1120902D01*
X238760Y1120902D02*
X238528Y1120902D01*
X238506Y1120924D01*
D11*
X238506Y1120924D03*
D13*
X238760Y1120902D02*
X226850Y1108992D01*
D11*
X499872Y1036320D03*
D13*
X533654Y1070102D01*
X533908Y1070102D01*
D11*
X533908Y1070102D03*
X132080Y1001014D03*
X244856Y754380D03*
X161290Y1080770D03*
D13*
X79248Y998728D01*
X79248Y781050D01*
X110998Y749300D01*
X180340Y749300D01*
X204470Y725170D01*
X260350Y725170D01*
D11*
X280670Y745490D03*
D13*
X260350Y725170D01*
D11*
X162560Y1070610D03*
D13*
X168374Y1077836D02*
X168374Y1083704D01*
X162560Y1072022D02*
X162560Y1070610D01*
X162560Y1072022D02*
X168374Y1077836D01*
X168374Y1083704D02*
X161148Y1090930D01*
X129540Y1090930D01*
X74930Y1036320D02*
X74930Y779261D01*
X74930Y1036320D02*
X129540Y1090930D01*
X109209Y744982D02*
X178551Y744982D01*
X202681Y720852D02*
X268489Y720852D01*
X202681Y720852D02*
X178551Y744982D01*
X109209Y744982D02*
X74930Y779261D01*
X268489Y720852D02*
X286777Y739140D01*
X287020Y739140D01*
X287020Y738269D01*
X286820Y738070D01*
D11*
X286820Y738070D03*
X268732Y745236D03*
X140208Y1007872D03*
X125730Y1009904D03*
X129540Y756920D03*
X650240Y744220D03*
X621030Y824230D03*
X387350Y210566D03*
X369316Y229108D03*
X248158Y1061720D03*
D13*
X221488Y1061720D01*
X204368Y1078840D01*
X204216Y1078992D01*
D11*
X204368Y1078840D03*
X511336Y682345D03*
D13*
X381808Y682345D01*
X362337Y662874D01*
X272599Y662874D01*
X270060Y665413D01*
D11*
X270060Y665413D03*
X203200Y1057910D03*
D13*
X233680Y1027430D01*
X455930Y1027430D01*
X482600Y1000760D01*
D11*
X482600Y1000760D03*
X473710Y744220D03*
X176530Y989330D03*
D13*
X347980Y816610D02*
X347980Y681990D01*
X255850Y893858D02*
X255850Y908740D01*
X255850Y893858D02*
X261620Y888088D01*
X276502Y888088D01*
X255850Y908740D02*
X176530Y989330D01*
X276502Y888088D02*
X347980Y816610D01*
D11*
X347980Y681990D03*
X214000Y1025000D03*
X328000Y980000D03*
M02*
