G04 #@! TF.FileFunction,Profile,NP*
%FSLAX46Y46*%
G04 Gerber Fmt 4.6, Leading zero omitted, Abs format (unit mm)*
G04 Created by KiCad (PCBNEW 4.0.7) date Saturday, October 27, 2018 'PMt' 11:49:14 PM*
%MOMM*%
%LPD*%
G01*
G04 APERTURE LIST*
%ADD10C,0.100000*%
G04 APERTURE END LIST*
D10*
X132606995Y-124095522D02*
X132606995Y-124095522D01*
X133726074Y-124148326D02*
X132606995Y-124095522D01*
X136758970Y-124187035D02*
X133726074Y-124148326D01*
X148690286Y-124223154D02*
X136758970Y-124187035D01*
X161868385Y-124201169D02*
X148690286Y-124223154D01*
X164134138Y-124149150D02*
X161868385Y-124201169D01*
X164624584Y-124108352D02*
X164134138Y-124149150D01*
X164853748Y-124055966D02*
X164624584Y-124108352D01*
X165174734Y-123899383D02*
X164853748Y-124055966D01*
X165448441Y-123716610D02*
X165174734Y-123899383D01*
X165676161Y-123505604D02*
X165448441Y-123716610D01*
X165859165Y-123264315D02*
X165676161Y-123505604D01*
X165998744Y-122990695D02*
X165859165Y-123264315D01*
X166096175Y-122682698D02*
X165998744Y-122990695D01*
X166152744Y-122338282D02*
X166096175Y-122682698D01*
X166169734Y-121955394D02*
X166152744Y-122338282D01*
X166119382Y-121271101D02*
X166169734Y-121955394D01*
X165977100Y-120604506D02*
X166119382Y-121271101D01*
X165743798Y-119958785D02*
X165977100Y-120604506D01*
X165420389Y-119337117D02*
X165743798Y-119958785D01*
X165041621Y-118711007D02*
X165420389Y-119337117D01*
X165476810Y-117775686D02*
X165041621Y-118711007D01*
X165831677Y-116928283D02*
X165476810Y-117775686D01*
X166103124Y-116062024D02*
X165831677Y-116928283D01*
X166294634Y-115126404D02*
X166103124Y-116062024D01*
X166409682Y-114070921D02*
X166294634Y-115126404D01*
X166451750Y-112845069D02*
X166409682Y-114070921D01*
X166424318Y-111398344D02*
X166451750Y-112845069D01*
X166330857Y-109680240D02*
X166424318Y-111398344D01*
X166174850Y-107640250D02*
X166330857Y-109680240D01*
X166139821Y-107166679D02*
X166174850Y-107640250D01*
X166150122Y-106921264D02*
X166139821Y-107166679D01*
X166178147Y-106860676D02*
X166150122Y-106921264D01*
X166224547Y-106829006D02*
X166178147Y-106860676D01*
X166381903Y-106814923D02*
X166224547Y-106829006D01*
X166951131Y-106733662D02*
X166381903Y-106814923D01*
X167785617Y-106523195D02*
X166951131Y-106733662D01*
X168709646Y-106233503D02*
X167785617Y-106523195D01*
X169547499Y-105914558D02*
X168709646Y-106233503D01*
X170505773Y-105451191D02*
X169547499Y-105914558D01*
X171409940Y-104909756D02*
X170505773Y-105451191D01*
X172258949Y-104291275D02*
X171409940Y-104909756D01*
X173051740Y-103596754D02*
X172258949Y-104291275D01*
X173787253Y-102827213D02*
X173051740Y-103596754D01*
X174464431Y-101983665D02*
X173787253Y-102827213D01*
X175082213Y-101067123D02*
X174464431Y-101983665D01*
X175639542Y-100078597D02*
X175082213Y-101067123D01*
X176185151Y-98915367D02*
X175639542Y-100078597D01*
X176649596Y-97700579D02*
X176185151Y-98915367D01*
X177035030Y-96423114D02*
X176649596Y-97700579D01*
X177343631Y-95071842D02*
X177035030Y-96423114D01*
X177577554Y-93635642D02*
X177343631Y-95071842D01*
X177738971Y-92103384D02*
X177577554Y-93635642D01*
X177830041Y-90463946D02*
X177738971Y-92103384D01*
X177852929Y-88706204D02*
X177830041Y-90463946D01*
X177840088Y-86473547D02*
X177852929Y-88706204D01*
X178190786Y-85920552D02*
X177840088Y-86473547D01*
X178593472Y-85209084D02*
X178190786Y-85920552D01*
X178854968Y-84539950D02*
X178593472Y-85209084D01*
X178997817Y-83836669D02*
X178854968Y-84539950D01*
X179044548Y-83022754D02*
X178997817Y-83836669D01*
X179005367Y-82118251D02*
X179044548Y-83022754D01*
X178947373Y-81721724D02*
X179005367Y-82118251D01*
X178860341Y-81350215D02*
X178947373Y-81721724D01*
X178741701Y-80994640D02*
X178860341Y-81350215D01*
X178588883Y-80645892D02*
X178741701Y-80994640D01*
X178170421Y-79932519D02*
X178588883Y-80645892D01*
X177786164Y-79424471D02*
X178170421Y-79932519D01*
X177359038Y-78975001D02*
X177786164Y-79424471D01*
X176894322Y-78584629D02*
X177359038Y-78975001D01*
X176397312Y-78253864D02*
X176894322Y-78584629D01*
X175873299Y-77983227D02*
X176397312Y-78253864D01*
X175327571Y-77773229D02*
X175873299Y-77983227D01*
X174765418Y-77624382D02*
X175327571Y-77773229D01*
X174192135Y-77537206D02*
X174765418Y-77624382D01*
X173613009Y-77512230D02*
X174192135Y-77537206D01*
X173033327Y-77549937D02*
X173613009Y-77512230D01*
X172458384Y-77650857D02*
X173033327Y-77549937D01*
X171893471Y-77815506D02*
X172458384Y-77650857D01*
X171343877Y-78044402D02*
X171893471Y-77815506D01*
X170814891Y-78338054D02*
X171343877Y-78044402D01*
X170311802Y-78696979D02*
X170814891Y-78338054D01*
X169839904Y-79121695D02*
X170311802Y-78696979D01*
X169553996Y-79432608D02*
X169839904Y-79121695D01*
X169295856Y-79760550D02*
X169553996Y-79432608D01*
X169065791Y-80103845D02*
X169295856Y-79760550D01*
X168864095Y-80460808D02*
X169065791Y-80103845D01*
X168691065Y-80829763D02*
X168864095Y-80460808D01*
X168546999Y-81209030D02*
X168691065Y-80829763D01*
X168432194Y-81596925D02*
X168546999Y-81209030D01*
X168346943Y-81991771D02*
X168432194Y-81596925D01*
X168291551Y-82391883D02*
X168346943Y-81991771D01*
X168266320Y-82795588D02*
X168291551Y-82391883D01*
X168271541Y-83201197D02*
X168266320Y-82795588D01*
X168307496Y-83607036D02*
X168271541Y-83201197D01*
X168374496Y-84011421D02*
X168307496Y-83607036D01*
X168472839Y-84412676D02*
X168374496Y-84011421D01*
X168602819Y-84809116D02*
X168472839Y-84412676D01*
X168764736Y-85199063D02*
X168602819Y-84809116D01*
X169065037Y-85790030D02*
X168764736Y-85199063D01*
X169279814Y-86110417D02*
X169065037Y-85790030D01*
X169351388Y-86205332D02*
X169279814Y-86110417D01*
X169398737Y-86356247D02*
X169351388Y-86205332D01*
X169419452Y-86855368D02*
X169398737Y-86356247D01*
X169339273Y-87666393D02*
X169419452Y-86855368D01*
X169155552Y-88847928D02*
X169339273Y-87666393D01*
X168857248Y-90358330D02*
X169155552Y-88847928D01*
X168507140Y-91712071D02*
X168857248Y-90358330D01*
X168112100Y-92895361D02*
X168507140Y-91712071D01*
X167678996Y-93894425D02*
X168112100Y-92895361D01*
X167450320Y-94320558D02*
X167678996Y-93894425D01*
X167214701Y-94695465D02*
X167450320Y-94320558D01*
X166973009Y-95017421D02*
X167214701Y-94695465D01*
X166726092Y-95284708D02*
X166973009Y-95017421D01*
X166474819Y-95495593D02*
X166726092Y-95284708D01*
X166220037Y-95648357D02*
X166474819Y-95495593D01*
X165962619Y-95741285D02*
X166220037Y-95648357D01*
X165703412Y-95772642D02*
X165962619Y-95741285D01*
X165509797Y-95757910D02*
X165703412Y-95772642D01*
X165389206Y-95683576D02*
X165509797Y-95757910D01*
X165305106Y-95504359D02*
X165389206Y-95683576D01*
X165220945Y-95174980D02*
X165305106Y-95504359D01*
X165006256Y-94474110D02*
X165220945Y-95174980D01*
X164682868Y-93628290D02*
X165006256Y-94474110D01*
X164282071Y-92679253D02*
X164682868Y-93628290D01*
X164795450Y-92148395D02*
X164282071Y-92679253D01*
X165420558Y-91447688D02*
X164795450Y-92148395D01*
X165964298Y-90721581D02*
X165420558Y-91447688D01*
X166427707Y-89967690D02*
X165964298Y-90721581D01*
X166811809Y-89183628D02*
X166427707Y-89967690D01*
X167117633Y-88367010D02*
X166811809Y-89183628D01*
X167346211Y-87515449D02*
X167117633Y-88367010D01*
X167498569Y-86626562D02*
X167346211Y-87515449D01*
X167575734Y-85697958D02*
X167498569Y-86626562D01*
X167590861Y-84850033D02*
X167575734Y-85697958D01*
X167528049Y-83951282D02*
X167590861Y-84850033D01*
X167344896Y-82616732D02*
X167528049Y-83951282D01*
X166998993Y-80461401D02*
X167344896Y-82616732D01*
X166236793Y-76343626D02*
X166998993Y-80461401D01*
X165064154Y-70439292D02*
X166236793Y-76343626D01*
X163929685Y-64961607D02*
X165064154Y-70439292D01*
X163516955Y-63074384D02*
X163929685Y-64961607D01*
X163281999Y-62123778D02*
X163516955Y-63074384D01*
X163105077Y-61762158D02*
X163281999Y-62123778D01*
X162838041Y-61448917D02*
X163105077Y-61762158D01*
X162501147Y-61191965D02*
X162838041Y-61448917D01*
X162114635Y-60999210D02*
X162501147Y-61191965D01*
X161698755Y-60878557D02*
X162114635Y-60999210D01*
X161273757Y-60837917D02*
X161698755Y-60878557D01*
X160859886Y-60885198D02*
X161273757Y-60837917D01*
X160477388Y-61028310D02*
X160859886Y-60885198D01*
X160040764Y-61393497D02*
X160477388Y-61028310D01*
X159119193Y-62244075D02*
X160040764Y-61393497D01*
X156361411Y-64894037D02*
X159119193Y-62244075D01*
X152606955Y-68565317D02*
X156361411Y-64894037D01*
X148716426Y-68565317D02*
X152606955Y-68565317D01*
X144825896Y-68565317D02*
X148716426Y-68565317D01*
X141076693Y-64895968D02*
X144825896Y-68565317D01*
X138320703Y-62246801D02*
X141076693Y-64895968D01*
X137398180Y-61396023D02*
X138320703Y-62246801D01*
X136959435Y-61030240D02*
X137398180Y-61396023D01*
X136583436Y-60889490D02*
X136959435Y-61030240D01*
X136165702Y-60837310D02*
X136583436Y-60889490D01*
X135732127Y-60874160D02*
X136165702Y-60837310D01*
X135308599Y-61000511D02*
X135732127Y-60874160D01*
X134937953Y-61189134D02*
X135308599Y-61000511D01*
X134641569Y-61419103D02*
X134937953Y-61189134D01*
X134406184Y-61703227D02*
X134641569Y-61419103D01*
X134218546Y-62054329D02*
X134406184Y-61703227D01*
X133991448Y-62898182D02*
X134218546Y-62054329D01*
X133577041Y-64716545D02*
X133991448Y-62898182D01*
X132416233Y-70168503D02*
X133577041Y-64716545D01*
X131195986Y-76193600D02*
X132416233Y-70168503D01*
X130376164Y-80575241D02*
X131195986Y-76193600D01*
X129919641Y-83595953D02*
X130376164Y-80575241D01*
X129821691Y-84555331D02*
X129919641Y-83595953D01*
X129791792Y-85299522D02*
X129821691Y-84555331D01*
X129834557Y-86237753D02*
X129791792Y-85299522D01*
X129963380Y-87154222D02*
X129834557Y-86237753D01*
X130176622Y-88044825D02*
X129963380Y-87154222D01*
X130472650Y-88905464D02*
X130176622Y-88044825D01*
X130849823Y-89732034D02*
X130472650Y-88905464D01*
X131306507Y-90520442D02*
X130849823Y-89732034D01*
X131841070Y-91266578D02*
X131306507Y-90520442D01*
X132451872Y-91966345D02*
X131841070Y-91266578D01*
X133121196Y-92663372D02*
X132451872Y-91966345D01*
X132779594Y-93416753D02*
X133121196Y-92663372D01*
X132515668Y-94077254D02*
X132779594Y-93416753D01*
X132267846Y-94837524D02*
X132515668Y-94077254D01*
X132063689Y-95604446D02*
X132267846Y-94837524D01*
X131930754Y-96284904D02*
X132063689Y-95604446D01*
X131695412Y-99426319D02*
X131930754Y-96284904D01*
X131335257Y-105327733D02*
X131695412Y-99426319D01*
X131016027Y-111133188D02*
X131335257Y-105327733D01*
X130923554Y-113107448D02*
X131016027Y-111133188D01*
X130903460Y-113986734D02*
X130923554Y-113107448D01*
X131052862Y-115071585D02*
X130903460Y-113986734D01*
X131261238Y-116024031D02*
X131052862Y-115071585D01*
X131551380Y-116928960D02*
X131261238Y-116024031D01*
X131946059Y-117871246D02*
X131551380Y-116928960D01*
X132344797Y-118739049D02*
X131946059Y-117871246D01*
X132043742Y-119193974D02*
X132344797Y-118739049D01*
X131804324Y-119607737D02*
X132043742Y-119193974D01*
X131598686Y-120066410D02*
X131804324Y-119607737D01*
X131430577Y-120552270D02*
X131598686Y-120066410D01*
X131303766Y-121047601D02*
X131430577Y-120552270D01*
X131222015Y-121534683D02*
X131303766Y-121047601D01*
X131189085Y-121995797D02*
X131222015Y-121534683D01*
X131208728Y-122413232D02*
X131189085Y-121995797D01*
X131284719Y-122769258D02*
X131208728Y-122413232D01*
X131366383Y-122954272D02*
X131284719Y-122769258D01*
X131489328Y-123151229D02*
X131366383Y-122954272D01*
X131824277Y-123546100D02*
X131489328Y-123151229D01*
X132220026Y-123884121D02*
X131824277Y-123546100D01*
X132418970Y-124010020D02*
X132220026Y-123884121D01*
X132607035Y-124095547D02*
X132418970Y-124010020D01*
M02*
