<?xml version="1.0" encoding="UTF-8" standalone="no"?>
<!-- Generator: Adobe Illustrator 21.1.0, SVG Export Plug-In . SVG Version: 6.00 Build 0)  -->

<svg
   xmlns:dc="http://purl.org/dc/elements/1.1/"
   xmlns:cc="http://creativecommons.org/ns#"
   xmlns:rdf="http://www.w3.org/1999/02/22-rdf-syntax-ns#"
   xmlns:svg="http://www.w3.org/2000/svg"
   xmlns="http://www.w3.org/2000/svg"
   xmlns:sodipodi="http://sodipodi.sourceforge.net/DTD/sodipodi-0.dtd"
   xmlns:inkscape="http://www.inkscape.org/namespaces/inkscape"
   version="1.1"
   id="Layer_1"
   x="0px"
   y="0px"
   viewBox="0 0 179.99999 163.60357"
   xml:space="preserve"
   inkscape:version="0.91 r13725"
   sodipodi:docname="meow_v5-thick outline-face-full.svg"
   width="180"
   height="163.60358"><sodipodi:namedview
     pagecolor="#ffffff"
     bordercolor="#666666"
     borderopacity="1"
     objecttolerance="10"
     gridtolerance="10"
     guidetolerance="10"
     inkscape:pageopacity="0"
     inkscape:pageshadow="2"
     inkscape:window-width="1374"
     inkscape:window-height="1010"
     id="namedview126"
     showgrid="false"
     inkscape:zoom="3.1074454"
     inkscape:cx="83.599231"
     inkscape:cy="95.11408"
     inkscape:window-x="503"
     inkscape:window-y="205"
     inkscape:window-maximized="0"
     inkscape:current-layer="layer3"
     inkscape:document-units="mm"
     fit-margin-top="0"
     fit-margin-left="0"
     fit-margin-right="0"
     fit-margin-bottom="0" /><metadata
     id="metadata130"><rdf:RDF><cc:Work
         rdf:about=""><dc:format>image/svg+xml</dc:format><dc:type
           rdf:resource="http://purl.org/dc/dcmitype/StillImage" /><dc:title></dc:title></cc:Work></rdf:RDF></metadata><defs
     id="defs128" /><style
     type="text/css"
     id="style3">
	.st0{fill:#EFEFEF;stroke:#F16B6C;stroke-width:5;stroke-miterlimit:10;}
	.st1{fill:#FFFFFF;stroke:#F16B6C;stroke-width:5;stroke-miterlimit:10;}
	.st2{fill:#F16B6C;}
	.st3{fill:none;stroke:#F16B6C;stroke-width:5;stroke-miterlimit:10;}
	.st4{fill:#FFFFFF;}
	.st5{fill:none;stroke:#F16B6C;stroke-width:4.5536;stroke-linecap:round;stroke-miterlimit:10;}
	.st6{fill:#FFCC00;}
</style><g
     inkscape:groupmode="layer"
     id="layer2"
     inkscape:label="Edge"
     style="display:inline"><g
       style="display:inline"
       transform="matrix(1.2083928,0,0,1.2083928,-84.006156,-70.945809)"
       id="g4434"><path
         id="path4436"
         d="M 26.378906,2.4472656 25.090027,2.6035843 23.843261,2.9588013 22.666076,3.5049057 21.585937,4.2338867 20.63031,5.1377335 19.82666,6.2084351 19.202453,7.4379807 18.785156,8.8183594 8.2558594,58.605469 7.6465994,60.93147 7.1835938,63.318359 2.984375,89.21875 l -0.3897705,3.358643 -0.089331,3.316748 0.1998291,3.261084 0.47771,3.191645 0.7443115,3.10845 0.9996338,3.01148 1.2436768,2.90073 1.4764404,2.77622 1.6979248,2.63794 1.9081301,2.48589 2.107055,2.32007 2.294703,2.14048 2.471069,1.94711 2.636157,1.73999 2.789966,1.5191 2.932495,1.28442 3.221814,1.08119 3.35299,0.81861 3.465491,0.51862 3.559314,0.18119 6.59961,0 55.601566,0 6.69922,0 3.54375,-0.16563 3.43125,-0.48437 3.31875,-0.78438 3.20625,-1.06562 2.91602,-1.28444 2.77773,-1.51925 2.62773,-1.74044 2.46602,-1.948 2.29258,-2.14193 2.10742,-2.32226 1.91055,-2.48896 1.70195,-2.64203 1.48164,-2.78148 1.24961,-2.90731 1.00586,-3.01952 0.75039,-3.11811 0.4832,-3.203079 0.2043,-3.274419 -0.0863,-3.332141 -0.38867,-3.376241 -3.99805,-24.662109 0.0976,0.06055 -0.53125,-2.535157 -0.17578,-0.839843 L 130.38475,8.8183624 130.06834,7.7022535 129.616,6.6816604 129.04178,5.7606836 128.35975,4.9434234 126.7285,3.6364547 124.83475,2.7935577 122.791,2.4475357 120.70975,2.631192 118.7035,3.37733 l -0.93984,0.5942506 -0.87891,0.7471724 -27.599614,27 -29.40039,0 -27.59961,-27 -1.34209,-1.063208 -1.463379,-0.7238037 -1.537207,-0.398169 -1.563574,-0.086304 0,0"
         style="fill:#f16b6c;fill-opacity:1;stroke:#f16b6c;stroke-width:5;stroke-miterlimit:10"
         inkscape:connector-curvature="0"
         transform="translate(69.515703,58.781924)" /></g><g
       id="Layer_2"
       transform="matrix(1.1842249,0,0,1.1842249,-80.52606,-67.901691)"
       style="fill:#fdfcff;fill-opacity:1;stroke:none"><path
         inkscape:connector-curvature="0"
         transform="translate(69.515703,58.781924)"
         style="fill:#fdfcff;fill-opacity:1;stroke:none;stroke-width:5;stroke-miterlimit:10"
         d="M 26.378906,2.4472656 25.090027,2.6035843 23.843261,2.9588013 22.666076,3.5049057 21.585937,4.2338867 20.63031,5.1377335 19.82666,6.2084351 19.202453,7.4379807 18.785156,8.8183594 8.2558594,58.605469 7.6465994,60.93147 7.1835938,63.318359 2.984375,89.21875 l -0.3897705,3.358643 -0.089331,3.316748 0.1998291,3.261084 0.47771,3.191645 0.7443115,3.10845 0.9996338,3.01148 1.2436768,2.90073 1.4764404,2.77622 1.6979248,2.63794 1.9081301,2.48589 2.107055,2.32007 2.294703,2.14048 2.471069,1.94711 2.636157,1.73999 2.789966,1.5191 2.932495,1.28442 3.221814,1.08119 3.35299,0.81861 3.465491,0.51862 3.559314,0.18119 6.59961,0 55.601566,0 6.69922,0 3.54375,-0.16563 3.43125,-0.48437 3.31875,-0.78438 3.20625,-1.06562 2.91602,-1.28444 2.77773,-1.51925 2.62773,-1.74044 2.46602,-1.948 2.29258,-2.14193 2.10742,-2.32226 1.91055,-2.48896 1.70195,-2.64203 1.48164,-2.78148 1.24961,-2.90731 1.00586,-3.01952 0.75039,-3.11811 0.4832,-3.203079 0.2043,-3.274419 -0.0863,-3.332141 -0.38867,-3.376241 -3.99805,-24.662109 0.0976,0.06055 -0.53125,-2.535157 -0.17578,-0.839843 L 130.38475,8.8183624 130.06834,7.7022535 129.616,6.6816604 129.04178,5.7606836 128.35975,4.9434234 126.7285,3.6364547 124.83475,2.7935577 122.791,2.4475357 120.70975,2.631192 118.7035,3.37733 l -0.93984,0.5942506 -0.87891,0.7471724 -27.599614,27 -29.40039,0 -27.59961,-27 -1.34209,-1.063208 -1.463379,-0.7238037 -1.537207,-0.398169 -1.563574,-0.086304 0,0"
         id="path8" /></g><g
       id="svg8"
       inkscape:export-filename="C:\Users\dash\Documents\GitHub\defcon26-meow\art\meow_v1.png"
       inkscape:export-xdpi="96"
       inkscape:export-ydpi="96"
       inkscape:version="0.92.1 r15371"
       sodipodi:docname="meow_v3.svg"
       transform="translate(190.62123,-34.604164)"><sodipodi:namedview
         bordercolor="#666666"
         borderopacity="1.0"
         id="base"
         inkscape:current-layer="layer12"
         inkscape:cx="62.544425"
         inkscape:cy="233.65003"
         inkscape:document-units="cm"
         inkscape:guide-bbox="true"
         inkscape:lockguides="false"
         inkscape:object-nodes="false"
         inkscape:object-paths="false"
         inkscape:pagecheckerboard="true"
         inkscape:pageopacity="0.0"
         inkscape:pageshadow="2"
         inkscape:snap-intersection-paths="false"
         inkscape:snap-nodes="false"
         inkscape:snap-smooth-nodes="false"
         inkscape:snap-to-guides="true"
         inkscape:window-height="1048"
         inkscape:window-maximized="1"
         inkscape:window-width="1735"
         inkscape:window-x="1921"
         inkscape:window-y="0"
         inkscape:zoom="1.4142136"
         objecttolerance="10000"
         pagecolor="#ffffff"
         showgrid="false"
         showguides="false"
         units="cm"><sodipodi:guide
           id="guide4491"
           inkscape:locked="false"
           orientation="1,0"
           position="70.114584,301.625" /><sodipodi:guide
           id="guide4493"
           inkscape:locked="false"
           orientation="1,0"
           position="129.81167,326.09462" /><inkscape:grid
           id="grid4495"
           type="xygrid" /><sodipodi:guide
           id="guide4499"
           inkscape:locked="false"
           orientation="0,1"
           position="-19.84375,260.04762" /><sodipodi:guide
           id="guide4501"
           inkscape:locked="false"
           orientation="0,1"
           position="-20.032738,179.91667" /><sodipodi:guide
           id="guide4503"
           inkscape:locked="false"
           orientation="0,1"
           position="-16.630952,270.06399" /><sodipodi:guide
           id="guide4512"
           inkscape:locked="false"
           orientation="0,1"
           position="-19.465774,219.98214" /><sodipodi:guide
           id="guide4514"
           inkscape:locked="false"
           orientation="-0.82575936,0.56402259"
           position="60.098215,179.91667" /><sodipodi:guide
           id="guide4518"
           inkscape:locked="false"
           orientation="-0.82575936,-0.56402259"
           position="140.07024,179.91667" /><sodipodi:guide
           id="guide4520"
           inkscape:locked="false"
           orientation="1,0"
           position="79.941963,226.97471" /><sodipodi:guide
           id="guide4522"
           inkscape:locked="false"
           orientation="1,0"
           position="119.93731,202.36411" /><sodipodi:guide
           id="guide4541"
           inkscape:locked="false"
           orientation="1,0"
           position="124.99885,314.20012" /><sodipodi:guide
           id="guide4543"
           inkscape:locked="false"
           orientation="1,0"
           position="74.835466,302.68275" /><sodipodi:guide
           id="guide4584"
           inkscape:locked="false"
           orientation="0,1"
           position="83.871844,297.00001" /><sodipodi:guide
           id="guide4586"
           inkscape:locked="false"
           orientation="0,1"
           position="44.675444,230.00027" /><sodipodi:guide
           id="guide4588"
           inkscape:locked="false"
           orientation="0,1"
           position="70.109929,209.50604" /><sodipodi:guide
           id="guide4590"
           inkscape:locked="false"
           orientation="0,1"
           position="63.219967,249.92962" /><sodipodi:guide
           id="guide4592"
           inkscape:locked="false"
           orientation="0,1"
           position="59.968654,242.10238" /><sodipodi:guide
           id="guide4594"
           inkscape:locked="false"
           orientation="1,0"
           position="88.033508,219.98214" /><sodipodi:guide
           id="guide4596"
           inkscape:locked="false"
           orientation="1,0"
           position="111.92945,245.11286" /><sodipodi:guide
           id="guide4598"
           inkscape:locked="false"
           orientation="1,0"
           position="93.926808,245.11286" /><sodipodi:guide
           id="guide4600"
           inkscape:locked="false"
           orientation="1,0"
           position="106.08913,212.41909" /><sodipodi:guide
           id="guide4612"
           inkscape:locked="false"
           orientation="0,1"
           position="88.026276,238.4296" /><sodipodi:guide
           id="guide4614"
           inkscape:locked="false"
           orientation="0,1"
           position="85.076013,233.9741" /><sodipodi:guide
           id="guide4669"
           inkscape:locked="false"
           orientation="0.59697004,0.80226353"
           position="91.879688,214.3759" /><sodipodi:guide
           id="guide4692"
           inkscape:locked="false"
           orientation="1,0"
           position="100.00044,239.56605" /><sodipodi:guide
           id="guide4725"
           inkscape:locked="false"
           orientation="0,1"
           position="63.761852,190.02117" /><sodipodi:guide
           id="guide4727"
           inkscape:locked="false"
           orientation="0,1"
           position="84.297592,194.9914" /></sodipodi:namedview></g><path
       id="path6092"
       d="m 341.12123,118.49584 -57.7,0 c -28.9,0 -52.8,22.5 -54.6,51.3 l -4.7,75.7 c -1.9,31.5 23.1,58.1 54.6,58.1 l 67,0 c 31.5,0 56.5,-26.6 54.6,-58.1 l -4.7,-75.7 c -1.7,-28.8 -25.6,-51.3 -54.5,-51.3 z"
       class="st0"
       inkscape:connector-curvature="0"
       style="fill:#efefef" /><circle
       id="circle6094"
       r="75.599998"
       cy="114.09583"
       cx="312.22122"
       class="st1"
       style="fill:#f16b6c" /><circle
       id="circle6096"
       r="58.400002"
       cy="114.09583"
       cx="312.22122"
       class="st0"
       style="fill:#efefef" /><circle
       id="circle6164"
       r="15.9"
       cy="182.39584"
       cx="312.42123"
       class="st4"
       style="fill:#ffcc00" /><g
       id="g6166"
       transform="translate(190.62123,-34.604164)"><path
         id="path6168"
         d="m 130.5,339 -17.8,0 C 95.6,339 81.8,325.1 81.8,308.1 l 0,-38.3 c 0,-17.1 13.9,-30.9 30.9,-30.9 l 17.8,0 c 17.1,0 30.9,13.9 30.9,30.9 l 0,38.3 c 0.1,17.1 -13.8,30.9 -30.9,30.9 z"
         class="st1"
         inkscape:connector-curvature="0"
         style="fill:#f16b6c" /><path
         id="path6170"
         d="m 129.8,330.1 -16.2,0 C 98,330.1 85.4,317.5 85.4,301.9 l 0,-34.9 c 0,-15.6 12.6,-28.2 28.2,-28.2 l 16.2,0 c 15.6,0 28.2,12.6 28.2,28.2 l 0,34.9 c -0.1,15.6 -12.7,28.2 -28.2,28.2 z"
         class="st4"
         inkscape:connector-curvature="0"
         style="fill:#ffcc00" /></g><path
       id="path6172"
       d="m 279.12123,303.59584 -42.8,0 c -6,0 -10.8,-4.8 -10.8,-10.8 l 0,0 c 0,-14.9 12.1,-27 27,-27 l 10.3,0 c 14.9,0 27,12.1 27,27 l 0,0 c 0.1,6 -4.7,10.8 -10.7,10.8 z"
       class="st2"
       inkscape:connector-curvature="0"
       style="fill:#ffffff" /><path
       id="path6174"
       d="m 388.22123,303.59584 -42.8,0 c -6,0 -10.8,-4.8 -10.8,-10.8 l 0,0 c 0,-14.9 12.1,-27 27,-27 l 10.3,0 c 14.9,0 27,12.1 27,27 l 0,0 c 0.1,6 -4.8,10.8 -10.7,10.8 z"
       class="st2"
       inkscape:connector-curvature="0"
       style="fill:#ffffff" /><g
       id="g6176"
       transform="translate(190.62123,-34.604164)"><circle
         id="ellipse6178"
         cy="272.10001"
         cx="103.8"
         class="st2"
         transform="matrix(0.7071,-0.7071,0.7071,0.7071,-161.9937,153.1122)"
         r="12.3"
         style="fill:#ffffff" /><g
         id="g6180"><circle
           id="ellipse6182"
           cy="279.70001"
           cx="84.900002"
           class="st2"
           transform="matrix(0.7071,-0.7071,0.7071,0.7071,-172.9249,141.9569)"
           r="12.3"
           style="fill:#ffffff" /><circle
           id="ellipse6184"
           cy="253.2"
           cx="111.4"
           class="st2"
           transform="matrix(0.7071,-0.7071,0.7071,0.7071,-146.3762,152.9537)"
           r="12.3"
           style="fill:#ffffff" /></g><path
         id="path6186"
         d="M 68.6,271.1 46.9,249.4 c -9.5,-9.5 -9.5,-24.8 0,-34.3 l 0,0 c 9.5,-9.5 24.8,-9.5 34.3,0 l 21.7,21.7 c 9.5,9.5 9.5,24.8 0,34.3 l 0,0 c -9.5,9.5 -24.8,9.5 -34.3,0 z"
         class="st2"
         inkscape:connector-curvature="0"
         style="fill:#ffffff" /></g><g
       id="g6188"
       transform="translate(190.62123,-34.604164)"><path
         id="path6190"
         d="m 276,134.1 0,0 c 0,15 -12.2,27.1 -27.1,27.1 l 0,0 c -15,0 -27.1,-12.2 -27.1,-27.1 l 0,0 c 0,-15 12.2,-27.1 27.1,-27.1 l 0,0 c 15,0 27.1,12.2 27.1,27.1 z"
         class="st2"
         inkscape:connector-curvature="0"
         style="fill:#ffffff" /></g><g
       id="g6192"
       transform="translate(190.62123,-34.604164)"><g
         id="g6194"><line
           id="line6196"
           y2="333.29999"
           x2="82.300003"
           y1="325.70001"
           x1="82.300003"
           class="st3"
           style="fill:none;stroke:#f16b6c;stroke-width:4.55359983;stroke-linecap:round;stroke-miterlimit:10" /></g><g
         id="g6198"><line
           id="line6200"
           y2="333.29999"
           x2="67.300003"
           y1="325.70001"
           x1="67.300003"
           class="st3"
           style="fill:none;stroke:#f16b6c;stroke-width:4.55359983;stroke-linecap:round;stroke-miterlimit:10" /></g><g
         id="g6202"><line
           id="line6204"
           y2="333.29999"
           x2="52.299999"
           y1="325.70001"
           x1="52.299999"
           class="st3"
           style="fill:none;stroke:#f16b6c;stroke-width:4.55359983;stroke-linecap:round;stroke-miterlimit:10" /></g></g><g
       id="g6206"
       transform="translate(190.62123,-34.604164)"><g
         id="g6208"><line
           id="line6210"
           y2="333.29999"
           x2="192.3"
           y1="325.70001"
           x1="192.3"
           class="st3"
           style="fill:none;stroke:#f16b6c;stroke-width:4.55359983;stroke-linecap:round;stroke-miterlimit:10" /></g><g
         id="g6212"><line
           id="line6214"
           y2="333.29999"
           x2="177.3"
           y1="325.70001"
           x1="177.3"
           class="st3"
           style="fill:none;stroke:#f16b6c;stroke-width:4.55359983;stroke-linecap:round;stroke-miterlimit:10" /></g><g
         id="g6216"><line
           id="line6218"
           y2="333.29999"
           x2="162.3"
           y1="325.70001"
           x1="162.3"
           class="st3"
           style="fill:none;stroke:#f16b6c;stroke-width:4.55359983;stroke-linecap:round;stroke-miterlimit:10" /></g></g><path
       id="path6220"
       d="m 459.92123,113.49584 c 0.6,8.5 0.9,17.5 0.4,26.6 -0.5,9.2 -1.7,18.7 -4.6,28.8 -1.5,5 -3.4,10.2 -6.1,15.5 -2.7,5.3 -6.3,10.6 -11.1,15.6 -4.7,5 -10.8,9.4 -17.4,12.5 -6.6,3.1 -13.7,4.9 -20.3,5.7 l -3.6,-55.6 c 1.3,0.2 2.2,0.3 2.9,0.3 0.7,0 1.5,0 2.5,-0.6 1,-0.5 2.3,-1.6 3.6,-3.2 1.3,-1.6 2.6,-3.8 3.9,-6.3 2.4,-5 4.4,-11.3 5.8,-18 1.4,-6.7 2.4,-13.8 3,-21.2 l 41,0 z"
       class="st2"
       inkscape:connector-curvature="0"
       style="fill:#ffffff" /><ellipse
       id="ellipse6222"
       ry="11.5"
       rx="15.1"
       cy="107.29583"
       cx="439.52121"
       class="st1"
       style="fill:#f16b6c" /><path
       id="path6224"
       d="m 433.32123,92.395836 0,0 c -2.5,0 -4.5,-2 -4.5,-4.5 l 0,-4.7 c 0,-2.5 2,-4.5 4.5,-4.5 l 0,0 c 2.5,0 4.5,2 4.5,4.5 l 0,4.7 c 0,2.5 -2,4.5 -4.5,4.5 z"
       class="st1"
       inkscape:connector-curvature="0"
       style="fill:#f16b6c" /><path
       id="path6226"
       d="m 421.92123,100.39584 0,0 c -2.5,0 -4.5,-2.000004 -4.5,-4.500004 l 0,-4.7 c 0,-2.5 2,-4.5 4.5,-4.5 l 0,0 c 2.5,0 4.5,2 4.5,4.5 l 0,4.7 c 0,2.5 -2,4.500004 -4.5,4.500004 z"
       class="st1"
       inkscape:connector-curvature="0"
       style="fill:#f16b6c" /><path
       id="path6228"
       d="m 457.32123,100.39584 0,0 c -2.5,0 -4.5,-2.000004 -4.5,-4.500004 l 0,-4.7 c 0,-2.5 2,-4.5 4.5,-4.5 l 0,0 c 2.5,0 4.5,2 4.5,4.5 l 0,4.7 c 0,2.5 -2,4.500004 -4.5,4.500004 z"
       class="st1"
       inkscape:connector-curvature="0"
       style="fill:#f16b6c" /><path
       id="path6230"
       d="m 445.92123,92.395836 0,0 c -2.5,0 -4.5,-2 -4.5,-4.5 l 0,-4.7 c 0,-2.5 2,-4.5 4.5,-4.5 l 0,0 c 2.5,0 4.5,2 4.5,4.5 l 0,4.7 c 0,2.5 -2.1,4.5 -4.5,4.5 z"
       class="st1"
       inkscape:connector-curvature="0"
       style="fill:#f16b6c" /><g
       id="Layer_3"
       transform="translate(190.62123,-34.604164)" /></g><path
     class="st1"
     d="M 43.101991,34.496196"
     id="path122"
     inkscape:connector-curvature="0"
     style="fill:#ffffff;stroke:#f16b6c;stroke-width:5;stroke-miterlimit:10" /><path
     class="st0"
     d="M 31.901991,141.4962"
     id="path124"
     inkscape:connector-curvature="0"
     style="fill:#efefef;stroke:#f16b6c;stroke-width:5;stroke-miterlimit:10" /><g
     transform="matrix(1.1842249,0,0,1.1842249,-80.526033,-67.890865)"
     id="g4409" /><g
     inkscape:groupmode="layer"
     id="layer1"
     inkscape:label="Cu"
     style="display:inline" /><g
     inkscape:groupmode="layer"
     id="layer3"
     inkscape:label="Silkscreen"><path
       id="path6102"
       d="M 18.35172,65.408844 28.704832,16.278621 c 1.12943,-5.458913 7.906013,-7.529535 11.859019,-3.576529 L 64.846605,36.514249 18.35172,65.408844 Z"
       class="st1"
       inkscape:connector-curvature="0"
       style="display:inline;fill:#f16b6c" /><path
       id="path6104"
       d="M 163.8365,67.408844 153.48339,18.278621 c -1.12943,-5.458913 -7.90601,-7.529535 -11.85902,-3.576529 l -24.28275,23.812157 46.49488,28.894595 z"
       class="st1"
       inkscape:connector-curvature="0"
       style="display:inline;fill:#f16b6c" /><path
       id="path6106"
       d="m 132.59726,154.63652 -84.257462,0 c -28.273689,0 -49.8781714,-24.47827 -45.3694104,-51.40437 L 8.1366766,72.58896 C 11.706113,51.10247 30.962281,35.32758 53.506087,35.32758 l 73.924893,0 c 22.5438,0 41.70603,15.77489 45.3694,37.26138 l 5.16629,30.64319 c 4.50877,26.9261 -17.09572,51.40437 -45.36941,51.40437 z"
       class="st2"
       inkscape:connector-curvature="0"
       style="display:inline;fill:#ffffff" /></g><g
     inkscape:groupmode="layer"
     id="layer4"
     inkscape:label="Mask"
     style="display:inline"><g
       style="display:inline"
       id="g6118"
       transform="matrix(0.941192,0,0,0.941192,-24.496006,-21.345558)"><g
         id="g6120"><path
           id="path6122"
           d="m 167.6,145.7 c -6.2,0 -12,-2.4 -16.4,-6.8 -4.4,-4.4 -6.8,-10.2 -6.8,-16.4 0,-6.2 2.4,-12 6.8,-16.4 4.4,-4.4 10.2,-6.8 16.4,-6.8 12.8,0 23.1,10.4 23.1,23.1 0.1,12.9 -10.3,23.3 -23.1,23.3 0,0 0,0 0,0 z"
           class="st2"
           inkscape:connector-curvature="0"
           style="fill:#ffffff" /><path
           id="path6124"
           d="m 167.6,100.5 c 12.2,0 22.1,9.9 22.1,22.1 0,12.2 -9.9,22.1 -22.1,22.1 -12.2,0 -22.1,-9.9 -22.1,-22.1 0,-12.2 9.9,-22.1 22.1,-22.1 m 0,-2 0,2 0,-2 0,0 c -13.3,0 -24.1,10.8 -24.1,24.1 0,13.3 10.8,24.1 24.1,24.1 13.3,0 24.1,-10.8 24.1,-24.1 0.1,-13.3 -10.8,-24.1 -24.1,-24.1 l 0,0 z"
           class="st1"
           inkscape:connector-curvature="0"
           style="fill:#f16b6c" /></g><circle
         id="circle6126"
         r="18.4"
         cy="122.6"
         cx="167.60001"
         class="st1"
         style="fill:#f16b6c" /></g><g
       style="display:inline"
       id="g6108"
       transform="matrix(0.941192,0,0,0.941192,-24.496006,-21.345558)"><g
         id="g6110"><path
           id="path6112"
           d="m 75.6,145.7 c -6.2,0 -12,-2.4 -16.4,-6.8 -4.4,-4.4 -6.8,-10.2 -6.8,-16.4 0,-12.8 10.4,-23.1 23.1,-23.1 12.8,0 23.1,10.4 23.1,23.1 0,6.2 -2.4,12 -6.8,16.4 -4.2,4.4 -10,6.8 -16.2,6.8 0,0 0,0 0,0 z"
           class="st2"
           inkscape:connector-curvature="0"
           style="fill:#ffffff" /><path
           id="path6114"
           d="m 75.6,100.5 c 12.2,0 22.1,9.9 22.1,22.1 0,12.2 -9.9,22.1 -22.1,22.1 -12.2,0 -22.1,-9.9 -22.1,-22.1 0,-12.2 9.9,-22.1 22.1,-22.1 m 0,-2 0,2 0,-2 0,0 c -13.3,0 -24.1,10.8 -24.1,24.1 0,13.3 10.8,24.1 24.1,24.1 13.3,0 24.1,-10.8 24.1,-24.1 C 99.8,109.3 88.9,98.5 75.6,98.5 l 0,0 z"
           class="st1"
           inkscape:connector-curvature="0"
           style="fill:#f16b6c" /></g><circle
         id="circle6116"
         r="18.4"
         cy="122.6"
         cx="75.599998"
         class="st1"
         style="fill:#f16b6c" /></g><path
       id="path6160"
       d="m 80.917502,113.52726 18.165006,0 c 1.600032,0 2.352982,1.9765 1.129432,3.01182 l -9.035445,7.71777 c -0.658835,0.56472 -1.600027,0.56472 -2.164742,0 l -9.035443,-7.71777 c -1.411788,-1.03532 -0.658834,-3.01182 0.941192,-3.01182 z"
       class="st4"
       inkscape:connector-curvature="0"
       style="display:inline;fill:#ffcc00" /><g
       style="display:inline"
       id="g6128"
       transform="matrix(0.941192,0,0,0.941192,-24.496006,-21.345558)"><g
         id="g6130"><line
           id="line6132"
           y2="167.8"
           x2="54.700001"
           y1="167.8"
           x1="66.300003"
           class="st3"
           style="fill:none;stroke:#f16b6c;stroke-width:4.55359983;stroke-linecap:round;stroke-miterlimit:10" /></g><g
         id="g6134"><line
           id="line6136"
           y2="159.10001"
           x2="54.700001"
           y1="159.10001"
           x1="66.300003"
           class="st3"
           style="fill:none;stroke:#f16b6c;stroke-width:4.55359983;stroke-linecap:round;stroke-miterlimit:10" /></g><g
         id="g6138"><line
           id="line6140"
           y2="150.39999"
           x2="54.700001"
           y1="150.39999"
           x1="66.300003"
           class="st3"
           style="fill:none;stroke:#f16b6c;stroke-width:4.55359983;stroke-linecap:round;stroke-miterlimit:10" /></g></g><g
       style="display:inline"
       id="g6142"
       transform="matrix(0.941192,0,0,0.941192,-24.496006,-21.345558)"><g
         id="g6144"><line
           id="line6146"
           y2="167.8"
           x2="180.2"
           y1="167.8"
           x1="191.8"
           class="st3"
           style="fill:none;stroke:#f16b6c;stroke-width:4.55359983;stroke-linecap:round;stroke-miterlimit:10" /></g><g
         id="g6148"><line
           id="line6150"
           y2="159.10001"
           x2="180.2"
           y1="159.10001"
           x1="191.8"
           class="st3"
           style="fill:none;stroke:#f16b6c;stroke-width:4.55359983;stroke-linecap:round;stroke-miterlimit:10" /></g><g
         id="g6152"><line
           id="line6154"
           y2="150.3"
           x2="180.2"
           y1="150.3"
           x1="191.8"
           class="st3"
           style="fill:none;stroke:#f16b6c;stroke-width:4.55359983;stroke-linecap:round;stroke-miterlimit:10" /></g></g><path
       transform="translate(7.6293945e-6,0)"
       id="path6162"
       d="m 92.246125,65.96501 0,0 c -15.49887,0 -28.08583,-12.14848 -28.08583,-27.10742 l 0,-3.17311 56.171635,0 0,3.17311 c 0,14.95894 -12.58695,27.10742 -28.085805,27.10742 z"
       class="st1"
       inkscape:connector-curvature="0"
       style="display:inline;fill:#f16b6c" /><path
       transform="translate(7.6293945e-6,0)"
       id="path6156"
       d="m 89.952937,121.15092 c 0,8.94132 -7.247178,16.1885 -16.188505,16.1885 -8.941324,0 -16.188502,-7.24718 -16.188502,-16.1885"
       class="st3"
       inkscape:connector-curvature="0"
       style="display:inline;fill:none;stroke:#f16b6c;stroke-width:4.28581142;stroke-linecap:round;stroke-miterlimit:10" /><path
       transform="translate(7.6293945e-6,0)"
       id="path6158"
       d="m 122.42405,121.15092 c 0,8.94132 -7.24717,16.1885 -16.1885,16.1885 -8.941315,0 -16.188494,-7.24718 -16.188494,-16.1885"
       class="st3"
       inkscape:connector-curvature="0"
       style="display:inline;fill:none;stroke:#f16b6c;stroke-width:4.28581142;stroke-linecap:round;stroke-miterlimit:10" /></g><style
     id="style6059"
     type="text/css">
	.st0{fill:#EFEFEF;}
	.st1{fill:#F16B6C;}
	.st2{fill:#FFFFFF;}
	.st3{fill:none;stroke:#F16B6C;stroke-width:4.5536;stroke-linecap:round;stroke-miterlimit:10;}
	.st4{fill:#FFCC00;}
</style></svg>