<?xml version="1.0" encoding="utf-8"?>
<!-- Generator: Adobe Illustrator 21.1.0, SVG Export Plug-In . SVG Version: 6.00 Build 0)  -->
<svg version="1.1" xmlns="http://www.w3.org/2000/svg" xmlns:xlink="http://www.w3.org/1999/xlink" x="0px" y="0px"
	 viewBox="0 0 650 650" style="enable-background:new 0 0 650 650;" xml:space="preserve">
<style type="text/css">
	.st0{fill:none;stroke:#F16B6C;stroke-width:0.2835;stroke-miterlimit:10;}
</style>
<g id="Layer_1">
	<path class="st0" d="M633.8,433.9l-16.7-106l0.4,0.3l-2.2-11c-0.2-1.1-0.4-2.2-0.7-3.4L568.8,88.4c-5.4-26.6-37.5-36.5-56.3-17.6
		l-115,116H275l-115-116c-18.8-18.9-50.8-9-56.3,17.6L59.8,302.3c-1.9,6.6-3.4,13.3-4.5,20.3L37.8,433.9
		c-12.1,77.4,31.3,149.5,97.9,176.2c17.5,6.9,36.7,11.2,56.7,11.2H220h231.7h27.9c20,0,38.8-3.9,56.3-10.7
		C602.1,583.9,645.9,511.7,633.8,433.9z"/>
</g>
<g id="Layer_2">
</g>
</svg>
