<?xml version="1.0" encoding="UTF-8" standalone="no"?>
<!-- Generator: Adobe Illustrator 21.1.0, SVG Export Plug-In . SVG Version: 6.00 Build 0)  -->

<svg
   xmlns:dc="http://purl.org/dc/elements/1.1/"
   xmlns:cc="http://creativecommons.org/ns#"
   xmlns:rdf="http://www.w3.org/1999/02/22-rdf-syntax-ns#"
   xmlns:svg="http://www.w3.org/2000/svg"
   xmlns="http://www.w3.org/2000/svg"
   xmlns:sodipodi="http://sodipodi.sourceforge.net/DTD/sodipodi-0.dtd"
   xmlns:inkscape="http://www.inkscape.org/namespaces/inkscape"
   version="1.1"
   id="Layer_1"
   x="0px"
   y="0px"
   viewBox="0 0 179.99999 163.60357"
   xml:space="preserve"
   inkscape:version="0.91 r13725"
   sodipodi:docname="meow_v5-thick outline-face.svg"
   width="180"
   height="163.60358"><sodipodi:namedview
     pagecolor="#ffffff"
     bordercolor="#666666"
     borderopacity="1"
     objecttolerance="10"
     gridtolerance="10"
     guidetolerance="10"
     inkscape:pageopacity="0"
     inkscape:pageshadow="2"
     inkscape:window-width="1920"
     inkscape:window-height="1178"
     id="namedview126"
     showgrid="false"
     inkscape:zoom="4.373939"
     inkscape:cx="97.687939"
     inkscape:cy="54.366571"
     inkscape:window-x="0"
     inkscape:window-y="0"
     inkscape:window-maximized="1"
     inkscape:current-layer="layer2"
     inkscape:document-units="mm"
     fit-margin-top="0"
     fit-margin-left="0"
     fit-margin-right="0"
     fit-margin-bottom="0" /><metadata
     id="metadata130"><rdf:RDF><cc:Work
         rdf:about=""><dc:format>image/svg+xml</dc:format><dc:type
           rdf:resource="http://purl.org/dc/dcmitype/StillImage" /><dc:title></dc:title></cc:Work></rdf:RDF></metadata><defs
     id="defs128" /><style
     type="text/css"
     id="style3">
	.st0{fill:#EFEFEF;stroke:#F16B6C;stroke-width:5;stroke-miterlimit:10;}
	.st1{fill:#FFFFFF;stroke:#F16B6C;stroke-width:5;stroke-miterlimit:10;}
	.st2{fill:#F16B6C;}
	.st3{fill:none;stroke:#F16B6C;stroke-width:5;stroke-miterlimit:10;}
	.st4{fill:#FFFFFF;}
	.st5{fill:none;stroke:#F16B6C;stroke-width:4.5536;stroke-linecap:round;stroke-miterlimit:10;}
	.st6{fill:#FFCC00;}
</style><path
     class="st1"
     d="M 43.101991,34.496196"
     id="path122"
     inkscape:connector-curvature="0"
     style="fill:#ffffff;stroke:#f16b6c;stroke-width:5;stroke-miterlimit:10" /><path
     class="st0"
     d="M 31.901991,141.4962"
     id="path124"
     inkscape:connector-curvature="0"
     style="fill:#efefef;stroke:#f16b6c;stroke-width:5;stroke-miterlimit:10" /><g
     transform="matrix(1.1842249,0,0,1.1842249,-80.526033,-67.890865)"
     id="g4409" /><g
     inkscape:groupmode="layer"
     id="layer1"
     inkscape:label="Cu"
     style="display:inline" /><g
     inkscape:groupmode="layer"
     id="layer2"
     inkscape:label="Edge"
     style="display:inline"><g
       style="display:inline"
       transform="matrix(1.2083928,0,0,1.2083928,-84.006156,-70.945809)"
       id="g4434"><path
         id="path4436"
         d="M 26.378906,2.4472656 25.090027,2.6035843 23.843261,2.9588013 22.666076,3.5049057 21.585937,4.2338867 20.63031,5.1377335 19.82666,6.2084351 19.202453,7.4379807 18.785156,8.8183594 8.2558594,58.605469 7.6465994,60.93147 7.1835938,63.318359 2.984375,89.21875 l -0.3897705,3.358643 -0.089331,3.316748 0.1998291,3.261084 0.47771,3.191645 0.7443115,3.10845 0.9996338,3.01148 1.2436768,2.90073 1.4764404,2.77622 1.6979248,2.63794 1.9081301,2.48589 2.107055,2.32007 2.294703,2.14048 2.471069,1.94711 2.636157,1.73999 2.789966,1.5191 2.932495,1.28442 3.221814,1.08119 3.35299,0.81861 3.465491,0.51862 3.559314,0.18119 6.59961,0 55.601566,0 6.69922,0 3.54375,-0.16563 3.43125,-0.48437 3.31875,-0.78438 3.20625,-1.06562 2.91602,-1.28444 2.77773,-1.51925 2.62773,-1.74044 2.46602,-1.948 2.29258,-2.14193 2.10742,-2.32226 1.91055,-2.48896 1.70195,-2.64203 1.48164,-2.78148 1.24961,-2.90731 1.00586,-3.01952 0.75039,-3.11811 0.4832,-3.203079 0.2043,-3.274419 -0.0863,-3.332141 -0.38867,-3.376241 -3.99805,-24.662109 0.0976,0.06055 -0.53125,-2.535157 -0.17578,-0.839843 L 130.38475,8.8183624 130.06834,7.7022535 129.616,6.6816604 129.04178,5.7606836 128.35975,4.9434234 126.7285,3.6364547 124.83475,2.7935577 122.791,2.4475357 120.70975,2.631192 118.7035,3.37733 l -0.93984,0.5942506 -0.87891,0.7471724 -27.599614,27 -29.40039,0 -27.59961,-27 -1.34209,-1.063208 -1.463379,-0.7238037 -1.537207,-0.398169 -1.563574,-0.086304 0,0"
         style="fill:#f16b6c;fill-opacity:1;stroke:#f16b6c;stroke-width:5;stroke-miterlimit:10"
         inkscape:connector-curvature="0"
         transform="translate(69.515703,58.781924)" /></g><g
       id="Layer_2"
       transform="matrix(1.1842249,0,0,1.1842249,-80.52606,-67.901691)"
       style="fill:#fdfcff;fill-opacity:1;stroke:none"><path
         inkscape:connector-curvature="0"
         transform="translate(69.515703,58.781924)"
         style="fill:#fdfcff;fill-opacity:1;stroke:none;stroke-width:5;stroke-miterlimit:10"
         d="M 26.378906,2.4472656 25.090027,2.6035843 23.843261,2.9588013 22.666076,3.5049057 21.585937,4.2338867 20.63031,5.1377335 19.82666,6.2084351 19.202453,7.4379807 18.785156,8.8183594 8.2558594,58.605469 7.6465994,60.93147 7.1835938,63.318359 2.984375,89.21875 l -0.3897705,3.358643 -0.089331,3.316748 0.1998291,3.261084 0.47771,3.191645 0.7443115,3.10845 0.9996338,3.01148 1.2436768,2.90073 1.4764404,2.77622 1.6979248,2.63794 1.9081301,2.48589 2.107055,2.32007 2.294703,2.14048 2.471069,1.94711 2.636157,1.73999 2.789966,1.5191 2.932495,1.28442 3.221814,1.08119 3.35299,0.81861 3.465491,0.51862 3.559314,0.18119 6.59961,0 55.601566,0 6.69922,0 3.54375,-0.16563 3.43125,-0.48437 3.31875,-0.78438 3.20625,-1.06562 2.91602,-1.28444 2.77773,-1.51925 2.62773,-1.74044 2.46602,-1.948 2.29258,-2.14193 2.10742,-2.32226 1.91055,-2.48896 1.70195,-2.64203 1.48164,-2.78148 1.24961,-2.90731 1.00586,-3.01952 0.75039,-3.11811 0.4832,-3.203079 0.2043,-3.274419 -0.0863,-3.332141 -0.38867,-3.376241 -3.99805,-24.662109 0.0976,0.06055 -0.53125,-2.535157 -0.17578,-0.839843 L 130.38475,8.8183624 130.06834,7.7022535 129.616,6.6816604 129.04178,5.7606836 128.35975,4.9434234 126.7285,3.6364547 124.83475,2.7935577 122.791,2.4475357 120.70975,2.631192 118.7035,3.37733 l -0.93984,0.5942506 -0.87891,0.7471724 -27.599614,27 -29.40039,0 -27.59961,-27 -1.34209,-1.063208 -1.463379,-0.7238037 -1.537207,-0.398169 -1.563574,-0.086304 0,0"
         id="path8" /></g></g></svg>