<?xml version="1.0" encoding="utf-8"?>
<!-- Generator: Adobe Illustrator 21.1.0, SVG Export Plug-In . SVG Version: 6.00 Build 0)  -->
<svg version="1.1" id="Layer_1" xmlns="http://www.w3.org/2000/svg" xmlns:xlink="http://www.w3.org/1999/xlink" x="0px" y="0px"
	 viewBox="0 0 2000 2000" style="enable-background:new 0 0 2000 2000;" xml:space="preserve">
<style type="text/css">
	.st0{fill:#FFFFFF;}
</style>
<g>
	<g>
		<path class="st0" d="M1450.1,1323.8c-195.7,0-391.3,0-587,0c0-196.5,0-393.1,0-589.6c195.7,0,391.3,0,587,0
			C1450.1,930.8,1450.1,1127.3,1450.1,1323.8z M1156.7,1322.9c76.7,0,153.4,0,230.1,0c20.1,0,37.3-8.5,39.6-20.4
			c2.2-10.8-1.9-21.2-11-30.6c-3.2-3.2-3.6-5.6-0.8-9.2c11-13.8,17.4-28.5,16.5-44c-0.9-16.5-2.6-33-4.3-49.5
			c-3-30.8-6.3-61.6-9.2-92.4c-1.3-13.5-4.1-26.9-13.4-39.2c-3.7-4.9-1.7-7.4,3.5-10.9c31.3-21.3,45.8-46.3,39.5-74.7
			c-6-27.1-13.6-54.2-22.3-81.1c-12.6-38.9-26.5-77.7-40.3-116.5c-7-19.6-42.9-26.2-66.5-12.3c-34.2,20.1-68,40.5-102.1,60.7
			c-2.2,1.3-5.6,2.5-8.5,2.5c-33.7,0.2-67.5,0.1-101.2,0c-2.6,0-5.8-0.8-7.6-1.8c-11.6-6.7-23-13.6-34.4-20.4
			c-22.1-13.3-44.4-26.5-66.4-39.8c-11.8-7.2-25.5-10.3-41.7-7.3c-16.3,2.9-24.5,10.1-28,20.1c-14.2,41.1-29.4,82.1-43,123.3
			c-7.1,21.4-11.7,43-17.7,64.5c-9.3,32.8,4.4,61.4,42.3,85.5c2.8,1.8,2.1,3,1,5c-4.5,8.4-10.6,16.7-12.2,25.4
			c-3.8,19.9-5.4,40-7.6,60c-2.9,26.7-5,53.4-8.4,80c-3,22.7,0,44.5,17.2,65.1c1,1.2,0.4,3.3-0.5,4.8c-3.8,6.3-9.3,12.4-11.7,18.9
			c-8.5,24,17.4,34.9,45.6,34.6C1007.6,1322.4,1082.2,1322.9,1156.7,1322.9z"/>
		<path d="M1156.7,1322.9c-74.5,0-149-0.5-223.5,0.3c-28.2,0.3-54.1-10.6-45.6-34.6c2.3-6.5,7.9-12.6,11.7-18.9
			c0.9-1.5,1.5-3.6,0.5-4.8c-17.2-20.6-20.1-42.5-17.2-65.1c3.5-26.6,5.5-53.4,8.4-80c2.2-20,3.8-40.1,7.6-60
			c1.6-8.6,7.8-17,12.2-25.4c1.1-2,1.7-3.2-1-5c-37.9-24.1-51.6-52.7-42.3-85.5c6.1-21.5,10.6-43.2,17.7-64.5
			c13.7-41.2,28.8-82.2,43-123.3c3.4-10,11.7-17.2,28-20.1c16.2-2.9,29.9,0.2,41.7,7.3c22,13.3,44.2,26.5,66.4,39.8
			c11.4,6.8,22.8,13.7,34.4,20.4c1.9,1.1,5,1.8,7.6,1.8c33.7,0.1,67.5,0.1,101.2,0c2.9,0,6.3-1.2,8.5-2.5
			c34.1-20.2,67.8-40.6,102.1-60.7c23.6-13.9,59.5-7.3,66.5,12.3c13.8,38.8,27.8,77.5,40.3,116.5c8.7,26.9,16.2,53.9,22.3,81.1
			c6.3,28.4-8.1,53.4-39.5,74.7c-5.2,3.5-7.2,6-3.5,10.9c9.3,12.3,12.2,25.7,13.4,39.2c2.9,30.8,6.2,61.6,9.2,92.4
			c1.6,16.5,3.3,33,4.3,49.5c0.9,15.5-5.5,30.2-16.5,44c-2.9,3.6-2.4,6,0.8,9.2c9.2,9.4,13.2,19.8,11,30.6
			c-2.4,11.9-19.5,20.4-39.6,20.4C1310.1,1322.9,1233.4,1322.9,1156.7,1322.9z M1388.3,1037.9c-2.7,1.1-4.7,1.9-6.7,2.7
			c-27.9,11.2-57.9,18.3-92,17.6c-16-0.3-32-0.6-48-0.6c-72.8,0.1-145.6,0.3-218.4,0.6c-21.9,0.1-43-2.1-62.6-8
			c-12.1-3.7-23.9-7.7-37-12c-3.1,6.1-7.8,12.3-9,18.8c-3.4,18-5.6,36.1-7.6,54.2c-3,26.2-5.9,52.4-8,78.7
			c-1.1,13.8-1.5,27.7-0.4,41.5c0.8,9.7,6.5,18.8,13,26.7c12.4-4,23.6-8.6,35.9-11.3c23.4-5.1,48-3.2,72.1-2.2
			c8.5,0.4,17.5,1.5,25.1,3.8c20.3,6.1,36.3,15.3,44.8,28.4c7.9,12.1,11.7,24.3,0,37.8c11.7,1.6,22.1,3.9,32.7,4.2
			c21.1,0.6,42.2,0.6,63.3,0.1c10.2-0.2,20.4-2.1,30.5-3.3c5.6-0.7,6.8-2.4,4.4-5.8c-2.3-3.2-4.4-6.8-4.3-10.2
			c0.2-12.4,5.2-24,18-34c12.3-9.6,26.9-17.8,47.5-19.6c16.9-1.5,34.2-1.7,51.3-2.2c24.6-0.7,46.3,4.1,64.9,13.9
			c0.8,0.4,1.8,0.8,3,1.3c10.1-12.8,16-25.9,15.6-39.6c-0.4-15.3-2.5-30.7-4-46c-3.4-34.6-6.8-69.3-10.6-103.9
			C1400.6,1058.8,1396.2,1048.4,1388.3,1037.9z M1156.2,1048.2c0,0,0,0.1,0,0.1c44.9,0,89.8,0.1,134.7,0c8.2,0,16.5-0.3,24.6-1.1
			c75.5-7.2,128.5-51.6,116.4-97.5c-5.2-19.5-10.6-39-15.4-58.6c-11.5-46.6-69.1-76.9-146.5-76.8c-64.1,0-128.1,0-192.2,0
			c-17.9,0-35.9-0.1-53.8,0.6c-57.8,2.5-110.4,29.3-122.9,63.7c-7.5,20.6-11.7,41.6-17.7,62.3c-3.7,12.6-5.5,25.1-1.4,37.8
			c12.7,39,67,68.1,132.3,69.3C1061.6,1048.9,1108.9,1048.2,1156.2,1048.2z M1322,1313.8C1322,1313.8,1322,1313.8,1322,1313.8
			c21.1,0,42.2,0.1,63.3,0c16.6-0.1,27.5-7,26.8-16.8c-1.6-20.3-23-37.6-55.6-42c-16.5-2.3-34.2-2.1-51.3-1.8
			c-40,0.7-69.8,18.4-73.2,42.5c-1.5,10.7,9.2,18,26.7,18.1C1279.8,1313.9,1300.9,1313.8,1322,1313.8z M991.1,1313.8
			c21.3,0,42.7,0.1,64,0c15.6-0.1,26.3-6.9,25.9-16c-0.8-20.5-23.4-39-56.6-42.9c-19.4-2.3-40.1-2-60-1
			c-34.4,1.7-63.1,21.7-63.7,42.8c-0.3,10.7,9.9,17.1,27.7,17.2C949.4,1313.9,970.3,1313.8,991.1,1313.8z M1398.6,842
			c0.2-1.8,0.5-2.3,0.3-2.7c-9.6-27.7-19.2-55.4-28.8-83.1c-2-5.8-7.4-9.9-16.9-11.6c-9.4-1.8-17.7-0.3-24.7,3.9
			c-29.9,17.9-59.9,35.7-89.8,53.6c-1.3,0.8-2.2,1.7-5,3.8C1299.1,801.6,1356.7,807.4,1398.6,842z M914.4,839.9
			c5.9-3.3,12-6.1,16.8-9.6c13.5-9.7,31.4-15,50.1-19.6c25.9-6.3,52.9-6.7,80.2-5.5c5.6,0.2,11.2,0,18.8,0
			c-33.3-19.8-64.5-38.8-96.5-57.4c-14.1-8.2-35.8-3.6-40.1,8c-3.5,9.3-6.6,18.8-9.8,28.1C927.4,802.6,920.9,821.2,914.4,839.9z"/>
		<path class="st0" d="M1388.3,1037.9c8,10.5,12.3,20.9,13.5,31.7c3.8,34.6,7.1,69.3,10.6,103.9c1.5,15.3,3.6,30.7,4,46
			c0.4,13.7-5.5,26.8-15.6,39.6c-1.2-0.5-2.2-0.8-3-1.3c-18.7-9.8-40.3-14.6-64.9-13.9c-17.1,0.5-34.4,0.7-51.3,2.2
			c-20.6,1.8-35.2,10-47.5,19.6c-12.7,9.9-17.7,21.6-18,34c-0.1,3.4,2,7,4.3,10.2c2.4,3.4,1.2,5.1-4.4,5.8
			c-10.2,1.2-20.3,3-30.5,3.3c-21.1,0.5-42.3,0.6-63.3-0.1c-10.6-0.3-21-2.6-32.7-4.2c11.7-13.5,7.8-25.8,0-37.8
			c-8.6-13.1-24.5-22.3-44.8-28.4c-7.6-2.3-16.6-3.4-25.1-3.8c-24.1-1-48.7-2.9-72.1,2.2c-12.3,2.7-23.5,7.3-35.9,11.3
			c-6.5-7.9-12.3-17-13-26.7c-1.1-13.8-0.7-27.7,0.4-41.5c2.1-26.2,5-52.5,8-78.7c2.1-18.1,4.3-36.2,7.6-54.2c1.2-6.4,6-12.6,9-18.8
			c13.2,4.3,24.9,8.3,37,12c19.7,5.9,40.7,8.1,62.6,8c72.8-0.3,145.6-0.5,218.4-0.6c16,0,32,0.2,48,0.6c34.1,0.7,64.1-6.4,92-17.6
			C1383.5,1039.8,1385.5,1039,1388.3,1037.9z M1267.8,1179.8c-0.1,0-0.3,0-0.4,0c0,21,0,41.9,0,62.9c0.1,0,0.3,0,0.4,0
			C1267.8,1221.7,1267.8,1200.7,1267.8,1179.8z"/>
		<path class="st0" d="M1156.2,1048.2c-47.3,0-94.7,0.7-141.9-0.2c-65.4-1.2-119.7-30.2-132.3-69.3c-4.1-12.7-2.2-25.2,1.4-37.8
			c6-20.8,10.3-41.8,17.7-62.3c12.5-34.4,65.1-61.3,122.9-63.7c17.9-0.8,35.9-0.6,53.8-0.6c64.1-0.1,128.1,0,192.2,0
			c77.4,0,135,30.2,146.5,76.8c4.8,19.5,10.2,39,15.4,58.6c12.1,45.9-40.9,90.3-116.4,97.5c-8.1,0.8-16.4,1.1-24.6,1.1
			c-44.9,0.1-89.8,0-134.7,0C1156.2,1048.3,1156.2,1048.3,1156.2,1048.2z M1016.7,965.5c41.3,0,74.7-20.4,74.7-45.7
			c0-24.7-33.4-44.8-74.4-44.8c-41.3,0-75.1,20.4-74.8,45.1C942.5,945.2,975.7,965.4,1016.7,965.5z M1370.1,920.1
			c0.1-25.1-32.3-45-73.6-45.2c-41.4-0.2-74.9,19.9-75,45c-0.1,25.2,32.8,45.4,74.2,45.6C1337,965.6,1370,945.5,1370.1,920.1z"/>
		<path class="st0" d="M1322,1313.8c-21.1,0-42.2,0.1-63.3,0c-17.6-0.1-28.2-7.5-26.7-18.1c3.4-24.1,33.2-41.8,73.2-42.5
			c17.1-0.3,34.8-0.4,51.3,1.8c32.5,4.5,54,21.7,55.6,42c0.8,9.8-10.2,16.8-26.8,16.8C1364.2,1313.9,1343.1,1313.8,1322,1313.8
			C1322,1313.8,1322,1313.8,1322,1313.8z"/>
		<path class="st0" d="M991.1,1313.8c-20.9,0-41.7,0-62.6,0c-17.7,0-28-6.4-27.7-17.2c0.5-21.1,29.3-41.2,63.7-42.8
			c19.9-1,40.6-1.3,60,1c33.2,3.9,55.8,22.4,56.6,42.9c0.3,9.1-10.4,15.9-25.9,16C1033.8,1313.9,1012.5,1313.8,991.1,1313.8z"/>
		<path class="st0" d="M1398.6,842c-41.9-34.5-99.6-40.4-164.8-36.1c2.8-2.1,3.8-3,5-3.8c29.9-17.9,59.9-35.7,89.8-53.6
			c7-4.2,15.3-5.6,24.7-3.9c9.4,1.8,14.9,5.8,16.9,11.6c9.6,27.7,19.2,55.4,28.8,83.1C1399.1,839.7,1398.9,840.1,1398.6,842z"/>
		<path class="st0" d="M914.4,839.9c6.5-18.7,13-37.3,19.4-55.9c3.3-9.4,6.3-18.8,9.8-28.1c4.4-11.6,26-16.2,40.1-8
			c31.9,18.5,63.2,37.5,96.5,57.4c-7.6,0-13.3,0.2-18.8,0c-27.3-1.2-54.4-0.8-80.2,5.5c-18.7,4.6-36.6,9.9-50.1,19.6
			C926.4,833.8,920.3,836.6,914.4,839.9z"/>
		<path d="M1267.8,1179.8c0,21,0,41.9,0,62.9c-0.1,0-0.3,0-0.4,0c0-21,0-41.9,0-62.9C1267.5,1179.7,1267.7,1179.8,1267.8,1179.8z"/>
		<path d="M1016.7,965.5c-41,0-74.2-20.3-74.5-45.4c-0.3-24.8,33.4-45.1,74.8-45.1c41,0,74.4,20.1,74.4,44.8
			C1091.4,945,1057.9,965.5,1016.7,965.5z M1017.8,880.3c-36.5-0.3-66.3,17.3-66.8,39.3c-0.5,22,29.3,40.5,65.6,40.7
			c35.5,0.2,65.4-17.7,66-39.5C1083.2,898.7,1054,880.5,1017.8,880.3z"/>
		<path d="M1370.1,920.1c-0.1,25.3-33.1,45.5-74.4,45.3c-41.4-0.1-74.3-20.4-74.2-45.6c0.1-25.1,33.6-45.2,75-45
			C1337.9,875.1,1370.3,895,1370.1,920.1z M1296.2,880.3c-36.1,0-66,17.7-66,39.3c0,22.5,29.2,40.7,65.5,40.7
			c36.2,0,65.9-18,65.9-39.9C1361.6,898,1332.7,880.3,1296.2,880.3z M1276.5,961.6c0,0.1,0,0.2,0,0.3c11.6,0,23.2,0,34.8,0
			c0-0.1,0-0.2,0-0.3C1299.7,961.6,1288.1,961.6,1276.5,961.6z M1365.7,912.8c-0.2,0.1-0.3,0.1-0.5,0.2c0,4.8,0,9.6,0,14.4
			c0.2,0,0.3,0,0.5,0C1365.7,922.5,1365.7,917.6,1365.7,912.8z"/>
		<path class="st0" d="M1017.8,880.3c36.3,0.3,65.4,18.5,64.8,40.5c-0.6,21.8-30.5,39.7-66,39.5c-36.3-0.2-66.1-18.6-65.6-40.7
			C951.4,897.6,981.3,880,1017.8,880.3z M1073.9,920.4c0.3-19.3-25.3-35-57.1-35.2c-30.7-0.1-56.8,15.5-57.1,34.2
			c-0.4,19.5,24.8,35.3,56.3,35.5C1047.9,955.1,1073.6,939.7,1073.9,920.4z"/>
		<path class="st0" d="M1296.2,880.3c36.5,0,65.4,17.7,65.4,40c0,21.9-29.8,40-65.9,39.9c-36.3,0-65.5-18.2-65.5-40.7
			C1230.2,898,1260.1,880.2,1296.2,880.3z M1352.9,920.1c-0.1-19.4-25.9-35.1-57.4-34.9c-31.4,0.2-56.7,15.7-56.6,34.9
			c0,19.4,25.7,34.9,57.4,34.8C1327.9,954.8,1353,939.3,1352.9,920.1z"/>
		<path class="st0" d="M1276.5,961.6c11.6,0,23.2,0,34.8,0c0,0.1,0,0.2,0,0.3c-11.6,0-23.2,0-34.8,0
			C1276.5,961.8,1276.5,961.7,1276.5,961.6z"/>
		<path class="st0" d="M1365.7,912.8c0,4.8,0,9.7,0,14.5c-0.2,0-0.3,0-0.5,0c0-4.8,0-9.6,0-14.4
			C1365.4,912.9,1365.6,912.8,1365.7,912.8z"/>
		<path d="M1073.9,920.4c-0.3,19.4-26,34.8-57.9,34.6c-31.6-0.2-56.7-16-56.3-35.5c0.4-18.7,26.5-34.3,57.1-34.2
			C1048.6,885.3,1074.2,901.1,1073.9,920.4z M1069.8,920.5c0.3-17.5-23.1-32.1-50.9-32.7c-28.4-0.6-55.2,14.1-55.1,32.1
			c0.1,17.8,23,32.1,51.9,32.6C1043.5,953,1071.3,936.9,1069.8,920.5z"/>
		<path d="M1352.9,920.1c0.1,19.2-25.1,34.7-56.6,34.8c-31.7,0.1-57.4-15.4-57.4-34.8c0-19.2,25.2-34.7,56.6-34.9
			C1327.1,885,1352.8,900.7,1352.9,920.1z M1296.4,952.4c29.1-0.1,52.9-14.8,52.8-32.6c-0.1-17.5-24.1-32.2-52.9-32
			c-30.6,0.2-53.4,13.8-53.5,33C1242.6,938.5,1267,952.2,1296.4,952.4z"/>
		<path class="st0" d="M1069.8,920.5c1.5,16.4-26.2,32.5-54.1,32c-28.9-0.5-51.8-14.8-51.9-32.6c-0.1-17.9,26.6-32.7,55.1-32.1
			C1046.7,888.4,1070.1,903,1069.8,920.5z"/>
		<path class="st0" d="M1296.4,952.4c-29.4-0.1-53.7-13.9-53.7-31.5c0.1-19.2,22.9-32.7,53.5-33c28.9-0.2,52.8,14.4,52.9,32
			C1349.2,937.6,1325.4,952.3,1296.4,952.4z"/>
	</g>
</g>
</svg>
