<?xml version="1.0" encoding="UTF-8" standalone="no"?>
<!-- Generator: Adobe Illustrator 21.0.2, SVG Export Plug-In . SVG Version: 6.00 Build 0)  -->

<svg
   xmlns:osb="http://www.openswatchbook.org/uri/2009/osb"
   xmlns:dc="http://purl.org/dc/elements/1.1/"
   xmlns:cc="http://creativecommons.org/ns#"
   xmlns:rdf="http://www.w3.org/1999/02/22-rdf-syntax-ns#"
   xmlns:svg="http://www.w3.org/2000/svg"
   xmlns="http://www.w3.org/2000/svg"
   xmlns:sodipodi="http://sodipodi.sourceforge.net/DTD/sodipodi-0.dtd"
   xmlns:inkscape="http://www.inkscape.org/namespaces/inkscape"
   version="1.1"
   x="0px"
   y="0px"
   viewBox="0 0 283.5 340.2"
   xml:space="preserve"
   id="svg7139"
   sodipodi:docname="meow_v4_linedraw-outline-2.5.svg"
   inkscape:version="0.91 r13725"
   width="80.010002mm"
   height="96.012001mm"><sodipodi:namedview
     pagecolor="#ffffff"
     bordercolor="#666666"
     borderopacity="1"
     objecttolerance="10"
     gridtolerance="10"
     guidetolerance="10"
     inkscape:pageopacity="0"
     inkscape:pageshadow="2"
     inkscape:window-width="1366"
     inkscape:window-height="724"
     id="namedview7141"
     showgrid="false"
     inkscape:zoom="1.7797053"
     inkscape:cx="149.93255"
     inkscape:cy="158.74899"
     inkscape:window-x="0"
     inkscape:window-y="-22"
     inkscape:window-maximized="0"
     inkscape:current-layer="Layer_2"
     units="mm" /><metadata
     id="metadata7145"><rdf:RDF><cc:Work
         rdf:about=""><dc:format>image/svg+xml</dc:format><dc:type
           rdf:resource="http://purl.org/dc/dcmitype/StillImage" /><dc:title></dc:title></cc:Work></rdf:RDF></metadata><defs
     id="defs7143"><linearGradient
       osb:paint="solid"
       id="linearGradient4824"><stop
         id="stop4826"
         offset="0"
         style="stop-color:#000000;stop-opacity:1;" /></linearGradient></defs><style
     id="style6965"
     type="text/css">
	.st0{fill:#EFEFEF;}
	.st1{fill:#F16B6C;}
	.st2{fill:#FFFFFF;}
	.st3{fill:none;stroke:#F16B6C;stroke-width:4.5536;stroke-linecap:round;stroke-miterlimit:10;}
	.st4{fill:#FFCC00;}
</style><g
     sodipodi:docname="meow_v3.svg"
     inkscape:version="0.92.1 r15371"
     inkscape:export-ydpi="96"
     inkscape:export-xdpi="96"
     inkscape:export-filename="C:\Users\dash\Documents\GitHub\defcon26-meow\art\meow_v1.png"
     id="svg8"><sodipodi:namedview
       units="cm"
       showguides="false"
       showgrid="false"
       pagecolor="#ffffff"
       objecttolerance="10000"
       inkscape:zoom="1.4142136"
       inkscape:window-y="0"
       inkscape:window-x="1921"
       inkscape:window-width="1735"
       inkscape:window-maximized="1"
       inkscape:window-height="1048"
       inkscape:snap-to-guides="true"
       inkscape:snap-smooth-nodes="false"
       inkscape:snap-nodes="false"
       inkscape:snap-intersection-paths="false"
       inkscape:pageshadow="2"
       inkscape:pageopacity="0.0"
       inkscape:pagecheckerboard="true"
       inkscape:object-paths="false"
       inkscape:object-nodes="false"
       inkscape:lockguides="false"
       inkscape:guide-bbox="true"
       inkscape:document-units="cm"
       inkscape:cy="233.65003"
       inkscape:cx="62.544425"
       inkscape:current-layer="layer12"
       id="base"
       borderopacity="1.0"
       bordercolor="#666666"><sodipodi:guide
         position="70.114584,301.625"
         orientation="1,0"
         inkscape:locked="false"
         id="guide4491" /><sodipodi:guide
         position="129.81167,326.09462"
         orientation="1,0"
         inkscape:locked="false"
         id="guide4493" /><inkscape:grid
         type="xygrid"
         id="grid4495" /><sodipodi:guide
         position="-19.84375,260.04762"
         orientation="0,1"
         inkscape:locked="false"
         id="guide4499" /><sodipodi:guide
         position="-20.032738,179.91667"
         orientation="0,1"
         inkscape:locked="false"
         id="guide4501" /><sodipodi:guide
         position="-16.630952,270.06399"
         orientation="0,1"
         inkscape:locked="false"
         id="guide4503" /><sodipodi:guide
         position="-19.465774,219.98214"
         orientation="0,1"
         inkscape:locked="false"
         id="guide4512" /><sodipodi:guide
         position="60.098215,179.91667"
         orientation="-0.82575936,0.56402259"
         inkscape:locked="false"
         id="guide4514" /><sodipodi:guide
         position="140.07024,179.91667"
         orientation="-0.82575936,-0.56402259"
         inkscape:locked="false"
         id="guide4518" /><sodipodi:guide
         position="79.941963,226.97471"
         orientation="1,0"
         inkscape:locked="false"
         id="guide4520" /><sodipodi:guide
         position="119.93731,202.36411"
         orientation="1,0"
         inkscape:locked="false"
         id="guide4522" /><sodipodi:guide
         position="124.99885,314.20012"
         orientation="1,0"
         inkscape:locked="false"
         id="guide4541" /><sodipodi:guide
         position="74.835466,302.68275"
         orientation="1,0"
         inkscape:locked="false"
         id="guide4543" /><sodipodi:guide
         position="83.871844,297.00001"
         orientation="0,1"
         inkscape:locked="false"
         id="guide4584" /><sodipodi:guide
         position="44.675444,230.00027"
         orientation="0,1"
         inkscape:locked="false"
         id="guide4586" /><sodipodi:guide
         position="70.109929,209.50604"
         orientation="0,1"
         inkscape:locked="false"
         id="guide4588" /><sodipodi:guide
         position="63.219967,249.92962"
         orientation="0,1"
         inkscape:locked="false"
         id="guide4590" /><sodipodi:guide
         position="59.968654,242.10238"
         orientation="0,1"
         inkscape:locked="false"
         id="guide4592" /><sodipodi:guide
         position="88.033508,219.98214"
         orientation="1,0"
         inkscape:locked="false"
         id="guide4594" /><sodipodi:guide
         position="111.92945,245.11286"
         orientation="1,0"
         inkscape:locked="false"
         id="guide4596" /><sodipodi:guide
         position="93.926808,245.11286"
         orientation="1,0"
         inkscape:locked="false"
         id="guide4598" /><sodipodi:guide
         position="106.08913,212.41909"
         orientation="1,0"
         inkscape:locked="false"
         id="guide4600" /><sodipodi:guide
         position="88.026276,238.4296"
         orientation="0,1"
         inkscape:locked="false"
         id="guide4612" /><sodipodi:guide
         position="85.076013,233.9741"
         orientation="0,1"
         inkscape:locked="false"
         id="guide4614" /><sodipodi:guide
         position="91.879688,214.3759"
         orientation="0.59697004,0.80226353"
         inkscape:locked="false"
         id="guide4669" /><sodipodi:guide
         position="100.00044,239.56605"
         orientation="1,0"
         inkscape:locked="false"
         id="guide4692" /><sodipodi:guide
         position="63.761852,190.02117"
         orientation="0,1"
         inkscape:locked="false"
         id="guide4725" /><sodipodi:guide
         position="84.297592,194.9914"
         orientation="0,1"
         inkscape:locked="false"
         id="guide4727" /></sodipodi:namedview></g><g
     id="Layer_2"><path
       inkscape:connector-curvature="0"
       id="path6997"
       d="m -65.527723,28.624642 c -2.71165,-0.10502 -5.50039,0.832813 -7.71289,3.007813 l -35.798827,35.101562 -38.5039,0 -35.79884,-35.101562 c -2.2125,-2.175 -5.00117,-3.110742 -7.71289,-3.00586 -4.51953,0.174805 -8.82422,3.244141 -9.88672,8.306641 l -13.86523,65.453124 c -0.5098,1.80677 -0.93089,3.65407 -1.23438,5.54687 l -0.19531,1.20508 -0.10547,0.49414 0.0273,-0.0176 -5.22656,32.11916 c -2.8045,17.35287 3.8921,33.77307 15.93946,44.43555 -3.5354,6.67363 -5.74093,14.1751 -6.24024,22.16406 l -4.69922,75.69922 c -0.67197,11.1406 2.03256,21.66047 7.1875,30.61523 -3.62073,4.59499 -5.78711,10.38811 -5.78711,16.68555 0,6 4.79883,10.79883 10.79883,10.79883 l 42.40039,0 0.40039,0 66.599617,0 42.500005,0 c 5.9,0 10.80117,-4.79883 10.70117,-10.79883 0,-6.2982 -2.16754,-12.09225 -5.78906,-16.6875 5.15439,-8.95445 7.85943,-19.47329 7.1875,-30.61328 l -1.71094,-27.54883 c 6.08332,-0.89359 12.50262,-2.62871 18.51172,-5.45117 6.6,-3.1 12.70039,-7.5 17.4003898,-12.5 4.8,-5 8.39961,-10.29961 11.09961,-15.59961 2.7,-5.3 4.59961,-10.5 6.0996102,-15.5 2.9,-10.1 4.09961,-19.60078 4.59961,-28.80078 0.43091,-7.84252 0.25154,-15.58949 -0.18555,-23.02734 4.03764,-4.72722 6.48633,-10.85716 6.48633,-17.57227 0,-14.9 -12.0996102,-27.09961 -27.0996102,-27.09961 -14.8999998,0 -27.0996098,12.09961 -27.0996098,27.09961 0,6.53065 2.32499,12.54303 6.19922,17.23633 -0.61225,6.26846 -1.49912,12.3211 -2.69922,18.06445 -1.4,6.7 -3.40078,13 -5.80078,18 -1.3,2.5 -2.60039,4.69883 -3.90039,6.29883 -1.3,1.6 -2.59961,2.70117 -3.59961,3.20117 -1,0.6 -1.8,0.59961 -2.5,0.59961 -0.38385,0 -0.84962,-0.0356 -1.38672,-0.0957 -1.02302,-5.37384 -2.81413,-10.46418 -5.2793,-15.14258 12.06502,-10.66179 18.77351,-27.09465 15.96684,-44.46094 l -5.23633,-32.18555 0.13477,0.084 -0.74024,-3.51563 c -0.0506,-0.2494 -0.10197,-0.4982 -0.15625,-0.74609 l -14.40234,-68.437504 c -1.0625,-5.0625 -5.367305,-8.13356 -9.886725,-8.308594 z"
       style="fill:none;fill-opacity:1;stroke:#000000;stroke-width:0.35433072;stroke-miterlimit:4;stroke-dasharray:none;stroke-opacity:1" /><g
       id="g7021"><g
         id="g7017" /></g><g
       id="g7031"><g
         id="g7027" /></g><g
       id="g7045"><g
         id="g7035" /><g
         id="g7039" /><g
         id="g7043" /></g><g
       id="g7059"><g
         id="g7049" /><g
         id="g7053" /><g
         id="g7057" /></g><g
       id="g7075" /><g
       id="g7091"><g
         id="g7087" /></g><g
       id="g7109"><g
         id="g7099" /><g
         id="g7103" /><g
         id="g7107" /></g><g
       id="g7123"><g
         id="g7113" /><g
         id="g7117" /><g
         id="g7121" /></g><path
       inkscape:connector-curvature="0"
       id="path4822"
       d="m 62.387131,336.99525 -0.66637,-0.30305 -0.70492,-0.4461 -1.40226,-1.19771 -1.18683,-1.39915 -0.43563,-0.69788 -0.28936,-0.65556 -0.26926,-1.26151 -0.0696,-1.4791 0.11668,-1.63387 0.28967,-1.72588 0.44933,-1.75511 0.59566,-1.72155 0.72864,-1.62522 0.84833,-1.46609 1.06673,-1.61194 -1.41285,-3.07489 -1.39847,-3.33881 -1.02806,-3.20644 -0.73834,-3.37481 -0.52938,-3.84396 0.0712,-3.11558 0.32766,-6.99541 1.13113,-20.57051 1.27614,-20.91052 0.83389,-11.131 0.47103,-2.41107 0.72339,-2.71744 0.87811,-2.69387 0.93517,-2.34036 1.2104,-2.66946 -2.37162,-2.46978 -2.16426,-2.47949 -1.89412,-2.64379 -1.61817,-2.79357 -1.33644,-2.92879 -1.04892,-3.04951 -0.75558,-3.15568 -0.45646,-3.24733 -0.15153,-3.32444 0.10594,-2.6369 0.34707,-3.39937 1.6176,-10.70331 2.90488,-15.5255 4.32371,-21.34877 4.1131,-19.31796 1.46837,-6.44302 0.80468,-2.99003 0.66486,-1.24406 0.83404,-1.00674 1.05018,-0.81485 1.31331,-0.66835 1.50069,-0.4477 1.53629,-0.13057 1.48016,0.18489 1.33228,0.49872 1.55461,1.29608 3.26878,3.01457 9.76532,9.38681 13.284579,13.00163 13.78534,0 13.78534,0 13.30319,-13.00847 9.77167,-9.38963 3.26541,-3.01386 1.54709,-1.29397 1.35531,-0.50709 1.46647,-0.16753 1.5059,0.144 1.47359,0.42751 1.36953,0.68299 1.19372,0.91046 0.94619,1.10991 0.62689,1.28133 0.83252,3.36829 1.46243,6.68701 4.01977,19.40912 4.15502,20.92087 2.70071,14.59054 1.22564,7.637 0.64897,4.72872 0.22256,3.18455 -0.0536,3.00446 -0.27342,3.29033 -0.53985,3.1496 -0.80992,3.01734 -1.08363,2.89353 -1.36099,2.77817 -1.642,2.67127 -1.92664,2.57282 -2.21495,2.48282 -1.81906,1.88099 1.42015,3.36273 1.14586,2.997 0.76071,2.4834 0.29821,1.16709 0.29799,0.63502 0.42729,0.26339 0.68604,0.0522 0.91845,-0.11111 0.91211,-0.32927 0.90277,-0.54129 0.89034,-0.74723 0.8749,-0.94708 0.85639,-1.14079 0.83487,-1.32841 0.81027,-1.50992 1.53462,-3.53999 1.39975,-4.19276 1.24054,-4.79672 1.05698,-5.35182 0.65098,-4.18654 0.2841,-2.87371 -0.0734,-1.76854 -0.16777,-0.53474 -0.25361,-0.33631 -0.76102,-1.13523 -1.06406,-2.09398 -0.57372,-1.3817 -0.46056,-1.40471 -0.34846,-1.42177 -0.2374,-1.43286 -0.1274,-1.43801 -0.0185,-1.4372 0.0894,-1.43045 0.19627,-1.41772 0.30207,-1.39906 0.40679,-1.37443 0.51047,-1.34386 0.6131,-1.30732 0.71467,-1.26483 0.81519,-1.2164 0.91467,-1.162 1.01306,-1.10166 1.67208,-1.5049 1.7826,-1.27178 1.87436,-1.0405 1.94738,-0.81105 2.00166,-0.5834 2.0372,-0.35759 2.05399,-0.13361 2.05202,0.0885 2.03132,0.30889 1.99188,0.52741 1.93368,0.74409 1.85674,0.95895 1.76106,1.172 1.64663,1.38321 1.51344,1.59261 1.36154,1.80017 1.48274,2.5277 0.54148,1.23572 0.42038,1.25991 0.30838,1.31637 0.20549,1.40502 0.13883,3.20493 -0.16558,2.88395 -0.50616,2.49194 -0.92656,2.37095 -1.42684,2.52095 -1.24263,1.95943 0.0455,7.91099 -0.0811,6.22822 -0.32269,5.80903 -0.57195,5.42926 -0.82886,5.0889 -1.09347,4.78797 -1.36571,4.52645 -1.64567,4.30437 -1.93326,4.12168 -1.97479,3.50265 -2.18899,3.24759 -2.39945,2.98895 -2.60615,2.72672 -2.8091,2.4609 -3.0083,2.19147 -3.20374,1.91847 -3.39546,1.64185 -2.96877,1.13012 -3.27412,1.02647 -2.95684,0.74575 -2.01695,0.28793 -0.55756,0.0499 -0.16441,0.11222 -0.0993,0.21468 -0.0365,0.86958 0.12412,1.67801 0.55278,7.22831 0.33116,6.08777 0.0972,5.12619 -0.14906,4.34357 -0.40765,3.7399 -0.67858,3.31519 -0.96182,3.06942 -1.2574,3.00261 -1.54201,3.31413 1.34209,2.2185 1.14594,2.20276 0.82666,2.28799 0.50415,2.36195 0.17841,2.42466 -0.0602,1.35669 -0.20044,1.22037 -0.34523,1.09133 -0.49457,0.96952 -0.64844,0.85496 -0.80688,0.74766 -0.96983,0.64762 -1.13735,0.55482 -0.812,0.18562 -1.7378,0.14456 -8.02826,0.18432 -46.69405,0.0779 -42.276319,-0.12798 -10.74648,-0.13716 -3.96524,-0.1871 0,0"
       style="fill:#000000;fill-opacity:0;stroke:#000000;stroke-width:0.40336061;stroke-miterlimit:4;stroke-dasharray:none;stroke-opacity:1" /></g><g
     id="Layer_3" /></svg>