<?xml version="1.0" encoding="utf-8"?>
<!-- Generator: Adobe Illustrator 21.1.0, SVG Export Plug-In . SVG Version: 6.00 Build 0)  -->
<svg version="1.1" id="Layer_1" xmlns="http://www.w3.org/2000/svg" xmlns:xlink="http://www.w3.org/1999/xlink" x="0px" y="0px"
	 viewBox="0 0 283.5 340.2" style="enable-background:new 0 0 283.5 340.2;" xml:space="preserve">
<style type="text/css">
	.st0{fill:#EFEFEF;stroke:#F16B6C;stroke-width:5;stroke-miterlimit:10;}
	.st1{fill:#FFFFFF;stroke:#F16B6C;stroke-width:5;stroke-miterlimit:10;}
	.st2{fill:#F16B6C;}
	.st3{fill:none;stroke:#F16B6C;stroke-width:5;stroke-miterlimit:10;}
	.st4{fill:#FFFFFF;}
	.st5{fill:none;stroke:#F16B6C;stroke-width:4.5536;stroke-linecap:round;stroke-miterlimit:10;}
	.st6{fill:#FFCC00;}
</style>
<g id="Layer_2">
	<path class="st0" d="M166.1,159.8h-44.3c-22.2,0-40.5,17.3-41.9,39.4l-3.6,58.1c-1.5,24.2,17.7,44.6,41.9,44.6h51.4
		c24.2,0,43.4-20.4,41.9-44.6l-3.6-58.1C206.7,177.1,188.3,159.8,166.1,159.8z"/>
	<path class="st1" d="M211.6,123.4l-11.7-55.8c-1.3-6.2-9-8.5-13.5-4.1l-27.6,27L211.6,123.4z"/>
	<path class="st1" d="M76.5,123.4l11.8-55.8c1.3-6.2,9-8.5,13.5-4.1l27.6,27L76.5,123.4z"/>
	<path class="st2" d="M102,71.6c-3.2-3.2-8.8-1.5-9.7,2.9l-8.4,40.1l37.9-23.6L102,71.6z"/>
	<path class="st2" d="M204.2,114.6l-8.4-40.1c-0.9-4.5-6.4-6.1-9.7-2.9l-19.8,19.4L204.2,114.6z"/>
	<g>
		<path class="st3" d="M171.8,191.6h-55.6c7.6,6.1,17.3,9.7,27.8,9.7S164.1,197.6,171.8,191.6z"/>
		<path class="st2" d="M171.8,191.6c-7.6,6.1-17.3,9.7-27.8,9.7s-20.2-3.6-27.8-9.7h-6.6c-4.8,0-9.4-0.9-13.6-2.6
			c10.4,15.4,28.1,25.4,48,25.4c19.9,0,37.5-10.1,48-25.4c-4.2,1.6-8.7,2.5-13.5,2.5H171.8z"/>
		<path class="st1" d="M215.5,148l-4.2-25.9c-3-18.2-18.7-31.6-37.1-31.6h-60.4c-18.4,0-34.2,13.4-37.1,31.6L72.5,148
			c-2.9,18,7.5,34.8,23.5,41c4.2,1.6,8.8,2.6,13.6,2.6h6.6h55.6h6.7c4.8,0,9.3-0.9,13.5-2.5C207.9,182.9,218.4,166.1,215.5,148z"/>
	</g>
	<g>
		<g>
			<path class="st4" d="M108.6,154.1c-4.8,0-9.2-1.8-12.6-5.2c-3.4-3.4-5.2-7.8-5.2-12.6c0-9.8,8-17.7,17.7-17.7
				c9.8,0,17.7,8,17.7,17.7c0,4.8-1.8,9.2-5.2,12.6C117.9,152.3,113.4,154.1,108.6,154.1L108.6,154.1z"/>
			<path class="st2" d="M108.6,119.4c9.4,0,17,7.6,17,17s-7.6,17-17,17s-17-7.6-17-17S99.3,119.4,108.6,119.4 M108.6,117.9v1.5
				V117.9L108.6,117.9c-10.2,0-18.5,8.3-18.5,18.5s8.3,18.5,18.5,18.5s18.5-8.3,18.5-18.5C127.2,126.2,118.9,117.9,108.6,117.9
				L108.6,117.9z"/>
		</g>
		<circle class="st2" cx="108.6" cy="136.4" r="14.1"/>
	</g>
	<g>
		<g>
			<path class="st4" d="M179.3,154.1c-4.8,0-9.2-1.8-12.6-5.2c-3.4-3.4-5.2-7.8-5.2-12.6c0-4.8,1.8-9.2,5.2-12.6s7.8-5.2,12.6-5.2
				c9.8,0,17.7,8,17.7,17.7C197.1,146.1,189.1,154.1,179.3,154.1L179.3,154.1z"/>
			<path class="st2" d="M179.3,119.4c9.4,0,17,7.6,17,17s-7.6,17-17,17c-9.4,0-17-7.6-17-17S169.9,119.4,179.3,119.4 M179.3,117.9
				v1.5V117.9L179.3,117.9c-10.2,0-18.5,8.3-18.5,18.5s8.3,18.5,18.5,18.5s18.5-8.3,18.5-18.5C197.9,126.2,189.5,117.9,179.3,117.9
				L179.3,117.9z"/>
		</g>
		<circle class="st2" cx="179.3" cy="136.4" r="14.1"/>
	</g>
	<g>
		<g>
			<line class="st5" x1="101.5" y1="171.1" x2="92.6" y2="171.1"/>
		</g>
		<g>
			<line class="st5" x1="101.5" y1="164.4" x2="92.6" y2="164.4"/>
		</g>
		<g>
			<line class="st5" x1="101.5" y1="157.7" x2="92.6" y2="157.7"/>
		</g>
	</g>
	<g>
		<g>
			<line class="st5" x1="197.9" y1="171.1" x2="188.9" y2="171.1"/>
		</g>
		<g>
			<line class="st5" x1="197.9" y1="164.4" x2="188.9" y2="164.4"/>
		</g>
		<g>
			<line class="st5" x1="197.9" y1="157.6" x2="188.9" y2="157.6"/>
		</g>
	</g>
	<path class="st5" d="M144,158.5c0,7.3-5.9,13.2-13.2,13.2c-7.3,0-13.2-5.9-13.2-13.2"/>
	<path class="st5" d="M170.4,158.5c0,7.3-5.9,13.2-13.2,13.2s-13.2-5.9-13.2-13.2"/>
	<path class="st6" d="M136.6,152.3h14.8c1.3,0,1.9,1.6,0.9,2.5L145,161c-0.5,0.5-1.3,0.5-1.8,0l-7.4-6.3
		C134.7,153.9,135.3,152.3,136.6,152.3z"/>
	<path class="st2" d="M144.1,116.1L144.1,116.1c-12.7,0-23-10.3-23-23v-2.7h45.9v2.7C167.1,105.8,156.8,116.1,144.1,116.1z"/>
	<circle class="st6" cx="144.1" cy="208.8" r="12.2"/>
	<g>
		<path class="st2" d="M150.8,302.5h-13.7c-13.1,0-23.7-10.7-23.7-23.7v-29.4c0-13.1,10.7-23.7,23.7-23.7h13.7
			c13.1,0,23.7,10.7,23.7,23.7v29.4C174.6,291.9,163.9,302.5,150.8,302.5z"/>
		<path class="st6" d="M150.3,295.7h-12.4c-12,0-21.6-9.7-21.6-21.6v-26.8c0-12,9.7-21.6,21.6-21.6h12.4c12,0,21.6,9.7,21.6,21.6
			V274C171.8,286,162.2,295.7,150.3,295.7z"/>
	</g>
	<path class="st1" d="M118.6,301.9H85.7c-4.6,0-8.3-3.7-8.3-8.3l0,0c0-11.4,9.3-20.7,20.7-20.7h7.9c11.4,0,20.7,9.3,20.7,20.7l0,0
		C126.8,298.2,123.2,301.9,118.6,301.9z"/>
	<path class="st1" d="M202.3,301.9h-32.9c-4.6,0-8.3-3.7-8.3-8.3l0,0c0-11.4,9.3-20.7,20.7-20.7h7.9c11.4,0,20.7,9.3,20.7,20.7l0,0
		C210.6,298.2,206.8,301.9,202.3,301.9z"/>
	<path class="st4" d="M142.8,230c-2.8-2.8-6.9-3.5-10.3-2.1c-0.8-1.4-1.8-2.7-3-3.9l-16.7-16.7c-7.3-7.3-19-7.3-26.3,0
		s-7.3,19,0,26.3l16.7,16.7c1.2,1.2,2.5,2.1,3.8,2.9c-1.5,3.4-0.8,7.6,2,10.4c3.7,3.7,9.7,3.7,13.4,0c1.3-1.3,2.2-3,2.5-4.7
		c3.7,2.5,8.7,2.1,12-1.1c3.3-3.3,3.6-8.3,1.1-12c1.7-0.4,3.4-1.2,4.7-2.6C146.5,239.6,146.5,233.7,142.8,230z"/>
	<g>
		<g>
			<line class="st5" x1="113.8" y1="292.3" x2="113.8" y2="298.1"/>
		</g>
		<g>
			<line class="st5" x1="102.3" y1="292.3" x2="102.3" y2="298.1"/>
		</g>
		<g>
			<line class="st5" x1="90.8" y1="292.3" x2="90.8" y2="298.1"/>
		</g>
	</g>
	<g>
		<g>
			<line class="st5" x1="198.2" y1="292.3" x2="198.2" y2="298.1"/>
		</g>
		<g>
			<line class="st5" x1="186.7" y1="292.3" x2="186.7" y2="298.1"/>
		</g>
		<g>
			<line class="st5" x1="175.2" y1="292.3" x2="175.2" y2="298.1"/>
		</g>
	</g>
</g>
<path class="st1" d="M97.1,79.1"/>
<path class="st0" d="M85.9,186.1"/>
</svg>
