  0
SECTION
  2
HEADER
  9
$ACADVER
  1
AC1014
  9
$HANDSEED
  5
FFFF
  9
$MEASUREMENT
 70
     1
  0
ENDSEC
  0
SECTION
  2
TABLES
  0
TABLE
  2
VPORT
  5
8
330
0
100
AcDbSymbolTable
 70
     4
  0
VPORT
  5
2E
330
8
100
AcDbSymbolTableRecord
100
AcDbViewportTableRecord
  2
*ACTIVE
 70
     0
 10
0.0
 20
0.0
 11
1.0
 21
1.0
 12
210.0
 22
148.5
 13
0.0
 23
0.0
 14
10.0
 24
10.0
 15
10.0
 25
10.0
 16
0.0
 26
0.0
 36
1.0
 17
0.0
 27
0.0
 37
0.0
 40
341.0
 41
1.24
 42
50.0
 43
0.0
 44
0.0
 50
0.0
 51
0.0
 71
     0
 72
   100
 73
     1
 74
     3
 75
     0
 76
     0
 77
     0
 78
     0
  0
ENDTAB
  0
TABLE
  2
LTYPE
  5
5
330
0
100
AcDbSymbolTable
 70
     1
  0
LTYPE
  5
14
330
5
100
AcDbSymbolTableRecord
100
AcDbLinetypeTableRecord
  2
BYBLOCK
 70
     0
  3

 72
    65
 73
     0
 40
0.0
  0
LTYPE
  5
15
330
5
100
AcDbSymbolTableRecord
100
AcDbLinetypeTableRecord
  2
BYLAYER
 70
     0
  3

 72
    65
 73
     0
 40
0.0
  0
LTYPE
  5
16
330
5
100
AcDbSymbolTableRecord
100
AcDbLinetypeTableRecord
  2
CONTINUOUS
 70
     0
  3
Solid line
 72
    65
 73
     0
 40
0.0
  0
ENDTAB
  0
TABLE
  2
LAYER
  5
2
100
AcDbSymbolTable
 70
1
  0
LAYER
  5
50
100
AcDbSymbolTableRecord
100
AcDbLayerTableRecord
  2
0
 70
0
  6
CONTINUOUS
  0
ENDTAB
  0
TABLE
  2
STYLE
  5
3
330
0
100
AcDbSymbolTable
 70
     1
  0
STYLE
  5
11
330
3
100
AcDbSymbolTableRecord
100
AcDbTextStyleTableRecord
  2
STANDARD
 70
     0
 40
0.0
 41
1.0
 50
0.0
 71
     0
 42
2.5
  3
txt
  4

  0
ENDTAB
  0
TABLE
  2
VIEW
  5
6
330
0
100
AcDbSymbolTable
 70
     0
  0
ENDTAB
  0
TABLE
  2
UCS
  5
7
330
0
100
AcDbSymbolTable
 70
     0
  0
ENDTAB
  0
TABLE
  2
APPID
  5
9
330
0
100
AcDbSymbolTable
 70
     2
  0
APPID
  5
12
330
9
100
AcDbSymbolTableRecord
100
AcDbRegAppTableRecord
  2
ACAD
 70
     0
  0
ENDTAB
  0
TABLE
  2
DIMSTYLE
  5
A
330
0
100
AcDbSymbolTable
 70
     1
  0
DIMSTYLE
105
27
330
A
100
AcDbSymbolTableRecord
100
AcDbDimStyleTableRecord
  2
ISO-25
 70
     0
  3

  4

  5

  6

  7

 40
1.0
 41
2.5
 42
0.625
 43
3.75
 44
1.25
 45
0.0
 46
0.0
 47
0.0
 48
0.0
140
2.5
141
2.5
142
0.0
143
0.03937007874016
144
1.0
145
0.0
146
1.0
147
0.625
 71
     0
 72
     0
 73
     0
 74
     0
 75
     0
 76
     0
 77
     1
 78
     8
170
     0
171
     3
172
     1
173
     0
174
     0
175
     0
176
     0
177
     0
178
     0
270
     2
271
     2
272
     2
273
     2
274
     3
340
11
275
     0
280
     0
281
     0
282
     0
283
     0
284
     8
285
     0
286
     0
287
     3
288
     0
  0
ENDTAB
  0
TABLE
  2
BLOCK_RECORD
  5
1
330
0
100
AcDbSymbolTable
 70
     1
  0
BLOCK_RECORD
  5
1F
330
1
100
AcDbSymbolTableRecord
100
AcDbBlockTableRecord
  2
*MODEL_SPACE
  0
BLOCK_RECORD
  5
1B
330
1
100
AcDbSymbolTableRecord
100
AcDbBlockTableRecord
  2
*PAPER_SPACE
  0
ENDTAB
  0
ENDSEC
  0
SECTION
  2
BLOCKS
  0
BLOCK
  5
20
330
1F
100
AcDbEntity
  8
0
100
AcDbBlockBegin
  2
*MODEL_SPACE
 70
     0
 10
0.0
 20
0.0
 30
0.0
  3
*MODEL_SPACE
  1

  0
ENDBLK
  5
21
330
1F
100
AcDbEntity
  8
0
100
AcDbBlockEnd
  0
BLOCK
  5
1C
330
1B
100
AcDbEntity
 67
     1
  8
0
100
AcDbBlockBegin
  2
*PAPER_SPACE
  1

  0
ENDBLK
  5
1D
330
1B
100
AcDbEntity
 67
     1
  8
0
100
AcDbBlockEnd
  0
ENDSEC
  0
SECTION
  2
ENTITIES
  0
LWPOLYLINE
  5
100
100
AcDbEntity
  8
0
 62
1
100
AcDbPolyline
 90
80
 70
0
 10
8.995043
 20
45.313737
 30
0.0
 10
8.555490
 20
45.260427
 30
0.0
 10
8.130298
 20
45.139285
 30
0.0
 10
7.728837
 20
44.953044
 30
0.0
 10
7.360471
 20
44.704436
 30
0.0
 10
7.034569
 20
44.396192
 30
0.0
 10
6.760496
 20
44.031045
 30
0.0
 10
6.547619
 20
43.611727
 30
0.0
 10
6.405306
 20
43.140969
 30
0.0
 10
2.814444
 20
26.161807
 30
0.0
 10
2.606665
 20
25.368559
 30
0.0
 10
2.448764
 20
24.554545
 30
0.0
 10
1.016682
 20
15.721598
 30
0.0
 10
0.883756
 20
14.576182
 30
0.0
 10
0.853291
 20
13.445054
 30
0.0
 10
0.921440
 20
12.332909
 30
0.0
 10
1.084356
 20
11.244445
 30
0.0
 10
1.338193
 20
10.184354
 30
0.0
 10
1.679103
 20
9.157333
 30
0.0
 10
2.103241
 20
8.168082
 30
0.0
 10
2.606759
 20
7.221293
 30
0.0
 10
3.185811
 20
6.321662
 30
0.0
 10
3.836551
 20
5.473886
 30
0.0
 10
4.555131
 20
4.682660
 30
0.0
 10
5.337706
 20
3.952681
 30
0.0
 10
6.180428
 20
3.288648
 30
0.0
 10
7.079450
 20
2.695250
 30
0.0
 10
8.030927
 20
2.177183
 30
0.0
 10
9.031012
 20
1.739150
 30
0.0
 10
10.129764
 20
1.370426
 30
0.0
 10
11.273252
 20
1.091251
 30
0.0
 10
12.455107
 20
0.914384
 30
0.0
 10
13.668958
 20
0.852591
 30
0.0
 10
15.919658
 20
0.852591
 30
0.0
 10
34.881755
 20
0.852591
 30
0.0
 10
37.166426
 20
0.852591
 30
0.0
 10
38.374969
 20
0.909077
 30
0.0
 10
39.545147
 20
1.074264
 30
0.0
 10
40.676958
 20
1.341766
 30
0.0
 10
41.770402
 20
1.705180
 30
0.0
 10
42.764868
 20
2.143219
 30
0.0
 10
43.712172
 20
2.661337
 30
0.0
 10
44.608321
 20
3.254888
 30
0.0
 10
45.449320
 20
3.919225
 30
0.0
 10
46.231171
 20
4.649699
 30
0.0
 10
46.949876
 20
5.441672
 30
0.0
 10
47.601441
 20
6.290495
 30
0.0
 10
48.181866
 20
7.191520
 30
0.0
 10
48.687157
 20
8.140103
 30
0.0
 10
49.113318
 20
9.131599
 30
0.0
 10
49.456352
 20
10.161361
 30
0.0
 10
49.712262
 20
11.224747
 30
0.0
 10
49.877050
 20
12.317110
 30
0.0
 10
49.946723
 20
13.433803
 30
0.0
 10
49.917292
 20
14.570180
 30
0.0
 10
49.784742
 20
15.721598
 30
0.0
 10
48.421266
 20
24.132247
 30
0.0
 10
48.454551
 20
24.111598
 30
0.0
 10
48.273376
 20
24.976176
 30
0.0
 10
48.213429
 20
25.262592
 30
0.0
 10
44.464707
 20
43.140968
 30
0.0
 10
44.356800
 20
43.521601
 30
0.0
 10
44.202536
 20
43.869659
 30
0.0
 10
44.006707
 20
44.183744
 30
0.0
 10
43.774111
 20
44.462459
 30
0.0
 10
43.217797
 20
44.908181
 30
0.0
 10
42.571961
 20
45.195639
 30
0.0
 10
41.874970
 20
45.313645
 30
0.0
 10
41.165191
 20
45.251012
 30
0.0
 10
40.480989
 20
44.996552
 30
0.0
 10
40.160470
 20
44.793892
 30
0.0
 10
39.860731
 20
44.539080
 30
0.0
 10
30.448288
 20
35.331126
 30
0.0
 10
20.421717
 20
35.331126
 30
0.0
 10
11.009276
 20
44.539080
 30
0.0
 10
10.551576
 20
44.901671
 30
0.0
 10
10.052512
 20
45.148514
 30
0.0
 10
9.528270
 20
45.284303
 30
0.0
 10
8.995036
 20
45.313736
 30
0.0
 10
8.995036
 20
45.313736
 30
0.0
  0
ENDSEC
  0
SECTION
  2
OBJECTS
  0
DICTIONARY
  5
C
330
0
100
AcDbDictionary
  3
ACAD_GROUP
350
D
  3
ACAD_MLINESTYLE
350
17
  0
DICTIONARY
  5
D
330
C
100
AcDbDictionary
  0
DICTIONARY
  5
1A
330
C
100
AcDbDictionary
  0
DICTIONARY
  5
17
330
C
100
AcDbDictionary
  3
STANDARD
350
18
  0
DICTIONARY
  5
19
330
C
100
AcDbDictionary
  0
ENDSEC
  0
EOF
