  0
SECTION
  2
HEADER
  9
$ACADVER
  1
AC1024
  9
$ACADMAINTVER
 70
     6
  9
$DWGCODEPAGE
  3
UNDEFINED
  9
$INSBASE
 10
0.0
 20
0.0
 30
0.0
  9
$EXTMIN
 10
1.000000000000000E+20
 20
1.000000000000000E+20
 30
1.000000000000000E+20
  9
$EXTMAX
 10
-1.000000000000000E+20
 20
-1.000000000000000E+20
 30
-1.000000000000000E+20
  9
$LIMMIN
 10
0.0
 20
0.0
  9
$LIMMAX
 10
12.0
 20
9.0
  9
$ORTHOMODE
 70
     0
  9
$REGENMODE
 70
     1
  9
$FILLMODE
 70
     1
  9
$QTEXTMODE
 70
     0
  9
$MIRRTEXT
 70
     1
  9
$LTSCALE
 40
1.0
  9
$ATTMODE
 70
     1
  9
$TEXTSIZE
 40
0.2
  9
$TRACEWID
 40
0.05
  9
$TEXTSTYLE
  7
Standard
  9
$CLAYER
  8
0
  9
$CELTYPE
  6
ByLayer
  9
$CECOLOR
 62
   256
  9
$CELTSCALE
 40
1.0
  9
$DISPSILH
 70
     0
  9
$DIMSCALE
 40
1.0
  9
$DIMASZ
 40
0.18
  9
$DIMEXO
 40
0.0625
  9
$DIMDLI
 40
0.38
  9
$DIMRND
 40
0.0
  9
$DIMDLE
 40
0.0
  9
$DIMEXE
 40
0.18
  9
$DIMTP
 40
0.0
  9
$DIMTM
 40
0.0
  9
$DIMTXT
 40
0.18
  9
$DIMCEN
 40
0.09
  9
$DIMTSZ
 40
0.0
  9
$DIMTOL
 70
     0
  9
$DIMLIM
 70
     0
  9
$DIMTIH
 70
     1
  9
$DIMTOH
 70
     1
  9
$DIMSE1
 70
     0
  9
$DIMSE2
 70
     0
  9
$DIMTAD
 70
     0
  9
$DIMZIN
 70
     0
  9
$DIMBLK
  1

  9
$DIMASO
 70
     1
  9
$DIMSHO
 70
     1
  9
$DIMPOST
  1

  9
$DIMAPOST
  1

  9
$DIMALT
 70
     0
  9
$DIMALTD
 70
     2
  9
$DIMALTF
 40
25.4
  9
$DIMLFAC
 40
1.0
  9
$DIMTOFL
 70
     0
  9
$DIMTVP
 40
0.0
  9
$DIMTIX
 70
     0
  9
$DIMSOXD
 70
     0
  9
$DIMSAH
 70
     0
  9
$DIMBLK1
  1

  9
$DIMBLK2
  1

  9
$DIMSTYLE
  2
Standard
  9
$DIMCLRD
 70
     0
  9
$DIMCLRE
 70
     0
  9
$DIMCLRT
 70
     0
  9
$DIMTFAC
 40
1.0
  9
$DIMGAP
 40
0.09
  9
$DIMJUST
 70
     0
  9
$DIMSD1
 70
     0
  9
$DIMSD2
 70
     0
  9
$DIMTOLJ
 70
     1
  9
$DIMTZIN
 70
     0
  9
$DIMALTZ
 70
     0
  9
$DIMALTTZ
 70
     0
  9
$DIMUPT
 70
     0
  9
$DIMDEC
 70
     4
  9
$DIMTDEC
 70
     4
  9
$DIMALTU
 70
     2
  9
$DIMALTTD
 70
     2
  9
$DIMTXSTY
  7
Standard
  9
$DIMAUNIT
 70
     0
  9
$DIMADEC
 70
     0
  9
$DIMALTRND
 40
0.0
  9
$DIMAZIN
 70
     0
  9
$DIMDSEP
 70
    46
  9
$DIMATFIT
 70
     3
  9
$DIMFRAC
 70
     0
  9
$DIMLDRBLK
  1

  9
$DIMLUNIT
 70
     2
  9
$DIMLWD
 70
    -2
  9
$DIMLWE
 70
    -2
  9
$DIMTMOVE
 70
     0
  9
$DIMFXL
 40
1.0
  9
$DIMFXLON
 70
     0
  9
$DIMJOGANG
 40
0.7853981633974483
  9
$DIMTFILL
 70
     0
  9
$DIMTFILLCLR
 70
     0
  9
$DIMARCSYM
 70
     0
  9
$DIMLTYPE
  6

  9
$DIMLTEX1
  6

  9
$DIMLTEX2
  6

  9
$DIMTXTDIRECTION
 70
     0
  9
$LUNITS
 70
     2
  9
$LUPREC
 70
     4
  9
$SKETCHINC
 40
0.1
  9
$FILLETRAD
 40
0.5
  9
$AUNITS
 70
     0
  9
$AUPREC
 70
     0
  9
$MENU
  1
.
  9
$ELEVATION
 40
0.0
  9
$PELEVATION
 40
0.0
  9
$THICKNESS
 40
0.0
  9
$LIMCHECK
 70
     0
  9
$CHAMFERA
 40
0.5
  9
$CHAMFERB
 40
0.5
  9
$CHAMFERC
 40
1.0
  9
$CHAMFERD
 40
0.0
  9
$SKPOLY
 70
     0
  9
$TDCREATE
 40
2458319.582291655
  9
$TDUCREATE
 40
2458319.915625
  9
$TDUPDATE
 40
2458319.582291655
  9
$TDUUPDATE
 40
2458319.915625
  9
$TDINDWG
 40
0.0000000116
  9
$TDUSRTIMER
 40
0.0000000116
  9
$USRTIMER
 70
     1
  9
$ANGBASE
 50
0.0
  9
$ANGDIR
 70
     0
  9
$PDMODE
 70
     0
  9
$PDSIZE
 40
0.0
  9
$PLINEWID
 40
0.0
  9
$SPLFRAME
 70
     0
  9
$SPLINETYPE
 70
     6
  9
$SPLINESEGS
 70
     8
  9
$HANDSEED
  5
102
  9
$SURFTAB1
 70
     6
  9
$SURFTAB2
 70
     6
  9
$SURFTYPE
 70
     6
  9
$SURFU
 70
     6
  9
$SURFV
 70
     6
  9
$UCSBASE
  2

  9
$UCSNAME
  2

  9
$UCSORG
 10
0.0
 20
0.0
 30
0.0
  9
$UCSXDIR
 10
1.0
 20
0.0
 30
0.0
  9
$UCSYDIR
 10
0.0
 20
1.0
 30
0.0
  9
$UCSORTHOREF
  2

  9
$UCSORTHOVIEW
 70
     0
  9
$UCSORGTOP
 10
0.0
 20
0.0
 30
0.0
  9
$UCSORGBOTTOM
 10
0.0
 20
0.0
 30
0.0
  9
$UCSORGLEFT
 10
0.0
 20
0.0
 30
0.0
  9
$UCSORGRIGHT
 10
0.0
 20
0.0
 30
0.0
  9
$UCSORGFRONT
 10
0.0
 20
0.0
 30
0.0
  9
$UCSORGBACK
 10
0.0
 20
0.0
 30
0.0
  9
$PUCSBASE
  2

  9
$PUCSNAME
  2

  9
$PUCSORG
 10
0.0
 20
0.0
 30
0.0
  9
$PUCSXDIR
 10
1.0
 20
0.0
 30
0.0
  9
$PUCSYDIR
 10
0.0
 20
1.0
 30
0.0
  9
$PUCSORTHOREF
  2

  9
$PUCSORTHOVIEW
 70
     0
  9
$PUCSORGTOP
 10
0.0
 20
0.0
 30
0.0
  9
$PUCSORGBOTTOM
 10
0.0
 20
0.0
 30
0.0
  9
$PUCSORGLEFT
 10
0.0
 20
0.0
 30
0.0
  9
$PUCSORGRIGHT
 10
0.0
 20
0.0
 30
0.0
  9
$PUCSORGFRONT
 10
0.0
 20
0.0
 30
0.0
  9
$PUCSORGBACK
 10
0.0
 20
0.0
 30
0.0
  9
$USERI1
 70
     0
  9
$USERI2
 70
     0
  9
$USERI3
 70
     0
  9
$USERI4
 70
     0
  9
$USERI5
 70
     0
  9
$USERR1
 40
0.0
  9
$USERR2
 40
0.0
  9
$USERR3
 40
0.0
  9
$USERR4
 40
0.0
  9
$USERR5
 40
0.0
  9
$WORLDVIEW
 70
     1
  9
$SHADEDGE
 70
     3
  9
$SHADEDIF
 70
    70
  9
$TILEMODE
 70
     1
  9
$MAXACTVP
 70
    64
  9
$PINSBASE
 10
0.0
 20
0.0
 30
0.0
  9
$PLIMCHECK
 70
     0
  9
$PEXTMIN
 10
1.000000000000000E+20
 20
1.000000000000000E+20
 30
1.000000000000000E+20
  9
$PEXTMAX
 10
-1.000000000000000E+20
 20
-1.000000000000000E+20
 30
-1.000000000000000E+20
  9
$PLIMMIN
 10
0.0
 20
0.0
  9
$PLIMMAX
 10
12.0
 20
9.0
  9
$UNITMODE
 70
     0
  9
$VISRETAIN
 70
     1
  9
$PLINEGEN
 70
     0
  9
$PSLTSCALE
 70
     1
  9
$TREEDEPTH
 70
  3020
  9
$CMLSTYLE
  2
Standard
  9
$CMLJUST
 70
     0
  9
$CMLSCALE
 40
1.0
  9
$PROXYGRAPHICS
 70
     1
  9
$MEASUREMENT
 70
     0
  9
$CELWEIGHT
370
    -1
  9
$ENDCAPS
280
     0
  9
$JOINSTYLE
280
     0
  9
$LWDISPLAY
290
     1
  9
$INSUNITS
 70
     1
  9
$HYPERLINKBASE
  1

  9
$STYLESHEET
  1

  9
$XEDIT
290
     1
  9
$CEPSNTYPE
380
     0
  9
$PSTYLEMODE
290
     1
  9
$FINGERPRINTGUID
  2
{371E9AC9-BDD6-6F37-B0DF-A5BAF0608527}
  9
$VERSIONGUID
  2
{FAEB1C32-E019-11D5-929B-00C0DF256EC4}
  9
$EXTNAMES
290
     1
  9
$PSVPSCALE
 40
0.0
  9
$OLESTARTUP
290
     0
  9
$SORTENTS
280
   127
  9
$INDEXCTL
280
     0
  9
$HIDETEXT
280
     1
  9
$XCLIPFRAME
280
     2
  9
$HALOGAP
280
     0
  9
$OBSCOLOR
 70
   257
  9
$OBSLTYPE
280
     0
  9
$INTERSECTIONDISPLAY
280
     0
  9
$INTERSECTIONCOLOR
 70
   257
  9
$DIMASSOC
280
     2
  9
$PROJECTNAME
  1

  9
$CAMERADISPLAY
290
     0
  9
$LENSLENGTH
 40
50.0
  9
$CAMERAHEIGHT
 40
0.0
  9
$STEPSPERSEC
 40
2.0
  9
$STEPSIZE
 40
6.0
  9
$3DDWFPREC
 40
2.0
  9
$PSOLWIDTH
 40
0.25
  9
$PSOLHEIGHT
 40
4.0
  9
$LOFTANG1
 40
1.570796326794897
  9
$LOFTANG2
 40
1.570796326794897
  9
$LOFTMAG1
 40
0.0
  9
$LOFTMAG2
 40
0.0
  9
$LOFTPARAM
 70
     7
  9
$LOFTNORMALS
280
     1
  9
$LATITUDE
 40
37.795
  9
$LONGITUDE
 40
-122.394
  9
$NORTHDIRECTION
 40
0.0
  9
$TIMEZONE
 70
 -8000
  9
$LIGHTGLYPHDISPLAY
280
     1
  9
$TILEMODELIGHTSYNCH
280
     1
  9
$CMATERIAL
347
3C
  9
$SOLIDHIST
280
     1
  9
$SHOWHIST
280
     1
  9
$DWFFRAME
280
     2
  9
$DGNFRAME
280
     2
  9
$REALWORLDSCALE
290
     1
  9
$INTERFERECOLOR
 62
   256
  9
$CSHADOW
280
     0
  9
$SHADOWPLANELOCATION
 40
0.0
  0
ENDSEC
  0
SECTION
  2
CLASSES
  0
CLASS
  1
ACDBDICTIONARYWDFLT
  2
AcDbDictionaryWithDefault
  3
ObjectDBX Classes
 90
        0
 91
        4
280
     0
281
     0
  0
CLASS
  1
VISUALSTYLE
  2
AcDbVisualStyle
  3
ObjectDBX Classes
 90
     4095
 91
        4
280
     0
281
     0
  0
CLASS
  1
MATERIAL
  2
AcDbMaterial
  3
ObjectDBX Classes
 90
     1153
 91
        4
280
     0
281
     0
  0
CLASS
  1
SUN
  2
AcDbSun
  3
SCENEOE
 90
     1024
 91
        4
280
     0
281
     0
  0
ENDSEC
  0
SECTION
  2
TABLES
  0
TABLE
  2
VPORT
  5
8
330
0
100
AcDbSymbolTable
 70
     1
  0
VPORT
  5
29
330
8
100
AcDbSymbolTableRecord
100
AcDbViewportTableRecord
  2
*Active
 70
     0
 10
0.0
 20
0.0
 11
1.0
 21
1.0
 12
0.0
 22
0.0
 13
0.0
 23
0.0
 14
0.5
 24
0.5
 15
0.5
 25
0.5
 16
0.0
 26
0.0
 36
1.0
 17
141.75
 27
170.1000061035156
 37
0.0
 40
340.2000122070312
 41
0.8333333034317294
 42
50.0
 43
0.0
 44
0.0
 50
0.0
 51
0.0
 71
     0
 72
   100
 73
     1
 74
     3
 75
     0
 76
     0
 77
     0
 78
     0
281
     0
 65
     1
110
0.0
120
0.0
130
0.0
111
1.0
121
0.0
131
0.0
112
0.0
122
1.0
132
0.0
 79
     0
146
0.0
 60
     3
 61
     5
292
     1
282
     1
141
0.0
142
0.0
 63
   250
361
3F
  0
ENDTAB
  0
TABLE
  2
LTYPE
  5
5
330
0
100
AcDbSymbolTable
 70
     1
  0
LTYPE
  5
14
330
5
100
AcDbSymbolTableRecord
100
AcDbLinetypeTableRecord
  2
ByBlock
 70
     0
  3

 72
    65
 73
     0
 40
0.0
  0
LTYPE
  5
15
330
5
100
AcDbSymbolTableRecord
100
AcDbLinetypeTableRecord
  2
ByLayer
 70
     0
  3

 72
    65
 73
     0
 40
0.0
  0
LTYPE
  5
16
330
5
100
AcDbSymbolTableRecord
100
AcDbLinetypeTableRecord
  2
Continuous
 70
     0
  3
Solid line
 72
    65
 73
     0
 40
0.0
  0
ENDTAB
  0
TABLE
  2
LAYER
  5
2
330
0
100
AcDbSymbolTable
 70
     2
  0
LAYER
  5
10
330
2
100
AcDbSymbolTableRecord
100
AcDbLayerTableRecord
  2
0
 70
     0
 62
     7
  6
Continuous
370
    -3
390
F
347
3E
  0
LAYER
  5
40
330
2
100
AcDbSymbolTableRecord
100
AcDbLayerTableRecord
  2
Layer 1
 70
     0
 62
     7
  6
Continuous
370
    -3
390
F
347
3E
  0
ENDTAB
  0
TABLE
  2
STYLE
  5
3
330
0
100
AcDbSymbolTable
 70
     1
  0
STYLE
  5
11
330
3
100
AcDbSymbolTableRecord
100
AcDbTextStyleTableRecord
  2
Standard
 70
     0
 40
0.0
 41
1.0
 50
0.0
 71
     0
 42
0.2
  3
txt
  4

  0
ENDTAB
  0
TABLE
  2
VIEW
  5
6
330
0
100
AcDbSymbolTable
 70
     0
  0
ENDTAB
  0
TABLE
  2
UCS
  5
7
330
0
100
AcDbSymbolTable
 70
     0
  0
ENDTAB
  0
TABLE
  2
APPID
  5
9
330
0
100
AcDbSymbolTable
 70
     1
  0
APPID
  5
12
330
9
100
AcDbSymbolTableRecord
100
AcDbRegAppTableRecord
  2
ACAD
 70
     0
  0
ENDTAB
  0
TABLE
  2
DIMSTYLE
  5
A
330
0
100
AcDbSymbolTable
 70
     1
100
AcDbDimStyleTable
  0
DIMSTYLE
105
27
330
A
100
AcDbSymbolTableRecord
100
AcDbDimStyleTableRecord
  2
Standard
 70
     0
178
     0
340
11
  0
ENDTAB
  0
TABLE
  2
BLOCK_RECORD
  5
1
330
0
100
AcDbSymbolTable
 70
    25
  0
BLOCK_RECORD
  5
1F
330
1
100
AcDbSymbolTableRecord
100
AcDbBlockTableRecord
  2
*Model_Space
340
22
 70
     0
280
     1
281
     0
  0
BLOCK_RECORD
  5
1B
330
1
100
AcDbSymbolTableRecord
100
AcDbBlockTableRecord
  2
*Paper_Space
340
1E
 70
     0
280
     1
281
     0
  0
BLOCK_RECORD
  5
23
330
1
100
AcDbSymbolTableRecord
100
AcDbBlockTableRecord
  2
*Paper_Space0
340
26
 70
     0
280
     1
281
     0
  0
BLOCK_RECORD
  5
41
330
1
100
AcDbSymbolTableRecord
100
AcDbBlockTableRecord
  2
block 2
340
0
102
{BLKREFS
331
42
102
}
 70
     0
280
     1
281
     0
  0
BLOCK_RECORD
  5
52
330
1
100
AcDbSymbolTableRecord
100
AcDbBlockTableRecord
  2
block 3
340
0
102
{BLKREFS
331
53
102
}
 70
     0
280
     1
281
     0
  0
BLOCK_RECORD
  5
56
330
1
100
AcDbSymbolTableRecord
100
AcDbBlockTableRecord
  2
block 4
340
0
102
{BLKREFS
331
57
102
}
 70
     0
280
     1
281
     0
  0
BLOCK_RECORD
  5
60
330
1
100
AcDbSymbolTableRecord
100
AcDbBlockTableRecord
  2
block 5
340
0
102
{BLKREFS
331
61
102
}
 70
     0
280
     1
281
     0
  0
BLOCK_RECORD
  5
64
330
1
100
AcDbSymbolTableRecord
100
AcDbBlockTableRecord
  2
block 6
340
0
102
{BLKREFS
331
65
102
}
 70
     0
280
     1
281
     0
  0
BLOCK_RECORD
  5
6E
330
1
100
AcDbSymbolTableRecord
100
AcDbBlockTableRecord
  2
block 7
340
0
102
{BLKREFS
331
6F
102
}
 70
     0
280
     1
281
     0
  0
BLOCK_RECORD
  5
72
330
1
100
AcDbSymbolTableRecord
100
AcDbBlockTableRecord
  2
block 8
340
0
102
{BLKREFS
331
73
102
}
 70
     0
280
     1
281
     0
  0
BLOCK_RECORD
  5
7A
330
1
100
AcDbSymbolTableRecord
100
AcDbBlockTableRecord
  2
block 9
340
0
102
{BLKREFS
331
7B
102
}
 70
     0
280
     1
281
     0
  0
BLOCK_RECORD
  5
82
330
1
100
AcDbSymbolTableRecord
100
AcDbBlockTableRecord
  2
block 10
340
0
102
{BLKREFS
331
83
102
}
 70
     0
280
     1
281
     0
  0
BLOCK_RECORD
  5
8A
330
1
100
AcDbSymbolTableRecord
100
AcDbBlockTableRecord
  2
block 11
340
0
102
{BLKREFS
331
8B
102
}
 70
     0
280
     1
281
     0
  0
BLOCK_RECORD
  5
8E
330
1
100
AcDbSymbolTableRecord
100
AcDbBlockTableRecord
  2
block 12
340
0
102
{BLKREFS
331
8F
102
}
 70
     0
280
     1
281
     0
  0
BLOCK_RECORD
  5
96
330
1
100
AcDbSymbolTableRecord
100
AcDbBlockTableRecord
  2
block 13
340
0
102
{BLKREFS
331
97
102
}
 70
     0
280
     1
281
     0
  0
BLOCK_RECORD
  5
9E
330
1
100
AcDbSymbolTableRecord
100
AcDbBlockTableRecord
  2
block 14
340
0
102
{BLKREFS
331
9F
102
}
 70
     0
280
     1
281
     0
  0
BLOCK_RECORD
  5
AE
330
1
100
AcDbSymbolTableRecord
100
AcDbBlockTableRecord
  2
block 15
340
0
102
{BLKREFS
331
AF
102
}
 70
     0
280
     1
281
     0
  0
BLOCK_RECORD
  5
B8
330
1
100
AcDbSymbolTableRecord
100
AcDbBlockTableRecord
  2
block 16
340
0
102
{BLKREFS
331
B9
102
}
 70
     0
280
     1
281
     0
  0
BLOCK_RECORD
  5
BD
330
1
100
AcDbSymbolTableRecord
100
AcDbBlockTableRecord
  2
block 17
340
0
102
{BLKREFS
331
BE
102
}
 70
     0
280
     1
281
     0
  0
BLOCK_RECORD
  5
C4
330
1
100
AcDbSymbolTableRecord
100
AcDbBlockTableRecord
  2
block 18
340
0
102
{BLKREFS
331
C5
102
}
 70
     0
280
     1
281
     0
  0
BLOCK_RECORD
  5
C8
330
1
100
AcDbSymbolTableRecord
100
AcDbBlockTableRecord
  2
block 19
340
0
102
{BLKREFS
331
C9
102
}
 70
     0
280
     1
281
     0
  0
BLOCK_RECORD
  5
D0
330
1
100
AcDbSymbolTableRecord
100
AcDbBlockTableRecord
  2
block 20
340
0
102
{BLKREFS
331
D1
102
}
 70
     0
280
     1
281
     0
  0
BLOCK_RECORD
  5
D8
330
1
100
AcDbSymbolTableRecord
100
AcDbBlockTableRecord
  2
block 21
340
0
102
{BLKREFS
331
D9
102
}
 70
     0
280
     1
281
     0
  0
BLOCK_RECORD
  5
E0
330
1
100
AcDbSymbolTableRecord
100
AcDbBlockTableRecord
  2
block 22
340
0
102
{BLKREFS
331
E1
102
}
 70
     0
280
     1
281
     0
  0
BLOCK_RECORD
  5
E4
330
1
100
AcDbSymbolTableRecord
100
AcDbBlockTableRecord
  2
block 23
340
0
102
{BLKREFS
331
E5
102
}
 70
     0
280
     1
281
     0
  0
BLOCK_RECORD
  5
EC
330
1
100
AcDbSymbolTableRecord
100
AcDbBlockTableRecord
  2
block 24
340
0
102
{BLKREFS
331
ED
102
}
 70
     0
280
     1
281
     0
  0
BLOCK_RECORD
  5
F4
330
1
100
AcDbSymbolTableRecord
100
AcDbBlockTableRecord
  2
block 25
340
0
102
{BLKREFS
331
F5
102
}
 70
     0
280
     1
281
     0
  0
ENDTAB
  0
ENDSEC
  0
SECTION
  2
BLOCKS
  0
BLOCK
  5
20
330
1F
100
AcDbEntity
  8
0
100
AcDbBlockBegin
  2
*Model_Space
 70
     0
 10
0.0
 20
0.0
 30
0.0
  3
*Model_Space
  1

  0
ENDBLK
  5
21
330
1F
100
AcDbEntity
  8
0
100
AcDbBlockEnd
  0
BLOCK
  5
1C
330
1B
100
AcDbEntity
 67
     1
  8
0
100
AcDbBlockBegin
  2
*Paper_Space
 70
     0
 10
0.0
 20
0.0
 30
0.0
  3
*Paper_Space
  1

  0
ENDBLK
  5
1D
330
1B
100
AcDbEntity
 67
     1
  8
0
100
AcDbBlockEnd
  0
BLOCK
  5
24
330
23
100
AcDbEntity
  8
0
100
AcDbBlockBegin
  2
*Paper_Space0
 70
     0
 10
0.0
 20
0.0
 30
0.0
  3
*Paper_Space0
  1

  0
ENDBLK
  5
25
330
23
100
AcDbEntity
  8
0
100
AcDbBlockEnd
  0
BLOCK
  5
43
330
41
100
AcDbEntity
  8
0
100
AcDbBlockBegin
  2
block 2
 70
     0
 10
0.0
 20
0.0
 30
0.0
  3
block 2
  1

  0
SPLINE
  5
45
330
41
100
AcDbEntity
  8
Layer 1
 62
    11
420
 15821676
370
   158
100
AcDbSpline
210
0.0
220
0.0
230
1.0
 70
    11
 71
     3
 72
    29
 73
    25
 74
     0
 42
0.0000000001
 43
0.0000000001
 12
1.0
 22
0.0
 32
0.0
 13
1.0
 23
0.0
 33
0.0
 40
0.0
 40
0.0
 40
0.0
 40
0.0
 40
1.0
 40
1.0
 40
1.0
 40
2.0
 40
2.0
 40
2.0
 40
3.0
 40
3.0
 40
3.0
 40
4.0
 40
4.0
 40
4.0
 40
5.0
 40
5.0
 40
5.0
 40
6.0
 40
6.0
 40
6.0
 40
7.0
 40
7.0
 40
7.0
 40
8.0
 40
8.0
 40
8.0
 40
8.0
 10
173.5
 20
187.1000061035156
 30
0.0
 10
173.5
 20
187.1000061035156
 30
0.0
 10
115.8000030517578
 20
187.1000061035156
 30
0.0
 10
115.8000030517578
 20
187.1000061035156
 30
0.0
 10
86.9000015258789
 20
187.1000061035156
 30
0.0
 10
63.00000381469727
 20
164.6000061035156
 30
0.0
 10
61.20000457763672
 20
135.8000030517578
 30
0.0
 10
61.20000457763672
 20
135.8000030517578
 30
0.0
 10
56.50000381469727
 20
60.10000610351562
 30
0.0
 10
56.50000381469727
 20
60.10000610351562
 30
0.0
 10
54.60000419616699
 20
28.60000610351562
 30
0.0
 10
79.60000610351562
 20
2.0
 30
0.0
 10
111.1000061035156
 20
2.0
 30
0.0
 10
111.1000061035156
 20
2.0
 30
0.0
 10
178.1000061035156
 20
2.0
 30
0.0
 10
178.1000061035156
 20
2.0
 30
0.0
 10
209.6000061035156
 20
2.0
 30
0.0
 10
234.6000061035156
 20
28.60000610351562
 30
0.0
 10
232.7000122070312
 20
60.10000610351562
 30
0.0
 10
232.7000122070312
 20
60.10000610351562
 30
0.0
 10
228.0000152587891
 20
135.8000030517578
 30
0.0
 10
228.0000152587891
 20
135.8000030517578
 30
0.0
 10
226.3000030517578
 20
164.6000061035156
 30
0.0
 10
202.3999938964844
 20
187.1000061035156
 30
0.0
 10
173.5
 20
187.1000061035156
 30
0.0
  0
HATCH
  5
46
330
41
100
AcDbEntity
  8
Layer 1
 62
     7
420
 15724527
100
AcDbHatch
 10
0.0
 20
0.0
 30
0.0
210
0.0
220
0.0
230
1.0
  2
SOLID
 70
     1
 71
     0
 91
        1
 92
        1
 93
        1
 72
     4
 94
        3
 73
     0
 74
     1
 95
       29
 96
       25
 40
0.0
 40
0.0
 40
0.0
 40
0.0
 40
1.0
 40
1.0
 40
1.0
 40
2.0
 40
2.0
 40
2.0
 40
3.0
 40
3.0
 40
3.0
 40
4.0
 40
4.0
 40
4.0
 40
5.0
 40
5.0
 40
5.0
 40
6.0
 40
6.0
 40
6.0
 40
7.0
 40
7.0
 40
7.0
 40
8.0
 40
8.0
 40
8.0
 40
8.0
 10
173.5
 20
187.1000061035156
 10
173.5
 20
187.1000061035156
 10
115.8000030517578
 20
187.1000061035156
 10
115.8000030517578
 20
187.1000061035156
 10
86.9000015258789
 20
187.1000061035156
 10
63.00000381469727
 20
164.6000061035156
 10
61.20000457763672
 20
135.8000030517578
 10
61.20000457763672
 20
135.8000030517578
 10
56.50000381469727
 20
60.10000610351562
 10
56.50000381469727
 20
60.10000610351562
 10
54.60000419616699
 20
28.60000610351562
 10
79.60000610351562
 20
2.0
 10
111.1000061035156
 20
2.0
 10
111.1000061035156
 20
2.0
 10
178.1000061035156
 20
2.0
 10
178.1000061035156
 20
2.0
 10
209.6000061035156
 20
2.0
 10
234.6000061035156
 20
28.60000610351562
 10
232.7000122070312
 20
60.10000610351562
 10
232.7000122070312
 20
60.10000610351562
 10
228.0000152587891
 20
135.8000030517578
 10
228.0000152587891
 20
135.8000030517578
 10
226.3000030517578
 20
164.6000061035156
 10
202.3999938964844
 20
187.1000061035156
 10
173.5
 20
187.1000061035156
 97
        0
 97
        0
 75
     2
 76
     1
 98
        0
  0
SPLINE
  5
47
330
41
100
AcDbEntity
  8
Layer 1
370
     0
100
AcDbSpline
210
0.0
220
0.0
230
1.0
 70
    11
 71
     3
 72
    17
 73
    13
 74
     0
 42
0.0000000001
 43
0.0000000001
 12
1.0
 22
0.0
 32
0.0
 13
1.0
 23
0.0
 33
0.0
 40
0.0
 40
0.0
 40
0.0
 40
0.0
 40
1.0
 40
1.0
 40
1.0
 40
2.0
 40
2.0
 40
2.0
 40
3.0
 40
3.0
 40
3.0
 40
4.0
 40
4.0
 40
4.0
 40
4.0
 10
144.5999984741211
 20
267.1000137329102
 30
0.0
 10
186.3527221679688
 20
267.1000137329102
 30
0.0
 10
220.1999969482422
 20
233.2527465820312
 30
0.0
 10
220.1999969482422
 20
191.5000152587891
 30
0.0
 10
220.1999969482422
 20
149.7472839355469
 30
0.0
 10
186.3527221679688
 20
115.9000244140625
 30
0.0
 10
144.5999984741211
 20
115.9000244140625
 30
0.0
 10
102.8472747802734
 20
115.9000244140625
 30
0.0
 10
69.0
 20
149.7472839355469
 30
0.0
 10
69.0
 20
191.5000152587891
 30
0.0
 10
69.0
 20
233.2527465820312
 30
0.0
 10
102.8472747802734
 20
267.1000137329102
 30
0.0
 10
144.5999984741211
 20
267.1000137329102
 30
0.0
  0
HATCH
  5
48
330
41
100
AcDbEntity
  8
Layer 1
 62
    11
420
 15821676
100
AcDbHatch
 10
0.0
 20
0.0
 30
0.0
210
0.0
220
0.0
230
1.0
  2
SOLID
 70
     1
 71
     0
 91
        1
 92
        1
 93
        1
 72
     4
 94
        3
 73
     0
 74
     1
 95
       17
 96
       13
 40
0.0
 40
0.0
 40
0.0
 40
0.0
 40
1.0
 40
1.0
 40
1.0
 40
2.0
 40
2.0
 40
2.0
 40
3.0
 40
3.0
 40
3.0
 40
4.0
 40
4.0
 40
4.0
 40
4.0
 10
144.5999984741211
 20
267.1000137329102
 10
186.3527221679688
 20
267.1000137329102
 10
220.1999969482422
 20
233.2527465820312
 10
220.1999969482422
 20
191.5000152587891
 10
220.1999969482422
 20
149.7472839355469
 10
186.3527221679688
 20
115.9000244140625
 10
144.5999984741211
 20
115.9000244140625
 10
102.8472747802734
 20
115.9000244140625
 10
69.0
 20
149.7472839355469
 10
69.0
 20
191.5000152587891
 10
69.0
 20
233.2527465820312
 10
102.8472747802734
 20
267.1000137329102
 10
144.5999984741211
 20
267.1000137329102
 97
        0
 97
        0
 75
     2
 76
     1
 98
        0
  0
SPLINE
  5
49
330
41
100
AcDbEntity
  8
Layer 1
370
     0
100
AcDbSpline
210
0.0
220
0.0
230
1.0
 70
    11
 71
     3
 72
    17
 73
    13
 74
     0
 42
0.0000000001
 43
0.0000000001
 12
1.0
 22
0.0
 32
0.0
 13
1.0
 23
0.0
 33
0.0
 40
0.0
 40
0.0
 40
0.0
 40
0.0
 40
1.0
 40
1.0
 40
1.0
 40
2.0
 40
2.0
 40
2.0
 40
3.0
 40
3.0
 40
3.0
 40
4.0
 40
4.0
 40
4.0
 40
4.0
 10
144.5999984741211
 20
249.900016784668
 30
0.0
 10
176.8534240722656
 20
249.900016784668
 30
0.0
 10
203.0
 20
223.7534484863281
 30
0.0
 10
203.0
 20
191.5000152587891
 30
0.0
 10
203.0
 20
159.24658203125
 30
0.0
 10
176.8534240722656
 20
133.1000061035156
 30
0.0
 10
144.5999984741211
 20
133.1000061035156
 30
0.0
 10
112.3465728759766
 20
133.1000061035156
 30
0.0
 10
86.19999694824219
 20
159.24658203125
 30
0.0
 10
86.19999694824219
 20
191.5000152587891
 30
0.0
 10
86.19999694824219
 20
223.7534484863281
 30
0.0
 10
112.3465728759766
 20
249.900016784668
 30
0.0
 10
144.5999984741211
 20
249.900016784668
 30
0.0
  0
HATCH
  5
4A
330
41
100
AcDbEntity
  8
Layer 1
 62
     7
420
 15724527
100
AcDbHatch
 10
0.0
 20
0.0
 30
0.0
210
0.0
220
0.0
230
1.0
  2
SOLID
 70
     1
 71
     0
 91
        1
 92
        1
 93
        1
 72
     4
 94
        3
 73
     0
 74
     1
 95
       17
 96
       13
 40
0.0
 40
0.0
 40
0.0
 40
0.0
 40
1.0
 40
1.0
 40
1.0
 40
2.0
 40
2.0
 40
2.0
 40
3.0
 40
3.0
 40
3.0
 40
4.0
 40
4.0
 40
4.0
 40
4.0
 10
144.5999984741211
 20
249.900016784668
 10
176.8534240722656
 20
249.900016784668
 10
203.0
 20
223.7534484863281
 10
203.0
 20
191.5000152587891
 10
203.0
 20
159.24658203125
 10
176.8534240722656
 20
133.1000061035156
 10
144.5999984741211
 20
133.1000061035156
 10
112.3465728759766
 20
133.1000061035156
 10
86.19999694824219
 20
159.24658203125
 10
86.19999694824219
 20
191.5000152587891
 10
86.19999694824219
 20
223.7534484863281
 10
112.3465728759766
 20
249.900016784668
 10
144.5999984741211
 20
249.900016784668
 97
        0
 97
        0
 75
     2
 76
     1
 98
        0
  0
SPLINE
  5
4B
330
41
100
AcDbEntity
  8
Layer 1
 62
    11
420
 15821676
370
   158
100
AcDbSpline
210
0.0
220
0.0
230
1.0
 70
    11
 71
     3
 72
    17
 73
    13
 74
     0
 42
0.0000000001
 43
0.0000000001
 12
1.0
 22
0.0
 32
0.0
 13
1.0
 23
0.0
 33
0.0
 40
0.0
 40
0.0
 40
0.0
 40
0.0
 40
1.0
 40
1.0
 40
1.0
 40
2.0
 40
2.0
 40
2.0
 40
3.0
 40
3.0
 40
3.0
 40
4.0
 40
4.0
 40
4.0
 40
4.0
 10
232.6999969482422
 20
234.5000152587891
 30
0.0
 10
232.6999969482422
 20
234.5000152587891
 30
0.0
 10
217.3999938964844
 20
307.2000122070312
 30
0.0
 10
217.3999938964844
 20
307.2000122070312
 30
0.0
 10
215.6999969482422
 20
315.300012588501
 30
0.0
 10
205.6999969482422
 20
318.300012588501
 30
0.0
 10
199.7999877929688
 20
312.5000114440918
 30
0.0
 10
199.7999877929688
 20
312.5000114440918
 30
0.0
 10
163.8999938964844
 20
277.3000106811523
 30
0.0
 10
163.8999938964844
 20
277.3000106811523
 30
0.0
 10
163.8999938964844
 20
277.3000106811523
 30
0.0
 10
232.6999969482422
 20
234.5000152587891
 30
0.0
 10
232.6999969482422
 20
234.5000152587891
 30
0.0
  0
SPLINE
  5
4C
330
41
100
AcDbEntity
  8
Layer 1
 62
    11
420
 15821676
370
   158
100
AcDbSpline
210
0.0
220
0.0
230
1.0
 70
    11
 71
     3
 72
    17
 73
    13
 74
     0
 42
0.0000000001
 43
0.0000000001
 12
1.0
 22
0.0
 32
0.0
 13
1.0
 23
0.0
 33
0.0
 40
0.0
 40
0.0
 40
0.0
 40
0.0
 40
1.0
 40
1.0
 40
1.0
 40
2.0
 40
2.0
 40
2.0
 40
3.0
 40
3.0
 40
3.0
 40
4.0
 40
4.0
 40
4.0
 40
4.0
 10
56.70000076293945
 20
234.5000152587891
 30
0.0
 10
56.70000076293945
 20
234.5000152587891
 30
0.0
 10
72.0999984741211
 20
307.2000122070312
 30
0.0
 10
72.0999984741211
 20
307.2000122070312
 30
0.0
 10
73.79999923706055
 20
315.300012588501
 30
0.0
 10
83.79999923706055
 20
318.300012588501
 30
0.0
 10
89.69999694824219
 20
312.5000114440918
 30
0.0
 10
89.69999694824219
 20
312.5000114440918
 30
0.0
 10
125.5999984741211
 20
277.3000106811523
 30
0.0
 10
125.5999984741211
 20
277.3000106811523
 30
0.0
 10
125.5999984741211
 20
277.3000106811523
 30
0.0
 10
56.70000076293945
 20
234.5000152587891
 30
0.0
 10
56.70000076293945
 20
234.5000152587891
 30
0.0
  0
SPLINE
  5
4D
330
41
100
AcDbEntity
  8
Layer 1
370
     0
100
AcDbSpline
210
0.0
220
0.0
230
1.0
 70
     8
 71
     3
 72
    14
 73
    10
 74
     0
 42
0.0000000001
 43
0.0000000001
 12
1.0
 22
0.0
 32
0.0
 13
1.0
 23
0.0
 33
0.0
 40
0.0
 40
0.0
 40
0.0
 40
0.0
 40
1.0
 40
1.0
 40
1.0
 40
2.0
 40
2.0
 40
2.0
 40
3.0
 40
3.0
 40
3.0
 40
3.0
 10
77.4000015258789
 20
298.1000099182129
 30
0.0
 10
78.60000228881836
 20
303.9000091552734
 30
0.0
 10
85.80000305175781
 20
306.1000099182129
 30
0.0
 10
90.0
 20
301.9000091552734
 30
0.0
 10
90.0
 20
301.9000091552734
 30
0.0
 10
115.8000030517578
 20
276.6000099182129
 30
0.0
 10
115.8000030517578
 20
276.6000099182129
 30
0.0
 10
115.8000030517578
 20
276.6000099182129
 30
0.0
 10
66.4000015258789
 20
245.9000091552734
 30
0.0
 10
66.4000015258789
 20
245.9000091552734
 30
0.0
  0
HATCH
  5
4E
330
41
100
AcDbEntity
  8
Layer 1
 62
    11
420
 15821676
100
AcDbHatch
 10
0.0
 20
0.0
 30
0.0
210
0.0
220
0.0
230
1.0
  2
SOLID
 70
     1
 71
     0
 91
        1
 92
        1
 93
        2
 72
     4
 94
        3
 73
     0
 74
     0
 95
       14
 96
       10
 40
0.0
 40
0.0
 40
0.0
 40
0.0
 40
1.0
 40
1.0
 40
1.0
 40
2.0
 40
2.0
 40
2.0
 40
3.0
 40
3.0
 40
3.0
 40
3.0
 10
77.4000015258789
 20
298.1000099182129
 10
78.60000228881836
 20
303.9000091552734
 10
85.80000305175781
 20
306.1000099182129
 10
90.0
 20
301.9000091552734
 10
90.0
 20
301.9000091552734
 10
115.8000030517578
 20
276.6000099182129
 10
115.8000030517578
 20
276.6000099182129
 10
115.8000030517578
 20
276.6000099182129
 10
66.4000015258789
 20
245.9000091552734
 10
66.4000015258789
 20
245.9000091552734
 97
        0
 72
     1
 10
66.4000015258789
 20
245.9000091552734
 11
77.4000015258789
 21
298.1000099182129
 97
        0
 75
     2
 76
     1
 98
        0
  0
SPLINE
  5
4F
330
41
100
AcDbEntity
  8
Layer 1
370
     0
100
AcDbSpline
210
0.0
220
0.0
230
1.0
 70
    11
 71
     3
 72
    17
 73
    13
 74
     0
 42
0.0000000001
 43
0.0000000001
 12
1.0
 22
0.0
 32
0.0
 13
1.0
 23
0.0
 33
0.0
 40
0.0
 40
0.0
 40
0.0
 40
0.0
 40
1.0
 40
1.0
 40
1.0
 40
2.0
 40
2.0
 40
2.0
 40
3.0
 40
3.0
 40
3.0
 40
4.0
 40
4.0
 40
4.0
 40
4.0
 10
223.1000061035156
 20
245.9000091552734
 30
0.0
 10
223.1000061035156
 20
245.9000091552734
 30
0.0
 10
212.1000061035156
 20
298.1000099182129
 30
0.0
 10
212.1000061035156
 20
298.1000099182129
 30
0.0
 10
210.9000091552734
 20
303.9000091552734
 30
0.0
 10
203.7000122070312
 20
306.1000099182129
 30
0.0
 10
199.5
 20
301.9000091552734
 30
0.0
 10
199.5
 20
301.9000091552734
 30
0.0
 10
173.6999969482422
 20
276.6000099182129
 30
0.0
 10
173.6999969482422
 20
276.6000099182129
 30
0.0
 10
173.6999969482422
 20
276.6000099182129
 30
0.0
 10
223.1000061035156
 20
245.9000091552734
 30
0.0
 10
223.1000061035156
 20
245.9000091552734
 30
0.0
  0
HATCH
  5
50
330
41
100
AcDbEntity
  8
Layer 1
 62
    11
420
 15821676
100
AcDbHatch
 10
0.0
 20
0.0
 30
0.0
210
0.0
220
0.0
230
1.0
  2
SOLID
 70
     1
 71
     0
 91
        1
 92
        1
 93
        1
 72
     4
 94
        3
 73
     0
 74
     1
 95
       17
 96
       13
 40
0.0
 40
0.0
 40
0.0
 40
0.0
 40
1.0
 40
1.0
 40
1.0
 40
2.0
 40
2.0
 40
2.0
 40
3.0
 40
3.0
 40
3.0
 40
4.0
 40
4.0
 40
4.0
 40
4.0
 10
223.1000061035156
 20
245.9000091552734
 10
223.1000061035156
 20
245.9000091552734
 10
212.1000061035156
 20
298.1000099182129
 10
212.1000061035156
 20
298.1000099182129
 10
210.9000091552734
 20
303.9000091552734
 10
203.7000122070312
 20
306.1000099182129
 10
199.5
 20
301.9000091552734
 10
199.5
 20
301.9000091552734
 10
173.6999969482422
 20
276.6000099182129
 10
173.6999969482422
 20
276.6000099182129
 10
173.6999969482422
 20
276.6000099182129
 10
223.1000061035156
 20
245.9000091552734
 10
223.1000061035156
 20
245.9000091552734
 97
        0
 97
        0
 75
     2
 76
     1
 98
        0
  0
SPLINE
  5
51
330
41
100
AcDbEntity
  8
Layer 1
 62
    11
420
 15821676
370
   158
100
AcDbSpline
210
0.0
220
0.0
230
1.0
 70
    11
 71
     3
 72
    29
 73
    25
 74
     0
 42
0.0000000001
 43
0.0000000001
 12
1.0
 22
0.0
 32
0.0
 13
1.0
 23
0.0
 33
0.0
 40
0.0
 40
0.0
 40
0.0
 40
0.0
 40
1.0
 40
1.0
 40
1.0
 40
2.0
 40
2.0
 40
2.0
 40
3.0
 40
3.0
 40
3.0
 40
4.0
 40
4.0
 40
4.0
 40
5.0
 40
5.0
 40
5.0
 40
6.0
 40
6.0
 40
6.0
 40
7.0
 40
7.0
 40
7.0
 40
8.0
 40
8.0
 40
8.0
 40
8.0
 10
189.5
 20
145.7000122070312
 30
0.0
 10
189.5
 20
145.7000122070312
 30
0.0
 10
99.80000305175781
 20
145.7000122070312
 30
0.0
 10
99.80000305175781
 20
145.7000122070312
 30
0.0
 10
69.70000457763672
 20
145.7000122070312
 30
0.0
 10
46.70000457763672
 20
172.7000122070312
 30
0.0
 10
51.50000381469727
 20
202.4000091552734
 30
0.0
 10
51.50000381469727
 20
202.4000091552734
 30
0.0
 10
57.00000381469727
 20
236.2000122070312
 30
0.0
 10
57.00000381469727
 20
236.2000122070312
 30
0.0
 10
60.80000305175781
 20
259.9000091552734
 30
0.0
 10
81.30000305175781
 20
277.3000106811523
 30
0.0
 10
105.3000030517578
 20
277.3000106811523
 30
0.0
 10
105.3000030517578
 20
277.3000106811523
 30
0.0
 10
184.0
 20
277.3000106811523
 30
0.0
 10
184.0
 20
277.3000106811523
 30
0.0
 10
208.0
 20
277.3000106811523
 30
0.0
 10
228.3999938964844
 20
259.9000091552734
 30
0.0
 10
232.3000030517578
 20
236.2000122070312
 30
0.0
 10
232.3000030517578
 20
236.2000122070312
 30
0.0
 10
237.8000030517578
 20
202.4000091552734
 30
0.0
 10
237.8000030517578
 20
202.4000091552734
 30
0.0
 10
242.6000061035156
 20
172.7000122070312
 30
0.0
 10
219.6000061035156
 20
145.7000122070312
 30
0.0
 10
189.5
 20
145.7000122070312
 30
0.0
  0
INSERT
  5
53
330
41
100
AcDbEntity
  8
Layer 1
100
AcDbBlockReference
  2
block 3
 10
0.0
 20
0.0
 30
0.0
  0
INSERT
  5
61
330
41
100
AcDbEntity
  8
Layer 1
100
AcDbBlockReference
  2
block 5
 10
0.0
 20
0.0
 30
0.0
  0
INSERT
  5
6F
330
41
100
AcDbEntity
  8
Layer 1
100
AcDbBlockReference
  2
block 7
 10
0.0
 20
0.0
 30
0.0
  0
INSERT
  5
8B
330
41
100
AcDbEntity
  8
Layer 1
100
AcDbBlockReference
  2
block 11
 10
0.0
 20
0.0
 30
0.0
  0
SPLINE
  5
A6
330
41
100
AcDbEntity
  8
Layer 1
 62
    11
420
 15821676
370
   158
100
AcDbSpline
210
0.0
220
0.0
230
1.0
 70
     8
 71
     3
 72
    11
 73
     7
 74
     0
 42
0.0000000001
 43
0.0000000001
 12
1.0
 22
0.0
 32
0.0
 13
1.0
 23
0.0
 33
0.0
 40
0.0
 40
0.0
 40
0.0
 40
0.0
 40
1.0
 40
1.0
 40
1.0
 40
2.0
 40
2.0
 40
2.0
 40
2.0
 10
144.5999984741211
 20
188.8000183105469
 30
0.0
 10
144.5999984741211
 20
179.3000183105469
 30
0.0
 10
136.9000015258789
 20
171.6000213623047
 30
0.0
 10
127.3999938964844
 20
171.6000213623047
 30
0.0
 10
117.8999938964844
 20
171.6000213623047
 30
0.0
 10
110.1999969482422
 20
179.3000183105469
 30
0.0
 10
110.1999969482422
 20
188.8000183105469
 30
0.0
  0
SPLINE
  5
A7
330
41
100
AcDbEntity
  8
Layer 1
 62
    11
420
 15821676
370
   158
100
AcDbSpline
210
0.0
220
0.0
230
1.0
 70
     8
 71
     3
 72
    11
 73
     7
 74
     0
 42
0.0000000001
 43
0.0000000001
 12
1.0
 22
0.0
 32
0.0
 13
1.0
 23
0.0
 33
0.0
 40
0.0
 40
0.0
 40
0.0
 40
0.0
 40
1.0
 40
1.0
 40
1.0
 40
2.0
 40
2.0
 40
2.0
 40
2.0
 10
179.1000061035156
 20
188.8000183105469
 30
0.0
 10
179.1000061035156
 20
179.3000183105469
 30
0.0
 10
171.4000091552734
 20
171.6000213623047
 30
0.0
 10
161.9000091552734
 20
171.6000213623047
 30
0.0
 10
152.4000091552734
 20
171.6000213623047
 30
0.0
 10
144.7000122070312
 20
179.3000183105469
 30
0.0
 10
144.7000122070312
 20
188.8000183105469
 30
0.0
  0
SPLINE
  5
A8
330
41
100
AcDbEntity
  8
Layer 1
370
     0
100
AcDbSpline
210
0.0
220
0.0
230
1.0
 70
    11
 71
     3
 72
    23
 73
    19
 74
     0
 42
0.0000000001
 43
0.0000000001
 12
1.0
 22
0.0
 32
0.0
 13
1.0
 23
0.0
 33
0.0
 40
0.0
 40
0.0
 40
0.0
 40
0.0
 40
1.0
 40
1.0
 40
1.0
 40
2.0
 40
2.0
 40
2.0
 40
3.0
 40
3.0
 40
3.0
 40
4.0
 40
4.0
 40
4.0
 40
5.0
 40
5.0
 40
5.0
 40
6.0
 40
6.0
 40
6.0
 40
6.0
 10
135.0
 20
196.9000091552734
 30
0.0
 10
135.0
 20
196.9000091552734
 30
0.0
 10
154.3000030517578
 20
196.9000091552734
 30
0.0
 10
154.3000030517578
 20
196.9000091552734
 30
0.0
 10
156.0
 20
196.9000091552734
 30
0.0
 10
156.8000030517578
 20
194.8000030517578
 30
0.0
 10
155.5
 20
193.7000122070312
 30
0.0
 10
155.5
 20
193.7000122070312
 30
0.0
 10
145.9000015258789
 20
185.5000152587891
 30
0.0
 10
145.9000015258789
 20
185.5000152587891
 30
0.0
 10
145.2000045776367
 20
184.9000091552734
 30
0.0
 10
144.2000045776367
 20
184.9000091552734
 30
0.0
 10
143.5999984741211
 20
185.5000152587891
 30
0.0
 10
143.5999984741211
 20
185.5000152587891
 30
0.0
 10
134.0
 20
193.7000122070312
 30
0.0
 10
134.0
 20
193.7000122070312
 30
0.0
 10
132.5
 20
194.8000183105469
 30
0.0
 10
133.3000030517578
 20
196.9000091552734
 30
0.0
 10
135.0
 20
196.9000091552734
 30
0.0
  0
HATCH
  5
A9
330
41
100
AcDbEntity
  8
Layer 1
 62
    40
420
 16763904
100
AcDbHatch
 10
0.0
 20
0.0
 30
0.0
210
0.0
220
0.0
230
1.0
  2
SOLID
 70
     1
 71
     0
 91
        1
 92
        1
 93
        1
 72
     4
 94
        3
 73
     0
 74
     1
 95
       23
 96
       19
 40
0.0
 40
0.0
 40
0.0
 40
0.0
 40
1.0
 40
1.0
 40
1.0
 40
2.0
 40
2.0
 40
2.0
 40
3.0
 40
3.0
 40
3.0
 40
4.0
 40
4.0
 40
4.0
 40
5.0
 40
5.0
 40
5.0
 40
6.0
 40
6.0
 40
6.0
 40
6.0
 10
135.0
 20
196.9000091552734
 10
135.0
 20
196.9000091552734
 10
154.3000030517578
 20
196.9000091552734
 10
154.3000030517578
 20
196.9000091552734
 10
156.0
 20
196.9000091552734
 10
156.8000030517578
 20
194.8000030517578
 10
155.5
 20
193.7000122070312
 10
155.5
 20
193.7000122070312
 10
145.9000015258789
 20
185.5000152587891
 10
145.9000015258789
 20
185.5000152587891
 10
145.2000045776367
 20
184.9000091552734
 10
144.2000045776367
 20
184.9000091552734
 10
143.5999984741211
 20
185.5000152587891
 10
143.5999984741211
 20
185.5000152587891
 10
134.0
 20
193.7000122070312
 10
134.0
 20
193.7000122070312
 10
132.5
 20
194.8000183105469
 10
133.3000030517578
 20
196.9000091552734
 10
135.0
 20
196.9000091552734
 97
        0
 97
        0
 75
     2
 76
     1
 98
        0
  0
SPLINE
  5
AA
330
41
100
AcDbEntity
  8
Layer 1
370
     0
100
AcDbSpline
210
0.0
220
0.0
230
1.0
 70
    11
 71
     3
 72
    23
 73
    19
 74
     0
 42
0.0000000001
 43
0.0000000001
 12
1.0
 22
0.0
 32
0.0
 13
1.0
 23
0.0
 33
0.0
 40
0.0
 40
0.0
 40
0.0
 40
0.0
 40
1.0
 40
1.0
 40
1.0
 40
2.0
 40
2.0
 40
2.0
 40
3.0
 40
3.0
 40
3.0
 40
4.0
 40
4.0
 40
4.0
 40
5.0
 40
5.0
 40
5.0
 40
6.0
 40
6.0
 40
6.0
 40
6.0
 10
144.8000030517578
 20
244.0000152587891
 30
0.0
 10
144.8000030517578
 20
244.0000152587891
 30
0.0
 10
144.8000030517578
 20
244.0000152587891
 30
0.0
 10
144.8000030517578
 20
244.0000152587891
 30
0.0
 10
128.3000030517578
 20
244.0000152587891
 30
0.0
 10
114.9000015258789
 20
257.400016784668
 30
0.0
 10
114.9000015258789
 20
273.900016784668
 30
0.0
 10
114.9000015258789
 20
273.900016784668
 30
0.0
 10
114.9000015258789
 20
277.400016784668
 30
0.0
 10
114.9000015258789
 20
277.400016784668
 30
0.0
 10
114.9000015258789
 20
277.400016784668
 30
0.0
 10
174.6999969482422
 20
277.400016784668
 30
0.0
 10
174.6999969482422
 20
277.400016784668
 30
0.0
 10
174.6999969482422
 20
277.400016784668
 30
0.0
 10
174.6999969482422
 20
273.900016784668
 30
0.0
 10
174.6999969482422
 20
273.900016784668
 30
0.0
 10
174.6999969482422
 20
257.4000091552734
 30
0.0
 10
161.3000030517578
 20
244.0000152587891
 30
0.0
 10
144.8000030517578
 20
244.0000152587891
 30
0.0
  0
HATCH
  5
AB
330
41
100
AcDbEntity
  8
Layer 1
 62
    11
420
 15821676
100
AcDbHatch
 10
0.0
 20
0.0
 30
0.0
210
0.0
220
0.0
230
1.0
  2
SOLID
 70
     1
 71
     0
 91
        1
 92
        1
 93
        1
 72
     4
 94
        3
 73
     0
 74
     1
 95
       23
 96
       19
 40
0.0
 40
0.0
 40
0.0
 40
0.0
 40
1.0
 40
1.0
 40
1.0
 40
2.0
 40
2.0
 40
2.0
 40
3.0
 40
3.0
 40
3.0
 40
4.0
 40
4.0
 40
4.0
 40
5.0
 40
5.0
 40
5.0
 40
6.0
 40
6.0
 40
6.0
 40
6.0
 10
144.8000030517578
 20
244.0000152587891
 10
144.8000030517578
 20
244.0000152587891
 10
144.8000030517578
 20
244.0000152587891
 10
144.8000030517578
 20
244.0000152587891
 10
128.3000030517578
 20
244.0000152587891
 10
114.9000015258789
 20
257.400016784668
 10
114.9000015258789
 20
273.900016784668
 10
114.9000015258789
 20
273.900016784668
 10
114.9000015258789
 20
277.400016784668
 10
114.9000015258789
 20
277.400016784668
 10
114.9000015258789
 20
277.400016784668
 10
174.6999969482422
 20
277.400016784668
 10
174.6999969482422
 20
277.400016784668
 10
174.6999969482422
 20
277.400016784668
 10
174.6999969482422
 20
273.900016784668
 10
174.6999969482422
 20
273.900016784668
 10
174.6999969482422
 20
257.4000091552734
 10
161.3000030517578
 20
244.0000152587891
 10
144.8000030517578
 20
244.0000152587891
 97
        0
 97
        0
 75
     2
 76
     1
 98
        0
  0
SPLINE
  5
AC
330
41
100
AcDbEntity
  8
Layer 1
370
     0
100
AcDbSpline
210
0.0
220
0.0
230
1.0
 70
    11
 71
     3
 72
    17
 73
    13
 74
     0
 42
0.0000000001
 43
0.0000000001
 12
1.0
 22
0.0
 32
0.0
 13
1.0
 23
0.0
 33
0.0
 40
0.0
 40
0.0
 40
0.0
 40
0.0
 40
1.0
 40
1.0
 40
1.0
 40
2.0
 40
2.0
 40
2.0
 40
3.0
 40
3.0
 40
3.0
 40
4.0
 40
4.0
 40
4.0
 40
4.0
 10
144.8000030517578
 20
139.1000061035156
 30
0.0
 10
153.5813293457031
 20
139.1000061035156
 30
0.0
 10
160.6999969482422
 20
131.9813385009766
 30
0.0
 10
160.6999969482422
 20
123.2000122070312
 30
0.0
 10
160.6999969482422
 20
114.4186859130859
 30
0.0
 10
153.5813293457031
 20
107.3000183105469
 30
0.0
 10
144.8000030517578
 20
107.3000183105469
 30
0.0
 10
136.0186767578125
 20
107.3000183105469
 30
0.0
 10
128.9000015258789
 20
114.4186859130859
 30
0.0
 10
128.9000015258789
 20
123.2000122070312
 30
0.0
 10
128.9000015258789
 20
131.9813385009766
 30
0.0
 10
136.0186767578125
 20
139.1000061035156
 30
0.0
 10
144.8000030517578
 20
139.1000061035156
 30
0.0
  0
HATCH
  5
AD
330
41
100
AcDbEntity
  8
Layer 1
 62
    40
420
 16763904
100
AcDbHatch
 10
0.0
 20
0.0
 30
0.0
210
0.0
220
0.0
230
1.0
  2
SOLID
 70
     1
 71
     0
 91
        1
 92
        1
 93
        1
 72
     4
 94
        3
 73
     0
 74
     1
 95
       17
 96
       13
 40
0.0
 40
0.0
 40
0.0
 40
0.0
 40
1.0
 40
1.0
 40
1.0
 40
2.0
 40
2.0
 40
2.0
 40
3.0
 40
3.0
 40
3.0
 40
4.0
 40
4.0
 40
4.0
 40
4.0
 10
144.8000030517578
 20
139.1000061035156
 10
153.5813293457031
 20
139.1000061035156
 10
160.6999969482422
 20
131.9813385009766
 10
160.6999969482422
 20
123.2000122070312
 10
160.6999969482422
 20
114.4186859130859
 10
153.5813293457031
 20
107.3000183105469
 10
144.8000030517578
 20
107.3000183105469
 10
136.0186767578125
 20
107.3000183105469
 10
128.9000015258789
 20
114.4186859130859
 10
128.9000015258789
 20
123.2000122070312
 10
128.9000015258789
 20
131.9813385009766
 10
136.0186767578125
 20
139.1000061035156
 10
144.8000030517578
 20
139.1000061035156
 97
        0
 97
        0
 75
     2
 76
     1
 98
        0
  0
INSERT
  5
AF
330
41
100
AcDbEntity
  8
Layer 1
100
AcDbBlockReference
  2
block 15
 10
0.0
 20
0.0
 30
0.0
  0
SPLINE
  5
B6
330
41
100
AcDbEntity
  8
Layer 1
 62
    11
420
 15821676
370
   158
100
AcDbSpline
210
0.0
220
0.0
230
1.0
 70
    11
 71
     3
 72
    29
 73
    25
 74
     0
 42
0.0000000001
 43
0.0000000001
 12
1.0
 22
0.0
 32
0.0
 13
1.0
 23
0.0
 33
0.0
 40
0.0
 40
0.0
 40
0.0
 40
0.0
 40
1.0
 40
1.0
 40
1.0
 40
2.0
 40
2.0
 40
2.0
 40
3.0
 40
3.0
 40
3.0
 40
4.0
 40
4.0
 40
4.0
 40
5.0
 40
5.0
 40
5.0
 40
6.0
 40
6.0
 40
6.0
 40
7.0
 40
7.0
 40
7.0
 40
8.0
 40
8.0
 40
8.0
 40
8.0
 10
111.5
 20
2.0
 30
0.0
 10
111.5
 20
2.0
 30
0.0
 10
68.70000076293945
 20
2.0
 30
0.0
 10
68.70000076293945
 20
2.0
 30
0.0
 10
62.70000076293945
 20
2.0
 30
0.0
 10
57.90000152587891
 20
6.79998779296875
 30
0.0
 10
57.90000152587891
 20
12.79998779296875
 30
0.0
 10
57.90000152587891
 20
12.79998779296875
 30
0.0
 10
57.90000152587891
 20
12.79998779296875
 30
0.0
 10
57.90000152587891
 20
12.79998779296875
 30
0.0
 10
57.90000152587891
 20
27.69998168945312
 30
0.0
 10
70.0
 20
39.79998779296875
 30
0.0
 10
84.9000015258789
 20
39.79998779296875
 30
0.0
 10
84.9000015258789
 20
39.79998779296875
 30
0.0
 10
95.20000457763672
 20
39.79998779296875
 30
0.0
 10
95.20000457763672
 20
39.79998779296875
 30
0.0
 10
110.1000061035156
 20
39.79998779296875
 30
0.0
 10
122.2000045776367
 20
27.69998168945312
 30
0.0
 10
122.2000045776367
 20
12.79998779296875
 30
0.0
 10
122.2000045776367
 20
12.79998779296875
 30
0.0
 10
122.2000045776367
 20
12.79998779296875
 30
0.0
 10
122.2000045776367
 20
12.79998779296875
 30
0.0
 10
122.3000030517578
 20
6.800018310546875
 30
0.0
 10
117.5
 20
2.0
 30
0.0
 10
111.5
 20
2.0
 30
0.0
  0
SPLINE
  5
B7
330
41
100
AcDbEntity
  8
Layer 1
 62
    11
420
 15821676
370
   158
100
AcDbSpline
210
0.0
220
0.0
230
1.0
 70
    11
 71
     3
 72
    29
 73
    25
 74
     0
 42
0.0000000001
 43
0.0000000001
 12
1.0
 22
0.0
 32
0.0
 13
1.0
 23
0.0
 33
0.0
 40
0.0
 40
0.0
 40
0.0
 40
0.0
 40
1.0
 40
1.0
 40
1.0
 40
2.0
 40
2.0
 40
2.0
 40
3.0
 40
3.0
 40
3.0
 40
4.0
 40
4.0
 40
4.0
 40
5.0
 40
5.0
 40
5.0
 40
6.0
 40
6.0
 40
6.0
 40
7.0
 40
7.0
 40
7.0
 40
8.0
 40
8.0
 40
8.0
 40
8.0
 10
220.6000061035156
 20
2.0
 30
0.0
 10
220.6000061035156
 20
2.0
 30
0.0
 10
177.8000030517578
 20
2.0
 30
0.0
 10
177.8000030517578
 20
2.0
 30
0.0
 10
171.8000030517578
 20
2.0
 30
0.0
 10
167.0
 20
6.79998779296875
 30
0.0
 10
167.0
 20
12.79998779296875
 30
0.0
 10
167.0
 20
12.79998779296875
 30
0.0
 10
167.0
 20
12.79998779296875
 30
0.0
 10
167.0
 20
12.79998779296875
 30
0.0
 10
167.0
 20
27.69998168945312
 30
0.0
 10
179.1000061035156
 20
39.79998779296875
 30
0.0
 10
194.0
 20
39.79998779296875
 30
0.0
 10
194.0
 20
39.79998779296875
 30
0.0
 10
204.3000030517578
 20
39.79998779296875
 30
0.0
 10
204.3000030517578
 20
39.79998779296875
 30
0.0
 10
219.1999969482422
 20
39.79998779296875
 30
0.0
 10
231.3000030517578
 20
27.69998168945312
 30
0.0
 10
231.3000030517578
 20
12.79998779296875
 30
0.0
 10
231.3000030517578
 20
12.79998779296875
 30
0.0
 10
231.3000030517578
 20
12.79998779296875
 30
0.0
 10
231.3000030517578
 20
12.79998779296875
 30
0.0
 10
231.3999938964844
 20
6.800018310546875
 30
0.0
 10
226.5
 20
2.0
 30
0.0
 10
220.6000061035156
 20
2.0
 30
0.0
  0
INSERT
  5
B9
330
41
100
AcDbEntity
  8
Layer 1
100
AcDbBlockReference
  2
block 16
 10
0.0
 20
0.0
 30
0.0
  0
INSERT
  5
C5
330
41
100
AcDbEntity
  8
Layer 1
100
AcDbBlockReference
  2
block 18
 10
0.0
 20
0.0
 30
0.0
  0
INSERT
  5
E1
330
41
100
AcDbEntity
  8
Layer 1
100
AcDbBlockReference
  2
block 22
 10
0.0
 20
0.0
 30
0.0
  0
ENDBLK
  5
44
330
41
100
AcDbEntity
  8
0
100
AcDbBlockEnd
  0
BLOCK
  5
54
330
52
100
AcDbEntity
  8
0
100
AcDbBlockBegin
  2
block 3
 70
     0
 10
0.0
 20
0.0
 30
0.0
  3
block 3
  1

  0
INSERT
  5
57
330
52
100
AcDbEntity
  8
Layer 1
100
AcDbBlockReference
  2
block 4
 10
0.0
 20
0.0
 30
0.0
  0
SPLINE
  5
5E
330
52
100
AcDbEntity
  8
Layer 1
370
     0
100
AcDbSpline
210
0.0
220
0.0
230
1.0
 70
    11
 71
     3
 72
    17
 73
    13
 74
     0
 42
0.0000000001
 43
0.0000000001
 12
1.0
 22
0.0
 32
0.0
 13
1.0
 23
0.0
 33
0.0
 40
0.0
 40
0.0
 40
0.0
 40
0.0
 40
1.0
 40
1.0
 40
1.0
 40
2.0
 40
2.0
 40
2.0
 40
3.0
 40
3.0
 40
3.0
 40
4.0
 40
4.0
 40
4.0
 40
4.0
 10
98.5999984741211
 20
236.0000152587891
 30
0.0
 10
108.7620391845703
 20
236.0000152587891
 30
0.0
 10
117.0
 20
227.7620544433594
 30
0.0
 10
117.0
 20
217.6000137329102
 30
0.0
 10
117.0
 20
207.4379730224609
 30
0.0
 10
108.7620391845703
 20
199.2000122070312
 30
0.0
 10
98.5999984741211
 20
199.2000122070312
 30
0.0
 10
88.43795776367188
 20
199.2000122070312
 30
0.0
 10
80.19999694824219
 20
207.4379730224609
 30
0.0
 10
80.19999694824219
 20
217.6000137329102
 30
0.0
 10
80.19999694824219
 20
227.7620544433594
 30
0.0
 10
88.43795776367188
 20
236.0000152587891
 30
0.0
 10
98.5999984741211
 20
236.0000152587891
 30
0.0
  0
HATCH
  5
5F
330
52
100
AcDbEntity
  8
Layer 1
 62
    11
420
 15821676
100
AcDbHatch
 10
0.0
 20
0.0
 30
0.0
210
0.0
220
0.0
230
1.0
  2
SOLID
 70
     1
 71
     0
 91
        1
 92
        1
 93
        1
 72
     4
 94
        3
 73
     0
 74
     1
 95
       17
 96
       13
 40
0.0
 40
0.0
 40
0.0
 40
0.0
 40
1.0
 40
1.0
 40
1.0
 40
2.0
 40
2.0
 40
2.0
 40
3.0
 40
3.0
 40
3.0
 40
4.0
 40
4.0
 40
4.0
 40
4.0
 10
98.5999984741211
 20
236.0000152587891
 10
108.7620391845703
 20
236.0000152587891
 10
117.0
 20
227.7620544433594
 10
117.0
 20
217.6000137329102
 10
117.0
 20
207.4379730224609
 10
108.7620391845703
 20
199.2000122070312
 10
98.5999984741211
 20
199.2000122070312
 10
88.43795776367188
 20
199.2000122070312
 10
80.19999694824219
 20
207.4379730224609
 10
80.19999694824219
 20
217.6000137329102
 10
80.19999694824219
 20
227.7620544433594
 10
88.43795776367188
 20
236.0000152587891
 10
98.5999984741211
 20
236.0000152587891
 97
        0
 97
        0
 75
     2
 76
     1
 98
        0
  0
ENDBLK
  5
55
330
52
100
AcDbEntity
  8
0
100
AcDbBlockEnd
  0
BLOCK
  5
58
330
56
100
AcDbEntity
  8
0
100
AcDbBlockBegin
  2
block 4
 70
     0
 10
0.0
 20
0.0
 30
0.0
  3
block 4
  1

  0
SPLINE
  5
5A
330
56
100
AcDbEntity
  8
Layer 1
370
     0
100
AcDbSpline
210
0.0
220
0.0
230
1.0
 70
    11
 71
     3
 72
    26
 73
    22
 74
     0
 42
0.0000000001
 43
0.0000000001
 12
1.0
 22
0.0
 32
0.0
 13
1.0
 23
0.0
 33
0.0
 40
0.0
 40
0.0
 40
0.0
 40
0.0
 40
1.0
 40
1.0
 40
1.0
 40
2.0
 40
2.0
 40
2.0
 40
3.0
 40
3.0
 40
3.0
 40
4.0
 40
4.0
 40
4.0
 40
5.0
 40
5.0
 40
5.0
 40
6.0
 40
6.0
 40
6.0
 40
7.0
 40
7.0
 40
7.0
 40
7.0
 10
98.5999984741211
 20
194.5000152587891
 30
0.0
 10
92.4000015258789
 20
194.5000152587891
 30
0.0
 10
86.5999984741211
 20
196.9000091552734
 30
0.0
 10
82.19999694824219
 20
201.3000183105469
 30
0.0
 10
77.79999542236328
 20
205.7000122070312
 30
0.0
 10
75.39999771118164
 20
211.5000152587891
 30
0.0
 10
75.39999771118164
 20
217.7000198364258
 30
0.0
 10
75.39999771118164
 20
230.5000228881836
 30
0.0
 10
85.79999542236328
 20
240.8000183105469
 30
0.0
 10
98.5
 20
240.8000183105469
 30
0.0
 10
111.3000030517578
 20
240.8000183105469
 30
0.0
 10
121.5999984741211
 20
230.400016784668
 30
0.0
 10
121.5999984741211
 20
217.7000198364258
 30
0.0
 10
121.5999984741211
 20
211.5000152587891
 30
0.0
 10
119.1999969482422
 20
205.7000122070312
 30
0.0
 10
114.7999954223633
 20
201.3000183105469
 30
0.0
 10
110.5999984741211
 20
196.9000091552734
 30
0.0
 10
104.8000030517578
 20
194.5000152587891
 30
0.0
 10
98.5999984741211
 20
194.5000152587891
 30
0.0
 10
98.5999984741211
 20
194.5000152587891
 30
0.0
 10
98.5999984741211
 20
194.5000152587891
 30
0.0
 10
98.5999984741211
 20
194.5000152587891
 30
0.0
  0
SPLINE
  5
5B
330
56
100
AcDbEntity
  8
Layer 1
370
     0
100
AcDbSpline
210
0.0
220
0.0
230
1.0
 70
    11
 71
     3
 72
    17
 73
    13
 74
     0
 42
0.0000000001
 43
0.0000000001
 12
1.0
 22
0.0
 32
0.0
 13
1.0
 23
0.0
 33
0.0
 40
0.0
 40
0.0
 40
0.0
 40
0.0
 40
1.0
 40
1.0
 40
1.0
 40
2.0
 40
2.0
 40
2.0
 40
3.0
 40
3.0
 40
3.0
 40
4.0
 40
4.0
 40
4.0
 40
4.0
 10
98.5999984741211
 20
239.7000122070312
 30
0.0
 10
110.7999954223633
 20
239.7000122070312
 30
0.0
 10
120.6999969482422
 20
229.8000106811523
 30
0.0
 10
120.6999969482422
 20
217.6000137329102
 30
0.0
 10
120.6999969482422
 20
205.4000091552734
 30
0.0
 10
110.7999954223633
 20
195.5000152587891
 30
0.0
 10
98.5999984741211
 20
195.5000152587891
 30
0.0
 10
86.39999771118164
 20
195.5000152587891
 30
0.0
 10
76.5
 20
205.4000091552734
 30
0.0
 10
76.5
 20
217.6000137329102
 30
0.0
 10
76.5
 20
229.8000106811523
 30
0.0
 10
86.4000015258789
 20
239.7000122070312
 30
0.0
 10
98.5999984741211
 20
239.7000122070312
 30
0.0
  0
SPLINE
  5
5C
330
56
100
AcDbEntity
  8
Layer 1
370
     0
100
AcDbSpline
210
0.0
220
0.0
230
1.0
 70
    11
 71
     3
 72
    29
 73
    25
 74
     0
 42
0.0000000001
 43
0.0000000001
 12
1.0
 22
0.0
 32
0.0
 13
1.0
 23
0.0
 33
0.0
 40
0.0
 40
0.0
 40
0.0
 40
0.0
 40
1.0
 40
1.0
 40
1.0
 40
2.0
 40
2.0
 40
2.0
 40
3.0
 40
3.0
 40
3.0
 40
4.0
 40
4.0
 40
4.0
 40
5.0
 40
5.0
 40
5.0
 40
6.0
 40
6.0
 40
6.0
 40
7.0
 40
7.0
 40
7.0
 40
8.0
 40
8.0
 40
8.0
 40
8.0
 10
98.5999984741211
 20
241.7000122070312
 30
0.0
 10
98.5999984741211
 20
241.7000122070312
 30
0.0
 10
98.5999984741211
 20
239.7000122070312
 30
0.0
 10
98.5999984741211
 20
239.7000122070312
 30
0.0
 10
98.5999984741211
 20
239.7000122070312
 30
0.0
 10
98.5999984741211
 20
241.7000122070312
 30
0.0
 10
98.5999984741211
 20
241.7000122070312
 30
0.0
 10
98.5999984741211
 20
241.7000122070312
 30
0.0
 10
98.5999984741211
 20
241.7000122070312
 30
0.0
 10
98.5999984741211
 20
241.7000122070312
 30
0.0
 10
85.29999923706055
 20
241.7000122070312
 30
0.0
 10
74.5
 20
230.9000091552734
 30
0.0
 10
74.5
 20
217.6000137329102
 30
0.0
 10
74.5
 20
204.3000183105469
 30
0.0
 10
85.29999923706055
 20
193.5000152587891
 30
0.0
 10
98.5999984741211
 20
193.5000152587891
 30
0.0
 10
111.9000015258789
 20
193.5000152587891
 30
0.0
 10
122.6999969482422
 20
204.3000183105469
 30
0.0
 10
122.6999969482422
 20
217.6000137329102
 30
0.0
 10
122.8000030517578
 20
230.9000091552734
 30
0.0
 10
111.9000015258789
 20
241.7000122070312
 30
0.0
 10
98.5999984741211
 20
241.7000122070312
 30
0.0
 10
98.5999984741211
 20
241.7000122070312
 30
0.0
 10
98.5999984741211
 20
241.7000122070312
 30
0.0
 10
98.5999984741211
 20
241.7000122070312
 30
0.0
  0
HATCH
  5
5D
330
56
100
AcDbEntity
  8
Layer 1
 62
    11
420
 15821676
100
AcDbHatch
 10
0.0
 20
0.0
 30
0.0
210
0.0
220
0.0
230
1.0
  2
SOLID
 70
     1
 71
     0
 91
        2
 92
        1
 93
        1
 72
     4
 94
        3
 73
     0
 74
     1
 95
       29
 96
       25
 40
0.0
 40
0.0
 40
0.0
 40
0.0
 40
1.0
 40
1.0
 40
1.0
 40
2.0
 40
2.0
 40
2.0
 40
3.0
 40
3.0
 40
3.0
 40
4.0
 40
4.0
 40
4.0
 40
5.0
 40
5.0
 40
5.0
 40
6.0
 40
6.0
 40
6.0
 40
7.0
 40
7.0
 40
7.0
 40
8.0
 40
8.0
 40
8.0
 40
8.0
 10
98.5999984741211
 20
241.7000122070312
 10
98.5999984741211
 20
241.7000122070312
 10
98.5999984741211
 20
239.7000122070312
 10
98.5999984741211
 20
239.7000122070312
 10
98.5999984741211
 20
239.7000122070312
 10
98.5999984741211
 20
241.7000122070312
 10
98.5999984741211
 20
241.7000122070312
 10
98.5999984741211
 20
241.7000122070312
 10
98.5999984741211
 20
241.7000122070312
 10
98.5999984741211
 20
241.7000122070312
 10
85.29999923706055
 20
241.7000122070312
 10
74.5
 20
230.9000091552734
 10
74.5
 20
217.6000137329102
 10
74.5
 20
204.3000183105469
 10
85.29999923706055
 20
193.5000152587891
 10
98.5999984741211
 20
193.5000152587891
 10
111.9000015258789
 20
193.5000152587891
 10
122.6999969482422
 20
204.3000183105469
 10
122.6999969482422
 20
217.6000137329102
 10
122.8000030517578
 20
230.9000091552734
 10
111.9000015258789
 20
241.7000122070312
 10
98.5999984741211
 20
241.7000122070312
 10
98.5999984741211
 20
241.7000122070312
 10
98.5999984741211
 20
241.7000122070312
 10
98.5999984741211
 20
241.7000122070312
 97
        0
 97
        0
 92
        1
 93
        2
 72
     4
 94
        3
 73
     0
 74
     0
 95
       17
 96
       13
 40
0.0
 40
0.0
 40
0.0
 40
0.0
 40
1.0
 40
1.0
 40
1.0
 40
2.0
 40
2.0
 40
2.0
 40
3.0
 40
3.0
 40
3.0
 40
4.0
 40
4.0
 40
4.0
 40
4.0
 10
98.5999984741211
 20
239.7000122070312
 10
110.7999954223633
 20
239.7000122070312
 10
120.6999969482422
 20
229.8000106811523
 10
120.6999969482422
 20
217.6000137329102
 10
120.6999969482422
 20
205.4000091552734
 10
110.7999954223633
 20
195.5000152587891
 10
98.5999984741211
 20
195.5000152587891
 10
86.39999771118164
 20
195.5000152587891
 10
76.5
 20
205.4000091552734
 10
76.5
 20
217.6000137329102
 10
76.5
 20
229.8000106811523
 10
86.4000015258789
 20
239.7000122070312
 10
98.5999984741211
 20
239.7000122070312
 97
        0
 72
     1
 10
98.5999984741211
 20
239.7000122070312
 11
98.5999984741211
 21
239.7000122070312
 97
        0
 75
     2
 76
     1
 98
        0
  0
ENDBLK
  5
59
330
56
100
AcDbEntity
  8
0
100
AcDbBlockEnd
  0
BLOCK
  5
62
330
60
100
AcDbEntity
  8
0
100
AcDbBlockBegin
  2
block 5
 70
     0
 10
0.0
 20
0.0
 30
0.0
  3
block 5
  1

  0
INSERT
  5
65
330
60
100
AcDbEntity
  8
Layer 1
100
AcDbBlockReference
  2
block 6
 10
0.0
 20
0.0
 30
0.0
  0
SPLINE
  5
6C
330
60
100
AcDbEntity
  8
Layer 1
370
     0
100
AcDbSpline
210
0.0
220
0.0
230
1.0
 70
    11
 71
     3
 72
    17
 73
    13
 74
     0
 42
0.0000000001
 43
0.0000000001
 12
1.0
 22
0.0
 32
0.0
 13
1.0
 23
0.0
 33
0.0
 40
0.0
 40
0.0
 40
0.0
 40
0.0
 40
1.0
 40
1.0
 40
1.0
 40
2.0
 40
2.0
 40
2.0
 40
3.0
 40
3.0
 40
3.0
 40
4.0
 40
4.0
 40
4.0
 40
4.0
 10
190.6000061035156
 20
236.0000152587891
 30
0.0
 10
200.7620391845703
 20
236.0000152587891
 30
0.0
 10
209.0
 20
227.7620544433594
 30
0.0
 10
209.0
 20
217.6000137329102
 30
0.0
 10
209.0
 20
207.4379730224609
 30
0.0
 10
200.7620391845703
 20
199.2000122070312
 30
0.0
 10
190.6000061035156
 20
199.2000122070312
 30
0.0
 10
180.4379730224609
 20
199.2000122070312
 30
0.0
 10
172.2000122070312
 20
207.4379730224609
 30
0.0
 10
172.2000122070312
 20
217.6000137329102
 30
0.0
 10
172.2000122070312
 20
227.7620544433594
 30
0.0
 10
180.4379730224609
 20
236.0000152587891
 30
0.0
 10
190.6000061035156
 20
236.0000152587891
 30
0.0
  0
HATCH
  5
6D
330
60
100
AcDbEntity
  8
Layer 1
 62
    11
420
 15821676
100
AcDbHatch
 10
0.0
 20
0.0
 30
0.0
210
0.0
220
0.0
230
1.0
  2
SOLID
 70
     1
 71
     0
 91
        1
 92
        1
 93
        1
 72
     4
 94
        3
 73
     0
 74
     1
 95
       17
 96
       13
 40
0.0
 40
0.0
 40
0.0
 40
0.0
 40
1.0
 40
1.0
 40
1.0
 40
2.0
 40
2.0
 40
2.0
 40
3.0
 40
3.0
 40
3.0
 40
4.0
 40
4.0
 40
4.0
 40
4.0
 10
190.6000061035156
 20
236.0000152587891
 10
200.7620391845703
 20
236.0000152587891
 10
209.0
 20
227.7620544433594
 10
209.0
 20
217.6000137329102
 10
209.0
 20
207.4379730224609
 10
200.7620391845703
 20
199.2000122070312
 10
190.6000061035156
 20
199.2000122070312
 10
180.4379730224609
 20
199.2000122070312
 10
172.2000122070312
 20
207.4379730224609
 10
172.2000122070312
 20
217.6000137329102
 10
172.2000122070312
 20
227.7620544433594
 10
180.4379730224609
 20
236.0000152587891
 10
190.6000061035156
 20
236.0000152587891
 97
        0
 97
        0
 75
     2
 76
     1
 98
        0
  0
ENDBLK
  5
63
330
60
100
AcDbEntity
  8
0
100
AcDbBlockEnd
  0
BLOCK
  5
66
330
64
100
AcDbEntity
  8
0
100
AcDbBlockBegin
  2
block 6
 70
     0
 10
0.0
 20
0.0
 30
0.0
  3
block 6
  1

  0
SPLINE
  5
68
330
64
100
AcDbEntity
  8
Layer 1
370
     0
100
AcDbSpline
210
0.0
220
0.0
230
1.0
 70
    11
 71
     3
 72
    26
 73
    22
 74
     0
 42
0.0000000001
 43
0.0000000001
 12
1.0
 22
0.0
 32
0.0
 13
1.0
 23
0.0
 33
0.0
 40
0.0
 40
0.0
 40
0.0
 40
0.0
 40
1.0
 40
1.0
 40
1.0
 40
2.0
 40
2.0
 40
2.0
 40
3.0
 40
3.0
 40
3.0
 40
4.0
 40
4.0
 40
4.0
 40
5.0
 40
5.0
 40
5.0
 40
6.0
 40
6.0
 40
6.0
 40
7.0
 40
7.0
 40
7.0
 40
7.0
 10
190.6000061035156
 20
194.5000152587891
 30
0.0
 10
184.4000091552734
 20
194.5000152587891
 30
0.0
 10
178.6000061035156
 20
196.9000091552734
 30
0.0
 10
174.2000122070312
 20
201.3000183105469
 30
0.0
 10
169.8000183105469
 20
205.7000122070312
 30
0.0
 10
167.4000091552734
 20
211.5000152587891
 30
0.0
 10
167.4000091552734
 20
217.7000198364258
 30
0.0
 10
167.4000091552734
 20
223.900016784668
 30
0.0
 10
169.8000030517578
 20
229.7000198364258
 30
0.0
 10
174.2000122070312
 20
234.1000213623047
 30
0.0
 10
178.6000061035156
 20
238.5000228881836
 30
0.0
 10
184.4000091552734
 20
240.9000244140625
 30
0.0
 10
190.6000061035156
 20
240.9000244140625
 30
0.0
 10
203.4000091552734
 20
240.9000244140625
 30
0.0
 10
213.7000122070312
 20
230.5000228881836
 30
0.0
 10
213.7000122070312
 20
217.8000259399414
 30
0.0
 10
213.8000030517578
 20
204.9000091552734
 30
0.0
 10
203.3999938964844
 20
194.5000152587891
 30
0.0
 10
190.6000061035156
 20
194.5000152587891
 30
0.0
 10
190.6000061035156
 20
194.5000152587891
 30
0.0
 10
190.6000061035156
 20
194.5000152587891
 30
0.0
 10
190.6000061035156
 20
194.5000152587891
 30
0.0
  0
SPLINE
  5
69
330
64
100
AcDbEntity
  8
Layer 1
370
     0
100
AcDbSpline
210
0.0
220
0.0
230
1.0
 70
    11
 71
     3
 72
    17
 73
    13
 74
     0
 42
0.0000000001
 43
0.0000000001
 12
1.0
 22
0.0
 32
0.0
 13
1.0
 23
0.0
 33
0.0
 40
0.0
 40
0.0
 40
0.0
 40
0.0
 40
1.0
 40
1.0
 40
1.0
 40
2.0
 40
2.0
 40
2.0
 40
3.0
 40
3.0
 40
3.0
 40
4.0
 40
4.0
 40
4.0
 40
4.0
 10
190.6000061035156
 20
239.7000122070312
 30
0.0
 10
202.8000030517578
 20
239.7000122070312
 30
0.0
 10
212.7000122070312
 20
229.8000106811523
 30
0.0
 10
212.7000122070312
 20
217.6000137329102
 30
0.0
 10
212.7000122070312
 20
205.4000091552734
 30
0.0
 10
202.8000183105469
 20
195.5000152587891
 30
0.0
 10
190.6000061035156
 20
195.5000152587891
 30
0.0
 10
178.3999938964844
 20
195.5000152587891
 30
0.0
 10
168.5
 20
205.4000091552734
 30
0.0
 10
168.5
 20
217.6000137329102
 30
0.0
 10
168.5
 20
229.8000183105469
 30
0.0
 10
178.3999938964844
 20
239.7000122070312
 30
0.0
 10
190.6000061035156
 20
239.7000122070312
 30
0.0
  0
SPLINE
  5
6A
330
64
100
AcDbEntity
  8
Layer 1
370
     0
100
AcDbSpline
210
0.0
220
0.0
230
1.0
 70
    11
 71
     3
 72
    29
 73
    25
 74
     0
 42
0.0000000001
 43
0.0000000001
 12
1.0
 22
0.0
 32
0.0
 13
1.0
 23
0.0
 33
0.0
 40
0.0
 40
0.0
 40
0.0
 40
0.0
 40
1.0
 40
1.0
 40
1.0
 40
2.0
 40
2.0
 40
2.0
 40
3.0
 40
3.0
 40
3.0
 40
4.0
 40
4.0
 40
4.0
 40
5.0
 40
5.0
 40
5.0
 40
6.0
 40
6.0
 40
6.0
 40
7.0
 40
7.0
 40
7.0
 40
8.0
 40
8.0
 40
8.0
 40
8.0
 10
190.6000061035156
 20
241.7000122070312
 30
0.0
 10
190.6000061035156
 20
241.7000122070312
 30
0.0
 10
190.6000061035156
 20
239.7000122070312
 30
0.0
 10
190.6000061035156
 20
239.7000122070312
 30
0.0
 10
190.6000061035156
 20
239.7000122070312
 30
0.0
 10
190.6000061035156
 20
241.7000122070312
 30
0.0
 10
190.6000061035156
 20
241.7000122070312
 30
0.0
 10
190.6000061035156
 20
241.7000122070312
 30
0.0
 10
190.6000061035156
 20
241.7000122070312
 30
0.0
 10
190.6000061035156
 20
241.7000122070312
 30
0.0
 10
177.3000030517578
 20
241.7000122070312
 30
0.0
 10
166.5
 20
230.9000091552734
 30
0.0
 10
166.5
 20
217.6000137329102
 30
0.0
 10
166.5
 20
204.3000183105469
 30
0.0
 10
177.3000030517578
 20
193.5000152587891
 30
0.0
 10
190.6000061035156
 20
193.5000152587891
 30
0.0
 10
203.9000091552734
 20
193.5000152587891
 30
0.0
 10
214.7000122070312
 20
204.3000183105469
 30
0.0
 10
214.7000122070312
 20
217.6000137329102
 30
0.0
 10
214.8000030517578
 20
230.9000091552734
 30
0.0
 10
203.8999938964844
 20
241.7000122070312
 30
0.0
 10
190.6000061035156
 20
241.7000122070312
 30
0.0
 10
190.6000061035156
 20
241.7000122070312
 30
0.0
 10
190.6000061035156
 20
241.7000122070312
 30
0.0
 10
190.6000061035156
 20
241.7000122070312
 30
0.0
  0
HATCH
  5
6B
330
64
100
AcDbEntity
  8
Layer 1
 62
    11
420
 15821676
100
AcDbHatch
 10
0.0
 20
0.0
 30
0.0
210
0.0
220
0.0
230
1.0
  2
SOLID
 70
     1
 71
     0
 91
        2
 92
        1
 93
        1
 72
     4
 94
        3
 73
     0
 74
     1
 95
       29
 96
       25
 40
0.0
 40
0.0
 40
0.0
 40
0.0
 40
1.0
 40
1.0
 40
1.0
 40
2.0
 40
2.0
 40
2.0
 40
3.0
 40
3.0
 40
3.0
 40
4.0
 40
4.0
 40
4.0
 40
5.0
 40
5.0
 40
5.0
 40
6.0
 40
6.0
 40
6.0
 40
7.0
 40
7.0
 40
7.0
 40
8.0
 40
8.0
 40
8.0
 40
8.0
 10
190.6000061035156
 20
241.7000122070312
 10
190.6000061035156
 20
241.7000122070312
 10
190.6000061035156
 20
239.7000122070312
 10
190.6000061035156
 20
239.7000122070312
 10
190.6000061035156
 20
239.7000122070312
 10
190.6000061035156
 20
241.7000122070312
 10
190.6000061035156
 20
241.7000122070312
 10
190.6000061035156
 20
241.7000122070312
 10
190.6000061035156
 20
241.7000122070312
 10
190.6000061035156
 20
241.7000122070312
 10
177.3000030517578
 20
241.7000122070312
 10
166.5
 20
230.9000091552734
 10
166.5
 20
217.6000137329102
 10
166.5
 20
204.3000183105469
 10
177.3000030517578
 20
193.5000152587891
 10
190.6000061035156
 20
193.5000152587891
 10
203.9000091552734
 20
193.5000152587891
 10
214.7000122070312
 20
204.3000183105469
 10
214.7000122070312
 20
217.6000137329102
 10
214.8000030517578
 20
230.9000091552734
 10
203.8999938964844
 20
241.7000122070312
 10
190.6000061035156
 20
241.7000122070312
 10
190.6000061035156
 20
241.7000122070312
 10
190.6000061035156
 20
241.7000122070312
 10
190.6000061035156
 20
241.7000122070312
 97
        0
 97
        0
 92
        1
 93
        2
 72
     4
 94
        3
 73
     0
 74
     0
 95
       17
 96
       13
 40
0.0
 40
0.0
 40
0.0
 40
0.0
 40
1.0
 40
1.0
 40
1.0
 40
2.0
 40
2.0
 40
2.0
 40
3.0
 40
3.0
 40
3.0
 40
4.0
 40
4.0
 40
4.0
 40
4.0
 10
190.6000061035156
 20
239.7000122070312
 10
202.8000030517578
 20
239.7000122070312
 10
212.7000122070312
 20
229.8000106811523
 10
212.7000122070312
 20
217.6000137329102
 10
212.7000122070312
 20
205.4000091552734
 10
202.8000183105469
 20
195.5000152587891
 10
190.6000061035156
 20
195.5000152587891
 10
178.3999938964844
 20
195.5000152587891
 10
168.5
 20
205.4000091552734
 10
168.5
 20
217.6000137329102
 10
168.5
 20
229.8000183105469
 10
178.3999938964844
 20
239.7000122070312
 10
190.6000061035156
 20
239.7000122070312
 97
        0
 72
     1
 10
190.6000061035156
 20
239.7000122070312
 11
190.6000061035156
 21
239.7000122070312
 97
        0
 75
     2
 76
     1
 98
        0
  0
ENDBLK
  5
67
330
64
100
AcDbEntity
  8
0
100
AcDbBlockEnd
  0
BLOCK
  5
70
330
6E
100
AcDbEntity
  8
0
100
AcDbBlockBegin
  2
block 7
 70
     0
 10
0.0
 20
0.0
 30
0.0
  3
block 7
  1

  0
INSERT
  5
73
330
6E
100
AcDbEntity
  8
Layer 1
100
AcDbBlockReference
  2
block 8
 10
0.0
 20
0.0
 30
0.0
  0
INSERT
  5
7B
330
6E
100
AcDbEntity
  8
Layer 1
100
AcDbBlockReference
  2
block 9
 10
0.0
 20
0.0
 30
0.0
  0
INSERT
  5
83
330
6E
100
AcDbEntity
  8
Layer 1
100
AcDbBlockReference
  2
block 10
 10
0.0
 20
0.0
 30
0.0
  0
ENDBLK
  5
71
330
6E
100
AcDbEntity
  8
0
100
AcDbBlockEnd
  0
BLOCK
  5
74
330
72
100
AcDbEntity
  8
0
100
AcDbBlockBegin
  2
block 8
 70
     0
 10
0.0
 20
0.0
 30
0.0
  3
block 8
  1

  0
POLYLINE
  5
76
330
72
100
AcDbEntity
  8
Layer 1
 62
    11
420
 15821676
370
   158
100
AcDb2dPolyline
 66
     1
 10
0.0
 20
0.0
 30
0.0
  0
VERTEX
  5
77
330
76
100
AcDbEntity
  8
Layer 1
 62
    11
420
 15821676
370
   158
100
AcDbVertex
100
AcDb2dVertex
 10
89.30000305175781
 20
172.4000091552734
 30
0.0
  0
VERTEX
  5
78
330
76
100
AcDbEntity
  8
Layer 1
 62
    11
420
 15821676
370
   158
100
AcDbVertex
100
AcDb2dVertex
 10
77.70000076293945
 20
172.4000091552734
 30
0.0
  0
SEQEND
  5
79
330
76
100
AcDbEntity
  8
Layer 1
 62
    11
420
 15821676
370
   158
  0
ENDBLK
  5
75
330
72
100
AcDbEntity
  8
0
100
AcDbBlockEnd
  0
BLOCK
  5
7C
330
7A
100
AcDbEntity
  8
0
100
AcDbBlockBegin
  2
block 9
 70
     0
 10
0.0
 20
0.0
 30
0.0
  3
block 9
  1

  0
POLYLINE
  5
7E
330
7A
100
AcDbEntity
  8
Layer 1
 62
    11
420
 15821676
370
   158
100
AcDb2dPolyline
 66
     1
 10
0.0
 20
0.0
 30
0.0
  0
VERTEX
  5
7F
330
7E
100
AcDbEntity
  8
Layer 1
 62
    11
420
 15821676
370
   158
100
AcDbVertex
100
AcDb2dVertex
 10
89.30000305175781
 20
181.1000061035156
 30
0.0
  0
VERTEX
  5
80
330
7E
100
AcDbEntity
  8
Layer 1
 62
    11
420
 15821676
370
   158
100
AcDbVertex
100
AcDb2dVertex
 10
77.70000076293945
 20
181.1000061035156
 30
0.0
  0
SEQEND
  5
81
330
7E
100
AcDbEntity
  8
Layer 1
 62
    11
420
 15821676
370
   158
  0
ENDBLK
  5
7D
330
7A
100
AcDbEntity
  8
0
100
AcDbBlockEnd
  0
BLOCK
  5
84
330
82
100
AcDbEntity
  8
0
100
AcDbBlockBegin
  2
block 10
 70
     0
 10
0.0
 20
0.0
 30
0.0
  3
block 10
  1

  0
POLYLINE
  5
86
330
82
100
AcDbEntity
  8
Layer 1
 62
    11
420
 15821676
370
   158
100
AcDb2dPolyline
 66
     1
 10
0.0
 20
0.0
 30
0.0
  0
VERTEX
  5
87
330
86
100
AcDbEntity
  8
Layer 1
 62
    11
420
 15821676
370
   158
100
AcDbVertex
100
AcDb2dVertex
 10
89.30000305175781
 20
189.8000183105469
 30
0.0
  0
VERTEX
  5
88
330
86
100
AcDbEntity
  8
Layer 1
 62
    11
420
 15821676
370
   158
100
AcDbVertex
100
AcDb2dVertex
 10
77.70000076293945
 20
189.8000183105469
 30
0.0
  0
SEQEND
  5
89
330
86
100
AcDbEntity
  8
Layer 1
 62
    11
420
 15821676
370
   158
  0
ENDBLK
  5
85
330
82
100
AcDbEntity
  8
0
100
AcDbBlockEnd
  0
BLOCK
  5
8C
330
8A
100
AcDbEntity
  8
0
100
AcDbBlockBegin
  2
block 11
 70
     0
 10
0.0
 20
0.0
 30
0.0
  3
block 11
  1

  0
INSERT
  5
8F
330
8A
100
AcDbEntity
  8
Layer 1
100
AcDbBlockReference
  2
block 12
 10
0.0
 20
0.0
 30
0.0
  0
INSERT
  5
97
330
8A
100
AcDbEntity
  8
Layer 1
100
AcDbBlockReference
  2
block 13
 10
0.0
 20
0.0
 30
0.0
  0
INSERT
  5
9F
330
8A
100
AcDbEntity
  8
Layer 1
100
AcDbBlockReference
  2
block 14
 10
0.0
 20
0.0
 30
0.0
  0
ENDBLK
  5
8D
330
8A
100
AcDbEntity
  8
0
100
AcDbBlockEnd
  0
BLOCK
  5
90
330
8E
100
AcDbEntity
  8
0
100
AcDbBlockBegin
  2
block 12
 70
     0
 10
0.0
 20
0.0
 30
0.0
  3
block 12
  1

  0
POLYLINE
  5
92
330
8E
100
AcDbEntity
  8
Layer 1
 62
    11
420
 15821676
370
   158
100
AcDb2dPolyline
 66
     1
 10
0.0
 20
0.0
 30
0.0
  0
VERTEX
  5
93
330
92
100
AcDbEntity
  8
Layer 1
 62
    11
420
 15821676
370
   158
100
AcDbVertex
100
AcDb2dVertex
 10
214.8000030517578
 20
172.4000091552734
 30
0.0
  0
VERTEX
  5
94
330
92
100
AcDbEntity
  8
Layer 1
 62
    11
420
 15821676
370
   158
100
AcDbVertex
100
AcDb2dVertex
 10
203.1999969482422
 20
172.4000091552734
 30
0.0
  0
SEQEND
  5
95
330
92
100
AcDbEntity
  8
Layer 1
 62
    11
420
 15821676
370
   158
  0
ENDBLK
  5
91
330
8E
100
AcDbEntity
  8
0
100
AcDbBlockEnd
  0
BLOCK
  5
98
330
96
100
AcDbEntity
  8
0
100
AcDbBlockBegin
  2
block 13
 70
     0
 10
0.0
 20
0.0
 30
0.0
  3
block 13
  1

  0
POLYLINE
  5
9A
330
96
100
AcDbEntity
  8
Layer 1
 62
    11
420
 15821676
370
   158
100
AcDb2dPolyline
 66
     1
 10
0.0
 20
0.0
 30
0.0
  0
VERTEX
  5
9B
330
9A
100
AcDbEntity
  8
Layer 1
 62
    11
420
 15821676
370
   158
100
AcDbVertex
100
AcDb2dVertex
 10
214.8000030517578
 20
181.1000061035156
 30
0.0
  0
VERTEX
  5
9C
330
9A
100
AcDbEntity
  8
Layer 1
 62
    11
420
 15821676
370
   158
100
AcDbVertex
100
AcDb2dVertex
 10
203.1999969482422
 20
181.1000061035156
 30
0.0
  0
SEQEND
  5
9D
330
9A
100
AcDbEntity
  8
Layer 1
 62
    11
420
 15821676
370
   158
  0
ENDBLK
  5
99
330
96
100
AcDbEntity
  8
0
100
AcDbBlockEnd
  0
BLOCK
  5
A0
330
9E
100
AcDbEntity
  8
0
100
AcDbBlockBegin
  2
block 14
 70
     0
 10
0.0
 20
0.0
 30
0.0
  3
block 14
  1

  0
POLYLINE
  5
A2
330
9E
100
AcDbEntity
  8
Layer 1
 62
    11
420
 15821676
370
   158
100
AcDb2dPolyline
 66
     1
 10
0.0
 20
0.0
 30
0.0
  0
VERTEX
  5
A3
330
A2
100
AcDbEntity
  8
Layer 1
 62
    11
420
 15821676
370
   158
100
AcDbVertex
100
AcDb2dVertex
 10
214.8000030517578
 20
189.9000091552734
 30
0.0
  0
VERTEX
  5
A4
330
A2
100
AcDbEntity
  8
Layer 1
 62
    11
420
 15821676
370
   158
100
AcDbVertex
100
AcDb2dVertex
 10
203.1999969482422
 20
189.9000091552734
 30
0.0
  0
SEQEND
  5
A5
330
A2
100
AcDbEntity
  8
Layer 1
 62
    11
420
 15821676
370
   158
  0
ENDBLK
  5
A1
330
9E
100
AcDbEntity
  8
0
100
AcDbBlockEnd
  0
BLOCK
  5
B0
330
AE
100
AcDbEntity
  8
0
100
AcDbBlockBegin
  2
block 15
 70
     0
 10
0.0
 20
0.0
 30
0.0
  3
block 15
  1

  0
SPLINE
  5
B2
330
AE
100
AcDbEntity
  8
Layer 1
370
     0
100
AcDbSpline
210
0.0
220
0.0
230
1.0
 70
    11
 71
     3
 72
    29
 73
    25
 74
     0
 42
0.0000000001
 43
0.0000000001
 12
1.0
 22
0.0
 32
0.0
 13
1.0
 23
0.0
 33
0.0
 40
0.0
 40
0.0
 40
0.0
 40
0.0
 40
1.0
 40
1.0
 40
1.0
 40
2.0
 40
2.0
 40
2.0
 40
3.0
 40
3.0
 40
3.0
 40
4.0
 40
4.0
 40
4.0
 40
5.0
 40
5.0
 40
5.0
 40
6.0
 40
6.0
 40
6.0
 40
7.0
 40
7.0
 40
7.0
 40
8.0
 40
8.0
 40
8.0
 40
8.0
 10
153.5
 20
1.20001220703125
 30
0.0
 10
153.5
 20
1.20001220703125
 30
0.0
 10
135.6999969482422
 20
1.20001220703125
 30
0.0
 10
135.6999969482422
 20
1.20001220703125
 30
0.0
 10
118.5999984741211
 20
1.20001220703125
 30
0.0
 10
104.7999954223633
 20
15.10000610351562
 30
0.0
 10
104.7999954223633
 20
32.10000610351562
 30
0.0
 10
104.7999954223633
 20
32.10000610351562
 30
0.0
 10
104.7999954223633
 20
70.39999389648438
 30
0.0
 10
104.7999954223633
 20
70.39999389648438
 30
0.0
 10
104.7999954223633
 20
87.5
 30
0.0
 10
118.6999969482422
 20
101.2999877929688
 30
0.0
 10
135.6999969482422
 20
101.2999877929688
 30
0.0
 10
135.6999969482422
 20
101.2999877929688
 30
0.0
 10
153.5
 20
101.2999877929688
 30
0.0
 10
153.5
 20
101.2999877929688
 30
0.0
 10
170.6000061035156
 20
101.2999877929688
 30
0.0
 10
184.3999938964844
 20
87.39999389648438
 30
0.0
 10
184.3999938964844
 20
70.39999389648438
 30
0.0
 10
184.3999938964844
 20
70.39999389648438
 30
0.0
 10
184.3999938964844
 20
32.10000610351562
 30
0.0
 10
184.3999938964844
 20
32.10000610351562
 30
0.0
 10
184.5
 20
15.0
 30
0.0
 10
170.6000061035156
 20
1.20001220703125
 30
0.0
 10
153.5
 20
1.20001220703125
 30
0.0
  0
HATCH
  5
B3
330
AE
100
AcDbEntity
  8
Layer 1
 62
    11
420
 15821676
100
AcDbHatch
 10
0.0
 20
0.0
 30
0.0
210
0.0
220
0.0
230
1.0
  2
SOLID
 70
     1
 71
     0
 91
        1
 92
        1
 93
        1
 72
     4
 94
        3
 73
     0
 74
     1
 95
       29
 96
       25
 40
0.0
 40
0.0
 40
0.0
 40
0.0
 40
1.0
 40
1.0
 40
1.0
 40
2.0
 40
2.0
 40
2.0
 40
3.0
 40
3.0
 40
3.0
 40
4.0
 40
4.0
 40
4.0
 40
5.0
 40
5.0
 40
5.0
 40
6.0
 40
6.0
 40
6.0
 40
7.0
 40
7.0
 40
7.0
 40
8.0
 40
8.0
 40
8.0
 40
8.0
 10
153.5
 20
1.20001220703125
 10
153.5
 20
1.20001220703125
 10
135.6999969482422
 20
1.20001220703125
 10
135.6999969482422
 20
1.20001220703125
 10
118.5999984741211
 20
1.20001220703125
 10
104.7999954223633
 20
15.10000610351562
 10
104.7999954223633
 20
32.10000610351562
 10
104.7999954223633
 20
32.10000610351562
 10
104.7999954223633
 20
70.39999389648438
 10
104.7999954223633
 20
70.39999389648438
 10
104.7999954223633
 20
87.5
 10
118.6999969482422
 20
101.2999877929688
 10
135.6999969482422
 20
101.2999877929688
 10
135.6999969482422
 20
101.2999877929688
 10
153.5
 20
101.2999877929688
 10
153.5
 20
101.2999877929688
 10
170.6000061035156
 20
101.2999877929688
 10
184.3999938964844
 20
87.39999389648438
 10
184.3999938964844
 20
70.39999389648438
 10
184.3999938964844
 20
70.39999389648438
 10
184.3999938964844
 20
32.10000610351562
 10
184.3999938964844
 20
32.10000610351562
 10
184.5
 20
15.0
 10
170.6000061035156
 20
1.20001220703125
 10
153.5
 20
1.20001220703125
 97
        0
 97
        0
 75
     2
 76
     1
 98
        0
  0
SPLINE
  5
B4
330
AE
100
AcDbEntity
  8
Layer 1
370
     0
100
AcDbSpline
210
0.0
220
0.0
230
1.0
 70
    11
 71
     3
 72
    29
 73
    25
 74
     0
 42
0.0000000001
 43
0.0000000001
 12
1.0
 22
0.0
 32
0.0
 13
1.0
 23
0.0
 33
0.0
 40
0.0
 40
0.0
 40
0.0
 40
0.0
 40
1.0
 40
1.0
 40
1.0
 40
2.0
 40
2.0
 40
2.0
 40
3.0
 40
3.0
 40
3.0
 40
4.0
 40
4.0
 40
4.0
 40
5.0
 40
5.0
 40
5.0
 40
6.0
 40
6.0
 40
6.0
 40
7.0
 40
7.0
 40
7.0
 40
8.0
 40
8.0
 40
8.0
 40
8.0
 10
152.8000030517578
 20
10.10000610351562
 30
0.0
 10
152.8000030517578
 20
10.10000610351562
 30
0.0
 10
136.6000061035156
 20
10.10000610351562
 30
0.0
 10
136.6000061035156
 20
10.10000610351562
 30
0.0
 10
121.0000076293945
 20
10.10000610351562
 30
0.0
 10
108.4000091552734
 20
22.70001220703125
 30
0.0
 10
108.4000091552734
 20
38.30001831054688
 30
0.0
 10
108.4000091552734
 20
38.30001831054688
 30
0.0
 10
108.4000091552734
 20
73.20001220703125
 30
0.0
 10
108.4000091552734
 20
73.20001220703125
 30
0.0
 10
108.4000091552734
 20
88.80001831054688
 30
0.0
 10
121.0000076293945
 20
101.4000091552734
 30
0.0
 10
136.6000061035156
 20
101.4000091552734
 30
0.0
 10
136.6000061035156
 20
101.4000091552734
 30
0.0
 10
152.8000030517578
 20
101.4000091552734
 30
0.0
 10
152.8000030517578
 20
101.4000091552734
 30
0.0
 10
168.4000091552734
 20
101.4000091552734
 30
0.0
 10
181.0
 20
88.80000305175781
 30
0.0
 10
181.0
 20
73.20001220703125
 30
0.0
 10
181.0
 20
73.20001220703125
 30
0.0
 10
181.0
 20
38.30001831054688
 30
0.0
 10
181.0
 20
38.30001831054688
 30
0.0
 10
180.8999938964844
 20
22.70001220703125
 30
0.0
 10
168.3000030517578
 20
10.10000610351562
 30
0.0
 10
152.8000030517578
 20
10.10000610351562
 30
0.0
  0
HATCH
  5
B5
330
AE
100
AcDbEntity
  8
Layer 1
 62
    40
420
 16763904
100
AcDbHatch
 10
0.0
 20
0.0
 30
0.0
210
0.0
220
0.0
230
1.0
  2
SOLID
 70
     1
 71
     0
 91
        1
 92
        1
 93
        1
 72
     4
 94
        3
 73
     0
 74
     1
 95
       29
 96
       25
 40
0.0
 40
0.0
 40
0.0
 40
0.0
 40
1.0
 40
1.0
 40
1.0
 40
2.0
 40
2.0
 40
2.0
 40
3.0
 40
3.0
 40
3.0
 40
4.0
 40
4.0
 40
4.0
 40
5.0
 40
5.0
 40
5.0
 40
6.0
 40
6.0
 40
6.0
 40
7.0
 40
7.0
 40
7.0
 40
8.0
 40
8.0
 40
8.0
 40
8.0
 10
152.8000030517578
 20
10.10000610351562
 10
152.8000030517578
 20
10.10000610351562
 10
136.6000061035156
 20
10.10000610351562
 10
136.6000061035156
 20
10.10000610351562
 10
121.0000076293945
 20
10.10000610351562
 10
108.4000091552734
 20
22.70001220703125
 10
108.4000091552734
 20
38.30001831054688
 10
108.4000091552734
 20
38.30001831054688
 10
108.4000091552734
 20
73.20001220703125
 10
108.4000091552734
 20
73.20001220703125
 10
108.4000091552734
 20
88.80001831054688
 10
121.0000076293945
 20
101.4000091552734
 10
136.6000061035156
 20
101.4000091552734
 10
136.6000061035156
 20
101.4000091552734
 10
152.8000030517578
 20
101.4000091552734
 10
152.8000030517578
 20
101.4000091552734
 10
168.4000091552734
 20
101.4000091552734
 10
181.0
 20
88.80000305175781
 10
181.0
 20
73.20001220703125
 10
181.0
 20
73.20001220703125
 10
181.0
 20
38.30001831054688
 10
181.0
 20
38.30001831054688
 10
180.8999938964844
 20
22.70001220703125
 10
168.3000030517578
 20
10.10000610351562
 10
152.8000030517578
 20
10.10000610351562
 97
        0
 97
        0
 75
     2
 76
     1
 98
        0
  0
ENDBLK
  5
B1
330
AE
100
AcDbEntity
  8
0
100
AcDbBlockEnd
  0
BLOCK
  5
BA
330
B8
100
AcDbEntity
  8
0
100
AcDbBlockBegin
  2
block 16
 70
     0
 10
0.0
 20
0.0
 30
0.0
  3
block 16
  1

  0
SPLINE
  5
BC
330
B8
100
AcDbEntity
  8
Layer 1
370
     0
100
AcDbSpline
210
0.0
220
0.0
230
1.0
 70
    11
 71
     3
 72
    17
 73
    13
 74
     0
 42
0.0000000001
 43
0.0000000001
 12
1.0
 22
0.0
 32
0.0
 13
1.0
 23
0.0
 33
0.0
 40
0.0
 40
0.0
 40
0.0
 40
0.0
 40
1.0
 40
1.0
 40
1.0
 40
2.0
 40
2.0
 40
2.0
 40
3.0
 40
3.0
 40
3.0
 40
4.0
 40
4.0
 40
4.0
 40
4.0
 10
118.1078675880808
 20
76.78020757331979
 30
0.0
 10
122.9112727210486
 20
81.58361270628666
 30
0.0
 10
130.6991261351322
 20
81.58361270628666
 30
0.0
 10
135.5025204786107
 20
76.78021836280823
 30
0.0
 10
140.3059148220891
 20
71.9768240193298
 30
0.0
 10
140.3059148220891
 20
64.18897060524614
 30
0.0
 10
135.5025096891213
 20
59.38556547227927
 30
0.0
 10
130.6991045561535
 20
54.58216033931058
 30
0.0
 10
122.9112511420699
 20
54.58216033931058
 30
0.0
 10
118.1078567985915
 20
59.38555468278901
 30
0.0
 10
113.304462455113
 20
64.18894902626744
 30
0.0
 10
113.304462455113
 20
71.9768024403511
 30
0.0
 10
118.1078675880808
 20
76.78020757331979
 30
0.0
  0
INSERT
  5
BE
330
B8
100
AcDbEntity
  8
Layer 1
100
AcDbBlockReference
  2
block 17
 10
0.0
 20
0.0
 30
0.0
  0
SPLINE
  5
C3
330
B8
100
AcDbEntity
  8
Layer 1
370
     0
100
AcDbSpline
210
0.0
220
0.0
230
1.0
 70
    11
 71
     3
 72
    29
 73
    25
 74
     0
 42
0.0000000001
 43
0.0000000001
 12
1.0
 22
0.0
 32
0.0
 13
1.0
 23
0.0
 33
0.0
 40
0.0
 40
0.0
 40
0.0
 40
0.0
 40
1.0
 40
1.0
 40
1.0
 40
2.0
 40
2.0
 40
2.0
 40
3.0
 40
3.0
 40
3.0
 40
4.0
 40
4.0
 40
4.0
 40
5.0
 40
5.0
 40
5.0
 40
6.0
 40
6.0
 40
6.0
 40
7.0
 40
7.0
 40
7.0
 40
8.0
 40
8.0
 40
8.0
 40
8.0
 10
91.5999984741211
 20
69.10000610351562
 30
0.0
 10
91.5999984741211
 20
69.10000610351562
 30
0.0
 10
69.89999771118164
 20
90.80000305175781
 30
0.0
 10
69.89999771118164
 20
90.80000305175781
 30
0.0
 10
60.39999771118164
 20
100.3000030517578
 30
0.0
 10
60.39999771118164
 20
115.6000061035156
 30
0.0
 10
69.89999771118164
 20
125.1000061035156
 30
0.0
 10
69.89999771118164
 20
125.1000061035156
 30
0.0
 10
69.89999771118164
 20
125.1000061035156
 30
0.0
 10
69.89999771118164
 20
125.1000061035156
 30
0.0
 10
79.39999771118164
 20
134.6000061035156
 30
0.0
 10
94.69999694824219
 20
134.6000061035156
 30
0.0
 10
104.1999969482422
 20
125.1000061035156
 30
0.0
 10
104.1999969482422
 20
125.1000061035156
 30
0.0
 10
125.8999938964844
 20
103.4000091552734
 30
0.0
 10
125.8999938964844
 20
103.4000091552734
 30
0.0
 10
135.3999938964844
 20
93.90000915527344
 30
0.0
 10
135.3999938964844
 20
78.60000610351562
 30
0.0
 10
125.8999938964844
 20
69.10000610351562
 30
0.0
 10
125.8999938964844
 20
69.10000610351562
 30
0.0
 10
125.8999938964844
 20
69.10000610351562
 30
0.0
 10
125.8999938964844
 20
69.10000610351562
 30
0.0
 10
116.4000015258789
 20
59.60000610351562
 30
0.0
 10
101.0999984741211
 20
59.60000610351562
 30
0.0
 10
91.5999984741211
 20
69.10000610351562
 30
0.0
  0
ENDBLK
  5
BB
330
B8
100
AcDbEntity
  8
0
100
AcDbBlockEnd
  0
BLOCK
  5
BF
330
BD
100
AcDbEntity
  8
0
100
AcDbBlockBegin
  2
block 17
 70
     0
 10
0.0
 20
0.0
 30
0.0
  3
block 17
  1

  0
SPLINE
  5
C1
330
BD
100
AcDbEntity
  8
Layer 1
370
     0
100
AcDbSpline
210
0.0
220
0.0
230
1.0
 70
    11
 71
     3
 72
    17
 73
    13
 74
     0
 42
0.0000000001
 43
0.0000000001
 12
1.0
 22
0.0
 32
0.0
 13
1.0
 23
0.0
 33
0.0
 40
0.0
 40
0.0
 40
0.0
 40
0.0
 40
1.0
 40
1.0
 40
1.0
 40
2.0
 40
2.0
 40
2.0
 40
3.0
 40
3.0
 40
3.0
 40
4.0
 40
4.0
 40
4.0
 40
4.0
 10
99.18644299685366
 20
69.19735681853308
 30
0.0
 10
103.9898481298223
 20
74.00076195150177
 30
0.0
 10
111.777701543906
 20
74.00076195150177
 30
0.0
 10
116.5810958873844
 20
69.19736760802334
 30
0.0
 10
121.3844902308629
 20
64.39397326454491
 30
0.0
 10
121.3844902308629
 20
56.60611985046125
 30
0.0
 10
116.5810850978942
 20
51.80271471749256
 30
0.0
 10
111.7776799649273
 20
46.99930958452569
 30
0.0
 10
103.9898265508436
 20
46.99930958452569
 30
0.0
 10
99.18643220736521
 20
51.80270392800412
 30
0.0
 10
94.38303786388678
 20
56.60609827148255
 30
0.0
 10
94.38303786388678
 20
64.39395168556621
 30
0.0
 10
99.18644299685366
 20
69.19735681853308
 30
0.0
  0
SPLINE
  5
C2
330
BD
100
AcDbEntity
  8
Layer 1
370
     0
100
AcDbSpline
210
0.0
220
0.0
230
1.0
 70
    11
 71
     3
 72
    17
 73
    13
 74
     0
 42
0.0000000001
 43
0.0000000001
 12
1.0
 22
0.0
 32
0.0
 13
1.0
 23
0.0
 33
0.0
 40
0.0
 40
0.0
 40
0.0
 40
0.0
 40
1.0
 40
1.0
 40
1.0
 40
2.0
 40
2.0
 40
2.0
 40
3.0
 40
3.0
 40
3.0
 40
4.0
 40
4.0
 40
4.0
 40
4.0
 10
125.7351122137734
 20
95.67686611466343
 30
0.0
 10
130.5385173467421
 20
100.4802712476321
 30
0.0
 10
138.3263707608257
 20
100.4802712476321
 30
0.0
 10
143.1297758937926
 20
95.67686611466343
 30
0.0
 10
147.9331810267613
 20
90.87346098169655
 30
0.0
 10
147.9331810267613
 20
83.0856075676129
 30
0.0
 10
143.1297758937926
 20
78.2822024346442
 30
0.0
 10
138.3263707608257
 20
73.47879730167733
 30
0.0
 10
130.5385173467421
 20
73.47879730167733
 30
0.0
 10
125.7351122137734
 20
78.2822024346442
 30
0.0
 10
120.9317070808065
 20
83.0856075676129
 30
0.0
 10
120.9317070808065
 20
90.87346098169655
 30
0.0
 10
125.7351122137734
 20
95.67686611466343
 30
0.0
  0
ENDBLK
  5
C0
330
BD
100
AcDbEntity
  8
0
100
AcDbBlockEnd
  0
BLOCK
  5
C6
330
C4
100
AcDbEntity
  8
0
100
AcDbBlockBegin
  2
block 18
 70
     0
 10
0.0
 20
0.0
 30
0.0
  3
block 18
  1

  0
INSERT
  5
C9
330
C4
100
AcDbEntity
  8
Layer 1
100
AcDbBlockReference
  2
block 19
 10
0.0
 20
0.0
 30
0.0
  0
INSERT
  5
D1
330
C4
100
AcDbEntity
  8
Layer 1
100
AcDbBlockReference
  2
block 20
 10
0.0
 20
0.0
 30
0.0
  0
INSERT
  5
D9
330
C4
100
AcDbEntity
  8
Layer 1
100
AcDbBlockReference
  2
block 21
 10
0.0
 20
0.0
 30
0.0
  0
ENDBLK
  5
C7
330
C4
100
AcDbEntity
  8
0
100
AcDbBlockEnd
  0
BLOCK
  5
CA
330
C8
100
AcDbEntity
  8
0
100
AcDbBlockBegin
  2
block 19
 70
     0
 10
0.0
 20
0.0
 30
0.0
  3
block 19
  1

  0
POLYLINE
  5
CC
330
C8
100
AcDbEntity
  8
Layer 1
 62
    11
420
 15821676
370
   158
100
AcDb2dPolyline
 66
     1
 10
0.0
 20
0.0
 30
0.0
  0
VERTEX
  5
CD
330
CC
100
AcDbEntity
  8
Layer 1
 62
    11
420
 15821676
370
   158
100
AcDbVertex
100
AcDb2dVertex
 10
105.3000030517578
 20
14.5
 30
0.0
  0
VERTEX
  5
CE
330
CC
100
AcDbEntity
  8
Layer 1
 62
    11
420
 15821676
370
   158
100
AcDbVertex
100
AcDb2dVertex
 10
105.3000030517578
 20
6.9000244140625
 30
0.0
  0
SEQEND
  5
CF
330
CC
100
AcDbEntity
  8
Layer 1
 62
    11
420
 15821676
370
   158
  0
ENDBLK
  5
CB
330
C8
100
AcDbEntity
  8
0
100
AcDbBlockEnd
  0
BLOCK
  5
D2
330
D0
100
AcDbEntity
  8
0
100
AcDbBlockBegin
  2
block 20
 70
     0
 10
0.0
 20
0.0
 30
0.0
  3
block 20
  1

  0
POLYLINE
  5
D4
330
D0
100
AcDbEntity
  8
Layer 1
 62
    11
420
 15821676
370
   158
100
AcDb2dPolyline
 66
     1
 10
0.0
 20
0.0
 30
0.0
  0
VERTEX
  5
D5
330
D4
100
AcDbEntity
  8
Layer 1
 62
    11
420
 15821676
370
   158
100
AcDbVertex
100
AcDb2dVertex
 10
90.30000305175781
 20
14.5
 30
0.0
  0
VERTEX
  5
D6
330
D4
100
AcDbEntity
  8
Layer 1
 62
    11
420
 15821676
370
   158
100
AcDbVertex
100
AcDb2dVertex
 10
90.30000305175781
 20
6.9000244140625
 30
0.0
  0
SEQEND
  5
D7
330
D4
100
AcDbEntity
  8
Layer 1
 62
    11
420
 15821676
370
   158
  0
ENDBLK
  5
D3
330
D0
100
AcDbEntity
  8
0
100
AcDbBlockEnd
  0
BLOCK
  5
DA
330
D8
100
AcDbEntity
  8
0
100
AcDbBlockBegin
  2
block 21
 70
     0
 10
0.0
 20
0.0
 30
0.0
  3
block 21
  1

  0
POLYLINE
  5
DC
330
D8
100
AcDbEntity
  8
Layer 1
 62
    11
420
 15821676
370
   158
100
AcDb2dPolyline
 66
     1
 10
0.0
 20
0.0
 30
0.0
  0
VERTEX
  5
DD
330
DC
100
AcDbEntity
  8
Layer 1
 62
    11
420
 15821676
370
   158
100
AcDbVertex
100
AcDb2dVertex
 10
75.29999923706055
 20
14.5
 30
0.0
  0
VERTEX
  5
DE
330
DC
100
AcDbEntity
  8
Layer 1
 62
    11
420
 15821676
370
   158
100
AcDbVertex
100
AcDb2dVertex
 10
75.29999923706055
 20
6.9000244140625
 30
0.0
  0
SEQEND
  5
DF
330
DC
100
AcDbEntity
  8
Layer 1
 62
    11
420
 15821676
370
   158
  0
ENDBLK
  5
DB
330
D8
100
AcDbEntity
  8
0
100
AcDbBlockEnd
  0
BLOCK
  5
E2
330
E0
100
AcDbEntity
  8
0
100
AcDbBlockBegin
  2
block 22
 70
     0
 10
0.0
 20
0.0
 30
0.0
  3
block 22
  1

  0
INSERT
  5
E5
330
E0
100
AcDbEntity
  8
Layer 1
100
AcDbBlockReference
  2
block 23
 10
0.0
 20
0.0
 30
0.0
  0
INSERT
  5
ED
330
E0
100
AcDbEntity
  8
Layer 1
100
AcDbBlockReference
  2
block 24
 10
0.0
 20
0.0
 30
0.0
  0
INSERT
  5
F5
330
E0
100
AcDbEntity
  8
Layer 1
100
AcDbBlockReference
  2
block 25
 10
0.0
 20
0.0
 30
0.0
  0
ENDBLK
  5
E3
330
E0
100
AcDbEntity
  8
0
100
AcDbBlockEnd
  0
BLOCK
  5
E6
330
E4
100
AcDbEntity
  8
0
100
AcDbBlockBegin
  2
block 23
 70
     0
 10
0.0
 20
0.0
 30
0.0
  3
block 23
  1

  0
POLYLINE
  5
E8
330
E4
100
AcDbEntity
  8
Layer 1
 62
    11
420
 15821676
370
   158
100
AcDb2dPolyline
 66
     1
 10
0.0
 20
0.0
 30
0.0
  0
VERTEX
  5
E9
330
E8
100
AcDbEntity
  8
Layer 1
 62
    11
420
 15821676
370
   158
100
AcDbVertex
100
AcDb2dVertex
 10
215.3000030517578
 20
14.5
 30
0.0
  0
VERTEX
  5
EA
330
E8
100
AcDbEntity
  8
Layer 1
 62
    11
420
 15821676
370
   158
100
AcDbVertex
100
AcDb2dVertex
 10
215.3000030517578
 20
6.9000244140625
 30
0.0
  0
SEQEND
  5
EB
330
E8
100
AcDbEntity
  8
Layer 1
 62
    11
420
 15821676
370
   158
  0
ENDBLK
  5
E7
330
E4
100
AcDbEntity
  8
0
100
AcDbBlockEnd
  0
BLOCK
  5
EE
330
EC
100
AcDbEntity
  8
0
100
AcDbBlockBegin
  2
block 24
 70
     0
 10
0.0
 20
0.0
 30
0.0
  3
block 24
  1

  0
POLYLINE
  5
F0
330
EC
100
AcDbEntity
  8
Layer 1
 62
    11
420
 15821676
370
   158
100
AcDb2dPolyline
 66
     1
 10
0.0
 20
0.0
 30
0.0
  0
VERTEX
  5
F1
330
F0
100
AcDbEntity
  8
Layer 1
 62
    11
420
 15821676
370
   158
100
AcDbVertex
100
AcDb2dVertex
 10
200.3000030517578
 20
14.5
 30
0.0
  0
VERTEX
  5
F2
330
F0
100
AcDbEntity
  8
Layer 1
 62
    11
420
 15821676
370
   158
100
AcDbVertex
100
AcDb2dVertex
 10
200.3000030517578
 20
6.9000244140625
 30
0.0
  0
SEQEND
  5
F3
330
F0
100
AcDbEntity
  8
Layer 1
 62
    11
420
 15821676
370
   158
  0
ENDBLK
  5
EF
330
EC
100
AcDbEntity
  8
0
100
AcDbBlockEnd
  0
BLOCK
  5
F6
330
F4
100
AcDbEntity
  8
0
100
AcDbBlockBegin
  2
block 25
 70
     0
 10
0.0
 20
0.0
 30
0.0
  3
block 25
  1

  0
POLYLINE
  5
F8
330
F4
100
AcDbEntity
  8
Layer 1
 62
    11
420
 15821676
370
   158
100
AcDb2dPolyline
 66
     1
 10
0.0
 20
0.0
 30
0.0
  0
VERTEX
  5
F9
330
F8
100
AcDbEntity
  8
Layer 1
 62
    11
420
 15821676
370
   158
100
AcDbVertex
100
AcDb2dVertex
 10
185.3000030517578
 20
14.5
 30
0.0
  0
VERTEX
  5
FA
330
F8
100
AcDbEntity
  8
Layer 1
 62
    11
420
 15821676
370
   158
100
AcDbVertex
100
AcDb2dVertex
 10
185.3000030517578
 20
6.9000244140625
 30
0.0
  0
SEQEND
  5
FB
330
F8
100
AcDbEntity
  8
Layer 1
 62
    11
420
 15821676
370
   158
  0
ENDBLK
  5
F7
330
F4
100
AcDbEntity
  8
0
100
AcDbBlockEnd
  0
ENDSEC
  0
SECTION
  2
ENTITIES
  0
INSERT
  5
42
330
1F
100
AcDbEntity
  8
Layer 1
100
AcDbBlockReference
  2
block 2
 10
0.0
 20
0.0
 30
0.0
  0
POLYLINE
  5
FC
330
1F
100
AcDbEntity
  8
Layer 1
 62
    11
420
 15821676
370
   158
100
AcDb2dPolyline
 66
     1
 10
0.0
 20
0.0
 30
0.0
  0
VERTEX
  5
FD
330
FC
100
AcDbEntity
  8
Layer 1
 62
    11
420
 15821676
370
   158
100
AcDbVertex
100
AcDb2dVertex
 10
83.50000190734863
 20
292.2000122070312
 30
0.0
  0
VERTEX
  5
FF
330
FC
100
AcDbEntity
  8
0
100
AcDbVertex
100
AcDb2dVertex
 10
83.50000190734863
 20
292.2000122070312
 30
0.0
  0
SEQEND
  5
FE
330
FC
100
AcDbEntity
  8
Layer 1
 62
    11
420
 15821676
370
   158
  0
ENDSEC
  0
SECTION
  2
OBJECTS
  0
DICTIONARY
  5
C
330
0
100
AcDbDictionary
281
     1
  3
ACAD_GROUP
350
D
  3
ACAD_LAYOUT
350
1A
  3
ACAD_MATERIAL
350
3B
  3
ACAD_MLEADERSTYLE
350
101
  3
ACAD_MLINESTYLE
350
17
  3
ACAD_PLOTSETTINGS
350
19
  3
ACAD_PLOTSTYLENAME
350
E
  3
ACAD_TABLESTYLE
350
100
  3
ACAD_VISUALSTYLE
350
2A
  0
SUN
  5
3F
330
29
100
AcDbSun
 90
        1
290
     0
 63
     7
421
 16777215
 40
1.0
291
     1
 91
  2455826
 92
 54000000
292
     0
 70
     2
 71
   256
280
     1
  0
DICTIONARY
  5
D
102
{ACAD_REACTORS
330
C
102
}
330
C
100
AcDbDictionary
281
     1
  0
DICTIONARY
  5
1A
102
{ACAD_REACTORS
330
C
102
}
330
C
100
AcDbDictionary
281
     1
  3
Layout1
350
1E
  3
Layout2
350
26
  3
Model
350
22
  0
DICTIONARY
  5
3B
102
{ACAD_REACTORS
330
C
102
}
330
C
100
AcDbDictionary
281
     1
  3
ByBlock
350
3D
  3
ByLayer
350
3C
  3
Global
350
3E
  0
DICTIONARY
  5
101
102
{ACAD_REACTORS
330
C
102
}
330
C
100
AcDbDictionary
281
     1
  0
DICTIONARY
  5
17
102
{ACAD_REACTORS
330
C
102
}
330
C
100
AcDbDictionary
281
     1
  3
Standard
350
18
  0
DICTIONARY
  5
19
102
{ACAD_REACTORS
330
C
102
}
330
C
100
AcDbDictionary
281
     1
  0
ACDBDICTIONARYWDFLT
  5
E
102
{ACAD_REACTORS
330
C
102
}
330
C
100
AcDbDictionary
281
     1
  3
Normal
350
F
100
AcDbDictionaryWithDefault
340
F
  0
DICTIONARY
  5
100
102
{ACAD_REACTORS
330
C
102
}
330
C
100
AcDbDictionary
281
     1
  0
DICTIONARY
  5
2A
102
{ACAD_REACTORS
330
C
102
}
330
C
100
AcDbDictionary
281
     1
  3
2dWireframe
350
2F
  3
3D Hidden
350
31
  3
3dWireframe
350
30
  3
Basic
350
32
  3
Brighten
350
36
  3
ColorChange
350
3A
  3
Conceptual
350
34
  3
Dim
350
35
  3
Facepattern
350
39
  3
Flat
350
2B
  3
FlatWithEdges
350
2C
  3
Gouraud
350
2D
  3
GouraudWithEdges
350
2E
  3
Linepattern
350
38
  3
Realistic
350
33
  3
Thicken
350
37
  0
LAYOUT
  5
1E
102
{ACAD_REACTORS
330
1A
102
}
330
1A
100
AcDbPlotSettings
  1

  2
none_device
  4

  6

 40
0.0
 41
0.0
 42
0.0
 43
0.0
 44
0.0
 45
0.0
 46
0.0
 47
0.0
 48
0.0
 49
0.0
140
0.0
141
0.0
142
1.0
143
1.0
 70
   688
 72
     0
 73
     0
 74
     5
  7

 75
    16
 76
     0
 77
     2
 78
   300
147
1.0
148
0.0
149
0.0
100
AcDbLayout
  1
Layout1
 70
     1
 71
     1
 10
0.0
 20
0.0
 11
12.0
 21
9.0
 12
0.0
 22
0.0
 32
0.0
 14
1.000000000000000E+20
 24
1.000000000000000E+20
 34
1.000000000000000E+20
 15
-1.000000000000000E+20
 25
-1.000000000000000E+20
 35
-1.000000000000000E+20
146
0.0
 13
0.0
 23
0.0
 33
0.0
 16
1.0
 26
0.0
 36
0.0
 17
0.0
 27
1.0
 37
0.0
 76
     0
330
1B
  0
LAYOUT
  5
26
102
{ACAD_REACTORS
330
1A
102
}
330
1A
100
AcDbPlotSettings
  1

  2
none_device
  4

  6

 40
0.0
 41
0.0
 42
0.0
 43
0.0
 44
0.0
 45
0.0
 46
0.0
 47
0.0
 48
0.0
 49
0.0
140
0.0
141
0.0
142
1.0
143
1.0
 70
   688
 72
     0
 73
     0
 74
     5
  7

 75
    16
 76
     0
 77
     2
 78
   300
147
1.0
148
0.0
149
0.0
100
AcDbLayout
  1
Layout2
 70
     1
 71
     2
 10
0.0
 20
0.0
 11
0.0
 21
0.0
 12
0.0
 22
0.0
 32
0.0
 14
0.0
 24
0.0
 34
0.0
 15
0.0
 25
0.0
 35
0.0
146
0.0
 13
0.0
 23
0.0
 33
0.0
 16
1.0
 26
0.0
 36
0.0
 17
0.0
 27
1.0
 37
0.0
 76
     0
330
23
  0
LAYOUT
  5
22
102
{ACAD_REACTORS
330
1A
102
}
330
1A
100
AcDbPlotSettings
  1

  2
none_device
  4

  6

 40
0.0
 41
0.0
 42
0.0
 43
0.0
 44
0.0
 45
0.0
 46
0.0
 47
0.0
 48
0.0
 49
0.0
140
0.0
141
0.0
142
1.0
143
1.0
 70
  1712
 72
     0
 73
     0
 74
     0
  7

 75
     0
 76
     0
 77
     2
 78
   300
147
1.0
148
0.0
149
0.0
100
AcDbLayout
  1
Model
 70
     1
 71
     0
 10
0.0
 20
0.0
 11
12.0
 21
9.0
 12
0.0
 22
0.0
 32
0.0
 14
1.000000000000000E+20
 24
1.000000000000000E+20
 34
1.000000000000000E+20
 15
-1.000000000000000E+20
 25
-1.000000000000000E+20
 35
-1.000000000000000E+20
146
0.0
 13
0.0
 23
0.0
 33
0.0
 16
1.0
 26
0.0
 36
0.0
 17
0.0
 27
1.0
 37
0.0
 76
     0
330
1F
331
29
  0
MATERIAL
  5
3D
102
{ACAD_REACTORS
330
3B
102
}
330
3B
100
AcDbMaterial
  1
ByBlock
 72
     1
 94
      127
  0
MATERIAL
  5
3C
102
{ACAD_REACTORS
330
3B
102
}
330
3B
100
AcDbMaterial
  1
ByLayer
 72
     1
 94
      127
  0
MATERIAL
  5
3E
102
{ACAD_REACTORS
330
3B
102
}
330
3B
100
AcDbMaterial
  1
Global
 72
     1
 94
      127
  0
MLINESTYLE
  5
18
102
{ACAD_REACTORS
330
17
102
}
330
17
100
AcDbMlineStyle
  2
Standard
 70
     0
  3

 62
   256
 51
90.0
 52
90.0
 71
     2
 49
0.5
 62
   256
  6
BYLAYER
 49
-0.5
 62
   256
  6
BYLAYER
  0
ACDBPLACEHOLDER
  5
F
102
{ACAD_REACTORS
330
E
102
}
330
E
  0
VISUALSTYLE
  5
2F
102
{ACAD_REACTORS
330
2A
102
}
330
2A
100
AcDbVisualStyle
  2
2dWireframe
 70
     4
177
     2
291
     0
 71
     0
176
     1
 72
     2
176
     1
 73
     0
176
     1
 90
        0
176
     1
 40
-0.6
176
     1
 41
-30.0
176
     1
 62
     5
 63
     7
421
 16777215
176
     1
 74
     1
176
     1
 91
        4
176
     1
 64
     7
176
     1
 65
   257
176
     1
 75
     1
176
     1
175
     1
176
     1
 42
1.0
176
     1
 92
        0
176
     1
 66
   257
176
     1
 43
1.0
176
     1
 76
     1
176
     1
 77
     6
176
     1
 78
     2
176
     1
 67
     7
176
     1
 79
     5
176
     1
170
     0
176
     1
171
     0
176
     1
290
     0
176
     1
 93
        1
176
     1
 44
0.0
176
     1
173
     0
176
     1
  0
VISUALSTYLE
  5
31
102
{ACAD_REACTORS
330
2A
102
}
330
2A
100
AcDbVisualStyle
  2
3D Hidden
 70
     6
177
     2
291
     0
 71
     1
176
     1
 72
     2
176
     1
 73
     2
176
     1
 90
        0
176
     1
 40
-0.6
176
     1
 41
-30.0
176
     1
 62
     5
 63
     7
421
 16777215
176
     1
 74
     2
176
     1
 91
        2
176
     1
 64
     7
176
     1
 65
   257
176
     1
 75
     2
176
     1
175
     1
176
     1
 42
40.0
176
     1
 92
        0
176
     1
 66
   257
176
     1
 43
1.0
176
     1
 76
     1
176
     1
 77
     6
176
     1
 78
     2
176
     1
 67
     7
176
     1
 79
     3
176
     1
170
     0
176
     1
171
     0
176
     1
290
     0
176
     1
 93
        1
176
     1
 44
0.0
176
     1
173
     0
176
     1
  0
VISUALSTYLE
  5
30
102
{ACAD_REACTORS
330
2A
102
}
330
2A
100
AcDbVisualStyle
  2
3dWireframe
 70
     5
177
     2
291
     0
 71
     0
176
     1
 72
     2
176
     1
 73
     0
176
     1
 90
        0
176
     1
 40
-0.6
176
     1
 41
-30.0
176
     1
 62
     5
 63
     7
421
 16777215
176
     1
 74
     1
176
     1
 91
        4
176
     1
 64
     7
176
     1
 65
   257
176
     1
 75
     1
176
     1
175
     1
176
     1
 42
1.0
176
     1
 92
        0
176
     1
 66
   257
176
     1
 43
1.0
176
     1
 76
     1
176
     1
 77
     6
176
     1
 78
     2
176
     1
 67
     7
176
     1
 79
     5
176
     1
170
     0
176
     1
171
     0
176
     1
290
     0
176
     1
 93
        1
176
     1
 44
0.0
176
     1
173
     0
176
     1
  0
VISUALSTYLE
  5
32
102
{ACAD_REACTORS
330
2A
102
}
330
2A
100
AcDbVisualStyle
  2
Basic
 70
     7
177
     2
291
     1
 71
     1
176
     1
 72
     0
176
     1
 73
     1
176
     1
 90
        0
176
     1
 40
-0.6
176
     1
 41
-30.0
176
     1
 62
     5
 63
     7
421
 16777215
176
     1
 74
     0
176
     1
 91
        4
176
     1
 64
     7
176
     1
 65
   257
176
     1
 75
     1
176
     1
175
     1
176
     1
 42
1.0
176
     1
 92
        8
176
     1
 66
     7
176
     1
 43
1.0
176
     1
 76
     1
176
     1
 77
     6
176
     1
 78
     2
176
     1
 67
     7
176
     1
 79
     5
176
     1
170
     0
176
     1
171
     0
176
     1
290
     0
176
     1
 93
        1
176
     1
 44
0.0
176
     1
173
     0
176
     1
  0
VISUALSTYLE
  5
36
102
{ACAD_REACTORS
330
2A
102
}
330
2A
100
AcDbVisualStyle
  2
Brighten
 70
    12
177
     2
291
     1
 71
     2
176
     1
 72
     2
176
     1
 73
     0
176
     1
 90
        0
176
     1
 40
-0.6
176
     1
 41
-30.0
176
     1
 62
     5
 63
     7
421
 16777215
176
     1
 74
     1
176
     1
 91
        4
176
     1
 64
     7
176
     1
 65
   257
176
     1
 75
     1
176
     1
175
     1
176
     1
 42
1.0
176
     1
 92
        8
176
     1
 66
     7
176
     1
 43
1.0
176
     1
 76
     1
176
     1
 77
     6
176
     1
 78
     2
176
     1
 67
     7
176
     1
 79
     5
176
     1
170
     0
176
     1
171
     0
176
     1
290
     0
176
     1
 93
        1
176
     1
 44
50.0
176
     1
173
     0
176
     1
  0
VISUALSTYLE
  5
3A
102
{ACAD_REACTORS
330
2A
102
}
330
2A
100
AcDbVisualStyle
  2
ColorChange
 70
    16
177
     2
291
     1
 71
     2
176
     1
 72
     2
176
     1
 73
     3
176
     1
 90
        0
176
     1
 40
-0.6
176
     1
 41
-30.0
176
     1
 62
     5
 63
     8
421
  8421504
176
     1
 74
     1
176
     1
 91
        4
176
     1
 64
     7
176
     1
 65
   257
176
     1
 75
     1
176
     1
175
     1
176
     1
 42
1.0
176
     1
 92
        8
176
     1
 66
     8
424
  8421504
176
     1
 43
1.0
176
     1
 76
     1
176
     1
 77
     6
176
     1
 78
     2
176
     1
 67
     7
176
     1
 79
     5
176
     1
170
     0
176
     1
171
     0
176
     1
290
     0
176
     1
 93
        1
176
     1
 44
0.0
176
     1
173
     0
176
     1
  0
VISUALSTYLE
  5
34
102
{ACAD_REACTORS
330
2A
102
}
330
2A
100
AcDbVisualStyle
  2
Conceptual
 70
     9
177
     2
291
     0
 71
     3
176
     1
 72
     2
176
     1
 73
     0
176
     1
 90
        0
176
     1
 40
-0.6
176
     1
 41
-30.0
176
     1
 62
     5
 63
     7
421
 16777215
176
     1
 74
     2
176
     1
 91
        2
176
     1
 64
     7
176
     1
 65
   257
176
     1
 75
     1
176
     1
175
     1
176
     1
 42
40.0
176
     1
 92
        8
176
     1
 66
     7
176
     1
 43
1.0
176
     1
 76
     1
176
     1
 77
     6
176
     1
 78
     2
176
     1
 67
     7
176
     1
 79
     3
176
     1
170
     0
176
     1
171
     0
176
     1
290
     0
176
     1
 93
        1
176
     1
 44
0.0
176
     1
173
     0
176
     1
  0
VISUALSTYLE
  5
35
102
{ACAD_REACTORS
330
2A
102
}
330
2A
100
AcDbVisualStyle
  2
Dim
 70
    11
177
     2
291
     1
 71
     2
176
     1
 72
     2
176
     1
 73
     0
176
     1
 90
        0
176
     1
 40
-0.6
176
     1
 41
-30.0
176
     1
 62
     5
 63
     7
421
 16777215
176
     1
 74
     1
176
     1
 91
        4
176
     1
 64
     7
176
     1
 65
   257
176
     1
 75
     1
176
     1
175
     1
176
     1
 42
1.0
176
     1
 92
        8
176
     1
 66
     7
176
     1
 43
1.0
176
     1
 76
     1
176
     1
 77
     6
176
     1
 78
     2
176
     1
 67
     7
176
     1
 79
     5
176
     1
170
     0
176
     1
171
     0
176
     1
290
     0
176
     1
 93
        1
176
     1
 44
-50.0
176
     1
173
     0
176
     1
  0
VISUALSTYLE
  5
39
102
{ACAD_REACTORS
330
2A
102
}
330
2A
100
AcDbVisualStyle
  2
Facepattern
 70
    15
177
     2
291
     1
 71
     2
176
     1
 72
     2
176
     1
 73
     0
176
     1
 90
        0
176
     1
 40
-0.6
176
     1
 41
-30.0
176
     1
 62
     5
 63
     7
421
 16777215
176
     1
 74
     1
176
     1
 91
        4
176
     1
 64
     7
176
     1
 65
   257
176
     1
 75
     1
176
     1
175
     1
176
     1
 42
1.0
176
     1
 92
        8
176
     1
 66
     7
176
     1
 43
1.0
176
     1
 76
     1
176
     1
 77
     6
176
     1
 78
     2
176
     1
 67
     7
176
     1
 79
     5
176
     1
170
     0
176
     1
171
     0
176
     1
290
     0
176
     1
 93
        1
176
     1
 44
0.0
176
     1
173
     0
176
     1
  0
VISUALSTYLE
  5
2B
102
{ACAD_REACTORS
330
2A
102
}
330
2A
100
AcDbVisualStyle
  2
Flat
 70
     0
177
     2
291
     1
 71
     2
176
     1
 72
     1
176
     1
 73
     1
176
     1
 90
        2
176
     1
 40
-0.6
176
     1
 41
30.0
176
     1
 62
     5
 63
     7
421
 16777215
176
     1
 74
     0
176
     1
 91
        4
176
     1
 64
     7
176
     1
 65
   257
176
     1
 75
     1
176
     1
175
     1
176
     1
 42
1.0
176
     1
 92
        8
176
     1
 66
     7
176
     1
 43
1.0
176
     1
 76
     1
176
     1
 77
     6
176
     1
 78
     2
176
     1
 67
     7
176
     1
 79
     5
176
     1
170
     0
176
     1
171
     0
176
     1
290
     0
176
     1
 93
       13
176
     1
 44
0.0
176
     1
173
     0
176
     1
  0
VISUALSTYLE
  5
2C
102
{ACAD_REACTORS
330
2A
102
}
330
2A
100
AcDbVisualStyle
  2
FlatWithEdges
 70
     1
177
     2
291
     1
 71
     2
176
     1
 72
     1
176
     1
 73
     1
176
     1
 90
        2
176
     1
 40
-0.6
176
     1
 41
30.0
176
     1
 62
     5
 63
     7
421
 16777215
176
     1
 74
     1
176
     1
 91
        4
176
     1
 64
     7
176
     1
 65
   257
176
     1
 75
     1
176
     1
175
     1
176
     1
 42
1.0
176
     1
 92
        0
176
     1
 66
   257
176
     1
 43
1.0
176
     1
 76
     1
176
     1
 77
     6
176
     1
 78
     2
176
     1
 67
     7
176
     1
 79
     5
176
     1
170
     0
176
     1
171
     0
176
     1
290
     0
176
     1
 93
       13
176
     1
 44
0.0
176
     1
173
     0
176
     1
  0
VISUALSTYLE
  5
2D
102
{ACAD_REACTORS
330
2A
102
}
330
2A
100
AcDbVisualStyle
  2
Gouraud
 70
     2
177
     2
291
     1
 71
     2
176
     1
 72
     2
176
     1
 73
     1
176
     1
 90
        2
176
     1
 40
-0.6
176
     1
 41
30.0
176
     1
 62
     5
 63
     7
421
 16777215
176
     1
 74
     0
176
     1
 91
        4
176
     1
 64
     7
176
     1
 65
   257
176
     1
 75
     1
176
     1
175
     1
176
     1
 42
1.0
176
     1
 92
        0
176
     1
 66
     7
176
     1
 43
1.0
176
     1
 76
     1
176
     1
 77
     6
176
     1
 78
     2
176
     1
 67
     7
176
     1
 79
     5
176
     1
170
     0
176
     1
171
     0
176
     1
290
     0
176
     1
 93
       13
176
     1
 44
0.0
176
     1
173
     0
176
     1
  0
VISUALSTYLE
  5
2E
102
{ACAD_REACTORS
330
2A
102
}
330
2A
100
AcDbVisualStyle
  2
GouraudWithEdges
 70
     3
177
     2
291
     1
 71
     2
176
     1
 72
     2
176
     1
 73
     1
176
     1
 90
        2
176
     1
 40
-0.6
176
     1
 41
30.0
176
     1
 62
     5
 63
     7
421
 16777215
176
     1
 74
     1
176
     1
 91
        4
176
     1
 64
     7
176
     1
 65
   257
176
     1
 75
     1
176
     1
175
     1
176
     1
 42
1.0
176
     1
 92
        0
176
     1
 66
   257
176
     1
 43
1.0
176
     1
 76
     1
176
     1
 77
     6
176
     1
 78
     2
176
     1
 67
     7
176
     1
 79
     5
176
     1
170
     0
176
     1
171
     0
176
     1
290
     0
176
     1
 93
       13
176
     1
 44
0.0
176
     1
173
     0
176
     1
  0
VISUALSTYLE
  5
38
102
{ACAD_REACTORS
330
2A
102
}
330
2A
100
AcDbVisualStyle
  2
Linepattern
 70
    14
177
     2
291
     1
 71
     2
176
     1
 72
     2
176
     1
 73
     0
176
     1
 90
        0
176
     1
 40
-0.6
176
     1
 41
-30.0
176
     1
 62
     5
 63
     7
421
 16777215
176
     1
 74
     1
176
     1
 91
        4
176
     1
 64
     7
176
     1
 65
   257
176
     1
 75
     7
176
     1
175
     7
176
     1
 42
1.0
176
     1
 92
        8
176
     1
 66
     7
176
     1
 43
1.0
176
     1
 76
     1
176
     1
 77
     6
176
     1
 78
     2
176
     1
 67
     7
176
     1
 79
     5
176
     1
170
     0
176
     1
171
     0
176
     1
290
     0
176
     1
 93
        1
176
     1
 44
0.0
176
     1
173
     0
176
     1
  0
VISUALSTYLE
  5
33
102
{ACAD_REACTORS
330
2A
102
}
330
2A
100
AcDbVisualStyle
  2
Realistic
 70
     8
177
     2
291
     0
 71
     2
176
     1
 72
     2
176
     1
 73
     0
176
     1
 90
        0
176
     1
 40
-0.6
176
     1
 41
-30.0
176
     1
 62
     5
 63
     7
421
 16777215
176
     1
 74
     1
176
     1
 91
        0
176
     1
 64
     7
176
     1
 65
   257
176
     1
 75
     1
176
     1
175
     1
176
     1
 42
1.0
176
     1
 92
        8
176
     1
 66
     8
424
  7895160
176
     1
 43
1.0
176
     1
 76
     1
176
     1
 77
     6
176
     1
 78
     2
176
     1
 67
     7
176
     1
 79
     5
176
     1
170
     0
176
     1
171
     0
176
     1
290
     0
176
     1
 93
       13
176
     1
 44
0.0
176
     1
173
     0
176
     1
  0
VISUALSTYLE
  5
37
102
{ACAD_REACTORS
330
2A
102
}
330
2A
100
AcDbVisualStyle
  2
Thicken
 70
    13
177
     2
291
     1
 71
     2
176
     1
 72
     2
176
     1
 73
     0
176
     1
 90
        0
176
     1
 40
-0.6
176
     1
 41
-30.0
176
     1
 62
     5
 63
     7
421
 16777215
176
     1
 74
     1
176
     1
 91
        4
176
     1
 64
     7
176
     1
 65
   257
176
     1
 75
     1
176
     1
175
     1
176
     1
 42
1.0
176
     1
 92
       12
176
     1
 66
     7
176
     1
 43
1.0
176
     1
 76
     1
176
     1
 77
     6
176
     1
 78
     2
176
     1
 67
     7
176
     1
 79
     5
176
     1
170
     0
176
     1
171
     0
176
     1
290
     0
176
     1
 93
        1
176
     1
 44
0.0
176
     1
173
     0
176
     1
  0
ENDSEC
  0
EOF
